<svg width="24" height="24" viewBox="0 0 24 24" fill="none" xmlns="http://www.w3.org/2000/svg">
<path d="M6 9L10 4H12V20H10L6 15H3C2.44772 15 2 14.5523 2 14V10C2 9.44772 2.44772 9 3 9H6Z" fill="#F4F6F8"/>
<path fill-rule="evenodd" clip-rule="evenodd" d="M20 12C20 8.68629 17.3137 6 14 6V4C18.4183 4 22 7.58172 22 12C22 16.4183 18.4183 20 14 20V18C17.3137 18 20 15.3137 20 12Z" fill="#F4F6F8"/>
<path fill-rule="evenodd" clip-rule="evenodd" d="M16 12C16 10.8954 15.1046 10 14 10V8C16.2091 8 18 9.79086 18 12C18 14.2091 16.2091 16 14 16V14C15.1046 14 16 13.1046 16 12Z" fill="#F4F6F8"/>
</svg>
