<svg width="569" height="462" fill="none" xmlns="http://www.w3.org/2000/svg"><path d="M136.79 229.968H21.826V115.004H136.79v114.964zM482.142 459.978H367.178V345.014h114.964v114.964z" fill="#181C20"/><path d="M481.212 459.978h12.781v-12.782h-12.781v12.782zM494.696 447.162h12.782v-12.781h-12.782v12.781zM508.187 459.978h12.781v-12.782h-12.781v12.782zM481.212 434.346h12.781v-12.782h-12.781v12.782zM508.187 434.346h12.781v-12.782h-12.781v12.782zM518.984 447.162h12.782v-12.781h-12.782v12.781zM494.696 421.53h12.782v-12.78h-12.782v12.78zM481.212 408.715h12.781v-12.782h-12.781v12.782zM508.187 408.715h12.781v-12.782h-12.781v12.782zM518.984 421.53h12.782v-12.78h-12.782v12.78zM494.696 395.899h12.782v-12.781h-12.782v12.781zM481.212 383.756h12.781v-12.781h-12.781v12.781zM508.187 383.756h12.781v-12.781h-12.781v12.781z" fill="#181C20"/><path d="M518.984 395.899h12.782v-12.781h-12.782v12.781zM494.696 370.94h12.782v-12.781h-12.782v12.781zM481.212 358.124h12.781v-12.781h-12.781v12.781zM508.187 358.124h12.781v-12.781h-12.781v12.781zM518.984 370.94h12.782v-12.781h-12.782v12.781zM532.47 459.978h12.781v-12.782H532.47v12.782zM545.96 447.162h12.781v-12.781H545.96v12.781zM559.45 459.978h12.781v-12.782H559.45v12.782zM532.47 434.346h12.781v-12.782H532.47v12.782zM559.45 434.346h12.781v-12.782H559.45v12.782zM545.96 421.53h12.781v-12.78H545.96v12.78zM532.47 408.715h12.781v-12.782H532.47v12.782zM559.45 408.715h12.781v-12.782H559.45v12.782zM545.96 395.899h12.781v-12.781H545.96v12.781zM532.47 383.756h12.781v-12.781H532.47v12.781zM559.45 383.756h12.781v-12.781H559.45v12.781zM545.96 370.94h12.781v-12.781H545.96v12.781zM532.47 358.124h12.781v-12.781H532.47v12.781zM559.45 358.124h12.781v-12.781H559.45v12.781zM455.504 115.299H442.73V.335h12.774v114.964zM431.215 115.299h-12.773V.335h12.773v114.964zM404.24 115.299h-12.773V.335h12.773v114.964zM379.953 115.299h-12.775V.335h12.775v114.964zM482.486 115.299h-12.781V.335h12.781v114.964z" fill="#181C20"/><path d="M481.55 89.669h114.964V76.895H481.55v12.774zM481.55 64.037h114.964V51.263H481.55v12.774zM481.55 38.405h114.964V25.632H481.55v12.773zM595.467 12.774H480.503V0h114.964v12.774zM481.55 115.299h114.964v-12.782H481.55v12.782z" fill="#181C20"/><path fill-rule="evenodd" clip-rule="evenodd" d="M480.503 115.678v12.774c7.055 0 12.773-5.719 12.773-12.774h-12.773zm0 25.548V154c21.164 0 38.321-17.157 38.321-38.322H506.05c0 14.11-11.438 25.548-25.547 25.548zm0 38.321v-12.774c28.219 0 51.095-22.875 51.095-51.095h12.774c0 35.275-28.596 63.869-63.869 63.869zm0 12.774v12.774c49.383 0 89.416-40.033 89.416-89.417h-12.774c0 42.329-34.314 76.643-76.642 76.643zm0 25.548v12.773c63.492 0 114.964-51.471 114.964-114.964h-12.774c0 56.438-45.752 102.191-102.19 102.191zM482.142 575.319v-12.774c-7.054 0-12.773 5.719-12.773 12.774h12.773zm0-25.548v-12.774c-21.164 0-38.321 17.157-38.321 38.322h12.774c0-14.11 11.438-25.548 25.547-25.548zm0-38.321v12.773c-28.219 0-51.095 22.876-51.095 51.096h-12.773c0-35.274 28.595-63.869 63.868-63.869zm0-12.774v-12.774c-49.383 0-89.416 40.033-89.416 89.417H405.5c0-42.329 34.314-76.643 76.642-76.643zm0-25.548v-12.773c-63.492 0-114.964 51.471-114.964 114.964h12.774c0-56.439 45.753-102.191 102.19-102.191zM137.843 115.299h12.774c0-7.055-5.719-12.774-12.774-12.774v12.774zm25.548 0h12.773c0-21.165-17.157-38.322-38.321-38.322v12.774c14.109 0 25.548 11.439 25.548 25.548zm38.321 0h-12.774c0-28.22-22.876-51.095-51.095-51.095V51.43c35.274 0 63.869 28.595 63.869 63.869zm12.774 0h12.773c0-49.384-40.033-89.417-89.416-89.417v12.774c42.328 0 76.643 34.314 76.643 76.643zm25.547 0h12.774C252.807 51.806 201.336.335 137.843.335v12.773c56.438 0 102.19 45.752 102.19 102.191zM366.131.335h-12.773c0 7.055 5.718 12.774 12.773 12.774V.335zm-25.547 0H327.81c0 21.164 17.157 38.321 38.321 38.321V25.882c-14.109 0-25.547-11.438-25.547-25.547zm-38.322 0h12.774c0 28.219 22.876 51.095 51.095 51.095v12.774c-35.273 0-63.869-28.595-63.869-63.87zm-12.773 0h-12.774c0 49.383 40.033 89.416 89.416 89.416V76.977c-42.328 0-76.642-34.314-76.642-76.642zm-25.548 0h-12.774c0 63.492 51.472 114.964 114.964 114.964v-12.774c-56.438 0-102.19-45.752-102.19-102.19z" fill="#181C20"/><path d="M482.142 115.004v114.964H367.178c0-63.493 51.472-114.964 114.964-114.964zM482.142 245.929l-15.584-15.584h15.584v15.584zm0 18.075v18.074l-51.733-51.733h18.075l33.658 33.659zm0 36.149v18.075l-87.883-87.883h18.075l69.808 69.808zm-114.964 45.156v-15.585l15.584 15.585h-15.584zm51.734 0h-18.075l-33.659-33.66v-18.074l51.734 51.734zm36.15 0h-18.075L367.178 275.5v-18.075l87.884 87.884zm-78.878-114.964h-9.006v9.005l105.959 105.959h9.005v-9.006L376.184 230.345z" fill="#181C20"/></svg>
