<svg width="26" height="32" fill="none" xmlns="http://www.w3.org/2000/svg"><g clip-path="url(#a)" fill="#4038FF"><path d="m16.96.016 2.922.007-.036 13.676a13.065 13.065 0 0 1-3.321 8.677c.26-1.127.394-2.28.396-3.438l.04-18.922ZM7.563 23.866a7.823 7.823 0 0 1-5.982 2.892l.88-2.906 5.102.014ZM9.351 18.631v.291a7.793 7.793 0 0 1-.458 2.618l-5.73-.016.875-2.909 5.313.016ZM22.211.03h2.91L25.1 8.48a13.064 13.064 0 0 1-3.326 8.677c.261-1.127.394-2.28.397-3.438L22.21.03Z"/><path d="m14.64 0-.05 18.93A13.112 13.112 0 0 1 1.456 31.992H0l.878-2.908h.584A10.202 10.202 0 0 0 11.69 18.927L11.728 0h2.913Z"/></g><defs><clipPath id="a"><path fill="#fff" d="M0 0h25.122v32H0z"/></clipPath></defs></svg>
