<svg width="109" height="32" fill="none" xmlns="http://www.w3.org/2000/svg"><g clip-path="url(#clip0)"><path fill-rule="evenodd" clip-rule="evenodd" d="M91.879 7.058h-2.91v-2.91h2.91v2.91zm-2.91 2.327V23.95h3.02l-.11-14.564h-2.91zM72.865 16.47c0 2.186.628 3.964 1.884 5.335 1.274 1.352 2.862 2.028 4.765 2.028.535 0 1.062-.08 1.58-.236.516-.158.932-.334 1.246-.528.314-.195.61-.422.886-.68.278-.26.458-.44.54-.543.084-.102.144-.18.18-.236h.14v2.32h2.908V4.15h-2.937l.028 7.041h-.138l-.444-.528c-.314-.333-.84-.676-1.579-1.028a5.536 5.536 0 00-2.41-.527c-1.903 0-3.486.68-4.752 2.042-1.265 1.361-1.897 3.134-1.897 5.32zm2.644 0c0-1.445.397-2.593 1.192-3.445.794-.852 1.828-1.278 3.103-1.278 1.274 0 2.308.426 3.103 1.278.794.852 1.191 2 1.191 3.445 0 1.445-.397 2.593-1.191 3.445-.795.852-1.829 1.278-3.103 1.278-1.275 0-2.31-.426-3.103-1.278-.795-.852-1.192-2-1.192-3.445zm-27.99-4.445v-2.64h1.662V6.33h2.91v3.056h4.293v2.64H52.09v9.266h4.433v2.64h-4.935a2.407 2.407 0 01-2.407-2.407v-9.5h-1.662zm-10.524 7.273h-3.186l.139.5c.074.314.254.703.54 1.167.286.462.651.926 1.094 1.389.444.463 1.095.856 1.954 1.18.859.325 1.833.486 2.923.486 1.847 0 3.301-.42 4.363-1.264 1.062-.842 1.593-1.857 1.593-3.042 0-.87-.217-1.606-.651-2.209a3.813 3.813 0 00-1.648-1.32 18.637 18.637 0 00-2.134-.736 20.184 20.184 0 00-2.133-.486c-.665-.111-1.214-.292-1.648-.542-.434-.25-.651-.56-.651-.93 0-.445.212-.815.637-1.112.425-.296 1.043-.444 1.856-.444.499 0 .947.064 1.344.194.397.13.702.274.914.43.212.158.397.344.554.557.157.212.254.356.291.43.037.074.065.14.083.195h3.048l-.111-.445c-.074-.315-.245-.69-.513-1.125a8.306 8.306 0 00-1.011-1.306c-.406-.435-1.016-.806-1.828-1.111-.813-.306-1.737-.459-2.771-.459-1.662 0-3.001.417-4.017 1.25-1.016.834-1.524 1.807-1.524 2.918 0 1.037.305 1.88.914 2.528a5.028 5.028 0 002.217 1.375c.868.269 1.736.487 2.604.653.868.167 1.607.38 2.216.64.61.259.915.61.915 1.055 0 .482-.231.88-.693 1.195-.462.315-1.2.472-2.216.472-.517 0-.993-.074-1.427-.222-.434-.148-.767-.315-.998-.5a3.314 3.314 0 01-.61-.64 4.46 4.46 0 01-.332-.5 1.857 1.857 0 01-.097-.221zm56.547-2.828c0 2.093.702 3.844 2.106 5.251 1.404 1.408 3.15 2.112 5.236 2.112 2.087 0 3.833-.704 5.236-2.112 1.404-1.407 2.106-3.158 2.106-5.25 0-2.094-.702-3.844-2.106-5.252-1.403-1.408-3.149-2.111-5.236-2.111-2.087 0-3.832.703-5.236 2.11-1.404 1.409-2.106 3.16-2.106 5.252zm3.048 0c0-1.445.397-2.593 1.191-3.445.794-.852 1.829-1.278 3.103-1.278 1.274 0 2.309.426 3.103 1.278.794.852 1.191 2 1.191 3.445 0 1.445-.397 2.593-1.191 3.445-.794.852-1.829 1.278-3.103 1.278-1.274 0-2.309-.426-3.103-1.278-.794-.852-1.191-2-1.191-3.445zm-28.17-7.08l-.003 7.08c0 2.809-1.738 4.713-3.904 4.723h-.132c-2.166-.01-3.905-1.914-3.905-4.723V9.39h-2.644v7.08c0 4.215 2.421 7.209 6.266 7.357 1.135 0 1.837-.3 2.576-.758a5.66 5.66 0 00.887-.68c.277-.26.457-.44.54-.543.083-.102.143-.18.18-.236h.139v2.339h3.018l-.11-14.564-2.909.004z" fill="#fff"/><path d="M16.874 0h2.908v13.664a13.037 13.037 0 01-3.296 8.675 15.44 15.44 0 00.388-3.44V0zM7.546 23.856a7.825 7.825 0 01-5.981 2.906l.873-2.906h5.108zM9.309 18.62v.292c.001.89-.15 1.775-.448 2.614H3.133L4 18.621h5.309zM22.109 0h2.909v8.438a13.05 13.05 0 01-3.296 8.679c.257-1.13.387-2.285.387-3.443V0z" fill="#4038FF"/><path d="M14.544 0v18.912A13.12 13.12 0 011.453 32H0l.867-2.909h.586a10.189 10.189 0 0010.182-10.179V0h2.909z" fill="#4038FF"/></g><defs><clipPath id="clip0"><path fill="#fff" d="M0 0h108.308v32H0z"/></clipPath></defs></svg>
