<svg width="109" height="32" viewBox="0 0 109 32" fill="none" xmlns="http://www.w3.org/2000/svg">
    <g clip-path="url(#clip0)">
        <path fill-rule="evenodd" clip-rule="evenodd" d="M91.8787 7.05802H88.9696V4.14893H91.8787V7.05802ZM88.9696 9.38537V23.9488H91.9882L91.8787 9.38537H88.9696ZM72.8635 16.4704C72.8635 18.656 73.4916 20.4339 74.7476 21.8047C76.0219 23.1567 77.6103 23.8326 79.513 23.8326C80.0484 23.8326 80.5748 23.7538 81.0922 23.5967C81.6094 23.4393 82.0247 23.2633 82.3389 23.0687C82.6529 22.8742 82.9482 22.6473 83.2253 22.3881C83.5025 22.1286 83.6826 21.9481 83.7658 21.846C83.8487 21.7443 83.9089 21.6655 83.9457 21.6102H84.0842V23.9305H86.9933V4.1504H84.0559L84.0842 11.1914H83.9457L83.5025 10.6634C83.1882 10.3299 82.6618 9.98722 81.9233 9.63522C81.1844 9.28355 80.3809 9.10755 79.513 9.10755C77.6103 9.10755 76.0267 9.78818 74.7614 11.1498C73.4961 12.511 72.8635 14.2845 72.8635 16.4704ZM75.5083 16.4704C75.5083 15.0253 75.9054 13.8768 76.6996 13.025C77.4938 12.1728 78.5281 11.7469 79.8026 11.7469C81.0772 11.7469 82.1114 12.1728 82.9057 13.025C83.6999 13.8768 84.097 15.0253 84.097 16.4704C84.097 17.9148 83.6999 19.0633 82.9057 19.9151C82.1114 20.7673 81.0772 21.1932 79.8026 21.1932C78.5281 21.1932 77.4938 20.7673 76.6996 19.9151C75.9054 19.0633 75.5083 17.9148 75.5083 16.4704ZM47.5178 12.0247V9.38532H49.1802V6.32902H52.0893V9.38532H56.3834V12.0247H52.0893V21.2912H56.5219V23.9305H51.5872C50.258 23.9305 49.1802 22.8527 49.1802 21.5238V12.0247H47.5178ZM36.9943 19.2976H33.8081L33.947 19.7975C34.0209 20.1123 34.2007 20.5011 34.4871 20.9645C34.7735 21.4275 35.138 21.8906 35.5815 22.3536C36.0247 22.8166 36.6756 23.2102 37.5348 23.5344C38.3937 23.8586 39.3678 24.0205 40.4577 24.0205C42.3047 24.0205 43.7591 23.5994 44.8212 22.7565C45.8832 21.9136 46.4141 20.8995 46.4141 19.7139C46.4141 18.8439 46.1972 18.1076 45.7629 17.5053C45.329 16.9034 44.7796 16.4634 44.1146 16.1857C43.4496 15.9079 42.7386 15.6625 41.9815 15.4493C41.2241 15.2362 40.513 15.0743 39.8481 14.9633C39.1831 14.8519 38.6337 14.6714 38.1998 14.4212C37.7655 14.1713 37.5486 13.8609 37.5486 13.4906C37.5486 13.0458 37.761 12.6756 38.1857 12.379C38.6106 12.083 39.2292 11.9348 40.042 11.9348C40.5409 11.9348 40.9885 11.9994 41.3857 12.129C41.7828 12.2586 42.0877 12.4026 42.2999 12.5598C42.5124 12.7172 42.697 12.9025 42.8541 13.1156C43.0109 13.3284 43.1082 13.4721 43.145 13.5463C43.1818 13.6202 43.2096 13.6852 43.2282 13.7406H46.2756L46.1648 13.2961C46.0909 12.9812 45.92 12.6062 45.6522 12.171C45.3844 11.7358 45.0474 11.3003 44.641 10.8651C44.2346 10.4299 43.6253 10.0593 42.8125 9.7537C41.9997 9.4481 41.0762 9.29546 40.042 9.29546C38.3796 9.29546 37.0407 9.71178 36.0247 10.5457C35.0087 11.379 34.5009 12.3518 34.5009 13.4628C34.5009 14.4999 34.8059 15.3428 35.4151 15.9914C36.0247 16.6394 36.7636 17.098 37.6318 17.3664C38.4999 17.6349 39.3678 17.8528 40.2359 18.0192C41.1041 18.186 41.8426 18.3991 42.4522 18.6583C43.0618 18.9178 43.3668 19.2698 43.3668 19.7139C43.3668 20.1955 43.1357 20.5939 42.674 20.9088C42.2122 21.2237 41.4733 21.3811 40.4577 21.3811C39.9406 21.3811 39.4647 21.3072 39.0308 21.1591C38.5966 21.0106 38.2641 20.8442 38.0334 20.6586C37.8023 20.4736 37.5994 20.2605 37.4238 20.0195C37.2484 19.7789 37.1377 19.6122 37.0913 19.5197C37.0452 19.4272 37.0129 19.353 36.9943 19.2976ZM93.5411 16.4704C93.5411 18.5632 94.2429 20.3136 95.6467 21.7213C97.0506 23.1289 98.7962 23.8326 100.883 23.8326C102.97 23.8326 104.716 23.1289 106.119 21.7213C107.523 20.3136 108.225 18.5632 108.225 16.4704C108.225 14.3773 107.523 12.6269 106.119 11.2189C104.716 9.81126 102.97 9.10759 100.883 9.10759C98.7962 9.10759 97.0506 9.81126 95.6467 11.2189C94.2429 12.6269 93.5411 14.3773 93.5411 16.4704ZM96.5888 16.4704C96.5888 15.0253 96.9859 13.8768 97.7801 13.025C98.5743 12.1728 99.6086 11.7469 100.883 11.7469C102.157 11.7469 103.192 12.1728 103.986 13.025C104.78 13.8768 105.177 15.0253 105.177 16.4704C105.177 17.9149 104.78 19.0634 103.986 19.9152C103.192 20.7673 102.157 21.1933 100.883 21.1933C99.6086 21.1933 98.5743 20.7673 97.7801 19.9152C96.9859 19.0634 96.5888 17.9149 96.5888 16.4704ZM68.4185 9.3894L68.4162 16.4704C68.4162 19.279 66.6781 21.1829 64.5119 21.1932L64.4458 21.1932L64.3798 21.1932C62.2136 21.1829 60.4754 19.279 60.4754 16.4704V9.3894H57.8307V16.4704C57.8307 20.6849 60.2524 23.679 64.0972 23.8268C65.232 23.8268 65.9336 23.5267 66.6733 23.0687C66.9872 22.8742 67.2826 22.6473 67.5597 22.3881C67.8368 22.1286 68.017 21.9481 68.1002 21.846C68.1831 21.7443 68.2432 21.6656 68.28 21.6102H68.4186L68.4185 23.9488H71.4371L71.3277 9.38536L68.4185 9.3894Z" fill="white"/>
        <path d="M16.8736 0H19.7824V13.664C19.785 16.8621 18.612 19.9496 16.4864 22.3392C16.744 21.2107 16.8739 20.0568 16.8736 18.8992V0Z" fill="#4038FF"/>
        <path d="M7.54559 23.856C6.82326 24.7498 5.9129 25.4736 4.87921 25.9758C3.84553 26.4779 2.7139 26.7463 1.56479 26.7616L2.43839 23.856H7.54559Z" fill="#4038FF"/>
        <path d="M9.3088 18.6208V18.912C9.3103 19.8027 9.15876 20.687 8.8608 21.5264H3.1328L4 18.6208H9.3088Z" fill="#4038FF"/>
        <path d="M22.1088 0H25.0176V8.4384C25.0198 11.6374 23.8468 14.7258 21.7216 17.1168C21.979 15.9872 22.1089 14.8322 22.1088 13.6736V0Z" fill="#4038FF"/>
        <path d="M14.544 0V18.912C14.5355 22.3811 13.1535 25.7057 10.7001 28.1584C8.24681 30.6111 4.92191 31.9924 1.4528 32H0L0.8672 29.0912H1.4528C4.15227 29.0895 6.74073 28.0166 8.64984 26.1081C10.559 24.1996 11.6327 21.6115 11.6352 18.912V0H14.544Z" fill="#4038FF"/>
    </g>
    <defs>
        <clipPath id="clip0">
            <rect width="108.308" height="32" fill="white"/>
        </clipPath>
    </defs>
</svg>
