<svg width="36" height="32" viewBox="0 0 36 32" fill="none" xmlns="http://www.w3.org/2000/svg">
<g clip-path="url(#clip0_1434_4127)">
<path d="M2.99862 32H0L4.16552 15.3379C4.78381 12.8647 6.42308 10.8615 8.56596 9.73207C6.71029 17.1547 4.85429 24.5773 2.99862 32Z" fill="#4038FF"/>
<path d="M8.2456 32H5.24787L10.8486 9.59707C11.4038 7.37622 12.999 5.63399 15.0363 4.83709L8.2456 32Z" fill="#4038FF"/>
<path d="M13.4933 32H10.4947L17.3814 4.45317C18.0357 1.83601 20.3872 0 23.0849 0C25.7826 0 28.1341 1.83601 28.7884 4.45317L35.6364 32H32.6765L25.9662 5.15873C25.6356 3.8366 24.4477 2.90909 23.0849 2.90909C21.7221 2.90909 20.5341 3.8366 20.2036 5.15873L13.4933 32Z" fill="#4038FF"/>
<path d="M25.1804 32H22.1818L18.962 19.1207L20.4613 13.1235L25.1804 32Z" fill="#4038FF"/>
<path d="M30.4274 32H27.4297L21.5859 8.62497L22.3202 5.68794C22.4079 5.33709 22.7231 5.09095 23.0848 5.09095C23.4464 5.09095 23.7617 5.33709 23.8494 5.68794L30.4274 32Z" fill="#4038FF"/>
</g>
<defs>
<clipPath id="clip0_1434_4127">
<rect width="35.6364" height="32" fill="white"/>
</clipPath>
</defs>
</svg>
