<svg width="105" height="32" viewBox="0 0 105 32" fill="none" xmlns="http://www.w3.org/2000/svg">
<g clip-path="url(#clip0_1429_4158)">
<path d="M2.99862 32H0L4.16552 15.3379C4.78381 12.8647 6.42308 10.8615 8.56596 9.73207C6.71029 17.1547 4.85429 24.5773 2.99862 32Z" fill="#4038FF"/>
<path d="M8.2456 32H5.24787L10.8486 9.59707C11.4038 7.37622 12.999 5.63399 15.0363 4.83709L8.2456 32Z" fill="#4038FF"/>
<path d="M13.4933 32H10.4947L17.3814 4.45317C18.0357 1.83601 20.3872 0 23.0849 0C25.7826 0 28.1341 1.83601 28.7884 4.45317L35.6364 32H32.6765L25.9662 5.15873C25.6356 3.8366 24.4477 2.90909 23.0849 2.90909C21.7221 2.90909 20.5341 3.8366 20.2036 5.15873L13.4933 32Z" fill="#4038FF"/>
<path d="M25.1804 32H22.1818L18.962 19.1207L20.4613 13.1235L25.1804 32Z" fill="#4038FF"/>
<path d="M30.4274 32H27.4297L21.5859 8.62497L22.3202 5.68794C22.4079 5.33709 22.7231 5.09095 23.0848 5.09095C23.4464 5.09095 23.7617 5.33709 23.8494 5.68794L30.4274 32Z" fill="#4038FF"/>
<path d="M91.8365 19.2844H95.0364C95.0618 19.3607 95.0939 19.4346 95.1324 19.5052C95.2274 19.6798 95.3343 19.8476 95.4524 20.0075C95.8391 20.5598 96.404 20.9621 97.0524 21.1467C97.5128 21.2981 97.9949 21.3727 98.4796 21.3675C99.4929 21.3675 100.231 21.2097 100.694 20.8939C100.908 20.7746 101.088 20.6009 101.213 20.3902C101.339 20.1795 101.407 19.9393 101.411 19.6939C101.411 19.2481 101.106 18.8961 100.496 18.638C99.7814 18.3489 99.0394 18.1344 98.2812 17.998C97.4017 17.8333 96.5321 17.6197 95.6764 17.358C94.8296 17.1028 94.0649 16.6293 93.4589 15.9852C92.8344 15.295 92.5057 14.3873 92.5437 13.4573C92.5437 12.3437 93.0525 11.3709 94.07 10.5389C95.0876 9.70694 96.4209 9.28882 98.07 9.28455C99.0136 9.26979 99.9523 9.42479 100.841 9.74214C101.527 9.97031 102.151 10.3511 102.668 10.8557C103.049 11.2567 103.388 11.6952 103.679 12.1645C103.908 12.5099 104.08 12.8888 104.191 13.2877L104.303 13.7325H101.257C101.233 13.6671 101.205 13.603 101.174 13.5405C101.086 13.3903 100.989 13.2459 100.883 13.1085C100.726 12.8968 100.54 12.7091 100.329 12.5517C100.048 12.3622 99.7394 12.2175 99.4139 12.1229C98.9792 11.9866 98.5255 11.9207 98.07 11.9277C97.4206 11.8854 96.7736 12.0404 96.214 12.3725C96.0215 12.4876 95.8616 12.6501 95.7496 12.8444C95.6376 13.0388 95.5771 13.2586 95.574 13.4829C95.5848 13.6819 95.6503 13.8741 95.7632 14.0384C95.8761 14.2026 96.0321 14.3326 96.214 14.414C96.7366 14.6894 97.3046 14.8683 97.8908 14.942C98.6102 15.0669 99.3226 15.2293 100.025 15.4284C100.75 15.6321 101.463 15.8778 102.159 16.1644C102.822 16.4422 103.392 16.9001 103.807 17.486C104.251 18.1349 104.475 18.9086 104.447 19.6939C104.447 20.8811 103.916 21.8923 102.847 22.7371C101.779 23.5819 100.332 24.0043 98.486 24.0043C97.4897 24.0197 96.4989 23.8549 95.5612 23.5179C94.8314 23.2732 94.1647 22.87 93.6093 22.3371C93.1987 21.9121 92.8321 21.4469 92.5149 20.9483C92.2758 20.589 92.0934 20.1951 91.9741 19.7803L91.8365 19.2844Z" fill="white"/>
<path d="M59.9892 11.9917V9.35173H61.6532V6.29579H64.5619V9.35173H68.8562V11.9917H64.5619V21.2715H68.9938V23.9115H64.0595C63.4213 23.9115 62.8093 23.6579 62.358 23.2066C61.9067 22.7554 61.6532 22.1433 61.6532 21.5051V11.9917H59.9892Z" fill="white"/>
<path d="M71.1092 5.00238H74.018V23.9115H71.1092C71.1092 17.9042 71.1092 11.0096 71.1092 5.00238Z" fill="white"/>
<path d="M46.1396 21.7803C44.8853 20.4107 44.257 18.6326 44.2549 16.446C44.2528 14.2594 44.8853 12.4866 46.1524 11.1277C46.7513 10.4657 47.4857 9.94048 48.3056 9.58765C49.1256 9.23482 50.0119 9.06268 50.9044 9.08295C51.7366 9.0726 52.5604 9.25093 53.3139 9.60454C53.8977 9.85158 54.433 10.2005 54.8947 10.6349L55.3331 11.1725H55.4739V9.36455H58.3826V23.9115H55.4739V21.5915H55.3331C55.2778 21.6727 55.218 21.7507 55.1539 21.8251C54.9843 22.0167 54.8037 22.1984 54.6131 22.3691C54.3435 22.6236 54.0487 22.8498 53.7331 23.0443C52.8711 23.5342 51.8989 23.7973 50.9076 23.8091C50.0144 23.8303 49.1271 23.6606 48.3048 23.3113C47.4826 22.9619 46.7444 22.4411 46.1396 21.7835V21.7803ZM48.0916 13.0061C47.298 13.8594 46.9012 15.0071 46.9012 16.4492C46.9012 17.8913 47.298 19.0401 48.0916 19.8955C48.9168 20.7137 50.0319 21.1728 51.194 21.1728C52.356 21.1728 53.4711 20.7137 54.2963 19.8955C55.0941 19.0422 55.492 17.8934 55.4899 16.4492C55.4877 15.005 55.0899 13.8573 54.2963 13.0061C53.4719 12.1863 52.3565 11.7262 51.194 11.7262C50.0314 11.7262 48.916 12.1863 48.0916 13.0061Z" fill="white"/>
<path d="M77.7753 21.7803C76.5209 20.4107 75.8927 18.6326 75.8905 16.446C75.8884 14.2594 76.5209 12.4866 77.7881 11.1277C78.3869 10.4657 79.1213 9.94048 79.9413 9.58765C80.7612 9.23482 81.6476 9.06268 82.54 9.08295C83.3723 9.0726 84.1961 9.25093 84.9495 9.60454C85.5334 9.85158 86.0686 10.2005 86.5303 10.6349L86.9687 11.1725H87.1095V9.36455H90.0182V23.9115H87.1095V21.5915H86.9687C86.9134 21.6727 86.8536 21.7507 86.7895 21.8251C86.6199 22.0167 86.4393 22.1984 86.2487 22.3691C85.9792 22.6236 85.6843 22.8498 85.3687 23.0443C84.5068 23.5342 83.5346 23.7973 82.5432 23.8091C81.6501 23.8303 80.7627 23.6606 79.9405 23.3113C79.1182 22.9619 78.38 22.4411 77.7753 21.7835V21.7803ZM79.7272 13.0061C78.9337 13.8594 78.5368 15.0071 78.5368 16.4492C78.5368 17.8913 78.9337 19.0401 79.7272 19.8955C80.5525 20.7137 81.6675 21.1728 82.8296 21.1728C83.9917 21.1728 85.1067 20.7137 85.9319 19.8955C86.7298 19.0422 87.1276 17.8934 87.1255 16.4492C87.1234 15.005 86.7255 13.8573 85.9319 13.0061C85.1075 12.1863 83.9922 11.7262 82.8296 11.7262C81.667 11.7262 80.5517 12.1863 79.7272 13.0061Z" fill="white"/>
</g>
<defs>
<clipPath id="clip0_1429_4158">
<rect width="104.727" height="32" fill="white"/>
</clipPath>
</defs>
</svg>
