<svg width="136" height="136" viewBox="0 0 136 136" fill="none" xmlns="http://www.w3.org/2000/svg">
<path d="M68 136C105.555 136 136 105.555 136 68C136 30.4446 105.555 0 68 0C30.4446 0 0 30.4446 0 68C0 105.555 30.4446 136 68 136Z" fill="#181C20"/>
<mask id="mask0_1008_6546" style="mask-type:alpha" maskUnits="userSpaceOnUse" x="0" y="0" width="136" height="136">
<path d="M68 136C105.555 136 136 105.555 136 68C136 30.4446 105.555 0 68 0C30.4446 0 0 30.4446 0 68C0 105.555 30.4446 136 68 136Z" fill="#181C20"/>
</mask>
<g mask="url(#mask0_1008_6546)">
<path d="M67.9999 78.5778C81.353 78.5778 92.1777 67.753 92.1777 54.4C92.1777 41.0469 81.353 30.2222 67.9999 30.2222C54.6469 30.2222 43.8221 41.0469 43.8221 54.4C43.8221 67.753 54.6469 78.5778 67.9999 78.5778Z" fill="#424E57"/>
<path d="M25.6888 120.889C25.6888 104.198 39.2198 90.6666 55.911 90.6666H80.0888C96.7801 90.6666 110.311 104.198 110.311 120.889V179.822C110.311 196.514 96.7801 210.044 80.0888 210.044H55.911C39.2198 210.044 25.6888 196.514 25.6888 179.822V120.889Z" fill="#424E57"/>
<path d="M68 135C105.003 135 135 105.003 135 68C135 30.9969 105.003 1 68 1C30.9969 1 1 30.9969 1 68C1 105.003 30.9969 135 68 135Z" stroke="#181C20" stroke-width="2"/>
</g>
</svg>
