<svg width="240" height="152" viewBox="0 0 240 152" fill="none" xmlns="http://www.w3.org/2000/svg">
    <path fill-rule="evenodd" clip-rule="evenodd"
          d="M225.552 145.734V152H219.285L145.552 78.267V72H151.818L225.552 145.734ZM145.552 91.2V103.705L193.847 152H206.352L145.552 91.2ZM145.552 128.577V116L181.552 152H168.974L145.552 128.577ZM145.552 152H156.752L145.552 140.8V152ZM164.752 72H177.256L225.552 120.295V132.8L164.752 72ZM202.129 72H189.552L225.552 108V95.4226L202.129 72ZM225.552 83.2L214.352 72H225.552V83.2Z"
          fill="#1F252E"/>
    <path fill-rule="evenodd" clip-rule="evenodd"
          d="M141.486 58.7708L147.516 52.24L154.047 58.27L148.017 64.8008L141.486 58.7708ZM128.425 46.7109L134.455 40.18L140.986 46.21L134.956 52.7409L128.425 46.7109ZM115.363 34.6509L121.393 28.12L127.924 34.15L121.894 40.6809L115.363 34.6509ZM102.301 22.5909L108.331 16.0601L114.862 22.0901L108.832 28.6209L102.301 22.5909ZM89.2398 10.5309L95.2698 4.00012L101.801 10.0301L95.7706 16.5609L89.2398 10.5309ZM128.926 59.2716L134.956 52.7409L141.486 58.7708L135.456 65.3016L128.926 59.2716ZM115.864 47.2117L121.894 40.6809L128.425 46.7109L122.395 53.2417L115.864 47.2117ZM102.802 35.1517L108.832 28.6209L115.363 34.6509L109.333 41.1817L102.802 35.1517ZM89.7407 23.0917L95.7706 16.5609L102.301 22.5909L96.2715 29.1217L89.7407 23.0917ZM129.426 71.8325L135.456 65.3016L141.987 71.3316L135.957 77.8625L129.426 71.8325ZM116.365 59.7725L122.395 53.2417L128.926 59.2716L122.896 65.8025L116.365 59.7725ZM103.303 47.7125L109.333 41.1817L115.864 47.2117L109.834 53.7425L103.303 47.7125ZM90.2415 35.6526L96.2715 29.1217L102.802 35.1517L96.7723 41.6825L90.2415 35.6526ZM77.1799 23.5926L83.2099 17.0617L89.7407 23.0917L83.7107 29.6226L77.1799 23.5926ZM116.866 72.3333L122.896 65.8025L129.426 71.8325L123.396 78.3633L116.866 72.3333ZM103.804 60.2733L109.834 53.7425L116.365 59.7725L110.335 66.3033L103.804 60.2733ZM90.7424 48.2133L96.7723 41.6825L103.303 47.7125L97.2732 54.2433L90.7424 48.2133ZM77.6807 36.1534L83.7107 29.6226L90.2415 35.6526L84.2115 42.1833L77.6807 36.1534ZM91.2432 60.7742L97.2732 54.2433L103.804 60.2733L97.774 66.8042L91.2432 60.7742ZM78.1815 48.7142L84.2115 42.1833L90.7424 48.2133L84.7123 54.7442L78.1815 48.7142ZM65.1199 36.6542L71.1499 30.1234L77.6807 36.1534L71.6507 42.6842L65.1199 36.6542ZM117.366 84.8941L123.396 78.3633L129.927 84.3933L123.897 90.9241L117.366 84.8941ZM104.305 72.8341L110.335 66.3033L116.866 72.3333L110.836 78.8641L104.305 72.8341ZM104.806 85.3949L110.836 78.8641L117.366 84.8941L111.336 91.4249L104.806 85.3949ZM91.744 73.335L97.774 66.8042L104.305 72.8341L98.2749 79.3649L91.744 73.335ZM78.6824 61.275L84.7123 54.7442L91.2432 60.7742L85.2132 67.3049L78.6824 61.275ZM65.6207 49.215L71.6507 42.6842L78.1815 48.7142L72.1516 55.245L65.6207 49.215ZM105.306 97.9557L111.336 91.4249L117.867 97.4549L111.837 103.986L105.306 97.9557ZM92.2449 85.8958L98.2749 79.3649L104.806 85.3949L98.7757 91.9258L92.2449 85.8958ZM79.1832 73.8358L85.2132 67.3049L91.744 73.335L85.714 79.8658L79.1832 73.8358ZM66.1216 61.7758L72.1516 55.245L78.6824 61.275L72.6524 67.8058L66.1216 61.7758ZM53.0599 49.7159L59.0899 43.185L65.6207 49.215L59.5907 55.7458L53.0599 49.7159ZM92.7457 98.4566L98.7757 91.9258L105.306 97.9557L99.2765 104.487L92.7457 98.4566ZM79.6841 86.3966L85.714 79.8658L92.2449 85.8958L86.2149 92.4266L79.6841 86.3966ZM66.6224 74.3366L72.6524 67.8058L79.1832 73.8358L73.1532 80.3666L66.6224 74.3366ZM53.5608 62.2766L59.5907 55.7458L66.1216 61.7758L60.0916 68.3066L53.5608 62.2766ZM93.2465 111.017L99.2765 104.487L105.807 110.517L99.7773 117.047L93.2465 111.017ZM80.1849 98.9574L86.2149 92.4266L92.7457 98.4566L86.7157 104.987L80.1849 98.9574ZM67.1232 86.8974L73.1532 80.3666L79.6841 86.3966L73.6541 92.9274L67.1232 86.8974ZM54.0616 74.8375L60.0916 68.3066L66.6224 74.3366L60.5924 80.8674L54.0616 74.8375ZM41 62.7775L47.03 56.2467L53.5608 62.2766L47.5308 68.8075L41 62.7775Z"
          fill="#52616B"/>
    <path fill-rule="evenodd" clip-rule="evenodd"
          d="M14 80.889V72C58.182 72 94 107.818 94 152H85.1111C85.1111 112.725 53.2754 80.889 14 80.889ZM14 98.5144V89.6C48.4626 89.6 76.4 117.537 76.4 152H67.4857C67.4857 122.462 43.5377 98.5144 14 98.5144ZM14 108V116.8C33.4396 116.8 49.2 132.561 49.2 152H58C58 127.699 38.3014 108 14 108ZM14 133.866V124.8C29.0238 124.8 41.2 136.976 41.2 152H32.1333C32.1333 141.986 24.014 133.866 14 133.866ZM14 152V143.2C18.8618 143.2 22.8 147.138 22.8 152H14Z"
          fill="#1F252E"/>
</svg>
