<svg width="512" height="512" viewBox="0 0 512 512" fill="none" xmlns="http://www.w3.org/2000/svg">
    <g clip-path="url(#clip0_1007_3756)">
        <path d="M262.828 88.9874L262.829 88.9873C264.219 90.2735 265.458 92.2649 266.27 94.4179C267.084 96.5737 267.446 98.8274 267.15 100.629L267.149 100.637L267.149 100.637C267.1 100.969 266.911 101.478 266.626 102.136C266.488 102.455 266.333 102.794 266.171 103.15L266.168 103.156C266.006 103.512 265.837 103.884 265.675 104.257C265.351 104.999 265.043 105.77 264.856 106.476C264.69 107.1 264.597 107.748 264.73 108.304C264.686 108.452 264.649 108.602 264.616 108.739C264.603 108.79 264.591 108.84 264.579 108.886C264.521 109.117 264.465 109.302 264.389 109.455C264.316 109.601 264.231 109.704 264.119 109.778C264.005 109.852 263.828 109.921 263.533 109.939L263.34 109.95L263.205 110.089L263.078 110.218L262.981 110.318L262.949 110.455C262.898 110.678 262.874 110.905 262.922 111.114C262.977 111.351 263.118 111.54 263.328 111.65C263.508 111.745 263.699 111.76 263.832 111.76C263.962 111.761 264.1 111.748 264.211 111.737L264.232 111.735C264.51 111.708 264.636 111.708 264.704 111.734C264.711 111.737 264.711 111.738 264.711 111.738C264.711 111.739 264.711 111.739 264.712 111.739C264.718 111.75 264.746 111.803 264.752 111.941L264.765 112.212L265 112.349C266.122 113.001 267.046 113.618 267.939 114.214C268.329 114.474 268.713 114.73 269.105 114.984C270.388 115.814 271.719 116.589 273.521 117.297C275.232 117.978 276.918 118.68 278.304 119.638C279.679 120.589 280.728 121.771 281.198 123.407L281.214 123.465L281.244 123.517C283.733 127.869 285.413 135.578 285.985 145.08C286.555 154.561 286.019 165.759 284.126 177.039C282.023 189.577 281.842 203.328 281.687 215.053C281.653 217.638 281.62 220.125 281.569 222.479C281.425 229.015 281.135 234.495 280.283 238.244C279.856 240.123 279.3 241.504 278.599 242.365C277.926 243.192 277.124 243.537 276.092 243.383C276.006 243.37 275.915 243.379 275.875 243.383L275.873 243.383C275.815 243.389 275.744 243.398 275.666 243.409C275.51 243.432 275.299 243.467 275.042 243.509L274.953 243.524C274.444 243.608 273.756 243.722 272.914 243.845C271.131 244.105 268.658 244.407 265.758 244.552C259.952 244.841 252.466 244.499 245.394 241.957C238.291 239.403 232.13 235.712 227.776 232.22C225.598 230.473 223.884 228.785 222.732 227.324C222.156 226.594 221.729 225.93 221.453 225.353C221.174 224.769 221.068 224.312 221.087 223.981L221.087 223.979C221.195 221.902 221.603 219.857 222.091 217.8C222.245 217.153 222.407 216.503 222.569 215.849C222.92 214.438 223.275 213.014 223.552 211.592L223.553 211.586C223.566 211.518 223.579 211.446 223.593 211.373C223.625 211.204 223.659 211.025 223.687 210.853C224.131 208.313 223.899 205.769 223.6 203.283C223.56 202.949 223.518 202.616 223.477 202.284C223.208 200.125 222.946 198.015 223.05 195.91C223.248 191.964 224.088 188.072 224.935 184.15C225.114 183.322 225.293 182.492 225.467 181.66C225.716 180.79 225.733 179.873 225.515 178.995L225.51 178.974L225.503 178.954C225.336 178.466 225.05 178.059 224.769 177.705C224.661 177.568 224.557 177.444 224.458 177.326C224.284 177.116 224.124 176.924 223.972 176.706L223.971 176.705C222.273 174.291 222.971 171.565 224.281 168.586C224.59 167.884 224.927 167.181 225.267 166.471L225.317 166.366C225.672 165.625 226.029 164.877 226.348 164.136C226.983 162.661 227.492 161.166 227.55 159.716M262.828 88.9874L227.619 133.254L228.113 133.174C228.656 136.528 228.566 139.948 227.846 143.273L227.846 143.276C227.695 143.953 227.519 144.626 227.342 145.289C227.322 145.365 227.302 145.441 227.282 145.516C227.125 146.105 226.97 146.686 226.831 147.268C226.517 148.582 226.295 149.87 226.33 151.164L226.33 151.169C226.353 152.467 226.638 153.747 226.936 155.084C226.954 155.166 226.972 155.249 226.991 155.331C227.303 156.738 227.611 158.208 227.55 159.716M262.828 88.9874L262.819 88.9783M262.828 88.9874L262.819 88.9783M227.55 159.716L227.05 159.696L227.55 159.716C227.55 159.716 227.55 159.716 227.55 159.716ZM262.819 88.9783C262.127 88.304 260.728 87.6634 258.995 87.3045C257.278 86.9492 255.317 86.8878 253.554 87.2982C249.961 88.1344 246.382 90.0799 244.622 92.9914L244.596 93.0328M262.819 88.9783L244.596 93.0328M244.596 93.0328L244.564 93.0686M244.596 93.0328L244.564 93.0686M244.564 93.0686C243.748 93.9683 243.334 94.8938 243.272 95.8101C243.209 96.7259 243.494 97.6892 244.177 98.6719L244.294 98.8406M244.564 93.0686L244.294 98.8406M244.294 98.8406L244.259 99.0429M244.294 98.8406L244.259 99.0429M244.259 99.0429C243.897 101.119 243.731 102.815 243.833 104.801L243.838 104.884M244.259 99.0429L243.838 104.884M243.838 104.884L243.815 104.963M243.838 104.884L243.815 104.963M243.815 104.963C243.618 105.663 243.776 106.233 244.109 106.766M243.815 104.963L244.109 106.766M244.109 106.766C244.4 107.231 244.801 107.637 245.22 108.062M244.109 106.766L245.22 108.062M245.22 108.062C245.31 108.152 245.4 108.244 245.49 108.337L245.22 108.062ZM235.369 114.919C235.368 114.919 235.368 114.919 235.368 114.919L235.283 114.426L235.369 114.919C235.369 114.919 235.369 114.919 235.369 114.919Z"
              fill="black" stroke="black"/>
        <path d="M254.266 149.369C254.441 155.13 253.082 160.229 251.002 165.557C246.039 153.74 242.1 141.567 240.013 128.914C239.614 126.523 239.283 124.132 239.02 121.739C238.894 120.652 239.066 119.17 240.19 118.996C241.726 130.245 244.508 141.304 248.487 151.987C248.561 152.245 248.695 152.483 248.88 152.684C249.523 153.289 250.102 152.663 249.886 151.978C246.975 142.756 245.105 133.326 243.245 123.813C242.937 121.747 242.785 119.662 242.788 117.574C244.786 116.476 247.841 114.799 249.349 115.775C249.824 120.904 251.5 126.012 251.961 131.223C252.002 132.291 252.173 133.35 252.472 134.379C252.624 134.819 252.81 135.247 253.03 135.659C253.389 140.245 254.122 144.784 254.266 149.369Z"
              fill="#B5C1C9"/>
        <path d="M268.206 151.213C264.752 149.515 262.539 146.195 259.811 143.518C258.795 142.523 257.137 142.662 258.519 144.107C259.481 145.109 260.512 146.062 261.528 147.01C263.497 148.86 265.51 150.656 267.496 152.49C267.727 152.673 267.915 152.9 268.05 153.158C268.179 153.518 268.213 153.903 268.151 154.279C267.905 157.272 267.929 160.28 268.22 163.268C268.378 164.84 268.603 166.521 268.02 167.995C268.171 167.604 265.707 164.834 265.385 164.367C263.849 162.221 262.357 160.048 260.929 157.821C259.383 155.382 256.937 152.989 256.484 150.063C256.251 148.519 256.576 146.912 256.495 145.381C256.419 143.76 256.22 142.146 255.901 140.553C255.656 139.6 255.521 138.623 255.497 137.642C255.485 137.47 255.531 137.3 255.63 137.156C255.911 136.805 256.485 137.042 256.864 137.292C259.993 139.377 263.375 141.081 266.934 142.365C267.622 142.616 268.388 142.917 268.649 143.574C268.753 143.896 268.785 144.235 268.742 144.57C268.647 146.807 268.468 149.022 268.206 151.213Z"
              fill="#B5C1C9"/>
        <path d="M232.843 126.381C232.655 134.748 234.425 143.558 236.506 151.642C238.663 160.13 241.919 168.117 245.615 176.091C250.505 186.645 256.923 196.594 264.092 205.91C265.026 207.123 266.785 209.044 268.585 208.123C268.335 208.25 261.494 198.334 260.876 197.415C258.308 193.74 255.825 190.008 253.539 186.166C249.004 178.611 245.244 170.663 242.309 162.429C241.742 160.747 241.175 159.05 240.657 157.346C240.173 155.719 239.729 154.082 239.325 152.436C237.225 143.835 236.287 135.025 235.811 126.213C235.709 124.329 236.101 121.843 238.067 121.524C236.604 137.525 244.382 152.8 251.402 167.408C256.549 178.207 261.452 189.158 267.597 199.493C268.355 200.765 269.162 202.067 270.403 202.945C268.402 199.133 266.406 195.327 264.368 191.531C262.284 187.655 260.264 183.75 258.307 179.818C256.162 175.499 254.135 171.131 252.228 166.713C252.509 166.744 252.793 166.698 253.048 166.582C253.358 166.82 254.395 166.812 254.529 166.5C256.058 163.035 257.129 159.405 257.716 155.693C259.492 158.541 261.332 161.353 263.236 164.128C264.221 165.561 265.226 166.978 266.25 168.379C266.916 169.293 268.641 170.878 268.88 171.951C271.116 181.221 273.17 190.56 274.013 200.108C274.535 206.038 274.272 211.957 274.257 217.887C274.248 220.231 274.133 222.569 273.912 224.9C271.421 222.271 268.983 219.569 266.673 216.82C258.153 206.77 250.355 195.839 242.651 175.542C243.457 179.457 249.237 196.372 254.636 205.141C260.24 214.243 266.886 221.493 269.7 224.658C270.57 225.547 271.311 226.542 271.901 227.618C273.411 230.747 273.102 232.708 271.923 235.976C261.724 228.577 253.886 218.506 248.295 207.577C242.705 196.648 239.221 184.819 236.848 172.895C233.8 157.568 232.458 141.979 232.843 126.381Z"
              fill="#B5C1C9"/>
        <path d="M237.52 128.247C237.966 136.356 238.848 144.467 240.827 152.377C241.192 153.892 241.61 155.398 242.083 156.895C242.562 158.463 243.086 160.025 243.641 161.572C246.408 169.148 249.956 176.461 254.234 183.411C256.391 186.946 258.734 190.379 261.158 193.759C262.51 195.644 264.095 196.92 264.728 199.201C265.459 201.844 266.275 204.149 267.944 206.444C266.156 203.982 261.016 197.011 260.699 196.573C258.276 193.192 255.933 189.759 253.776 186.224C249.497 179.274 245.95 171.961 243.182 164.386C242.648 162.838 242.113 161.276 241.624 159.709C241.169 158.211 240.75 156.705 240.369 155.191C238.389 147.276 237.507 139.17 237.062 131.06C236.975 130.051 237.13 129.036 237.518 128.088L237.52 128.247Z"
              fill="white"/>
        <path d="M247.953 122.414C249.933 131.49 250.975 140.713 251.066 149.967C251.096 156.208 250.659 151.818 250.009 150.662C249.856 150.442 249.719 150.213 249.597 149.977C249.596 149.926 249.562 149.876 249.538 149.826C247.061 141.747 245.315 133.564 243.617 125.305C243.297 123.272 243.139 121.221 243.145 119.167L243.753 118.853C243.807 119.994 247.725 121.281 247.953 122.414Z"
              fill="white"/>
        <path d="M232.526 129.228C232.525 129.143 232.523 129.059 232.563 128.979C232.569 129.306 232.575 129.633 232.58 129.969C232.168 135.95 232.722 141.989 233.374 147.967C235.09 163.726 237.37 179.575 242.86 194.521C248.35 209.468 257.319 223.601 270.473 233.227C271.218 234.303 271.81 234.264 271.218 236.774C258.064 227.148 247.906 212.45 242.395 197.499C236.885 182.548 234.625 166.704 232.909 150.93C232.122 143.717 231.442 136.404 232.526 129.228Z"
              fill="white"/>
        <path d="M246.781 97.8464C246.917 97.5097 247.088 97.1874 247.293 96.8846C247.919 95.8545 248.412 94.7198 249.353 93.883C249.536 93.6984 249.756 93.5523 250.001 93.4539C250.221 93.3787 250.459 93.3695 250.679 93.2892C251 93.1127 251.299 92.9024 251.571 92.6622C251.855 92.4163 252.276 92.39 252.59 92.5986C252.747 92.2557 253.03 91.9805 253.384 91.8255C253.779 91.7873 254.177 91.7992 254.568 91.8609C254.991 91.8536 255.4 91.3827 255.79 91.9466C255.851 92.0784 255.937 92.1979 256.044 92.2989C256.177 92.3658 256.324 92.4016 256.474 92.4035C257.342 92.5311 257.913 93.4689 258.786 93.5454C258.983 93.5362 259.179 93.5586 259.368 93.6117C260.214 93.9537 260.638 95.2457 260.904 95.985C261.46 97.5906 263.205 100.399 261.753 101.958C261.535 102.191 261.232 102.39 261.174 102.691C261.116 102.993 261.183 103.201 261.082 103.442C260.98 103.683 260.707 103.79 260.562 103.961C260.384 104.29 260.284 104.654 260.269 105.026C260.088 105.849 259.338 106.423 258.805 107.089C258.376 107.632 258.081 108.264 257.689 108.836C255.825 111.564 250.689 110.864 248.789 108.482C248.183 107.845 247.927 106.968 248.098 106.119C247.994 105.998 247.936 105.846 247.932 105.689C247.93 105.59 247.939 105.49 247.958 105.393C247.957 105.337 247.956 105.266 247.957 105.301C247.936 105.238 247.908 105.177 247.874 105.119C247.658 104.768 247.772 104.313 248.131 104.096C248.394 103.948 248.72 103.958 248.971 104.122C249.554 104.509 252.383 103.762 253.111 103.713C254.829 103.593 256.554 103.596 258.271 103.72C258.74 103.007 259.139 102.252 259.463 101.468C259.538 101.319 259.567 101.151 259.544 100.987C259.465 100.693 259.114 100.582 258.863 100.403C257.938 99.7514 258.359 98.46 257.236 97.97C256.704 97.7347 256.075 97.6947 255.522 97.4903C254.825 97.2069 254.165 96.6171 253.428 96.7828C252.797 96.9263 252.302 97.6075 251.666 97.481C251.433 97.4341 251.203 97.2801 250.982 97.3604C250.762 97.4407 250.7 97.8392 250.535 98.0816C250.293 98.4425 249.729 98.4676 249.439 98.7988C249.149 99.13 249.234 99.5056 249.06 99.8245C248.891 100.086 248.619 100.27 248.307 100.334C247.994 100.399 247.668 100.34 247.403 100.169C246.886 99.7914 246.614 99.1783 246.688 98.5563C246.688 98.3168 246.72 98.0784 246.781 97.8464ZM254.387 105.695C253.164 105.604 251.563 105.156 250.433 105.934C250.315 106.017 250.205 106.109 250.103 106.208C250.09 106.285 250.063 106.358 250.024 106.427C250.607 106.665 251.206 106.873 251.815 107.05C253.587 107.472 255.461 106.801 256.435 105.396C255.768 105.571 255.081 105.672 254.387 105.695Z"
              fill="white"/>
        <path d="M275.615 167.357C276.937 169.245 276.692 173.4 276.858 175.65C276.92 176.664 277.665 180.975 276.541 181.647C275.894 182.033 274.343 176.553 274.225 176.139C273.831 174.78 273.225 173.368 273.47 172.031C273.746 170.486 274.457 168.394 275.615 167.357Z"
              fill="white"/>
        <path d="M227.92 169.745C228.209 168.784 228.366 167.717 229.105 166.989C229.94 166.133 231.005 165.456 232.212 165.013C232.275 164.928 232.338 164.843 232.401 164.768C232.47 164.812 232.532 164.862 232.586 164.918C232.589 164.933 232.589 164.947 232.587 164.962C233.263 165.7 233.219 167.573 233.324 168.552C233.392 169.044 233.954 170.976 233.22 171.659C232.798 172.051 231.678 169.778 231.587 169.608C231.429 169.285 231.224 168.978 231.101 168.63C230.689 169.278 230.277 169.882 229.992 170.365C229.609 171.002 228.333 173.878 227.241 173.897C226.642 173.903 227.831 170.038 227.92 169.745Z"
              fill="white"/>
        <path d="M256.242 115.15C256.164 114.929 256.147 114.691 256.194 114.46C256.284 114.235 256.429 114.036 256.617 113.883L258.159 112.386C257.885 115.53 259.751 117.663 262.65 118.418C265.654 119.203 268.779 120.101 270.97 122.228C272.804 123.986 275.715 125.554 276.28 127.982C276.574 129.333 278.636 136.386 278.832 142.459C279.129 151.654 277.472 160.803 277.322 161.924C277.104 163.539 275.898 165.223 274.577 162.045C273.536 159.552 274.151 159.054 274.217 156.537C274.307 153.297 274.303 150.054 274.153 146.818C273.839 140.216 273.852 131.019 268.447 126.238C268.918 127.821 269.175 129.459 269.211 131.11C269.283 133.401 269.192 135.73 269.045 138.05C269.042 138.371 268.944 138.685 268.762 138.95C268.518 139.246 268.15 139.413 267.767 139.401C267.008 139.411 266.26 139.217 265.603 138.837C264.938 138.462 264.494 137.585 264.003 136.992C262.888 135.694 261.842 134.338 260.869 132.93C259.174 130.453 254.032 123.632 257.576 120.902C258.018 120.595 258.361 120.166 258.563 119.666C259.06 118.172 256.766 116.998 256.242 115.15Z"
              fill="white"/>
        <path d="M360.832 120.791L360.832 120.791C361.975 120.702 362.649 120.281 363.254 119.882C363.278 119.866 363.301 119.85 363.325 119.835C363.881 119.467 364.376 119.139 365.222 118.998L365.296 118.986L365.362 118.952L366.378 118.448L366.436 118.419L366.485 118.377C366.932 117.986 367.478 117.996 368.281 118.021L368.288 118.021C369.023 118.044 369.993 118.074 370.766 117.299L370.81 117.254L370.841 117.201C371.001 116.932 371.221 116.664 371.474 116.37C371.503 116.335 371.533 116.301 371.564 116.265C371.782 116.012 372.02 115.736 372.212 115.455C372.432 115.134 372.629 114.757 372.671 114.329C372.716 113.881 372.585 113.44 372.263 113.014L372.261 113.012C372.187 112.915 372.113 112.819 372.038 112.723C371.637 112.204 371.245 111.699 370.984 111.139C370.688 110.504 370.579 109.837 370.872 109.066L370.9 108.992L370.904 108.914C370.957 107.888 370.721 106.885 370.504 105.965C370.468 105.81 370.432 105.657 370.398 105.506C370.155 104.432 370 103.448 370.273 102.44L370.329 102.234L370.219 102.051C369.003 100.03 369.43 97.4278 371.228 95.8986L371.273 95.8604L371.308 95.8128C371.976 94.9 373.105 94.0791 374.511 93.4231C375.911 92.7701 377.55 92.2978 379.194 92.0603C380.839 91.8226 382.468 91.8233 383.849 92.0993C385.238 92.3768 386.321 92.9202 386.957 93.7172L386.956 93.7173L386.965 93.727C388.287 95.3005 389.401 97.5651 390.049 99.9526C390.699 102.343 390.866 104.799 390.354 106.757L390.354 106.757L390.353 106.764C390.265 107.12 390.089 107.442 389.856 107.768C389.702 107.983 389.545 108.173 389.377 108.377C389.276 108.499 389.171 108.627 389.061 108.767C388.529 109.442 388.011 110.26 388.196 111.419C388.133 111.58 388.076 111.745 388.025 111.897C388.006 111.952 387.987 112.006 387.97 112.057C387.883 112.305 387.802 112.509 387.702 112.675C387.605 112.835 387.499 112.944 387.369 113.015C387.24 113.086 387.045 113.141 386.735 113.126L386.522 113.116L386.368 113.262L386.226 113.395L386.133 113.483L386.094 113.604C385.798 114.516 385.736 115.427 385.732 116.301C385.73 116.644 385.737 116.972 385.743 117.291C385.754 117.814 385.764 118.317 385.737 118.839L385.724 119.102L385.932 119.262C388.249 121.039 390.686 122.264 393.162 123.509C394.132 123.997 395.109 124.488 396.086 125.016C399.736 127 403.196 129.06 403.544 133.226C403.801 136.3 403.749 139.931 403.632 143.596C403.598 144.642 403.559 145.691 403.52 146.729C403.424 149.304 403.331 151.817 403.328 154.06L400.131 173.698L400.125 173.738L400.125 173.778C400.125 173.782 400.125 173.784 400.125 173.786C400.124 173.788 400.122 173.79 400.116 173.796C400.091 173.821 400.022 173.87 399.865 173.917C399.546 174.013 399.027 174.056 398.293 174.024C396.842 173.961 394.74 173.614 392.183 173.048C387.079 171.919 380.264 169.938 373.446 167.709C366.63 165.48 359.826 163.006 354.745 160.895C352.203 159.839 350.104 158.878 348.654 158.088C347.926 157.691 347.38 157.348 347.027 157.066C346.849 156.924 346.738 156.812 346.677 156.731C346.661 156.71 346.651 156.694 346.644 156.683C346.709 155.79 346.73 154.893 346.75 154.022C346.763 153.449 346.776 152.887 346.801 152.347C346.866 150.94 347.014 149.58 347.447 148.209C348.584 144.64 349.073 140.896 348.89 137.155C348.853 136.4 348.744 135.623 348.638 134.868C348.632 134.827 348.626 134.786 348.62 134.745C348.508 133.943 348.402 133.164 348.379 132.409C348.331 130.911 348.606 129.57 349.746 128.449C350.346 127.858 350.937 127.23 351.523 126.605C351.736 126.379 351.948 126.153 352.159 125.93C352.962 125.084 353.772 124.264 354.64 123.532C356.37 122.074 358.313 120.984 360.832 120.791ZM346.635 156.666C346.635 156.666 346.636 156.666 346.636 156.667L346.635 156.666Z"
              fill="black" stroke="black"/>
        <path d="M362.605 134.227C362.472 131.66 362.393 129.087 362.37 126.508C362.368 125.333 362.689 123.788 363.819 123.708C364.089 133.691 365.206 143.624 367.154 153.392L364.781 153.269C363.7 146.993 362.946 140.648 362.605 134.227ZM366.327 129.142C366.241 126.915 366.308 124.683 366.527 122.464C368.618 121.496 371.808 120.021 373.196 121.215C373.118 126.751 374.24 132.323 374.14 137.917C374.069 139.057 374.127 140.201 374.313 141.326C374.419 141.811 374.558 142.288 374.728 142.753C374.637 146.436 374.754 150.115 374.673 153.783C373.174 154.192 372.145 154.382 371.586 154.353C370.852 154.315 369.941 154.024 368.855 153.48C367.656 145.411 366.982 137.307 366.327 129.142Z"
              fill="#DAE2EB"/>
        <path d="M379.241 148.444C378.329 148.928 378.671 156.94 377.869 157.455C377.724 157.54 377.613 157.674 377.552 157.837C377.437 158.273 377.957 158.644 378.38 158.842C381.875 160.438 385.212 162.465 388.318 164.878C388.736 165.195 389.217 165.557 389.705 165.689C387.93 161.831 386.5 158.996 385.416 157.185C385.066 156.6 383.008 153.687 379.241 148.444Z"
              fill="#DAE2EB"/>
        <path d="M359.106 154.814L358.011 154.757C357.259 146.592 357.322 138.346 357.722 130.138C357.75 128.989 358.014 127.859 358.494 126.825L358.483 127.034C358.005 136.248 358.009 145.518 359.089 154.666C359.094 154.715 359.1 154.765 359.106 154.814ZM366.472 155.197L365.077 155.124C363.768 147.984 362.911 140.756 362.512 133.487C362.386 130.986 362.313 128.478 362.293 125.965C362.267 125.075 362.459 123.959 363.032 123.477C363.054 125.762 363.118 128.049 363.231 130.326C363.659 138.742 364.806 147.027 366.472 155.197ZM353.981 154.548L353.2 154.507C353.2 154.136 353.199 153.766 353.199 153.395C353.172 145.599 353.281 137.708 355.079 130.141C355.084 130.052 355.089 129.963 355.141 129.877L355.087 130.93C354.035 137.29 353.932 143.801 353.963 150.256C353.965 151.686 353.97 153.116 353.981 154.548Z"
              fill="white"/>
        <path d="M370.968 127.349C372.111 137.024 372.958 142.645 372.026 152.309C371.359 158.812 371.379 154.174 370.797 152.923C370.657 152.678 370.532 152.426 370.425 152.17C370.428 152.113 370.43 152.062 370.382 152.003C368.584 143.323 366.869 138.725 365.943 129.937C365.822 127.788 365.877 125.636 366.107 123.497L366.804 123.23C366.736 124.403 370.847 126.153 370.968 127.349Z"
              fill="white"/>
        <path d="M387.332 107.257C387.462 106.699 387.568 106.247 387.587 106.127C387.76 104.84 387.804 103.537 387.72 102.241C387.573 100.216 386.971 98.0873 385.244 97.0897C385.02 96.9606 384.752 96.9466 384.515 97.0517C382.925 94.2794 377.622 95.1545 375.402 97.2106C374.657 97.8064 374.2 98.7252 374.156 99.7141C374.029 99.8304 373.937 99.9851 373.893 100.158C373.865 100.269 373.848 100.383 373.844 100.498C373.841 100.565 373.799 100.637 373.839 100.605C373.804 100.673 373.763 100.736 373.715 100.794C373.425 101.135 373.425 101.654 373.716 101.991C373.93 102.22 374.254 102.285 374.534 102.154C375.354 101.78 376.856 102.847 377.57 103.187C379.039 103.867 381.346 103.21 382.945 103.357C383.248 103.367 383.546 103.44 383.823 103.571C384.563 104.013 384.553 105.169 384.655 106.109C384.829 107.645 385.563 109.043 386.698 110.001C386.698 110.001 387.059 108.399 387.332 107.257Z"
              fill="white"/>
        <path d="M374.126 108.955C373.919 108.561 374.434 107.795 374.627 107.375C374.713 107.188 374.936 106.359 375.359 106.279C375.609 106.23 375.515 107.305 375.501 107.379C375.537 107.655 375.47 107.93 375.308 108.176C375.016 108.506 374.609 108.774 374.126 108.955Z"
              fill="#B5C1C9"/>
        <path d="M397.171 154.635L395.471 154.546C395.826 147.851 396.736 138.656 391.84 133.314C392.149 134.963 392.239 136.646 392.109 138.32C391.944 140.645 391.614 142.999 391.234 145.326C391.198 145.651 391.068 145.958 390.861 146.209C390.583 146.484 390.194 146.614 389.809 146.561C389.045 146.495 388.314 146.219 387.694 145.765C387.087 145.314 386.713 144.378 386.268 143.726C385.281 142.301 384.369 140.825 383.535 139.304C382.086 136.616 377.625 129.179 381.456 126.791C381.95 126.535 382.358 126.138 382.631 125.65C383.287 124.19 381.091 122.766 380.756 120.847C380.702 120.614 380.715 120.37 380.793 120.143C380.902 119.922 381.068 119.735 381.275 119.602L383.003 118.242C382.411 121.391 384.066 123.747 386.898 124.804C389.829 125.903 392.879 127.13 394.849 129.509C396.48 131.47 397.205 134.019 397.485 136.526C397.876 140.044 397.484 143.571 397.202 147.073C396.994 149.643 397.08 152.125 397.171 154.635Z"
              fill="white"/>
        <path d="M303.272 155.738L303.235 155.925L303.082 156.04L294.957 162.135L259.41 229.821L259.33 229.973L259.174 230.044L251.643 233.467L251.494 233.535L251.334 233.502L192.611 221.213L49.3713 285.714L51.7021 286.646L52.6981 287.044L51.7526 287.551L32.2993 297.974C31.7583 331.074 31.5319 354.123 31.6202 367.125C157.893 400.591 289.595 414.002 393.882 389.605C457.538 374.713 490.473 351.132 503.073 318.699C507.103 308.326 508.2 296.014 508.524 284.237C508.637 280.113 508.656 276.066 508.673 272.194C508.681 270.538 508.688 268.914 508.703 267.33C508.751 262.051 508.88 257.212 509.367 253.149C511.669 233.897 500.901 213.31 469.215 193.659C437.604 174.054 385.279 155.458 304.733 140.141C304.649 146.083 304.163 151.283 303.272 155.738Z"
              fill="black" stroke="black"/>
        <path fill-rule="evenodd" clip-rule="evenodd"
              d="M427.774 269.026L426.132 269.169C422.986 275.817 417.818 282.614 411.623 288.25L411.529 288.335L411.678 288.213C418.968 282.23 424.369 275.796 427.774 269.026ZM430.141 246.276L427.896 247.789C429.661 252.85 429.894 258.028 428.384 263.288C428.242 263.78 428.088 264.275 427.92 264.773L429.69 264.619C430.025 263.71 430.324 262.794 430.589 261.874C432.104 256.594 431.887 251.382 430.141 246.276ZM408.677 221.112L406.763 223.234C415.389 229.442 421.847 235.969 425.609 242.732L427.889 241.198C424.095 234.24 417.51 227.511 408.677 221.112ZM376.468 203.225L374.985 205.688C385.287 210.236 394.461 215.061 402.206 220.115L404.135 217.979C396.272 212.807 386.948 207.87 376.468 203.225ZM338.012 189.011L337.467 191.802C349.06 195.43 359.956 199.345 369.91 203.507L371.396 201.038C361.17 196.745 349.957 192.72 338.012 189.011ZM296.906 178.125L296.235 180.747C308.698 183.595 320.762 186.755 332.205 190.189L332.747 187.411C321.343 184.018 309.326 180.909 296.906 178.125Z"
              fill="#B5C1C9"/>
        <path fill-rule="evenodd" clip-rule="evenodd"
              d="M417.022 276.125L415.467 276.261C412.378 282.377 407.602 288.555 401.944 293.73L401.853 293.813L401.997 293.694C408.659 288.197 413.697 282.309 417.022 276.125ZM420.385 253.808L418.206 255.252C419.533 259.864 419.585 264.583 418.21 269.388C417.954 270.281 417.653 271.184 417.31 272.094L418.989 271.948C419.516 270.646 419.969 269.333 420.349 268.009C421.726 263.194 421.689 258.452 420.385 253.808ZM400.104 228.491L398.187 230.52C406.794 236.874 413.053 243.585 416.409 250.571L418.62 249.105C415.25 241.935 408.889 235.029 400.104 228.491ZM369.589 211.214L368.176 213.628C378.071 218.058 386.826 222.76 394.167 227.691L396.099 225.649C388.625 220.583 379.695 215.754 369.589 211.214ZM333.449 197.696L332.921 200.42C343.988 203.922 354.334 207.691 363.747 211.696L365.164 209.277C355.495 205.149 344.85 201.276 333.449 197.696ZM293.462 187.025L292.81 189.582C305.072 192.401 316.868 195.514 327.993 198.892L328.52 196.181C317.43 192.844 305.679 189.78 293.462 187.025Z"
              fill="#B5C1C9"/>
        <path fill-rule="evenodd" clip-rule="evenodd"
              d="M409.264 278.642L407.614 278.786C404.796 286.032 399.309 293.688 392.551 299.892L392.461 299.975L392.604 299.857C400.53 293.291 406.134 286.166 409.264 278.642ZM410.115 258.057L407.938 259.483C409.822 264.5 410.2 269.651 408.871 274.907L410.651 274.751C410.692 274.612 410.733 274.473 410.773 274.334C412.352 268.799 412.057 263.359 410.115 258.057ZM390.668 235.003L388.766 237.015C396.626 242.83 402.515 248.946 406.005 255.3L408.215 253.849C404.706 247.309 398.709 241 390.668 235.003ZM361.99 218.549L360.604 220.953C369.869 225.191 378.086 229.675 385.022 234.368L386.937 232.342C379.866 227.512 371.469 222.9 361.99 218.549ZM328.791 205.749L328.266 208.464C338.396 211.797 347.874 215.361 356.523 219.13L357.913 216.723C349.013 212.832 339.245 209.163 328.791 205.749ZM289.615 194.877L288.885 197.417C301.032 200.315 312.683 203.51 323.629 206.969L324.156 204.266C313.266 200.852 301.688 197.711 289.615 194.877Z"
              fill="#B5C1C9"/>
        <path fill-rule="evenodd" clip-rule="evenodd"
              d="M387.817 288.946L386.338 289.051C383.647 295.402 378.787 302.02 372.868 307.432L372.786 307.507L372.917 307.399C379.86 301.671 384.867 295.477 387.817 288.946ZM389.877 271.851L387.881 273.097C388.898 277.074 388.872 281.138 387.687 285.271L387.578 285.637L389.163 285.524C389.332 285.023 389.489 284.52 389.634 284.015C390.815 279.896 390.859 275.835 389.877 271.851ZM374.172 250.321L372.4 252.13C379.068 257.51 383.883 263.155 386.459 269.007L388.491 267.738C385.912 261.707 381.005 255.877 374.172 250.321ZM349.494 235.128L348.204 237.316C356.173 241.195 363.183 245.282 369.031 249.548L370.814 247.726C364.842 243.33 357.665 239.118 349.494 235.128ZM320.909 223.414L320.383 225.903C329.059 228.937 337.142 232.162 344.491 235.556L345.785 233.364C338.214 229.855 329.872 226.529 320.909 223.414ZM280.94 211.858L280.268 214.195C293.019 217.298 305.146 220.755 316.36 224.523L316.882 222.042C305.705 218.311 293.633 214.899 280.94 211.858Z"
              fill="#B5C1C9"/>
        <path fill-rule="evenodd" clip-rule="evenodd"
              d="M363.85 301.998C361.306 306.334 357.813 310.613 353.785 314.286L353.709 314.354L353.83 314.256C358.519 310.398 362.246 306.309 364.967 302.037L363.85 301.998ZM370.03 286.374L368.219 287.226C368.314 289.458 368.044 291.716 367.389 293.997C366.906 295.676 366.23 297.4 365.387 299.134L366.624 299.177C367.706 297.105 368.559 294.993 369.176 292.848C369.802 290.671 370.08 288.512 370.03 286.374ZM358.733 265.273L356.943 266.754C362.695 272.105 366.434 277.72 367.73 283.533L369.61 282.648C368.395 276.64 364.619 270.822 358.733 265.273ZM337.539 250.742L336.09 252.598C343.179 256.337 349.292 260.271 354.227 264.37L356.037 262.874C351.022 258.649 344.787 254.592 337.539 250.742ZM312.502 239.675L311.786 241.88C319.391 244.725 326.428 247.736 332.768 250.895L334.223 249.03C327.676 245.744 320.39 242.617 312.502 239.675ZM272.809 227.619L272.19 229.77C285.081 232.999 297.231 236.625 308.275 240.593L308.989 238.391C297.911 234.424 285.733 230.812 272.809 227.619Z"
              fill="#B5C1C9"/>
        <path fill-rule="evenodd" clip-rule="evenodd"
              d="M397.863 285.713L396.344 285.848C393.425 291.941 388.675 298.157 382.99 303.32L382.904 303.398L383.042 303.286C389.734 297.803 394.707 291.912 397.863 285.713ZM400.843 266.511L398.766 267.874C399.761 271.914 399.713 276.04 398.51 280.233C398.332 280.853 398.131 281.479 397.907 282.109L399.535 281.963C399.922 280.958 400.261 279.945 400.554 278.925C401.759 274.723 401.819 270.579 400.843 266.511ZM383.647 243.361L381.831 245.281C389.179 251.055 394.465 257.124 397.239 263.423L399.344 262.04C396.555 255.565 391.169 249.311 383.647 243.361ZM356.415 227.108L355.092 229.402C363.929 233.56 371.7 237.953 378.168 242.547L379.995 240.615C373.398 235.891 365.457 231.374 356.415 227.108ZM325.184 214.753L324.688 217.357C334.157 220.55 342.992 223.953 351.033 227.542L352.358 225.243C344.077 221.535 334.963 218.028 325.184 214.753ZM284.918 203.429L284.218 205.86C296.916 208.894 309.04 212.259 320.331 215.917L320.827 213.323C309.59 209.711 297.54 206.398 284.918 203.429Z"
              fill="#B5C1C9"/>
        <path fill-rule="evenodd" clip-rule="evenodd"
              d="M377.466 295.509L376.11 295.558C374.616 298.638 372.623 301.749 370.263 304.713C368.35 307.116 371.456 302.778 369.134 304.893C368.915 306.431 369.478 306.451 370.825 304.954C373.566 301.909 375.785 298.755 377.466 295.509ZM380.638 278.776L378.698 279.876C379.342 283.248 379.203 286.681 378.205 290.166C377.995 290.899 377.749 291.641 377.471 292.388L378.926 292.337C379.376 291.219 379.765 290.092 380.091 288.955C381.076 285.516 381.235 282.119 380.638 278.776ZM366.783 257.908L365.012 259.594C371.174 264.838 375.502 270.334 377.615 276.024L379.6 274.894C377.506 269.02 373.102 263.335 366.783 257.908ZM343.483 242.984L342.181 245.063C349.815 248.892 356.476 252.925 361.959 257.131L363.742 255.431C358.141 251.091 351.318 246.929 343.483 242.984ZM316.727 231.684L316.136 234.06C324.318 237.007 331.92 240.132 338.807 243.413L340.109 241.329C333.018 237.936 325.177 234.712 316.727 231.684ZM277.149 219.962L276.499 222.224C289.232 225.378 301.297 228.897 312.376 232.733L312.962 230.361C301.893 226.549 289.856 223.065 277.149 219.962Z"
              fill="#B5C1C9"/>
        <path fill-rule="evenodd" clip-rule="evenodd"
              d="M297.188 176.948L297.267 182.434L293.906 185.901L293.975 189.334L289.929 193.496L289.998 196.917L285.293 201.787L285.35 205.208L280.655 210.75L280.712 214.171L277.363 218.334L277.431 222.439L273.398 226.613L273.443 229.35L263.762 235.726"
              fill="white"/>
        <path d="M297.188 176.948L297.267 182.434L293.906 185.901L293.975 189.334L289.929 193.496L289.998 196.917L285.293 201.787L285.35 205.208L280.655 210.75L280.712 214.171L277.363 218.334L277.431 222.439L273.398 226.613L273.443 229.35L263.762 235.726"
              stroke="white" stroke-width="1.35" stroke-linecap="square"/>
        <path fill-rule="evenodd" clip-rule="evenodd"
              d="M429.154 267.698L427.508 267.842C424.335 274.472 419.174 281.239 412.997 286.858L412.903 286.944L413.053 286.821C420.321 280.855 425.724 274.443 429.154 267.698ZM431.69 244.82L429.433 246.343C431.149 251.375 431.358 256.52 429.858 261.746C429.7 262.297 429.525 262.851 429.334 263.409L431.109 263.255C431.471 262.284 431.794 261.307 432.076 260.324C433.582 255.077 433.387 249.896 431.69 244.82ZM410.173 219.417L408.249 221.553C416.925 227.818 423.405 234.404 427.156 241.228L429.448 239.684C425.665 232.664 419.056 225.874 410.173 219.417ZM377.779 201.387L376.288 203.865C386.655 208.449 395.882 213.312 403.666 218.406L405.602 216.256C397.7 211.043 388.323 206.068 377.779 201.387ZM339.098 187.07L338.553 189.878C350.215 193.533 361.174 197.475 371.183 201.668L372.677 199.183C362.394 194.859 351.115 190.805 339.098 187.07ZM297.595 176.07L296.92 178.709C309.513 181.587 321.702 184.781 333.258 188.254L333.805 185.459C322.286 182.027 310.145 178.884 297.595 176.07Z"
              fill="white"/>
        <path fill-rule="evenodd" clip-rule="evenodd"
              d="M487.653 260.492L485.519 260.751C481.754 269.637 475.29 278.839 467.405 286.54L467.287 286.654L467.475 286.489C476.78 278.284 483.554 269.565 487.653 260.492ZM489.397 230.766L486.547 232.827C489.198 239.448 489.79 246.3 488.032 253.345C487.897 253.887 487.749 254.432 487.589 254.98L489.889 254.702C490.241 253.608 490.554 252.51 490.83 251.408C492.593 244.34 492.021 237.445 489.397 230.766ZM460.217 199.185L457.821 202.027C469.316 209.672 478.036 217.828 483.298 226.41L486.195 224.318C480.883 215.483 471.988 207.07 460.217 199.185ZM417.545 177.453L415.726 180.719C429.312 186.151 441.454 191.993 451.761 198.196L454.174 195.335C443.708 188.983 431.367 183.002 417.545 177.453ZM366.922 160.744L366.337 164.393C381.566 168.577 395.905 173.167 409.037 178.122L410.861 174.847C397.37 169.735 382.612 165.017 366.922 160.744ZM313.608 148.585L312.855 152.024C328.967 155.128 344.586 158.645 359.433 162.539L360.014 158.906C345.218 155.064 329.661 151.61 313.608 148.585Z"
              fill="#B5C1C9"/>
        <path fill-rule="evenodd" clip-rule="evenodd"
              d="M418.524 274.487L416.957 274.624C413.85 280.786 409.034 287.015 403.325 292.229L403.233 292.313L403.379 292.193C410.1 286.654 415.179 280.72 418.524 274.487ZM421.866 252.046L419.674 253.501C421.024 258.153 421.082 262.915 419.694 267.762C419.442 268.64 419.147 269.528 418.811 270.423L420.502 270.274C421.022 268.986 421.47 267.686 421.846 266.376C423.238 261.517 423.194 256.732 421.866 252.046ZM401.407 226.606L399.481 228.647C408.151 235.03 414.46 241.772 417.853 248.789L420.077 247.313C416.67 240.11 410.257 233.173 401.407 226.606ZM370.699 209.258L369.279 211.686C379.231 216.133 388.038 220.852 395.427 225.802L397.367 223.747C389.844 218.661 380.862 213.815 370.699 209.258ZM334.39 195.698L333.862 198.437C344.973 201.949 355.363 205.729 364.818 209.744L366.241 207.31C356.527 203.172 345.837 199.288 334.39 195.698ZM294.15 184.971L293.494 187.542C305.834 190.375 317.705 193.505 328.9 196.9L329.428 194.174C318.268 190.82 306.445 187.741 294.15 184.971Z"
              fill="white"/>
        <path fill-rule="evenodd" clip-rule="evenodd"
              d="M410.072 278.469L408.42 278.616C405.597 285.995 400.1 293.792 393.332 300.112L393.242 300.195L393.385 300.075C401.323 293.388 406.935 286.131 410.072 278.469ZM410.93 257.512L408.75 258.964C410.635 264.071 411.011 269.316 409.678 274.668L411.461 274.508C411.503 274.367 411.543 274.225 411.583 274.083C413.166 268.448 412.873 262.91 410.93 257.512ZM391.468 234.045L389.564 236.096C397.431 242.013 403.325 248.239 406.816 254.706L409.03 253.229C405.518 246.57 399.517 240.148 391.468 234.045ZM362.761 217.302L361.373 219.749C370.647 224.061 378.873 228.624 385.815 233.4L387.733 231.337C380.655 226.422 372.25 221.728 362.761 217.302ZM329.527 204.279L329 207.044C339.142 210.434 348.63 214.06 357.288 217.895L358.678 215.443C349.77 211.484 339.992 207.752 329.527 204.279ZM290.197 193.195L289.466 195.781C301.667 198.736 313.369 201.994 324.361 205.524L324.886 202.77C313.951 199.287 302.323 196.084 290.197 193.195Z"
              fill="white"/>
        <path fill-rule="evenodd" clip-rule="evenodd"
              d="M389.186 287.577L387.707 287.682C385.016 294.033 380.156 300.651 374.238 306.063L374.155 306.138L374.286 306.03C381.229 300.301 386.236 294.108 389.186 287.577ZM391.246 270.482L389.25 271.728C390.267 275.705 390.241 279.769 389.056 283.902L388.947 284.268L390.533 284.155C390.701 283.654 390.858 283.151 391.003 282.646C392.184 278.527 392.228 274.466 391.246 270.482ZM375.541 248.952L373.77 250.761C380.437 256.141 385.252 261.785 387.828 267.637L389.861 266.369C387.282 260.338 382.374 254.508 375.541 248.952ZM350.863 233.759L349.573 235.947C357.543 239.825 364.553 243.913 370.4 248.179L372.183 246.357C366.211 241.96 359.034 237.748 350.863 233.759ZM322.278 222.045L321.753 224.534C330.428 227.568 338.511 230.793 345.86 234.187L347.154 231.995C339.583 228.486 331.241 225.16 322.278 222.045ZM282.309 210.489L281.637 212.826C294.388 215.928 306.515 219.386 317.729 223.154L318.251 220.673C307.074 216.942 295.002 213.53 282.309 210.489Z"
              fill="white"/>
        <path fill-rule="evenodd" clip-rule="evenodd"
              d="M364.535 299.944C361.991 304.281 358.497 308.56 354.47 312.232L354.394 312.301L354.515 312.202C359.204 308.344 362.931 304.256 365.652 299.984L364.535 299.944ZM370.715 284.32L368.904 285.173C368.999 287.404 368.729 289.663 368.074 291.944C367.591 293.623 366.915 295.346 366.072 297.08L367.308 297.123C368.391 295.051 369.244 292.94 369.861 290.794C370.487 288.618 370.765 286.458 370.715 284.32ZM359.417 263.22L357.627 264.701C363.38 270.052 367.119 275.666 368.415 281.479L370.295 280.594C369.08 274.587 365.304 268.768 359.417 263.22ZM338.224 248.689L336.775 250.545C343.864 254.283 349.977 258.218 354.912 262.317L356.722 260.821C351.707 256.596 345.472 252.539 338.224 248.689ZM313.187 237.622L312.471 239.827C320.076 242.671 327.113 245.683 333.453 248.842L334.908 246.977C328.361 243.691 321.075 240.564 313.187 237.622ZM273.494 225.566L272.875 227.717C285.766 230.946 297.916 234.572 308.96 238.54L309.674 236.338C298.596 232.371 286.418 228.759 273.494 225.566Z"
              fill="white"/>
        <path fill-rule="evenodd" clip-rule="evenodd"
              d="M399.232 284.344L397.713 284.479C394.794 290.571 390.044 296.788 384.36 301.951L384.273 302.029L384.411 301.917C391.103 296.434 396.076 290.542 399.232 284.344ZM402.212 265.142L400.135 266.505C401.13 270.545 401.082 274.671 399.88 278.864C399.701 279.484 399.5 280.11 399.277 280.74L400.904 280.594C401.291 279.589 401.63 278.576 401.923 277.556C403.128 273.354 403.188 269.209 402.212 265.142ZM385.016 241.992L383.2 243.912C390.548 249.686 395.834 255.755 398.608 262.054L400.713 260.671C397.925 254.196 392.538 247.942 385.016 241.992ZM357.785 225.738L356.461 228.033C365.298 232.191 373.069 236.584 379.537 241.178L381.364 239.246C374.767 234.522 366.826 230.005 357.785 225.738ZM326.553 213.384L326.057 215.988C335.526 219.18 344.361 222.584 352.402 226.173L353.727 223.874C345.446 220.165 336.332 216.659 326.553 213.384ZM286.287 202.06L285.587 204.491C298.285 207.525 310.409 210.89 321.7 214.548L322.196 211.954C310.959 208.341 298.909 205.029 286.287 202.06Z"
              fill="white"/>
        <path fill-rule="evenodd" clip-rule="evenodd"
              d="M378.15 293.461L376.795 293.508C374.091 299.086 369.747 304.764 364.56 309.489L364.48 309.561L364.607 309.457C370.686 304.462 375.229 299.1 378.15 293.461ZM381.322 276.726L379.383 277.826C380.027 281.198 379.888 284.632 378.89 288.117C378.679 288.85 378.434 289.592 378.156 290.339L379.611 290.287C380.061 289.17 380.45 288.042 380.776 286.906C381.761 283.467 381.92 280.069 381.322 276.726ZM367.468 255.857L365.698 257.543C371.859 262.787 376.186 268.283 378.3 273.973L380.284 272.843C378.191 266.97 373.787 261.283 367.468 255.857ZM344.17 240.932L342.867 243.01C350.501 246.84 357.162 250.873 362.645 255.079L364.427 253.379C358.827 249.039 352.004 244.877 344.17 240.932ZM317.414 229.63L316.824 232.007C325.005 234.954 332.607 238.079 339.493 241.361L340.796 239.276C333.705 235.883 325.864 232.659 317.414 229.63ZM277.838 217.907L277.188 220.17C289.921 223.324 301.985 226.843 313.064 230.679L313.65 228.308C302.582 224.495 290.545 221.011 277.838 217.907Z"
              fill="white"/>
        <path fill-rule="evenodd" clip-rule="evenodd"
              d="M260.701 238.272L260.759 250.845C310.305 260.625 344.182 275.849 347.559 295.986C345.38 298.954 342.751 304.892 333.151 310.365C334.975 313.109 338.173 313.113 342.745 310.376C349.853 303.884 351.792 301.921 353.042 294.621C358.562 262.407 317.248 249.25 260.701 238.272Z"
              fill="#B5C1C9"/>
        <path fill-rule="evenodd" clip-rule="evenodd"
              d="M262.582 235.434L262.116 237.347C315.638 247.643 355.55 265.909 350.06 289.154C348.63 295.203 344.391 302.049 338.817 307.563L338.752 307.627L338.856 307.535C345.689 301.429 350.002 294.869 351.611 288.064C357.158 264.576 316.9 245.709 262.582 235.434Z"
              fill="white"/>
        <path d="M275.586 266.903C275.586 279.384 265.87 290.807 249.886 299.138C233.926 307.457 211.844 312.617 187.424 312.617C163.004 312.617 140.921 307.457 124.962 299.138C108.978 290.807 99.2621 279.384 99.2621 266.903C99.2621 254.422 108.978 243 124.962 234.669C140.921 226.35 163.004 221.19 187.424 221.19C211.844 221.19 233.926 226.35 249.886 234.669C265.87 243 275.586 254.422 275.586 266.903Z"
              fill="black" stroke="black"/>
        <path fill-rule="evenodd" clip-rule="evenodd"
              d="M258.147 261.361H258.247L257.161 276.109H257.08C255.385 292.567 224.005 303.195 185.918 302.805C148.948 302.427 120.186 292.405 116.516 278.349H116.355L115.194 262.903C116.356 279.234 147.999 292.561 185.848 292.948C224.726 293.346 257.74 279.94 258.202 263.006C258.217 262.455 258.198 261.906 258.147 261.361Z"
              fill="#B5C1C9"/>
        <path fill-rule="evenodd" clip-rule="evenodd"
              d="M185.107 289.395C146.336 289.003 115.27 275.145 115.719 258.444C116.167 241.743 147.961 228.522 186.733 228.914C225.504 229.306 256.57 243.163 256.122 259.864C255.673 276.566 223.879 289.787 185.107 289.395Z"
              fill="#B5C1C9"/>
        <path fill-rule="evenodd" clip-rule="evenodd"
              d="M116.122 260.511C116.676 276.843 147.82 289.771 185.683 289.388C223.546 289.004 253.791 275.454 253.236 259.122C253.198 257.993 253.013 256.88 252.69 255.786C252.666 271.911 222.636 285.21 185.13 285.59C149.885 285.947 120.463 274.77 116.114 260.05C116.114 260.203 116.114 260.357 116.122 260.511Z"
              fill="white"/>
        <path fill-rule="evenodd" clip-rule="evenodd"
              d="M243.82 259.339C243.347 245.729 216.799 234.956 184.522 235.275C152.245 235.595 126.463 246.887 126.936 260.496C126.969 261.438 127.126 262.365 127.402 263.277C127.422 249.839 153.022 238.756 184.994 238.44C215.038 238.142 240.12 247.457 243.827 259.723C243.827 259.595 243.827 259.467 243.82 259.339Z"
              fill="white"/>
        <path d="M186.576 232.772C200.937 232.772 214.131 234.962 224.536 238.617C230.948 240.869 236.267 243.665 240.15 246.822C235.923 243.913 230.506 241.396 224.231 239.396C214.097 236.166 201.666 234.266 188.246 234.266C171.299 234.266 155.943 237.295 144.811 242.213C139.245 244.672 134.713 247.613 131.569 250.904C128.422 254.198 126.645 257.866 126.659 261.756C126.661 262.34 126.703 262.919 126.784 263.493C126.264 262.109 125.994 260.695 125.989 259.259C125.977 255.697 127.6 252.265 130.623 249.101C133.648 245.934 138.056 243.059 143.545 240.634C154.523 235.784 169.735 232.772 186.576 232.772Z"
              fill="black" stroke="black"/>
        <path fill-rule="evenodd" clip-rule="evenodd"
              d="M213.349 265.746L167.453 269.066C164.877 269.252 162.589 267.978 162.343 266.22C162.285 265.811 162.345 265.397 162.517 265.001L172.405 242.275C173.145 240.575 175.755 239.593 178.236 240.08C178.813 240.193 179.353 240.382 179.824 240.636L215.831 260.043C217.853 261.132 218.181 263.144 216.564 264.536C215.772 265.218 214.612 265.655 213.349 265.746Z"
              fill="white"/>
        <path d="M211.296 266.462L168.201 269.706C167.082 269.79 166.041 269.548 165.269 269.107C164.492 268.665 164.03 268.054 163.944 267.409C163.904 267.109 163.946 266.801 164.075 266.5L173.417 244.645C173.697 243.99 174.356 243.421 175.266 243.07C176.169 242.721 177.268 242.609 178.338 242.823C178.835 242.922 179.292 243.087 179.684 243.303L213.436 261.914C214.282 262.38 214.71 263.007 214.803 263.602C214.895 264.187 214.678 264.842 214.024 265.419C213.375 265.99 212.395 266.38 211.296 266.462Z"
              fill="black" stroke="black"/>
        <path fill-rule="evenodd" clip-rule="evenodd"
              d="M180.721 247.706C181.203 247.81 181.652 247.984 182.044 248.217L211.621 265.846L168.317 268.805L175.856 249.737C176.476 248.169 178.654 247.259 180.721 247.706Z"
              fill="white"/>
        <path d="M236.864 330.385L84.2826 308.588L89.5742 278.822C117.851 286.288 147.592 292.179 178.797 296.496C209.715 300.773 237.209 302.833 261.278 302.672L236.864 330.385Z"
              fill="black" stroke="black"/>
        <path fill-rule="evenodd" clip-rule="evenodd"
              d="M310.575 161.721L300.99 168.567C411.67 189.983 458.367 227.658 455.606 256.582C452.628 287.742 399.251 318.664 313.884 325.047C240.627 330.524 156.415 314.092 78.3652 295.607C75.071 298.035 73.0125 300.271 73.5727 300.399C312.515 355.171 402.888 314.092 441.228 295.607C479.569 277.121 483.764 260.938 485.046 259.32C487.905 229.433 446.136 189.791 310.575 161.721Z"
              fill="#B5C1C9"/>
        <path fill-rule="evenodd" clip-rule="evenodd"
              d="M313.743 146.231L313.741 148.498C443.669 174.117 492.543 213.784 489.156 246.997C485.372 284.056 412.616 318.456 302.93 322.992C239.636 325.61 158.633 315.703 59.9187 293.272L50.8167 297.516C153.457 320.808 237.704 331.091 303.559 328.367C417.899 323.636 493.743 287.77 497.688 249.133C501.228 214.415 449.999 172.931 313.743 146.231Z"
              fill="white"/>
        <path fill-rule="evenodd" clip-rule="evenodd"
              d="M330.046 336.106C280.311 339.036 248.272 338.36 180.439 330.353C224.837 342.778 251.146 351.913 287.696 356.055C262.62 354.965 255.011 357.667 211.982 352.57C251.924 363.273 283.908 370.39 291.147 370.387C276.225 372.822 280.289 372.565 251.336 372.574C346.151 389.21 449.926 374.152 463.679 343.242C465.906 338.234 462.594 325.11 459.615 319.399C458.25 316.782 443.088 321.777 445.49 317.278C445.987 316.335 379.782 333.176 330.046 336.106Z"
              fill="#B5C1C9"/>
        <path fill-rule="evenodd" clip-rule="evenodd"
              d="M311.945 337.675C350.741 339.957 384.517 338.36 413.272 332.883C395.015 340.186 378.584 345.891 363.978 349.999C387.256 352.053 419.434 348.63 435.181 345.891C424.227 350.684 421.488 353.422 402.318 358.899C420.803 358.899 440.658 356.161 447.505 354.791C438.604 362.323 436.55 361.638 429.019 366.43C472.152 354.791 494.328 333.301 496.691 303.844C497.248 296.885 498.469 281.615 500.114 267.68C500.219 266.764 485.16 320.559 311.945 337.675Z"
              fill="white"/>
        <path fill-rule="evenodd" clip-rule="evenodd"
              d="M302.223 166.78C301.394 167.339 300.521 167.871 299.605 168.375L308.268 169.957C409.588 189.235 448.165 220.915 445.988 248.067C443.541 278.536 386.778 307.77 300.524 312.999C246.286 316.288 175.284 307.658 87.5178 287.111L80.4481 290.406L81.3033 290.606C171.745 311.589 245.008 320.383 301.09 316.986C391.077 311.536 450.299 281.092 452.853 249.365C455.111 221.266 415.373 188.51 311.118 168.41C310.665 168.323 302.679 166.867 302.223 166.78Z"
              fill="white"/>
        <path d="M58.4639 248.602L58.464 248.602C60.2882 250.318 62.1077 253.412 63.3701 256.736C64.6345 260.065 65.2972 263.512 64.909 265.919L64.9077 265.927L64.9078 265.927C64.8428 266.377 64.6612 266.793 64.412 267.215C64.2471 267.495 64.0715 267.75 63.8866 268.018C63.7792 268.173 63.6687 268.333 63.5552 268.506C62.988 269.368 62.4628 270.383 62.838 271.704C62.7781 271.907 62.7278 272.115 62.6813 272.308C62.6647 272.377 62.6485 272.444 62.6326 272.508C62.5564 272.814 62.4806 273.074 62.373 273.294C62.2689 273.506 62.1417 273.666 61.9685 273.782C61.7944 273.899 61.5373 273.995 61.135 274.019L60.9398 274.031L60.8044 274.172L60.64 274.343L60.5438 274.444L60.5131 274.579C60.3334 275.372 59.7957 275.994 59.172 276.716C59.1155 276.782 59.0582 276.848 59.0004 276.915C58.3477 277.675 57.6183 278.586 57.678 279.829L57.691 280.098L57.923 280.235C59.5834 281.217 60.788 282.142 61.949 283.034C62.2444 283.261 62.5371 283.485 62.8337 283.708C64.297 284.808 65.8235 285.836 68.1693 286.773C70.3936 287.675 72.6032 288.609 74.4224 289.888C76.2306 291.16 77.6253 292.752 78.2504 294.963L78.2666 295.02L78.2958 295.072C78.4606 295.365 78.8732 295.845 79.4651 296.472C80.0746 297.117 80.9197 297.966 81.9978 299.016C84.1549 301.115 87.2581 304.033 91.3057 307.766L91.5639 308.004L91.8755 307.841C96.3318 305.522 99.9369 303.537 102.688 301.887C105.429 300.243 107.352 298.913 108.421 297.903C108.651 297.686 108.733 297.353 108.774 297.097C108.821 296.809 108.837 296.462 108.839 296.088C108.841 295.564 108.814 294.938 108.786 294.284C108.774 294.008 108.762 293.728 108.752 293.448C108.718 292.488 108.704 291.515 108.783 290.67C108.863 289.805 109.035 289.164 109.303 288.798C109.949 287.917 111.668 286.537 113.373 285.676C114.223 285.246 115.014 284.976 115.622 284.938C115.922 284.92 116.146 284.96 116.306 285.036C116.454 285.107 116.574 285.221 116.657 285.414C116.73 285.582 116.861 285.727 116.976 285.839C117.102 285.961 117.258 286.09 117.433 286.223C117.783 286.488 118.245 286.797 118.765 287.134C119.087 287.342 119.432 287.561 119.792 287.79C120.612 288.312 121.512 288.884 122.392 289.485C123.659 290.352 124.841 291.253 125.631 292.103C126.026 292.528 126.3 292.917 126.446 293.261C126.588 293.597 126.594 293.857 126.51 294.071C125.891 295.646 124.602 297.854 123.077 300.213C121.559 302.562 119.83 305.027 118.351 307.109C115.497 311.127 111.547 314.673 107.811 317.804C107.062 318.432 106.319 319.045 105.595 319.642C104.525 320.526 103.498 321.374 102.559 322.179C100.984 323.531 99.6169 324.799 98.6515 325.978C96.2112 328.961 94.4377 329.712 93.0059 329.627C92.2716 329.584 91.5694 329.319 90.8464 328.926C90.3051 328.631 89.7804 328.282 89.2287 327.915C89.0332 327.784 88.8343 327.652 88.6301 327.519C87.8118 326.986 86.804 326.273 85.7392 325.519L85.6625 325.465C84.625 324.73 83.5396 323.962 82.5453 323.3C81.5332 322.626 80.588 322.043 79.8706 321.721C79.5236 321.565 79.1677 321.441 78.8606 321.434C78.7012 321.43 78.5011 321.457 78.3227 321.581C78.1298 321.715 78.034 321.914 78.0037 322.11C77.891 322.84 77.8546 323.339 77.8613 323.744C77.8673 324.108 77.9087 324.387 77.9485 324.656C77.9531 324.687 77.9576 324.717 77.9621 324.748C78.0448 325.314 78.1347 326.049 77.9178 328.091C77.8346 328.875 78.415 329.529 79.101 330.043C79.8237 330.586 80.8532 331.117 82.0564 331.638C84.3811 332.646 87.4744 333.668 90.5573 334.686L90.9037 334.801C94.1167 335.863 97.2865 336.92 99.611 337.967C100.776 338.492 101.695 339 102.294 339.485C102.92 339.991 103.052 340.35 103.014 340.581C102.227 345.364 101.334 350.059 100.473 354.586C100.374 355.108 100.275 355.627 100.177 356.143C99.2276 361.145 98.337 365.929 97.6992 370.368C96.4282 379.213 96.1379 386.811 98.484 392.079C100.707 397.071 104.002 399.182 106.404 400.721C106.537 400.807 106.668 400.89 106.796 400.973C108.033 401.772 108.864 402.378 109.238 403.138C109.583 403.84 109.584 404.798 108.758 406.446C107.51 408.936 103.547 413.029 97.7589 416.276C91.9906 419.513 84.4793 421.868 76.1796 420.968C74.9523 420.834 73.203 420.315 71.1678 419.561C69.1434 418.812 66.875 417.846 64.6236 416.845C63.0356 416.139 61.4505 415.412 59.9676 414.731C57.2699 413.494 54.9101 412.412 53.4856 411.891C52.7209 411.611 51.8132 411.671 50.8568 411.92C49.8924 412.172 48.8195 412.631 47.6872 413.221C45.4225 414.402 42.8451 416.147 40.3063 417.943C39.4977 418.516 38.6936 419.093 37.9035 419.66C36.2 420.883 34.5613 422.059 33.0813 423.04C32.0001 423.758 31.018 424.361 30.1716 424.796C29.3123 425.237 28.6435 425.478 28.1753 425.519C21.9858 426.06 17.0837 426.364 13.2109 426.102C9.33832 425.839 6.56817 425.014 4.5865 423.357C4.07409 422.929 3.7157 422.04 3.57863 420.631C3.44409 419.249 3.53328 417.482 3.79563 415.446C4.31982 411.378 5.52205 406.33 6.90204 401.329C8.28091 396.333 9.83172 391.402 11.0474 387.573C11.1451 387.265 11.2406 386.964 11.3337 386.671C11.8196 385.142 12.2399 383.819 12.5559 382.783C12.7441 382.165 12.8968 381.645 13.0048 381.24C13.1078 380.855 13.1842 380.526 13.1953 380.321L13.1954 380.319C13.269 378.872 13.1408 377.847 12.9164 377.024C12.7351 376.358 12.4905 375.829 12.2718 375.356C12.2234 375.251 12.1763 375.149 12.1314 375.049C11.8829 374.495 11.6773 373.951 11.6015 373.179C11.5251 372.401 11.5783 371.364 11.8902 369.834C12.2077 368.709 12.2293 367.525 11.9525 366.39L11.9475 366.369L11.9407 366.349C11.7331 365.732 11.3742 365.21 11.0119 364.746C10.8756 364.572 10.7435 364.41 10.6156 364.254C10.3854 363.973 10.1692 363.709 9.96843 363.416L9.96728 363.415C7.70144 360.141 8.64777 356.453 10.352 352.512C10.7548 351.581 11.1941 350.648 11.6353 349.711L11.7009 349.571C12.1628 348.59 12.6247 347.604 13.0381 346.628C13.862 344.682 14.5137 342.727 14.5872 340.841C14.6652 338.871 14.2691 336.947 13.8619 335.084C13.8377 334.973 13.8134 334.863 13.7892 334.753C13.4021 332.988 13.027 331.279 12.9969 329.545L12.9968 329.54C12.9497 327.806 13.2427 326.086 13.6511 324.343C13.832 323.57 14.034 322.8 14.238 322.022C14.2643 321.921 14.2906 321.821 14.3168 321.721C14.5465 320.843 14.775 319.956 14.9695 319.065L14.9701 319.062C15.9006 314.684 16.0162 310.182 15.3115 305.767C15.3114 305.767 15.3114 305.767 15.3113 305.766L14.8175 305.845C14.6822 304.984 14.4585 304.103 14.2332 303.216C13.5054 300.351 12.7611 297.42 14.9268 294.898L58.4639 248.602ZM58.4639 248.602L58.4547 248.593C57.5248 247.671 55.8515 246.889 53.7211 246.382C51.606 245.879 49.1012 245.661 46.5692 245.818C41.4713 246.135 36.4346 247.958 34.136 251.824L34.1113 251.865L34.0792 251.901C33.6069 252.43 33.2062 253.512 32.8994 254.996C32.5987 256.45 32.406 258.195 32.2874 259.959C32.0504 263.487 32.1136 267.034 32.1815 268.363L32.1856 268.444L32.164 268.522C32.0377 268.977 32.0701 269.529 32.2424 270.152C32.4138 270.772 32.7144 271.429 33.0822 272.073C33.818 273.361 34.7888 274.54 35.3999 275.18L58.4639 248.602ZM12.4969 329.554C12.4266 326.96 13.0906 324.427 13.7545 321.894C14.0108 320.917 14.267 319.939 14.481 318.958L12.4969 329.554ZM12.4969 329.554C12.528 331.339 12.9133 333.095 13.2981 334.847C13.7331 336.829 14.1673 338.807 14.0876 340.821L12.4969 329.554Z"
              fill="black" stroke="black"/>
        <path fill-rule="evenodd" clip-rule="evenodd"
              d="M47.5995 279.513C45.2425 275.708 43.7069 272.133 42.9926 268.787C42.895 271.191 42.9321 273.292 43.1039 275.088C41.5911 272.855 40.402 269.31 39.9733 267.497C39.8555 268.97 39.6042 269.451 39.8173 271.814C38.8509 269.922 38.2075 267.688 38.0468 266.887C37.4271 268.35 37.6332 268.51 37.3364 269.632C36.7583 264.364 38.695 260.519 42.8151 258.12C43.7885 257.553 45.9245 256.31 47.8459 255.121C47.9724 255.043 41.0098 260.525 47.5995 279.513Z"
              fill="white"/>
        <path d="M32.6073 290.474C32.7548 293.409 33.1303 296.329 33.7308 299.211C37.1458 312.441 40.5684 325.556 45.5007 338.296C45.8662 339.242 48.6027 346.017 47.6173 345.216C47.333 344.948 43.581 338.774 43.4535 338.417C36.8533 323.706 31.978 308.372 28.9099 292.675C27.2791 293.006 27.1345 295.104 27.3983 296.622C27.958 299.966 28.6168 303.303 29.375 306.633C33.3393 324.214 39.9652 340.983 48.058 357.172C49.744 360.954 51.4979 364.708 53.3176 368.433C71.797 369.977 82.1149 368.414 84.2712 363.743C85.0526 362.051 74.7119 383.547 74.989 382.772C75.8924 380.243 86.562 384.182 89.9724 386.504C94.1405 389.343 96.9303 388.958 96.816 387.642C96.6829 386.114 99.5348 349.258 99.1007 347.81C98.7281 346.568 94.8822 343.057 92.2574 342.12C89.1914 341.026 87.1377 342.641 84.273 343.258C80.9775 343.968 68.1484 345.216 64.7262 349.768C61.3039 354.32 50.1465 328.347 46.4786 322.455C46.7051 322.737 48.5515 322.172 48.7598 322.455C50.9816 325.433 65.9524 348.534 65.7123 346.428C65.2682 342.424 67.5244 340.669 67.9192 336.657C68.018 336.153 67.9653 335.637 67.7659 335.155C67.5568 334.81 67.2628 334.506 66.9028 334.263C63.8087 331.813 58.3921 327.137 55.3231 324.665C53.7414 323.399 47.0976 316.621 45.5995 315.283C43.4468 313.351 46.0371 313.158 47.6199 314.488C51.8694 318.064 60.3483 328.01 65.7362 330.272C66.154 327.334 66.4414 324.366 66.5983 321.367C66.6663 320.918 66.6179 320.464 66.4564 320.033C66.0512 319.154 64.8575 318.753 63.7837 318.42C58.2301 316.712 43.1437 294.61 42.0744 287.436C39.797 286.181 35.4498 288.775 32.6073 290.474ZM20.1213 297.63L20.1222 297.574C19.6277 318.254 21.3835 338.924 25.3608 359.246C26.5171 365.151 26.9202 370.173 28.2243 373.667C29.5284 377.161 37.9911 366.142 36.7816 363.487C31.9635 352.913 27.7192 342.322 24.9053 331.067C22.2821 320.706 20.0358 309.445 20.1065 298.685L20.1213 297.63ZM26.9261 291.136C24.3644 291.558 23.8548 294.854 23.9893 297.351C24.6127 309.036 25.8381 320.716 28.5776 332.121C29.1056 334.304 29.6847 336.474 30.3149 338.633C30.9912 340.891 31.7304 343.142 32.4692 345.372C35.5249 354.091 39.2663 362.568 43.6593 370.731C44.5191 370.599 48.6065 372.049 48.497 366.499C48.4432 363.779 45.2836 354.042 44.3161 351.977C35.166 332.606 25.0274 312.35 26.9261 291.136Z"
              fill="#B5C1C9"/>
        <path d="M26.2353 300.564C25.7427 301.814 25.5453 303.151 25.6572 304.48C26.2304 315.165 27.3592 325.846 29.8856 336.275C30.3726 338.271 30.9067 340.256 31.488 342.229C32.1118 344.295 32.7936 346.353 33.4752 348.392C37.0051 358.376 38.163 362.234 43.6164 371.394C45.2034 374.083 46.5288 371.637 44.1981 367.687C38.7447 358.527 37.5868 354.67 34.0569 344.686C33.3495 342.647 32.6806 340.588 32.0697 338.523C31.4669 336.55 30.9328 334.565 30.4674 332.569C27.941 322.146 26.8121 311.458 26.2389 300.774L26.2353 300.564Z"
              fill="white"/>
        <path d="M39.4434 293.806C42.3937 305.781 44.158 317.992 44.7137 330.286C45.0478 338.579 44.2838 332.764 43.401 331.256C43.1964 330.969 43.0106 330.671 42.8447 330.363C42.8412 330.296 42.7947 330.231 42.7626 330.166C39.2273 319.537 36.6162 308.738 34.0641 297.835C33.5599 295.148 33.2615 292.429 33.1713 289.699L33.9303 289.256C34.0527 290.77 39.0994 292.31 39.4434 293.806Z"
              fill="white"/>
        <path d="M89.8184 355.457C84.1154 357.733 70.9855 359.073 63.1687 360.535C57.8921 361.496 61.5481 360.505 62.4401 359.838C62.6067 359.689 62.7821 359.55 62.9654 359.423C63.0081 359.415 63.0457 359.381 63.085 359.355C69.5924 356.262 76.2842 353.707 83.0473 351.178C84.7246 350.629 86.9398 350.071 88.6783 349.766C90.0574 353.331 90.4374 355.228 89.8184 355.457Z"
              fill="white"/>
        <path d="M81.4062 340.693L81.4062 340.692L81.4139 340.687C81.4133 340.688 81.4133 340.688 81.4141 340.687C81.4194 340.682 81.459 340.643 81.5122 340.519C81.5692 340.385 81.6218 340.201 81.6696 339.967C81.761 339.518 81.8196 338.964 81.8817 338.377C81.8847 338.348 81.8878 338.319 81.8909 338.29C81.9546 337.688 82.0242 337.052 82.1437 336.538C82.2013 336.291 82.2757 336.047 82.3795 335.838C80.7863 336.465 79.2485 337.226 77.7758 338.118C71.3091 342.525 64.9478 346.943 58.9603 352.049C58.9522 352.06 58.9408 352.074 58.9284 352.089C58.9124 352.107 58.883 352.141 58.8399 352.176C58.7151 352.34 58.5987 352.515 58.4912 352.699L58.4789 352.721L58.4644 352.74C58.3765 352.862 58.2659 352.983 58.1485 353.099C58.3732 353.014 58.6201 352.92 58.8912 352.815C66.8223 349.698 74.3593 345.64 81.4062 340.693Z"
              fill="black" stroke="black"/>
        <path d="M79.9686 362.616C74.7451 365.097 69.5973 367.586 64.6339 370.479C65.2668 370.375 65.8468 370.499 66.3784 370.816C66.9766 371.171 67.4895 371.756 67.9657 372.456C68.595 373.38 69.2269 374.615 69.9331 375.995C70.2825 376.678 70.65 377.396 71.0444 378.13C73.4149 382.54 76.9209 387.869 83.9198 391.23C83.9413 390.879 83.9224 390.349 83.8651 389.659C83.7407 388.159 83.4475 386.029 83.1 383.671C82.9761 382.83 82.8453 381.961 82.713 381.081C82.1072 377.055 81.4713 372.827 81.3351 370.278C81.2511 368.705 81.3428 367.323 81.46 366.162C81.5036 365.73 81.5493 365.339 81.591 364.982C81.664 364.357 81.7245 363.839 81.7388 363.402C81.7498 363.066 81.7298 362.83 81.6845 362.669C81.6427 362.521 81.5899 362.469 81.5453 362.442C81.4872 362.407 81.3581 362.362 81.0813 362.38C80.813 362.397 80.4515 362.469 79.9686 362.616Z"
              fill="black" stroke="black"/>
        <path d="M54.8081 396.408C49.7681 389.52 53.3299 386.143 51.9587 383.412C50.5876 380.681 45.0417 377.054 45.0766 377.028C50.9308 373.733 54.5876 375.546 60.7164 372.751C65.5169 371.361 62.6671 375.025 62.9379 382.11C63.2087 389.195 55.9663 397.991 54.8081 396.408Z"
              fill="#B5C1C9"/>
        <path d="M61.5755 372.919C60.0568 376.796 59.4974 385.675 58.6645 390.969C58.121 394.543 58.7424 392.063 59.2142 391.453C59.3205 391.339 59.4189 391.219 59.5087 391.093C59.5135 391.064 59.5376 391.039 59.5553 391.012C61.6614 386.582 63.3563 382.034 65.0293 377.438C65.385 376.3 65.7296 374.797 65.8995 373.62C63.168 372.732 61.7267 372.498 61.5755 372.919Z"
              fill="white"/>
        <path d="M20.8081 299.307C20.7569 299.413 20.7588 299.525 20.7608 299.637C19.3747 309.191 20.2524 318.93 21.2669 328.535C22.6753 341.905 24.3663 355.313 27.2352 368.43C27.6921 368.241 28.1528 368.06 28.6172 367.886C25.2701 353.689 23.3924 339.111 21.8616 324.59C21.0214 316.63 20.3056 308.589 20.8309 300.625L20.8081 299.307Z"
              fill="white"/>
        <path d="M45.2017 387.842C46.029 388.597 44.6371 395.15 44.4985 396.135C44.3401 397.398 30.6307 406.306 29.2689 405.672C28.5245 405.312 43.9329 386.685 45.2017 387.842Z"
              fill="white"/>
        <path d="M101.642 406.693C94.5634 409.97 89.4434 411.943 86.2818 412.611C81.5394 413.614 82.0926 414.091 75.1053 411.115C73.9207 410.61 73.7113 414.081 77.9034 415.57C80.6981 416.562 83.4919 416.565 86.2847 415.579C92.9593 413.791 97.913 411.941 101.146 410.028C105.491 407.457 106.925 407.074 105.828 402.246C105.828 402.246 104.433 403.728 101.642 406.693Z"
              fill="white"/>
        <path d="M85.5241 395.007C84.7792 395.47 83.5549 396.625 84.3085 400.844C85.0337 404.904 85.1329 408.742 84.1134 408.944C80.7251 409.616 81.6757 410.976 76.6872 408.998C75.8415 408.662 75.6891 410.976 78.6822 411.965C80.6776 412.625 82.6731 412.624 84.6688 411.965C89.4378 410.767 92.9777 409.529 95.2885 408.251C97.3591 407.106 97.4781 406.365 95.6453 406.028C93.4886 406.962 90.2884 403.954 90.312 403.671C90.4527 402.119 91.0838 400.747 89.6733 398.452C89.4571 398.088 89.0876 397.406 88.7966 396.604C87.1116 395.231 86.0207 394.698 85.5241 395.007Z"
              fill="white"/>
        <path d="M52.1819 287.175C51.9123 287.839 52.6003 289.78 52.0106 290.189C47.2846 293.819 54.1418 302.89 56.4021 306.183C57.6999 308.055 59.0949 309.858 60.5812 311.585C61.2363 312.373 61.8282 313.539 62.7153 314.038C63.5919 314.542 64.5886 314.801 65.6004 314.788C66.1122 314.803 66.6024 314.581 66.9284 314.187C67.1703 313.835 67.3014 313.418 67.305 312.991C67.5022 309.906 66.8735 306.18 66.7787 303.134C66.7517 301.928 68.7389 303.055 69.8271 305.168C70.7188 306.899 70.5764 309.342 71.8592 311.267C73.8915 314.317 75.0548 311.558 76.94 312.284C80.1686 313.528 89.8805 318.905 89.9976 321.366C90.0697 322.914 87.9654 327.734 94.1055 324.653C95.4467 323.98 103.213 317.923 103.965 317.259C108.656 313.828 113.535 305.453 114.647 304.114C118.056 300.571 121.373 297.954 122.656 295.646C123.805 293.578 122.779 292.018 121.22 292.611C120.398 293.433 120.528 291.221 120.398 290.968C119.953 290.087 119.391 290.805 118.424 291.143C117.866 291.338 118.755 289.325 117.934 289.325C117.473 289.325 116.766 289.499 116.29 289.325C115.918 289.188 117.058 287.778 116.29 287.681C115.523 287.585 114.7 287.89 113.826 288.503C112.243 289.611 111.747 291.002 111.361 291.789C111.103 292.314 111.103 293.957 111.36 296.719C112.456 296.171 108.236 300.664 107.252 301.648C103.966 304.935 100.16 306.907 89.998 312.329C81.4624 303.716 77.2162 300.799 76.955 299.601C76.2017 296.372 72.3192 294.287 69.8735 291.951C66.9521 289.122 62.7835 287.928 58.7778 286.885C56.3533 286.255 52.4736 286.3 52.1819 287.175ZM37.3562 262.138C37.3557 268.809 36.2943 263.466 40.7775 268.966C42.3628 270.912 44.199 272.381 46.4799 275.795C47.6207 272.381 48.1491 272.159 49.9022 268.966C48.5522 274.108 50.2397 272.583 48.2734 276.1C49.8684 273.893 50.7785 273.58 53.0624 269.414C51.7811 273.983 50.5509 277.471 50.0459 278.071C51.4281 277.12 51.1087 277.427 53.1285 275.028C52.3668 276.778 51.4439 278.432 50.4114 279.956C56.9155 272.775 60.1677 267.594 60.1679 264.414C60.1686 256.557 56.067 250.757 48.1928 250.757C40.3186 250.757 37.3569 254.281 37.3562 262.138Z"
              fill="white"/>
        <path fill-rule="evenodd" clip-rule="evenodd"
              d="M26.9852 391.831C28.4289 393.365 28.0165 395.528 26.6547 400.599C25.9825 403.102 24.5989 404.479 23.736 407.693C22.873 410.906 24.5724 412.122 23.9004 414.624C22.5386 419.695 18.4751 423.015 14.8245 422.039C11.1738 421.063 9.31828 416.161 10.6801 411.09C11.078 409.608 15.52 397.97 18.691 392.565C20.8751 388.843 25.5415 390.296 26.9852 391.831Z"
              fill="white"/>
        <path d="M20.2158 410.789C19.0455 410.367 17.91 409.936 16.8197 409.501C18.1028 409.911 19.4328 410.363 20.7912 410.853C21.9615 411.276 23.097 411.707 24.1873 412.141C22.9042 411.732 21.5742 411.28 20.2158 410.789Z"
              fill="black" stroke="black"/>
        <mask id="path-72-inside-1_1007_3756" fill="white">
            <path fill-rule="evenodd" clip-rule="evenodd"
                  d="M17.4254 405.098C14.1249 403.906 11.1274 402.64 8.72675 401.461C11.4229 402.087 14.7239 403.072 18.2333 404.34C21.5339 405.532 24.5315 406.798 26.9321 407.977C24.2359 407.351 20.9349 406.365 17.4254 405.098Z"/>
        </mask>
        <path fill-rule="evenodd" clip-rule="evenodd"
              d="M17.4254 405.098C14.1249 403.906 11.1274 402.64 8.72675 401.461C11.4229 402.087 14.7239 403.072 18.2333 404.34C21.5339 405.532 24.5315 406.798 26.9321 407.977C24.2359 407.351 20.9349 406.365 17.4254 405.098Z"
              fill="black"/>
        <path d="M17.4254 405.098L17.7652 404.157L17.4254 405.098ZM8.72675 401.461L8.95283 400.487L8.28605 402.359L8.72675 401.461ZM18.2333 404.34L17.8936 405.281L18.2333 404.34ZM26.9321 407.977L26.706 408.951L27.3728 407.079L26.9321 407.977ZM17.7652 404.157C14.4931 402.975 11.53 401.723 9.16745 400.563L8.28605 402.359C10.7248 403.556 13.7568 404.836 17.0857 406.038L17.7652 404.157ZM8.50067 402.435C11.1512 403.05 14.4138 404.024 17.8936 405.281L18.5731 403.4C15.0339 402.121 11.6945 401.123 8.95283 400.487L8.50067 402.435ZM17.8936 405.281C21.1657 406.463 24.1289 407.715 26.4914 408.874L27.3728 407.079C24.9341 405.882 21.902 404.602 18.5731 403.4L17.8936 405.281ZM27.1582 407.003C24.5075 406.387 21.2449 405.414 17.7652 404.157L17.0857 406.038C20.6248 407.317 23.9642 408.314 26.706 408.951L27.1582 407.003Z"
              fill="black" mask="url(#path-72-inside-1_1007_3756)"/>
        <mask id="path-74-inside-2_1007_3756" fill="white">
            <path fill-rule="evenodd" clip-rule="evenodd"
                  d="M16.0267 400.016C13.845 399.228 11.8639 398.391 10.2776 397.61C12.0604 398.022 14.2428 398.672 16.5626 399.51C18.7443 400.298 20.7255 401.136 22.3118 401.917C20.5289 401.505 18.3465 400.854 16.0267 400.016Z"/>
        </mask>
        <path fill-rule="evenodd" clip-rule="evenodd"
              d="M16.0267 400.016C13.845 399.228 11.8639 398.391 10.2776 397.61C12.0604 398.022 14.2428 398.672 16.5626 399.51C18.7443 400.298 20.7255 401.136 22.3118 401.917C20.5289 401.505 18.3465 400.854 16.0267 400.016Z"
              fill="black"/>
        <path d="M16.0267 400.016L15.6869 400.957L16.0267 400.016ZM10.2776 397.61L10.5027 396.636L9.83608 398.507L10.2776 397.61ZM16.5626 399.51L16.9024 398.57L16.5626 399.51ZM22.3118 401.917L22.0867 402.891L22.7533 401.019L22.3118 401.917ZM16.3664 399.076C14.2134 398.298 12.267 397.474 10.7192 396.713L9.83608 398.507C11.4608 399.307 13.4766 400.158 15.6869 400.957L16.3664 399.076ZM10.0525 398.584C11.7894 398.986 13.933 399.624 16.2229 400.451L16.9024 398.57C14.5526 397.721 12.3315 397.058 10.5027 396.636L10.0525 398.584ZM16.2229 400.451C18.376 401.228 20.3224 402.052 21.8702 402.814L22.7533 401.019C21.1286 400.22 19.1127 399.368 16.9024 398.57L16.2229 400.451ZM22.5369 400.942C20.7999 400.541 18.6563 399.903 16.3664 399.076L15.6869 400.957C18.0367 401.806 20.2578 402.468 22.0867 402.891L22.5369 400.942Z"
              fill="black" mask="url(#path-74-inside-2_1007_3756)"/>
    </g>
    <defs>
        <clipPath id="clip0_1007_3756">
            <rect width="512" height="512" fill="white"/>
        </clipPath>
    </defs>
</svg>
