<svg width="512" height="512" viewBox="0 0 512 512" fill="none" xmlns="http://www.w3.org/2000/svg">
    <path d="M332.734 192.788L332.992 192.646V192.351V143.821C332.992 106.945 303.086 77.0507 266.195 77.0507C229.305 77.0507 199.398 106.945 199.398 143.821V174.23V174.627L199.786 174.717C218.065 178.946 232.061 187.089 243.662 199.237L243.81 199.391H244.024H322.804H322.982L323.121 199.278C326.015 196.906 329.228 194.727 332.734 192.788ZM409.573 188.535V188.878L409.894 189.001C410.016 189.048 410.137 189.095 410.258 189.143C423.428 194.299 432.143 202.466 432.143 214.323V478.96L428.875 482.778C417.321 496.274 400.452 502.181 373.329 502.181C351.402 502.181 336.467 497.13 323.552 487.633L323.42 487.536H323.256H243.938H243.734L243.588 487.679C227.825 503.151 201.927 511.5 165.906 511.5C145.956 511.5 128.221 508.586 113.946 503.368C99.665 498.149 88.8829 490.638 82.7792 481.471L80.5 478.048V212.992C80.5 198.346 92.0323 187.552 110.173 180.448C113.981 178.957 118.09 177.633 122.444 176.488L122.817 176.39V176.004V143.821C122.817 64.6673 187.01 0.5 266.195 0.5C345.381 0.5 409.573 64.6673 409.573 143.821V188.535Z"
          fill="black" stroke="black"/>
    <path d="M200.726 273.249C208.743 273.249 216.596 272.823 224.227 272.007C206.265 418.294 185.053 491.438 160.587 491.438C120.997 491.438 102.359 485.271 94.3936 473.309L94.3918 241.605C118.996 260.858 157.478 273.249 200.726 273.249ZM331.001 251.291C345.342 257.162 362.526 260.58 380.999 260.58C395.022 260.58 408.303 258.61 420.161 255.093C421.509 312.829 413.384 366.273 395.787 415.423C367.419 494.657 341.657 483.509 331.001 475.659L331.001 251.291Z"
          fill="#B5C1C9"/>
    <path fill-rule="evenodd" clip-rule="evenodd"
          d="M320.578 252.916V445.128V446.484C320.578 461.659 308.277 473.96 293.103 473.96H232.362C231.056 390.893 236.11 335.06 247.524 306.461C258.938 277.861 283.289 260.013 320.578 252.916Z"
          fill="#B5C1C9"/>
    <path d="M248.238 404.84C250.735 406.9 254.877 408.53 261.519 407.242C261.531 409.186 261.548 410.877 261.56 412.211C261.572 413.48 261.582 414.427 261.582 414.965C261.582 415.51 261.392 416.065 260.987 416.432C260.6 416.783 259.938 417.035 258.836 416.841C239.44 410.415 225.464 392.238 225.464 370.818C225.464 344.024 247.334 322.299 274.309 322.299C301.292 322.299 323.163 344.024 323.163 370.818C323.163 392.233 309.197 410.398 289.815 416.839C288.694 417.046 288.028 416.796 287.642 416.445C287.237 416.078 287.048 415.519 287.048 414.965C287.048 414.434 287.055 413.501 287.063 412.251C287.068 411.612 287.073 410.892 287.078 410.1C287.093 407.758 287.109 404.797 287.109 401.52C287.109 397.475 285.903 394.58 284.348 392.816C289.55 392.152 294.865 390.75 298.968 387.339C303.367 383.681 306.291 377.78 306.291 368.254C306.291 362.894 304.417 358.473 301.298 354.994C301.921 353.317 303.272 348.41 300.691 341.944L300.603 341.724L300.378 341.653L300.226 342.129C300.378 341.653 300.378 341.652 300.377 341.652L300.376 341.652L300.374 341.651L300.367 341.649L300.351 341.644C300.337 341.641 300.32 341.636 300.298 341.63C300.255 341.62 300.195 341.606 300.119 341.593C299.965 341.565 299.745 341.536 299.456 341.523C298.877 341.496 298.023 341.534 296.878 341.773C294.62 342.247 291.234 343.506 286.581 346.612C282.657 345.55 278.472 345.023 274.317 345.002L274.312 345.002C270.155 345.023 265.967 345.55 262.049 346.612C257.393 343.506 254.003 342.247 251.743 341.773C250.597 341.534 249.743 341.496 249.163 341.523C248.873 341.536 248.652 341.565 248.499 341.593C248.422 341.606 248.363 341.62 248.319 341.63C248.298 341.636 248.28 341.641 248.267 341.644L248.25 341.649L248.244 341.651L248.242 341.652L248.241 341.652C248.24 341.652 248.24 341.652 248.391 342.129L248.24 341.652L248.014 341.724L247.927 341.944C245.351 348.41 246.702 353.317 247.328 354.995C244.215 358.472 242.326 362.893 242.326 368.254C242.326 377.756 245.246 383.66 249.636 387.331C253.731 390.756 259.039 392.178 264.228 392.854C263.081 394.171 262.129 396.111 261.719 398.683C260.318 399.278 258.049 399.991 255.632 399.777C253.099 399.552 250.359 398.309 248.243 394.711C248.242 394.71 248.241 394.708 248.241 394.707L248.236 394.699C248.233 394.694 248.23 394.688 248.226 394.681C248.221 394.673 248.216 394.664 248.21 394.654C248.188 394.616 248.155 394.561 248.112 394.492C248.026 394.354 247.899 394.16 247.731 393.927C247.396 393.462 246.896 392.838 246.234 392.203C244.914 390.936 242.92 389.593 240.286 389.409L240.271 389.408L240.257 389.408L240.251 389.908C240.257 389.408 240.257 389.408 240.257 389.408L240.256 389.408L240.255 389.408L240.251 389.408L240.238 389.408L240.193 389.408C240.155 389.408 240.101 389.409 240.035 389.411C239.903 389.416 239.719 389.426 239.513 389.449C239.121 389.492 238.571 389.587 238.155 389.822C237.941 389.943 237.715 390.127 237.592 390.408C237.462 390.704 237.483 391.024 237.614 391.334C237.739 391.631 237.97 391.932 238.291 392.244C238.616 392.561 239.056 392.911 239.631 393.301L239.664 393.323L239.699 393.339L239.699 393.339L239.699 393.34L239.7 393.34L239.7 393.34L239.701 393.341L239.72 393.35C239.739 393.36 239.769 393.375 239.81 393.398C239.891 393.444 240.014 393.518 240.171 393.624C240.486 393.838 240.936 394.184 241.457 394.703C242.496 395.738 243.825 397.468 244.921 400.226L244.926 400.241C244.933 400.263 244.943 400.293 244.957 400.331C244.984 400.408 245.025 400.517 245.082 400.653C245.195 400.925 245.37 401.305 245.625 401.75C246.134 402.637 246.962 403.787 248.238 404.84Z"
          fill="black" stroke="black"/>
    <path fill-rule="evenodd" clip-rule="evenodd"
          d="M106.731 462.651V291.376V274.866C106.731 269.795 110.879 267.115 115.996 268.88L136.478 275.945C136.919 350.115 135.214 399.279 131.366 423.435C127.517 447.592 119.305 460.663 106.731 462.651Z"
          fill="white"/>
    <path fill-rule="evenodd" clip-rule="evenodd"
          d="M343.197 409.189V285.037V273.07C343.197 269.394 346.201 267.452 349.906 268.731L364.738 273.852C365.057 327.616 363.823 363.253 361.036 380.763C358.249 398.273 352.302 407.748 343.197 409.189Z"
          fill="white"/>
    <path fill-rule="evenodd" clip-rule="evenodd"
          d="M418.249 212.54V242.96C410.261 250.03 397.982 254.07 372.982 254.07C347.981 254.07 335.703 248.01 327.715 242.96H237.18C226.529 253.06 204.992 261.14 165.285 261.14C147.423 261.14 116.033 257.589 100.453 242.53C95.4467 237.691 93.0927 227.358 93.3906 211.53C93.3906 199.75 125.579 190.201 165.285 190.201C204.992 190.201 223.867 199.41 237.18 211.53H327.841C334.372 206.48 349.127 199.11 372.982 199.11C397.982 199.11 418.249 205.123 418.249 212.54Z"
          fill="white"/>
    <path d="M137.126 222.779L137.046 222.538V148.369C137.046 77.1255 203.411 22.0903 274.952 22.0903C346.436 22.0903 404.384 79.8896 404.384 151.186V229.581L404.304 229.822C404.211 230.104 403.898 230.489 403.262 230.947C402.644 231.393 401.788 231.862 400.729 232.338C398.614 233.288 395.751 234.238 392.508 235.082C386.02 236.772 378.081 238.022 371.694 238.022C365.391 238.022 359.626 235.409 355.28 232.34C353.11 230.808 351.305 229.17 349.975 227.704C348.631 226.222 347.813 224.961 347.559 224.187L347.479 223.946V151.186C347.479 128.913 340.556 108.719 328.018 94.0849C315.473 79.4438 297.327 70.393 274.952 70.393C230.217 70.393 193.951 106.564 193.951 151.186V228.172L193.871 228.413C193.596 229.25 193.222 230.067 192.52 230.855C191.817 231.645 190.761 232.433 189.086 233.172C185.72 234.656 179.928 235.911 169.701 236.615C159.571 237.311 151.688 234.673 146.2 231.438C143.455 229.819 141.31 228.052 139.786 226.481C138.247 224.894 137.378 223.547 137.126 222.779Z"
          fill="black" stroke="black"/>
    <path d="M266.088 14.3936C337.633 14.3936 395.631 72.5179 395.631 144.218V221.738L395.527 221.738C394.376 225.254 383.83 230.297 370.989 230.297C358.149 230.297 347.602 225.254 346.452 221.738L346.348 221.738V144.218C346.348 99.7951 310.415 63.7833 266.088 63.7833C221.762 63.7833 185.829 99.7951 185.829 144.218V221.738L185.725 221.738C184.574 225.254 174.028 230.297 161.187 230.297C148.347 230.297 137.8 225.254 136.65 221.738L136.546 221.738V144.218C136.546 72.5179 194.544 14.3936 266.088 14.3936Z"
          fill="#B5C1C9"/>
    <path d="M148.985 208.895H148.884V139.636C148.884 75.5766 200.769 23.6465 264.773 23.6465C316.33 23.6465 360.023 57.3423 375.068 103.931C355.418 67.8616 317.191 43.3889 273.253 43.3889C209.249 43.3889 157.363 95.3191 157.363 159.378V212.819C152.727 211.886 149.578 210.487 148.985 208.895Z"
          fill="white"/>
</svg>
