<svg width="512" height="512" viewBox="0 0 512 512" fill="none" xmlns="http://www.w3.org/2000/svg">
    <path d="M189.797 140.863C189.949 140.853 190.035 140.848 190.021 140.849C190.098 140.844 190.174 140.839 190.248 140.834C190.264 140.985 190.224 141.161 190.068 141.346L190.055 141.347C190.055 141.348 190.054 141.348 190.054 141.348C190.054 141.348 190.053 141.347 190.053 141.347L189.797 140.863ZM39.1452 187.795L39.2813 187.819C39.3236 187.803 39.3666 187.786 39.4102 187.769L39.2307 187.303L39.1452 187.795ZM36.0641 189.614C36.0646 189.614 36.0651 189.613 36.0656 189.612C36.0661 189.611 36.0666 189.611 36.0671 189.61L35.6466 189.339L36.0641 189.614ZM35.6167 190.39C35.6182 190.387 35.6197 190.384 35.6212 190.38C35.6225 190.377 35.6239 190.373 35.6252 190.37L35.1589 190.189L35.6167 190.39ZM34.9501 190.785L35.4322 190.918C35.4323 190.918 35.4323 190.918 35.4323 190.917L34.9501 190.785ZM0.5712 483.144L0.0606721 483.203L0 483.713L0.510528 483.654L0.5712 483.144ZM511.814 326.978L511.435 327.13L511.508 327.531L512 327.442L511.814 326.978ZM455.928 29.4838L455.802 29L455.324 29.147L455.465 29.6048C455.619 29.5646 455.773 29.5243 455.928 29.4838Z"
          fill="black" stroke="black"/>
    <path fill-rule="evenodd" clip-rule="evenodd"
          d="M236.541 417.557C238.033 416.697 239.583 416.052 241.274 415.771C249.971 414.324 258.446 413.029 264.757 410.348C269.537 408.318 274.074 406.594 278.588 404.944C279.136 405.306 279.674 405.687 280.199 406.087C283.982 408.966 286.671 412.464 288.224 416.179C284.35 418.29 280.367 420.278 276.041 422.116C266.486 426.175 255.254 429.502 239.807 431.797C236.895 427.338 235.778 422.319 236.541 417.557Z"
          fill="#B5C1C9"/>
    <path fill-rule="evenodd" clip-rule="evenodd"
          d="M52.3078 193.735C54.8469 193.381 56.6777 193.415 58.3619 192.556C58.1739 188.273 52.6876 282.24 36.3841 452.359C73.4684 445.594 133.007 429.903 196.053 423.263C205.655 422.252 214.261 421.267 222.045 420.158C222.704 422.632 223.718 425.061 225.081 427.38C219.422 428.303 213.321 429.118 206.702 429.815C193.862 431.167 133.316 441.376 25.0629 460.441C41.7902 303.365 50.8718 214.463 52.3078 193.735ZM327.285 374.779C375.564 349.991 434.629 331.55 473.584 315.158C449.676 169.952 433.221 76.0187 423.799 50.0207C426.35 49.6652 428.189 49.6995 429.881 48.839C429.692 44.5464 452.965 134.487 483.357 319.079C444.402 335.472 385.337 353.913 337.058 378.7C316.368 389.323 302.647 399.404 287.602 408.001C286.555 405.507 285.132 403.097 283.339 400.84C296.356 392.993 309.141 384.094 327.285 374.779Z"
          fill="white"/>
    <path fill-rule="evenodd" clip-rule="evenodd"
          d="M167.799 415.977C142.838 420.837 81.2261 435.561 51.4009 438.958C51.207 438.05 51.1367 436.907 51.19 435.528C82.3739 431.588 142.697 417.176 167.506 412.336C177.869 410.314 199.254 408.396 206.052 406.344C208.43 405.626 197.222 404.618 199.375 403.961C188.176 403.952 175.793 404.948 163.359 407.368C138.398 412.228 76.786 426.952 46.9609 430.35C46.767 429.441 46.6966 428.298 46.7499 426.919C77.9338 422.979 138.257 408.567 163.066 403.727C180.336 400.358 212.88 401.157 227.037 402.097C232.037 401.022 229.441 400.572 227.928 398.953C212.677 395.484 187.137 394.382 161.382 399.396C136.42 404.256 74.8086 418.98 44.9834 422.377C44.7895 421.469 44.7192 420.326 44.7725 418.947C75.9564 415.007 136.279 400.595 161.088 395.755C192.584 389.611 223.758 392.439 236.893 397.648C234.318 402.209 233.774 407.46 235.398 412.324C217.78 411.592 197.264 410.24 167.799 415.977ZM259.583 390.321L258.242 388.555C263.646 380.551 276.271 369.919 285.444 363.878C301.986 352.986 331.41 338.713 347.619 332.575C375.481 322.025 405.976 309.801 439.104 295.903C439.438 293.721 439.054 290.786 437.952 287.096C436.859 283.439 424.538 204.893 400.183 63.9021C401.045 63.2711 404.312 62.1707 405.172 61.5345C429.957 205.041 442.66 283.493 443.762 287.182C444.865 290.872 444.602 299.281 444.268 301.463C441.281 302.716 438.328 303.957 435.407 305.185C405.929 317.576 379.683 328.681 354.334 338.28C338.124 344.418 308.006 357.935 291.464 368.827C284.284 373.555 272.012 380.39 264.721 389.483C262.594 388.992 261.785 390.278 259.583 390.321ZM298.534 371.731C315.096 360.84 343.86 345.812 360.089 339.674C387.984 329.124 419.057 316.644 452.225 302.748C452.56 300.566 452.175 297.631 451.072 293.942C449.978 290.285 437.991 202.358 413.607 61.3793C414.469 60.7484 417.902 58.2797 418.763 57.6436C443.578 201.138 457.71 293.977 458.813 297.666C459.917 301.355 460.302 304.291 459.967 306.472C426.799 320.369 394.011 334.072 366.116 344.622C349.887 350.76 320.427 365.031 303.866 375.922C295.446 381.459 285.506 389.92 278.782 398.103C278.18 396.891 274.655 392.689 273.768 391.569C280.031 384.311 290.842 376.789 298.534 371.731Z"
          fill="#B5C1C9"/>
    <path fill-rule="evenodd" clip-rule="evenodd"
          d="M241.678 394.251C236.188 387.072 199.09 381.306 161.534 388.733C136.54 393.676 74.8479 408.65 44.9837 412.105C44.5616 410.097 44.7244 406.959 45.4722 402.69C46.2199 398.421 58.7191 332.463 71.9438 175.903C98.4942 182.146 154.497 159.499 182.402 158.874C210.306 158.249 230.688 155.757 236.804 162.381L241.678 394.251Z"
          fill="#B5C1C9"/>
    <path d="M88.2304 207.967C88.2152 207.899 88.2142 207.807 88.2498 207.685C155.861 198.488 195.77 193.541 208.015 192.837C212.623 192.572 216.136 192.414 218.481 192.409C219.628 192.407 220.474 192.441 221.027 192.513C220.948 192.55 220.861 192.59 220.765 192.631C220.131 192.903 219.171 193.236 217.861 193.638C215.247 194.438 211.302 195.491 205.934 196.846C195.24 199.545 174.776 202.125 154.57 204.237C137.063 206.067 119.784 207.542 109.289 208.439C107.679 208.576 106.229 208.7 104.962 208.809C98.6159 209.357 94.0605 209.453 91.2651 209.114C89.8496 208.942 88.9731 208.666 88.5329 208.349C88.3261 208.2 88.2532 208.069 88.2304 207.967ZM221.606 192.645C221.606 192.645 221.605 192.645 221.604 192.644C221.605 192.645 221.606 192.645 221.606 192.645Z"
          fill="black" stroke="black"/>
    <path d="M81.0695 326.12C81.0543 326.052 81.0533 325.961 81.089 325.839C148.7 316.642 188.609 311.695 200.854 310.991C205.462 310.726 208.975 310.568 211.32 310.563C212.467 310.561 213.313 310.595 213.866 310.667C213.788 310.704 213.701 310.743 213.604 310.785C212.97 311.057 212.01 311.39 210.701 311.791C208.086 312.592 204.141 313.645 198.773 315C188.079 317.699 167.615 320.279 147.409 322.391C129.903 324.221 112.623 325.696 102.128 326.592C100.518 326.73 99.0682 326.854 97.8013 326.963C91.4551 327.511 86.8996 327.607 84.1043 327.267C82.6888 327.095 81.8123 326.82 81.372 326.503C81.1653 326.354 81.0924 326.223 81.0695 326.12ZM214.445 310.799C214.445 310.799 214.444 310.798 214.443 310.798C214.445 310.798 214.445 310.799 214.445 310.799Z"
          fill="black" stroke="black"/>
    <path d="M84.65 267.043C84.6348 266.975 84.6338 266.884 84.6694 266.762C152.28 257.565 192.19 252.618 204.435 251.914C209.043 251.649 212.555 251.491 214.9 251.486C216.047 251.484 216.894 251.518 217.446 251.59C217.368 251.627 217.281 251.666 217.185 251.708C216.551 251.98 215.59 252.313 214.281 252.714C211.667 253.515 207.721 254.568 202.354 255.923C191.659 258.621 171.196 261.202 150.99 263.314C133.483 265.144 116.203 266.619 105.708 267.515C104.099 267.653 102.649 267.777 101.382 267.886C95.0355 268.434 90.4801 268.53 87.6847 268.19C86.2692 268.018 85.3927 267.743 84.9524 267.426C84.7457 267.277 84.6728 267.146 84.65 267.043ZM218.026 251.722C218.026 251.722 218.025 251.721 218.024 251.721C218.025 251.721 218.026 251.722 218.026 251.722Z"
          fill="black" stroke="black"/>
    <path d="M88.2324 238.236C88.2123 238.137 88.2146 238.012 88.2601 237.855C155.87 227.738 195.776 222.297 208.018 221.523C212.626 221.232 216.137 221.058 218.481 221.052C219.657 221.05 220.514 221.09 221.062 221.172C221.097 221.178 221.13 221.183 221.161 221.188C221.049 221.252 220.912 221.322 220.749 221.399C220.116 221.698 219.157 222.064 217.848 222.505C215.235 223.386 211.29 224.544 205.923 226.034C195.232 229.002 174.772 231.84 154.565 234.163C137.059 236.176 119.78 237.799 109.285 238.785C107.675 238.936 106.225 239.072 104.958 239.193C98.612 239.795 94.061 239.901 91.2711 239.528C89.8594 239.339 88.989 239.038 88.5511 238.691C88.3461 238.528 88.2606 238.375 88.2324 238.236ZM221.523 220.932C221.523 220.932 221.523 220.933 221.522 220.934C221.522 220.933 221.523 220.933 221.523 220.932Z"
          fill="black" stroke="black"/>
    <path d="M77.4891 360.135C77.4739 360.066 77.4729 359.975 77.5085 359.853C145.119 350.656 185.029 345.709 197.274 345.005C201.882 344.74 205.394 344.582 207.739 344.577C208.887 344.575 209.733 344.609 210.285 344.681C210.207 344.718 210.12 344.758 210.024 344.799C209.39 345.071 208.43 345.404 207.12 345.806C204.506 346.606 200.56 347.659 195.193 349.014C184.499 351.713 164.035 354.293 143.829 356.405C126.322 358.235 109.043 359.71 98.5479 360.607C96.938 360.744 95.4878 360.868 94.2209 360.977C87.8747 361.525 83.3192 361.621 80.5239 361.282C79.1084 361.11 78.2319 360.834 77.7916 360.517C77.5848 360.368 77.5119 360.237 77.4891 360.135ZM210.865 344.813C210.865 344.813 210.864 344.813 210.863 344.812C210.864 344.813 210.865 344.813 210.865 344.813Z"
          fill="black" stroke="black"/>
    <path d="M81.0695 297.477C81.0543 297.409 81.0533 297.317 81.089 297.196C148.7 287.998 188.609 283.052 200.854 282.348C205.462 282.083 208.975 281.924 211.32 281.92C212.467 281.917 213.313 281.952 213.866 282.024C213.788 282.061 213.701 282.1 213.604 282.141C212.97 282.413 212.01 282.747 210.701 283.148C208.086 283.949 204.141 285.002 198.773 286.356C188.079 289.055 167.615 291.635 147.409 293.747C129.903 295.577 112.623 297.053 102.128 297.949C100.518 298.086 99.0682 298.21 97.8013 298.32C91.4551 298.867 86.8996 298.964 84.1043 298.624C82.6888 298.452 81.8123 298.177 81.372 297.859C81.1653 297.71 81.0924 297.579 81.0695 297.477ZM214.445 282.155C214.445 282.155 214.444 282.155 214.443 282.154C214.445 282.155 214.445 282.155 214.445 282.155Z"
          fill="black" stroke="black"/>
    <path fill-rule="evenodd" clip-rule="evenodd"
          d="M255.299 381.672L248.839 151.168C255.118 141.231 273.585 128.504 304.239 112.985C334.893 97.4661 364.581 79.0189 393.303 57.6436C417.981 201.331 430.87 275.022 431.967 278.716C433.065 282.411 433.447 285.35 433.115 287.534C400.127 301.45 369.761 313.69 342.018 324.254C325.877 330.4 296.578 344.691 280.107 355.597C269.126 362.868 260.856 371.559 255.299 381.672Z"
          fill="#B5C1C9"/>
    <path fill-rule="evenodd" clip-rule="evenodd"
          d="M347.486 268.874C336.599 288.174 269.165 327.617 266.01 333.336L256 146.458C259.283 141.317 323.036 112.809 334.353 105.979C350.366 201.709 354.743 256.008 347.486 268.874Z"
          fill="white"/>
    <path d="M383.453 299.36L384.628 300.597L384.306 298.921C383.252 293.44 382.605 288.88 382.36 285.235C382.052 280.651 381.888 277.132 381.939 274.713C381.965 273.5 382.044 272.59 382.178 271.969C382.245 271.658 382.321 271.445 382.394 271.311C382.44 271.226 382.474 271.192 382.489 271.18C382.503 271.182 382.528 271.19 382.569 271.211C382.674 271.266 382.826 271.384 383.026 271.602C383.424 272.037 383.921 272.767 384.528 273.827C385.737 275.939 387.32 279.249 389.354 283.824C392.513 290.928 394.656 297.143 396.222 303.173L397.196 303.148C397.425 302.035 397.696 300.858 398.015 299.606C398.578 297.394 399.484 294.387 400.358 291.707C401.236 289.014 402.067 286.695 402.479 285.836C402.648 285.483 402.782 285.262 402.883 285.133C402.901 285.165 402.921 285.203 402.941 285.247C403.042 285.461 403.147 285.764 403.266 286.154C403.359 286.463 403.458 286.818 403.566 287.207C403.991 288.74 404.562 290.798 405.54 292.61C406.635 294.642 407.357 298.369 407.649 303.881L371.654 316.606C368.222 309.823 366.407 304.325 366.156 300.091C365.946 296.561 365.187 293.414 364.611 291.025C364.463 290.411 364.327 289.847 364.216 289.339C364.078 288.714 363.98 288.184 363.937 287.749C363.893 287.304 363.912 287.009 363.97 286.829C364.017 286.683 364.075 286.642 364.16 286.618C364.295 286.581 364.557 286.58 365.023 286.719C365.473 286.854 366.274 287.22 367.316 287.766C368.346 288.306 369.579 289.005 370.877 289.784C373.475 291.344 376.314 293.211 378.297 294.748C380.297 296.299 381.997 297.829 383.453 299.36ZM382.477 271.179C382.477 271.178 382.478 271.178 382.481 271.178C382.478 271.179 382.477 271.179 382.477 271.179Z"
          fill="black" stroke="black"/>
    <path d="M383.646 84.7049L382.655 84.815C383.022 94.5509 383.225 102.545 383.265 108.798C383.315 116.612 383.322 122.6 383.252 126.641C383.226 128.109 383.191 129.316 383.145 130.258C382.998 129.304 382.834 128.066 382.651 126.535C382.146 122.309 381.499 115.888 380.676 107.142C379.396 93.524 378.553 81.9443 377.966 70.985L376.968 70.9761C376.844 72.7166 376.699 74.5411 376.532 76.4627C376.025 82.2835 375.026 91.4072 374.489 95.4857C374.452 94.9074 374.415 94.2604 374.375 93.5604C374.214 90.7717 374.004 87.1438 373.612 83.6796C373.138 79.4858 372.887 72.6713 372.865 63.2199L388.607 61.7668C390.035 75.1296 390.764 85.5047 390.796 92.9005C390.822 98.832 391.096 104.409 391.308 108.707C391.363 109.824 391.414 110.854 391.455 111.781C391.53 113.486 391.571 114.821 391.551 115.714C391.059 114.376 390.138 111.329 389.122 107.718C387.987 103.685 386.747 98.9944 385.883 95.3131C385.012 91.6062 384.274 88.0931 383.646 84.7049Z"
          fill="black" stroke="black"/>
    <path d="M149.794 370.369L145.907 371.199L145.288 367.799C143.042 355.461 143.153 340.7 145.122 298.482C148.086 234.948 149.033 208.071 149.345 159.049L149.352 157.88L150.256 157.003C157.978 149.507 168.534 148.051 184.422 152.126L186.999 152.788L191.043 368.931L188.08 369.447C185.845 369.836 183.233 368.995 179.856 366.636C176.487 364.282 172.438 360.476 167.358 355.094L166.958 354.67L166.6 355.131C162.915 359.872 159.758 363.467 156.987 365.989C154.209 368.517 151.86 369.928 149.794 370.369Z"
          fill="black" stroke="black"/>
    <path d="M176.762 157.642L180.54 359.868C180.454 359.798 180.368 359.728 180.281 359.656C177.003 356.949 172.685 352.668 167.373 346.842L163.772 342.893L160.64 347.118C156.554 352.631 153.087 356.83 150.27 359.692C150.043 359.923 149.821 360.144 149.605 360.355C148.443 349.207 148.792 333.214 150.409 298.558C153.347 235.559 154.307 208.523 154.628 160.302C159.554 156.212 166.158 155.311 176.762 157.642Z"
          fill="white"/>
</svg>
