<svg width="512" height="512" viewBox="0 0 512 512" fill="none" xmlns="http://www.w3.org/2000/svg">
    <path d="M85.4319 297.858L85.4405 297.748L85.4023 297.645L80.5073 284.434C80.8267 280.565 81.7803 278.759 83.3935 277.56C84.2329 276.936 85.2785 276.456 86.5855 275.958C87.1949 275.726 87.8524 275.493 88.5665 275.241L88.7167 275.188C89.4871 274.915 90.319 274.619 91.211 274.28L110.538 266.939L110.713 266.873L110.801 266.709L117.727 253.868C120.898 247.991 126.7 244.315 133.286 244.002L251.996 243.42L252.006 243.42L252.017 243.419C253.012 243.372 254.015 243.403 255.017 243.511C266.302 244.729 275.199 255.305 274.841 267.153L274.841 267.162L274.841 267.171L275.663 387.617C275.338 398.225 267.648 406.383 257.622 406.853L111.004 413.736C110.302 413.769 109.236 413.73 107.792 413.613C101.373 407.48 96.5396 402.759 93.2899 399.447C91.6535 397.779 90.4236 396.473 89.5961 395.528C89.1816 395.054 88.8746 394.678 88.6695 394.396C88.5666 394.254 88.4951 394.144 88.4496 394.062C88.4174 394.005 88.4066 393.976 88.4042 393.971C88.1988 392.547 88.1246 391.091 88.1946 389.619L88.8333 376.176L88.8384 376.069L88.7988 375.969C86.095 369.133 85.5888 364.075 87.0712 360.683C87.415 359.896 87.4807 358.83 87.3977 357.625C87.3137 356.405 87.0712 354.973 86.7417 353.413C86.3582 351.598 85.8468 349.566 85.317 347.461C84.9413 345.968 84.5564 344.439 84.2012 342.923C83.3378 339.24 82.6396 335.601 82.6018 332.565C82.5637 329.502 83.1998 327.223 84.8122 326.049L85.0301 325.89L85.0173 325.621C84.9998 325.255 84.9981 324.716 84.996 324.059C84.9955 323.899 84.995 323.733 84.9942 323.561C84.9902 322.686 84.9796 321.668 84.9303 320.649C84.881 319.631 84.7927 318.599 84.6305 317.697C84.4713 316.812 84.23 315.984 83.8358 315.426C82.3546 313.327 82.5643 310.424 83.2922 307.205C83.5417 306.102 83.8439 304.993 84.1451 303.887C84.2802 303.391 84.415 302.896 84.5447 302.403C84.9598 300.825 85.3206 299.273 85.4319 297.858Z"
          fill="black" stroke="black"/>
    <path d="M129.059 295.463C130.729 294.826 132.106 293.602 132.97 291.987L140.676 277.589C141.936 275.235 144.254 273.76 146.89 273.634C187.725 271.695 218.351 270.24 238.769 269.271C242.976 269.071 248.648 271.197 255.784 275.649C256.181 275.63 264.937 291.285 264.81 296.002L263.912 386.477C263.798 390.71 255.797 384.179 251.78 384.37C237.141 391.759 225.338 395.667 216.37 396.093C205.7 396.6 204.069 393.084 188.331 393.832C182.65 394.101 165.067 398.53 158.726 398.831C150.004 399.245 135.517 399.933 115.264 400.895C114.817 400.916 114.367 400.898 113.918 400.841C109.416 400.272 105.934 395.995 106.141 391.287L106.776 376.887C106.819 375.919 106.704 374.938 106.435 373.987L101.259 355.63C100.512 352.981 100.976 350.208 102.512 348.153C107.301 341.742 109.68 336.655 109.649 332.893C109.606 327.778 107.999 322.981 104.826 318.502C103.558 316.713 102.943 314.535 103.104 312.403L103.266 310.237C103.502 307.106 105.371 304.495 108.129 303.443L129.059 295.463Z"
          fill="#B5C1C9"/>
    <path d="M183.252 276.361C183.578 276.042 183.908 275.719 184.245 275.39C184.982 274.669 185.748 273.92 186.563 273.123L187.502 272.205L186.142 272.268C185.687 272.289 185.232 272.309 184.779 272.329C181.668 272.467 178.627 272.601 176.024 273.038C173.054 273.537 170.525 274.447 169.11 276.329L183.252 276.361ZM183.252 276.361C183.886 275.947 184.544 275.547 185.194 275.151C185.536 274.943 185.876 274.736 186.209 274.529C187.492 273.733 188.689 272.93 189.633 272.017L189.737 271.916L189.884 271.892L190.834 271.736L190.987 271.711L191.132 271.777C191.572 271.975 191.827 272.016 191.953 272.004C192.004 271.999 192.018 271.987 192.019 271.986L192.019 271.986L192.019 271.986C192.021 271.985 192.036 271.973 192.051 271.925L192.149 271.624L192.475 271.608C194.074 271.53 195.681 271.384 197.303 271.229C197.528 271.207 197.753 271.185 197.978 271.164C199.377 271.028 200.789 270.892 202.207 270.793C205.503 270.563 208.867 270.533 212.304 271.193L212.238 271.678M183.252 276.361L212.238 271.678M212.238 271.678L212.304 271.193C212.718 271.273 213.067 271.376 213.348 271.506C213.623 271.633 213.873 271.804 214.036 272.038C214.214 272.294 214.256 272.584 214.173 272.853C214.097 273.1 213.927 273.298 213.739 273.453L213.739 273.453C212.88 274.159 211.558 274.519 210.164 274.724M212.238 271.678L210.164 274.724M210.164 274.724C210.09 274.735 210.021 274.744 209.955 274.754C209.73 274.785 209.551 274.81 209.41 274.853C209.41 274.853 209.409 274.853 209.408 274.854C209.47 275.395 209.361 275.983 209.155 276.547C208.928 277.173 208.567 277.807 208.121 278.377C207.246 279.496 205.955 280.473 204.558 280.531L204.558 280.531C204.34 280.54 204.124 280.546 203.911 280.552C203.234 280.573 202.591 280.592 202.032 280.687C201.856 280.717 201.7 280.752 201.562 280.794C202.624 280.88 203.67 280.966 204.731 281.053C205.613 281.125 206.505 281.197 207.424 281.272L207.784 281.302C208.305 280.193 208.594 279.111 208.645 278.442L209.146 278.51L208.645 278.442C208.741 277.172 209.341 276.199 210.445 275.533C211.522 274.883 213.057 274.534 215.025 274.415L215.025 274.415C215.757 274.372 216.26 274.235 216.572 274.04C216.857 273.861 216.992 273.628 217 273.297C217.017 272.523 217.622 272.083 218.253 271.847C218.899 271.605 219.735 271.506 220.566 271.494C222.709 271.461 226.219 271.249 230.226 271.008C231.947 270.904 233.759 270.794 235.594 270.691L234.38 260.106L165.518 263.465L167.304 279.036C167.849 278.116 168.446 277.212 169.11 276.329L210.164 274.724ZM204.945 284.708C205.577 284.355 206.145 283.824 206.639 283.192C206.524 283.284 206.412 283.372 206.302 283.458C206.101 283.616 205.908 283.768 205.711 283.934C205.399 284.197 205.139 284.449 204.945 284.708Z"
          fill="black" stroke="black"/>
    <path d="M211.014 375.137C211.253 375.185 211.493 375.232 211.73 375.279L211.784 375.289C212.856 375.499 213.855 375.697 214.548 375.961L214.549 375.961C215.23 376.221 217.551 377.408 219.901 378.686C221.066 379.319 222.222 379.967 223.164 380.52C224.124 381.083 224.814 381.521 225.084 381.745L225.735 381.085C225.494 380.82 225.122 380.223 224.615 379.222C224.118 378.241 223.516 376.924 222.81 375.268L222.753 375.133L222.636 375.038L215.535 369.261L215.512 369.242L215.486 369.225C213.599 367.978 212.112 366.991 211.02 366.26C212.368 366.634 214.241 367.162 216.642 367.846L223.946 374.14L225.522 379.716L225.564 379.864L225.681 379.977C226.494 380.758 226.975 381.225 227.136 381.388C227.426 381.683 227.688 381.907 227.955 382.035C228.262 382.184 228.523 382.182 228.752 382.135C228.87 382.11 228.972 382.079 229.076 382.048C229.335 381.97 229.6 381.891 230.129 381.906C230.704 381.923 231.011 382.063 231.205 382.216C231.417 382.382 231.573 382.62 231.766 382.98C231.798 383.041 231.831 383.104 231.865 383.17C232.22 383.853 232.703 384.78 233.979 385.299L233.979 385.299C234.072 385.337 234.188 385.362 234.268 385.378C234.363 385.398 234.478 385.418 234.601 385.439C234.654 385.448 234.709 385.457 234.766 385.467C234.974 385.502 235.201 385.541 235.426 385.584C235.716 385.641 235.973 385.7 236.156 385.762C236.182 385.771 236.204 385.779 236.222 385.786C236.549 386.863 237.089 387.66 237.751 388.291C238.29 388.803 238.899 389.194 239.501 389.533C239.301 389.611 239.126 389.641 238.971 389.639C238.726 389.635 238.48 389.554 238.2 389.375C238.073 389.294 237.945 389.194 237.798 389.074C237.765 389.047 237.731 389.019 237.696 388.99C237.58 388.895 237.45 388.788 237.32 388.689C236.968 388.424 236.532 388.154 235.973 388.07L235.352 387.976L235.467 388.583C235.568 389.115 235.699 389.489 235.792 389.753C235.824 389.846 235.852 389.925 235.872 389.993C235.945 390.242 235.991 390.523 235.889 391.233L235.889 391.233C235.858 391.445 235.932 391.639 236.01 391.779C236.088 391.919 236.194 392.048 236.298 392.158C236.506 392.379 236.778 392.601 237.034 392.796C237.224 392.941 237.424 393.085 237.599 393.211C237.662 393.256 237.722 393.299 237.777 393.339C237.884 393.418 237.974 393.484 238.043 393.539C238.105 393.588 238.132 393.613 238.138 393.619C238.14 393.621 238.14 393.621 238.14 393.62L238.14 393.621C238.791 394.368 239.458 394.792 240.13 395.123C240.401 395.256 240.678 395.376 240.947 395.493C241.003 395.517 241.058 395.541 241.114 395.565C241.439 395.708 241.759 395.852 242.087 396.028M211.014 375.137L227.325 384.441L227.326 384.441M211.014 375.137C211.068 375.178 211.124 375.219 211.181 375.261C212.138 375.971 213.33 376.828 214.531 377.667C215.732 378.506 216.938 379.323 217.926 379.953C218.42 380.268 218.855 380.534 219.204 380.731C219.57 380.938 219.795 381.042 219.892 381.071L219.892 381.071C220.2 381.161 220.542 381.184 220.928 381.179C221.114 381.176 221.302 381.166 221.498 381.157L221.515 381.156C221.714 381.146 221.922 381.136 222.128 381.134C222.533 381.131 222.98 381.159 223.41 381.315C223.86 381.479 224.267 381.774 224.587 382.252M211.014 375.137L224.587 382.252M242.087 396.028C242.087 396.028 242.087 396.028 242.087 396.028C242.087 396.028 242.107 396.041 242.146 396.079C242.188 396.121 242.241 396.182 242.303 396.266C242.429 396.435 242.572 396.667 242.728 396.955C243.039 397.529 243.373 398.275 243.694 399.069C243.908 399.599 244.112 400.144 244.297 400.664C243.648 399.825 242.906 398.904 242.138 398.045C241.348 397.163 240.513 396.325 239.702 395.702C238.937 395.113 238.112 394.65 237.33 394.609C237.175 394.259 236.882 394.022 236.616 393.861C236.326 393.686 235.982 393.55 235.695 393.437C235.684 393.433 235.674 393.428 235.663 393.424C235.344 393.298 235.089 393.194 234.895 393.075C234.706 392.959 234.666 392.883 234.653 392.84L234.167 392.909L234.653 392.84C234.585 392.599 234.52 392.368 234.457 392.145C234.096 390.856 233.817 389.861 233.358 389.057C232.784 388.052 231.95 387.364 230.512 386.643M242.087 396.028C242.088 396.028 242.088 396.029 242.088 396.029L242.282 395.601M242.087 396.028C242.088 396.029 242.088 396.029 242.089 396.029L242.282 395.601M230.512 386.643L230.334 387.078L230.512 386.643C230.512 386.643 230.512 386.643 230.512 386.643ZM230.512 386.643C230.04 386.405 229.77 386.1 229.441 385.726C229.381 385.659 229.32 385.59 229.255 385.518C229.051 385.292 228.808 385.045 228.49 384.844C228.189 384.653 227.842 384.517 227.425 384.455M227.425 384.455C227.437 384.464 227.447 384.471 227.455 384.477C227.463 384.482 227.466 384.484 227.466 384.484C227.466 384.484 227.463 384.482 227.458 384.479C227.451 384.476 227.401 384.45 227.326 384.441M227.425 384.455C227.398 384.433 227.361 384.403 227.313 384.362C227.255 384.313 227.193 384.258 227.123 384.196C227.112 384.186 227.1 384.176 227.088 384.165C227.006 384.092 226.914 384.012 226.821 383.933C226.643 383.783 226.42 383.607 226.196 383.494C225.994 383.392 225.582 383.241 225.268 383.516M227.425 384.455C227.393 384.45 227.359 384.445 227.326 384.441M227.326 384.441L225.268 383.516M225.268 383.516L225.633 383.906L225.268 383.515C225.268 383.515 225.268 383.515 225.268 383.516ZM242.282 395.601C241.869 395.38 241.474 395.208 241.091 395.042C240.172 394.643 239.328 394.276 238.505 393.331L242.282 395.601ZM224.587 382.252C224.587 382.252 224.587 382.252 224.587 382.252L224.176 382.482L224.587 382.252ZM224.587 382.252C224.733 382.469 224.851 382.729 224.946 382.94M224.587 382.252L224.946 382.94M224.946 382.94C224.954 382.957 224.961 382.974 224.969 382.991M224.946 382.94L224.969 382.991M224.969 382.991C225.062 383.199 225.137 383.365 225.215 383.496M224.969 382.991L225.215 383.496M225.215 383.496C225.224 383.512 225.233 383.526 225.241 383.538L225.215 383.496ZM236.312 385.826C236.311 385.826 236.311 385.825 236.31 385.825C236.319 385.832 236.321 385.832 236.312 385.826ZM225.161 383.588C225.161 383.588 225.163 383.588 225.167 383.586C225.163 383.587 225.161 383.588 225.161 383.588Z"
          fill="black" stroke="black"/>
    <path d="M271.446 290.215C271.058 290.404 270.78 290.461 270.587 290.453C270.399 290.445 270.267 290.376 270.133 290.229C270.066 290.155 269.999 290.059 269.914 289.924C269.897 289.897 269.878 289.867 269.859 289.836C269.791 289.726 269.709 289.596 269.625 289.477C269.39 289.148 269.041 288.779 268.469 288.654L268.038 288.561L267.941 288.964C267.803 289.538 267.763 289.932 267.733 290.224C267.722 290.332 267.712 290.426 267.699 290.511C267.653 290.819 267.557 291.164 267.13 291.97L267.13 291.97C266.961 292.289 267.042 292.65 267.146 292.913C267.254 293.183 267.425 293.452 267.585 293.68C267.704 293.849 267.834 294.019 267.944 294.163C267.983 294.213 268.019 294.261 268.051 294.303C268.118 294.392 268.169 294.461 268.205 294.517C268.229 294.552 268.238 294.57 268.241 294.575C268.539 295.449 269.013 295.971 269.539 296.38C269.745 296.54 269.965 296.686 270.167 296.821C270.209 296.849 270.25 296.876 270.289 296.903C270.52 297.058 270.735 297.209 270.943 297.386C270.958 297.419 270.978 297.477 270.999 297.568C271.042 297.752 271.074 298.009 271.094 298.331C271.133 298.974 271.117 299.807 271.066 300.692C271.026 301.389 270.965 302.108 270.895 302.779C270.66 301.871 270.378 300.884 270.047 299.959C269.691 298.965 269.266 298.001 268.758 297.268C268.316 296.631 267.739 296.067 267.022 295.922C266.989 295.607 266.832 295.34 266.624 295.128C266.4 294.9 266.106 294.725 265.892 294.598C265.881 294.591 265.869 294.584 265.859 294.578C265.603 294.425 265.444 294.325 265.346 294.223C265.285 294.159 265.269 294.124 265.283 294.039L264.787 293.895L265.283 294.039C265.325 293.769 265.367 293.511 265.407 293.263C265.504 292.665 265.59 292.131 265.652 291.657C265.74 290.987 265.786 290.396 265.74 289.859C265.693 289.312 265.551 288.812 265.262 288.328C264.976 287.851 264.566 287.425 264.033 286.999M271.446 290.215L261.886 284.444L261.886 284.444C261.887 284.444 261.888 284.445 261.889 284.445M271.446 290.215C271.003 289.808 270.561 289.328 270.254 288.698C269.894 287.961 269.747 287.08 269.897 285.951C269.776 285.902 269.614 285.85 269.422 285.797C269.231 285.744 269.037 285.697 268.856 285.653C268.806 285.641 268.758 285.629 268.71 285.618C268.604 285.592 268.5 285.566 268.414 285.541L268.412 285.54C268.351 285.523 268.221 285.485 268.115 285.419L268.114 285.419C267.509 285.045 267.219 284.527 267.084 284.016C266.979 283.62 266.96 283.196 266.945 282.853C266.942 282.785 266.939 282.721 266.936 282.661C266.913 282.236 266.866 282.006 266.775 281.871C266.728 281.8 266.599 281.651 266.074 281.619C265.588 281.59 265.303 281.671 265.023 281.751C264.911 281.783 264.8 281.814 264.677 281.838C264.467 281.879 264.154 281.9 263.839 281.66C263.58 281.463 263.41 281.152 263.269 280.825L271.446 290.215ZM264.033 286.999L263.755 287.374L264.033 287C264.033 286.999 264.033 286.999 264.033 286.999ZM264.033 286.999C263.757 286.779 263.662 286.509 263.514 286.087C263.486 286.009 263.457 285.926 263.424 285.837C263.332 285.585 263.201 285.268 262.951 284.998C262.725 284.752 262.438 284.582 262.086 284.488M262.086 284.488C262.102 284.515 262.116 284.537 262.127 284.555C262.133 284.564 262.137 284.57 262.141 284.575C262.144 284.58 262.146 284.582 262.146 284.582L262.144 284.58C262.143 284.578 262.14 284.576 262.137 284.573C262.132 284.567 262.12 284.555 262.104 284.542C262.075 284.519 262 284.465 261.889 284.445M262.086 284.488C262.085 284.487 262.084 284.485 262.083 284.484C262.053 284.431 262.02 284.372 261.981 284.301C261.975 284.29 261.968 284.278 261.962 284.266C261.916 284.183 261.864 284.089 261.808 283.996C261.706 283.828 261.552 283.591 261.347 283.425C261.236 283.336 261.081 283.243 260.891 283.218C260.74 283.198 260.606 283.225 260.492 283.28M262.086 284.488C262.022 284.471 261.957 284.457 261.889 284.445M261.889 284.445L260.492 283.28M260.492 283.28C260.491 283.186 260.493 283.081 260.495 282.965C260.495 282.946 260.496 282.927 260.496 282.908C260.5 282.676 260.504 282.388 260.463 282.143C260.369 281.588 260.086 281.17 259.636 280.927C259.244 280.716 258.794 280.677 258.416 280.671C258.219 280.668 258.015 280.674 257.823 280.68L257.807 280.681C257.617 280.687 257.436 280.692 257.259 280.691C256.886 280.688 256.601 280.652 256.39 280.563L256.39 280.563C256.39 280.563 256.38 280.558 256.358 280.544C256.334 280.529 256.303 280.508 256.264 280.478C256.185 280.417 256.087 280.333 255.969 280.224C255.735 280.006 255.448 279.709 255.122 279.352C254.473 278.64 253.698 277.715 252.936 276.764C252.174 275.813 251.429 274.842 250.841 274.04C250.714 273.867 250.597 273.704 250.488 273.552C250.837 273.661 251.197 273.761 251.541 273.857L251.609 273.876C252.545 274.137 253.369 274.372 253.874 274.661L253.874 274.661C254.106 274.793 254.633 275.188 255.342 275.765C256.036 276.329 256.865 277.035 257.684 277.76C258.503 278.484 259.307 279.222 259.948 279.85C260.269 280.164 260.545 280.446 260.761 280.683C260.985 280.928 261.12 281.099 261.18 281.196L262.065 280.865C262.019 280.741 261.968 280.513 261.927 280.152C261.886 279.8 261.857 279.352 261.84 278.804C261.806 277.709 261.823 276.241 261.893 274.397L261.899 274.234L261.805 274.085L257.652 267.545L257.627 267.507L257.597 267.473C256.257 265.929 255.225 264.729 254.5 263.874C254.441 263.805 254.384 263.738 254.33 263.674C254.42 263.709 254.514 263.747 254.612 263.786C255.72 264.228 257.322 264.881 259.42 265.744L263.467 272.742L262.474 278.933L262.449 279.087L262.522 279.24C262.945 280.122 263.191 280.645 263.269 280.825L260.492 283.28ZM270.933 297.366C270.933 297.366 270.934 297.367 270.935 297.368C270.934 297.367 270.933 297.366 270.933 297.366Z"
          fill="black" stroke="black"/>
    <path d="M103.743 386.883L107.56 377.215L105.13 355.774C104.633 354.01 102.918 350.924 99.9843 346.516L111.888 333.746C107.59 325.495 104.386 319.879 102.276 316.896C101.011 315.108 100.397 312.933 100.556 310.803L100.717 308.639C100.95 305.511 102.812 302.903 105.561 301.852L126.422 293.881C128.086 293.245 129.458 292.023 130.319 290.409L137.993 276.026C139.248 273.674 141.558 272.201 144.186 272.076C169.854 270.338 192.174 268.32 211.147 266.021C230.119 263.721 244.695 261.136 254.873 258.264C253.816 255.94 250.316 254.919 244.374 255.201C243.972 255.22 243.575 255.146 243.179 255.165L138.099 260.161C135.47 260.286 133.16 261.759 131.905 264.111L124.231 278.494C123.37 280.108 121.998 281.33 120.334 281.966L99.4736 289.937C96.7245 290.988 94.8624 293.596 94.6292 296.724L94.4679 298.888C94.3091 301.018 94.9232 303.193 96.188 304.981C99.3534 309.455 100.959 314.247 101.003 319.357C101.036 323.115 98.6675 328.197 93.8965 334.601C92.3668 336.654 91.905 339.424 92.6511 342.071L97.8212 360.409C98.0891 361.36 98.2046 362.34 98.1626 363.307L97.5372 377.692C97.357 381.837 100.033 385.648 103.743 386.883Z"
          fill="#B5C1C9"/>
    <path d="M130.963 309.46L156.325 275.496L146.627 275.882C143.998 275.986 141.623 277.408 140.261 279.694L131.931 293.673C130.996 295.241 129.57 296.425 127.88 297.034L106.689 304.671C103.896 305.677 101.916 308.21 101.537 311.259L101.275 313.369C101.103 314.753 101.459 318 102.343 323.11L106.842 333.379L103.093 350.303L96.5983 354.755C99.7355 364.256 101.378 369.316 101.527 369.936C101.75 370.865 102.043 375.288 101.955 376.231L100.66 390.259C100.287 394.301 102.779 398.036 106.425 399.266L107.475 387.894C107.562 386.951 106.501 381.859 106.278 380.93L109.024 365.444L104.557 359.865L112.362 345.042L111.271 329.009L109.856 321.377L113.469 314.943L130.963 309.46Z"
          fill="white"/>
    <path d="M142.811 380.632L142.811 380.632L142.818 380.633C143.067 380.656 143.397 380.52 143.742 380.09C144.081 379.666 144.367 379.025 144.482 378.263L156.292 299.68C156.405 298.928 156.319 298.245 156.109 297.753C155.893 297.247 155.588 297.028 155.324 297L155.436 296.522L155.324 297L155.317 297L155.423 296.521L155.317 297C155.067 296.977 154.737 297.113 154.392 297.543C154.053 297.966 153.767 298.607 153.652 299.369L141.842 377.952C141.729 378.705 141.815 379.388 142.025 379.879C142.241 380.385 142.546 380.605 142.811 380.632Z"
          fill="black" stroke="black"/>
    <path d="M178.899 378.108L178.899 378.108L178.906 378.109C179.155 378.132 179.486 377.996 179.83 377.566C180.169 377.142 180.455 376.501 180.57 375.739L192.38 297.156C192.493 296.404 192.408 295.721 192.197 295.229C191.981 294.723 191.676 294.504 191.412 294.476L191.412 294.476L191.405 294.476L191.512 293.997L191.405 294.476C191.155 294.453 190.825 294.589 190.481 295.019C190.141 295.442 189.855 296.083 189.741 296.845L177.93 375.428C177.817 376.181 177.903 376.864 178.113 377.355C178.33 377.861 178.634 378.081 178.899 378.108ZM191.525 293.999L191.525 293.999L191.525 293.999Z"
          fill="black" stroke="black"/>
    <path d="M160.854 379.37L160.855 379.37L160.861 379.371C161.111 379.394 161.441 379.258 161.786 378.828C162.125 378.404 162.411 377.763 162.526 377.002L174.336 298.418C174.449 297.666 174.363 296.983 174.153 296.491C173.937 295.985 173.632 295.766 173.367 295.739L173.367 295.739L173.361 295.738L173.467 295.26L173.361 295.738C173.111 295.715 172.78 295.851 172.436 296.281C172.097 296.704 171.811 297.346 171.696 298.107L159.886 376.691C159.773 377.443 159.859 378.126 160.069 378.617C160.285 379.123 160.59 379.343 160.854 379.37Z"
          fill="black" stroke="black"/>
    <path d="M205.896 331.312L205.896 331.312L205.881 331.311L205.881 331.311C204.868 331.246 203.729 332.206 203.511 333.718L197.664 374.327C197.448 375.825 198.292 376.939 199.309 377.013L199.324 377.014C200.337 377.079 201.476 376.119 201.694 374.607L207.541 333.998C207.757 332.5 206.913 331.386 205.896 331.312Z"
          fill="black" stroke="black"/>
    <path d="M117.484 314.365L117.493 314.256L117.455 314.153L111.932 299.2C112.29 294.806 113.368 292.739 115.207 291.366C116.159 290.656 117.343 290.111 118.816 289.548C119.503 289.286 120.244 289.022 121.048 288.737L121.217 288.677C122.085 288.369 123.021 288.035 124.025 287.652L145.789 279.356L145.963 279.29L146.051 279.125L153.847 264.608C157.426 257.943 163.979 253.776 171.419 253.423L305.113 252.792L305.123 252.792L305.134 252.791C306.258 252.739 307.39 252.774 308.522 252.897C321.265 254.28 331.314 266.27 330.914 279.699L330.913 279.708L330.913 279.717L331.885 415.903C331.522 427.93 322.839 437.181 311.514 437.713L146.393 445.461C145.595 445.499 144.384 445.453 142.746 445.32C135.506 438.376 130.055 433.031 126.391 429.281C124.547 427.395 123.16 425.918 122.227 424.847C121.759 424.31 121.412 423.883 121.179 423.562C121.062 423.401 120.98 423.274 120.927 423.179C120.881 423.095 120.87 423.06 120.869 423.06C120.869 423.06 120.87 423.063 120.871 423.069C120.636 421.45 120.551 419.793 120.63 418.118L121.344 402.92L121.349 402.813L121.31 402.713C118.261 394.979 117.68 389.238 119.359 385.377C119.74 384.503 119.814 383.311 119.72 381.952C119.626 380.577 119.353 378.962 118.981 377.199C118.549 375.147 117.973 372.852 117.376 370.473C116.952 368.785 116.518 367.055 116.117 365.339C115.143 361.174 114.354 357.053 114.31 353.612C114.266 350.145 114.981 347.539 116.823 346.191L117.04 346.033L117.028 345.764C117.008 345.348 117.006 344.737 117.003 343.994C117.002 343.814 117.002 343.626 117.001 343.432C116.996 342.442 116.984 341.293 116.928 340.142C116.872 338.993 116.772 337.83 116.59 336.814C116.411 335.814 116.141 334.891 115.705 334.272C114.018 331.872 114.261 328.562 115.079 324.924C115.36 323.675 115.701 322.418 116.04 321.167C116.192 320.607 116.343 320.048 116.489 319.491C116.956 317.708 117.36 315.958 117.484 314.365Z"
          fill="black" stroke="black"/>
    <path d="M166.703 311.94C168.583 311.223 170.134 309.846 171.107 308.027L179.784 291.818C181.202 289.169 183.813 287.508 186.781 287.367C232.761 285.183 267.245 283.545 290.235 282.453C294.973 282.228 301.359 284.622 309.393 289.633C309.841 289.612 319.7 307.235 319.557 312.545L318.543 414.394C318.415 419.16 309.406 411.809 304.884 412.023C288.4 420.342 275.11 424.741 265.013 425.221C252.998 425.791 251.161 421.834 233.441 422.675C227.044 422.979 207.245 427.964 200.105 428.303C190.285 428.77 173.973 429.544 151.168 430.628C150.665 430.651 150.159 430.631 149.653 430.567C144.583 429.927 140.663 425.111 140.897 419.812L141.612 403.601C141.66 402.512 141.53 401.408 141.228 400.337L135.399 379.672C134.558 376.69 135.081 373.568 136.81 371.254C142.203 364.037 144.882 358.311 144.847 354.076C144.799 348.318 142.989 342.918 139.417 337.876C137.989 335.862 137.297 333.411 137.477 331.011L137.661 328.572C137.926 325.048 140.031 322.108 143.137 320.924L166.703 311.94Z"
          fill="#B5C1C9"/>
    <path d="M228.745 289.225C228.225 289.717 227.718 290.197 227.218 290.67C228.081 290.104 228.997 289.563 229.903 289.028C230.289 288.8 230.674 288.573 231.051 288.346C232.501 287.473 233.858 286.59 234.93 285.586L235.034 285.489L235.178 285.465L236.249 285.294L236.397 285.27L236.539 285.332C237.037 285.549 237.34 285.601 237.503 285.586C237.575 285.579 237.603 285.561 237.615 285.552C237.626 285.544 237.648 285.523 237.667 285.464L237.767 285.168L238.089 285.152C239.894 285.064 241.706 284.902 243.535 284.729C243.788 284.705 244.042 284.681 244.296 284.657C245.872 284.507 247.463 284.356 249.06 284.245C252.771 283.989 256.555 283.951 260.414 284.665L260.351 285.15L260.414 284.665C260.876 284.75 261.262 284.861 261.571 284.999C261.873 285.135 262.143 285.315 262.319 285.561C262.511 285.83 262.556 286.136 262.465 286.422C262.381 286.682 262.195 286.892 261.988 287.057L261.988 287.057C261.032 287.819 259.556 288.213 257.988 288.438C257.907 288.45 257.83 288.46 257.757 288.47C257.502 288.505 257.292 288.534 257.127 288.583C257.11 288.588 257.095 288.593 257.082 288.598C257.156 289.192 257.032 289.842 256.795 290.467C256.537 291.147 256.13 291.837 255.628 292.458C254.64 293.679 253.196 294.731 251.654 294.795L251.654 294.795C251.411 294.805 251.169 294.812 250.93 294.82C250.165 294.843 249.434 294.865 248.797 294.971C248.502 295.02 248.253 295.083 248.046 295.162C249.333 295.262 250.598 295.36 251.881 295.46C252.863 295.536 253.856 295.613 254.879 295.693L255.333 295.728C255.937 294.499 256.275 293.297 256.336 292.554C256.449 291.174 257.124 290.124 258.354 289.403C259.555 288.699 261.273 288.317 263.485 288.184L263.485 288.184C264.316 288.135 264.898 287.984 265.264 287.761C265.604 287.554 265.762 287.285 265.773 286.913C265.796 286.088 266.459 285.621 267.156 285.367C267.874 285.105 268.806 284.996 269.738 284.981C272.154 284.942 276.114 284.704 280.631 284.433C282.59 284.316 284.653 284.192 286.74 284.075L285.41 272.414L207.679 276.205L209.647 293.452C210.291 292.389 211 291.346 211.792 290.328C213.382 288.286 216.213 287.291 219.556 286.742C222.485 286.261 225.908 286.109 229.414 285.953C229.925 285.931 230.437 285.908 230.95 285.884L232.343 285.82L231.366 286.744C230.445 287.617 229.578 288.436 228.745 289.225ZM252.895 298.529C252.472 298.875 252.13 299.205 251.898 299.553C252.828 299.11 253.641 298.339 254.314 297.422C254.242 297.482 254.169 297.54 254.096 297.598C253.912 297.743 253.737 297.876 253.567 298.005C253.338 298.179 253.117 298.347 252.895 298.529Z"
          fill="black" stroke="black"/>
    <path d="M290.948 418.136C290.671 418.263 290.43 418.311 290.216 418.308C289.927 418.304 289.637 418.206 289.314 417.998C289.167 417.904 289.02 417.789 288.853 417.652C288.816 417.622 288.777 417.59 288.738 417.557C288.607 417.449 288.463 417.33 288.317 417.219C287.926 416.923 287.447 416.626 286.834 416.532L286.213 416.437L286.328 417.045C286.441 417.641 286.585 418.055 286.69 418.353C286.727 418.46 286.759 418.553 286.783 418.633C286.87 418.927 286.921 419.256 286.806 420.064L286.806 420.064C286.774 420.283 286.851 420.487 286.934 420.637C287.018 420.788 287.132 420.928 287.247 421.05C287.476 421.295 287.778 421.543 288.066 421.763C288.279 421.926 288.503 422.088 288.7 422.231C288.771 422.282 288.838 422.331 288.9 422.377C289.022 422.465 289.124 422.541 289.203 422.604C289.242 422.636 289.272 422.661 289.295 422.681C289.315 422.699 289.323 422.708 289.323 422.708C289.323 422.708 289.323 422.708 289.322 422.707C290.047 423.543 290.788 424.017 291.539 424.387C291.841 424.537 292.152 424.673 292.454 424.805C292.517 424.832 292.58 424.86 292.642 424.887C293.009 425.048 293.372 425.213 293.745 425.414M290.948 418.136L280.67 414.91C282.28 415.722 283.204 416.491 283.841 417.61C284.352 418.51 284.665 419.625 285.073 421.083C285.144 421.335 285.217 421.598 285.295 421.871L284.808 421.94L285.295 421.871C285.317 421.947 285.382 422.047 285.601 422.183C285.826 422.322 286.12 422.441 286.478 422.583C286.489 422.588 286.5 422.592 286.511 422.597C286.836 422.726 287.218 422.877 287.538 423.072C287.843 423.257 288.17 423.528 288.331 423.927C289.201 423.956 290.133 424.475 291.005 425.15C291.912 425.851 292.849 426.794 293.737 427.79C294.692 428.863 295.61 430.021 296.393 431.044C296.154 430.354 295.879 429.612 295.59 428.892C295.228 427.993 294.85 427.147 294.498 426.494C294.321 426.167 294.157 425.901 294.013 425.705C293.94 425.608 293.878 425.535 293.827 425.484C293.802 425.459 293.782 425.442 293.767 425.43C293.752 425.418 293.745 425.414 293.745 425.414M290.948 418.136C290.234 417.738 289.51 417.282 288.874 416.674C288.13 415.963 287.525 415.063 287.161 413.839C287.132 413.827 287.095 413.813 287.049 413.797C286.838 413.725 286.545 413.657 286.218 413.594C285.964 413.544 285.708 413.5 285.473 413.46C285.41 413.45 285.348 413.439 285.288 413.429C285.151 413.405 285.022 413.382 284.915 413.36C284.826 413.342 284.701 413.315 284.603 413.275L284.603 413.275C283.194 412.698 282.663 411.674 282.263 410.903C282.224 410.828 282.187 410.756 282.15 410.687C281.932 410.279 281.75 409.997 281.498 409.797C281.263 409.612 280.902 409.45 280.245 409.431C279.64 409.413 279.332 409.507 279.038 409.595C278.923 409.63 278.81 409.664 278.683 409.69C278.435 409.742 278.157 409.744 277.827 409.584C277.539 409.444 277.253 409.199 276.927 408.867C276.745 408.682 276.202 408.152 275.288 407.269L275.171 407.157L275.13 407.009L273.344 400.68L265.09 393.534C262.164 392.696 259.932 392.063 258.395 391.636C259.648 392.481 261.427 393.669 263.739 395.205L263.765 395.222L263.788 395.241L271.783 401.776L271.899 401.871L271.956 402.005C272.752 403.879 273.431 405.37 273.992 406.482C274.564 407.613 274.987 408.298 275.266 408.607L274.613 409.264C274.304 409.007 273.521 408.508 272.442 407.871C271.381 407.245 270.079 406.512 268.768 405.795C266.124 404.35 263.507 403.004 262.735 402.708L262.735 402.708C261.947 402.406 260.817 402.181 259.613 401.944L259.557 401.933C259.203 401.863 258.844 401.792 258.489 401.718C258.621 401.817 258.758 401.92 258.901 402.026C259.979 402.83 261.321 403.8 262.673 404.749C264.026 405.698 265.385 406.623 266.498 407.337C267.055 407.695 267.545 407.996 267.94 408.22C268.351 408.454 268.611 408.576 268.729 408.61L268.729 408.61C269.085 408.715 269.477 408.742 269.913 408.735C270.124 408.732 270.336 408.722 270.557 408.711L270.576 408.71C270.8 408.699 271.033 408.688 271.263 408.686C271.717 408.682 272.21 408.714 272.682 408.886C273.175 409.067 273.619 409.39 273.97 409.917M290.948 418.136L280.67 414.91C280.124 414.635 279.81 414.277 279.438 413.854C279.372 413.778 279.303 413.7 279.232 413.62C279.003 413.367 278.735 413.093 278.387 412.871C278.052 412.658 277.666 412.508 277.198 412.439C277.163 412.413 277.116 412.374 277.052 412.32C276.987 412.264 276.917 412.201 276.838 412.131C276.825 412.119 276.812 412.108 276.799 412.096C276.706 412.013 276.604 411.923 276.499 411.835C276.299 411.666 276.054 411.472 275.811 411.348C275.59 411.236 275.159 411.08 274.833 411.367M293.745 425.414L293.939 424.987L293.745 425.414C293.745 425.414 293.745 425.414 293.745 425.414ZM273.97 409.917C273.97 409.917 273.97 409.917 273.97 409.917L273.558 410.145L273.97 409.917ZM273.97 409.917C274.13 410.156 274.261 410.444 274.368 410.683C274.377 410.703 274.386 410.723 274.394 410.742C274.499 410.976 274.585 411.168 274.675 411.32C274.706 411.371 274.73 411.407 274.749 411.431M274.749 411.431C274.77 411.417 274.798 411.397 274.833 411.367M274.749 411.431C274.777 411.469 274.792 411.48 274.791 411.481C274.791 411.481 274.782 411.475 274.764 411.469C274.732 411.457 274.709 411.457 274.699 411.458M274.749 411.431C274.724 411.448 274.707 411.455 274.699 411.458M274.833 411.367L275.199 411.756L274.833 411.367C274.833 411.367 274.833 411.367 274.833 411.367ZM274.699 411.458C274.694 411.458 274.692 411.459 274.692 411.46C274.692 411.46 274.694 411.46 274.699 411.458ZM277.105 412.427L277.105 412.427L277.105 412.427ZM287.248 413.883C287.248 413.883 287.245 413.881 287.239 413.877C287.244 413.881 287.247 413.883 287.248 413.883Z"
          fill="black" stroke="black"/>
    <path d="M307.202 275.668C307.309 275.796 307.424 275.933 307.548 276.08C308.365 277.048 309.527 278.404 311.036 280.151L311.066 280.185L311.09 280.223L315.768 287.62L315.861 287.768L315.855 287.93C315.779 290.016 315.761 291.678 315.8 292.918C315.82 293.539 315.854 294.048 315.9 294.448C315.948 294.858 316.005 295.123 316.06 295.271L315.175 295.6C315.103 295.484 314.947 295.287 314.695 295.009C314.45 294.74 314.137 294.419 313.776 294.063C313.052 293.352 312.147 292.516 311.225 291.696C310.302 290.876 309.367 290.076 308.586 289.438C307.789 288.786 307.191 288.335 306.924 288.182L306.924 288.182C306.346 287.849 305.409 287.581 304.36 287.287L304.289 287.267C303.844 287.143 303.38 287.013 302.938 286.869C303.088 287.082 303.257 287.317 303.441 287.57C304.104 288.478 304.943 289.577 305.802 290.653C306.661 291.73 307.535 292.777 308.267 293.585C308.634 293.989 308.959 294.327 309.225 294.575C309.513 294.844 309.672 294.952 309.721 294.972L309.721 294.973C309.97 295.079 310.302 295.12 310.723 295.123C310.922 295.125 311.127 295.119 311.341 295.112L311.359 295.111C311.576 295.105 311.803 295.098 312.024 295.101C312.447 295.108 312.94 295.152 313.365 295.383C313.848 295.645 314.154 296.095 314.256 296.703L307.202 275.668ZM307.202 275.668C307.365 275.733 307.542 275.804 307.732 275.88C308.983 276.382 310.794 277.125 313.166 278.107L317.752 286.067L316.638 293.092L316.614 293.245L316.686 293.397C317.162 294.394 317.44 294.987 317.529 295.192C317.688 295.56 317.872 295.896 318.146 296.105C318.477 296.358 318.807 296.338 319.036 296.293C319.169 296.267 319.291 296.232 319.416 296.197C319.733 296.106 320.065 296.011 320.622 296.045C321.223 296.081 321.394 296.255 321.466 296.363C321.582 296.537 321.635 296.816 321.661 297.295C321.665 297.364 321.668 297.438 321.672 297.514C321.689 297.902 321.71 298.374 321.826 298.812C321.975 299.375 322.291 299.942 322.952 300.353L322.953 300.353C323.063 300.422 323.202 300.462 323.271 300.482C323.367 300.51 323.483 300.539 323.602 300.569C323.655 300.582 323.71 300.595 323.766 300.609C323.97 300.659 324.19 300.712 324.405 300.772C324.65 300.84 324.857 300.908 325.002 300.973C324.823 302.266 324.988 303.265 325.391 304.094C325.748 304.828 326.27 305.382 326.79 305.853C326.308 306.099 325.964 306.177 325.72 306.166C325.491 306.156 325.324 306.069 325.16 305.888C325.08 305.8 325.002 305.686 324.905 305.532C324.885 305.501 324.864 305.466 324.841 305.43C324.765 305.307 324.675 305.163 324.581 305.03C324.323 304.666 323.945 304.266 323.326 304.13L322.893 304.035L322.797 304.44C322.643 305.085 322.599 305.523 322.566 305.853C322.553 305.977 322.542 306.086 322.528 306.184C322.474 306.543 322.363 306.939 321.883 307.852L321.883 307.853C321.705 308.191 321.789 308.575 321.904 308.865C322.021 309.161 322.21 309.459 322.389 309.715C322.522 309.905 322.667 310.095 322.791 310.258C322.835 310.315 322.876 310.369 322.913 310.418C322.988 310.518 323.046 310.599 323.089 310.664C323.124 310.718 323.135 310.741 323.136 310.741C323.466 311.715 323.989 312.296 324.573 312.752C324.803 312.931 325.047 313.095 325.275 313.247C325.322 313.279 325.368 313.31 325.414 313.341C325.678 313.519 325.928 313.695 326.169 313.903C326.171 313.907 326.174 313.912 326.177 313.919C326.196 313.962 326.221 314.034 326.245 314.14C326.295 314.354 326.332 314.648 326.354 315.015C326.399 315.745 326.382 316.69 326.326 317.693C326.275 318.598 326.194 319.536 326.101 320.387C325.818 319.272 325.472 318.025 325.058 316.864C324.658 315.742 324.181 314.659 323.615 313.839C323.111 313.108 322.458 312.478 321.653 312.338C321.631 311.975 321.457 311.671 321.221 311.429C320.977 311.179 320.654 310.986 320.411 310.84C320.399 310.833 320.387 310.826 320.376 310.819C320.091 310.648 319.902 310.529 319.782 310.404C319.7 310.318 319.671 310.255 319.69 310.134L319.194 309.99L319.69 310.134C319.738 309.828 319.784 309.535 319.829 309.256C319.937 308.58 320.034 307.978 320.103 307.443C320.201 306.686 320.25 306.023 320.199 305.423C320.147 304.814 319.989 304.259 319.67 303.725C319.355 303.196 318.901 302.721 318.305 302.243L307.202 275.668ZM316.111 299.409C316.509 299.51 316.829 299.699 317.078 299.971C317.347 300.265 317.492 300.611 317.595 300.894C317.631 300.992 317.663 301.084 317.694 301.172C317.861 301.65 317.976 301.979 318.305 302.243L316.111 299.409ZM316.111 299.409C316.105 299.399 316.098 299.388 316.091 299.376C316.056 299.315 316.019 299.248 315.975 299.168C315.968 299.155 315.961 299.142 315.953 299.128C315.902 299.034 315.843 298.929 315.781 298.825C315.667 298.635 315.5 298.378 315.281 298.201C315.163 298.105 315 298.008 314.802 297.982C314.603 297.955 314.43 298.008 314.292 298.101C314.287 297.963 314.29 297.803 314.293 297.621C314.293 297.599 314.293 297.577 314.294 297.555C314.298 297.291 314.302 296.972 314.257 296.703L316.111 299.409Z"
          fill="black" stroke="black"/>
    <path d="M138.463 414.09L142.756 403.201L140.019 379.049C139.46 377.062 137.529 373.586 134.229 368.621L147.618 354.237C142.782 344.944 139.177 338.617 136.803 335.257C135.38 333.243 134.689 330.793 134.867 328.394L135.048 325.957C135.31 322.434 137.404 319.495 140.497 318.312L163.964 309.335C165.836 308.619 167.379 307.242 168.347 305.424L176.979 289.224C178.39 286.575 180.989 284.916 183.945 284.775C212.82 282.82 237.93 280.548 259.273 277.96C280.617 275.371 297.013 272.46 308.464 269.226C307.274 266.608 303.336 265.457 296.652 265.775C296.2 265.797 295.753 265.713 295.307 265.734L177.095 271.354C174.138 271.494 171.539 273.154 170.128 275.803L161.497 292.003C160.528 293.821 158.985 295.198 157.113 295.914L133.647 304.891C130.554 306.074 128.46 309.012 128.198 312.535L128.017 314.973C127.838 317.372 128.529 319.822 129.952 321.836C133.514 326.876 135.321 332.274 135.372 338.029C135.409 342.263 132.745 347.986 127.379 355.199C125.658 357.512 125.139 360.632 125.979 363.613L131.797 384.27C132.099 385.341 132.229 386.444 132.182 387.533L131.48 403.737C131.278 408.405 134.289 412.698 138.463 414.09Z"
          fill="#B5C1C9"/>
    <path d="M168.73 328.273L197.1 290.007L186.254 290.437C183.314 290.553 180.658 292.155 179.134 294.73L169.815 310.481C168.769 312.248 167.174 313.581 165.284 314.267L141.581 322.864C138.458 323.997 136.243 326.85 135.819 330.286L135.526 332.664C135.333 334.224 135.731 337.883 136.719 343.642L141.749 355.218L137.553 374.29L130.289 379.304C133.796 390.014 135.633 395.718 135.799 396.416C136.048 397.463 136.375 402.448 136.277 403.51L134.826 419.32C134.408 423.874 137.195 428.085 141.272 429.473L142.449 416.657C142.546 415.595 141.36 409.856 141.11 408.809L144.184 391.357L139.189 385.067L147.92 368.365L146.703 350.295L145.121 341.693L149.163 334.443L168.73 328.273Z"
          fill="white"/>
    <path d="M182.021 408.082L182.021 408.082C182.328 408.11 182.717 407.94 183.111 407.446C183.499 406.959 183.823 406.227 183.953 405.361L197.279 316.466C197.407 315.609 197.311 314.83 197.072 314.266C196.826 313.688 196.474 313.423 196.152 313.389L196.264 312.912L196.152 313.389L196.144 313.388L196.144 313.388C195.838 313.36 195.448 313.53 195.055 314.024C194.666 314.511 194.342 315.244 194.212 316.109L180.887 405.004C180.758 405.861 180.854 406.64 181.093 407.204C181.339 407.782 181.692 408.048 182.014 408.081L182.021 408.082Z"
          fill="black" stroke="black"/>
    <path d="M222.601 405.244L222.601 405.244L222.594 405.243L222.594 405.243M222.601 405.244L236.832 310.072C235.707 309.967 234.573 311.391 234.293 313.259L220.967 402.155C220.689 404.009 221.367 405.605 222.481 405.721L222.594 405.243M222.601 405.244C222.908 405.273 223.297 405.102 223.691 404.608C224.079 404.121 224.403 403.389 224.533 402.523L237.859 313.628C237.987 312.772 237.891 311.992 237.652 311.429C237.406 310.85 237.054 310.585 236.731 310.551L236.844 310.074L236.731 310.551L236.724 310.551L236.724 310.551C236.418 310.522 236.028 310.692 235.635 311.186C235.246 311.673 234.922 312.406 234.792 313.271L221.466 402.167C221.338 403.023 221.434 403.802 221.673 404.366C221.919 404.944 222.272 405.21 222.594 405.243M222.601 405.244L222.594 405.243"
          fill="black" stroke="black"/>
    <path d="M202.311 406.663L202.311 406.663C202.618 406.692 203.007 406.522 203.401 406.028C203.789 405.541 204.113 404.808 204.243 403.943L217.569 315.047C217.697 314.191 217.601 313.411 217.362 312.848C217.116 312.27 216.763 312.004 216.441 311.971L216.554 311.493L216.441 311.971L216.434 311.97L216.434 311.97C216.127 311.941 215.738 312.111 215.344 312.605C214.956 313.093 214.632 313.825 214.502 314.691L201.176 403.586C201.048 404.442 201.144 405.222 201.383 405.785C201.629 406.364 201.982 406.629 202.304 406.663L202.311 406.663Z"
          fill="black" stroke="black"/>
    <path d="M245.562 404.014L245.562 404.014C244.38 403.928 243.424 402.637 243.669 400.928L250.28 354.973C250.527 353.249 251.826 352.134 253.003 352.21L253.003 352.21L253.017 352.211L245.562 404.014ZM245.562 404.014L245.576 404.015L245.576 404.015M245.562 404.014L245.576 404.015M245.576 404.015C246.753 404.091 248.052 402.976 248.299 401.252M245.576 404.015L248.299 401.252M248.299 401.252L254.91 355.297M248.299 401.252L254.91 355.297M254.91 355.297C255.155 353.588 254.199 352.297 253.017 352.211L254.91 355.297Z"
          fill="black" stroke="black"/>
    <path d="M157.626 221.819L157.637 221.708L157.599 221.604L152.282 206.772C152.703 202.419 153.811 200.371 155.675 199.011C156.639 198.307 157.834 197.768 159.317 197.212C160.009 196.953 160.754 196.693 161.563 196.412L161.734 196.352C162.607 196.048 163.549 195.718 164.56 195.341L186.472 187.15L186.644 187.085L186.734 186.925L194.746 172.543C198.426 165.939 205.05 161.815 212.509 161.477L346.395 161.063L346.406 161.063L346.416 161.062C347.543 161.012 348.677 161.049 349.809 161.172C362.55 162.564 372.435 174.465 371.843 187.772L371.843 187.781L371.843 187.79L370.879 322.82C370.345 334.741 361.519 343.906 350.163 344.415L350.024 344.421L349.909 344.498L209.318 438.012C199.666 437.141 192.442 435.035 187.589 431.74C182.746 428.451 180.243 423.966 180.048 418.245C181.059 409.847 181.195 402.952 180.441 397.574C179.688 392.197 178.035 388.267 175.404 385.894C174.401 384.99 173.38 383.457 172.364 381.414C171.352 379.381 170.366 376.884 169.418 374.087C167.521 368.493 165.791 361.741 164.323 355.199C161.387 342.115 159.513 329.916 159.471 329.602C159.26 327.997 159.198 326.356 159.301 324.696L160.232 309.627L160.239 309.519L160.2 309.417C157.257 301.747 156.758 296.056 158.494 292.232C158.887 291.366 158.979 290.183 158.904 288.834C158.829 287.47 158.579 285.867 158.232 284.119C157.828 282.083 157.284 279.806 156.719 277.446C156.319 275.772 155.909 274.056 155.532 272.355C154.616 268.223 153.884 264.137 153.889 260.727C153.894 257.292 154.647 254.708 156.514 253.373L156.732 253.217L156.722 252.949C156.708 252.537 156.715 251.932 156.723 251.194C156.725 251.016 156.727 250.83 156.729 250.637C156.738 249.656 156.742 248.516 156.702 247.375C156.663 246.235 156.58 245.081 156.411 244.073C156.246 243.081 155.988 242.163 155.559 241.546C153.908 239.169 154.196 235.893 155.068 232.285C155.367 231.047 155.726 229.802 156.083 228.562C156.243 228.007 156.403 227.452 156.556 226.901C157.049 225.133 157.479 223.398 157.626 221.819Z"
          fill="black" stroke="black"/>
    <path d="M207.736 220.003C209.61 219.286 211.155 217.909 212.125 216.092L220.769 199.891C222.183 197.243 224.784 195.583 227.743 195.442C273.57 193.259 307.941 191.622 330.855 190.531C335.577 190.306 341.942 192.698 349.951 197.707C350.398 197.685 360.227 215.299 360.086 220.607L359.097 322.405C358.971 327.169 349.99 319.821 345.482 320.036C329.055 328.35 315.809 332.747 305.745 333.226C293.771 333.797 291.939 329.841 274.277 330.682C267.902 330.986 248.169 335.969 241.053 336.308C231.265 336.774 215.006 337.548 192.277 338.631C191.776 338.655 191.271 338.635 190.767 338.571C185.714 337.931 181.806 333.118 182.037 327.821L182.747 311.618C182.794 310.529 182.665 309.426 182.363 308.355L176.55 287.701C175.711 284.72 176.232 281.6 177.954 279.288C183.328 272.074 185.997 266.351 185.961 262.118C185.912 256.362 184.107 250.965 180.545 245.926C179.122 243.913 178.431 241.463 178.611 239.064L178.793 236.627C179.057 233.104 181.154 230.166 184.249 228.982L207.736 220.003Z"
          fill="#B5C1C9"/>
    <path d="M267.808 198.579C268.332 198.066 268.865 197.546 269.411 197.011C270.24 196.2 271.102 195.357 272.018 194.461L272.958 193.542L271.597 193.605C271.086 193.629 270.574 193.652 270.065 193.674C266.566 193.829 263.15 193.981 260.228 194.472C256.892 195.032 254.068 196.054 252.49 198.152L267.808 198.579ZM267.808 198.579C268.689 197.979 269.63 197.406 270.558 196.841C270.943 196.607 271.326 196.374 271.701 196.141C273.145 195.244 274.496 194.338 275.561 193.306L275.666 193.205L275.813 193.181L276.881 193.006L277.033 192.981L277.179 193.046C277.677 193.27 277.977 193.322 278.135 193.308C278.203 193.301 278.23 193.284 278.24 193.275C278.252 193.266 278.275 193.243 278.295 193.18L278.393 192.878L278.719 192.863C280.519 192.774 282.326 192.61 284.15 192.435C284.403 192.411 284.656 192.386 284.91 192.362C286.483 192.209 288.069 192.056 289.663 191.945C293.366 191.686 297.144 191.652 300.999 192.393L300.933 192.878M267.808 198.579L300.933 192.878M300.933 192.878L300.999 192.393C301.461 192.481 301.848 192.597 302.158 192.74C302.461 192.88 302.73 193.065 302.904 193.315C303.092 193.587 303.137 193.893 303.049 194.178C302.968 194.441 302.785 194.656 302.579 194.826L302.579 194.826M300.933 192.878L302.579 194.826M298.587 196.244C298.506 196.256 298.429 196.267 298.356 196.277C298.102 196.312 297.894 196.341 297.731 196.391C297.712 196.397 297.696 196.402 297.683 196.407M298.587 196.244L252.49 198.152C251.705 199.196 251.004 200.265 250.367 201.354L248.335 183.582L325.888 179.792M298.587 196.244C300.153 196.014 301.626 195.61 302.579 194.826M298.587 196.244L302.579 194.826M297.683 196.407C297.762 197.017 297.642 197.686 297.407 198.332C297.153 199.03 296.75 199.738 296.252 200.376C295.272 201.629 293.834 202.713 292.289 202.777L292.289 202.777C292.046 202.787 291.804 202.794 291.566 202.801C290.802 202.824 290.074 202.846 289.44 202.954C289.119 203.008 288.852 203.08 288.635 203.172M297.683 196.407C297.632 196.426 297.615 196.439 297.615 196.439C297.615 196.439 297.615 196.438 297.617 196.437C297.649 196.405 297.674 196.339 297.664 196.283C297.671 196.324 297.678 196.366 297.683 196.407ZM288.635 203.172C289.938 203.279 291.217 203.383 292.516 203.489C293.498 203.569 294.492 203.65 295.516 203.734L295.962 203.77M288.635 203.172C288.361 203.288 288.166 203.435 288.043 203.618C289.546 203.74 291.009 203.86 292.497 203.981C293.275 204.045 294.06 204.109 294.862 204.174C294.949 204.085 295.031 203.993 295.108 203.9L295.506 204.227L295.497 204.659C295.555 204.559 295.611 204.459 295.665 204.358C295.771 204.162 295.87 203.966 295.962 203.77M288.635 203.172C288.359 203.15 288.082 203.127 287.804 203.105C288.528 202.396 290.048 202.35 291.545 202.306C291.777 202.299 292.008 202.292 292.237 202.282C294.912 202.172 297.543 198.445 297.169 196.338C297.099 195.946 297.69 195.865 298.281 195.783L325.832 179.298L325.888 179.792M295.962 203.77C296.562 202.505 296.895 201.265 296.953 200.497L297.455 200.565M295.962 203.77L296.507 203.815C297.073 202.572 297.395 201.36 297.455 200.565M297.455 200.565L296.953 200.497C297.06 199.086 297.725 198.009 298.952 197.268C300.15 196.544 301.865 196.152 304.074 196.019L304.074 196.019C304.901 195.969 305.479 195.815 305.842 195.587C306.177 195.376 306.34 195.098 306.349 194.704M297.455 200.565C297.645 198.049 299.782 196.775 304.136 196.513C305.861 196.409 306.826 195.861 306.852 194.747M306.349 194.704C306.369 193.87 307.02 193.388 307.722 193.125C308.44 192.856 309.371 192.746 310.303 192.732C312.713 192.695 316.663 192.456 321.169 192.183C323.123 192.065 325.181 191.941 327.264 191.824M306.349 194.704L306.852 194.747M306.349 194.704C306.349 194.704 306.349 194.704 306.349 194.704L306.852 194.747M327.264 191.824L325.888 179.792M327.264 191.824L327.32 192.314L327.82 192.29M327.264 191.824C327.43 191.814 327.595 191.805 327.76 191.796L327.82 192.29M325.888 179.792L326.388 179.768L327.82 192.29M327.82 192.29C325.579 192.414 323.355 192.549 321.249 192.676C316.734 192.949 312.764 193.189 310.342 193.226C308.528 193.253 306.877 193.66 306.852 194.747M294.993 205.454C295.143 205.24 295.285 205.018 295.42 204.791C295.435 204.766 295.449 204.742 295.464 204.717C295.335 204.707 295.206 204.696 295.078 204.686C294.715 205.037 294.306 205.359 293.9 205.677C293.017 206.372 292.155 207.05 291.84 207.977C292.077 207.91 292.308 207.821 292.532 207.712M294.993 205.454C295.316 205.179 295.631 204.883 295.904 204.553L296.497 203.837C295.63 205.736 294.196 207.703 292.259 208.373C292.309 208.141 292.402 207.923 292.532 207.712M294.993 205.454C294.312 206.431 293.484 207.25 292.532 207.712M294.993 205.454C294.91 205.525 294.826 205.594 294.743 205.662C294.56 205.811 294.386 205.948 294.216 206.081C293.989 206.26 293.769 206.432 293.548 206.62C293.113 206.987 292.764 207.338 292.532 207.712"
          fill="black" stroke="black"/>
    <path d="M299.435 309.869C299.789 309.943 300.149 310.014 300.502 310.083L300.559 310.094C301.762 310.331 302.892 310.557 303.68 310.859L303.68 310.859C304.452 311.155 307.067 312.501 309.708 313.946C311.019 314.664 312.32 315.397 313.38 316.023C314.458 316.659 315.24 317.159 315.549 317.416L316.203 316.758C315.925 316.449 315.502 315.764 314.933 314.632C314.373 313.52 313.697 312.029 312.903 310.155L312.847 310.021L312.731 309.926L304.746 303.39L304.723 303.37L304.698 303.354C302.388 301.818 300.611 300.63 299.359 299.784C300.896 300.212 303.126 300.845 306.051 301.683L314.294 308.831L316.069 315.16L316.111 315.309L316.227 315.421C317.14 316.304 317.682 316.834 317.864 317.019L299.435 309.869ZM299.435 309.869C299.567 309.968 299.704 310.071 299.846 310.177C300.923 310.981 302.264 311.951 303.615 312.9C304.966 313.85 306.324 314.775 307.435 315.489C307.992 315.846 308.482 316.147 308.876 316.372C309.287 316.605 309.547 316.727 309.665 316.762L309.665 316.762C310.021 316.867 310.413 316.894 310.85 316.887C311.06 316.884 311.272 316.874 311.493 316.863L311.512 316.862C311.736 316.851 311.969 316.839 312.199 316.838C312.653 316.834 313.147 316.866 313.618 317.038C314.111 317.218 314.554 317.542 314.904 318.068C314.904 318.068 314.904 318.068 314.904 318.068L314.492 318.297M299.435 309.869L315.681 319.584M314.492 318.297C314.631 318.506 314.751 318.777 314.871 319.045C315.19 319.762 315.501 320.46 316.13 319.909M314.492 318.297C313.794 317.249 312.718 317.302 311.584 317.358C310.915 317.392 310.227 317.426 309.583 317.236L314.492 318.297ZM316.13 319.909L315.765 319.519M316.13 319.909L315.765 319.519C315.765 319.519 315.765 319.519 315.765 319.519M316.13 319.909C316.393 319.679 316.988 320.21 317.457 320.628C317.718 320.861 317.94 321.059 318.044 321.072C319.035 321.191 319.492 321.714 319.99 322.285C320.362 322.712 320.758 323.165 321.417 323.498M315.765 319.519C315.731 319.549 315.703 319.57 315.681 319.584M315.765 319.519L318.129 320.592M315.681 319.584C315.709 319.621 315.724 319.633 315.723 319.633C315.723 319.634 315.714 319.628 315.696 319.621C315.664 319.609 315.642 319.609 315.631 319.61M315.681 319.584C315.656 319.6 315.64 319.607 315.631 319.61M315.631 319.61C315.626 319.612 315.624 319.612 315.624 319.612C315.624 319.612 315.627 319.611 315.631 319.61ZM321.417 323.498L321.597 323.063M321.417 323.498L321.597 323.063C321.597 323.063 321.597 323.063 321.597 323.063M321.417 323.498C324.288 324.947 324.611 326.107 325.5 329.294C325.57 329.548 325.645 329.814 325.724 330.095C325.88 330.645 326.577 330.922 327.272 331.199C327.959 331.472 328.644 331.745 328.801 332.28L321.597 323.063M321.597 323.063C321.052 322.787 320.738 322.429 320.367 322.006C320.301 321.931 320.232 321.853 320.161 321.773C319.933 321.519 319.665 321.246 319.317 321.024C318.983 320.811 318.597 320.66 318.129 320.592M318.129 320.592C318.137 320.597 318.144 320.602 318.15 320.607C318.168 320.619 318.171 320.62 318.162 320.615L318.161 320.615C318.156 320.612 318.11 320.588 318.038 320.579M318.129 320.592C318.099 320.587 318.069 320.583 318.038 320.579M318.038 320.579C318.038 320.579 318.037 320.579 318.036 320.579L318.036 320.579C318.037 320.579 318.037 320.579 318.038 320.579ZM330.237 326.152C330.561 326.36 330.851 326.458 331.14 326.462C331.354 326.465 331.595 326.417 331.872 326.29C331.159 325.892 330.435 325.436 329.799 324.827C329.057 324.117 328.453 323.216 328.092 321.992C328.062 321.98 328.025 321.966 327.979 321.95C327.768 321.878 327.475 321.81 327.149 321.746C326.895 321.697 326.638 321.653 326.404 321.613C326.34 321.602 326.278 321.592 326.219 321.581C326.081 321.558 325.952 321.535 325.846 321.513C325.756 321.494 325.631 321.467 325.533 321.427L325.533 321.427C324.126 320.85 323.596 319.827 323.197 319.055C323.159 318.981 323.122 318.909 323.085 318.84C322.868 318.432 322.686 318.149 322.434 317.949C322.199 317.764 321.838 317.602 321.181 317.583C320.576 317.565 320.267 317.658 319.974 317.747C319.858 317.782 319.746 317.816 319.618 317.842C319.37 317.894 319.092 317.896 318.763 317.736C318.475 317.596 318.189 317.351 317.864 317.019L330.237 326.152ZM328.047 321.835C328.047 321.836 328.048 321.837 328.048 321.838C328.048 321.837 328.047 321.836 328.047 321.835L328.047 321.835ZM328.169 322.03C328.174 322.034 328.177 322.035 328.178 322.035C328.178 322.035 328.175 322.033 328.169 322.03Z"
          fill="black" stroke="black"/>
    <path d="M348.165 183.795C348.271 183.923 348.387 184.06 348.51 184.207C349.326 185.174 350.486 186.531 351.993 188.278L352.023 188.312L352.047 188.35L356.714 195.748L356.808 195.896L356.802 196.058C356.722 198.145 356.702 199.807 356.739 201.048C356.758 201.668 356.791 202.177 356.837 202.578C356.884 202.988 356.941 203.252 356.995 203.401L356.109 203.731C356.038 203.615 355.882 203.417 355.63 203.14C355.386 202.87 355.073 202.549 354.712 202.193C353.99 201.482 353.086 200.646 352.164 199.826C351.243 199.006 350.309 198.206 349.528 197.567C348.732 196.915 348.135 196.464 347.868 196.311L347.867 196.311C347.289 195.978 346.352 195.71 345.304 195.416L345.233 195.396C344.789 195.272 344.325 195.142 343.884 194.998C344.033 195.211 344.201 195.446 344.385 195.699C345.047 196.607 345.885 197.706 346.742 198.782C347.6 199.859 348.472 200.907 349.203 201.715C349.57 202.119 349.894 202.457 350.16 202.706C350.448 202.975 350.607 203.082 350.655 203.103L350.655 203.103C350.905 203.21 351.236 203.25 351.657 203.254C351.857 203.256 352.062 203.249 352.276 203.243L352.294 203.242C352.511 203.235 352.738 203.228 352.959 203.232C353.382 203.239 353.876 203.283 354.3 203.514C354.782 203.776 355.087 204.225 355.189 204.833L348.165 183.795ZM348.165 183.795C348.328 183.86 348.505 183.931 348.694 184.007C349.945 184.509 351.756 185.251 354.126 186.234L358.702 194.196L357.577 201.222L357.552 201.376L357.625 201.527C358.099 202.525 358.376 203.118 358.465 203.323C358.465 203.323 358.465 203.323 358.465 203.323L358.921 203.18C359.31 204.082 359.557 204.012 360.103 203.856L348.165 183.795ZM367.712 213.985C367.193 213.514 366.671 212.961 366.315 212.226C365.914 211.397 365.75 210.398 365.931 209.104L367.712 213.985ZM367.712 213.985C367.23 214.232 366.885 214.309 366.642 214.299C366.412 214.289 366.246 214.201 366.081 214.02C366.001 213.931 365.923 213.817 365.827 213.664C365.807 213.632 365.786 213.598 365.764 213.562C365.687 213.439 365.598 213.295 365.504 213.162C365.246 212.798 364.869 212.398 364.25 212.262L363.817 212.167L363.72 212.573C363.565 213.218 363.52 213.656 363.487 213.986C363.474 214.11 363.463 214.218 363.448 214.317C363.395 214.676 363.283 215.072 362.801 215.986L362.801 215.986C362.622 216.324 362.706 216.709 362.82 216.998C362.937 217.295 363.125 217.592 363.304 217.848C363.437 218.038 363.581 218.229 363.705 218.392C363.749 218.449 363.79 218.503 363.827 218.552C363.902 218.652 363.96 218.732 364.003 218.797C364.038 218.851 364.049 218.874 364.05 218.875C364.378 219.849 364.901 220.429 365.484 220.885C365.713 221.065 365.957 221.228 366.185 221.381C366.232 221.413 366.278 221.444 366.324 221.474C366.588 221.653 366.838 221.829 367.079 222.037C367.081 222.041 367.084 222.046 367.086 222.053C367.106 222.096 367.13 222.168 367.155 222.275C367.204 222.488 367.24 222.783 367.262 223.15C367.306 223.88 367.287 224.825 367.23 225.828C367.178 226.733 367.095 227.671 367.001 228.522C366.72 227.407 366.375 226.159 365.963 224.998C365.564 223.876 365.089 222.793 364.524 221.973C364.021 221.242 363.369 220.611 362.564 220.472C362.543 220.109 362.369 219.804 362.134 219.563C361.89 219.313 361.567 219.119 361.324 218.974C361.312 218.967 361.3 218.96 361.289 218.953C361.004 218.782 360.816 218.663 360.696 218.537C360.614 218.451 360.584 218.388 360.604 218.266L360.108 218.124L360.604 218.266C360.652 217.961 360.699 217.668 360.744 217.388C360.854 216.712 360.951 216.11 361.021 215.575C361.12 214.818 361.171 214.155 361.12 213.555C361.069 212.945 360.912 212.391 360.594 211.857C360.279 211.328 359.826 210.853 359.231 210.375L367.712 213.985ZM357.04 207.54C357.439 207.641 357.758 207.83 358.007 208.102C358.276 208.396 358.419 208.742 358.522 209.025C358.558 209.123 358.59 209.215 358.62 209.303C358.787 209.781 358.901 210.11 359.231 210.375L357.04 207.54ZM357.04 207.54C357.034 207.53 357.028 207.519 357.021 207.507C356.985 207.446 356.948 207.378 356.904 207.298C356.897 207.285 356.89 207.272 356.883 207.259C356.831 207.165 356.773 207.06 356.711 206.956C356.597 206.766 356.43 206.509 356.212 206.332C356.094 206.236 355.932 206.139 355.734 206.113C355.534 206.086 355.361 206.139 355.222 206.232C355.218 206.094 355.221 205.933 355.224 205.752C355.224 205.73 355.225 205.708 355.225 205.686C355.23 205.422 355.234 205.103 355.189 204.833L357.04 207.54ZM367.072 222.024C367.072 222.024 367.072 222.024 367.072 222.025L367.072 222.024Z"
          fill="black" stroke="black"/>
    <path d="M179.346 321.686L183.644 310.791L180.908 286.632C180.348 284.644 178.416 281.167 175.113 276.2L188.517 261.809C183.677 252.513 180.069 246.185 177.693 242.824C176.269 240.81 175.577 238.359 175.756 235.959L175.938 233.521C176.2 229.997 178.297 227.057 181.393 225.873L204.883 216.888C206.757 216.172 208.302 214.794 209.272 212.975L217.913 196.768C219.326 194.118 221.928 192.457 224.887 192.316C253.791 190.355 278.925 188.078 300.289 185.485C321.654 182.891 338.067 179.976 349.529 176.74C348.338 174.12 344.397 172.97 337.706 173.289C337.253 173.311 336.806 173.227 336.36 173.248L218.032 178.891C215.072 179.032 212.471 180.693 211.058 183.343L202.416 199.55C201.447 201.369 199.902 202.747 198.028 203.463L174.537 212.448C171.442 213.632 169.345 216.572 169.082 220.096L168.901 222.534C168.722 224.934 169.413 227.385 170.838 229.399C174.402 234.441 176.21 239.84 176.26 245.598C176.297 249.833 173.63 255.559 168.257 262.775C166.535 265.089 166.015 268.21 166.855 271.192L172.677 291.856C172.979 292.927 173.109 294.031 173.061 295.12L172.357 311.33C172.154 316 175.168 320.294 179.346 321.686Z"
          fill="#B5C1C9"/>
    <path d="M209.612 236.453L237.955 198.229L227.091 198.664C224.147 198.782 221.49 200.382 219.968 202.954L210.664 218.687C209.62 220.452 208.025 221.784 206.132 222.47L182.408 231.067C179.281 232.2 177.068 235.051 176.65 238.482L176.361 240.856C176.171 242.414 176.576 246.068 177.577 251.817L182.637 263.373L178.471 282.418L171.204 287.429C174.738 298.121 176.588 303.815 176.756 304.512C177.008 305.557 177.344 310.535 177.248 311.596L175.825 327.382C175.415 331.931 178.215 336.134 182.301 337.517L183.455 324.72C183.551 323.659 182.351 317.929 182.1 316.884L185.145 299.456L180.13 293.178L188.844 276.497L187.59 258.455L185.989 249.866L190.024 242.625L209.612 236.453Z"
          fill="white"/>
    <path d="M238.485 221.887L235.426 221.6L221.545 315.865L224.604 316.152L238.485 221.887Z" fill="black"
          stroke="black"/>
    <path d="M279.065 219.049L276.006 218.763L262.124 313.028L265.184 313.314L279.065 219.049Z" fill="black"
          stroke="black"/>
    <path d="M258.775 220.468L255.716 220.182L241.835 314.447L244.894 314.733L258.775 220.468Z" fill="black"
          stroke="black"/>
    <path d="M296.051 260.72L291.54 260.422L284.394 311.796L288.904 312.094L296.051 260.72Z" fill="black"
          stroke="black"/>
    <path d="M195.122 373.077L195.131 372.968L195.093 372.865L189.267 357.076C189.646 352.43 190.787 350.237 192.74 348.781C193.749 348.028 195.002 347.452 196.558 346.858C197.284 346.581 198.067 346.303 198.916 346.002L199.095 345.938C200.011 345.613 200.999 345.261 202.059 344.857L225.042 336.102L225.216 336.035L225.305 335.871L233.543 320.549C235.456 316.99 238.185 313.258 241.42 310.375C244.653 307.493 248.35 305.495 252.211 305.309L373.132 308.164V308.165L373.146 308.165L393.285 308.071L393.295 308.071L393.306 308.07C394.494 308.015 395.691 308.052 396.888 308.182C410.357 309.644 420.97 322.314 420.541 336.502L420.54 336.512L420.54 336.521L421.499 480.271C421.11 492.979 411.927 502.757 399.953 503.318L225.609 511.486C224.763 511.526 223.479 511.478 221.745 511.336C214.101 504.003 208.345 498.357 204.477 494.398C202.531 492.407 201.067 490.847 200.081 489.716C199.588 489.15 199.221 488.698 198.974 488.358C198.851 488.187 198.763 488.052 198.707 487.95C198.655 487.858 198.644 487.818 198.643 487.819C198.643 487.819 198.643 487.821 198.644 487.825C198.397 486.114 198.308 484.364 198.392 482.594L199.154 466.551L199.159 466.444L199.119 466.345C195.903 458.18 195.289 452.111 197.069 448.025C197.468 447.109 197.548 445.856 197.45 444.422C197.35 442.973 197.063 441.269 196.672 439.409C196.217 437.243 195.61 434.822 194.981 432.312C194.534 430.53 194.076 428.703 193.654 426.891C192.627 422.494 191.795 418.142 191.751 414.507C191.706 410.845 192.462 408.081 194.42 406.651L194.637 406.492L194.624 406.223C194.603 405.784 194.601 405.138 194.599 404.353C194.598 404.163 194.598 403.966 194.597 403.761C194.592 402.716 194.58 401.504 194.522 400.289C194.463 399.077 194.359 397.85 194.167 396.78C193.978 395.726 193.695 394.756 193.239 394.107C191.451 391.564 191.712 388.059 192.578 384.218C192.876 382.9 193.236 381.572 193.595 380.251C193.755 379.66 193.915 379.07 194.069 378.483C194.563 376.601 194.99 374.756 195.122 373.077Z"
          fill="black" stroke="black"/>
    <path d="M247.103 370.601C249.081 369.844 250.712 368.39 251.736 366.47L260.862 349.36C262.354 346.563 265.101 344.81 268.225 344.662C316.612 342.364 352.903 340.641 377.097 339.492C382.083 339.256 388.804 341.783 397.261 347.075C397.733 347.053 408.114 365.659 407.965 371.266L406.932 478.791C406.799 483.822 397.315 476.059 392.556 476.285C375.212 485.064 361.226 489.706 350.601 490.211C337.957 490.811 336.022 486.633 317.374 487.518C310.642 487.838 289.808 493.097 282.294 493.454C271.959 493.945 254.792 494.76 230.793 495.9C230.264 495.925 229.731 495.903 229.199 495.836C223.863 495.159 219.736 490.074 219.98 484.479L220.727 467.366C220.778 466.216 220.641 465.05 220.322 463.919L214.182 442.102C213.295 438.953 213.845 435.658 215.664 433.215C221.337 425.597 224.154 419.552 224.116 415.081C224.064 409.002 222.157 403.301 218.395 397.978C216.892 395.851 216.163 393.263 216.352 390.729L216.545 388.155C216.823 384.434 219.037 381.331 222.305 380.081L247.103 370.601Z"
          fill="#B5C1C9"/>
    <path d="M310.241 348.115C310.861 347.51 311.49 346.897 312.138 346.264C313.015 345.409 313.927 344.52 314.897 343.573L315.839 342.654L314.477 342.718C313.937 342.743 313.399 342.766 312.862 342.79C309.176 342.953 305.58 343.112 302.503 343.628C298.99 344.217 296.023 345.289 294.367 347.485L310.241 348.115ZM310.241 348.115C311.242 347.42 312.325 346.763 313.394 346.114C313.799 345.867 314.202 345.622 314.599 345.377C316.119 344.435 317.544 343.482 318.669 342.395L318.773 342.295L318.92 342.271L320.046 342.087L320.198 342.062L320.343 342.127C320.869 342.363 321.19 342.42 321.364 342.404C321.441 342.397 321.474 342.377 321.49 342.365C321.506 342.352 321.532 342.324 321.555 342.253L321.653 341.953L321.979 341.937C323.876 341.844 325.78 341.671 327.702 341.487C327.968 341.462 328.235 341.436 328.502 341.41C330.159 341.25 331.829 341.089 333.508 340.972C337.409 340.7 341.385 340.665 345.443 341.442L345.377 341.927M310.241 348.115L345.377 341.927M345.377 341.927L345.443 341.442C345.928 341.535 346.333 341.655 346.656 341.804C346.974 341.951 347.252 342.142 347.431 342.399C347.625 342.678 347.671 342.992 347.58 343.285C347.497 343.555 347.308 343.778 347.093 343.954L347.093 343.954C346.094 344.774 344.549 345.197 342.9 345.439M345.377 341.927L342.9 345.439M342.9 345.439C342.816 345.451 342.735 345.462 342.659 345.473C342.39 345.51 342.168 345.541 341.994 345.594C341.966 345.603 341.943 345.611 341.924 345.619C342.012 346.259 341.886 346.965 341.637 347.648C341.37 348.378 340.948 349.12 340.424 349.788C339.393 351.103 337.884 352.235 336.269 352.302L336.269 352.302C336.013 352.312 335.759 352.32 335.508 352.327C334.704 352.351 333.934 352.374 333.264 352.488C332.88 352.553 332.567 352.642 332.32 352.76C333.728 352.874 335.108 352.986 336.51 353.101C337.545 353.185 338.591 353.27 339.67 353.358L340.158 353.397C340.795 352.06 341.15 350.749 341.212 349.935L341.713 350.003L341.212 349.935C341.323 348.46 342.02 347.335 343.305 346.561C344.563 345.803 346.364 345.392 348.689 345.252L348.689 345.252C349.563 345.2 350.176 345.037 350.564 344.794C350.924 344.568 351.1 344.269 351.11 343.848C351.13 342.985 351.804 342.485 352.54 342.21C353.292 341.929 354.269 341.813 355.249 341.798C357.789 341.76 361.951 341.508 366.699 341.222C368.765 341.097 370.943 340.966 373.145 340.842L371.69 328.152L289.938 332.139L292.091 350.917C292.773 349.749 293.524 348.603 294.367 347.485L342.9 345.439ZM337.579 356.345C337.092 356.755 336.704 357.148 336.459 357.573C337.557 357.067 338.5 356.114 339.259 354.984C339.12 355.106 338.979 355.224 338.838 355.339C338.646 355.495 338.463 355.639 338.284 355.778C338.044 355.967 337.812 356.148 337.579 356.345Z"
          fill="black" stroke="black"/>
    <path d="M378.143 482.614C378.241 482.567 378.343 482.511 378.449 482.444L378.515 482.402L378.595 482.386C378.621 482.381 378.647 482.375 378.673 482.37C376.919 481.425 375.244 480.357 374.553 477.839C374.467 477.523 373.196 477.306 372.319 477.156C371.939 477.092 371.633 477.039 371.531 476.997L374.23 481.411C374.241 481.472 374.253 481.53 374.264 481.585C374.705 481.77 375.072 482.075 375.432 482.372C375.656 482.558 375.877 482.741 376.111 482.891M378.143 482.614C378.275 482.687 378.407 482.759 378.538 482.829L378.695 482.914C377.734 483.492 376.925 483.414 376.111 482.891M378.143 482.614C377.829 482.766 377.556 482.823 377.314 482.82C377.002 482.815 376.691 482.71 376.345 482.488M378.143 482.614C377.375 482.188 376.594 481.701 375.911 481.048C375.128 480.299 374.49 479.348 374.108 478.054M376.111 482.891L376.345 482.488M376.111 482.891L376.345 482.488C376.345 482.488 376.345 482.488 376.345 482.488M376.345 482.488C376.189 482.387 376.032 482.264 375.856 482.12C375.816 482.087 375.775 482.054 375.733 482.019C375.595 481.904 375.444 481.779 375.291 481.663C374.881 481.351 374.38 481.042 373.74 480.944L373.119 480.849L373.234 481.457C373.353 482.084 373.504 482.517 373.614 482.832C373.654 482.946 373.689 483.044 373.714 483.131C373.807 483.447 373.861 483.798 373.739 484.654L373.739 484.654C373.707 484.877 373.785 485.086 373.871 485.241C373.958 485.397 374.076 485.543 374.196 485.67C374.436 485.926 374.753 486.187 375.057 486.419C375.281 486.591 375.516 486.762 375.724 486.912C375.799 486.967 375.871 487.018 375.937 487.067C376.065 487.16 376.173 487.241 376.257 487.308C376.299 487.341 376.331 487.369 376.355 487.39C376.376 487.409 376.386 487.419 376.387 487.421C376.388 487.421 376.388 487.421 376.388 487.421C377.148 488.299 377.927 488.797 378.716 489.187C379.035 489.345 379.361 489.487 379.68 489.627C379.747 489.656 379.813 489.685 379.879 489.714C380.267 489.884 380.651 490.059 381.045 490.272C381.073 490.287 381.173 490.365 381.339 490.589C381.493 490.797 381.667 491.08 381.853 491.426C382.226 492.117 382.626 493.012 383.008 493.962C383.335 494.775 383.644 495.615 383.908 496.387C383.061 495.275 382.055 493.999 381.007 492.822C380.07 491.77 379.083 490.776 378.129 490.037C377.202 489.32 376.218 488.775 375.303 488.752C375.14 488.329 374.797 488.043 374.473 487.846C374.137 487.641 373.737 487.482 373.393 487.345L373.359 487.332C372.981 487.182 372.669 487.055 372.429 486.906C372.194 486.761 372.117 486.649 372.091 486.558L371.632 486.623L372.091 486.558C372.008 486.269 371.931 485.992 371.856 485.725C371.425 484.185 371.096 483.012 370.558 482.065C369.891 480.892 368.922 480.084 367.226 479.228C366.644 478.934 366.308 478.55 365.915 478.104C365.845 478.024 365.774 477.942 365.698 477.858C365.458 477.591 365.177 477.305 364.814 477.073C364.463 476.85 364.058 476.691 363.564 476.62M374.108 478.054C374.074 478.039 374.03 478.022 373.973 478.002C373.748 477.926 373.437 477.854 373.092 477.786C372.824 477.734 372.553 477.688 372.305 477.645C372.238 477.634 372.173 477.623 372.11 477.612C371.965 477.587 371.829 477.563 371.718 477.54C371.622 477.52 371.494 477.492 371.393 477.451L371.393 477.451C369.919 476.847 369.363 475.776 368.941 474.962C368.9 474.883 368.86 474.807 368.822 474.734C368.592 474.303 368.397 473.999 368.124 473.784C367.869 473.583 367.481 473.411 366.784 473.39C366.141 473.371 365.81 473.471 365.499 473.565C365.378 473.601 365.261 473.637 365.129 473.664C364.871 473.718 364.585 473.719 364.245 473.554C363.946 473.409 363.647 473.154 363.304 472.804C363.112 472.608 362.538 472.049 361.573 471.116L361.457 471.004L361.415 470.856L359.527 464.164M374.108 478.054C374.094 478.004 374.079 477.954 374.065 477.903C374.095 478.013 374.159 478.073 374.182 478.091M374.108 478.054C374.142 478.069 374.165 478.081 374.179 478.089C374.18 478.09 374.181 478.09 374.182 478.091M359.527 464.164L350.803 456.606M359.527 464.164L359.48 463.999L359.968 463.931M359.527 464.164L359.663 464.282L359.968 463.931M350.803 456.606C347.695 455.715 345.329 455.044 343.705 454.591C343.662 454.58 343.62 454.568 343.578 454.556M350.803 456.606L350.701 456.518L351.006 456.167M350.803 456.606C350.844 456.618 350.886 456.63 350.928 456.642L351.006 456.167M343.578 454.556C344.907 455.454 346.83 456.74 349.354 458.417L349.379 458.434L349.403 458.453L357.84 465.354L357.956 465.449L358.013 465.583C358.854 467.562 359.57 469.137 360.163 470.312C360.766 471.507 361.215 472.234 361.513 472.564L360.86 473.221C360.531 472.947 359.702 472.418 358.564 471.747C357.444 471.085 356.07 470.311 354.685 469.554C351.896 468.028 349.132 466.606 348.315 466.292L348.315 466.292C347.48 465.972 346.285 465.734 345.015 465.483L344.958 465.472C344.546 465.391 344.127 465.309 343.717 465.221M343.578 454.556C343.025 454.402 342.562 454.275 342.191 454.175L363.645 472.488C363.445 472.284 362.864 471.718 361.902 470.788L359.968 463.931M343.578 454.556C343.091 454.227 342.683 453.95 342.355 453.724C343.87 454.134 346.754 454.948 351.006 456.167M343.717 465.221C343.885 465.348 344.062 465.481 344.247 465.619C345.385 466.468 346.802 467.493 348.229 468.495C349.657 469.498 351.092 470.474 352.267 471.229C352.855 471.606 353.373 471.925 353.79 472.162C354.224 472.409 354.501 472.539 354.63 472.577L354.63 472.577C355.01 472.689 355.427 472.717 355.888 472.71C356.111 472.707 356.336 472.696 356.568 472.685L356.589 472.684C356.825 472.672 357.07 472.66 357.312 472.658C357.79 472.654 358.306 472.688 358.799 472.868C359.313 473.056 359.776 473.394 360.142 473.943M343.717 465.221C343.369 464.958 343.06 464.721 342.799 464.516M343.717 465.221C343.339 465.141 342.969 465.056 342.618 464.964C345.505 467.217 353.156 472.641 354.549 473.051L342.799 464.516M360.142 473.943C360.309 474.193 360.446 474.495 360.559 474.747C360.569 474.769 360.579 474.79 360.588 474.811C360.698 475.057 360.789 475.261 360.886 475.423C360.928 475.495 360.961 475.54 360.983 475.567M360.142 473.943C360.142 473.943 360.142 473.943 360.142 473.943L359.73 474.171L360.142 473.943ZM360.983 475.567C361.009 475.552 361.046 475.526 361.096 475.483C361.427 475.192 361.867 475.349 362.098 475.466C362.351 475.595 362.607 475.797 362.818 475.976C362.928 476.069 363.035 476.164 363.133 476.251C363.147 476.264 363.161 476.276 363.175 476.288C363.258 476.362 363.333 476.429 363.401 476.488C363.472 476.549 363.526 476.592 363.564 476.62M360.983 475.567C361.006 475.594 361.017 475.603 361.017 475.604C361.017 475.604 361.01 475.6 360.997 475.595C360.971 475.586 360.953 475.585 360.943 475.585M360.983 475.567C360.964 475.578 360.951 475.583 360.943 475.585M363.564 476.62C363.57 476.624 363.575 476.628 363.58 476.632C363.594 476.641 363.6 476.645 363.6 476.645C363.6 476.645 363.599 476.644 363.596 476.643C363.594 476.642 363.548 476.618 363.476 476.609M363.564 476.62C363.535 476.616 363.506 476.612 363.476 476.609M363.476 476.609C363.476 476.609 363.475 476.608 363.474 476.608L363.475 476.608C363.475 476.608 363.476 476.609 363.476 476.609ZM360.943 475.585C360.938 475.585 360.936 475.586 360.936 475.587C360.936 475.587 360.938 475.587 360.943 475.585ZM342.799 464.516C342.378 464.41 341.988 464.295 341.65 464.166L342.799 464.516ZM351.006 456.167L359.968 463.931M374.182 478.091C374.187 478.095 374.19 478.097 374.19 478.097C374.191 478.097 374.188 478.095 374.182 478.091Z"
          fill="black" stroke="black"/>
    <path d="M406.911 343.117L405.707 350.722C406.207 351.77 406.506 352.408 406.605 352.637M406.911 343.117L406.485 343.319L406.388 343.15M406.911 343.117L406.416 342.973L406.388 343.15M406.911 343.117L401.859 334.344M406.388 343.15L405.211 350.578L405.187 350.731L405.26 350.883C405.762 351.936 406.055 352.562 406.149 352.779L406.605 352.637M406.388 343.15L401.536 334.724M406.605 352.637L406.149 352.779M406.605 352.637C407.017 353.59 407.277 353.515 407.853 353.351C408.201 353.251 408.665 353.119 409.347 353.16C410.931 353.257 410.976 354.229 411.026 355.308C411.068 356.216 411.113 357.198 412.08 357.799C412.158 357.848 412.425 357.913 412.757 357.993C413.521 358.179 414.629 358.449 414.571 358.8C414.109 361.597 415.228 362.815 416.475 363.9C416.373 363.918 416.272 363.937 416.17 363.957L416.102 363.97L416.044 364.002C416.011 364.02 415.978 364.037 415.946 364.054M406.149 352.779L416.303 364.367L416.245 364.317L416.211 364.287C416.123 364.211 416.035 364.134 415.946 364.054M406.149 352.779C406.317 353.168 406.508 353.515 406.79 353.73C407.129 353.989 407.467 353.97 407.706 353.923C407.843 353.896 407.971 353.859 408.102 353.822C408.437 353.726 408.794 353.624 409.386 353.66C410.025 353.699 410.217 353.885 410.301 354.011C410.43 354.202 410.485 354.506 410.513 355.011C410.517 355.084 410.52 355.162 410.524 355.243C410.543 355.653 410.565 356.147 410.686 356.607C410.842 357.195 411.171 357.786 411.86 358.214L411.86 358.214C411.973 358.284 412.115 358.326 412.189 358.347C412.289 358.376 412.41 358.407 412.537 358.438C412.592 358.452 412.65 358.466 412.709 358.48C412.924 358.533 413.157 358.589 413.384 358.653C413.656 358.728 413.885 358.804 414.042 358.877M406.149 352.779L414.042 358.877M415.946 364.054C415.389 363.551 414.827 362.963 414.446 362.178C414.022 361.305 413.849 360.25 414.042 358.877M415.946 364.054C415.419 364.328 415.041 364.416 414.772 364.404C414.521 364.393 414.338 364.297 414.159 364.099C414.072 364.004 413.988 363.881 413.886 363.719C413.865 363.685 413.842 363.649 413.819 363.611C413.738 363.481 413.644 363.329 413.546 363.191C413.275 362.809 412.883 362.394 412.24 362.253L411.808 362.158L411.711 362.564C411.55 363.243 411.503 363.702 411.468 364.05C411.455 364.182 411.443 364.297 411.428 364.403C411.371 364.785 411.253 365.207 410.745 366.172L410.745 366.172C410.563 366.519 410.648 366.916 410.768 367.218C410.89 367.528 411.087 367.84 411.276 368.109C411.416 368.309 411.568 368.509 411.699 368.681C411.746 368.742 411.789 368.799 411.828 368.851C411.908 368.957 411.97 369.043 412.015 369.112C412.056 369.173 412.068 369.199 412.068 369.199C412.068 369.199 412.068 369.197 412.067 369.195M414.042 358.877L412.066 369.193C412.066 369.194 412.067 369.194 412.067 369.195M412.067 369.195C412.412 370.22 412.961 370.829 413.575 371.309C413.816 371.497 414.072 371.669 414.313 371.831C414.363 371.864 414.412 371.897 414.46 371.929C414.741 372.119 415.007 372.307 415.265 372.53C415.268 372.536 415.272 372.543 415.277 372.554C415.299 372.602 415.325 372.68 415.351 372.794C415.404 373.021 415.443 373.335 415.467 373.723C415.514 374.495 415.496 375.494 415.437 376.553C415.381 377.562 415.288 378.61 415.184 379.547C414.879 378.332 414.501 376.956 414.046 375.679C413.624 374.495 413.122 373.355 412.527 372.492C411.991 371.715 411.301 371.053 410.452 370.916C410.436 370.531 410.254 370.207 410.004 369.952C409.75 369.691 409.412 369.489 409.155 369.335C409.143 369.327 409.13 369.32 409.119 369.313C408.819 369.133 408.615 369.005 408.486 368.869C408.393 368.772 408.357 368.696 408.379 368.557C408.429 368.234 408.479 367.925 408.526 367.629C408.64 366.916 408.741 366.281 408.814 365.716C408.918 364.917 408.97 364.22 408.915 363.59C408.86 362.95 408.696 362.369 408.362 361.81C408.032 361.256 407.556 360.757 406.929 360.254L412.067 369.195ZM401.536 334.724C401.598 334.75 401.661 334.776 401.724 334.803L401.859 334.344M401.536 334.724C399.028 333.685 397.113 332.9 395.791 332.368C395.554 332.273 395.336 332.186 395.138 332.108M401.536 334.724L401.433 334.545L401.859 334.344M401.859 334.344C398.142 332.802 395.694 331.805 394.513 331.352C394.674 331.55 394.882 331.801 395.138 332.108M395.138 332.108C395.269 332.265 395.413 332.436 395.57 332.622C396.432 333.644 397.659 335.076 399.251 336.921L399.281 336.955L399.305 336.993L404.242 344.804L404.335 344.952L404.33 345.114C404.25 347.317 404.231 349.072 404.272 350.383C404.293 351.039 404.329 351.577 404.378 352.001C404.428 352.434 404.489 352.717 404.548 352.877L403.663 353.206C403.586 353.081 403.419 352.87 403.152 352.577C402.894 352.292 402.563 351.952 402.181 351.576C401.417 350.825 400.462 349.942 399.488 349.076C398.514 348.21 397.527 347.365 396.702 346.69C395.861 346.002 395.228 345.524 394.944 345.36L394.943 345.36C394.329 345.007 393.335 344.722 392.23 344.412L392.158 344.392C391.663 344.253 391.147 344.109 390.66 343.948C390.829 344.19 391.022 344.46 391.236 344.752C391.936 345.712 392.822 346.873 393.728 348.009C394.635 349.147 395.558 350.253 396.331 351.107C396.719 351.534 397.063 351.891 397.345 352.155C397.648 352.439 397.82 352.556 397.877 352.581L397.877 352.581C398.146 352.696 398.501 352.739 398.946 352.743C399.157 352.744 399.373 352.738 399.599 352.731L399.618 352.73C399.847 352.723 400.086 352.716 400.318 352.719C400.765 352.727 401.279 352.773 401.72 353.013C402.219 353.284 402.537 353.749 402.644 354.383C402.691 354.665 402.688 354.999 402.683 355.278C402.683 355.302 402.682 355.325 402.682 355.348C402.678 355.564 402.675 355.753 402.683 355.912C402.692 355.906 402.702 355.9 402.711 355.893C402.711 355.893 402.712 355.893 402.712 355.893L403.037 356.315M395.138 332.108L405.789 359.18C405.557 358.502 405.344 357.882 404.409 357.718C404.311 357.7 404.181 357.464 404.028 357.187C403.754 356.688 403.407 356.054 403.037 356.315M403.037 356.315C402.151 356.94 402.166 356.12 402.18 355.278C402.186 354.963 402.191 354.645 402.15 354.398L403.037 356.315ZM404.612 357.264C405.034 357.369 405.369 357.567 405.63 357.851C405.909 358.156 406.06 358.516 406.169 358.815C406.206 358.917 406.24 359.014 406.272 359.106C406.448 359.611 406.573 359.968 406.929 360.254L404.612 357.264ZM403.881 351.995C404.141 352.284 404.363 352.554 404.498 352.773L404.08 352.99L403.612 353.102C403.522 352.856 403.456 352.537 403.405 352.164L403.881 351.995Z"
          fill="black" stroke="black"/>
    <path d="M217.167 478.035L221.697 466.535L218.807 441.029C218.216 438.93 216.178 435.258 212.694 430.015L226.826 414.825C221.72 405.01 217.914 398.328 215.408 394.779C213.906 392.652 213.176 390.065 213.364 387.531L213.555 384.957C213.831 381.236 216.042 378.133 219.306 376.884L244.075 367.404C246.051 366.647 247.68 365.194 248.702 363.274L257.811 346.165C259.3 343.367 262.043 341.615 265.164 341.466C295.643 339.403 322.146 337.004 344.675 334.271C367.203 331.537 384.51 328.464 396.596 325.049C395.34 322.283 391.184 321.068 384.128 321.404C383.651 321.426 383.18 321.338 382.709 321.36L257.933 327.292C254.812 327.44 252.069 329.193 250.579 331.99L241.47 349.099C240.448 351.019 238.819 352.473 236.843 353.229L212.074 362.709C208.81 363.959 206.599 367.062 206.323 370.783L206.132 373.357C205.944 375.89 206.674 378.478 208.176 380.605C211.936 385.927 213.843 391.628 213.898 397.707C213.938 402.178 211.126 408.222 205.462 415.84C203.646 418.282 203.098 421.577 203.985 424.726L210.128 446.542C210.447 447.673 210.584 448.838 210.534 449.988L209.795 467.101C209.582 472.031 212.761 476.565 217.167 478.035Z"
          fill="#B5C1C9"/>
    <path d="M249.468 387.842L279.449 347.416L267.985 347.871C264.877 347.994 262.071 349.686 260.461 352.406L250.613 369.046C249.508 370.913 247.822 372.321 245.824 373.046L220.774 382.129C217.473 383.326 215.132 386.34 214.684 389.971L214.375 392.482C214.171 394.13 214.592 397.996 215.637 404.08L220.954 416.308L216.522 436.456L208.845 441.754C212.552 453.067 214.494 459.093 214.67 459.831C214.934 460.937 215.279 466.203 215.176 467.326L213.644 484.027C213.203 488.839 216.149 493.287 220.458 494.753L221.7 481.214C221.803 480.092 220.548 474.029 220.285 472.923L223.532 454.486L218.252 447.841L227.478 430.197L226.19 411.108L224.517 402.02L228.788 394.361L249.468 387.842Z"
          fill="white"/>
    <path d="M279.556 372.356L276.403 372.05L261.618 471.628L264.771 471.934L279.556 372.356Z" fill="black"
          stroke="black"/>
    <path d="M322.377 369.362L319.225 369.056L304.439 468.634L307.592 468.94L322.377 369.362Z" fill="black"
          stroke="black"/>
    <path d="M300.966 370.859L297.814 370.553L283.028 470.13L286.181 470.437L300.966 370.859Z" fill="black"
          stroke="black"/>
    <path d="M340.3 413.356L335.623 413.038L327.94 467.334L332.617 467.652L340.3 413.356Z" fill="black" stroke="black"/>
    <path d="M186.405 246.767C191.697 243.342 198.596 237.287 205.316 231.389C207.559 229.42 209.783 227.468 211.92 225.638C216.17 221.998 220.086 218.831 223.107 217.007C224.606 216.102 225.948 215.487 227.032 215.348C227.584 215.278 228.11 215.325 228.558 215.559C229.014 215.797 229.328 216.196 229.514 216.713C229.742 217.347 229.99 218.045 230.257 218.798C231.873 223.348 234.194 229.886 237.175 236.235C240.66 243.658 244.998 250.712 250.072 254.053C253.422 256.258 257.54 257.505 262.705 257.218C270.172 256.802 276.343 250.772 281.104 238.657C285.371 220.787 290.151 206.239 295.451 195.023C300.75 183.808 306.589 175.88 312.994 171.31C317.667 167.976 319.224 165.124 319.17 162.671C319.115 160.185 317.41 157.91 315.048 155.744C313.875 154.67 312.565 153.643 311.261 152.648C310.986 152.439 310.712 152.23 310.438 152.023C309.42 151.251 308.424 150.495 307.536 149.759C306.414 148.828 305.431 147.9 304.779 146.972C304.127 146.043 303.763 145.052 303.997 144.023C304.118 143.49 304.003 143.288 303.903 143.202C303.77 143.089 303.457 142.989 302.813 143.054C301.552 143.181 299.541 143.887 296.915 145.095C291.696 147.496 284.301 151.761 276.181 156.794C259.949 166.854 240.903 179.932 230.759 187.15C219.321 195.29 205.617 212.137 196.157 226.085C191.429 233.055 187.785 239.266 186.023 243.267C185.583 244.267 185.265 245.116 185.076 245.799C184.883 246.499 184.844 246.961 184.897 247.217C184.921 247.336 184.956 247.365 184.958 247.366C184.958 247.366 184.958 247.366 184.958 247.366C184.959 247.367 184.962 247.37 184.973 247.372C184.985 247.376 185.012 247.381 185.06 247.379C185.285 247.367 185.715 247.214 186.405 246.767Z"
          fill="black" stroke="black"/>
    <path d="M267.595 20.3288L279.643 0.613129L237.409 211.628C237.342 210.912 237.288 210.349 237.232 209.784C237.039 207.827 236.834 205.994 236.584 204.081L236.528 203.65L236.093 203.646C234.506 203.631 232.231 204.128 229.597 205.157C222.712 207.846 215.106 213.449 210.861 218.91C201.918 230.415 193.06 240.844 184.888 249.104C176.705 257.374 169.246 263.43 163.1 266.235C156.09 269.434 147.73 270.838 140.708 269.747C133.692 268.658 128.11 265.105 126.4 258.466C126.098 257.296 126.473 255.595 127.365 253.514C128.246 251.462 129.582 249.149 131.057 246.811C132.136 245.099 133.282 243.387 134.369 241.761C134.767 241.167 135.157 240.583 135.533 240.016C136.929 237.911 138.145 236.011 138.822 234.586C140.084 231.933 140.963 230.404 144.247 224.916C145.289 223.175 145.929 222.089 146.562 220.979C146.807 220.549 147.039 220.135 147.259 219.734L147.366 219.54L147.294 219.331C145.863 215.182 145.879 210.107 147.083 204.663C148.392 198.745 151.06 192.211 155.003 184.425C156.698 181.08 158.48 177.785 160.851 173.549C160.955 173.363 161.366 172.795 161.973 171.989C162.567 171.201 163.316 170.224 164.067 169.248L164.183 169.097C164.893 168.172 165.597 167.257 166.157 166.515C166.734 165.752 167.193 165.13 167.327 164.89L167.439 164.691L167.362 164.477C167.341 164.418 167.316 164.273 167.315 164.007C167.315 163.753 167.336 163.43 167.381 163.039C167.471 162.26 167.649 161.25 167.904 160.072C168.415 157.718 169.228 154.724 170.23 151.624C171.232 148.524 172.421 145.327 173.683 142.563C174.95 139.786 176.271 137.492 177.523 136.16C178.742 134.863 181.313 131.119 184.424 126.138C187.547 121.138 191.244 114.844 194.723 108.408C196.923 104.337 201.468 98.7883 208.402 91.7498L208.408 91.7439L208.413 91.7379C225.775 72.9157 245.492 49.1262 267.565 20.3725L267.582 20.3514L267.595 20.3288Z"
          fill="black" stroke="black"/>
    <path fill-rule="evenodd" clip-rule="evenodd"
          d="M158.209 216.461C168.675 203.474 182.157 187.562 189.244 179.617C196.332 171.672 198.231 167.035 206.4 161.145C201.516 170.338 197.137 176.713 193.263 180.27C189.668 183.57 151.512 231.635 146.254 239.051C143.17 243.401 140.661 246.035 138.819 249.462L135.146 255.273C147.568 267.499 167.788 255.177 195.807 218.306C204.027 207.489 227.067 190.184 237.397 190.529C241.461 190.664 244.65 192.314 246.154 196.003C248.855 212.886 246.951 214.601 252.59 227.222C259.455 242.585 268.896 247.354 274.905 245.829C282.539 243.891 274.799 236.88 275.333 217.901C275.646 206.811 271.109 195.203 279.616 176.938C282.746 170.217 295.157 143.416 296.451 127.256C297.196 117.953 295.775 110.339 292.186 104.413L316.257 62.2974C340.715 35.9457 333.171 39.8978 326.335 34.9466C323.8 33.1109 310.126 25.8081 285.313 13.0381L230.403 88.5871C212.218 110.248 200.467 124.953 195.151 132.702C181.591 152.466 179.093 163.315 179.533 165.599C185.334 158.647 198.364 146.622 192.822 153.519C186.507 160.629 150.54 209.233 158.209 216.461Z"
          fill="#B5C1C9"/>
    <path d="M276.291 236.692C277.455 233.656 277.716 230.59 277.213 228.097C276.709 225.598 275.452 223.73 273.636 222.967C272.633 222.546 272.052 222.366 271.63 222.346C271.264 222.328 271 222.43 270.604 222.72C270.396 222.872 270.155 223.077 269.859 223.33C268.981 224.078 267.617 225.241 265.175 226.669C263.711 227.524 262.862 228.9 262.478 230.567C262.091 232.246 262.184 234.197 262.606 236.116C263.027 238.031 263.768 239.882 264.643 241.35C265.529 242.836 266.51 243.861 267.376 244.224C268.304 244.614 269.16 244.706 269.951 244.556C270.744 244.407 271.509 244.01 272.25 243.365C273.747 242.062 275.106 239.782 276.291 236.692Z"
          fill="black" stroke="black"/>
    <path fill-rule="evenodd" clip-rule="evenodd"
          d="M269.084 226.737C269.633 228.081 270.156 233.066 270.654 241.692C269.999 242.646 268.841 242.778 267.179 242.086C264.687 241.048 261.994 232.341 266.19 229.592C270.385 226.843 268.26 224.72 269.084 226.737Z"
          fill="white"/>
    <path d="M148.418 223.669C149 222.928 149.469 222.387 149.829 222.031C149.539 223.496 149.455 225.969 151.22 229.216C152.864 232.24 151.413 236.123 148.882 239.322C147.631 240.903 146.151 242.27 144.745 243.217C144.042 243.69 143.368 244.053 142.759 244.286C142.145 244.521 141.628 244.614 141.228 244.583C139.968 244.487 139.045 244.084 138.402 243.409C137.775 242.752 137.37 241.79 137.231 240.474C140.693 234.931 143.502 230.597 145.66 227.469C146.747 225.893 147.666 224.627 148.418 223.669Z"
          fill="black" stroke="black"/>
    <path fill-rule="evenodd" clip-rule="evenodd"
          d="M148.629 224.267C147.914 224.37 144.313 229.352 137.826 239.212C138.524 241.012 140.02 242.004 142.314 242.189C145.756 242.467 154.08 235.153 151.017 230.173C147.954 225.194 149.702 224.111 148.629 224.267Z"
          fill="white"/>
    <path fill-rule="evenodd" clip-rule="evenodd"
          d="M310.858 36.7417C301.934 50.2696 290.562 79.8738 281.93 96.0249C289.346 103.621 289.443 109.812 291.749 113.211C302.895 94.8844 324.314 61.6103 334.344 48.6028C326.783 44.6985 318.529 40.5208 310.858 36.7417Z"
          fill="white"/>
    <path fill-rule="evenodd" clip-rule="evenodd"
          d="M201.092 202.796C205.341 197.098 216.908 189.466 223.416 185.717C223.181 184.547 190.024 201.125 178.738 214.231C166.76 228.14 148.795 241.369 147.705 251.924C156.645 251.849 168.563 246.42 201.092 202.796Z"
          fill="white"/>
    <path fill-rule="evenodd" clip-rule="evenodd"
          d="M248.499 202.412C243.766 190.358 238.914 190.92 237.82 191.078C241.939 194.655 241.953 198.696 241.58 202.096C239.532 220.805 253.818 239.744 258.12 241.862C262.422 243.979 259.824 239.584 259.562 237.312C250.359 222.636 247.8 210.958 248.499 202.412Z"
          fill="white"/>
    <path fill-rule="evenodd" clip-rule="evenodd"
          d="M189.105 175.603C193.745 171.095 198.171 167.292 200.578 165.88C202.498 163.467 210.108 154.9 209.506 154.279C205.449 150.089 185.727 170.247 176.629 181.104C170.191 188.786 165.743 197.376 165.433 203.089C167.404 200.374 175.295 191.212 189.105 175.603Z"
          fill="white"/>
</svg>
