<svg width="512" height="512" viewBox="0 0 512 512" fill="none" xmlns="http://www.w3.org/2000/svg">
    <path d="M317.167 489.74L317.035 489.643H316.871H244.526H244.322L244.176 489.786C229.81 503.886 206.203 511.5 173.354 511.5C155.161 511.5 138.991 508.843 125.977 504.086C112.957 499.327 103.132 492.481 97.5714 484.13L95.5 481.019V239.278C95.5 225.949 105.995 216.114 122.536 209.637C126.008 208.277 129.754 207.07 133.724 206.026L134.097 205.928V205.542V131.178C134.097 59.0066 192.626 0.5 264.826 0.5C337.027 0.5 395.556 59.0066 395.556 131.178V131.332V131.487V131.641V131.795V131.949V132.102V132.256V132.409V132.563V132.716V132.869V133.021V133.174V133.326V133.479V133.631V133.783V133.934V134.086V134.237V134.389V134.54V134.691V134.841V134.992V135.142V135.292V135.443V135.593V135.742V135.892V136.041V136.191V136.34V136.489V136.637V136.786V136.934V137.083V137.231V137.379V137.526V137.674V137.822V137.969V138.116V138.263V138.41V138.556V138.703V138.849V138.995V139.141V139.287V139.432V139.578V139.723V139.868V140.013V140.158V140.303V140.447V140.591V140.736V140.88V141.023V141.167V141.311V141.454V141.597V141.74V141.883V142.025V142.168V142.31V142.452V142.594V142.736V142.878V143.019V143.161V143.302V143.443V143.584V143.724V143.865V144.005V144.145V144.285V144.425V144.565V144.704V144.844V144.983V145.122V145.261V145.399V145.538V145.676V145.814V145.952V146.09V146.228V146.365V146.503V146.64V146.777V146.914V147.051V147.187V147.324V147.46V147.596V147.732V147.867V148.003V148.138V148.273V148.409V148.543V148.678V148.813V148.947V149.081V149.215V149.349V149.483V149.616V149.75V149.883V150.016V150.149V150.282V150.414V150.547V150.679V150.811V150.943V151.075V151.206V151.338V151.469V151.6V151.731V151.862V151.992V152.123V152.253V152.383V152.513V152.643V152.772V152.902V153.031V153.16V153.289V153.418V153.546V153.675V153.803V153.931V154.059V154.187V154.314V154.442V154.569V154.696V154.823V154.95V155.077V155.203V155.329V155.455V155.581V155.707V155.833V155.958V156.083V156.209V156.334V156.458V156.583V156.707V156.832V156.956V157.08V157.204V157.327V157.451V157.574V157.697V157.82V157.943V158.066V158.188V158.31V158.433V158.555V158.676V158.798V158.919V159.041V159.162V159.283V159.404V159.524V159.645V159.765V159.885V160.005V160.125V160.245V160.364V160.484V160.603V160.722V160.841V160.959V161.078V161.196V161.314V161.433V161.55V161.668V161.786V161.903V162.02V162.137V162.254V162.371V162.487V162.604V162.72V162.836V162.952V163.067V163.183V163.298V163.413V163.529V163.643V163.758V163.873V163.987V164.101V164.215V164.329V164.443V164.556V164.67V164.783V164.896V165.009V165.122V165.234V165.347V165.459V165.571V165.683V165.795V165.906V166.018V166.129V166.24V166.351V166.462V166.572V166.683V166.793V166.903V167.013V167.123V167.232V167.342V167.451V167.56V167.669V167.778V167.886V167.995V168.103V168.211V168.319V168.427V168.534V168.642V168.749V168.856V168.963V169.07V169.176V169.283V169.389V169.495V169.601V169.707V169.813V169.918V170.023V170.128V170.233V170.338V170.443V170.547V170.652V170.756V170.86V170.963V171.067V171.171V171.274V171.377V171.48V171.583V171.685V171.788V171.89V171.992V172.094V172.196V172.298V172.399V172.501V172.602V172.703V172.803V172.904V173.005V173.105V173.205V173.305V173.405V173.505V173.604V173.703V173.803V173.902V174V174.099V174.198V174.296V174.394V174.492V174.59V174.688V174.785V174.883V174.98V175.077V175.174V175.27V175.367V175.463V175.559V175.655V175.751V175.847V175.943V176.038V176.133V176.228V176.323V176.418V176.512V176.607V176.701V176.795V176.889V176.982V177.076V177.169V177.263V177.356V177.449V177.541V177.634V177.726V177.818V177.911V178.002V178.094V178.186V178.277V178.368V178.459V178.55V178.641V178.732V178.822V178.912V179.002V179.092V179.182V179.272V179.361V179.45V179.539V179.628V179.717V179.806V179.894V179.982V180.07V180.158V180.246V180.334V180.421V180.508V180.595V180.682V180.769V180.856V180.942V181.028V181.115V181.201V181.286V181.372V181.457V181.543V181.628V181.713V181.798V181.882V181.967V182.051V182.135V182.219V182.303V182.386V182.47V182.553V182.636V182.719V182.802V182.885V182.967V183.049V183.132V183.214V183.295V183.377V183.459V183.54V183.621V183.702V183.783V183.863V183.944V184.024V184.104V184.184V184.264V184.344V184.423V184.503V184.582V184.661V184.74V184.818V184.897V184.975V185.053V185.131V185.209V185.287V185.364V185.442V185.519V185.596V185.673V185.75V185.826V185.902V185.979V186.055V186.131V186.206V186.282V186.357V186.432V186.507V186.582V186.657V186.731V186.806V186.88V186.954V187.028V187.102V187.175V187.249V187.322V187.395V187.468V187.54V187.613V187.685V187.758V187.83V187.902V187.973V188.045V188.116V188.187V188.259V188.329V188.4V188.471V188.541V188.611V188.681C395.556 188.955 395.332 189.403 394.672 190.019C394.039 190.61 393.102 191.265 391.911 191.956C389.534 193.336 386.224 194.816 382.526 196.176C375.12 198.902 366.266 201.112 360.377 201.112C354.481 201.112 345.771 199.119 338.514 196.668C334.89 195.444 331.653 194.115 329.331 192.877C328.167 192.257 327.253 191.671 326.637 191.144C326.329 190.881 326.11 190.645 325.972 190.441C325.831 190.234 325.795 190.091 325.795 190.005V189.933V189.861V189.789V189.716V189.644V189.571V189.498V189.425V189.352V189.279V189.205V189.132V189.058V188.984V188.91V188.836V188.761V188.686V188.612V188.537V188.461V188.386V188.311V188.235V188.159V188.083V188.007V187.93V187.854V187.777V187.7V187.623V187.546V187.469V187.391V187.314V187.236V187.158V187.079V187.001V186.923V186.844V186.765V186.686V186.607V186.527V186.448V186.368V186.288V186.208V186.128V186.047V185.967V185.886V185.805V185.724V185.643V185.561V185.48V185.398V185.316V185.234V185.152V185.069V184.987V184.904V184.821V184.738V184.655V184.571V184.488V184.404V184.32V184.236V184.152V184.067V183.983V183.898V183.813V183.728V183.642V183.557V183.471V183.385V183.3V183.213V183.127V183.041V182.954V182.867V182.78V182.693V182.606V182.518V182.431V182.343V182.255V182.167V182.078V181.99V181.901V181.812V181.723V181.634V181.545V181.455V181.366V181.276V181.186V181.096V181.005V180.915V180.824V180.733V180.642V180.551V180.46V180.368V180.276V180.184V180.092V180V179.908V179.815V179.723V179.63V179.537V179.443V179.35V179.256V179.163V179.069V178.975V178.881V178.786V178.692V178.597V178.502V178.407V178.312V178.216V178.121V178.025V177.929V177.833V177.737V177.64V177.544V177.447V177.35V177.253V177.155V177.058V176.96V176.863V176.765V176.667V176.568V176.47V176.371V176.272V176.174V176.074V175.975V175.876V175.776V175.676V175.576V175.476V175.376V175.275V175.175V175.074V174.973V174.872V174.77V174.669V174.567V174.465V174.363V174.261V174.159V174.056V173.954V173.851V173.748V173.645V173.541V173.438V173.334V173.23V173.126V173.022V172.918V172.813V172.709V172.604V172.499V172.394V172.288V172.183V172.077V171.971V171.865V171.759V171.652V171.546V171.439V171.332V171.225V171.118V171.011V170.903V170.795V170.687V170.579V170.471V170.363V170.254V170.145V170.037V169.927V169.818V169.709V169.599V169.489V169.38V169.269V169.159V169.049V168.938V168.827V168.716V168.605V168.494V168.383V168.271V168.159V168.047V167.935V167.823V167.711V167.598V167.485V167.372V167.259V167.146V167.032V166.919V166.805V166.691V166.577V166.462V166.348V166.233V166.118V166.004V165.888V165.773V165.658V165.542V165.426V165.31V165.194V165.078V164.961V164.844V164.728V164.611V164.493V164.376V164.259V164.141V164.023V163.905V163.787V163.668V163.55V163.431V163.312V163.193V163.074V162.955V162.835V162.716V162.596V162.476V162.355V162.235V162.115V161.994V161.873V161.752V161.631V161.509V161.388V161.266V161.144V161.022V160.9V160.777V160.655V160.532V160.409V160.286V160.163V160.039V159.916V159.792V159.668V159.544V159.42V159.295V159.171V159.046V158.921V158.796V158.671V158.545V158.42V158.294V158.168V158.042V157.916V157.789V157.662V157.536V157.409V157.282V157.154V157.027V156.899V156.771V156.643V156.515V156.387V156.259V156.13V156.001V155.872V155.743V155.614V155.484V155.354V155.225V155.095V154.965V154.834V154.704V154.573V154.442V154.311V154.18V154.049V153.917V153.785V153.654V153.522V153.389V153.257V153.125V152.992V152.859V152.726V152.593V152.459V152.326V152.192V152.058V151.924V151.79V151.656V151.521V151.386V151.251V151.116V150.981V150.846V150.71V150.575V150.439V150.303V150.166V150.03V149.893V149.757V149.62V149.483V149.345V149.208V149.07V148.933V148.795V148.657V148.518V148.38V148.241V148.103V147.964V147.825V147.685V147.546V147.406V147.266V147.126V146.986V146.846V146.706V146.565V146.424V146.283V146.142V146.001V145.859V145.718V145.576V145.434V145.292V145.15V145.007V144.864V144.722V144.579V144.435V144.292V144.149V144.005V143.861V143.717V143.573V143.429V143.284V143.14V142.995V142.85V142.705V142.559V142.414V142.268V142.122V141.976V141.83V141.684V141.537V141.39V141.243V141.096V140.949V140.802V140.654V140.507V140.359V140.211V140.063V139.914V139.766V139.617V139.468V139.319V139.17V139.02V138.871V138.721V138.571V138.421V138.271V138.12V137.97V137.819V137.668V137.517V137.366V137.214V137.063V136.911V136.759V136.607V136.455V136.302V136.15V135.997V135.844V135.691V135.538V135.384V135.231V135.077V134.923V134.769V134.615V134.46V134.305V134.151V133.996V133.841V133.685V133.53V133.374V133.218V133.062V132.906V132.75V132.594V132.437V132.28V132.123V131.966V131.809V131.651V131.493V131.336V131.178C325.795 97.5187 298.498 70.2331 264.826 70.2331C231.155 70.2331 203.858 97.5187 203.858 131.178V203.924V204.321L204.245 204.411C220.909 208.266 233.667 215.69 244.242 226.763L244.39 226.917H244.604H316.458H316.637L316.775 226.804C319.4 224.652 322.314 222.675 325.492 220.914C337.889 217.092 349.526 214.889 360.404 214.301C377.664 213.368 391.634 217.248 401.273 222.718C406.094 225.453 409.823 228.58 412.34 231.691C414.864 234.81 416.141 237.874 416.141 240.492V481.849L413.171 485.318C402.645 497.614 387.274 503 362.542 503C342.55 503 328.938 498.396 317.167 489.74Z"
          fill="black" stroke="black"/>
    <path d="M205.113 294.238C212.425 294.238 219.588 293.849 226.548 293.105C210.165 426.532 190.817 493.245 168.503 493.245C132.393 493.245 115.393 487.621 108.128 476.711L108.127 265.376C130.568 282.936 165.666 294.238 205.113 294.238ZM323.935 274.21C337.015 279.565 352.689 282.683 369.537 282.683C382.328 282.683 394.441 280.886 405.256 277.678C406.486 330.339 399.076 379.084 383.025 423.914C357.151 496.181 333.654 486.013 323.935 478.853L323.935 274.21Z"
          fill="#B5C1C9"/>
    <path fill-rule="evenodd" clip-rule="evenodd"
          d="M314.429 275.692V451.007V452.244C314.429 466.084 303.209 477.304 289.369 477.304H233.967C232.776 401.54 237.386 350.615 247.797 324.53C258.207 298.445 280.417 282.166 314.429 275.692Z"
          fill="#B5C1C9"/>
    <path d="M295.866 357.062C296.018 356.586 296.017 356.586 296.017 356.586L296.015 356.585L296.013 356.585L296.007 356.583L295.991 356.578C295.987 356.577 295.982 356.576 295.977 356.574C295.967 356.571 295.955 356.568 295.942 356.565C295.902 356.555 295.846 356.543 295.775 356.53C295.634 356.504 295.431 356.478 295.165 356.466C294.633 356.441 293.851 356.476 292.803 356.695C290.74 357.128 287.651 358.277 283.412 361.103C279.835 360.138 276.021 359.658 272.235 359.639L272.23 359.639C268.441 359.658 264.624 360.138 261.052 361.103C256.811 358.277 253.719 357.128 251.653 356.695C250.605 356.476 249.822 356.441 249.289 356.466C249.023 356.478 248.82 356.504 248.678 356.53C248.607 356.543 248.552 356.555 248.512 356.565C248.491 356.57 248.475 356.575 248.462 356.578L248.446 356.583L248.44 356.585L248.438 356.585L248.437 356.586C248.436 356.586 248.436 356.586 248.588 357.062L248.436 356.586L248.211 356.658L248.123 356.877C245.781 362.757 246.99 367.227 247.567 368.787C244.732 371.964 243.012 376 243.012 380.891C243.012 389.567 245.678 394.966 249.694 398.324C253.418 401.438 258.235 402.74 262.946 403.361C261.921 404.564 261.075 406.312 260.704 408.614C259.428 409.153 257.378 409.792 255.195 409.599C252.9 409.395 250.413 408.269 248.491 405C248.49 404.999 248.489 404.997 248.488 404.996L248.484 404.989C248.479 404.979 248.471 404.965 248.46 404.948C248.44 404.912 248.409 404.862 248.37 404.799C248.291 404.673 248.175 404.495 248.021 404.281C247.714 403.855 247.256 403.284 246.65 402.703C245.442 401.542 243.614 400.311 241.198 400.142L241.183 400.141L241.169 400.141L241.163 400.641C241.169 400.141 241.169 400.141 241.169 400.141L241.168 400.141L241.167 400.141L241.163 400.141L241.152 400.141L241.11 400.141C241.075 400.141 241.025 400.142 240.964 400.144C240.843 400.149 240.675 400.158 240.485 400.179C240.127 400.218 239.618 400.305 239.229 400.525C239.03 400.638 238.815 400.812 238.698 401.079C238.573 401.363 238.594 401.668 238.717 401.959C238.835 402.237 239.049 402.516 239.345 402.804C239.643 403.095 240.047 403.415 240.573 403.772L240.606 403.794L240.64 403.81L240.641 403.811L240.641 403.811L240.642 403.811L240.642 403.811L240.642 403.811L240.659 403.82C240.675 403.828 240.702 403.842 240.739 403.863C240.812 403.904 240.923 403.971 241.066 404.067C241.35 404.261 241.759 404.574 242.232 405.046C243.176 405.985 244.384 407.558 245.381 410.067L245.385 410.079C245.392 410.099 245.401 410.128 245.414 410.163C245.439 410.234 245.476 410.334 245.528 410.459C245.632 410.708 245.793 411.057 246.027 411.464C246.493 412.277 247.251 413.33 248.42 414.294C250.702 416.177 254.479 417.663 260.517 416.504C260.529 418.256 260.543 419.779 260.555 420.984C260.566 422.141 260.574 423.005 260.574 423.495C260.574 423.983 260.404 424.476 260.046 424.801C259.707 425.11 259.119 425.338 258.125 425.164C240.453 419.307 227.72 402.746 227.72 383.229C227.72 358.816 247.647 339.02 272.227 339.02C296.814 339.02 316.742 358.816 316.742 383.229C316.742 402.741 304.018 419.292 286.359 425.162C285.348 425.348 284.757 425.121 284.417 424.813C284.059 424.489 283.89 423.992 283.89 423.495C283.89 423.011 283.896 422.161 283.904 421.021C283.908 420.439 283.913 419.781 283.918 419.058C283.931 416.922 283.945 414.221 283.945 411.232C283.945 407.582 282.87 404.95 281.471 403.326C286.192 402.716 291.016 401.433 294.746 398.332C298.771 394.985 301.442 389.589 301.442 380.891C301.442 376.001 299.735 371.965 296.894 368.787C297.468 367.227 298.677 362.757 296.33 356.877L296.243 356.658L296.018 356.586L295.866 357.062Z"
          fill="black" stroke="black"/>
    <path fill-rule="evenodd" clip-rule="evenodd"
          d="M119.381 466.989V310.771V295.713C119.381 291.088 123.164 288.644 127.831 290.253L146.513 296.697C146.915 364.347 145.36 409.188 141.85 431.221C138.339 453.254 130.85 465.177 119.381 466.989Z"
          fill="white"/>
    <path fill-rule="evenodd" clip-rule="evenodd"
          d="M335.059 418.227V304.99V294.074C335.059 290.722 337.798 288.95 341.178 290.117L354.706 294.788C354.997 343.825 353.871 376.329 351.329 392.3C348.787 408.271 343.364 416.913 335.059 418.227Z"
          fill="white"/>
    <path fill-rule="evenodd" clip-rule="evenodd"
          d="M403.513 238.866V266.612C396.227 273.06 385.028 276.745 362.225 276.745C339.423 276.745 328.224 271.218 320.938 266.612H238.362C228.648 275.824 209.004 283.194 172.788 283.194C156.496 283.194 127.865 279.955 113.655 266.219C109.089 261.806 106.942 252.381 107.213 237.945C107.213 227.201 136.572 218.491 172.788 218.491C209.004 218.491 226.219 226.89 238.362 237.945H321.053C327.009 233.339 340.467 226.617 362.225 226.617C385.028 226.617 403.513 232.101 403.513 238.866Z"
          fill="white"/>
    <path d="M339.008 182.684V138.833C339.008 118.509 332.691 100.08 321.247 86.723C309.797 73.3592 293.235 65.0985 272.813 65.0985C231.987 65.0985 198.889 98.1092 198.889 138.833V251.242L198.819 251.455C198.569 252.215 198.23 252.953 197.596 253.666C196.959 254.381 196.001 255.097 194.478 255.769C191.415 257.12 186.139 258.264 176.812 258.905C167.582 259.54 160.401 257.136 155.403 254.189C152.902 252.715 150.949 251.106 149.562 249.675C148.159 248.23 147.373 247.007 147.145 246.316L147.075 246.102V136.263C147.075 71.3122 207.581 21.1301 272.813 21.1301C337.989 21.1301 390.822 73.8286 390.822 138.833V187.823L390.752 188.037C390.672 188.28 390.396 188.624 389.818 189.041C389.257 189.445 388.479 189.871 387.515 190.305C385.589 191.17 382.98 192.035 380.023 192.806C374.108 194.346 366.871 195.485 361.051 195.485C355.313 195.485 350.064 193.107 346.105 190.311C344.128 188.915 342.484 187.423 341.273 186.088C340.048 184.738 339.308 183.594 339.079 182.897L339.008 182.684Z"
          fill="black" stroke="black"/>
    <path d="M264.729 14.0659C329.984 14.0659 382.883 67.0804 382.883 132.477V180.677L382.788 180.677C381.739 183.883 372.119 188.484 360.408 188.484C348.696 188.484 339.077 183.883 338.028 180.677L337.933 180.677V132.477C337.933 91.9596 305.158 59.1137 264.729 59.1137C224.299 59.1137 191.525 91.9596 191.525 132.477V245.38L191.43 245.38C190.381 248.587 180.762 253.187 169.05 253.187C157.338 253.187 147.719 248.587 146.67 245.38L146.575 245.38V132.477C146.575 67.0804 199.474 14.0659 264.729 14.0659Z"
          fill="#B5C1C9"/>
    <path d="M157.92 233.666H157.828V128.298C157.828 69.8705 205.152 22.5056 263.529 22.5056C310.554 22.5056 350.406 53.2391 364.128 95.7318C346.205 62.8337 311.339 40.5125 271.264 40.5125C212.886 40.5125 165.562 87.8773 165.562 146.305V237.246C161.333 236.395 158.461 235.118 157.92 233.666Z"
          fill="white"/>
    <path d="M361.315 150.037L353.813 150.037C351.87 155.679 359.275 168.456 367.052 171.134C373.318 173.291 379.649 172.151 382.89 168.677C381.192 169.826 370.881 166.728 366.232 160.766C363.579 157.364 361.94 153.788 361.315 150.037Z"
          fill="white"/>
    <path d="M390.822 150.537L390.823 170.319C390.78 170.31 390.733 170.3 390.684 170.29C390.493 170.249 390.252 170.198 389.956 170.138C389.031 169.95 387.501 169.659 384.837 169.235C376.932 167.977 371.5 165.167 367.887 161.684C364.446 158.366 362.628 154.413 361.908 150.537H390.822Z"
          fill="black" stroke="black"/>
</svg>
