<svg width="512" height="512" viewBox="0 0 512 512" fill="none" xmlns="http://www.w3.org/2000/svg">
    <path d="M363.537 467.793C363.537 467.793 351.681 467.354 345.753 472.013C345.753 472.013 331.847 463.158 304.889 469.574L294.741 428.735C294.741 428.735 284.982 385.09 298.498 365.305C307.622 351.863 326.211 334.225 348.192 308.853C357.951 297.484 370.539 288.58 381.444 279.261C395.618 267.063 398.009 245.667 397.423 227.785C396.594 202.877 381.444 179.725 381.444 179.725C381.444 179.725 235.776 162.819 213.502 176.236C213.502 176.236 131.751 231.713 54.6841 329.931C56.5196 330.523 58.2735 331.342 59.9049 332.371C59.9049 332.371 38.534 360.816 38.6804 381.846C37.9724 385.742 38.2662 389.755 39.5342 393.507C40.4917 398.281 41.1193 403.114 41.4127 407.974C41.3246 412.337 41.463 416.702 41.8275 421.05C41.8275 421.05 39.0219 434.248 38.3144 436.371C37.607 438.493 38.3144 452.448 38.3144 452.448C38.3144 452.448 103.183 421.88 112.356 416.561C112.356 416.561 150.902 419.733 165.027 417.269C165.027 417.269 177.859 433.687 179.274 436.786L185.447 470.403C185.447 470.403 172.834 472.574 168.369 477.234C166.467 477.234 145.486 474.258 138.265 482.43C138.265 482.43 134.63 497.312 136.411 499.776C138.192 502.24 146.169 501.581 148.609 499.093C148.609 499.093 161.539 513.316 174.639 511.901C187.74 510.486 205.768 501.825 219.918 505.021C234.068 508.217 255.439 514.462 268.539 510.779C277.936 507.834 287.002 503.927 295.595 499.117L299.425 502.264C299.425 502.264 300.864 500.849 300.523 499.825C300.523 499.825 340.654 503.85 351.754 509.412C367.124 517.195 384.396 497.678 384.396 497.678C384.396 497.678 385.957 498.117 389.275 498.727C389.104 498.751 396.057 466.719 363.537 467.793ZM260.098 468.086C253.267 468.256 251.243 470.525 251.243 470.525L232.628 468.33C231.092 465.475 223.797 431.736 223.797 431.736C223.553 426.856 228.676 413.561 228.676 413.561C231.555 413.461 234.398 412.893 237.093 411.877C240.533 416.122 257.464 436.273 257.464 436.273C260.586 444.397 260.172 468.086 260.172 468.086H260.098Z"
          fill="black"/>
    <path d="M271.077 469.378C271.077 469.378 284.714 470.647 291.228 477.014L293.204 476.356L284.543 436.346C284.543 436.346 274.59 438.932 269.662 443.153L271.077 469.378Z"
          fill="#B5C1C9"/>
    <path d="M300.352 483.333C300.352 483.333 317.843 472.574 343.288 479.82L345.338 487.139C345.338 487.139 380.517 485.797 377.687 492.969C374.857 500.142 360.61 502.557 353.535 500.435C346.46 498.312 327.016 489.31 304.743 492.164C303.492 489.119 302.025 486.168 300.352 483.333Z"
          fill="#B5C1C9"/>
    <path d="M197.254 444.47L196.059 480.771C188.655 480.433 181.26 481.604 174.322 484.211C174.322 484.211 176.176 490.578 173.005 491.383C169.833 492.189 157.489 494.091 157.489 494.091L158.367 495.214C158.367 495.214 173.176 503.386 181.397 499.459C188.057 496.263 196.669 492.14 215.551 492.433C234.434 492.725 244.266 502.752 256.195 501.825C268.125 500.898 283.25 497.214 286.422 493.238C286.422 493.238 282.982 487.919 269.467 487.139C255.951 486.358 253.292 486.333 251.438 478.38C251.438 478.38 234.361 477.844 224.92 480.82C224.92 480.82 215.161 436.907 214.185 436.907C213.209 436.907 200.426 439.42 197.254 444.47Z"
          fill="#B5C1C9"/>
    <path d="M121.822 403.997C127.14 402.143 187.008 356.962 187.008 356.962C183.544 362.012 146.047 391.116 146.047 391.116C146.047 391.116 147.877 391.677 153.366 389.287C158.855 386.896 193.839 365.281 194.644 364.476L181.421 378.943L199.035 367.184C203.154 368.128 207.375 368.546 211.599 368.428C207.889 372.171 204.479 376.201 201.401 380.48C208.72 374.917 218.186 367.745 218.186 367.745H225.163C223.237 371.583 220.897 375.198 218.186 378.528L232.433 373.82L228.627 379.162C234.946 374.454 248.413 369.941 248.413 369.941C245.753 371.551 230.628 386.505 230.628 386.505C234.36 382.529 267.417 362.841 267.417 362.841L270.467 362.353C268.612 364.476 260.952 375.234 260.952 375.234L274.004 362.5C277.348 361.064 280.854 360.04 284.445 359.45C284.445 359.45 279.249 376.527 277.127 388.725C274.833 401.387 281.079 421.782 281.079 421.782C276.892 424.23 272.349 426.008 267.612 427.052C262.269 418.879 245.461 402.046 245.461 402.046L252.023 387.408C244.343 394.72 235.037 400.105 224.87 403.119C223.431 403.119 222.04 390.921 222.04 390.921C217.161 395.8 210.379 425.393 210.379 425.393C209.33 427.832 201.792 429.296 198.62 429.028C195.449 428.759 192.619 424.002 192.619 424.002L199.572 421.148L189.252 419.025C186.081 417.708 176.81 405.095 176.81 405.095C177.323 403.558 202.451 388.628 202.451 388.628L174.151 401.729L121.822 403.997Z"
          fill="#B5C1C9"/>
    <path d="M351.924 478.454L353.925 481.65C363.944 480.136 374.181 482.071 382.956 487.139C380.222 480.466 373.725 476.109 366.513 476.112C351.071 475.185 351.924 478.454 351.924 478.454Z"
          fill="white"/>
    <path d="M233.092 271.137C206.525 294.923 132.654 339.031 132.654 339.031C132.654 339.031 154.073 349.985 191.545 331.249C229.018 312.513 263.977 276.821 267.612 271.796L248.852 283.506L261.22 270.991C261.22 270.991 255.975 271.723 252.901 271.796L220.504 291.313C229.164 286.751 247.168 271.796 247.168 271.796L233.092 271.137Z"
          fill="white"/>
    <path d="M186.984 316.734C186.984 316.734 224.31 296.656 230.775 291.923C230.775 291.923 211.258 311.196 194.522 318.1C185.613 322.07 176.168 324.709 166.491 325.931L186.984 316.734Z"
          fill="black"/>
    <path d="M48.0729 434.541C48.0729 434.541 52.269 424.271 54.4158 417.83C54.9525 416.244 100.012 368.257 122.285 356.84H125.457C102.476 376.528 105.477 374.576 99.5728 380.187C99.5728 380.187 138.997 351.815 144.315 349.96C144.315 349.96 132.629 362.939 129.677 365.598C129.677 365.598 158.343 352.4 162.319 350.278C160.313 353.086 158.086 355.729 155.659 358.182C155.659 358.182 195.107 339.397 198.572 338.08C198.621 338.128 68.4679 433.273 48.0729 434.541Z"
          fill="#B5C1C9"/>
    <path d="M86.3743 395.703C92.3138 391.995 98.0172 387.921 103.451 383.505C106.989 379.968 111.405 381.065 103.451 388.091C95.4984 395.117 93.132 397.264 86.3743 397.85C79.6166 398.435 86.3743 395.703 86.3743 395.703Z"
          fill="black"/>
    <path d="M261.099 477.454C261.099 477.454 260.782 480.504 262.953 480.967C266.295 481.675 277.932 479.577 292.472 488.286C292.472 488.286 293.936 486.163 287.593 480.748C281.25 475.332 265.881 475.502 261.099 477.454Z"
          fill="white"/>
    <path d="M143.071 494.604C143.071 494.604 144.388 487.285 146.486 486.163C148.584 485.041 163.173 484.163 165.613 484.651C165.613 484.651 167.564 486.724 166.759 487.481C165.954 488.237 152.341 489.505 150.072 491.603C148.241 493.511 145.715 494.594 143.071 494.604Z"
          fill="white"/>
    <path d="M196.059 480.772C200.075 480.869 204.064 481.451 207.94 482.504C207.94 482.504 198.621 475.185 194.034 475.649L196.059 480.772Z"
          fill="black"/>
    <path d="M116.528 349.082C116.528 349.082 112.161 347.911 112.356 344.203L100.329 351.863L114.015 339.665L111.575 338.348C109.453 339.665 88.2528 355.839 88.2528 355.839L106.184 338.152C104.56 338.287 102.928 338.287 101.305 338.152C96.7914 341.055 59.5875 376.137 53.7569 386.481C47.9262 396.825 52.098 410.877 52.098 410.877C52.098 410.877 85.7644 373.697 116.528 349.082Z"
          fill="#B5C1C9"/>
    <path d="M95.6694 336.299C95.6694 336.299 63.9546 361.28 51.9518 381.578C51.9518 381.578 48.4388 378.431 50.732 370.307C53.0252 362.183 73.9814 340.08 78.0311 337.275L72.8591 347.789L85.2523 336.47C88.7091 337.005 92.2319 336.947 95.6694 336.299Z"
          fill="#B5C1C9"/>
    <path d="M195.4 78.5063C195.4 78.5063 184.202 60.4533 183.446 54.6714C193.607 50.5315 204.541 48.6342 215.502 49.1091C215.502 49.1091 213.38 29.0068 218.284 23.7861C218.284 23.7861 240.777 32.0319 247.559 36.8623C247.559 36.8623 246.412 14.1009 254.878 10.4659C254.878 10.4659 274.394 21.1269 275.517 29.202C275.517 29.202 279.03 11.1002 288.032 8.09947C292.71 13.3737 297.092 18.9038 301.157 24.6643C301.157 24.6643 309.793 2.70795 317.112 0C317.112 0 331.066 14.3692 332.335 21.0049C332.335 21.0049 332.969 13.3446 346.972 8.09947C346.972 8.09947 361.61 22.3955 360.951 30.7633C360.951 30.7633 368.27 14.6132 377.736 12.7347C377.736 12.7347 390.105 16.2965 390.373 32.2515C390.373 32.2515 401.205 23.3714 408.719 20.4926C408.719 20.4926 420.575 33.5445 418.77 41.034C418.77 41.034 430.821 35.5694 438.482 37.2527C438.482 37.2527 444.752 47.0111 439.287 62.3074C439.287 62.3074 460.048 60.3801 464.146 64.8689C464.146 64.8689 458.194 84.3857 455.12 85.5567C455.12 85.5567 471.343 91.8021 474.417 96.4129C474.417 96.4129 460.975 111.392 457.901 112.929L471.465 130.738C471.465 130.738 463.463 141.838 456.559 141.838C456.559 141.838 460.536 156.964 460.121 166.942C460.121 166.942 444.41 168.186 439.165 163.941C439.165 163.941 441.458 175.993 440.311 182.921C440.311 182.921 423.478 181.409 420.795 176.798C420.795 176.798 416.037 194.729 411.427 198.559C411.427 198.559 398.326 190.02 397.179 185.41C397.179 185.41 395.106 196.266 389.324 199.34C389.324 199.34 373.418 187.434 374.174 183.604C374.174 183.604 370.71 197.803 364.196 198.559C364.196 198.559 354.194 188.971 354.194 183.921C354.194 183.921 351.144 193.143 346.143 193.533C346.143 193.533 337.702 185.849 335.775 181.335C335.775 181.335 326.163 197.071 321.942 198.608C321.942 198.608 305.816 180.945 303.889 176.334C303.889 176.334 300.815 187.654 296.57 190.459C293.702 188.511 291.336 185.911 289.666 182.872C289.666 182.872 283.518 195.924 279.688 196.705C279.688 196.705 272.004 194.265 269.686 190.459C266.48 194.149 262.381 196.955 257.781 198.608C254.302 195.506 251.323 191.885 248.949 187.874C248.949 187.874 239.728 196.705 233.214 196.705C233.214 196.705 226.286 185.946 227.457 180.579C227.457 180.579 212.575 189.435 203.061 189.045C203.061 189.045 198.767 177.139 200.304 172.138C200.304 172.138 188.594 171.284 185.154 169.381C185.154 169.381 180.445 154.597 187.911 145.864C187.911 145.864 168.125 133.105 165.783 127.737C172.875 121.108 180.71 115.32 189.13 110.489L167.174 91.4118C175.463 84.9928 185.123 80.5761 195.4 78.5063Z"
          fill="black"/>
    <path d="M301.108 158.451C301.108 158.451 317.038 191.484 321.283 194.655C321.283 194.655 334.701 166.356 337.019 156.329C337.019 156.329 325.699 140.96 320.844 133.787C320.844 133.787 308.475 152.718 301.108 158.451Z"
          fill="#B5C1C9"/>
    <path d="M378.956 156.33C378.956 156.33 419.185 153.061 428.967 115.003C438.75 76.9453 396.35 56.0867 378.956 56.1839C361.561 56.2819 325.675 74.7984 327.724 107.953C329.773 141.107 357.219 155.159 378.956 156.33Z"
          fill="white"/>
    <path d="M378.98 150.425C378.98 150.425 414.452 147.546 423.088 113.978C431.724 80.4087 394.325 62.0142 378.98 62.0871C363.635 62.1605 331.993 78.5302 333.896 107.757C335.799 136.983 359.805 149.449 378.98 150.425Z"
          fill="#B5C1C9"/>
    <path d="M379.004 144.521C379.004 144.521 409.743 142.082 417.208 112.953C424.674 83.8242 392.276 67.918 379.004 67.991C365.733 68.0644 338.287 82.2385 339.971 107.562C341.654 132.885 362.366 143.692 379.004 144.521Z"
          fill="white"/>
    <path d="M375.345 136.862C375.345 136.862 392.934 134.861 396.74 130.519C396.74 130.519 416.647 113.442 410.134 99.7555C410.134 99.7555 399.814 80.2387 390.251 77.9699C380.688 75.701 360.049 76.8232 355.072 92.1195C350.095 107.416 345.557 126.542 375.345 136.862Z"
          fill="black"/>
    <path d="M402.376 124.785C402.376 124.785 386.519 131.738 374.76 126.298C367.5 122.703 361.938 116.406 359.268 108.757C359.268 108.757 356.682 123.005 369.32 128.274C381.957 133.544 396.155 133.373 400.278 128.274C403.815 123.907 402.376 124.785 402.376 124.785Z"
          fill="white"/>
    <path d="M261.074 158.062C261.074 158.062 301.693 154.768 311.574 116.345C321.454 77.9211 278.639 56.8429 261.074 56.9644C243.509 57.0869 207.403 75.7498 209.501 109.221C211.599 142.692 239.118 156.964 261.074 158.062Z"
          fill="white"/>
    <path d="M261.099 152.085C261.099 152.085 296.912 149.182 305.621 115.296C314.331 81.4101 276.59 62.8447 261.099 62.9177C245.607 62.9911 213.648 79.5072 215.6 109.026C217.552 138.545 241.728 151.109 261.099 152.085Z"
          fill="#B5C1C9"/>
    <path d="M261.123 146.425C261.123 146.425 292.374 143.985 299.986 114.295C307.598 84.6052 274.639 68.5039 261.123 68.601C247.608 68.699 219.65 83.0683 221.382 108.83C223.114 134.593 244.217 145.571 261.123 146.425Z"
          fill="white"/>
    <path d="M257.415 138.399C257.415 138.399 275.175 136.399 279.03 131.983C279.03 131.983 299.108 114.906 292.545 100.951C292.545 100.951 282.128 81.2636 272.467 78.9948C262.807 76.726 241.972 77.8238 236.971 93.2665C231.97 108.709 227.31 127.958 257.415 138.399Z"
          fill="black"/>
    <path d="M284.714 126.225C284.714 126.225 268.71 133.227 256.854 127.738C249.518 124.116 243.901 117.754 241.216 110.026C241.216 110.026 238.606 124.42 251.34 129.836C264.075 135.252 278.566 134.959 282.616 129.836C286.178 125.323 284.714 126.225 284.714 126.225Z"
          fill="white"/>
    <path d="M322.991 60.4775C322.991 60.4775 309.256 61.063 310.281 70.2359C310.466 73.2686 312 76.0588 314.461 77.84C316.923 79.6211 320.053 80.2057 322.991 79.4332C322.991 79.4332 329.236 78.9941 330.31 70.2359C330.7 67.9614 330.137 65.6265 328.752 63.7802C327.368 61.934 325.284 60.7394 322.991 60.4775Z"
          fill="#B5C1C9"/>
    <path d="M225.261 263.453C225.261 263.453 128.604 324.174 125.237 324.76C117.712 325.625 110.1 325.379 102.646 324.028C110.77 319.954 162.173 273.479 162.173 273.479L167.515 272.65C166.515 274.675 145.827 294.362 145.827 294.362C149.218 291.337 173.639 272.65 173.639 272.65L178.713 271.284C176.688 273.723 163.124 285.531 163.124 285.531L180.396 272.991L184.153 270.259C186.267 269.786 188.428 269.557 190.594 269.576L178.396 280.115L194.034 269.893L225.261 263.453Z"
          fill="white"/>
    <path d="M229.481 191.265C230.945 193.094 228.603 195.632 228.603 195.632C231.823 193.046 234.409 191.338 234.409 191.338C234.751 193.924 238.41 207.61 240.996 206.634C243.582 205.658 250.755 197.315 250.755 197.315L250.438 206.049L254.024 195.68L256.171 194.412C256.171 194.412 260.22 208.488 263.123 208.488C266.027 208.488 273.736 200.023 273.736 200.023L274.37 209.269C275.004 206.683 278.469 197.486 278.469 197.486C279.127 200.706 287.202 204.804 287.202 204.804C287.202 204.804 288.447 217.002 289.398 214.124C290.13 211.904 294.399 203.902 294.399 203.902C303.743 219.686 286.812 244.204 286.812 244.204C276.127 244.204 278.639 223.663 278.639 223.663C278.322 225.273 263.733 235.714 256.903 236.641C252.267 237.275 254.195 217.49 254.195 217.49C252.584 221.052 230.701 228.639 223.919 227.981C217.137 227.322 227.554 210.415 227.554 210.415C227.554 210.415 182.226 221.15 196.937 205.536C206.11 195.51 227.676 188.996 229.481 191.265Z"
          fill="white"/>
    <path d="M134.483 268.796C135.166 268.308 118.016 288.922 118.016 288.922L138.094 268.844L139.972 272.528C141.506 274.014 143.312 275.19 145.291 275.992C140.948 281.482 80.0801 325.833 80.0801 325.833C82.1294 327.2 87.3989 330.274 87.3989 330.274L85.9839 331.567C81.6517 331.054 77.5298 329.414 74.0299 326.809C74.0299 326.809 101.256 291.923 134.483 268.796Z"
          fill="white"/>
    <path d="M210.014 246.301C206.73 250.213 202.891 253.624 198.621 256.426C198.621 256.426 205.573 244.691 204.012 245.984C201.16 246.866 198.225 247.455 195.254 247.741C195.254 247.741 185.886 257.694 176.201 259.695C176.201 259.695 177.006 259.061 173.273 263.842C173.273 263.842 198.108 264.55 209.477 256.767C209.209 253.27 209.389 249.753 210.014 246.301Z"
          fill="white"/>
    <path d="M260.489 299.436L265.685 292.703C265.685 292.703 260.806 292.947 257.513 292.703C257.513 292.703 251.072 303.096 257.513 306.072C257.513 306.072 266.417 307.048 270.882 303.096C269.025 300.577 267.682 297.717 266.929 294.679C266.929 294.679 262.709 299.388 261.733 300.607L260.489 299.436Z"
          fill="#B5C1C9"/>
    <path d="M208.94 350.571L214.112 341.081C214.112 341.081 207.94 342.374 203.866 342.715C203.866 342.715 197.864 357.036 206.525 359.475C206.525 359.475 220.577 358.036 225.383 352.156C225.383 352.156 217.015 347.277 216.064 343.276C216.064 343.276 211.721 350.034 210.721 351.766L208.94 350.571Z"
          fill="#B5C1C9"/>
    <path d="M240.191 347.423C240.191 347.423 237.752 359.06 245.949 361.377C245.949 361.377 256.683 360.865 261.221 355.327C258.696 351.685 256.6 347.764 254.975 343.642L240.191 347.423Z"
          fill="#B5C1C9"/>
    <path d="M220.723 240.057C220.723 240.057 220.552 257.134 228.603 257.622C236.654 258.11 244.997 249.303 244.997 249.303C243.282 244.969 241.943 240.496 240.996 235.934C240.996 235.934 223.163 240.057 220.723 240.057Z"
          fill="white"/>
    <path d="M388.763 168.211C392.959 176.92 385.274 185.605 385.274 185.605C378.785 184.337 373.564 170.431 373.564 170.431L388.763 168.211Z"
          fill="#B5C1C9"/>
    <path d="M343.606 164.233L346.777 166.234C347.079 169.229 346.475 172.246 345.045 174.894C342.313 174.163 341.703 170.357 341.703 170.357L343.606 164.233Z"
          fill="#B5C1C9"/>
    <path d="M396.179 167.137C396.179 167.137 401.912 178.579 407.84 179.335C407.84 179.335 412.939 168.162 408.938 162.794C404.877 164.753 400.592 166.211 396.179 167.137Z"
          fill="#B5C1C9"/>
    <path d="M342.215 484.505C342.215 485.676 329.383 483.773 321.381 486.773C313.379 489.774 314.599 479.845 322.381 479.894C330.164 479.943 342.362 479.625 342.215 484.505Z"
          fill="white"/>
    <path d="M251.242 484.333C251.389 485.772 237.629 482.772 230.189 487.992C222.748 493.213 223.26 483.845 230.945 482.406C238.63 480.966 250.632 478.161 251.242 484.333Z"
          fill="white"/>
    <path d="M305.255 239.984C304.889 239.984 308.451 230.079 308.402 228.494C308.354 226.908 312.501 229.616 316.453 230.933C317.551 231.299 312.574 241.106 305.255 239.984Z"
          fill="#B5C1C9"/>
    <path d="M288.08 328.37L269.271 334.591C269.271 334.591 271.491 347.863 275.321 352.839C275.321 352.839 283.86 352.669 296.985 338.69C296.985 338.69 288.275 330.81 288.08 328.37Z"
          fill="#B5C1C9"/>
    <path d="M243.265 306.975L228.628 317.612C228.628 317.612 229.604 320.759 239.362 317.612C249.12 314.465 244.583 312.733 243.265 306.975Z"
          fill="#B5C1C9"/>
    <path d="M299.937 249.302L294.668 257.377C294.668 257.377 296.619 258.548 300.474 255.792C304.329 253.035 301.303 252.108 299.937 249.302Z"
          fill="#B5C1C9"/>
    <path d="M273.443 415.342C273.443 415.342 265.099 419.318 262.855 402.753C260.611 386.188 265.295 380.797 270.491 373.185C275.687 365.574 281.372 366.476 276.419 376.284C270.015 388.316 268.936 402.478 273.443 415.342Z"
          fill="white"/>
    <path d="M208.354 422.148C208.354 422.148 200.328 422.685 202.06 410.463C203.792 398.24 206.085 393.751 212.184 389.75C218.283 385.75 219.503 386.555 216.258 394.264C212.089 403.053 209.417 412.478 208.354 422.148Z"
          fill="white"/>
    <path d="M200.011 87.996C197.059 87.5569 187.813 95.3148 187.813 95.3148C189.497 98.779 196.889 105.073 196.889 105.073L200.011 87.996Z"
          fill="#B5C1C9"/>
    <path d="M314.209 48.2313C314.036 43.3902 312.882 38.6345 310.818 34.2524C310.818 34.2524 314.184 24.9575 318.307 24.3232C321.776 28.9054 324.508 34.0003 326.407 39.4244C326.161 41.7577 326.079 44.1056 326.163 46.4504C322.094 46.0998 317.999 46.7098 314.209 48.2313Z"
          fill="#B5C1C9"/>
    <path d="M321.284 171.308C321.284 171.308 327.773 156.329 331.554 148.864L320.844 133.787L321.284 171.308Z"
          fill="white"/>
    <path d="M354.999 284.311C357.438 283.238 368.709 272.113 368.709 272.113C364.05 273.406 359.634 267.625 359.634 267.625C357.755 269.82 352.51 285.36 354.999 284.311Z"
          fill="#B5C1C9"/>
    <path d="M331.944 303.535C335.861 300.499 339.6 297.241 343.142 293.776C340 294.299 336.794 294.299 333.652 293.776C332.457 294.996 330.407 304.145 331.944 303.535Z"
          fill="#B5C1C9"/>
    <path d="M308.793 327.32C310.647 328.101 320.844 313 320.844 313C316.08 316.599 310.822 319.491 305.231 321.587C304.898 324.103 306.39 326.504 308.793 327.32Z"
          fill="#B5C1C9"/>
    <path d="M322.967 70.7722C322.967 70.7722 322.796 74.6267 324.797 75.0903C326.797 75.5538 327.822 70.0647 327.602 68.2838C327.261 65.8442 325.163 61.5749 319.137 63.6485C313.111 65.7222 312.843 66.698 314.087 68.3326C315.331 69.9671 320.918 63.9901 322.967 70.7722Z"
          fill="white"/>
    <path d="M180.274 346.959L197.791 338.86C197.791 338.86 67.565 434.248 48.9752 434.248L180.274 346.959Z"
          fill="white"/>
    <path d="M84.5203 396.996C89.0179 395.57 93.1712 393.228 96.7183 390.116C100.207 387.482 105.33 384.822 107.526 380.968C107.667 380.707 107.642 380.389 107.464 380.152C107.285 379.916 106.985 379.806 106.696 379.87C102.5 380.944 98.6944 385.042 95.2546 387.628C91.8147 390.214 87.765 392.946 83.886 395.459C83.5637 395.69 83.4427 396.112 83.5939 396.479C83.7452 396.846 84.1289 397.06 84.5203 396.996Z"
          fill="white"/>
    <path d="M51.976 410.512C51.976 410.512 110.209 351.351 115.698 349.522C114.704 349.105 113.763 348.572 112.893 347.936C112.893 347.936 80.5925 374.552 50.927 404.559L51.976 410.512Z"
          fill="white"/>
    <path d="M390.349 85.7026C390.349 85.7026 381.371 86.0686 382.054 92.07C382.178 94.0463 383.181 95.8631 384.787 97.0208C386.394 98.1785 388.435 98.5551 390.349 98.047C390.349 98.047 394.423 97.7787 395.081 92.07C395.34 90.592 394.979 89.0727 394.084 87.8685C393.189 86.6643 391.838 85.8812 390.349 85.7026Z"
          fill="white"/>
    <path d="M272.37 87.7529C272.37 87.7529 263.929 88.0945 264.563 93.7543C264.685 95.6128 265.629 97.32 267.139 98.41C268.649 99.5001 270.567 99.8594 272.37 99.3898C272.37 99.3898 276.2 99.1215 276.834 93.7543C277.079 92.3606 276.739 90.9277 275.894 89.7923C275.049 88.657 273.775 87.9194 272.37 87.7529Z"
          fill="white"/>
    <path d="M377.565 98.6333C377.565 98.6333 372.686 98.8529 373.027 102.122C373.101 103.2 373.652 104.19 374.529 104.821C375.406 105.453 376.518 105.662 377.565 105.391C377.565 105.391 379.785 105.245 380.151 102.122C380.29 101.314 380.093 100.483 379.605 99.8241C379.116 99.165 378.379 98.7347 377.565 98.6333Z"
          fill="white"/>
    <path d="M259.586 99.853C259.586 99.853 254.707 100.073 255.048 103.342C255.123 104.42 255.673 105.409 256.55 106.041C257.427 106.673 258.54 106.882 259.586 106.611C259.586 106.611 261.806 106.464 262.172 103.342C262.312 102.533 262.114 101.703 261.626 101.044C261.137 100.385 260.4 99.9544 259.586 99.853Z"
          fill="white"/>
    <path d="M404.742 48.2302C401.349 46.7497 397.757 45.7717 394.081 45.3271C394.081 45.3271 399.668 37.7399 403.132 36.0078C403.132 36.0078 405.377 45.6198 404.742 48.2302Z"
          fill="#B5C1C9"/>
    <path d="M288.959 168.747C288.959 168.747 289.544 178.066 293.838 182.677C293.838 182.677 299.132 175.578 298.473 172.162L295.619 165.551C295.619 165.551 290.301 168.21 288.959 168.747Z"
          fill="#B5C1C9"/>
    <path d="M158.465 244.228C158.172 249.839 166.857 256.816 166.857 256.816C168.272 262.891 155.854 267.843 151.317 266.209C146.779 264.574 148.365 253.157 148.365 253.157L158.465 244.228Z"
          fill="white"/>
    <path d="M168.248 237.641C168.248 237.641 170.687 244.96 174.322 245.131C177.957 245.302 184.642 238.715 184.642 237.641C182.75 234.065 181.778 230.074 181.812 226.029C181.812 226.029 171.956 231.03 168.248 237.641Z"
          fill="white"/>
    <path d="M372.052 206.562C372.052 206.562 378.029 203.536 377.785 199.414C377.785 199.414 391.934 209.733 384.64 214.051C379.102 217.515 374.491 212.612 372.052 206.562Z"
          fill="#B5C1C9"/>
    <path d="M273.028 313C273.028 313 273.711 322.588 275.809 324.637C275.809 324.637 294.204 319.514 300.352 315.928C300.352 315.928 294.204 305.584 294.668 301.559C294.668 301.534 275.785 313.366 273.028 313Z"
          fill="#B5C1C9"/>
    <path d="M233.141 318.978C233.141 318.978 231.14 332.225 235.092 336.446C235.092 336.446 257.049 333.054 262.855 329.444C260.427 325.156 258.775 320.473 257.976 315.611C257.976 315.611 239.801 316.172 233.141 318.978Z"
          fill="#B5C1C9"/>
    <path d="M303.206 294.215C304.955 299.413 307.024 304.497 309.403 309.438C314.927 306.836 319.809 303.046 323.699 298.338C323.699 298.338 317.99 285.774 317.966 282.237C317.966 282.212 305.914 293.532 303.206 294.215Z"
          fill="#B5C1C9"/>
    <path d="M219.577 160.599C222.717 162.904 225.974 165.046 229.335 167.015C229.335 167.015 224.139 174.334 217.796 174.895C217.747 174.895 215.185 166.527 219.577 160.599Z"
          fill="#B5C1C9"/>
    <path d="M193.864 222.979C193.864 222.979 193.644 236.933 197.791 238.592C201.809 238.271 205.74 237.247 209.404 235.567C209.404 235.567 206.33 228.004 209.404 222.076C209.404 222.076 195.669 224.589 193.864 222.979Z"
          fill="white"/>
    <path d="M256.146 250.522C260.769 248.976 265.283 247.126 269.662 244.984C269.662 244.984 274.004 256.255 275.687 257.67C275.687 257.67 258.61 263.013 249.267 261.427C249.267 261.427 255.975 254.255 256.146 250.522Z"
          fill="white"/>
    <path d="M325.479 272.478C325.479 272.478 328.383 286.262 335.897 286.75C343.411 287.238 346.875 272.478 346.875 272.478C346.875 272.478 337.702 266.526 337.336 262.988C337.336 262.988 329.163 272.747 325.479 272.478Z"
          fill="#B5C1C9"/>
    <path d="M351.437 238.592C351.437 238.592 345.509 245.594 341.679 246.789C341.679 246.789 344.801 258.987 351.144 260.963C357.487 262.939 361.513 244.228 361.513 244.228C361.513 244.228 354.243 242.325 351.437 238.592Z"
          fill="#B5C1C9"/>
    <path d="M337.019 220.735C337.019 220.735 342.069 227.932 346.777 229.005C346.777 229.005 340.092 239.203 333.652 238.593C333.652 238.593 326.553 234.226 326.504 227.322C326.601 227.322 334.311 223.955 337.019 220.735Z"
          fill="#B5C1C9"/>
    <path d="M304.084 262.501C304.084 262.501 310.476 270.82 315.185 270.552C315.185 270.552 307.988 279.31 301.084 278.236C296.141 276.741 293.286 271.582 294.643 266.6C297.92 265.553 301.082 264.18 304.084 262.501Z"
          fill="#B5C1C9"/>
    <path d="M286.617 276.261C286.617 276.261 294.57 285.8 297.278 287.044C297.278 287.044 287.739 298.217 278.761 296.095C278.761 296.095 272.906 285.897 277.297 278.09C280.451 277.752 283.569 277.14 286.617 276.261Z"
          fill="#B5C1C9"/>
    <path d="M320.844 242.033C320.844 241.887 328.724 247.693 331.383 248.01C331.383 248.01 327.651 263.306 319.063 261.111C319.063 261.111 310.964 259.793 311.11 247.693C314.923 247.019 318.372 245.013 320.844 242.033Z"
          fill="#B5C1C9"/>
    <path d="M372.393 220.735C372.393 220.735 379.59 230.176 386.494 229.688C386.494 229.688 381.859 240.252 373.613 238.617C373.613 238.617 364.293 238.08 362.61 230.322C362.635 230.322 371.441 223.662 372.393 220.735Z"
          fill="#B5C1C9"/>
    <path d="M352.876 199.414C352.876 199.414 360.61 207.83 366.001 208.879C366.001 208.879 360.024 223.688 352.974 222.077C345.923 220.467 344.411 211.392 344.411 211.392C347.975 207.979 350.849 203.912 352.876 199.414Z"
          fill="#B5C1C9"/>
    <path d="M321.649 205.609C321.649 205.609 330.676 208.39 333.847 209.049C333.847 209.049 325.772 220.027 319.088 218.807C312.403 217.587 312.184 209.049 312.184 209.049C315.508 208.435 318.707 207.272 321.649 205.609Z"
          fill="#B5C1C9"/>
    <path d="M261.952 173.553C261.952 173.553 275.638 172.431 279.249 170.309C279.249 170.309 277.956 186.288 270.613 190.118C265.098 186.428 261.835 180.188 261.952 173.553Z"
          fill="#B5C1C9"/>
    <path d="M354.047 167.015L366.88 170.064C366.88 170.064 369.319 181.262 362.562 187.751C356.955 182.329 353.869 174.812 354.047 167.015Z"
          fill="#B5C1C9"/>
    <path d="M238.703 169.406C238.703 169.406 247.022 173.797 253.34 173.382C252.811 178.745 249.98 183.613 245.583 186.727C241.898 181.608 239.535 175.658 238.703 169.406Z"
          fill="#B5C1C9"/>
    <path d="M367.344 258.719C367.344 258.719 373.345 262.891 376.614 262.988C376.614 262.988 384.909 252.742 385.372 249.302C385.372 249.302 374.492 251.742 372.052 249.839C372.052 249.839 370.905 256.67 367.344 258.719Z"
          fill="#B5C1C9"/>
    <path d="M415.013 160.599C418.936 158.594 422.612 156.137 425.966 153.28C425.966 153.28 432.553 161.063 430.187 168.308C424.162 168.421 418.475 165.531 415.013 160.599Z"
          fill="#B5C1C9"/>
    <path d="M213.161 153.964C213.161 153.964 206.403 146.645 204.793 142.498C201.895 146.911 200.212 152.01 199.914 157.282C199.914 157.282 210.135 156.452 213.161 153.964Z"
          fill="#B5C1C9"/>
    <path d="M157.489 410.707C157.489 410.707 280.713 291.63 295.644 252.987C295.644 252.987 168.345 382.286 112.357 405.559L157.489 410.707Z"
          fill="black"/>
    <path d="M256.951 44.6934C261.55 44.8496 266.124 45.4377 270.613 46.45C270.613 46.45 266.051 33.9836 261.221 30.9585C261.221 30.9585 256.244 38.1797 256.951 44.6934Z"
          fill="#B5C1C9"/>
    <path d="M205.305 75.1147C205.305 75.1147 213.38 61.6237 217.747 59.8916C217.747 59.8916 204.378 60.7455 202.036 61.1846C202.036 61.1846 202.841 74.0169 205.305 75.1147Z"
          fill="#B5C1C9"/>
    <path d="M228.261 53.9396C228.261 53.9396 231.481 50.0606 243.362 46.45C243.362 46.45 234.824 41.1317 230.652 38.936C229.252 43.8222 228.449 48.8601 228.261 53.9396Z"
          fill="#B5C1C9"/>
    <path d="M416.648 54.1104C416.648 54.1104 427.748 61.0388 429.334 64.3567C430.103 59.0126 430.559 53.6282 430.7 48.231C425.592 48.9622 420.755 50.986 416.648 54.1104Z"
          fill="#B5C1C9"/>
    <path d="M437.433 136.422C437.433 136.422 433.042 145.693 430.114 146.888C430.114 146.888 434.481 155.354 444.459 150.426C445.104 144.777 442.347 139.282 437.433 136.422Z"
          fill="#B5C1C9"/>
    <path d="M440.409 129.128C445.188 128.892 449.934 128.206 454.584 127.078C454.584 127.078 449.924 117.32 444.996 114.271C443.903 119.347 442.369 124.319 440.409 129.128Z"
          fill="#B5C1C9"/>
    <path d="M442.239 91.9731C442.239 91.9731 445.874 101.732 444.679 107.513C444.679 107.513 453.949 103.854 457.511 98.6332C457.462 98.6332 450.07 92.2659 442.239 91.9731Z"
          fill="#B5C1C9"/>
    <path d="M434.798 72.3342C437.277 75.8265 439.41 79.5524 441.165 83.4587C444.295 79.905 447.142 76.1121 449.68 72.1146C444.741 71.3601 439.712 71.4343 434.798 72.3342Z"
          fill="#B5C1C9"/>
    <path d="M339.263 56.9649C339.263 56.9649 349.29 49.7681 356.121 45.938C353.758 39.6382 349.655 34.1391 344.289 30.0806C344.289 30.0806 336.092 38.0581 339.263 56.9649Z"
          fill="#B5C1C9"/>
    <path d="M365.879 43.6937C370.866 43.3455 375.872 43.3455 380.859 43.6937C381.296 38.109 379.477 32.5818 375.809 28.3486C371.065 32.3785 367.612 37.7151 365.879 43.6937Z"
          fill="#B5C1C9"/>
    <path d="M201.06 132.177C201.06 132.177 196.669 119.979 197.23 116.247C193.395 120.023 189.871 124.102 186.691 128.445C186.691 128.445 195.034 132.982 201.06 132.08"
          fill="#B5C1C9"/>
    <path d="M283.275 49.1094C289.739 50.6132 296.116 52.4701 302.377 54.6717C302.377 54.6717 297.01 37.3262 289.935 30.0806C289.935 30.0806 282.421 40.4977 283.275 49.1094Z"
          fill="#B5C1C9"/>
</svg>
