<svg width="512" height="512" viewBox="0 0 512 512" fill="none" xmlns="http://www.w3.org/2000/svg">
    <path d="M234.995 302.099V506.971L268.161 511.488L294.696 501.602V301.341L258.229 292.155L234.995 302.099Z"
          fill="black" stroke="black"/>
    <path d="M242.726 499.316V383.102L256.26 490.387L264.893 378.989L265.36 370.11C266.003 363.113 267.375 359.036 269.475 357.88C271.576 356.723 275.348 356.723 280.792 357.88V494.752L264.72 501.808L242.726 499.316Z"
          fill="#B5C1C9"/>
    <path fill-rule="evenodd" clip-rule="evenodd"
          d="M257.129 300.802C252.843 336.947 250.571 384.375 250.313 443.085C250.056 501.794 247.527 520.689 242.725 499.769L262.273 501.808L257.129 300.802Z"
          fill="white"/>
    <path d="M234.995 302.099V506.971L268.161 511.488L294.696 501.602V301.341L258.229 292.155L234.995 302.099Z"
          fill="black" stroke="black"/>
    <path d="M242.726 499.316V383.102L256.26 490.387L264.893 378.989L265.36 370.11C266.003 363.113 267.375 359.036 269.475 357.88C271.576 356.723 275.348 356.723 280.792 357.88V494.752L264.72 501.808L242.726 499.316Z"
          fill="#B5C1C9"/>
    <path fill-rule="evenodd" clip-rule="evenodd" d="M257.129 300.802L242.725 499.769L262.273 501.808L257.129 300.802Z"
          fill="white"/>
    <path d="M284.139 262.685V5.02932L250.973 0.512368L224.438 10.398V263.443L260.905 272.629L284.139 262.685Z"
          fill="black" stroke="black"/>
    <path d="M276.409 12.6845V181.681L262.874 21.6132L254.241 185.794L253.774 194.673C253.131 201.671 251.759 205.748 249.659 206.904C247.558 208.06 243.786 208.06 238.342 206.904V17.2483L254.414 10.1919L276.409 12.6845Z"
          fill="#B5C1C9"/>
    <path fill-rule="evenodd" clip-rule="evenodd"
          d="M262.005 263.981C266.291 227.836 268.563 180.409 268.821 121.699C269.078 62.9895 271.607 26.5 276.409 12.2307L256.861 10.1922L262.005 263.981Z"
          fill="white"/>
    <path d="M284.139 262.685V5.02932L250.973 0.512368L224.438 10.398V263.443L260.905 272.629L284.139 262.685Z"
          fill="black" stroke="black"/>
    <path d="M276.409 12.6845V181.681L262.874 21.6132L254.241 185.794L253.774 194.673C253.131 201.671 251.759 205.748 249.659 206.904C247.558 208.06 243.786 208.06 238.342 206.904V17.2483L254.414 10.1919L276.409 12.6845Z"
          fill="#B5C1C9"/>
    <path fill-rule="evenodd" clip-rule="evenodd"
          d="M262.005 263.981C266.291 227.836 268.563 180.409 268.821 121.699C269.078 62.9895 271.607 26.5 276.409 12.2307L256.861 10.1922L262.005 263.981Z"
          fill="white"/>
    <path fill-rule="evenodd" clip-rule="evenodd" d="M53.0515 91.2491V381.842L472.68 280.238V49.5535L53.0515 91.2491Z"
          fill="#DAE2EB" stroke="#7B8A95"/>
    <path d="M26.5 384.515V70.4909L458.53 28.2219L486.033 40.4287L483.877 293.129L54.6752 396.671L26.5 384.515Z"
          fill="black" stroke="black"/>
    <path d="M36.5567 79.4353V285.195L52.8805 90.3064L55.9412 386.639L475.259 285.624L477.299 46.8595L457.914 38.2681L36.5567 79.4353Z"
          fill="#B5C1C9"/>
    <path fill-rule="evenodd" clip-rule="evenodd" d="M53.7113 87.2456L474.66 46.1855V282.895L53.7113 385.32V87.2456Z"
          fill="#B5C1C9"/>
    <path d="M71.366 356.98V109.706L455.686 67.8565V268.131L71.366 356.98Z" fill="black" stroke="black"/>
    <path fill-rule="evenodd" clip-rule="evenodd"
          d="M160.384 148.198C222.604 148.198 212.241 112.198 286.865 103.414C336.614 97.5578 393.054 87.7188 456.186 73.897V266.129L78.7835 353.65L80.8235 237.766C80.8235 200.326 98.1636 148.198 160.384 148.198Z"
          fill="#B5C1C9"/>
    <path d="M306.241 271.638L295.726 112.61L426.936 98.1765L431.933 104.423V250.322L311.217 277.51L306.241 271.638Z"
          fill="black" stroke="black"/>
    <path fill-rule="evenodd" clip-rule="evenodd" d="M305.753 120.649L427.155 97.6494V244.124L305.753 271.467V120.649Z"
          fill="#B5C1C9"/>
    <path d="M337.99 148.627L328.855 150.248C328.808 148.651 328.756 147.052 328.7 145.458L345.755 141.812L346.157 176.331H346.157L346.157 176.339C346.196 177.722 345.852 179.143 345.218 180.255L345.214 180.262L345.211 180.269C344.129 182.318 341.985 183.92 339.362 184.701L331.699 186.777L329.777 181.196L334.605 179.757L334.615 179.754L334.625 179.75C337.044 178.915 338.732 177.007 338.732 174.668L338.732 174.665L338.577 149.116L338.574 148.523L337.99 148.627Z"
          fill="black" stroke="black"/>
    <path d="M366.239 159.319C366.18 159.258 366.124 159.163 366.163 158.96C383.629 152.791 395.288 149.235 401.18 148.263C403.42 147.894 405.113 147.646 406.234 147.553C406.499 147.532 406.725 147.519 406.913 147.515C406.617 147.709 406.205 147.946 405.668 148.229C404.388 148.906 402.454 149.817 399.817 151.005C389.342 155.722 383.171 157.003 373.946 158.917L373.879 158.931C370.791 159.572 368.627 159.806 367.34 159.674C366.683 159.606 366.366 159.452 366.239 159.319ZM407.41 147.121C407.41 147.121 407.409 147.122 407.407 147.124C407.409 147.122 407.41 147.121 407.41 147.121Z"
          fill="black" stroke="black"/>
    <path d="M415.294 162.455C415.296 162.48 415.295 162.525 415.274 162.595C393.352 169.352 378.721 173.329 371.349 174.542C368.56 175.001 366.443 175.32 365.041 175.462C364.75 175.491 364.494 175.513 364.272 175.526C364.64 175.337 365.119 175.112 365.716 174.849C367.335 174.136 369.771 173.168 373.086 171.903C386.272 166.871 393.988 165.348 405.498 163.078L405.582 163.061C409.434 162.301 412.156 161.969 413.784 162.038C414.187 162.055 414.508 162.097 414.754 162.157C415.005 162.217 415.148 162.29 415.223 162.35C415.285 162.399 415.291 162.431 415.294 162.455Z"
          fill="black" stroke="black"/>
    <path d="M414.755 178.52C414.745 178.539 414.731 178.565 414.71 178.596C375.675 190.034 349.587 197.145 336.428 199.935C331.478 200.985 327.704 201.755 325.192 202.198C324.654 202.293 324.177 202.372 323.76 202.436C324.406 202.174 325.218 201.864 326.203 201.502C329.091 200.441 333.428 198.953 339.312 196.986C362.765 189.145 376.503 185.979 396.939 181.269L397.09 181.235C403.931 179.658 408.826 178.734 411.795 178.451C412.535 178.38 413.146 178.35 413.633 178.359C414.127 178.368 414.459 178.416 414.66 178.482C414.702 178.496 414.733 178.509 414.755 178.52ZM414.804 178.548C414.808 178.551 414.81 178.553 414.81 178.553C414.809 178.553 414.807 178.552 414.804 178.548Z"
          fill="black" stroke="black"/>
    <path d="M414.755 194.641C414.745 194.661 414.731 194.686 414.71 194.718C375.675 206.156 349.587 213.267 336.428 216.057C331.478 217.107 327.704 217.877 325.192 218.32C324.654 218.415 324.177 218.494 323.76 218.558C324.406 218.296 325.218 217.986 326.203 217.624C329.091 216.563 333.428 215.075 339.312 213.108C362.765 205.267 376.503 202.101 396.939 197.391L397.09 197.356C403.931 195.78 408.826 194.855 411.795 194.573C412.535 194.502 413.146 194.472 413.633 194.481C414.127 194.49 414.459 194.538 414.66 194.604C414.702 194.618 414.733 194.631 414.755 194.641ZM414.804 194.67C414.808 194.673 414.81 194.675 414.81 194.675C414.809 194.675 414.807 194.673 414.804 194.67Z"
          fill="black" stroke="black"/>
    <path d="M366.252 144.523C366.18 144.394 366.137 144.219 366.154 143.978C371.504 141.851 375.979 140.216 379.579 139.071C383.249 137.904 385.981 137.256 387.8 137.104C389.209 136.986 390.256 136.932 390.94 136.968C391.139 136.978 391.292 136.995 391.405 137.016C391.397 137.024 391.389 137.033 391.38 137.042C391.211 137.211 390.941 137.428 390.551 137.699C389.774 138.241 388.589 138.951 386.957 139.869C380.52 143.492 376.692 144.082 370.916 144.973L370.873 144.979C368.944 145.277 367.645 145.252 366.895 144.987C366.535 144.86 366.347 144.693 366.252 144.523ZM391.55 136.831C391.55 136.831 391.55 136.831 391.55 136.832L391.55 136.831Z"
          fill="black" stroke="black"/>
    <path d="M322.216 237.547C322.13 237.46 322.071 237.347 322.091 237.157C340.017 231.524 352.015 228.342 358.126 227.586C360.451 227.298 362.21 227.114 363.379 227.065C363.727 227.051 364.01 227.049 364.235 227.058C363.935 227.251 363.502 227.488 362.923 227.774C361.622 228.419 359.65 229.278 356.956 230.394C346.257 234.826 339.869 235.89 330.317 237.481L330.249 237.492C327.054 238.024 324.798 238.176 323.437 237.985C322.746 237.887 322.381 237.713 322.216 237.547ZM364.667 226.718C364.667 226.718 364.666 226.72 364.664 226.723C364.666 226.72 364.667 226.718 364.667 226.718Z"
          fill="black" stroke="black"/>
    <path fill-rule="evenodd" clip-rule="evenodd"
          d="M449.05 76.0389L456.186 67.2991V268.318L70.866 357.608L79.0209 349.031L449.115 263.146L449.05 76.0389Z"
          fill="white"/>
    <path fill-rule="evenodd" clip-rule="evenodd"
          d="M53.1026 385.32C48.2756 330.577 45.5537 272.834 44.9368 212.089C44.32 151.345 44.32 108.573 44.9368 83.774L456.287 38.268L474.66 46.4201L52.0168 88.9481L53.1026 385.32Z"
          fill="white"/>
    <path d="M43.9742 100.853V86.026L30.4644 76.0982L30.9603 164.064C33.0085 136.43 34.7083 116.471 36.0597 104.192C36.4478 100.666 36.907 97.9954 37.4439 96.2016C37.7112 95.3084 38.0078 94.5975 38.3467 94.1023C38.68 93.6154 39.1301 93.2339 39.7134 93.252C40.2688 93.2692 40.7386 93.648 41.1284 94.1327C41.5316 94.6342 41.9332 95.3529 42.3386 96.2644C42.8591 97.4351 43.4041 98.9661 43.9742 100.853Z"
          fill="black" stroke="black"/>
    <path d="M120.392 180.479L120.395 180.454V180.429C120.395 167.533 119.576 159.408 117.81 152.024C116.297 145.702 114.091 139.932 111.135 132.202C110.713 131.099 110.276 129.956 109.824 128.766C114.439 128.088 126.391 125.882 141.033 123.179C145.882 122.284 151.027 121.334 156.298 120.367C178.276 116.336 202.466 112.007 216.713 110.077C218.69 109.809 220.621 110.609 222.44 112.287C224.263 113.968 225.932 116.497 227.348 119.575C230.179 125.727 231.944 133.951 231.944 141.59C231.944 143.85 232.387 147.524 232.997 152.094C233.135 153.133 233.283 154.221 233.436 155.351C233.958 159.206 234.548 163.555 235.083 168.188C236.468 180.173 237.485 193.999 236.038 205.91C233.899 223.525 232.256 241.505 232.256 253.342V253.914L232.823 253.837C233.922 253.688 234.892 253.525 235.742 253.381C236.094 253.322 236.426 253.266 236.738 253.216C237.819 253.043 238.659 252.942 239.372 252.981C240.068 253.019 240.631 253.191 241.164 253.566C241.708 253.949 242.252 254.567 242.863 255.551C243.81 257.077 244.537 259.279 245.052 261.979C245.565 264.671 245.862 267.823 245.971 271.224C246.188 278.027 245.652 285.79 244.612 292.793C243.848 297.937 242.816 302.655 241.619 306.273C241.02 308.082 240.384 309.603 239.729 310.759C239.065 311.929 238.414 312.665 237.814 312.989C235.086 314.464 230.517 315.678 224.8 316.66C219.099 317.639 212.313 318.38 205.191 318.932C190.948 320.035 175.393 320.381 164.557 320.381C151.818 320.381 142.636 319.043 135.9 316.803C130.058 314.861 126.059 312.243 123.171 309.231C120.279 306.216 118.476 302.782 117.06 299.171L117.057 299.165C116.206 297.082 115.571 294.015 115.127 290.166C114.684 286.326 114.434 281.741 114.339 276.641C114.148 266.441 114.574 254.209 115.288 241.811C116.636 218.393 119.012 194.41 120.196 182.458C120.266 181.756 120.331 181.095 120.392 180.479Z"
          fill="black" stroke="black"/>
    <path fill-rule="evenodd" clip-rule="evenodd"
          d="M122.387 131.975L214.295 116.728C221.297 120.858 224.799 134.632 224.799 158.05C224.799 181.467 221.297 212.362 214.295 250.734C166.764 259.391 140.796 264.348 136.392 265.605C131.988 266.863 128.036 270.451 124.536 276.368C123.006 244.457 124.045 217.733 127.653 196.195C129.751 183.665 130.313 161.229 127.653 148.899C125.879 140.678 124.124 135.037 122.387 131.975Z"
          fill="#B5C1C9"/>
    <path d="M148.19 164.837C148.187 164.81 148.188 164.759 148.214 164.679C174.724 157.938 192.439 154.019 201.389 152.91C204.769 152.491 207.339 152.205 209.047 152.091C209.547 152.058 209.965 152.04 210.303 152.037C209.837 152.253 209.194 152.514 208.362 152.826C206.408 153.558 203.467 154.545 199.468 155.829C183.548 160.942 174.192 162.379 160.25 164.519L160.149 164.535C155.483 165.251 152.165 165.537 150.163 165.411C149.138 165.347 148.565 165.179 148.313 164.995C148.208 164.918 148.194 164.865 148.19 164.837Z"
          fill="black" stroke="black"/>
    <path fill-rule="evenodd" clip-rule="evenodd"
          d="M132.957 147.832C125.13 139.236 127.389 134.427 122.387 132.007L213.551 116.728C217.791 119.32 220.737 125.584 222.389 135.518C167.985 149.458 138.174 153.562 132.957 147.832Z"
          fill="white"/>
    <path fill-rule="evenodd" clip-rule="evenodd"
          d="M221.764 255.973C223.33 255.766 225.756 258.578 227.551 263.532C230.41 271.425 225.676 275.865 220.452 278.874C207.494 282.018 166.188 291.209 165.228 289.611C148.603 295.955 141.458 297.236 143.793 293.452C145.639 290.46 145.103 288.952 145.187 282.447C145.294 274.078 140.236 272.057 139.255 271.142L221.764 255.973Z"
          fill="white"/>
    <path fill-rule="evenodd" clip-rule="evenodd"
          d="M230.23 278.909C227.685 287.359 182.069 292.35 169.855 295.089C157.641 297.827 138.301 302.798 140.657 298.992C141.685 297.331 143.896 293.026 148.841 289.789C152.026 287.703 180.149 275.833 202.146 270.872C216.811 267.564 224.854 263.795 226.274 259.564C233.082 266.736 230.231 276.412 230.23 278.909Z"
          fill="#B5C1C9"/>
    <path fill-rule="evenodd" clip-rule="evenodd"
          d="M135.788 277.568C137.535 279.541 138.27 282.244 137.994 285.677C137.928 286.491 137.837 287.284 137.722 288.052L129.637 289.571C129.583 289.22 129.62 287.257 129.95 285.668C130.229 284.33 131.077 281.582 132.713 279.758C134.039 278.278 135.626 277.581 135.788 277.568Z"
          fill="#B5C1C9"/>
    <path d="M148.19 164.837C148.187 164.81 148.188 164.759 148.214 164.679C174.724 157.938 192.439 154.019 201.389 152.91C204.769 152.491 207.339 152.205 209.047 152.091C209.547 152.058 209.965 152.04 210.303 152.037C209.837 152.253 209.194 152.514 208.362 152.826C206.408 153.558 203.467 154.545 199.468 155.829C183.548 160.942 174.192 162.379 160.25 164.519L160.149 164.535C155.483 165.251 152.165 165.537 150.163 165.411C149.138 165.347 148.565 165.179 148.313 164.995C148.208 164.918 148.194 164.865 148.19 164.837Z"
          fill="black" stroke="black"/>
    <path d="M148.193 198.16C148.184 198.086 148.189 197.992 148.217 197.875C170.172 191.109 184.838 187.267 192.255 186.324C195.067 185.966 197.198 185.733 198.611 185.665C199.145 185.64 199.558 185.639 199.858 185.66C199.835 185.676 199.809 185.692 199.783 185.709C199.399 185.957 198.814 186.269 198.006 186.654C196.396 187.421 193.965 188.446 190.654 189.776C177.491 195.061 169.732 196.366 158.148 198.313L158.064 198.328C154.187 198.979 151.451 199.181 149.811 198.967C148.977 198.858 148.532 198.654 148.334 198.449C148.247 198.359 148.205 198.267 148.193 198.16ZM200.229 185.355C200.229 185.355 200.229 185.356 200.228 185.356L200.229 185.355Z"
          fill="black" stroke="black"/>
    <path d="M211.044 203.097C211.048 203.129 211.045 203.188 211.01 203.28C183.461 210.032 165.065 213.94 155.791 215.018C152.29 215.425 149.628 215.701 147.861 215.806C147.316 215.838 146.866 215.854 146.507 215.853C146.999 215.628 147.69 215.354 148.593 215.026C150.629 214.286 153.691 213.291 157.852 211.997C174.418 206.848 184.117 205.436 198.569 203.332L198.674 203.317C203.511 202.613 206.946 202.343 209.013 202.487C209.527 202.522 209.943 202.583 210.267 202.664C210.596 202.746 210.802 202.842 210.92 202.93C211.027 203.01 211.041 203.065 211.044 203.097ZM145.607 215.777C145.604 215.776 145.605 215.776 145.608 215.777L145.607 215.777ZM145.72 216.293C145.717 216.296 145.717 216.297 145.72 216.294L145.72 216.293Z"
          fill="black" stroke="black"/>
    <path d="M148.325 181.32C148.224 181.157 148.169 180.946 148.195 180.664C162.044 176.216 171.281 173.915 175.97 173.713C177.771 173.636 179.121 173.615 180.01 173.683C180.371 173.711 180.628 173.752 180.8 173.798C180.773 173.824 180.741 173.852 180.705 173.883C180.483 174.073 180.132 174.312 179.631 174.605C178.632 175.19 177.112 175.949 175.026 176.924C166.772 180.782 161.855 181.301 154.462 182.082L154.41 182.088C151.941 182.349 150.237 182.275 149.23 181.929C148.735 181.759 148.462 181.542 148.325 181.32ZM180.934 173.638C180.934 173.638 180.934 173.639 180.934 173.639L180.934 173.638Z"
          fill="black" stroke="black"/>
    <path d="M128.123 251.487L128.433 252.426C130.848 252.017 132.828 251.737 134.374 251.583C136.034 251.418 137.357 251.3 138.33 251.239C137.306 251.591 135.838 252.046 133.896 252.622C130.546 253.616 127.693 254.324 124.988 254.879L125.052 255.867C125.485 255.899 125.941 255.939 126.422 255.99C127.495 256.104 129.007 256.325 130.135 256.515C129.552 256.646 128.884 256.811 128.245 257.029C127.318 257.344 125.793 257.611 123.639 257.819L122.81 249.528C125.966 248.51 128.411 247.927 130.16 247.761C131.666 247.618 133.079 247.342 134.146 247.134C134.419 247.08 134.67 247.031 134.894 246.99C134.93 246.983 134.965 246.977 135 246.971C134.971 246.994 134.941 247.018 134.91 247.043C134.561 247.321 134.121 247.655 133.638 248.009C132.672 248.718 131.549 249.496 130.669 250.045C129.781 250.598 128.937 251.074 128.123 251.487Z"
          fill="black" stroke="black"/>
    <path d="M216.566 126.282C215.719 126.367 214.851 126.546 214.132 126.707C215.327 125.898 217.155 124.722 218.42 123.976C218.928 123.676 219.411 123.4 219.873 123.147L219.517 122.222C216.438 122.956 213.159 123.59 209.267 124.153C206.759 124.515 204.924 124.751 203.714 124.856C203.674 124.86 203.635 124.863 203.596 124.866C203.646 124.845 203.697 124.824 203.75 124.803C204.846 124.353 206.49 123.752 208.653 122.991C210.37 122.387 212.59 121.708 215.314 120.956L215.209 119.975C214.218 119.918 213.179 119.805 212.07 119.628C210.972 119.452 209.55 119.139 208.315 118.825C207.698 118.669 207.133 118.513 206.682 118.376C206.521 118.327 206.38 118.281 206.259 118.24C206.431 118.188 206.633 118.133 206.863 118.073C207.117 118.007 207.402 117.936 207.713 117.859C208.924 117.558 210.523 117.161 212.185 116.567C214.105 115.882 216.865 115.317 220.482 114.881L221.839 124.834C219.415 125.697 217.666 126.17 216.566 126.282ZM205.681 118.466C205.681 118.466 205.682 118.465 205.683 118.464C205.682 118.465 205.681 118.466 205.681 118.466Z"
          fill="black" stroke="black"/>
    <path d="M228.659 158.937L225.414 179.601C210.013 174.663 198.486 171.03 190.835 168.702C184.8 166.866 180.704 165.11 178.091 163.277C175.497 161.458 174.413 159.599 174.295 157.536C174.252 156.778 174.307 156.213 174.508 154.939L174.508 154.939L174.532 154.789L174.532 154.789C174.948 152.139 176.359 149.954 178.751 148.275L178.463 147.866L178.751 148.275L178.969 148.122L228.659 158.937Z"
          fill="black" stroke="black"/>
    <path d="M243.777 198.074L243.812 197.665L243.418 197.551L223.75 191.83L226.049 171.204L249.938 177.832L250.293 177.931L250.492 177.621C252.203 174.961 254.071 172.916 255.922 171.655C257.773 170.395 259.558 169.949 261.15 170.375C263.731 171.066 265.608 174.021 266.392 178.582C267.168 183.097 266.829 188.994 265.167 195.19C263.505 201.387 260.846 206.662 257.914 210.185C254.951 213.744 251.846 215.366 249.265 214.675C247.277 214.143 245.705 212.277 244.724 209.325C243.747 206.388 243.394 202.476 243.777 198.074Z"
          fill="black" stroke="black"/>
    <path d="M177.329 157.461L177.329 157.461L177.253 157.329L177.253 157.329C175.909 155.009 175.631 152.424 176.435 149.615L175.955 149.478L176.435 149.615L176.513 149.343L255.075 103.9L265.584 122.039L264.976 122.391C231.965 141.515 209.897 153.326 198.685 157.874C192.838 160.246 188.547 161.46 185.362 161.682C182.199 161.901 180.188 161.139 178.798 159.612C178.287 159.05 177.975 158.577 177.329 157.461Z"
          fill="black" stroke="black"/>
    <path fill-rule="evenodd" clip-rule="evenodd"
          d="M256.17 107.393L262.648 118.576C239.783 132.015 221.814 141.314 208.741 146.473C195.668 151.632 186.14 153.184 180.158 151.129L256.17 107.393Z"
          fill="#B5C1C9"/>
    <path fill-rule="evenodd" clip-rule="evenodd"
          d="M254.388 109.319L256.963 113.763C238.426 124.463 225.597 131.393 218.474 134.552C211.351 137.711 206.314 139.048 203.361 138.562L254.388 109.319Z"
          fill="white"/>
    <path fill-rule="evenodd" clip-rule="evenodd"
          d="M218.552 132.221L219.582 133.999C210.038 139.504 203.456 143.11 199.836 144.817C196.216 146.525 193.701 147.347 192.29 147.285L218.552 132.221Z"
          fill="white"/>
    <path d="M231.77 127.545L254.969 114.237L255.499 115.151C246.187 120.516 239.767 124.029 236.223 125.7C234.467 126.528 232.984 127.142 231.77 127.545Z"
          fill="black" stroke="black"/>
    <path d="M254.851 116.616C251.68 111.356 250.208 105.742 250.412 100.931C250.616 96.1176 252.489 92.1677 255.942 90.0991C259.394 88.0314 263.771 88.2374 268.129 90.3176C272.485 92.3965 276.765 96.3272 279.935 101.586C283.105 106.845 284.577 112.459 284.373 117.27C284.169 122.084 282.297 126.034 278.843 128.102C275.391 130.17 271.014 129.964 266.656 127.884C262.3 125.805 258.02 121.874 254.851 116.616Z"
          fill="black" stroke="black"/>
    <path fill-rule="evenodd" clip-rule="evenodd"
          d="M260.023 113.921C264.98 121.841 272.006 126.718 276.521 125.657C276.351 125.791 276.171 125.913 275.981 126.022C271.617 128.532 263.658 123.501 258.204 114.788C252.75 106.074 251.865 96.9756 256.228 94.4665C256.626 94.2379 257.053 94.0719 257.506 93.9656C253.77 96.9041 254.807 105.588 260.023 113.921Z"
          fill="#B5C1C9"/>
    <path d="M262.535 112.376C267.354 120.396 274.6 124.892 278.718 122.418C282.836 119.943 282.268 111.435 277.449 103.414C272.63 95.3938 265.384 90.8979 261.266 93.3725C257.147 95.8471 257.716 104.355 262.535 112.376Z"
          fill="#B5C1C9"/>
    <path fill-rule="evenodd" clip-rule="evenodd"
          d="M261.378 93.6398C264.855 91.6062 271.107 95.5257 275.342 102.395C275.479 102.617 275.613 102.84 275.743 103.063C275.78 105.546 275.044 107.488 273.491 108.396C270.013 110.43 263.761 106.51 259.526 99.6414C259.389 99.418 259.255 99.1942 259.125 98.9702C259.089 96.4883 259.826 94.5478 261.378 93.6398Z"
          fill="white"/>
    <path d="M266.94 107.561C266.499 108.249 266.086 108.827 265.703 109.299L272.061 96.288L272.702 96.6017C270.054 102.054 268.135 105.699 266.94 107.561Z"
          fill="black" stroke="black"/>
    <path d="M269.903 102.457L281.783 110.819L281.378 111.397C276.392 107.905 273.08 105.424 271.42 103.944C270.814 103.403 270.309 102.908 269.903 102.457Z"
          fill="black" stroke="black"/>
    <path d="M267.61 106.715L267.942 106.341L267.61 106.715C267.978 107.04 268.28 107.33 268.522 107.584C265.957 105.762 264.229 104.436 263.321 103.598C263.175 103.463 263.039 103.333 262.913 103.207C264.875 104.508 266.439 105.678 267.61 106.715Z"
          fill="black" stroke="black"/>
    <path d="M278.796 119.251C279.885 120.172 280.651 120.911 281.117 121.473C276.53 118.247 273.45 115.942 271.86 114.551C271.241 114.01 270.726 113.517 270.31 113.071C273.876 115.42 276.703 117.48 278.796 119.251Z"
          fill="black" stroke="black"/>
    <path d="M272.406 114.59C272.035 115.124 271.686 115.56 271.358 115.903L277.653 102.812L278.296 103.127C275.318 109.415 273.36 113.217 272.406 114.59Z"
          fill="black" stroke="black"/>
    <path fill-rule="evenodd" clip-rule="evenodd"
          d="M311.031 127.247V279.753L305.753 271.467V120.649L427.155 97.6494L432.433 104.247L311.031 127.247Z"
          fill="white"/>
</svg>
