<svg width="512" height="512" viewBox="0 0 512 512" fill="none" xmlns="http://www.w3.org/2000/svg">
    <g clip-path="url(#clip0_1007_3743)">
        <path d="M497.547 342.611H0V352.905H497.547V342.611Z" fill="#B5C1C9" stroke="black" stroke-width="3.564"/>
        <path fill-rule="evenodd" clip-rule="evenodd" d="M47.9729 319.735H460.539L497.547 342.039H0L47.9729 319.735Z"
              fill="white" stroke="black" stroke-width="3.168" stroke-linejoin="round"/>
        <path d="M73.1304 327.258V191.679H109.705H110.205V191.179V176.222H144.284H144.784V175.722V160.764H178.863H179.363V160.264L179.363 144.075L261.245 141.25V157.404V157.904H261.745H279.167H279.667V157.404V141.233H326.763V172.862V173.362H327.263H361.342V188.32V188.82H361.842H388.414H388.914V188.32V173.362H434.139V319.735V320.115L434.504 320.217C460.977 327.602 477.341 332.551 483.636 335.069C485.203 335.695 486.47 336.302 487.445 336.886C488.425 337.473 489.08 338.02 489.453 338.518C489.817 339.003 489.889 339.403 489.793 339.757C489.696 340.112 489.404 340.519 488.813 340.962L73.1304 327.258Z"
              fill="black" stroke="black"/>
        <path d="M340.142 168.378L339.945 168.457L339.865 168.654C338.925 170.961 336.533 172.383 334.009 172.043C327.507 171.169 322.505 170.46 318.998 169.916C318.575 169.85 317.824 169.767 316.918 169.667L316.729 169.646C315.731 169.535 314.553 169.404 313.378 169.249C312.202 169.094 311.036 168.917 310.064 168.717C309.067 168.512 308.348 168.297 308.008 168.093C307.825 167.982 307.625 167.865 307.414 167.74C306.524 167.215 305.424 166.565 304.419 165.831C303.8 165.378 303.233 164.903 302.785 164.419C302.334 163.932 302.029 163.462 301.896 163.022C301.737 162.49 301.726 161.694 301.78 160.859C301.815 160.317 301.872 159.817 301.921 159.392C301.932 159.297 301.942 159.206 301.952 159.118C305.258 158.309 307.479 157.828 308.637 157.667C308.97 157.621 309.247 157.462 309.424 157.189C309.585 156.94 309.626 156.651 309.63 156.403C309.636 155.999 309.538 155.512 309.454 155.098C309.438 155.018 309.422 154.941 309.408 154.868C309.36 154.623 309.324 154.408 309.312 154.223C309.299 154.032 309.315 153.924 309.335 153.872C309.34 153.857 309.341 153.854 309.343 153.854C309.344 153.853 309.346 153.854 309.35 153.853C309.392 153.84 309.522 153.822 309.803 153.891C310.513 154.067 311.427 154.679 312.548 155.847C313.657 157.002 314.92 158.648 316.337 160.797L316.484 161.02L316.75 161.022L336.087 161.152L336.302 161.153L336.451 160.997L345.013 152.01C348.904 149.712 351.982 148.099 354.254 147.16C355.398 146.687 356.318 146.393 357.025 146.264C357.755 146.13 358.159 146.192 358.352 146.302C359.175 146.774 359.807 147.941 359.561 149.902C359.316 151.859 358.192 154.526 355.608 157.776C352.187 162.078 347.045 165.619 340.142 168.378Z"
              fill="black" stroke="black"/>
        <path d="M334.281 164.156C334.88 165.763 334.918 166.926 334.394 167.645C333.609 168.723 330.581 170.266 329.085 169.88C324.616 168.724 332.117 167.697 327.536 165.419C325.632 164.338 327.855 163.937 334.205 164.217L334.281 164.156Z"
              fill="white"/>
        <path d="M342.404 180.814L342.404 180.814C342.404 180.811 342.405 180.828 342.418 180.871C342.43 180.912 342.451 180.966 342.485 181.036C342.553 181.176 342.659 181.353 342.81 181.566C343.111 181.992 343.564 182.527 344.162 183.139C345.357 184.363 347.101 185.868 349.292 187.396C353.674 190.454 359.804 193.583 366.826 194.76C370.641 195.399 376.459 195.759 381.312 195.782C383.738 195.794 385.906 195.721 387.451 195.56C388.228 195.48 388.823 195.379 389.208 195.264C389.347 195.223 389.44 195.185 389.499 195.156L390.58 173.549C390.387 171.64 390.249 169.492 390.107 167.293C390.05 166.406 389.992 165.51 389.93 164.618C389.713 161.489 389.441 158.398 388.955 155.809C388.304 152.339 385.204 150.903 381.898 149.533C381.019 149.171 380.143 148.841 379.27 148.511C377.04 147.669 374.837 146.838 372.693 145.527L372.468 145.389L372.455 145.125C372.433 144.68 372.381 144.258 372.326 143.817C372.293 143.545 372.259 143.265 372.23 142.969C372.157 142.222 372.13 141.432 372.307 140.619L372.334 140.494L372.418 140.397L372.528 140.271L372.667 140.111L372.878 140.099C373.136 140.085 373.285 140.024 373.377 139.96C373.47 139.897 373.543 139.806 373.608 139.67C373.677 139.527 373.726 139.353 373.779 139.134C373.79 139.091 373.8 139.044 373.812 138.996C373.842 138.868 373.874 138.727 373.913 138.589C373.656 137.598 374.04 136.838 374.437 136.216C374.521 136.084 374.601 135.965 374.677 135.852C374.802 135.666 374.918 135.494 375.03 135.299C375.198 135.005 375.316 134.725 375.359 134.427L375.36 134.42L375.36 134.42C375.625 132.726 375.273 130.664 374.511 128.694C373.752 126.727 372.606 124.908 371.346 123.694L371.337 123.685L371.337 123.685C370.74 123.079 369.783 122.716 368.578 122.603C367.38 122.49 365.993 122.632 364.611 122.978C363.229 123.324 361.873 123.868 360.737 124.543C359.594 125.223 358.71 126.013 358.226 126.835L358.196 126.886L358.155 126.928C356.772 128.363 356.636 130.574 357.831 132.158L357.96 132.329L357.925 132.541C357.781 133.404 357.994 134.212 358.295 135.104C358.336 135.227 358.38 135.354 358.425 135.482C358.691 136.246 358.984 137.09 359.028 137.98L359.032 138.058L359.012 138.134C358.834 138.792 358.978 139.33 359.279 139.831C359.547 140.277 359.92 140.666 360.309 141.072C360.381 141.147 360.454 141.223 360.527 141.3L360.528 141.302C360.852 141.647 361.012 142.029 361.013 142.436C361.013 142.822 360.871 143.173 360.708 143.47C360.565 143.73 360.383 143.989 360.219 144.224C360.196 144.257 360.173 144.289 360.151 144.32C359.96 144.593 359.798 144.836 359.688 145.073L359.661 145.129L359.622 145.177C359.009 145.929 358.15 145.991 357.522 146.036L357.509 146.037C356.813 146.087 356.374 146.127 356.046 146.476L356.002 146.523L355.948 146.558L355.122 147.076L355.059 147.116L354.987 147.135C354.288 147.326 353.903 147.641 353.459 148.003C353.441 148.018 353.422 148.033 353.404 148.048C352.917 148.444 352.365 148.871 351.378 149.05L351.377 149.05C349.255 149.433 347.698 150.522 346.35 151.909C345.673 152.605 345.052 153.373 344.439 154.163C344.277 154.371 344.116 154.581 343.954 154.792C343.505 155.376 343.053 155.964 342.589 156.521C341.728 157.554 341.61 158.696 341.779 159.955C341.864 160.591 342.021 161.241 342.187 161.914C342.196 161.949 342.204 161.983 342.213 162.018C342.369 162.65 342.531 163.305 342.629 163.948L342.404 180.814ZM342.404 180.814C342.383 180.034 342.322 179.25 342.262 178.493M342.404 180.814L342.262 178.493M342.262 178.493C342.223 178.004 342.186 177.527 342.16 177.068M342.262 178.493L342.16 177.068M342.16 177.068C342.094 175.868 342.103 174.705 342.352 173.509M342.16 177.068L342.352 173.509M342.352 173.509C343.018 170.363 343.112 167.125 342.629 163.948L342.352 173.509Z"
              fill="black" stroke="black"/>
        <path d="M347.63 154.074C346.089 156.55 345.606 161.332 344.029 162.314C342.452 163.297 341.525 164.837 338.881 165.923C338.008 164.689 338.522 162.629 340.422 159.744C342.322 156.859 344.725 154.969 347.63 154.074Z"
              fill="white"/>
        <path d="M353.193 153.712C353.089 152.712 353.232 151.369 354.196 151.203C355.294 159.674 357.567 172.675 360.09 180.817L358.038 180.919C354.93 172.05 353.436 155.904 353.193 153.712ZM356.825 155.608C356.558 153.72 356.422 151.815 356.418 149.908C358.133 148.902 360.75 147.368 362.047 148.263C362.46 152.981 366.596 176.673 366.845 179.801L362.162 182.367C360.431 175.605 358.096 162.499 356.825 155.608Z"
              fill="#DAE2EB"/>
        <path d="M379.061 175.336C373.121 170.766 369.045 166.927 366.833 163.819C364.621 160.712 363.082 156.421 362.216 150.947C362.876 160.089 363.724 165.923 364.76 168.45C365.796 170.977 367.763 174.359 370.661 178.596L379.061 175.336Z"
              fill="#DAE2EB"/>
        <path d="M358.08 180.736C356.236 174.353 354.794 167.848 353.764 161.264C353.42 158.997 353.123 156.72 352.874 154.433C352.768 153.624 352.84 152.59 353.316 152.098C353.546 154.177 353.814 156.254 354.126 158.318C355.288 165.944 357.09 173.385 359.353 180.673L358.08 180.736ZM350.619 180.33C350.586 179.991 350.523 165.219 351.397 158.148C351.393 158.067 354.292 178.995 354.43 180.301L350.619 180.33Z"
              fill="white"/>
        <path d="M360.289 148.894L362.205 180.824L356.189 150.019L360.289 148.894Z" fill="white"/>
        <path d="M373.47 133.769C373.544 133.282 373.603 132.888 373.61 132.784C373.658 131.672 373.58 130.559 373.379 129.464C373.05 127.754 372.273 125.999 370.517 125.312C370.289 125.223 370.029 125.236 369.811 125.348C368.022 123.138 362.993 124.38 361.045 126.339C360.382 126.916 360.027 127.741 360.076 128.587C359.964 128.698 359.89 128.838 359.864 128.989C359.846 129.086 359.841 129.185 359.848 129.283C359.851 129.341 359.817 129.406 359.852 129.375C359.826 129.436 359.792 129.494 359.751 129.547C359.503 129.865 359.551 130.307 359.863 130.566C360.09 130.741 360.409 130.766 360.666 130.628C361.421 130.233 362.967 131 363.687 131.222C365.165 131.663 367.327 130.887 368.881 130.862C369.174 130.842 369.468 130.876 369.747 130.962C370.501 131.269 370.599 132.253 370.784 133.044C371.094 134.335 371.93 135.456 373.113 136.164C373.113 136.164 373.312 134.767 373.47 133.769Z"
              fill="white"/>
        <path fill-rule="evenodd" clip-rule="evenodd"
              d="M362.698 137.86C363.554 138.018 364.42 137.459 364.679 136.552C364.939 135.644 364.5 134.713 363.689 134.395L362.698 137.86Z"
              fill="white"/>
        <path d="M85.212 326.027H426.632V183.157H396.42V198.615H353.835V183.157H319.256V151.027H287.174V167.699H253.739V151.027H192.588V167.699H158.009V183.157H123.431V198.615H85.212V326.027Z"
              fill="#B5C1C9"/>
        <path d="M394.034 324.583L425.488 254.54L424.639 324.882L394.034 324.583Z" fill="white"/>
        <path d="M345.845 330.665L327.437 330.206L394.529 222.244L345.845 330.665Z" fill="black" stroke="black"/>
        <path d="M363.806 205.293L376.568 205.614L330.054 281.074L363.806 205.293Z" fill="black" stroke="black"/>
        <path d="M361.062 326.026V326.02L336.273 325.399L414.332 183.059L414.334 183.053V183.059L422.057 183.687L361.065 326.02L361.062 326.026ZM365.561 198.494L388.888 198.692L359.695 246.526L376.354 209.195L334.558 267.693L365.561 198.494Z"
              fill="white"/>
        <path fill-rule="evenodd" clip-rule="evenodd"
              d="M83.186 283.134H80.0371L79.7547 205.928L82.3654 199.638L83.186 283.134Z" fill="white"/>
        <path fill-rule="evenodd" clip-rule="evenodd"
              d="M122.647 199.066H118.448L118.072 190.157L121.553 183.625L122.647 199.066Z" fill="white"/>
        <path fill-rule="evenodd" clip-rule="evenodd"
              d="M157.532 183.625H153.334L152.957 174.717L156.438 168.184L157.532 183.625Z" fill="white"/>
        <path fill-rule="evenodd" clip-rule="evenodd"
              d="M191.846 168.184H187.648L187.271 158.132L190.752 151.599L191.846 168.184Z" fill="white"/>
        <path fill-rule="evenodd" clip-rule="evenodd"
              d="M345.659 182.733L342.909 182.671C347.408 182.77 350.763 182.875 355.259 182.984V197.127L355.146 199.638C355.31 201.063 269.059 199.751 268.613 200.21H254.47C254.413 199.735 254.353 199.261 254.293 198.787C257.927 198.712 261.559 198.635 265.191 198.564C269.939 198.479 274.685 198.414 279.43 198.322C281.379 198.286 282.148 197.595 282.156 195.903C282.17 192.929 282.161 189.955 282.128 186.983C282.109 185.29 281.334 184.631 279.366 184.654C270.321 184.781 258.399 185.137 249.345 185.341C240.292 185.545 238.767 183.346 238.746 183.209C241.794 183.141 257.996 183.077 261.043 183.008C263.305 182.959 264.049 182.289 264.044 180.307C264.038 177.436 264.021 174.565 263.981 171.696C263.957 169.915 263.167 169.228 261.128 169.265C257.601 169.333 255.078 168.187 255.064 167.537C255.188 167.54 255.317 167.54 255.452 167.537C264.91 167.343 269.787 167.169 279.234 167.016C281.308 166.987 285.673 166.595 287.875 166.59C292.549 166.585 297.221 166.567 301.892 166.566C306.683 166.574 311.473 166.605 316.261 166.611C317.11 160.442 317.109 156.391 316.257 154.459C315.583 152.928 313.295 151.785 309.394 151.027H319.116V180.766L316.645 169.11C313.03 169.102 309.414 169.097 305.798 169.115C303.818 169.126 303.009 169.824 302.991 171.533C302.961 174.514 302.964 177.496 302.974 180.478C302.978 181.766 317.207 182.518 345.659 182.733ZM288.626 184.769C286.714 184.772 285.966 185.495 285.956 187.319C285.94 190.333 285.944 192.204 285.965 195.219C285.978 197.14 286.703 197.813 288.755 197.817C293.116 197.83 297.475 197.829 301.834 197.843C306.305 197.864 310.774 197.905 315.243 197.922C317.145 197.932 317.897 197.218 317.92 195.402C317.956 192.344 317.98 190.43 317.971 187.372L315.365 184.914C306.457 184.825 297.543 184.776 288.626 184.769ZM324.842 184.197C322.711 184.194 322.044 184.805 322.025 186.721C321.999 189.393 321.981 192.066 321.976 194.739C321.971 196.598 322.666 197.204 324.826 197.21C329.133 197.227 333.438 197.234 337.744 197.253C342.217 197.28 345.546 197.324 350.017 197.351L352.749 195.079C352.806 192.323 352.838 189.566 352.858 186.809C352.87 185.056 352.154 184.425 350.106 184.397C341.308 184.295 333.649 184.227 324.842 184.197ZM298.018 169.9L297.873 169.9C288.372 170.006 278.865 170.152 269.353 170.341C267.3 170.386 266.503 171.082 266.502 172.794C266.501 175.521 266.53 178.247 266.557 180.974L269.934 182.481C274.553 182.398 279.041 182.559 283.659 182.481C288.397 182.41 293.221 182.554 297.956 182.481C300.135 182.451 300.788 182.497 300.8 180.677C300.818 177.902 300.821 175.128 300.807 172.355C300.799 170.621 300.092 169.943 298.158 169.902L298.018 169.9Z"
              fill="white"/>
        <path d="M347.947 181.517V181.517L338.718 181.518C338.138 181.826 337.384 181.926 336.479 181.92C327.058 181.88 317.632 181.861 308.201 181.861C308.201 181.861 308.201 181.861 308.2 181.861L347.947 181.517ZM347.947 181.517C351.362 181.594 354.777 181.674 358.191 181.757L358.19 195.412L358.19 195.912L358.533 195.912C358.672 196.506 358.958 196.982 359.486 197.3C360.086 197.663 360.921 197.769 361.963 197.778C362.547 197.784 363.131 197.789 363.714 197.795C367.411 197.831 371.105 197.866 374.8 197.909C375.516 197.918 376.233 197.928 376.949 197.939V197.992C341.832 197.841 315.436 197.765 297.761 197.765C288.881 197.765 282.202 197.784 277.723 197.822C275.484 197.841 273.792 197.865 272.65 197.894C272.08 197.908 271.643 197.924 271.341 197.941C271.191 197.95 271.067 197.959 270.975 197.97C270.93 197.975 270.881 197.982 270.837 197.991C270.832 197.992 270.827 197.993 270.822 197.994H257.2C257.182 197.849 257.164 197.705 257.146 197.56C257.773 197.547 258.4 197.534 259.027 197.521C261.848 197.462 264.668 197.404 267.488 197.349C267.488 197.349 267.488 197.349 267.489 197.349L267.479 196.849M347.947 181.517L239.315 183.119C248.582 182.914 272.692 182.564 281.646 182.439L281.647 182.439C282.665 182.426 283.504 182.584 284.088 183.077C284.691 183.587 284.905 184.351 284.915 185.261C284.949 188.237 284.957 191.213 284.943 194.189C284.939 195.101 284.73 195.867 284.141 196.392C283.568 196.901 282.738 197.088 281.727 197.106M267.479 196.849C269.528 196.812 271.578 196.779 273.627 196.746C276.324 196.702 279.021 196.659 281.718 196.606M267.479 196.849C264.659 196.904 261.84 196.962 259.02 197.021C258.374 197.034 257.729 197.048 257.083 197.061L267.479 196.849ZM281.718 196.606L281.727 197.106M281.718 196.606C283.666 196.57 284.435 195.88 284.443 194.187C284.457 191.213 284.449 188.24 284.415 185.267C284.396 183.575 283.622 182.915 281.653 182.939L281.727 197.106M281.718 196.606L281.727 197.106C281.727 197.106 281.727 197.106 281.727 197.106M290.163 165.374C289.037 165.377 288.129 165.207 287.513 164.654C286.883 164.089 286.68 163.237 286.674 162.198C286.655 159.214 286.647 156.228 286.662 153.243H284.775C284.825 153.537 284.847 153.856 284.85 154.198C284.869 157.066 284.885 159.938 284.873 162.81V162.81C284.869 163.761 284.662 164.553 284.051 165.089C283.46 165.607 282.595 165.785 281.529 165.8C274.839 165.909 269.294 166.027 263.266 166.156C260.819 166.209 258.292 166.263 255.576 166.319C255.583 166.633 255.593 166.947 255.603 167.261C256.958 167.228 257.974 167.196 258.961 167.165C260.259 167.125 261.507 167.086 263.405 167.049L263.406 167.049C264.46 167.03 265.324 167.191 265.923 167.703C266.538 168.23 266.755 169.023 266.768 169.973C266.808 172.845 266.825 175.718 266.832 178.59C266.834 179.623 266.646 180.471 266.015 181.039C265.404 181.589 264.49 181.768 263.342 181.792L320.405 166.898V163.907L318.881 165.268L318.739 165.395L318.548 165.395C316.013 165.392 313.471 165.382 310.931 165.372C308.678 165.363 306.427 165.354 304.179 165.35C301.609 165.351 299.041 165.357 296.471 165.363C294.37 165.367 292.268 165.372 290.163 165.374ZM290.163 165.374C290.163 165.374 290.163 165.374 290.163 165.374L290.162 164.874L290.164 165.374C290.163 165.374 290.163 165.374 290.163 165.374ZM290.912 182.553L290.913 182.553C299.833 182.56 308.747 182.609 317.657 182.698L317.853 182.7L317.996 182.834L320.601 185.293L320.757 185.44L320.758 185.655C320.767 188.679 320.744 190.586 320.709 193.579L320.708 193.693V193.693C320.695 194.653 320.492 195.453 319.917 195.995C319.347 196.532 318.523 196.712 317.528 196.707C317.528 196.707 317.528 196.707 317.528 196.707L317.53 196.207C315.109 196.197 312.688 196.181 310.267 196.165C308.219 196.151 306.17 196.137 304.121 196.127L290.912 182.553ZM290.912 182.553C289.913 182.555 289.087 182.741 288.519 183.284M290.912 182.553L288.519 183.284M291.041 196.602C291.041 196.602 291.041 196.602 291.041 196.602L291.042 196.102L291.041 196.602ZM291.041 196.602C289.987 196.6 289.127 196.431 288.542 195.887M291.041 196.602L288.542 195.887M327.13 181.981L327.131 181.981C335.939 182.011 344.743 182.079 353.543 182.181L353.544 182.181C354.591 182.196 355.44 182.36 356.016 182.864C356.613 183.389 356.796 184.169 356.789 185.097V185.097C356.769 187.855 356.737 190.615 356.68 193.374L356.676 193.602L356.5 193.748L353.768 196.019L353.628 196.136L353.446 196.135C351.196 196.121 348.926 196.104 346.657 196.086C344.441 196.068 342.225 196.051 340.028 196.037L327.13 181.981ZM327.13 181.981C326.049 181.98 325.179 182.126 324.594 182.652M327.13 181.981L324.594 182.652M268.29 171.079C268.289 173.621 268.314 176.164 268.339 178.704C268.341 178.89 268.343 179.077 268.345 179.263L268.347 179.497L268.527 179.645L271.755 182.296L271.897 182.413L272.081 182.409C273.671 182.381 275.26 182.352 276.849 182.322C279.879 182.266 282.908 182.211 285.937 182.16C288.265 182.125 290.613 182.093 292.961 182.062C295.363 182.03 297.766 181.998 300.147 181.962C301.256 181.946 302.145 181.777 302.749 181.263C303.378 180.729 303.581 179.928 303.587 178.964C303.606 176.188 303.608 173.412 303.595 170.637C303.59 169.718 303.403 168.944 302.834 168.412C302.276 167.892 301.458 167.707 300.456 167.686L300.452 167.686L300.312 167.684L300.312 167.684L300.304 167.684L300.16 167.684L300.155 167.684C290.653 167.791 281.144 167.936 271.63 168.125L271.629 168.125C270.57 168.149 269.709 168.338 269.118 168.848C268.506 169.377 268.29 170.153 268.29 171.079ZM268.29 171.079L268.79 171.079M268.29 171.079L268.79 171.079M268.79 171.079C268.79 169.366 269.587 168.67 271.64 168.625L268.845 179.258C268.843 179.072 268.841 178.885 268.839 178.699C268.814 176.159 268.789 173.619 268.79 171.079ZM288.519 183.284C287.947 183.832 287.749 184.637 287.744 185.601M288.519 183.284L287.744 185.601M287.744 185.601C287.728 188.617 287.732 190.49 287.752 193.506M287.744 185.601L287.752 193.506M287.752 193.506C287.759 194.508 287.948 195.334 288.542 195.887M287.752 193.506L288.542 195.887M324.594 182.652C323.994 183.192 323.822 184.012 323.812 185M324.594 182.652L323.812 185M323.812 185C323.786 187.674 323.769 190.347 323.763 193.022M323.812 185L323.763 193.022M323.763 193.022C323.761 193.991 323.936 194.799 324.549 195.331M323.763 193.022L324.549 195.331M324.549 195.331C325.139 195.844 326.018 195.991 327.112 195.994M324.549 195.331L327.112 195.994M327.112 195.994C329.068 196.002 331.022 196.008 332.976 196.013M327.112 195.994L332.976 196.013M332.976 196.013C335.326 196.02 337.676 196.027 340.028 196.037L332.976 196.013Z"
              fill="black" stroke="black"/>
        <path d="M249.917 285.422C273.606 285.422 292.809 266.218 292.809 242.53C292.809 218.841 273.606 199.638 249.917 199.638C226.229 199.638 207.025 218.841 207.025 242.53C207.025 266.218 226.229 285.422 249.917 285.422Z"
              fill="#B5C1C9" stroke="black" stroke-width="5.544"/>
        <path d="M296.837 242.656C298.487 254.394 299.898 267.109 297.996 277.291C297.047 282.373 295.279 286.785 292.336 290.124C289.402 293.453 285.267 295.753 279.507 296.563C267.906 298.193 251.059 294.751 236.686 287.956C229.507 284.562 222.974 280.344 218.038 275.533C213.099 270.719 209.788 265.341 208.984 259.623C207.359 248.06 211.611 236.183 219.204 226.773C226.797 217.363 237.693 210.469 249.276 208.841C272.497 205.578 293.584 219.506 296.837 242.656Z"
              fill="black" stroke="black"/>
        <path fill-rule="evenodd" clip-rule="evenodd"
              d="M250.282 284.266C226.753 283.74 207.9 265.139 208.172 242.72C208.444 220.301 227.739 202.554 251.268 203.08C274.797 203.607 293.651 222.208 293.378 244.627C293.106 267.046 273.811 284.793 250.282 284.266Z"
              fill="#B5C1C9"/>
        <path fill-rule="evenodd" clip-rule="evenodd"
              d="M208.174 245.37C208.512 267.045 227.475 284.204 250.529 283.695C273.583 283.186 291.999 265.202 291.661 243.527C291.638 242.028 291.525 240.55 291.329 239.099C291.314 260.5 273.029 278.151 250.192 278.655C228.732 279.129 210.817 264.294 208.169 244.758C208.169 244.961 208.169 245.165 208.174 245.37Z"
              fill="white"/>
        <path fill-rule="evenodd" clip-rule="evenodd"
              d="M285.371 239.994C285.084 223.32 268.978 210.121 249.398 210.512C229.818 210.904 214.177 224.738 214.464 241.411C214.484 242.565 214.579 243.701 214.746 244.818C214.759 228.355 230.288 214.777 249.684 214.389C267.91 214.025 283.126 225.436 285.375 240.464C285.375 240.308 285.375 240.151 285.371 239.994Z"
              fill="white"/>
        <path d="M250.283 207.686C263.838 207.686 275.679 214.85 282.034 225.491C275.197 216.131 263.971 210.028 251.296 210.028C231.067 210.028 214.569 225.578 213.742 245.099C213.713 244.519 213.697 243.936 213.696 243.349C213.666 223.666 230.034 207.686 250.283 207.686Z"
              fill="black" stroke="black"/>
        <path fill-rule="evenodd" clip-rule="evenodd"
              d="M266.357 245.523L241.095 259.988C239.734 260.8 238.031 259.724 237.28 257.584C237.104 257.086 236.994 256.555 236.955 256.022L236.192 225.422C236.249 223.134 237.901 221.321 239.854 221.371C240.307 221.383 240.748 221.498 241.154 221.709L267.718 237.843C268.948 238.749 269.137 241.187 268.192 243.289C267.74 244.319 267.079 245.125 266.357 245.523Z"
              fill="white"/>
        <path d="M264.59 247.694L264.59 247.694C265.145 247.39 265.7 246.737 266.088 245.834L266.089 245.831C266.49 244.917 266.636 243.935 266.55 243.098C266.465 242.258 266.157 241.637 265.733 241.321L240.573 226.129C240.262 225.97 239.927 225.884 239.585 225.874L264.59 247.694ZM264.59 247.694L264.583 247.698M264.59 247.694L264.583 247.698M264.583 247.698L240.638 261.286L240.638 261.286M264.583 247.698L240.638 261.286M240.638 261.286L240.631 261.29M240.638 261.286L240.631 261.29M240.631 261.29C240.173 261.56 239.648 261.535 239.123 261.206C238.586 260.869 238.066 260.215 237.74 259.289L237.74 259.288M240.631 261.29L237.74 259.288M237.74 259.288C237.59 258.865 237.496 258.413 237.462 257.96M237.74 259.288L237.462 257.96M237.462 257.96L236.692 229.183C236.737 227.236 238.11 225.835 239.585 225.874L237.462 257.96Z"
              fill="black" stroke="black"/>
        <path fill-rule="evenodd" clip-rule="evenodd"
              d="M239.909 233.867V253.48C239.909 255.375 241.445 256.911 243.34 256.911C243.939 256.911 244.527 256.755 245.046 256.457L262.163 246.651C263.807 245.709 264.377 243.612 263.434 241.968C263.131 241.438 262.692 240.999 262.163 240.696L245.046 230.89C243.402 229.948 241.305 230.517 240.363 232.161C240.065 232.68 239.909 233.268 239.909 233.867Z"
              fill="white"/>
        <path d="M491.383 216.029L491.383 216.029C492.49 217.05 493.482 218.635 494.133 220.355C494.786 222.077 495.072 223.87 494.837 225.294L494.836 225.302L494.836 225.302C494.799 225.554 494.652 225.952 494.421 226.481C494.31 226.737 494.186 227.009 494.055 227.295L494.053 227.299C493.922 227.586 493.786 227.885 493.654 228.185C493.392 228.783 493.141 229.408 492.988 229.983C492.856 230.478 492.775 231.009 492.88 231.474C492.847 231.588 492.819 231.703 492.793 231.806C492.783 231.846 492.774 231.885 492.765 231.921C492.718 232.105 492.675 232.245 492.619 232.358C492.566 232.463 492.508 232.531 492.435 232.579C492.36 232.628 492.234 232.679 492.008 232.693L491.816 232.704L491.681 232.842L491.579 232.946L491.481 233.046L491.449 233.183C491.406 233.369 491.384 233.568 491.427 233.758C491.478 233.976 491.609 234.152 491.804 234.254C491.97 234.34 492.142 234.352 492.255 234.353C492.365 234.354 492.481 234.342 492.569 234.334L492.587 234.332C492.689 234.322 492.764 234.315 492.831 234.316C492.856 234.316 492.876 234.317 492.891 234.319C492.895 234.338 492.899 234.365 492.901 234.404L492.914 234.676L493.15 234.813C494.052 235.335 494.793 235.828 495.512 236.306C495.827 236.516 496.138 236.722 496.456 236.927C497.495 237.597 498.574 238.223 500.035 238.794C501.416 239.342 502.766 239.902 503.874 240.664C504.97 241.42 505.798 242.353 506.169 243.639L506.186 243.697L506.216 243.749C508.211 247.226 509.564 253.401 510.025 261.032C510.484 268.642 510.051 277.631 508.524 286.689C506.825 296.771 506.678 307.83 506.552 317.251C506.524 319.328 506.498 321.325 506.456 323.214C506.339 328.467 506.105 332.861 505.42 335.862C505.076 337.367 504.632 338.459 504.081 339.132C503.558 339.773 502.944 340.035 502.147 339.916C502.065 339.904 501.982 339.912 501.95 339.915L501.947 339.916C501.898 339.92 501.839 339.928 501.776 339.937C501.649 339.956 501.477 339.984 501.27 340.018L501.198 340.03C500.788 340.097 500.234 340.189 499.556 340.288C498.12 340.497 496.128 340.739 493.792 340.855C489.116 341.088 483.091 340.813 477.404 338.778C471.684 336.73 466.724 333.77 463.221 330.971C461.468 329.57 460.092 328.219 459.169 327.053C458.707 326.47 458.367 325.943 458.148 325.488C457.927 325.026 457.849 324.676 457.863 324.434L457.863 324.432C457.95 322.773 458.278 321.137 458.671 319.485C458.794 318.968 458.925 318.446 459.056 317.922C459.339 316.787 459.627 315.638 459.851 314.493L459.852 314.487C459.862 314.433 459.873 314.377 459.884 314.318C459.91 314.182 459.937 314.036 459.96 313.897C460.321 311.841 460.133 309.784 459.891 307.786C459.859 307.516 459.825 307.248 459.792 306.982C459.576 305.246 459.365 303.56 459.449 301.878C459.609 298.716 460.285 295.599 460.968 292.448C461.112 291.783 461.257 291.116 461.397 290.447C461.602 289.732 461.615 288.979 461.436 288.258L461.431 288.237L461.424 288.216C461.284 287.808 461.044 287.47 460.816 287.184C460.725 287.069 460.64 286.968 460.56 286.872C460.422 286.707 460.297 286.557 460.177 286.386L460.175 286.384C458.84 284.493 459.379 282.352 460.436 279.959C460.685 279.396 460.956 278.831 461.23 278.261L461.27 278.178C461.557 277.582 461.845 276.979 462.104 276.382C462.617 275.194 463.034 273.979 463.082 272.795C463.082 272.795 463.082 272.795 463.082 272.794L462.582 272.774C462.632 271.551 462.363 270.35 462.094 269.146C461.856 268.081 461.618 267.015 461.599 265.931L491.383 216.029ZM491.383 216.029L491.373 216.02C490.835 215.497 489.727 214.988 488.336 214.701C486.963 214.418 485.394 214.37 483.988 214.696C481.103 215.365 478.245 216.919 476.844 219.227L476.818 219.268L476.786 219.304C476.139 220.014 475.817 220.738 475.769 221.447C475.72 222.156 475.94 222.908 476.481 223.683L476.599 223.852L476.563 224.055C476.272 225.718 476.139 227.074 476.221 228.66L476.225 228.742L476.203 228.822C476.053 229.351 476.17 229.78 476.428 230.191C476.657 230.554 476.971 230.871 477.308 231.212C477.381 231.285 477.455 231.36 477.529 231.436L491.383 216.029ZM463.537 251.449C463.537 251.449 463.537 251.449 463.537 251.449L463.044 251.529L463.537 251.448C463.537 251.448 463.537 251.449 463.537 251.449Z"
              fill="black" stroke="black"/>
        <path d="M484.709 264.326C484.851 268.993 483.746 273.125 482.056 277.441C478.026 267.868 474.827 258.005 473.134 247.754C472.81 245.817 472.541 243.88 472.327 241.941C472.225 241.061 472.365 239.859 473.278 239.719C474.525 248.833 476.783 257.793 480.014 266.447C480.075 266.656 480.184 266.849 480.333 267.012C480.856 267.502 481.326 266.995 481.151 266.44C478.787 258.968 477.269 251.328 475.759 243.621C475.509 241.947 475.385 240.258 475.388 238.566C477.011 237.677 479.492 236.318 480.717 237.108C481.102 241.264 482.464 245.402 482.838 249.625C482.871 250.489 483.01 251.348 483.252 252.181C483.376 252.537 483.527 252.884 483.706 253.218C483.997 256.934 484.592 260.611 484.709 264.326Z"
              fill="#B5C1C9"/>
        <path d="M495.477 266.184C492.771 264.814 491.037 262.137 488.9 259.979C488.104 259.176 486.805 259.288 487.888 260.453C488.641 261.261 489.45 262.029 490.245 262.794C491.789 264.285 493.365 265.734 494.921 267.213C495.102 267.36 495.25 267.544 495.356 267.751C495.457 268.041 495.484 268.352 495.435 268.655C495.244 271.067 495.263 273.491 495.493 275.9C495.617 277.167 495.793 278.522 495.338 279.71C495.456 279.395 493.525 277.161 493.272 276.785C492.069 275.055 490.899 273.303 489.78 271.507C488.568 269.54 486.652 267.611 486.296 265.253C486.113 264.008 486.367 262.713 486.303 261.479C486.243 260.172 486.087 258.871 485.836 257.587C485.644 256.819 485.538 256.032 485.519 255.241C485.509 255.103 485.545 254.965 485.623 254.85C485.843 254.567 486.293 254.758 486.589 254.96C489.04 256.641 491.69 258.015 494.478 259.052C495.017 259.255 495.616 259.498 495.821 260.027C495.903 260.286 495.928 260.56 495.895 260.83C495.821 262.633 495.682 264.418 495.477 266.184Z"
              fill="#B5C1C9"/>
        <path d="M466.839 246.167C466.686 252.906 468.119 260.002 469.803 266.513C471.549 273.35 474.185 279.783 477.177 286.205C481.137 294.706 486.333 302.719 492.137 310.222C492.894 311.199 494.318 312.745 495.776 312.004C495.573 312.106 490.034 304.119 489.534 303.379C487.455 300.419 485.444 297.414 483.593 294.319C479.922 288.235 476.877 281.833 474.502 275.202C474.043 273.847 473.584 272.48 473.164 271.108C472.773 269.797 472.414 268.478 472.086 267.153C470.386 260.225 469.628 253.129 469.244 246.031C469.161 244.514 469.478 242.511 471.071 242.254C469.885 255.142 476.182 267.445 481.865 279.211C486.032 287.909 490.002 296.729 494.976 305.052C495.59 306.077 496.244 307.125 497.248 307.832C495.628 304.762 494.013 301.697 492.363 298.64C490.675 295.518 489.04 292.373 487.456 289.206C485.719 285.727 484.078 282.209 482.534 278.651C482.761 278.676 482.992 278.639 483.198 278.545C483.449 278.737 484.289 278.731 484.398 278.479C485.636 275.688 486.504 272.764 486.98 269.774C488.418 272.068 489.908 274.333 491.449 276.568C492.247 277.721 493.06 278.863 493.889 279.992C494.428 280.727 495.826 282.004 496.019 282.868C497.828 290.334 499.491 297.856 500.172 305.547C500.595 310.324 500.381 315.091 500.368 319.868C500.361 321.756 500.267 323.639 500.088 325.516C498.071 323.399 496.097 321.223 494.226 319.009C487.328 310.915 481.014 302.111 474.777 285.763C475.43 288.917 480.108 302.541 484.48 309.603C489.017 316.934 494.399 322.773 496.677 325.322C497.382 326.038 497.981 326.839 498.459 327.705C499.682 330.226 499.431 331.806 498.476 334.437C490.217 328.479 483.871 320.368 479.345 311.566C474.819 302.764 471.999 293.236 470.078 283.632C467.612 271.287 466.526 258.73 466.839 246.167Z"
              fill="#B5C1C9"/>
        <path d="M470.732 247.523C471.093 254.05 471.808 260.578 473.414 266.944C473.71 268.163 474.05 269.375 474.433 270.58C474.822 271.842 475.248 273.099 475.698 274.344C477.945 280.441 480.825 286.326 484.299 291.919C486.05 294.763 487.952 297.526 489.92 300.247C491.018 301.763 492.305 302.791 492.819 304.626C493.412 306.753 494.075 308.608 495.43 310.454C493.978 308.474 489.805 302.864 489.547 302.511C487.58 299.791 485.677 297.028 483.926 294.183C480.452 288.59 477.572 282.705 475.325 276.608C474.891 275.363 474.458 274.106 474.061 272.845C473.691 271.639 473.351 270.427 473.041 269.208C471.435 262.839 470.72 256.314 470.36 249.788C470.289 248.976 470.415 248.159 470.73 247.395L470.732 247.523Z"
              fill="white"/>
        <path d="M479.494 242.692C481.031 250.063 481.843 257.554 481.92 265.069C481.946 270.137 481.606 266.572 481.102 265.633C480.984 265.453 480.877 265.268 480.783 265.076C480.782 265.035 480.755 264.994 480.737 264.954C478.816 258.391 477.459 251.745 476.141 245.036C475.892 243.385 475.769 241.719 475.772 240.051L476.242 239.797C476.284 240.724 479.317 241.771 479.494 242.692Z"
              fill="white"/>
        <path d="M466.67 248.22C466.669 248.152 466.668 248.085 466.7 248.02C466.704 248.284 466.709 248.547 466.714 248.819C466.383 253.644 466.828 258.517 467.351 263.34C468.728 276.055 470.558 288.842 474.962 300.901C479.366 312.96 486.561 324.364 497.113 332.131C497.71 333 498.185 332.968 497.71 334.993C487.159 327.226 479.01 315.367 474.589 303.304C470.169 291.241 468.355 278.457 466.978 265.73C466.346 259.911 465.801 254.01 466.67 248.22Z"
              fill="white"/>
        <path d="M478.342 223.055C478.452 222.78 478.59 222.517 478.755 222.269C479.259 221.428 479.656 220.501 480.415 219.817C480.562 219.666 480.74 219.547 480.937 219.466C481.114 219.405 481.306 219.398 481.484 219.332C481.742 219.188 481.983 219.016 482.203 218.82C482.431 218.619 482.771 218.598 483.023 218.768C483.151 218.488 483.379 218.263 483.664 218.136C483.982 218.105 484.303 218.115 484.618 218.166C484.959 218.16 485.288 217.775 485.603 218.236C485.652 218.343 485.722 218.441 485.808 218.524C485.915 218.578 486.033 218.608 486.154 218.609C486.854 218.714 487.315 219.48 488.018 219.543C488.177 219.535 488.335 219.554 488.487 219.597C489.169 219.876 489.511 220.932 489.726 221.536C490.174 222.849 491.581 225.143 490.411 226.417C490.235 226.607 489.991 226.77 489.945 227.016C489.898 227.263 489.952 227.433 489.87 227.63C489.788 227.827 489.568 227.914 489.452 228.053C489.308 228.323 489.227 228.62 489.216 228.924C489.07 229.596 488.465 230.065 488.036 230.61C487.69 231.053 487.452 231.569 487.137 232.037C485.634 234.266 481.495 233.693 479.962 231.746C479.474 231.225 479.268 230.509 479.405 229.815C479.322 229.716 479.275 229.592 479.271 229.464C479.27 229.382 479.277 229.301 479.292 229.222C479.292 229.176 479.291 229.118 479.291 229.147C479.274 229.095 479.252 229.045 479.225 228.998C479.05 228.711 479.142 228.34 479.432 228.162C479.643 228.041 479.906 228.05 480.109 228.183C480.578 228.5 482.858 227.89 483.445 227.85C484.83 227.752 486.22 227.755 487.605 227.857C487.983 227.274 488.304 226.657 488.565 226.016C488.626 225.894 488.649 225.758 488.63 225.624C488.567 225.383 488.284 225.292 488.081 225.146C487.336 224.614 487.675 223.558 486.77 223.158C486.341 222.965 485.833 222.933 485.388 222.766C484.826 222.534 484.294 222.052 483.7 222.187C483.191 222.304 482.792 222.861 482.28 222.757C482.092 222.719 481.906 222.593 481.729 222.659C481.551 222.724 481.501 223.05 481.369 223.248C481.174 223.543 480.718 223.563 480.485 223.834C480.251 224.104 480.32 224.411 480.18 224.672C480.043 224.885 479.824 225.035 479.572 225.088C479.321 225.141 479.058 225.093 478.844 224.953C478.427 224.645 478.208 224.143 478.267 223.635C478.268 223.44 478.293 223.245 478.342 223.055ZM484.475 229.47C483.488 229.395 482.198 229.028 481.287 229.664C481.192 229.732 481.103 229.807 481.022 229.888C481.011 229.951 480.989 230.011 480.957 230.067C481.428 230.261 481.91 230.432 482.402 230.577C483.83 230.922 485.34 230.374 486.125 229.226C485.588 229.369 485.033 229.451 484.475 229.47Z"
              fill="white"/>
        <path d="M501.518 279.015C502.58 280.534 502.383 283.878 502.516 285.689C502.566 286.505 503.165 289.974 502.261 290.515C501.741 290.826 500.495 286.415 500.4 286.082C500.084 284.989 499.597 283.852 499.794 282.776C500.015 281.533 500.586 279.849 501.518 279.015Z"
              fill="white"/>
        <path d="M463 280.988C463.226 280.198 463.348 279.32 463.926 278.722C464.58 278.018 465.413 277.462 466.358 277.098C466.408 277.028 466.457 276.959 466.506 276.897C466.56 276.933 466.609 276.974 466.651 277.02C466.654 277.032 466.654 277.044 466.652 277.057C467.182 277.664 467.149 279.205 467.232 280.01C467.285 280.415 467.726 282.004 467.152 282.566C466.822 282.888 465.943 281.018 465.872 280.877C465.748 280.612 465.587 280.359 465.49 280.073C465.168 280.606 464.846 281.102 464.623 281.499C464.324 282.023 463.326 284.388 462.471 284.403C462.002 284.407 462.931 281.229 463 280.988Z"
              fill="white"/>
        <path d="M486.029 236.965C485.966 236.787 485.953 236.595 485.99 236.409C486.062 236.227 486.178 236.067 486.328 235.943L487.561 234.736C487.342 237.272 488.834 238.992 491.151 239.602C493.552 240.235 496.05 240.959 497.801 242.676C499.267 244.093 501.594 245.358 502.046 247.317C502.281 248.407 503.93 254.096 504.087 258.994C504.325 266.411 503.002 273.789 502.882 274.693C502.708 275.996 501.744 277.355 500.688 274.791C499.855 272.78 500.347 272.379 500.4 270.348C500.471 267.735 500.468 265.119 500.347 262.509C500.096 257.185 500.105 249.767 495.785 245.909C496.161 247.186 496.367 248.508 496.396 249.84C496.454 251.687 496.382 253.566 496.264 255.437C496.262 255.696 496.183 255.949 496.038 256.163C495.843 256.401 495.549 256.536 495.242 256.527C494.636 256.535 494.039 256.378 493.513 256.072C492.981 255.769 492.627 255.062 492.234 254.583C491.343 253.536 490.507 252.442 489.729 251.306C488.374 249.309 484.263 243.806 487.095 241.605C487.449 241.357 487.723 241.011 487.884 240.608C488.281 239.403 486.447 238.456 486.029 236.965Z"
              fill="white"/>
        <path fill-rule="evenodd" clip-rule="evenodd"
              d="M433.753 214.796C430.171 215.096 430.196 215.055 429.045 218.408C428.456 220.123 428.209 221.681 429.197 223.44C430.185 225.199 431.09 227.053 431.733 229.201C428.351 229.147 425.087 229.111 421.823 229.038C417.989 228.953 414.156 228.814 410.321 228.752C409.662 228.741 409.351 228.584 409.073 227.959C407.285 223.951 406.03 219.746 404.408 215.678C404.118 214.95 403.776 214.582 403.021 214.612C402.184 214.645 401.342 214.777 400.511 214.72C398.847 214.605 397.995 215.387 397.698 216.951C397.603 217.452 397.398 217.931 397.26 218.424C396.583 220.828 396.361 223.08 397.457 225.591C399.539 230.362 401.269 235.292 402.98 240.213C405.018 246.07 407.611 251.719 409.445 257.653C410.6 261.392 411.953 265.071 413.203 268.781C413.44 269.484 413.609 270.21 413.81 270.925C414.169 271.925 414.538 272.922 414.886 273.926C415.761 276.46 416.626 278.997 417.496 281.533C418.35 284.191 419.074 286.9 420.081 289.5C423.587 298.55 426.238 307.859 429.037 317.136C431.364 324.85 433.477 332.625 435.873 340.317C436.43 342.108 436.754 342.189 438.629 341.975C440.852 341.722 442.244 340.66 442.72 338.46C442.74 338.369 442.754 338.268 442.804 338.194C444.31 335.932 443.839 333.61 443.245 331.156C442.387 327.614 441.179 324.194 440.042 320.745C439.787 319.97 439.902 319.678 440.777 319.615C447.256 319.146 453.654 318.082 460.054 317.026C462.808 316.572 462.844 316.615 463.757 319.339C465.281 323.887 466.717 328.463 467.894 333.113C468.687 336.244 470.306 337.009 473.311 335.593C473.732 335.395 473.928 335.053 474.115 334.672C475 332.873 475.678 330.991 476.354 329.108C476.682 328.195 476.575 327.31 476.282 326.381C472.869 315.586 469.484 304.783 466.098 293.979C465.946 293.495 465.857 292.991 465.739 292.496C465.576 291.902 465.414 291.308 465.251 290.714C464.702 289.867 464.526 288.905 464.366 287.936C463.725 286.348 463.085 284.759 462.444 283.171C461.639 281.162 460.904 279.131 460.533 276.99C460.067 276.125 459.824 275.185 459.599 274.24C458.5 270.951 457.523 267.619 456.153 264.424C454.02 259.449 452.162 254.368 450.278 249.297C448.293 243.958 445.701 238.874 443.609 233.584C441.277 227.685 438.322 222.06 435.972 216.173C435.543 215.099 434.955 214.696 433.753 214.796ZM457.184 296.047C458.177 299.492 459.191 302.932 460.243 306.36C460.485 307.148 460.245 307.282 459.499 307.342C452.187 307.937 445.02 309.535 437.756 310.468C437.139 310.548 436.876 310.502 436.676 309.85C435.636 306.466 434.537 303.099 433.461 299.725C433.376 299.459 433.315 299.184 433.223 298.839C433.291 298.448 433.705 298.553 433.971 298.496C441.342 296.93 448.875 296.592 456.326 295.636C456.687 295.59 457.025 295.495 457.184 296.047ZM450.32 275.929C451.458 279.13 452.831 282.248 453.617 285.573C453.819 286.425 453.582 286.589 452.787 286.665C450.279 286.904 447.77 287.172 445.278 287.536C440.755 288.197 436.268 289.113 431.692 289.4C431.179 289.432 430.592 289.73 430.346 288.889C429.327 285.417 428.28 281.953 427.22 278.493C426.98 277.708 427.038 277.347 428.025 277.285C431.65 277.057 435.27 276.752 438.887 276.434C442.418 276.124 445.944 275.761 449.723 275.398C449.891 275.369 450.159 275.474 450.32 275.929ZM442.838 256.542C444.097 259.396 445.358 262.248 446.647 265.088C446.943 265.74 446.814 265.999 446.095 266.055C444.887 266.148 443.676 266.248 442.478 266.424C436.514 267.297 430.474 267.215 424.491 267.835C423.872 267.899 423.493 267.786 423.227 267.105C421.956 263.858 421.014 260.509 419.907 257.168C420.228 257.104 420.453 257.036 420.683 257.016C427.75 256.4 434.864 256.773 441.928 256.101C442.332 256.063 442.647 256.11 442.838 256.542ZM435.551 238.791C436.577 241.239 437.635 243.675 438.698 246.108C438.96 246.708 438.852 246.918 438.157 246.911C436.568 246.896 434.978 246.926 433.391 246.987C428.209 247.188 423.041 247.697 417.849 247.661C417.328 247.657 416.625 248.027 416.31 247.157C415.217 244.136 414.093 241.126 412.926 237.963C413.852 237.92 414.681 237.864 415.51 237.845C421.676 237.706 427.84 238.539 434.006 237.944C434.743 237.873 435.243 238.057 435.551 238.791Z"
              fill="black" stroke="black" stroke-width="2.376"/>
        <path fill-rule="evenodd" clip-rule="evenodd"
              d="M438.255 339.387L440.05 335.141C430.102 303.116 421.961 277.906 415.624 259.511C409.288 241.117 404.076 227.476 399.987 218.59L398.581 223.226L418.157 276.578"
              fill="white"/>
        <path fill-rule="evenodd" clip-rule="evenodd"
              d="M433.256 217.382C434.253 219.91 435.189 222.432 436.235 224.909C439.047 231.561 441.926 238.186 444.744 244.837C450.287 257.926 455.289 271.217 459.781 284.7C461.96 291.237 463.628 297.919 465.651 304.499C468.018 312.194 470.492 319.857 472.917 327.535C473.202 328.439 474.501 328.865 475.257 328.28C475.672 327.958 475.316 327.593 475.221 327.292C473.961 323.293 472.645 319.312 471.404 315.308C469.004 307.571 466.705 299.801 464.243 292.083C462.76 287.431 460.965 282.877 459.459 278.231C455.128 264.881 449.929 251.867 444.341 239C441.539 232.549 439.036 225.966 435.754 219.727C435.561 219.358 435.44 218.95 435.31 218.553C434.878 217.241 434.882 217.239 433.256 217.382Z"
              fill="#B5C1C9"/>
        <path fill-rule="evenodd" clip-rule="evenodd"
              d="M402.265 216.812C401.201 216.623 400.904 216.817 401.361 218.01C405.319 228.332 409.204 238.68 413.283 248.957C416.695 257.555 419.784 266.289 422.29 275.188C424.682 283.687 428.077 291.838 430.648 300.266C432.438 306.131 433.949 312.077 435.93 317.888C437.729 323.168 439.321 328.515 440.458 333.977C440.677 335.033 441.231 334.739 441.85 334.708C442.818 334.66 442.362 334.061 442.287 333.621C441.44 328.65 439.596 323.959 438.057 319.19C434.174 307.161 430.772 294.988 426.937 282.948C421.3 265.25 415.031 247.764 408.266 230.46C406.624 226.261 405.2 221.977 403.352 217.857C403.13 217.361 403.074 216.718 402.265 216.812Z"
              fill="#B5C1C9"/>
        <path fill-rule="evenodd" clip-rule="evenodd"
              d="M452.874 270.004C452.157 267.94 452.158 267.955 450.016 268.029C444.905 268.207 439.879 269.142 434.757 269.19C431.348 269.222 427.986 269.637 424.609 269.738C424.721 271.132 425.368 271.56 426.839 271.508C433.275 271.278 439.685 270.856 446.083 270.254C448.281 270.048 450.513 270.084 452.874 270.004Z"
              fill="#F4F6F8"/>
        <path fill-rule="evenodd" clip-rule="evenodd"
              d="M464.612 308.262C459.256 308.741 453.7 309.246 448.234 310.351C445.173 310.97 442.066 311.209 439.004 311.765C438.615 311.835 437.706 311.484 437.881 312.547C438.025 313.428 438.567 313.293 439.213 313.231C447.534 312.439 455.761 310.877 464.098 310.223C464.381 310.201 464.676 310.222 464.943 310.145C465.305 310.042 466.094 310.436 465.872 309.579C465.734 309.048 465.864 308.116 464.612 308.262Z"
              fill="#F4F6F8"/>
        <path fill-rule="evenodd" clip-rule="evenodd"
              d="M458.27 287.919C454.366 288.35 450.452 288.707 446.561 289.23C441.626 289.894 436.751 290.959 431.764 291.29C431.496 291.308 430.738 290.985 430.924 291.814C431.053 292.391 431.071 293.01 432.055 292.877C437.227 292.181 442.422 291.635 447.584 290.874C451.196 290.342 454.862 290.429 458.454 289.802C458.813 289.739 459.617 290.11 459.457 289.282C459.349 288.725 459.314 287.839 458.27 287.919Z"
              fill="#F4F6F8"/>
        <path fill-rule="evenodd" clip-rule="evenodd"
              d="M444.784 250.294C444.648 249.066 444.045 248.768 442.867 248.828C434.697 249.246 426.522 249.576 418.349 249.937C417.93 249.955 417.512 249.998 417.099 250.03C417.122 251.372 417.635 251.83 419.015 251.748C427.324 251.25 435.639 250.862 443.952 250.433C444.23 250.418 444.505 250.342 444.784 250.294Z"
              fill="#F4F6F8"/>
        <path fill-rule="evenodd" clip-rule="evenodd"
              d="M470.038 332.554C470.832 330.515 471.473 328.703 470.754 326.49C469.396 322.31 468.304 318.02 467.07 313.666C465.988 315.106 465.427 316.366 466.037 318.29C467.51 322.936 468.697 327.698 470.038 332.554Z"
              fill="#F4F6F8"/>
        <path fill-rule="evenodd" clip-rule="evenodd"
              d="M412.822 231.938C417.253 232.5 421.835 232.271 426.417 232.266C429.8 232.263 433.185 232.676 436.564 232.503C436.991 232.481 437.743 232.758 437.756 232.135C437.771 231.398 437.066 231.258 436.347 231.269C430.555 231.355 424.759 231.137 418.963 230.919C416.831 230.839 414.698 230.763 412.566 230.728C412.147 230.721 411.398 230.344 411.358 231.004C411.319 231.628 411.828 232.1 412.822 231.938Z"
              fill="#F4F6F8"/>
        <path fill-rule="evenodd" clip-rule="evenodd"
              d="M458.509 285.993C457.029 281.216 455.667 276.818 454.265 272.292C453.257 273.705 452.698 274.878 453.322 276.653C454.293 279.411 455.343 282.157 455.948 285.065C456.28 286.661 457.506 285.406 458.509 285.993Z"
              fill="#F4F6F8"/>
        <path fill-rule="evenodd" clip-rule="evenodd"
              d="M438.437 234.478C437.574 236.055 436.8 237.334 437.791 239.231C438.919 241.388 439.581 243.846 440.452 246.169C440.738 246.931 442.236 247.388 442.833 246.91C443.155 246.653 442.917 246.39 442.832 246.161C441.386 242.3 439.931 238.443 438.437 234.478Z"
              fill="#F4F6F8"/>
        <path fill-rule="evenodd" clip-rule="evenodd"
              d="M446.641 253.091C445.288 254.944 445.069 256.578 446.142 258.578C447.295 260.727 448.117 263.098 448.925 265.438C449.35 266.667 450.181 266.121 450.743 266.006C451.413 265.868 450.864 265.253 450.747 264.91C449.41 261.003 448.042 257.109 446.641 253.091Z"
              fill="#F4F6F8"/>
        <path fill-rule="evenodd" clip-rule="evenodd"
              d="M459.906 292.704C458.722 294.482 458.809 296.205 459.518 298.159C460.441 300.7 461.088 303.364 461.68 306.019C461.969 307.312 462.78 306.861 463.378 306.749C464.297 306.577 463.6 305.935 463.479 305.603C461.958 301.427 461.334 296.98 459.906 292.704Z"
              fill="#F4F6F8"/>
        <path fill-rule="evenodd" clip-rule="evenodd"
              d="M436.167 229.27C434.406 225.699 433.391 221.812 431.782 218.111C430.799 220.06 430.614 221.848 431.642 223.731C432.343 225.016 432.946 226.401 433.354 227.823C433.789 229.337 434.529 229.885 436.167 229.27Z"
              fill="#F4F6F8"/>
        <path fill-rule="evenodd" clip-rule="evenodd"
              d="M474.763 330.012C472.407 330.21 471.719 331.205 471.215 334.721C473.976 334.146 473.4 331.629 474.763 330.012Z"
              fill="#F4F6F8"/>
        <path fill-rule="evenodd" clip-rule="evenodd"
              d="M441.647 336.257C439.626 336.402 439.626 336.402 438.904 339.344C440.644 339.301 440.662 339.282 441.647 336.257Z"
              fill="#F4F6F8"/>
        <path d="M128.721 183.717C128.614 183.719 128.909 205.809 129.382 233.226L129.396 234.058C129.538 242.235 129.679 249.957 129.811 256.784C132.288 271.431 134.538 270.789 135.442 247.126C136.559 217.858 138.428 268.231 140.084 265.27L138.824 183.541L128.721 183.717ZM139.528 183.649L140.246 264.858C141.27 263.467 142.351 263.917 143.46 263.74L142.274 183.601L139.528 183.649ZM142.969 183.649L143.67 263.714C144.456 263.167 145.251 261.939 146.045 259.168C146.187 258.674 146.324 258.137 146.456 257.56C146.266 248.757 145.771 183.6 145.714 183.601L142.969 183.649Z"
              fill="white"/>
        <path d="M99.3479 259.431L99.348 259.431C100.541 260.553 101.746 262.595 102.585 264.804C103.426 267.019 103.857 269.289 103.605 270.855L103.603 270.863L103.603 270.863C103.564 271.135 103.454 271.391 103.293 271.664C103.186 271.847 103.074 272.008 102.953 272.183C102.881 272.288 102.805 272.397 102.725 272.519C102.345 273.096 101.966 273.814 102.212 274.746C102.176 274.873 102.145 275.001 102.117 275.117C102.106 275.161 102.096 275.204 102.086 275.245C102.035 275.448 101.988 275.607 101.924 275.737C101.864 275.859 101.796 275.941 101.711 275.998C101.624 276.056 101.482 276.114 101.236 276.129L101.041 276.141L100.905 276.282L100.795 276.396L100.699 276.497L100.669 276.632C100.558 277.12 100.226 277.504 99.8022 277.996C99.7666 278.037 99.7304 278.079 99.6935 278.122C99.2599 278.627 98.7265 279.282 98.7699 280.185L98.7828 280.454L99.0148 280.591C100.115 281.242 100.911 281.853 101.686 282.448C101.884 282.6 102.081 282.751 102.281 282.902C103.266 283.642 104.299 284.338 105.885 284.971C107.373 285.574 108.832 286.192 110.03 287.034C111.217 287.869 112.119 288.904 112.524 290.335L112.54 290.392L112.569 290.444C112.691 290.661 112.982 290.996 113.374 291.411C113.784 291.845 114.351 292.414 115.072 293.116C116.515 294.521 118.59 296.471 121.295 298.966L121.553 299.204L121.865 299.042C124.845 297.491 127.257 296.163 129.1 295.058C130.932 293.958 132.231 293.062 132.96 292.374C133.16 292.184 133.349 291.86 133.515 291.543C133.68 291.231 133.86 290.854 134.045 290.464C134.059 290.434 134.074 290.403 134.089 290.372C134.5 289.508 134.937 288.604 135.376 288.005C135.564 287.749 136.048 287.311 136.733 286.804C137.403 286.309 138.218 285.782 139.023 285.345C139.836 284.903 140.606 284.571 141.194 284.44C141.491 284.375 141.697 284.371 141.822 284.398C141.925 284.42 141.939 284.452 141.95 284.477C141.994 284.579 142.063 284.682 142.127 284.77C142.195 284.865 142.28 284.972 142.375 285.087C142.565 285.318 142.814 285.602 143.093 285.918C143.146 285.978 143.201 286.04 143.257 286.103C143.787 286.703 144.415 287.414 145.014 288.154C145.678 288.974 146.29 289.81 146.687 290.549C146.885 290.918 147.02 291.245 147.085 291.521C147.151 291.8 147.137 291.985 147.091 292.102C146.928 292.517 146.545 292.941 145.949 293.401C145.36 293.856 144.623 294.301 143.819 294.784L143.723 294.842C142.176 295.77 140.387 296.844 139.346 298.309C137.453 300.975 134.827 303.333 132.331 305.424C131.833 305.842 131.337 306.251 130.853 306.65C130.137 307.242 129.448 307.81 128.82 308.349C127.766 309.254 126.843 310.109 126.188 310.909C124.569 312.887 123.43 313.339 122.553 313.287C122.096 313.26 121.651 313.095 121.179 312.838C120.825 312.645 120.483 312.418 120.116 312.174C119.984 312.086 119.849 311.996 119.71 311.905C119.166 311.551 118.495 311.077 117.783 310.572L117.731 310.535C117.038 310.045 116.311 309.53 115.645 309.087C114.968 308.636 114.326 308.24 113.833 308.019C113.598 307.913 113.335 307.818 113.094 307.812C112.968 307.809 112.795 307.83 112.636 307.94C112.463 308.061 112.379 308.238 112.354 308.404C112.278 308.898 112.252 309.241 112.257 309.524C112.261 309.779 112.29 309.976 112.317 310.155C112.32 310.176 112.323 310.196 112.326 310.216C112.379 310.58 112.439 311.056 112.295 312.409C112.231 313.018 112.659 313.503 113.107 313.855C113.584 314.231 114.257 314.592 115.032 314.941C116.587 315.642 118.68 316.351 120.76 317.054L120.815 317.073C122.893 317.775 124.955 318.472 126.53 319.165C127.325 319.515 127.97 319.853 128.422 320.177C128.9 320.519 129.047 320.766 129.066 320.898C129.477 323.746 129.747 330.348 129.81 337.029C129.873 343.711 129.728 350.395 129.324 353.411C129.145 354.745 128.807 355.397 128.495 355.722C128.202 356.027 127.879 356.1 127.54 356.12C127.452 356.125 127.367 356.126 127.276 356.127L127.26 356.127C127.179 356.128 127.087 356.129 127.001 356.135C126.853 356.144 126.548 356.17 126.33 356.398C126.085 356.655 126.097 356.993 126.145 357.243C126.196 357.509 126.318 357.842 126.503 358.256C126.78 358.877 127.205 359.26 127.713 359.468C128.199 359.666 128.728 359.69 129.2 359.67C129.439 359.66 129.677 359.638 129.897 359.617L129.974 359.609C130.169 359.59 130.349 359.573 130.52 359.562C130.926 359.538 131.166 359.567 131.304 359.639C132.595 360.312 133.294 360.871 133.557 361.546C133.813 362.202 133.712 363.131 132.92 364.71C132.106 366.333 129.488 369.048 125.636 371.209C121.803 373.359 116.818 374.921 111.314 374.324C110.515 374.238 109.363 373.897 108.004 373.394C106.656 372.895 105.144 372.252 103.641 371.583C102.587 371.114 101.531 370.63 100.542 370.177C98.7332 369.347 97.145 368.619 96.187 368.269C95.6303 368.065 94.9849 368.114 94.3315 368.284C93.67 368.456 92.9406 368.769 92.1784 369.167C90.6539 369.961 88.9233 371.133 87.2266 372.334C86.6838 372.718 86.1451 373.105 85.6164 373.484C84.4795 374.3 83.3886 375.083 82.4022 375.737C81.6817 376.215 81.0311 376.615 80.4735 376.901C79.903 377.194 79.4799 377.342 79.2008 377.367C75.0635 377.728 71.7995 377.931 69.2259 377.756C66.6525 377.582 64.8427 377.035 63.5575 375.961C63.2156 375.675 62.9562 375.224 62.7952 374.579C62.6341 373.934 62.5803 373.128 62.6256 372.183C62.7163 370.292 63.1983 367.932 63.8978 365.372C65.1028 360.962 66.9275 356.047 68.4079 352.059C68.6452 351.42 68.8736 350.804 69.0892 350.219C69.1858 349.956 69.2621 349.567 69.3278 349.102C69.3951 348.626 69.4561 348.034 69.5117 347.348C69.6229 345.973 69.7144 344.197 69.791 342.159C69.9442 338.081 70.0386 332.936 70.1106 327.826C70.1424 325.575 70.1697 323.333 70.1959 321.19C70.2292 318.464 70.2605 315.9 70.2962 313.689C70.3282 311.715 70.3635 310.027 70.4069 308.76C70.4286 308.126 70.4522 307.601 70.4781 307.2C70.5048 306.786 70.5322 306.536 70.555 306.432L70.5556 306.429C71.1817 303.484 71.2597 300.456 70.7857 297.485C70.7856 297.485 70.7856 297.485 70.7855 297.484L70.2918 297.563C70.2014 296.988 70.0519 296.399 69.9013 295.806C69.415 293.892 68.9177 291.933 70.3651 290.248L99.3479 259.431ZM99.3479 259.431L99.3387 259.422C98.749 258.838 97.6655 258.325 96.2537 257.989C94.8572 257.656 93.1998 257.511 91.5229 257.616C88.1353 257.827 84.84 259.037 83.346 261.549L83.3214 261.59L83.2893 261.626C83.0059 261.944 82.7444 262.626 82.5395 263.617C82.3406 264.579 82.2124 265.736 82.1334 266.912C81.9754 269.261 82.0175 271.625 82.0625 272.507L82.0667 272.588L82.045 272.667C81.9715 272.932 81.9868 273.267 82.0974 273.667C82.2071 274.064 82.4011 274.49 82.6427 274.913C83.126 275.759 83.7654 276.535 84.1669 276.956L99.3479 259.431Z"
              fill="black" stroke="black"/>
        <path d="M76.8318 318.077L78.0522 345.511L83.5274 341.183L76.8318 318.077Z" fill="#B5C1C9"/>
        <path fill-rule="evenodd" clip-rule="evenodd"
              d="M92.1986 279.964C90.6236 277.422 89.5975 275.033 89.1204 272.797C89.0551 274.404 89.0798 275.807 89.1945 277.008C88.1836 275.515 87.3891 273.146 87.1027 271.935C87.0239 272.919 86.8559 273.24 86.9983 274.82C86.3526 273.555 85.9226 272.063 85.8153 271.528C85.4011 272.505 85.5388 272.612 85.3405 273.362C84.9543 269.841 86.2486 267.272 89.002 265.669C89.6525 265.29 91.08 264.459 92.364 263.664C92.4486 263.612 87.7956 267.276 92.1986 279.964Z"
              fill="white"/>
        <path d="M82.1809 287.29C82.2794 289.252 86.3551 308.87 95.5044 331.745C84.6392 308.87 81.209 291.713 80.854 287.045C80.0655 287.138 79.8178 288.64 79.8434 289.683C80.0645 298.576 87.0966 321.042 92.5044 331.86C93.2555 333.544 94.4271 336.053 96.019 339.384C100.895 340.518 103.34 341.08 103.353 341.07C106.709 339.11 110.189 337.428 113.708 335.757C114.951 335.176 116.667 335.748 116.666 337.464C116.666 339.377 116.607 350.105 116.665 352.905C118.411 353.527 119.598 350.835 120.515 351.459C123.3 353.356 125.164 353.098 125.088 352.219C124.999 351.198 126.962 336.892 126.963 328.314C126.963 319.735 120.1 318.02 114.952 321.451C113.978 322.1 105.191 327.167 99.8652 329.26C96.2645 330.65 99.3723 328.409 99.477 328.276C99.5059 328.264 99.5258 328.23 99.5487 328.203C100.01 327.81 100.708 327.233 101.644 326.472C96.1431 316.678 92.7451 310.741 91.45 308.66C93.2185 310.585 104.202 324.49 104.281 324.431C104.986 319.286 105.259 316.659 105.099 316.55C103.72 315.459 98.975 311.231 90.8627 303.868L104.319 313.884L104.801 307.042C99.9434 304.754 96.083 301.932 93.2196 298.576C90.3562 295.219 88.0687 290.835 86.3572 285.422C83.688 286.566 82.2959 287.189 82.1809 287.29ZM78.3842 287.733C76.6722 288.015 76.3316 290.218 76.4214 291.886C76.8376 299.694 77.6562 307.499 79.4867 315.12C79.8394 316.579 80.2264 318.029 80.6475 319.471C81.0994 320.981 81.5933 322.485 82.087 323.975C83.4482 327.859 86.2045 333.88 90.3558 342.039C91.9299 342.605 92.6926 341.652 92.6441 339.18C92.608 337.362 77.1147 301.909 78.3842 287.733Z"
              fill="#B5C1C9"/>
        <path d="M75.4896 292.284C76.0587 315.16 86.1425 335.346 89.7869 341.468C90.8474 343.265 91.7333 341.63 90.1757 338.991C86.5313 332.87 75.4884 301.435 76.7817 289.025C75.8705 290.606 75.4398 291.692 75.4896 292.284Z"
              fill="white"/>
        <path d="M86.3117 286.566L82.7239 288.014C82.8021 288.577 82.8937 289.139 82.9987 289.698C84.704 296.984 90.3382 316.924 90.1151 311.383C89.744 303.168 88.5652 295.007 86.5937 287.006C86.5602 286.859 86.4595 286.713 86.3117 286.566Z"
              fill="white"/>
        <path d="M104.803 318.075L104.942 316.571L91.503 304.866L104.803 318.075Z" fill="white"/>
        <path d="M120.984 326.71C118.443 327.724 112.507 328.855 103.175 330.104C111.58 325.573 117.03 323.07 119.526 322.595C123.27 321.881 124.101 325.454 120.984 326.71Z"
              fill="white"/>
        <path d="M94.3976 358.622L89.3696 345.121L94.8464 343.142L101.766 344.894C101.781 349.084 101.411 352.132 100.657 354.038C99.9029 355.944 97.8165 357.472 94.3976 358.622Z"
              fill="#B5C1C9"/>
        <path d="M87.5005 350.618L90.1272 357.897L79.949 364.27L87.5005 350.618Z" fill="white"/>
        <path d="M118.105 348.022L124.562 346.736L124.342 336.194L118.105 348.022Z" fill="white"/>
        <path d="M128.313 364.951C123.583 367.142 120.161 368.46 118.049 368.907C114.879 369.577 115.249 369.895 110.58 367.907C109.788 367.57 109.648 369.889 112.45 370.884C114.317 371.547 116.184 371.549 118.05 370.89C122.511 369.695 125.821 368.458 127.982 367.18C130.886 365.462 131.844 365.206 131.111 361.98C131.111 361.98 130.178 362.97 128.313 364.951Z"
              fill="white"/>
        <path d="M117.542 357.143C117.044 357.452 116.226 358.224 116.729 361.043C117.214 363.756 117.28 366.321 116.599 366.456C114.335 366.905 114.97 367.813 111.636 366.492C111.071 366.268 110.969 367.814 112.969 368.475C114.303 368.915 115.636 368.915 116.97 368.474C120.157 367.674 122.523 366.847 124.067 365.992C125.451 365.227 125.53 364.732 124.305 364.507C122.864 365.131 120.726 363.121 120.741 362.932C120.835 361.895 121.257 360.978 120.315 359.445C120.17 359.201 119.923 358.746 119.729 358.21C118.603 357.292 117.874 356.936 117.542 357.143Z"
              fill="white"/>
        <path d="M94.3611 281.991C93.7891 283.135 92.7196 290.246 94.932 294C97.7344 298.756 105.365 302.495 105.366 302.335C105.367 302.176 105.226 298.896 105.227 296.86C105.227 295.335 105.989 295.144 107.514 296.288L118.952 306.01L122.384 308.869C123.726 307.729 125.442 306.394 127.532 304.866C130.667 302.573 132.107 301.434 134.967 299.147C137.827 296.859 135.54 292.856 132.108 295.144C128.676 297.431 127.322 298.269 120.531 301.892C114.827 296.137 110.138 291.009 105.799 287.709C101.46 284.41 96.6488 282.563 94.3611 281.991ZM85.3535 268.355C85.3529 272.813 84.6438 269.242 87.6396 272.918C88.699 274.218 89.926 275.199 91.4502 277.481C92.2127 275.199 92.5658 275.051 93.7375 272.918C92.8351 276.353 93.9629 275.334 92.6488 277.684C93.7148 276.21 94.323 276.001 95.8494 273.217C94.9929 276.27 94.1707 278.601 93.8333 279.002C94.757 278.366 94.5435 278.571 95.8934 276.968C95.3843 278.137 94.7675 279.243 94.0774 280.262C98.4242 275.462 100.598 272 100.598 269.876C100.599 264.626 97.8578 260.75 92.5957 260.75C87.3335 260.75 85.3541 263.105 85.3535 268.355Z"
              fill="white"/>
        <path fill-rule="evenodd" clip-rule="evenodd"
              d="M148.986 261.402L149.269 276.945C149.308 279.091 147.582 280.863 145.413 280.903L141.518 280.974L141.642 287.774C141.671 289.384 140.376 290.713 138.75 290.743C137.123 290.773 135.781 289.492 135.752 287.883L135.628 281.083L132.131 281.147C129.963 281.187 128.173 279.48 128.134 277.334L127.851 261.792L148.986 261.402Z"
              fill="black" stroke="black" stroke-width="0.55" stroke-linecap="round" stroke-linejoin="round"/>
        <path d="M147.273 271.728L129.943 272.044C129.834 272.046 129.76 272.813 129.777 273.756C129.794 274.7 129.896 275.463 130.005 275.461L147.335 275.145C147.444 275.143 147.518 274.377 147.501 273.433C147.484 272.49 147.382 271.726 147.273 271.728Z"
              fill="#B5C1C9"/>
        <path d="M140.615 288.486L140.416 277.407C140.414 277.338 139.647 277.296 138.701 277.313C137.756 277.33 136.99 277.401 136.991 277.47C138.223 282.491 138.857 285.945 138.891 287.834C138.941 290.666 140.616 288.555 140.615 288.486Z"
              fill="#B5C1C9"/>
        <path d="M140.329 288.489L140.205 281.565C140.204 281.551 139.178 282.318 138.951 283.089C138.474 284.706 138.597 287.162 138.616 288.231C138.644 289.81 140.33 288.532 140.329 288.489Z"
              fill="white"/>
        <path d="M144.561 263.198L144.646 267.883L143.171 263.224L140.623 263.271L140.665 265.613L139.928 263.283L129.794 263.47C129.685 263.472 129.627 265.134 129.664 267.182C129.702 269.23 129.82 270.889 129.929 270.887L147.256 270.568C147.362 270.566 147.42 268.974 147.387 266.986L147.385 266.856C147.347 264.808 147.229 263.149 147.12 263.151L144.561 263.198Z"
              fill="#B5C1C9"/>
        <path d="M129.794 263.469C129.69 263.471 129.633 265.018 129.661 266.981L129.666 267.279C129.678 267.963 129.699 268.605 129.726 269.159C131.874 270.064 133.992 269.9 135.218 268.178C136.91 265.802 138.644 265.125 140.473 264.914L139.966 263.283L129.794 263.469ZM140.664 263.27L140.694 264.891C141.667 264.798 142.668 264.822 143.704 264.779L143.222 263.223L140.664 263.27ZM144.616 263.197L144.644 264.718C145.286 264.658 145.943 264.553 146.615 264.363C146.867 264.291 147.107 264.209 147.336 264.118C147.289 263.515 147.236 263.149 147.186 263.15L144.616 263.197Z"
              fill="white"/>
        <path d="M140.462 286.594C139.191 286.818 138.498 287.52 138.042 287.888C137.737 288.134 137.273 289.129 136.649 290.874C136.848 290.868 136.773 290.955 136.531 291.093C136.605 292.813 137.209 294.426 138.255 295.658C140.612 294.837 142.635 294.253 143.793 293.413C145.073 292.485 144.892 291.251 143.78 291.17C143.051 291.436 143.754 290.132 143.747 289.943C143.726 289.283 143.183 289.559 142.502 289.491C142.109 289.452 143.216 288.484 142.718 288.252C142.439 288.121 141.962 288.027 141.723 287.788C141.536 287.599 142.625 287.068 142.187 286.792C141.749 286.517 141.165 286.47 140.462 286.594Z"
              fill="white"/>
        <path fill-rule="evenodd" clip-rule="evenodd"
              d="M78.4237 355.02C79.3885 356.045 79.1129 357.491 78.2028 360.879C77.7537 362.552 76.8291 363.472 76.2524 365.62C75.6758 367.767 76.8114 368.58 76.3623 370.252C75.4523 373.641 72.7369 375.859 70.2973 375.207C67.8578 374.554 66.6178 371.279 67.5278 367.89C67.7938 366.9 70.7621 359.123 72.8812 355.511C74.3407 353.023 77.459 353.995 78.4237 355.02Z"
              fill="white"/>
        <mask id="path-85-inside-1_1007_3743" fill="white">
            <path fill-rule="evenodd" clip-rule="evenodd"
                  d="M73.7867 368.004C71.3158 367.111 69.0728 366.16 67.2776 365.273C69.2983 365.735 71.7709 366.469 74.3982 367.418C76.8692 368.31 79.1122 369.261 80.9074 370.149C78.8866 369.686 76.414 368.952 73.7867 368.004Z"/>
        </mask>
        <path fill-rule="evenodd" clip-rule="evenodd"
              d="M73.7867 368.004C71.3158 367.111 69.0728 366.16 67.2776 365.273C69.2983 365.735 71.7709 366.469 74.3982 367.418C76.8692 368.31 79.1122 369.261 80.9074 370.149C78.8866 369.686 76.414 368.952 73.7867 368.004Z"
              fill="black"/>
        <path d="M73.7867 368.004L74.1267 367.062L73.7867 368.004ZM67.2776 365.273L67.5012 364.297L66.8343 366.17L67.2776 365.273ZM74.3982 367.418L74.7383 366.476L74.3982 367.418ZM80.9074 370.149L80.6837 371.124L81.3507 369.251L80.9074 370.149ZM74.1267 367.062C71.6849 366.18 69.4772 365.244 67.7209 364.375L66.8343 366.17C68.6685 367.077 70.9467 368.042 73.4467 368.945L74.1267 367.062ZM67.054 366.248C69.028 366.7 71.4613 367.421 74.0582 368.359L74.7383 366.476C72.0805 365.516 69.5686 364.77 67.5012 364.297L67.054 366.248ZM74.0582 368.359C76.5001 369.241 78.7078 370.178 80.4641 371.046L81.3507 369.251C79.5165 368.344 77.2383 367.379 74.7383 366.476L74.0582 368.359ZM81.1311 369.173C79.1569 368.721 76.7236 368 74.1267 367.062L73.4467 368.945C76.1044 369.905 78.6163 370.651 80.6837 371.124L81.1311 369.173Z"
              fill="black" mask="url(#path-85-inside-1_1007_3743)"/>
        <mask id="path-87-inside-2_1007_3743" fill="white">
            <path fill-rule="evenodd" clip-rule="evenodd"
                  d="M72.0353 363.886C69.8298 363.089 67.8267 362.243 66.2225 361.456C68.0241 361.874 70.23 362.532 72.5752 363.38C74.7808 364.176 76.7839 365.022 78.3882 365.81C76.5864 365.392 74.3805 364.733 72.0353 363.886Z"/>
        </mask>
        <path fill-rule="evenodd" clip-rule="evenodd"
              d="M72.0353 363.886C69.8298 363.089 67.8267 362.243 66.2225 361.456C68.0241 361.874 70.23 362.532 72.5752 363.38C74.7808 364.176 76.7839 365.022 78.3882 365.81C76.5864 365.392 74.3805 364.733 72.0353 363.886Z"
              fill="black"/>
        <path d="M72.0353 363.886L72.3754 362.944L72.0353 363.886ZM66.2225 361.456L66.4492 360.481L65.7817 362.354L66.2225 361.456ZM72.5752 363.38L72.9153 362.438L72.5752 363.38ZM78.3882 365.81L78.1614 366.785L78.8289 364.911L78.3882 365.81ZM72.3754 362.944C70.1982 362.158 68.2294 361.326 66.6632 360.557L65.7817 362.354C67.424 363.161 69.4614 364.02 71.6953 364.827L72.3754 362.944ZM65.9957 362.431C67.752 362.838 69.9196 363.484 72.2351 364.321L72.9153 362.438C70.5405 361.58 68.2963 360.909 66.4492 360.481L65.9957 362.431ZM72.2351 364.321C74.4124 365.107 76.3812 365.939 77.9474 366.708L78.8289 364.911C77.1867 364.105 75.1492 363.245 72.9153 362.438L72.2351 364.321ZM78.6149 364.835C76.8586 364.427 74.691 363.781 72.3754 362.944L71.6953 364.827C74.0701 365.685 76.3142 366.356 78.1614 366.785L78.6149 364.835Z"
              fill="black" mask="url(#path-87-inside-2_1007_3743)"/>
        <mask id="path-89-inside-3_1007_3743" fill="white">
            <path fill-rule="evenodd" clip-rule="evenodd"
                  d="M71.1002 360.49C69.6423 359.964 68.3184 359.404 67.2584 358.882C68.4497 359.158 69.9081 359.592 71.4583 360.152C72.9163 360.679 74.2402 361.239 75.3002 361.76C74.1088 361.485 72.6504 361.05 71.1002 360.49Z"/>
        </mask>
        <path fill-rule="evenodd" clip-rule="evenodd"
              d="M71.1002 360.49C69.6423 359.964 68.3184 359.404 67.2584 358.882C68.4497 359.158 69.9081 359.592 71.4583 360.152C72.9163 360.679 74.2402 361.239 75.3002 361.76C74.1088 361.485 72.6504 361.05 71.1002 360.49Z"
              fill="black"/>
        <path d="M71.1002 360.49L70.7601 361.432L71.1002 360.49ZM67.2584 358.882L67.4842 357.907L66.8168 359.781L67.2584 358.882ZM71.4583 360.152L71.1183 361.094L71.4583 360.152ZM75.3002 361.76L75.0744 362.735L75.7418 360.862L75.3002 361.76ZM71.4403 359.549C70.0109 359.033 68.7217 358.487 67.7 357.984L66.8168 359.781C67.9152 360.321 69.2737 360.895 70.7601 361.432L71.4403 359.549ZM67.0326 359.857C68.1782 360.122 69.5979 360.544 71.1183 361.094L71.7984 359.211C70.2183 358.64 68.7213 358.193 67.4842 357.907L67.0326 359.857ZM71.1183 361.094C72.5476 361.61 73.8369 362.156 74.8586 362.658L75.7418 360.862C74.6434 360.321 73.2849 359.748 71.7984 359.211L71.1183 361.094ZM75.526 360.785C74.3804 360.52 72.9606 360.098 71.4403 359.549L70.7601 361.432C72.3402 362.003 73.8372 362.449 75.0744 362.735L75.526 360.785Z"
              fill="black" mask="url(#path-89-inside-3_1007_3743)"/>
        <path d="M146.801 384.455L146.795 384.494V384.533C146.795 385.708 146 388.341 141.69 389.916C138.913 390.832 135.658 391.294 132.394 391.294C129.826 391.294 127.209 391.005 124.923 390.403C122.627 389.798 120.712 388.891 119.5 387.691C118.608 386.808 117.993 385.757 117.993 384.533V384.494L117.987 384.455L113.735 357.323C113.755 354.371 116.049 352.109 119.642 350.559C123.228 349.013 127.946 348.258 132.394 348.258C137.084 348.258 141.506 348.956 144.734 350.326L144.734 350.326L144.739 350.328C147.51 351.472 149.08 352.824 149.96 354.077C150.826 355.309 151.046 356.476 151.052 357.324L146.801 384.455Z"
              fill="black" stroke="black"/>
        <path d="M117.244 358.622C117.426 358.852 117.621 359.073 117.827 359.283C120.744 362.268 126.845 363.625 132.679 363.625C136.393 363.625 140.106 363.082 143.289 361.997C145.704 361.086 147.205 359.864 148.114 358.659C148.118 358.751 148.121 358.838 148.121 358.923L144.689 381.703C144.689 382.881 143.927 385.238 140.305 386.613C138.017 387.398 135.348 387.791 132.679 387.791C128.486 387.791 124.101 386.809 122.004 384.649C121.242 383.863 120.67 382.881 120.67 381.703L117.238 358.923L117.246 358.626L117.244 358.622Z"
              fill="#B5C1C9"/>
        <path d="M144.629 363.2C144.69 364.43 144.707 365.744 144.669 367.142C144.669 377.075 142.579 383.035 141.534 384.36C140.488 383.035 138.398 377.075 138.398 367.142C138.398 366.46 138.408 365.796 138.427 365.152C140.187 364.886 141.883 364.44 143.432 363.816C143.828 363.64 144.195 363.452 144.535 363.255L144.629 363.2Z"
              fill="white"/>
        <path d="M120.063 360.724C120.154 361.197 120.25 361.683 120.352 362.184L120.353 362.187C120.929 365.128 121.481 367.579 121.962 369.519C121.675 367.542 121.263 365.065 120.687 362.126C120.607 361.716 120.527 361.315 120.448 360.923C120.318 360.867 120.19 360.801 120.063 360.724Z"
              fill="black" stroke="black"/>
        <path d="M122.648 360.197C122.681 360.366 122.716 360.539 122.754 360.715L122.754 360.715L122.755 360.723C123.042 362.188 123.352 363.402 123.64 364.355C123.546 363.365 123.376 362.125 123.089 360.661C123.064 360.532 123.039 360.404 123.013 360.279C122.891 360.258 122.769 360.231 122.648 360.197Z"
              fill="black" stroke="black"/>
        <path d="M117.937 370.116C117.763 368.923 117.702 367.27 117.759 365.148C117.915 365.967 118.097 366.897 118.311 367.898C119.069 371.444 120.242 375.937 122.154 379.784C124.088 383.673 126.591 385.759 128.492 387.03C128.964 387.346 129.399 387.611 129.771 387.837L129.818 387.865C129.877 387.901 129.933 387.935 129.988 387.969C129.948 387.959 129.907 387.949 129.866 387.939C129.828 387.93 129.789 387.921 129.749 387.912C128.762 387.676 127.504 387.37 126.237 386.944C124.967 386.516 123.715 385.976 122.732 385.282C121.748 384.587 121.081 383.773 120.88 382.808C120.75 382.178 120.469 381.106 120.129 379.808C119.93 379.051 119.712 378.216 119.491 377.346C118.886 374.966 118.256 372.299 117.937 370.116Z"
              fill="black" stroke="black"/>
        <path d="M132.393 354.637C125.536 354.423 121.517 356.347 120.098 357.202C121.044 358.057 125.3 359.768 132.393 359.768C139.487 359.768 143.743 358.057 144.689 357.202C143.743 356.347 139.487 354.637 132.393 354.637Z"
              fill="white"/>
        <path fill-rule="evenodd" clip-rule="evenodd"
              d="M384.456 157.499C382.048 161.463 376.88 162.97 372.519 160.843C368.158 158.717 366.163 153.717 367.803 149.379L384.456 157.499Z"
              fill="white"/>
        <path d="M385.22 182.133L385.106 182.312L385.156 182.519C385.742 184.94 384.637 187.506 382.398 188.727C376.628 191.874 372.168 194.266 369.013 195.905C368.632 196.103 367.976 196.481 367.185 196.936C367.131 196.968 367.076 197 367.02 197.032C366.149 197.534 365.119 198.125 364.078 198.697C363.036 199.269 361.99 199.816 361.087 200.231C360.161 200.656 359.454 200.909 359.06 200.945C358.847 200.965 358.617 200.988 358.373 201.012C357.347 201.116 356.078 201.243 354.836 201.245C354.071 201.246 353.335 201.199 352.69 201.074C352.041 200.948 351.52 200.749 351.156 200.472C350.717 200.137 350.243 199.5 349.8 198.794C349.512 198.335 349.267 197.897 349.058 197.525C349.02 197.457 348.983 197.392 348.948 197.329C351.928 194.587 353.856 192.792 354.726 191.95C355.199 191.491 355.264 190.811 355.245 190.225C355.231 189.803 355.167 189.323 355.104 188.862C355.079 188.67 355.053 188.483 355.032 188.304C354.956 187.655 354.929 187.087 355.039 186.636C355.14 186.221 355.35 185.92 355.788 185.739C356.379 185.496 357.111 185.599 358.056 186.275C359.005 186.953 360.088 188.158 361.302 189.931L361.59 190.352L362.004 190.053L377.723 178.698L377.898 178.571L377.927 178.358L379.609 166.024C381.415 161.862 382.963 158.735 384.253 156.629C384.902 155.57 385.475 154.787 385.971 154.264C386.484 153.724 386.846 153.534 387.067 153.509C388.007 153.402 389.2 153.97 390.146 155.699C391.089 157.426 391.737 160.246 391.543 164.403C391.286 169.906 389.193 175.813 385.22 182.133Z"
              fill="black" stroke="black"/>
        <path d="M378.059 183.196L380.409 185.777C380.517 187.12 379.722 188.49 378.344 189.189C374.229 191.276 369.707 192.974 364.778 194.281C361.575 194.943 359.552 194.862 358.707 194.038L378.041 183.294L378.059 183.196Z"
              fill="white"/>
        <path d="M357.907 191.221C357.361 191.279 356.897 191.163 356.76 190.914C356.351 190.172 356.138 189.339 356.123 188.417C356.188 187.812 356.428 187.416 356.842 187.229L359.154 190.506L357.907 191.221Z"
              fill="white"/>
        <path d="M360.726 191.862C362.125 192.55 363.577 195.247 363.676 196.615C361.972 197.428 360.543 198.196 359.41 198.47C359.362 198.512 359.307 198.548 359.247 198.574C358.457 198.918 357.593 199.161 356.652 199.301C356.042 199.349 355.658 199.265 355.501 199.05L357.56 198.034C357.496 197.899 357.478 197.748 357.513 197.593C357.18 197.674 356.769 197.758 356.267 197.848C353.64 198.153 351.994 197.903 351.33 197.097C354.867 194.167 356.766 192.612 357.028 192.43C357.92 191.811 359.327 191.175 360.726 191.862Z"
              fill="white"/>
        <path d="M382.942 165.744L387.302 164.332C387.581 167.354 387.383 170.06 386.708 172.451C386.57 172.938 384.975 173.317 384.759 173.875C384.056 175.69 384.355 178.031 382.819 180.612C381.755 181.288 381.104 179.833 380.867 176.245C380.63 172.658 381.322 169.158 382.942 165.744Z"
              fill="white"/>
    </g>
    <defs>
        <clipPath id="clip0_1007_3743">
            <rect width="512" height="512" fill="white"/>
        </clipPath>
    </defs>
</svg>
