<svg width="512" height="512" viewBox="0 0 512 512" fill="none" xmlns="http://www.w3.org/2000/svg">
    <g clip-path="url(#clip0_1007_3746)">
        <path fill-rule="evenodd" clip-rule="evenodd"
              d="M356.265 100.589L354.113 99.6816L353.473 101.928C352.83 104.183 352.219 105.503 351.48 106.164L351.47 106.173C351.384 106.251 351.279 106.333 351.157 106.415C350.665 106.745 349.95 107.023 348.945 107.259C347.945 107.495 346.815 107.656 345.529 107.837L345.412 107.853C342.849 108.214 339.593 108.673 336.582 110.167C335.908 110.5 335.252 110.881 334.631 111.298C330.647 113.973 328.264 117.96 326.785 122.255C325.312 126.536 324.688 131.27 324.315 135.635L324.304 135.761C324.022 139.059 323.589 144.108 325.854 148.968C327.852 153.253 331.281 156.086 334.371 158.341C348.893 168.938 365.439 175.244 379.603 180.266C386.064 182.559 392.811 184.74 399.808 184.174C407.613 183.543 413.912 179.688 419.551 176.236L419.708 176.14C422.012 174.73 424.164 173.416 426.296 172.339C427.717 180.719 432.475 189.102 439.55 195.178C447.347 201.873 457.669 206.076 470.101 207.785C481.603 209.369 493.217 208.642 505.574 205.597C506.409 205.392 507.585 205.054 508.737 204.28C509.887 203.508 510.775 202.467 511.341 201.205C511.697 200.411 512.134 199.029 511.961 197.253C511.785 195.449 510.996 193.404 509.15 191.302C499.94 180.815 485.223 176.305 472.776 180.259C472.298 177.535 472.119 174.605 471.928 171.391C471.861 170.272 471.817 169.056 471.771 167.784C471.677 165.166 471.573 162.308 471.246 159.565C470.749 155.406 469.709 151.095 467.229 147.344C460.017 136.442 447.184 133.52 436.575 131.663C432.812 131.004 424.689 130.696 416.557 131.192C412.469 131.442 408.31 131.899 404.635 132.637C401.739 133.219 399.01 134.001 396.836 135.072C387.953 125.696 380.193 118.155 373.563 112.464C366.69 106.565 360.908 102.548 356.265 100.589ZM336.582 110.167L336.584 110.166L337.5 112.02L336.58 110.168L336.582 110.167Z"
              fill="black"/>
        <path d="M336.582 110.167C339.593 108.673 342.849 108.214 345.412 107.853L345.529 107.837C346.815 107.656 347.945 107.495 348.945 107.259C349.95 107.023 350.665 106.745 351.157 106.415C351.279 106.333 351.384 106.251 351.47 106.173L351.48 106.164C352.219 105.503 352.83 104.183 353.473 101.928L354.113 99.6816L356.265 100.589C360.908 102.548 366.69 106.565 373.563 112.464C380.193 118.155 387.953 125.696 396.836 135.072C399.01 134.001 401.739 133.219 404.635 132.637C408.31 131.899 412.469 131.442 416.557 131.192C424.689 130.696 432.813 131.004 436.575 131.663C447.184 133.52 460.017 136.442 467.229 147.344C469.709 151.095 470.749 155.406 471.246 159.565C471.573 162.308 471.677 165.166 471.771 167.784C471.817 169.056 471.861 170.272 471.928 171.391C472.119 174.605 472.298 177.535 472.776 180.259C485.223 176.305 499.94 180.815 509.15 191.302C510.996 193.404 511.785 195.449 511.961 197.253C512.134 199.029 511.697 200.411 511.341 201.205C510.775 202.467 509.887 203.508 508.737 204.28C507.585 205.054 506.409 205.392 505.574 205.597C493.217 208.642 481.603 209.369 470.101 207.785C457.669 206.076 447.347 201.873 439.55 195.178C432.475 189.102 427.717 180.719 426.296 172.339C424.164 173.416 422.012 174.73 419.708 176.14L419.551 176.236C413.912 179.688 407.613 183.543 399.808 184.174M336.582 110.167C335.908 110.5 335.252 110.881 334.631 111.298C330.647 113.973 328.264 117.96 326.785 122.255C325.312 126.536 324.688 131.27 324.315 135.635M336.582 110.167L336.584 110.166L337.5 112.02L336.58 110.168L336.582 110.167ZM324.315 135.635L326.376 135.811M324.315 135.635L324.304 135.761C324.022 139.059 323.589 144.108 325.854 148.968M325.854 148.968C327.852 153.253 331.281 156.086 334.371 158.341C348.893 168.938 365.439 175.244 379.603 180.266M325.854 148.968L327.728 148.094M379.603 180.266C386.064 182.559 392.811 184.74 399.808 184.174M379.603 180.266L380.294 178.318M399.808 184.174L399.641 182.113"
              stroke="black" stroke-width="2.63701"/>
        <path d="M339.471 116.838L339.471 116.838C336.226 118.48 334.24 121.51 332.989 125.18C331.737 128.854 331.242 133.111 330.943 137.119L330.943 137.119C330.693 140.462 330.51 143.855 331.931 146.838L339.471 116.838ZM339.471 116.838C339.689 116.728 340.013 116.659 340.465 116.659C340.912 116.659 341.452 116.728 342.076 116.862C343.323 117.13 344.854 117.651 346.558 118.352C349.962 119.751 353.994 121.84 357.723 123.957C361.45 126.073 364.859 128.208 367.013 129.694C367.143 129.783 367.267 129.869 367.387 129.953M339.471 116.838L369.126 130.628M381.548 174.507C387.323 176.516 393.313 178.472 399.182 177.956C405.57 177.397 410.973 174.026 416.39 170.646C421.278 167.596 426.177 164.54 431.821 163.534C431.831 163.475 431.841 163.416 431.852 163.357L432.344 163.447L432.42 163.942C432.365 163.95 432.31 163.959 432.255 163.968C430.774 173.432 435.936 183.764 443.557 190.217C451.32 196.79 461.19 199.863 470.815 201.125C482.199 202.618 493.162 201.569 503.918 198.835C504.654 198.649 505.469 198.395 505.777 197.69C506.194 196.737 505.445 195.592 504.704 194.762C496.854 185.957 483.988 182.41 473.879 186.264C472.235 186.891 470.209 187.624 468.767 186.375C468.049 185.753 467.713 184.796 467.454 183.885C466.284 179.751 465.98 175.4 465.678 171.082C465.204 164.301 464.736 157.602 460.93 151.949C455.165 143.386 444.247 140.968 434.569 139.336C426.679 138.006 418.029 136.815 411.646 141.066C408.536 143.137 406.353 146.268 404.176 149.391C403.496 150.367 402.816 151.342 402.108 152.284M381.548 174.507L381.711 174.035C387.501 176.048 393.392 177.962 399.138 177.458L399.139 177.458C405.167 176.93 410.317 173.841 415.557 170.576C415.757 170.451 415.956 170.327 416.156 170.202C421.169 167.074 426.298 163.873 432.267 162.953L432.962 162.846L432.835 163.538C431.118 172.914 436.211 183.342 443.88 189.835C451.542 196.323 461.308 199.374 470.88 200.629C482.191 202.112 493.089 201.071 503.795 198.35L503.796 198.35C504.161 198.258 504.499 198.159 504.777 198.014C505.048 197.872 505.226 197.704 505.319 197.489L505.32 197.489C505.449 197.194 505.417 196.828 505.219 196.385C505.021 195.943 504.687 195.494 504.332 195.095C496.603 186.427 483.95 182.96 474.057 186.732C473.242 187.042 472.269 187.406 471.306 187.52C470.329 187.636 469.303 187.501 468.44 186.754L468.44 186.754C467.598 186.024 467.231 184.93 466.974 184.022L466.973 184.022C465.787 179.833 465.479 175.412 465.177 171.085C465.092 169.862 465.007 168.647 464.903 167.446C464.428 161.961 463.556 156.744 460.516 152.229C454.887 143.867 444.193 141.467 434.486 139.83C430.54 139.164 426.446 138.542 422.551 138.608C418.659 138.675 415.006 139.429 411.922 141.482C409.948 142.797 408.346 144.563 406.858 146.515C406.114 147.49 405.403 148.506 404.688 149.531L404.584 149.68C403.905 150.654 403.22 151.636 402.508 152.585M381.548 174.507L381.711 174.035C366.585 168.776 351.434 162.884 338.189 153.354L338.189 153.354C335.669 151.541 333.222 149.542 331.931 146.838L381.548 174.507ZM402.508 152.585L402.108 152.284M402.508 152.585C402.508 152.585 402.508 152.585 402.507 152.585L402.108 152.284M402.508 152.585C399.157 157.046 394.431 160.906 389.224 162.924C384.009 164.946 378.287 165.127 373.013 162.175L373.013 162.175C368.266 159.518 365.118 154.976 363.328 149.833C361.539 144.691 361.095 138.916 361.776 133.726L361.776 133.726C361.865 133.053 361.995 132.308 362.254 131.638C362.515 130.964 362.923 130.326 363.593 129.917L363.593 129.917C364.52 129.352 365.56 129.429 366.516 129.679C366.801 129.754 367.094 129.849 367.387 129.953M402.108 152.284C395.503 161.08 383.491 167.466 373.257 161.738C364.03 156.573 360.926 144.032 362.272 133.791C362.447 132.464 362.765 131.008 363.853 130.344C365.121 129.572 366.733 130.215 368.26 130.825C368.466 130.907 368.67 130.989 368.872 131.066C368.547 130.793 368.045 130.415 367.387 129.953M367.387 129.953C367.758 130.085 368.128 130.233 368.483 130.375C368.705 130.463 368.921 130.549 369.126 130.628M369.126 130.628C365.32 127.485 343.474 114.252 339.246 116.392L369.126 130.628ZM369.195 131.186C369.208 131.062 369.274 130.937 369.392 130.857C369.83 131.259 369.809 131.401 369.195 131.186Z"
              fill="black" stroke="black"/>
        <path fill-rule="evenodd" clip-rule="evenodd"
              d="M456.97 149.332C457.329 149.721 457.767 150.01 457.833 150.582L457.792 150.497C463.919 160.03 463.301 170.758 465.088 181.03C465.674 184.393 465.838 187.475 468.215 190.467C469.483 192.065 475.284 196.574 474.809 197.574C474.712 197.78 467.563 197.79 464.977 197.534C447.856 195.837 442.298 187.865 442.298 187.865C434.761 179.923 435.943 171.965 436.704 170.504C440.295 163.606 457.413 157.469 457.89 156.475C458.246 155.734 452.059 151.128 445.067 150.711C442.702 150.392 441.603 152.213 440.775 153.619C436.61 160.695 434.665 161.122 427.905 164.417C423.601 166.514 408.126 151.681 410.314 145.397C412.212 139.943 412.837 140.472 417.889 140.224C421.136 140.066 429.775 139.286 437.916 140.976C446.712 142.801 454.99 147.186 456.97 149.332Z"
              fill="#B5C1C9"/>
        <path d="M463.772 167.122C462.255 162.304 460.129 158.958 457.835 157.149C456.685 156.242 455.478 155.711 454.279 155.596C453.075 155.481 451.911 155.789 450.865 156.505C447.45 158.843 444.96 159.998 443.131 160.262C442.227 160.392 441.505 160.302 440.915 160.046C440.325 159.791 439.827 159.355 439.399 158.729C439.03 158.19 438.921 157.451 439.123 156.509C439.326 155.565 439.833 154.465 440.627 153.276C442.213 150.902 444.884 148.262 448.273 145.943C449.822 144.882 451.372 144.898 452.911 145.58C454.481 146.276 456.027 147.666 457.459 149.334C459.555 151.778 461.294 154.67 462.47 156.625C462.909 157.357 463.271 157.957 463.542 158.354C463.541 158.354 463.541 158.353 463.541 158.353C463.541 158.353 463.552 158.371 463.57 158.417C463.59 158.467 463.612 158.534 463.638 158.621C463.688 158.795 463.743 159.025 463.799 159.307C463.911 159.868 464.025 160.602 464.13 161.428C464.34 163.079 464.512 165.068 464.564 166.719C464.591 167.546 464.587 168.277 464.545 168.833C464.537 168.947 464.527 169.051 464.515 169.145C464.318 168.726 464.071 168.072 463.772 167.122Z"
              fill="black" stroke="black"/>
        <path fill-rule="evenodd" clip-rule="evenodd"
              d="M448.167 151.867C437.912 157.023 435.162 161.227 428.927 164.358C424.958 166.349 427.216 140.032 430.915 139.709C433.293 139.503 442.752 138.808 449.792 141.141C456.833 143.473 457.725 146.392 461.19 150.529C455.211 149.301 450.579 150.655 448.167 151.867Z"
              fill="white"/>
        <path fill-rule="evenodd" clip-rule="evenodd"
              d="M498.434 199.867C490.234 202.337 481.035 195.434 475.598 190.965C473.677 189.386 474.381 187.946 476.841 187.636C485.967 186.488 496.507 188.208 503.764 195.595C504.563 196.409 499.978 199.403 498.434 199.867Z"
              fill="#B5C1C9"/>
        <path fill-rule="evenodd" clip-rule="evenodd"
              d="M371.684 119.919C368.631 116.528 362.894 112.684 357.614 112.99C354.655 113.162 354.283 114.495 347.342 115.795C345.541 116.133 344.819 116.366 343.171 116.651C336.345 117.83 332.896 122.023 331.912 128.949C331.302 133.236 330.165 137.399 330.207 141.838C330.288 146.132 332.622 149.035 335.898 151.645C343.798 157.934 379.549 173.413 393.634 177.578C397.116 178.607 399.439 177.152 399.498 176.78C399.844 174.608 397.586 174.677 396.292 173.998C387.71 169.499 378.86 165.69 370.381 160.907C367.019 159.012 364.633 156.718 363.046 154.075C361.896 152.159 361.508 148.481 360.599 141.201C360.128 137.437 359.957 135.172 360.085 132.467C360.118 131.735 360.245 129.451 360.903 126.614C360.903 126.614 361.828 122.617 364.09 120.216C364.583 119.692 365.102 119.298 365.538 119.468C365.666 119.518 365.969 119.686 366.213 120.539C366.626 121.987 366.15 123.227 366.148 123.669C366.13 127.085 367.094 129.536 368.822 130.841C370.753 132.3 373.14 131.795 376.06 131.145C378.517 130.597 381.606 129.333 381.416 128.436C381.318 127.982 380.414 127.781 379.955 127.652C376.238 126.612 374.135 122.643 371.684 119.919Z"
              fill="#B5C1C9"/>
        <path fill-rule="evenodd" clip-rule="evenodd"
              d="M361.581 118.614C355.98 119.256 355.547 138.451 356.015 142.208C356.648 147.295 339.238 154.137 335.927 151.514C332.645 148.913 330.308 146.018 330.232 141.733C330.195 137.302 331.338 133.146 331.954 128.867C332.948 121.953 336.41 117.764 343.254 116.58C344.907 116.293 345.631 116.061 347.437 115.721C354.397 114.416 354.771 113.085 357.739 112.91C357.766 112.909 357.794 112.907 357.821 112.906C360.46 114.647 361.325 114.74 363.227 117.49L361.581 118.614Z"
              fill="white"/>
        <path fill-rule="evenodd" clip-rule="evenodd"
              d="M297.737 308.166C334.447 294.251 314.401 264.137 318.496 259.047C324.679 251.362 332.196 243.089 343.18 242.198C350.517 241.603 357.522 245.995 363.495 248.826C366.845 250.414 370.016 251.918 373.264 252.756C373.327 252.43 373.377 252.092 373.408 251.888C375.087 240.535 384.78 230.728 396.978 228.04C401.263 227.096 403.275 229.051 403.941 229.935C404.483 230.651 404.799 231.478 404.88 232.391C404.963 233.316 404.785 234.146 404.6 234.836C401.656 245.812 397.231 255.164 391.067 263.424C384.4 272.363 376.779 278.477 368.419 281.597C359.963 284.753 350.575 284.497 343.315 281.203C342.958 284.276 343.109 287.529 343.266 290.904C343.379 293.347 356.696 289.871 358.456 292.546C361.099 296.565 352.33 306.783 350.684 310.436C348.246 315.848 339.294 324.005 334.606 328.162C324.376 337.238 307.525 347.005 292.947 353.801C289.838 355.25 286.437 356.558 282.64 356.303C278.267 356.01 274.779 353.689 272.231 351.993C265.65 347.614 258.508 337.61 257.831 329.997C257.778 329.4 257.764 328.793 257.79 328.194C257.907 325.443 258.881 322.886 259.739 320.629C260.565 318.46 261.346 316.411 261.192 314.688C261.173 314.474 261.141 314.265 261.093 314.064C260.754 312.598 259.579 311.191 258.073 309.704C264.812 304.394 278.034 303.882 297.737 308.166Z"
              fill="black" stroke="black" stroke-width="2.63701"/>
        <path d="M262.227 328.292L262.227 328.292C262.084 331.594 263.598 334.521 265.953 337.155C268.31 339.792 271.469 342.088 274.521 344.119L274.521 344.119C277.068 345.815 279.674 347.472 282.667 347.673L262.227 328.292ZM262.227 328.292C262.236 328.079 262.323 327.797 262.523 327.441C262.721 327.088 263.013 326.692 263.397 326.256C264.165 325.386 265.26 324.402 266.577 323.359C269.208 321.276 272.667 319.001 276.013 316.979C279.359 314.958 282.577 313.2 284.718 312.149C284.749 312.134 284.78 312.119 284.811 312.104C284.68 312.224 284.554 312.346 284.435 312.469C283.807 313.121 283.271 313.927 283.307 314.935L283.307 314.935C283.333 315.665 283.665 316.285 284.087 316.798C284.507 317.309 285.045 317.747 285.54 318.12L285.541 318.12C289.367 320.989 294.162 323.222 299.055 324.099C303.949 324.976 308.976 324.501 313.22 321.903L313.22 321.903C317.935 319.015 320.351 314.364 321.074 309.297C321.796 304.238 320.836 298.739 318.783 294.068C318.346 293.075 317.871 292.09 317.4 291.113L317.328 290.965C316.833 289.936 316.343 288.916 315.9 287.889C315.015 285.832 314.328 283.771 314.165 281.618C313.911 278.255 314.938 275.018 316.621 271.893C318.305 268.766 320.625 265.787 322.916 262.942C328.553 255.942 335.225 248.517 344.364 247.778C349.298 247.378 353.827 249.014 358.398 251.089C359.397 251.543 360.4 252.019 361.409 252.497C364.984 254.193 368.641 255.928 372.506 256.859L372.506 256.859C373.342 257.06 374.387 257.26 375.356 256.912L375.356 256.912C376.351 256.554 376.924 255.785 377.271 254.948C377.613 254.124 377.759 253.181 377.875 252.394L377.382 252.32L377.876 252.394C379.292 242.849 387.681 234.337 398.007 232.064C398.48 231.96 398.982 231.896 399.415 231.936C399.85 231.975 400.141 232.112 400.308 232.333L400.308 232.333C400.429 232.493 400.482 232.699 400.473 232.972C400.465 233.252 400.394 233.561 400.304 233.893L400.304 233.894C397.688 243.632 393.652 252.771 387.427 261.109C382.158 268.166 375.379 274.571 366.811 277.766L366.985 278.235L366.811 277.766C358.235 280.964 347.69 280.352 341.018 274.802L340.478 274.353L340.232 275.011C338.295 280.186 338.55 285.711 338.798 291.1C338.808 291.316 338.818 291.532 338.828 291.747C339.083 297.382 339.238 302.855 336.971 307.88L336.971 307.88C334.811 312.672 330.666 316.501 326.48 320.211L326.811 320.586L326.48 320.211C315.547 329.903 304.103 339.329 290.62 345.61L290.62 345.61M262.227 328.292L290.62 345.61M290.62 345.61C288.054 346.805 285.381 347.855 282.667 347.673L290.62 345.61Z"
              fill="black" stroke="black"/>
        <path fill-rule="evenodd" clip-rule="evenodd"
              d="M340.346 249.212C340.815 249.1 341.24 248.88 341.725 249.083L341.639 249.078C351.951 248.452 360.195 253.736 369.152 256.899C372.085 257.935 374.607 259.181 378.046 258.622C379.883 258.325 386.059 255.715 386.64 256.54C386.76 256.71 383.571 262.414 382.211 264.36C373.205 277.251 364.388 278.122 364.388 278.122C354.709 280.583 348.917 276.086 348.097 274.827C344.225 268.883 347.006 252.494 346.431 251.67C346.002 251.055 339.576 253.93 336.117 259.318C334.806 261.062 335.761 262.751 336.507 264.039C340.265 270.52 339.319 273.929 338.913 280.791C338.653 285.158 320.365 289.202 316.353 284.651C312.87 280.702 313.569 280.439 315.632 276.301C316.959 273.641 320.204 266.406 325.187 260.671C330.571 254.473 337.755 249.833 340.346 249.212Z"
              fill="#B5C1C9"/>
        <path d="M357.456 251.736C352.945 250.788 349.326 250.983 346.853 252.005C345.612 252.517 344.644 253.245 344.012 254.157C343.376 255.074 343.099 256.149 343.202 257.312C343.535 261.076 343.341 263.567 342.738 265.132C342.44 265.903 342.05 266.43 341.591 266.78C341.133 267.13 340.573 267.329 339.89 267.39C339.312 267.441 338.687 267.204 338.034 266.626C337.38 266.047 336.735 265.156 336.146 263.995C334.97 261.676 334.065 258.374 333.735 254.641C333.585 252.951 334.281 251.738 335.499 250.826C336.746 249.893 338.533 249.285 340.497 248.892C343.371 248.317 346.438 248.226 348.517 248.165C349.297 248.142 349.938 248.123 350.378 248.084C350.378 248.084 350.379 248.084 350.38 248.084C350.391 248.085 350.461 248.089 350.62 248.126C350.779 248.163 350.985 248.223 351.233 248.304C351.728 248.465 352.361 248.702 353.064 248.988C354.47 249.559 356.126 250.312 357.461 251.008C358.129 251.357 358.707 251.686 359.129 251.967C359.164 251.99 359.197 252.013 359.229 252.035C358.817 251.994 358.237 251.9 357.456 251.736Z"
              fill="black" stroke="black"/>
        <path fill-rule="evenodd" clip-rule="evenodd"
              d="M338.381 258.667C337.721 269.973 339.945 274.348 339.541 281.22C339.282 285.594 318.002 271.121 319.548 267.774C320.542 265.623 324.606 257.127 330.055 252.159C335.504 247.191 338.426 247.81 343.651 246.788C339.664 251.365 338.536 256.008 338.381 258.667Z"
              fill="white"/>
        <path fill-rule="evenodd" clip-rule="evenodd"
              d="M398.874 238.648C397.18 246.28 387.588 250.509 381.608 252.834C379.496 253.656 378.665 252.451 379.515 250.354C382.673 242.578 388.742 234.96 397.854 232.493C398.857 232.222 399.193 237.212 398.874 238.648Z"
              fill="#B5C1C9"/>
        <path fill-rule="evenodd" clip-rule="evenodd"
              d="M278.85 298.879C274.791 299.794 269.174 302.647 267.059 306.99C265.873 309.425 266.766 310.318 264.698 316.429C264.162 318.016 264.025 318.695 263.515 320.136C261.402 326.102 263.779 338.977 268.843 342.858C271.976 345.262 274.776 348.029 278.322 349.981C281.77 351.838 285.119 351.276 288.657 349.833C297.183 346.35 325.772 329.288 335.374 319.927C337.748 317.613 337.629 315.112 337.36 314.898C335.788 313.651 322.918 313.16 309.196 311.117C307.797 310.909 301.903 314.649 296.81 317.272C291.716 319.895 285.731 315.044 283.638 313.732C283.071 313.379 281.313 312.256 279.353 310.463C279.353 310.463 276.59 307.939 275.693 305.062C275.497 304.435 275.416 303.846 275.745 303.574C275.842 303.494 276.111 303.328 276.898 303.515C278.233 303.834 279.005 304.768 279.355 304.967C282.062 306.509 284.441 306.837 286.249 306.044C288.271 305.158 289.309 308.281 290.097 305.663C290.759 303.46 291.134 300.434 290.337 300.184C289.932 300.059 288.996 295.438 288.689 295.747C286.202 298.244 282.109 298.144 278.85 298.879Z"
              fill="#B5C1C9"/>
        <path fill-rule="evenodd" clip-rule="evenodd"
              d="M313.374 314.921C301.174 321.52 294.162 325.526 292.337 326.94C291.323 327.727 289.474 332.46 286.791 341.14C286.441 332.497 285.404 325.239 283.682 319.363C282.183 314.251 283.388 314.565 286.296 315.651C288.401 316.436 290.976 318.006 296.089 316.391C308.266 312.547 314.894 304.327 316.414 306.574C316.428 306.595 319.418 310.315 319.432 310.336C319.446 310.357 329.007 315.834 327.729 318.61L313.374 314.921Z"
              fill="white"/>
        <path d="M404.613 321.636C387.811 322.149 373.754 311.947 372.975 299.092C372.196 286.259 384.937 275.247 401.738 274.734C418.539 274.221 432.596 284.424 433.376 297.278C434.154 310.112 421.413 321.123 404.613 321.636Z"
              fill="black" stroke="black"/>
        <path fill-rule="evenodd" clip-rule="evenodd"
              d="M403.665 313.473C388.171 314.042 375.037 304.422 374.33 291.988C373.623 279.554 385.609 269.013 401.103 268.444C416.597 267.876 429.73 277.496 430.438 289.93C431.145 302.364 419.158 312.905 403.665 313.473Z"
              fill="#B5C1C9"/>
        <path d="M281.876 274.409C260.049 255.399 251.253 237.533 243.545 221.876C241.498 217.717 239.527 213.714 237.409 209.887C230.391 197.204 227.202 189.881 225.821 185.063C224.581 180.734 224.801 178.434 225.033 176.01C225.057 175.759 225.081 175.506 225.104 175.25C225.603 169.616 225.302 162.632 208.416 131.671C203.848 123.295 203.36 114.997 205.959 107.326C208.563 99.64 214.28 92.5462 222.18 86.637C237.984 74.8163 262.429 67.8143 287.681 70.312C292.031 70.7424 296.774 70.5732 301.71 70.2286C303.687 70.0906 305.689 69.925 307.712 69.7577C310.76 69.5056 313.853 69.2498 316.975 69.0788C327.342 68.5111 337.78 68.9002 346.932 73.4892C364.923 82.5094 380.103 93.7354 390.459 105.918C400.816 118.103 406.313 131.202 405.044 143.993C405.009 144.347 405.122 144.707 405.288 145.043C405.457 145.387 405.706 145.759 406.012 146.155C406.622 146.946 407.504 147.896 408.551 148.989C408.86 149.312 409.183 149.647 409.52 149.997C411.483 152.032 413.892 154.531 416.324 157.508C422.022 164.483 427.793 174.025 428.084 186.152C428.396 199.133 427.633 211.514 426.923 223.028C426.572 228.719 426.234 234.199 426.046 239.434C425.478 255.209 426.266 268.777 432.288 278.95C436.952 286.828 438.961 292.402 438.543 297.09C438.135 301.672 435.393 305.531 430.186 309.958C414.408 301.831 402.394 302.3 390.75 306.224C384.913 308.19 379.173 311.023 373.119 314.047C372.87 314.172 372.62 314.297 372.37 314.422C366.53 317.341 360.377 320.417 353.505 323.087C346.425 325.838 340.178 325.693 334.347 323.573C328.497 321.445 323.037 317.319 317.569 312.052C312.994 307.645 308.442 302.468 303.666 297.036C302.733 295.976 301.792 294.905 300.84 293.829C295.024 287.25 288.831 280.466 281.876 274.409Z"
              fill="black" stroke="black"/>
        <path fill-rule="evenodd" clip-rule="evenodd"
              d="M271.686 88.7733C256.429 88.5534 206.433 108.241 228.938 143.759C251.443 179.276 229.255 159.938 252.923 204.374C261.393 220.277 264.361 217.421 292.631 249.118C320.902 280.816 313.869 314.045 348.128 306.424C362.752 303.17 378.987 296.295 394.606 294.553C410.226 292.811 424.566 300.395 426.367 297.699C432.506 288.509 409.106 265.945 411.808 255.018C417.878 230.473 416.995 204.206 416.887 188.166C416.744 166.813 397.122 154.356 397.477 151.315C399.486 134.116 384.391 115.179 363.283 99.9993C356.356 95.018 339.844 93.789 326.086 90.2474C281.4 92.6573 286.942 88.9933 271.686 88.7733Z"
              fill="#B5C1C9"/>
        <path fill-rule="evenodd" clip-rule="evenodd"
              d="M376.65 207.441C375.603 207.479 374.018 196.55 372.238 198.376C369.288 201.402 366.075 201.059 364.047 201.484C362.949 201.713 362.622 209.274 361.487 209.579C350.864 212.436 341.762 218.571 339.004 230.697C337.104 239.052 332.498 273.076 328.466 276.162C337.471 275.598 340.926 278.159 368.003 263.997C382.14 256.602 369.63 254.455 372.267 249.031C377.92 237.401 384.5 226.181 387.745 222.165C389.014 220.594 400.3 257.256 400.333 243.025C400.366 228.795 398.089 206.643 376.65 207.441Z"
              fill="white"/>
        <path d="M341.103 233.572C344.042 226.565 347.508 222.493 352.61 219.789C357.752 217.065 364.593 215.708 374.357 214.242C378.903 213.56 382.867 214.048 386.27 215.674C389.673 217.301 392.558 220.086 394.915 224.068C396.075 226.029 396.947 228.68 397.697 231.683C398.267 233.968 398.761 236.427 399.258 238.91C399.414 239.687 399.571 240.466 399.73 241.243C400.395 244.49 401.112 247.691 402.06 250.447C402.712 252.341 403.483 254.054 404.442 255.436C403.152 254.826 401.916 254.124 400.657 253.4C400.558 253.343 400.46 253.286 400.361 253.23C398.591 252.21 396.763 251.157 394.704 250.305C390.323 248.492 384.93 247.602 376.667 249.625C369.448 251.394 363.685 255.765 357.628 260.36C356.73 261.041 355.826 261.727 354.909 262.41C348.102 267.483 340.553 272.469 329.83 274.452C330.055 274.122 330.274 273.739 330.488 273.314C331.053 272.191 331.607 270.723 332.152 269.023C333.242 265.621 334.313 261.226 335.351 256.66C335.793 254.716 336.228 252.744 336.657 250.803C337.238 248.169 337.808 245.591 338.365 243.212C339.334 239.074 340.251 235.605 341.103 233.572Z"
              fill="black" stroke="black"/>
        <path d="M308.737 262.871C306.622 259.939 304.915 257.258 303.679 254.913C302.44 252.562 301.69 250.576 301.462 249.026C301.234 247.47 301.544 246.475 302.248 245.918C302.98 245.339 304.307 245.092 306.457 245.449C311.022 246.207 315.344 244.629 319.302 241.633C322.586 239.147 325.647 235.664 328.436 231.659C327.442 235.138 325.644 240.8 323.448 247.467C320.627 256.028 317.163 266.211 313.941 275.467C313.067 271.903 311.822 267.149 308.737 262.871Z"
              fill="black" stroke="black"/>
        <path d="M310.432 290.597C305.001 281.417 293.938 254.893 277.231 210.959L294.547 221.472C304.59 232.336 310.93 245.255 313.568 260.244C315.564 271.592 315.402 280.649 314.33 286.122C314.063 287.488 313.74 288.621 313.386 289.504C313.029 290.396 312.653 291 312.297 291.343C311.952 291.676 311.685 291.717 311.467 291.651C311.201 291.57 310.838 291.283 310.432 290.597Z"
              fill="black" stroke="black"/>
        <path d="M234.817 165.401C228.824 159.537 225.318 152.902 223.628 146.988C222.126 141.733 222.069 137.096 222.926 134.08C225.19 138.722 226.779 141.953 228.786 144.849C230.953 147.976 233.598 150.7 238.076 154.421C245.448 160.545 250.686 162.173 257.129 164.177C258.152 164.495 259.206 164.822 260.304 165.179C258.961 165.619 257.234 165.983 255.293 166.265C252.673 166.644 249.702 166.865 246.835 166.923C243.966 166.98 241.213 166.874 239.03 166.602C237.937 166.466 236.998 166.29 236.264 166.077C235.51 165.858 235.04 165.62 234.817 165.401Z"
              fill="black" stroke="black"/>
        <path d="M372.316 211.142C371.439 211.164 370.769 211.004 370.26 210.729C369.755 210.456 369.381 210.054 369.117 209.542C368.578 208.498 368.493 206.986 368.775 205.253C369.295 202.065 371.007 198.432 372.735 196.349C374.027 198.626 375.518 202.182 375.942 205.264C376.174 206.95 376.075 208.412 375.532 209.443C375.015 210.424 374.053 211.098 372.316 211.142Z"
              fill="black" stroke="black"/>
        <path d="M337.098 214.684C335.847 217.622 334.653 220.426 333.233 222.804C334.792 214.097 336.315 208.254 338.073 204.876C339.028 203.042 340.006 202.025 341.011 201.619C341.863 201.275 342.831 201.333 343.987 201.867C341.223 205.289 339.334 209.459 337.613 213.478C337.44 213.882 337.268 214.284 337.098 214.684Z"
              fill="black" stroke="black"/>
        <path d="M407.345 225.583C411.841 233.905 414.158 243.72 414.308 250.776C414.311 250.771 414.314 250.766 414.317 250.762C414.945 249.761 415.8 248.561 416.669 247.369C416.985 246.935 417.303 246.502 417.613 246.079C418.16 245.335 418.685 244.622 419.137 243.985C419.492 243.488 419.797 243.045 420.03 242.679C420.27 242.301 420.412 242.04 420.465 241.894C420.698 241.248 420.948 240.07 421.174 238.656C421.397 237.254 421.591 235.658 421.721 234.199C421.852 232.734 421.916 231.428 421.884 230.598C421.884 230.585 421.883 230.572 421.883 230.56C421.69 230.745 421.467 230.936 421.234 231.123C420.74 231.52 420.146 231.944 419.553 232.339C418.959 232.734 418.36 233.104 417.854 233.393C417.365 233.672 416.917 233.902 416.648 233.985L416.079 234.161L416.007 233.57C415.907 232.742 416.079 231.495 416.257 230.212L416.27 230.114C416.45 228.819 416.643 227.431 416.654 226.17C416.665 224.859 416.476 223.8 415.978 223.138C415.522 222.533 414.717 222.151 413.173 222.411C411.287 222.729 409.734 221.859 408.308 220.525C407.269 219.554 406.235 218.275 405.145 216.925C404.755 216.442 404.358 215.95 403.95 215.46C401.11 212.045 397.641 208.533 392.126 207.627C396.808 211.355 403.118 217.758 407.345 225.583Z"
              fill="black" stroke="black"/>
        <path d="M367.11 192.83C366.633 191.785 366.062 191.088 365.443 190.651C364.828 190.217 364.138 190.02 363.385 190.019C361.855 190.018 360.064 190.833 358.253 192.161C356.456 193.48 354.703 195.257 353.264 197.074C352.019 198.645 351.027 200.221 350.442 201.53C353.944 201.848 358.927 201.662 362.669 200.44C364.666 199.787 366.23 198.865 367.065 197.646C367.873 196.467 368.061 194.919 367.11 192.83Z"
              fill="black" stroke="black"/>
        <path d="M384.035 190.222C383.691 189.448 383.288 188.94 382.863 188.625C382.443 188.314 381.978 188.174 381.472 188.174C380.434 188.174 379.195 188.765 377.915 189.788C375.565 191.665 373.34 194.779 372.37 197.217C374.729 197.314 378.176 197.014 380.81 196.009C382.257 195.457 383.385 194.721 383.988 193.794C384.567 192.905 384.716 191.758 384.035 190.222Z"
              fill="black" stroke="black"/>
        <path d="M388.756 191.751C387.845 192.958 386.636 193.907 385.316 194.668C387.068 194.097 388.564 193.459 389.818 192.801C392.516 191.387 394.055 189.907 394.655 188.855C394.709 188.761 394.766 188.663 394.826 188.56C395.346 187.664 396.066 186.427 396.315 184.854C396.587 183.132 396.296 180.962 394.375 178.417C392.574 176.031 389.145 173.272 385.793 170.858C384.125 169.656 382.491 168.549 381.108 167.627C380.693 167.35 380.299 167.088 379.933 166.846C379.087 166.284 378.392 165.823 377.932 165.499C376.58 164.545 375.573 163.745 374.87 163.06C374.179 162.387 373.726 161.774 373.575 161.186C373.495 160.879 373.497 160.575 373.593 160.284C373.686 159.998 373.859 159.756 374.071 159.552C374.481 159.157 375.094 158.847 375.781 158.566C376.396 158.315 377.125 158.067 377.911 157.799C378.016 157.763 378.121 157.727 378.228 157.691C379.142 157.378 380.136 157.031 381.164 156.608C382.777 155.945 384.462 155.098 386.026 153.918C373.276 155.323 368.235 154.652 363.1 152.781C361.714 152.277 359.974 151.163 358.109 149.72C356.234 148.269 354.198 146.459 352.219 144.528C349.134 141.518 346.161 138.191 344.132 135.45C345.404 140.696 347.171 144.549 349.687 148.113C352.603 152.242 356.534 155.999 361.937 161.093C366.43 165.329 371.066 167.649 375.304 169.591C375.764 169.802 376.221 170.009 376.674 170.214C380.356 171.882 383.731 173.411 386.268 175.88L386.306 175.917L386.335 175.961C388.838 179.74 390.065 182.858 390.355 185.452C390.646 188.064 389.984 190.125 388.756 191.751Z"
              fill="black" stroke="black"/>
        <path fill-rule="evenodd" clip-rule="evenodd"
              d="M297.644 190.078C288.274 191.26 277.057 192.181 267.658 186.699C258.259 181.218 264.627 170.995 269.402 166.495C278.217 158.186 285.798 169.416 309.208 164.101C331.2 159.108 317.888 187.525 297.644 190.078Z"
              fill="white"/>
        <path fill-rule="evenodd" clip-rule="evenodd"
              d="M299.915 94.6363C312.253 95.1624 332.877 102.273 346.841 105.308C391.919 115.104 358.955 93.5698 340.019 88.9677C325.239 85.3758 303.924 85.7955 286.501 88.1288C286.524 90.8125 292.1 90.4673 299.915 94.6363Z"
              fill="white"/>
        <path fill-rule="evenodd" clip-rule="evenodd"
              d="M299.658 95.1458C294.955 81.1377 250.828 83.468 235.906 104.597C231.146 111.336 229.233 117.999 226.265 131.991C232.111 128.291 222.434 134.235 246.188 119.554C269.943 104.872 300.305 106.58 299.658 95.1458Z"
              fill="white"/>
        <path fill-rule="evenodd" clip-rule="evenodd"
              d="M393.451 154.447C388.034 152.707 380.599 154.462 375.443 158.743C372.419 161.254 370.184 166.287 393.621 170.57C395.093 170.839 400.586 172.808 403.535 172.055C409.826 170.539 402.517 157.359 393.451 154.447Z"
              fill="white"/>
        <path fill-rule="evenodd" clip-rule="evenodd"
              d="M355.625 165.735C354.76 167.927 353.737 170.171 359.913 172.6C366.088 175.029 368.34 175.285 373.32 172.696C374.704 171.419 372.647 167.788 367.137 165.058C356.149 159.614 344.237 133.578 341.257 134.448C338.332 135.301 337.19 146.944 352.084 159.871C352.331 160.085 356.49 163.543 355.625 165.735Z"
              fill="white"/>
        <path fill-rule="evenodd" clip-rule="evenodd"
              d="M385.469 270.018C375.423 271.952 364.238 278.499 354.154 289.957C344.069 301.415 368.481 295.827 387.829 290.221C407.176 284.616 409.051 294.643 413.125 291.145C421.891 283.814 402.277 266.782 385.469 270.018Z"
              fill="white"/>
        <path d="M404.913 273.352C397.09 266.197 389.799 263.364 386.21 263.017L404.913 273.352ZM404.913 273.352C403.608 272.776 402.15 272.291 400.581 271.904C397.293 271.092 393.487 270.702 389.522 270.819C382.222 271.034 374.327 272.972 368.107 277.231M404.913 273.352L368.107 277.231M368.107 277.231C370.175 272.925 372.901 269.384 375.871 266.907C379.234 264.103 382.872 262.695 386.21 263.017L368.107 277.231Z"
              fill="black" stroke="black"/>
        <path fill-rule="evenodd" clip-rule="evenodd"
              d="M273.414 150.81C283.347 147.028 290.809 143.734 295.8 140.927C304.299 136.148 306.402 130.447 312.339 125.371C316.297 121.987 318.719 124.077 319.605 131.641C318.983 151.76 314.594 163.499 306.436 166.859C298.895 169.965 283.791 166.325 272.34 153.291C271.773 152.646 272.131 151.819 273.414 150.81Z"
              fill="white"/>
        <path d="M304.536 160.685C292.842 165.481 279.951 161.48 274.266 151.869C281.735 151.476 289.711 149.716 297.605 146.478C306.262 142.927 313.729 138.047 319.558 132.483C322.817 143.476 316.493 155.78 304.536 160.685Z"
              fill="black" stroke="black"/>
        <path fill-rule="evenodd" clip-rule="evenodd"
              d="M366.971 139.695C358.713 140.283 350.863 138.894 344.058 135.994C346.195 149.152 356.089 158.779 367.265 157.983C378.175 157.205 387.506 145.84 389.346 141.483C391.186 137.125 387.692 127.556 379.511 128.978C373.87 129.087 367.503 128.53 360.864 127.225C353.518 125.782 343.865 114.929 341.008 121.742C338.151 128.554 348.297 132.769 358.54 134.781C363.922 135.838 372.188 139.323 366.971 139.695Z"
              fill="white"/>
        <path d="M368.689 151.278C372.573 151.036 376.974 148.397 380.17 145.091C381.761 143.445 383.025 141.662 383.766 139.975C384.511 138.278 384.699 136.747 384.253 135.552C383.968 134.788 383.153 134.204 381.829 133.804C380.524 133.409 378.848 133.233 377.059 133.186C374.32 133.115 371.41 133.349 369.289 133.519C368.637 133.571 368.059 133.618 367.584 133.647C358.446 134.218 349.755 133.051 342.133 130.525C344.578 137.745 347.953 143.053 352.23 146.497C356.682 150.084 362.156 151.686 368.689 151.278Z"
              fill="black" stroke="black"/>
        <path d="M335.476 200.864C339.077 201.171 342.274 201.144 344.019 201.114C339.504 196.837 337.04 191.642 338.8 186.033C339.693 183.186 340.513 180.792 342.089 178.876C343.398 177.285 345.198 176.055 347.907 175.119C347.107 174.803 346.118 174.331 345.038 173.707C342.506 172.243 339.427 169.917 337.079 166.752C334.847 163.742 333.532 160.467 332.381 157.601C332.171 157.078 331.967 156.568 331.763 156.076C330.419 152.831 329.146 150.453 326.758 149.559C325.539 149.103 324.598 149.098 323.728 149.37C322.833 149.65 321.971 150.237 320.93 151.058C320.624 151.3 320.306 151.559 319.971 151.832C318.042 153.403 315.551 155.432 311.619 157.157C306.249 159.512 299.741 161.493 292.099 163.102C294.936 163.379 296.961 163.468 298.193 163.377C307.867 162.663 315.133 162.719 320.257 163.934C322.825 164.544 324.884 165.451 326.443 166.724C328.009 168.002 329.047 169.632 329.595 171.64L329.598 171.652L329.601 171.664C330.018 173.568 329.197 175.855 327.994 178.183C327.115 179.884 325.983 181.691 324.861 183.482C324.434 184.162 324.009 184.841 323.6 185.511C322.096 187.972 320.806 190.311 320.306 192.327C320.059 193.329 320.015 194.215 320.213 194.979C320.407 195.731 320.844 196.4 321.626 196.966C324.987 199.399 330.524 200.442 335.476 200.864Z"
              fill="black" stroke="black"/>
        <path fill-rule="evenodd" clip-rule="evenodd"
              d="M341.991 189.417C342.908 178.228 351.395 176.4 353.884 174.099C346.821 176.28 340.396 177.519 337.258 183.044C333.929 188.906 333.052 197.731 345.549 200.954C344.241 198.6 341.44 196.131 341.991 189.417Z"
              fill="white"/>
        <path d="M290.66 134.427C290.097 134.727 289.522 135.034 288.93 135.358C293.236 136.354 300.602 135.446 308.391 126.673C312.431 121.953 313.66 118.262 313.491 115.71C313.324 113.185 311.793 111.722 310.105 111.33C309.732 111.244 309.459 111.29 309.233 111.413C308.991 111.543 308.752 111.786 308.512 112.178C308.023 112.977 307.636 114.206 307.174 115.737C307.148 115.825 307.121 115.913 307.094 116.002C306.201 118.968 305.045 122.81 302.302 125.769L302.3 125.771C297.736 130.651 294.469 132.394 290.66 134.427Z"
              fill="black" stroke="black"/>
        <path d="M357.939 119.737L357.935 119.735C354.08 118.297 351.045 114.982 348.583 112.291C348.537 112.241 348.491 112.191 348.446 112.142C347.181 110.761 346.084 109.575 345.083 108.834C344.077 108.091 343.318 107.903 342.65 108.215C341.996 108.521 341.618 109.275 341.705 110.543C341.791 111.801 342.338 113.427 343.356 115.183C345.385 118.687 349.212 122.583 354.569 124.919C359.956 127.125 364.261 127.046 367.605 125.942C370.494 124.989 372.701 123.258 374.285 121.507C373.517 121.534 372.782 121.57 372.067 121.605C367.754 121.818 364.13 121.997 357.939 119.737Z"
              fill="black" stroke="black"/>
        <path fill-rule="evenodd" clip-rule="evenodd"
              d="M5.86706 396.111C17.4452 396.285 27.8475 394.564 37.6671 390.846C48.2934 386.826 56.4194 381.094 61.8183 373.811C67.2792 366.445 69.6595 357.224 68.4654 349.237C71.5764 349.74 74.7211 350.789 77.9838 351.877C83.8951 353.849 90.0085 355.888 96.7378 354.903C102.723 354.027 108.055 350.889 113.442 347.472C125.2 340.018 138.644 331.034 149.387 318.711C151.678 316.082 153.912 313.13 154.726 309.358C155.664 305.016 154.367 300.973 153.42 298.02C150.973 290.392 147.491 282.22 140.222 279.45C139.653 279.233 139.062 279.051 138.467 278.91C135.74 278.262 132.961 278.502 130.51 278.714C128.153 278.917 125.927 279.11 124.282 278.483C124.078 278.405 123.881 278.315 123.698 278.213C122.016 277.289 120.794 275.111 119.481 272.571L118.554 270.775C110.545 255.247 122.305 269.498 108.347 259.207C106.868 258.115 125.297 265.547 125.093 265.22C125.193 265.098 106.375 256.843 106.631 256.592C108.692 254.571 111.214 252.851 113.884 251.03C118.52 247.87 100.141 215.294 106.559 208.303C106.573 208.407 106.587 208.512 106.6 208.614C106.645 208.973 106.691 209.331 106.745 209.684C108.033 218.27 113.261 224.383 118.317 230.294C120.273 232.58 122.12 234.74 123.735 237.02C124.944 238.728 126.038 240.538 127.197 242.454C129.131 245.649 131.13 248.955 133.753 251.855C137.821 256.355 142.976 259.636 150.469 262.491C153.683 263.716 157.03 264.753 160.268 265.758C163.434 266.74 166.709 267.754 169.781 268.925C172.337 269.899 174.522 270.892 176.464 271.96C177.482 272.519 178.479 273.125 179.535 273.767C181.799 275.143 184.141 276.564 186.792 277.574L187.045 277.67C197.939 281.684 224.406 297.384 235.253 292.858C247.681 287.673 244.508 294.047 255.821 286.306C263.642 280.954 265.301 280.4 267.725 269.224C268.44 265.931 267.457 264.037 266.451 263.007C267.196 261.845 239.229 240.624 229.941 252.53L213.458 257.269C212.212 258.865 200.901 251.73 199.499 252.534C195.782 254.662 187.109 253.271 180.836 250.881C180.116 250.606 179.451 250.326 178.861 250.05C178.611 249.933 178.344 249.727 178.271 249.664C177.962 249.388 177.799 249.04 177.737 248.908C177.576 248.571 160.387 214.924 143.131 195.375C136.536 187.905 128.801 178.582 109.53 178.682C90.2579 178.782 77.4704 182.94 69.7408 195.756C66.5672 201.021 67.4476 209.446 67.7913 214.683C69.1957 236.086 73.7839 267.029 87.6671 292.891C90.0223 297.278 93.0739 302.189 97.8546 305.343C98.9258 306.051 100.082 306.643 101.288 307.102C106.195 308.972 111.344 308.505 115.415 305.819C115.676 305.647 115.939 305.463 116.205 305.277C116.376 305.157 116.584 305.012 116.786 304.877C116.811 304.936 116.835 305.001 116.862 305.07C119.638 312.294 119.953 322.511 114.085 327.874C108.618 332.87 101.09 330.764 98.1064 329.628C95.4611 328.619 92.8939 327.122 90.6806 325.298C89.8687 324.629 89.0752 323.925 88.2796 323.221C85.4908 320.753 87.39 315.958 83.6259 314.524L83.4207 314.447C75.1028 311.398 59.846 316.327 53.7113 318.908C44.4503 322.804 34.2388 327.836 30.2884 338.294C27.6493 345.28 29.9895 353.324 31.0901 359.929C31.7076 363.634 32.2923 367.141 32.2038 370.539C31.8662 370.51 31.5218 370.465 31.3131 370.439C19.7189 368.928 7.39537 375.657 1.34384 386.8C-0.781602 390.714 0.569761 393.217 1.24927 394.111C1.79908 394.837 2.52108 395.375 3.39278 395.707C4.27571 396.044 5.13882 396.1 5.86706 396.111Z"
              fill="black" stroke="black" stroke-width="2.63701"/>
        <path d="M176.379 253.185L176.38 253.185L176.703 252.828C176.471 253.084 176.406 253.156 176.387 253.177C176.38 253.185 176.38 253.185 176.38 253.185L176.38 253.185L176.38 253.185L176.381 253.186L176.383 253.188L176.39 253.194L176.415 253.216C176.436 253.233 176.465 253.258 176.503 253.289C176.578 253.351 176.685 253.436 176.818 253.533C177.083 253.725 177.457 253.971 177.885 254.172L177.885 254.172C180.775 255.532 185.286 257.001 189.848 257.7C194.383 258.395 199.095 258.349 202.296 256.546L202.296 256.546C204.476 255.318 206.116 253.264 207.626 251.362L207.626 251.362C210.023 248.341 212.421 245.319 214.817 242.297C215.76 241.108 216.684 240.622 217.535 240.569C218.395 240.515 219.303 240.895 220.222 241.702C222.071 243.324 223.763 246.5 224.845 250.215C225.923 253.917 226.371 258.065 225.808 261.573C225.244 265.087 223.691 267.855 220.864 269.013L221.051 269.473L220.863 269.013C215.947 271.026 210.541 273.028 205.131 274.068C199.722 275.109 194.344 275.18 189.465 273.369L189.465 273.369C187.707 272.717 186.052 271.821 184.406 270.847C183.826 270.504 183.244 270.149 182.658 269.792C181.595 269.144 180.521 268.489 179.434 267.888C174.178 264.984 168.295 263.143 162.501 261.331C160.761 260.787 159.029 260.245 157.324 259.677C149.908 257.209 142.968 254.248 137.812 248.523C135.919 246.42 134.353 244.021 132.835 241.536C132.481 240.955 132.128 240.369 131.775 239.781C130.621 237.864 129.457 235.928 128.169 234.1L127.757 234.389L128.169 234.1C126.687 231.998 125.023 229.996 123.346 228.022C123.082 227.71 122.818 227.4 122.554 227.09C121.138 225.429 119.732 223.779 118.422 222.081C115.316 218.056 112.792 213.816 112.05 208.701L112.05 208.7C112.006 208.401 111.967 208.083 111.926 207.758C111.858 207.206 111.787 206.634 111.689 206.097C111.528 205.222 111.279 204.341 110.795 203.557M176.379 253.185L110.367 203.821M176.379 253.185C175.423 252.328 174.976 251.367 174.846 251.087C174.841 251.078 174.838 251.07 174.834 251.063M176.379 253.185L174.834 251.063M110.795 203.557L110.367 203.821M110.795 203.557C110.795 203.557 110.795 203.557 110.795 203.557L110.367 203.821M110.795 203.557C110.289 202.737 109.439 202.125 108.528 201.892C107.608 201.655 106.578 201.799 105.805 202.572M110.367 203.821C109.491 202.402 107.397 201.682 106.159 202.922M105.805 202.572L106.159 202.922M105.805 202.572C105.238 203.139 104.947 203.919 104.708 204.562C104.673 204.656 104.639 204.747 104.605 204.833M105.805 202.572C105.805 202.572 105.805 202.572 105.805 202.572L106.159 202.922M106.159 202.922L151.657 308.305M96.7355 350.111C90.8215 350.946 85.2087 349.059 79.5812 347.167C74.517 345.464 69.4407 343.758 64.1223 344.027C64.0981 343.97 64.0736 343.914 64.0488 343.857L63.5892 344.061L63.623 344.558C63.6801 344.553 63.7372 344.549 63.7944 344.546C67.109 352.698 64.6008 363.003 59.0528 370.359C53.3936 377.864 45.0847 382.677 36.6173 385.819C26.6022 389.534 16.4333 390.887 6.09789 390.69C5.39134 390.677 4.59787 390.62 4.16986 390.053C3.59088 389.288 4.02948 388.107 4.5263 387.209C9.79521 377.689 20.7224 371.825 30.7067 373.161C32.3304 373.378 34.3234 373.611 35.3691 372.192C35.889 371.485 35.9928 370.558 36.0358 369.689C36.2269 365.745 35.5862 361.788 34.9503 357.861C33.9519 351.695 32.9653 345.602 35.2283 339.748C38.6554 330.88 48.0535 326.434 56.491 322.951C63.3704 320.11 70.9686 317.237 77.6557 319.706C80.9133 320.909 83.5535 323.254 86.1869 325.594C87.0099 326.325 87.8322 327.055 88.6725 327.75C96.5189 334.24 108.763 337.444 116.843 330.179M96.7355 350.111L96.6691 349.617C91.0971 350.404 85.7799 348.72 80.3365 346.893C80.1287 346.823 79.9207 346.753 79.7125 346.683C74.5063 344.932 69.1724 343.139 63.5554 343.563L62.8451 343.617L63.1296 344.264C66.6555 352.279 64.2368 362.658 58.6527 370.062C53.0734 377.461 44.8633 382.228 36.4455 385.352C26.5 389.042 16.3957 390.388 6.11175 390.191L6.11119 390.191C5.76023 390.185 5.43651 390.167 5.15765 390.096C4.88558 390.027 4.6962 389.917 4.57168 389.752L4.5715 389.752C4.40067 389.526 4.35136 389.204 4.43659 388.773C4.52153 388.343 4.72776 387.876 4.96505 387.447C10.1438 378.09 20.8784 372.35 30.6358 373.655C31.4395 373.762 32.4034 373.885 33.3059 373.785C34.222 373.684 35.1374 373.346 35.7727 372.484L35.773 372.484C36.3912 371.643 36.4937 370.575 36.5365 369.71L36.5366 369.709C36.7305 365.708 36.0782 361.682 35.4407 357.746C35.2606 356.635 35.0817 355.53 34.9234 354.436C34.1991 349.43 33.8931 344.588 35.696 339.924C39.0346 331.285 48.2134 326.906 56.6799 323.411C60.1208 321.99 63.7014 320.579 67.2464 319.825C70.7876 319.072 74.2543 318.983 77.4778 320.174C79.5413 320.936 81.3641 322.179 83.1245 323.613C84.0045 324.33 84.863 325.089 85.7279 325.857L85.8526 325.968C86.6741 326.698 87.5026 327.434 88.3501 328.135C92.3337 331.43 97.4404 333.898 102.597 334.617C107.761 335.336 113.003 334.302 117.178 330.548L116.843 330.179M96.7355 350.111C102.169 349.345 107.193 346.343 112.01 343.338M96.7355 350.111L96.6692 349.617C101.981 348.869 106.917 345.929 111.746 342.917L112.01 343.338M116.843 330.179C124.127 323.628 124.302 311.757 120.924 302.875C120.486 301.724 119.891 300.488 118.764 300.121M116.843 330.179L117.178 330.548C120.936 327.168 122.839 322.434 123.381 317.451C123.922 312.468 123.107 307.202 121.394 302.695L121.393 302.695C121.171 302.111 120.896 301.468 120.516 300.919C120.135 300.367 119.626 299.875 118.923 299.647L118.923 299.647C117.952 299.332 117.013 299.622 116.194 300.048C115.639 300.336 115.072 300.727 114.549 301.086C114.319 301.244 114.097 301.396 113.889 301.531C109.887 304.129 104.65 303.473 100.814 300.931C96.9677 298.382 94.3025 294.262 92.0125 289.968C80.1575 267.737 74.6262 239.824 73.0633 213.892C72.7781 209.166 72.7523 204.215 75.1802 200.261C78.2416 195.276 83.0313 192.202 88.3595 190.222C93.6919 188.241 99.5247 187.369 104.624 186.767C108.042 186.362 110.762 185.799 113.051 185.325C113.58 185.216 114.086 185.111 114.573 185.014C117.176 184.495 119.187 184.207 121.21 184.547M118.764 300.121L121.21 184.547M118.764 300.121C117.45 299.695 116.123 300.608 114.866 301.472C114.628 301.636 114.393 301.798 114.161 301.948C109.947 304.683 104.49 303.968 100.533 301.347L118.764 300.121ZM121.21 184.547C124.343 185.075 130.689 186.777 141.144 198.667L141.523 198.337M121.21 184.547L141.523 198.337M141.523 198.337L141.144 198.667M141.523 198.337L141.144 198.667M112.01 343.338C124.632 335.468 137.189 326.999 147.247 315.649M112.01 343.338L111.746 342.917C124.364 335.049 136.866 326.612 146.872 315.321L147.247 315.649M147.247 315.649C149.153 313.498 151.028 311.12 151.657 308.305M147.247 315.649L146.872 315.321C148.777 313.172 150.569 310.878 151.168 308.201M151.657 308.305L151.168 308.201C151.168 308.201 151.168 308.201 151.168 308.201M151.657 308.305L151.168 308.201M151.168 308.201C151.827 305.248 150.95 302.26 150.018 299.319L150.018 299.319C148.903 295.796 147.559 292.094 145.651 289.072C143.745 286.053 141.31 283.764 138.031 282.976C135.929 282.471 133.673 282.654 131.34 282.843C130.953 282.875 130.564 282.906 130.174 282.935C127.476 283.133 124.703 283.185 122.273 281.842C119.481 280.299 117.865 277.262 116.459 274.523C116.159 273.937 115.858 273.35 115.557 272.763C107.791 257.605 99.8429 242.091 86.6846 232.355C85.6764 231.609 84.5267 230.681 83.7252 229.587C82.9165 228.483 82.4269 227.157 82.8504 225.661C83.1809 224.493 84.0194 223.58 84.7858 222.841M84.7858 222.841C87.1601 220.55 89.9903 218.651 92.7553 216.797C93.8688 216.05 94.9717 215.31 96.0301 214.554C99.7534 211.896 102.988 209.011 104.605 204.833M84.7858 222.841C84.7858 222.841 84.7857 222.841 84.7857 222.841L85.1333 223.198L84.7858 222.841ZM104.605 204.833L105.073 205.009L104.606 204.833C104.606 204.833 104.606 204.833 104.605 204.833ZM174.834 251.063C173.844 248.953 157.263 216.997 141.144 198.667M174.834 251.063L141.144 198.667"
              fill="black" stroke="black"/>
        <path fill-rule="evenodd" clip-rule="evenodd"
              d="M145.289 205.465C137.214 196.415 134.837 192.967 132.534 190.842C126.442 185.223 103.083 186.047 100.345 187.52C97.97 188.8 97.7819 190.332 99.6245 192.166C100.222 192.761 101.135 195.661 102.362 200.864C111.068 209.468 117.682 214.37 122.205 215.569C133.256 218.498 147.379 207.807 145.289 205.465Z"
              fill="#B5C1C9"/>
        <path fill-rule="evenodd" clip-rule="evenodd"
              d="M105.176 203.044C108.054 200.618 111.086 198.919 114.088 197.741C125.87 193.12 137.194 196.542 136.974 195.732C132.151 187.596 124.461 183.339 113.906 182.962C98.0718 182.396 83.5398 187.608 82.31 193.779C82.1474 194.595 88.1712 190.095 105.176 203.044Z"
              fill="white"/>
        <path fill-rule="evenodd" clip-rule="evenodd"
              d="M262.679 274.286C263.461 274.305 250.256 266.163 242.349 264.434C238.721 263.64 234.963 263.776 231.382 264.616C225.962 265.888 220.447 266.982 215.34 269.676C210.331 272.318 209.471 277.958 213.777 281.05C216.923 283.309 220.943 283.953 224.381 285.67C225.824 285.915 227.266 286.161 228.709 286.406C249.267 288.846 251.599 287.618 258.39 286.42C261.444 285.88 263.704 283.564 264.05 283.181C264.511 282.67 265.278 282.325 265.212 281.574C265.135 280.693 264.236 280.763 263.624 280.775C259.883 280.843 248.108 281.006 248.359 280.078C245.732 279.731 233.607 278.611 230.953 278.447C229.996 278.225 247.067 276.9 248.161 277.129C249.848 277.158 256.721 276.128 260.357 275.282C262.488 274.786 262.047 274.271 262.679 274.286Z"
              fill="#B5C1C9"/>
        <path fill-rule="evenodd" clip-rule="evenodd"
              d="M242.19 264.468C238.551 263.716 234.77 263.891 231.16 264.765C226.774 265.827 222.327 266.774 218.073 268.522C220.533 270.412 233.976 269.1 243.135 270.952C249.12 272.162 257.477 275.783 258.247 275.791C259.768 275.482 263.715 274.441 262.787 273.27C260.415 270.274 247.894 265.646 242.19 264.468Z"
              fill="white"/>
        <path fill-rule="evenodd" clip-rule="evenodd"
              d="M217.307 275.863C221.531 277.903 225.364 280.332 230.366 281.594C232.661 282.173 235.238 282.222 237.843 281.862C241.007 281.424 244.189 281.054 247.404 280.216C246.133 279.027 236.828 279.249 231.045 277.815C227.266 276.878 222.38 274.456 221.864 274.421C218.003 274.839 218.964 274.995 218.625 274.797C217.753 274.286 216.776 274.488 215.791 275.09C216.431 275.192 216.799 275.618 217.307 275.863Z"
              fill="white"/>
        <path fill-rule="evenodd" clip-rule="evenodd"
              d="M37.4696 363.993C37.6472 367.103 38.1517 369.876 36.608 373.029C35.7844 374.714 31.4231 379.929 32.0706 380.718C32.2039 380.881 38.7628 379.399 41.0795 378.633C56.4209 373.555 59.8244 365.314 59.8244 365.314C65.049 356.687 64.5882 350.68 65.2046 345.383C62.8029 344.686 55.8401 342.82 51.1463 341.278C49.5626 341.059 34.005 338.061 36.2729 351.342C36.3099 351.559 37.2408 359.997 37.4696 363.993ZM56.7603 337.074C60.7282 340.056 64.1879 340.31 69.8099 341.547C74.2024 342.513 83.4744 326.043 80.1325 320.917C77.2327 316.467 76.7719 317.067 72.0856 317.9C69.0736 318.436 60.9853 319.545 53.8778 322.743C50.2686 324.367 46.8848 326.47 44.1705 328.483C44.6484 328.516 45.1445 328.624 45.6594 328.819C51.4943 331.021 55.8501 334.369 56.7603 337.074Z"
              fill="#B5C1C9"/>
        <path fill-rule="evenodd" clip-rule="evenodd"
              d="M49.9011 335.654C50.1896 335.723 59.8097 338.892 60.0961 338.883C65.4359 338.716 71.0287 318.379 67.157 318.852C64.6079 319.164 52.1672 321.569 45.3892 325.403C38.6112 329.238 38.4385 332.317 35.8854 337.16C39.0411 335.828 41.9899 335.296 44.4885 335.19C46.7027 335.096 48.5633 335.337 49.9011 335.654Z"
              fill="white"/>
        <path fill-rule="evenodd" clip-rule="evenodd"
              d="M59.5784 359.705C45.9246 360.94 38.9129 364.065 38.5431 369.081C37.9884 376.606 32.4753 379.79 32.7175 380.18C32.7585 380.246 37.8455 379.535 41.6927 378.392C57.311 373.754 59.581 359.282 59.5784 359.705Z"
              fill="white"/>
        <path fill-rule="evenodd" clip-rule="evenodd"
              d="M103.569 219.085L91.6288 208.286C86.9882 203.928 82.6703 201.11 78.6752 199.831C77.1731 206.44 78.1537 231.795 82.5046 252.47C85.6065 267.211 91.9724 280.609 93.3296 278.437C95.471 275.01 95.5936 255.483 106.084 235.488C106.855 234.019 106.016 228.551 103.569 219.085Z"
              fill="#B5C1C9"/>
        <path fill-rule="evenodd" clip-rule="evenodd"
              d="M11.084 386.402C18.9998 386.904 25.8518 378.769 29.8207 373.611C31.2229 371.789 30.2855 370.642 28.0012 370.878C19.527 371.758 10.3785 375.513 5.37968 383.677C4.82957 384.576 9.59371 386.307 11.084 386.402Z"
              fill="#B5C1C9"/>
        <path fill-rule="evenodd" clip-rule="evenodd"
              d="M109.154 292.744C111.215 289.077 115.623 284.446 120.492 283.616C123.221 283.151 123.84 284.264 130.429 283.975C132.14 283.9 132.845 283.957 134.406 283.868C140.865 283.494 144.887 286.519 147.244 292.498C148.704 296.199 150.617 299.679 151.515 303.652C152.349 307.504 150.838 310.584 148.407 313.599C142.547 320.866 113.287 342.158 101.351 348.82C98.4002 350.467 95.9797 349.653 95.8475 349.333C95.0743 347.465 97.1439 347.056 98.1779 346.178C105.036 340.368 112.284 335.118 118.989 329.075C121.648 326.68 123.335 324.133 124.221 321.441C124.863 319.49 124.44 316.124 123.73 309.433C123.364 305.973 123.042 303.915 122.355 301.525C122.17 300.879 121.573 298.866 120.375 296.47C120.375 296.47 118.69 293.094 116.125 291.422C115.566 291.057 115.011 290.814 114.65 291.056C114.544 291.128 114.304 291.341 114.262 292.154C114.192 293.534 114.887 294.541 114.982 294.935C115.719 297.983 115.359 300.373 114.063 301.899C112.613 303.606 110.335 303.653 107.541 303.683C105.19 303.706 102.113 303.223 102.097 302.383C102.089 301.956 102.87 301.588 103.26 301.377C106.423 299.672 107.498 295.688 109.154 292.744Z"
              fill="#B5C1C9"/>
        <path fill-rule="evenodd" clip-rule="evenodd"
              d="M118.742 289.912C123.889 289.309 128.256 306.628 128.616 310.135C129.104 314.883 146.108 317.406 148.528 314.327C150.927 311.273 152.419 308.153 151.598 304.25C150.714 300.223 148.828 296.695 147.389 292.944C145.066 286.884 141.099 283.816 134.726 284.19C133.187 284.28 132.491 284.222 130.804 284.295C124.303 284.584 123.692 283.456 120.999 283.926C120.974 283.93 120.949 283.934 120.924 283.939C118.923 286.076 118.168 286.344 117.036 289.241L118.742 289.912Z"
              fill="white"/>
        <path fill-rule="evenodd" clip-rule="evenodd"
              d="M180.9 254.315C179.445 255.21 172.492 262.378 172.806 264.902C173.289 268.786 181.882 268.22 183.35 267.88C184.326 269.204 181.569 270.113 182.754 271.316C183.833 272.415 185.139 271.59 186.163 270.882C188.276 269.418 190.38 267.891 192.304 266.146C194.092 264.525 195.64 262.588 197.929 260.102C194.305 259.939 184.094 252.35 180.9 254.315Z"
              fill="#B5C1C9"/>
        <path fill-rule="evenodd" clip-rule="evenodd"
              d="M181.786 254.131L181.621 254.359C180.41 256.021 179.544 257.598 179.659 258.539C180.137 262.465 188.675 261.896 190.133 261.552C191.102 262.891 188.364 263.809 189.541 265.026C190.612 266.137 191.91 265.303 192.927 264.588C194.065 263.786 195.201 262.965 196.307 262.101C196.809 261.525 197.345 260.916 197.93 260.269C194.584 260.116 185.587 253.475 181.786 254.131Z"
              fill="white"/>
        <path fill-rule="evenodd" clip-rule="evenodd"
              d="M202.752 276.861C204.52 275.432 207.736 275.425 207.448 271.684C205.24 271.589 205.142 274.777 202.63 274.411C203.011 272.568 205.832 269.508 201.344 269.14C200.195 269.045 200.446 267.086 201.449 265.831C202.556 264.446 203.505 262.922 204.161 261.059C201.568 263.508 202.401 260.566 199.812 263.021C197.802 264.927 192.364 272.225 190.38 274.163C189.873 274.66 190.666 275.233 191.229 275.482C195.329 274.37 198.831 276.885 202.752 276.861Z"
              fill="#B5C1C9"/>
        <path d="M135.309 403.49C134.094 417.378 118.549 427.975 100.348 426.907C82.1489 425.838 68.6336 413.542 69.8465 399.674C71.0612 385.786 86.6068 375.189 104.807 376.258C123.007 377.326 136.522 389.622 135.309 403.49Z"
              fill="black" stroke="black"/>
        <path fill-rule="evenodd" clip-rule="evenodd"
              d="M98.3459 417.685C114.659 421.14 130.161 413.752 132.97 401.184C135.78 388.615 124.833 375.625 108.52 372.17C92.2065 368.715 76.7047 376.103 73.8953 388.672C71.0859 401.24 82.0328 414.23 98.3459 417.685Z"
              fill="#B5C1C9"/>
        <path d="M300.546 246.954L300.553 247.027L300.581 247.096C303.373 253.992 303.122 263.3 299.717 275.081C296.315 286.854 289.783 301.032 280.104 317.622C269.737 335.39 256.294 351.704 228.258 375.11C217.298 384.259 212.53 391.791 208.594 398.008C207.467 399.789 206.408 401.462 205.291 403.034C202.791 406.553 199.993 409.59 195.465 412.274C190.925 414.966 184.621 417.319 175.092 419.424C156.979 423.425 142.89 417.686 129.544 412.249C128.935 412.001 128.329 411.754 127.723 411.508C113.938 405.917 100.763 401.135 84.8127 408.902C83.3082 407.621 82.2401 407.04 81.4609 406.617C81.283 406.52 81.1202 406.432 80.9706 406.345C80.5639 406.109 80.2742 405.897 80.0135 405.57C79.7467 405.236 79.4875 404.752 79.1978 403.942C77.253 398.505 79.0472 392.325 85.1109 382.591C91.3268 372.613 92.4292 359.172 92.2383 343.52C92.1749 338.325 91.9692 332.886 91.7555 327.236C91.3232 315.806 90.8583 303.516 91.474 290.65C92.049 278.631 98.0008 269.274 103.819 262.46C106.303 259.552 108.752 257.118 110.748 255.135C111.09 254.795 111.419 254.468 111.733 254.154C112.798 253.088 113.696 252.163 114.32 251.389C114.632 251.003 114.889 250.638 115.064 250.3C115.236 249.969 115.358 249.614 115.331 249.261C114.374 236.55 119.631 224.415 129.674 213.282C139.721 202.146 154.533 192.04 172.606 183.417C184.862 177.569 202.287 177.532 224.966 183.438C249.56 191.179 266.48 198.124 275.781 204.262C290.582 214.03 298.836 228.243 300.546 246.954Z"
              fill="black" stroke="black"/>
        <path fill-rule="evenodd" clip-rule="evenodd"
              d="M251.311 193.695C297.334 209.307 311.613 229.725 294.146 254.949C267.947 292.785 311.185 263.461 283.313 310.953C273.338 327.949 271.078 312.414 232.165 346.974C193.253 381.534 198.626 421.93 160.37 420.143C149.844 419.652 126.757 414.156 108.588 406.888C90.4196 399.621 79.9655 412.485 78.1185 409.492C71.8211 399.289 98.4158 375.567 95.9542 363.594C90.4247 336.701 92.5723 308.175 93.412 290.741C94.5297 267.533 116.539 254.667 116.288 251.349C114.866 232.582 132.219 212.516 155.976 196.742C163.772 191.565 181.877 190.799 197.076 187.424C229.567 190.199 247.646 192.289 251.311 193.695Z"
              fill="#B5C1C9"/>
        <path d="M156.42 386.257C150.146 385.922 143.231 383.906 137.645 381.7C134.855 380.598 132.407 379.453 130.549 378.454C129.619 377.955 128.842 377.495 128.245 377.098C128.095 376.998 127.959 376.904 127.836 376.815C131.708 376.092 136.537 374.137 141.759 371.571C147.49 368.755 153.747 365.177 159.818 361.605C161.658 360.523 163.479 359.441 165.264 358.382C169.378 355.94 173.297 353.614 176.792 351.656C179.297 350.254 181.574 349.045 183.54 348.123C183.896 347.956 184.241 347.799 184.574 347.652C174.091 355.156 169.838 364.525 166.96 372.165C166.606 373.104 166.274 374.013 165.956 374.886C164.836 377.952 163.877 380.579 162.68 382.561C161.919 383.82 161.083 384.777 160.087 385.402C159.098 386.022 157.916 386.337 156.42 386.257Z"
              fill="black" stroke="black"/>
        <path fill-rule="evenodd" clip-rule="evenodd"
              d="M122.891 376.964C134.166 381.37 146.815 381.461 158.885 369.068C164.658 363.14 197.462 340.003 202.929 339.24C177.528 330.582 179.125 352.171 128.462 344.297C125.951 343.906 120.336 351.101 112.844 353.816C110.845 354.54 115.937 329.446 109.468 334.095C103 338.744 101.046 368.428 122.891 376.964Z"
              fill="white"/>
        <path fill-rule="evenodd" clip-rule="evenodd"
              d="M114.217 339.515C123.182 343.943 151.309 342.959 164.196 342.885C171.756 342.841 197.147 339.667 202.17 340.955C183.228 330.994 186.101 340.234 144.935 323.425C142.351 322.37 139.528 322.303 133.57 323.287C132.765 323.42 131.447 320.039 128.134 319.142C119.977 316.932 110.417 320.224 105.2 318.785C101.912 317.879 106.337 323.184 107.992 325.816C111.019 330.629 114.826 335.383 114.024 336.811C111.869 340.647 107.007 335.954 114.217 339.515Z"
              fill="white"/>
        <path d="M201.318 339.111C200.966 339.212 200.593 339.329 200.202 339.46C198.716 339.956 196.9 340.675 194.866 341.552C190.795 343.305 185.82 345.7 180.795 348.238C170.747 353.313 160.463 358.979 156.763 361.268C144.252 369.009 132.513 371.946 122.308 366.544C114.773 362.555 111.042 359.117 109.122 355.322C107.193 351.508 107.046 347.261 106.878 341.485C106.779 338.088 106.394 333.24 105.56 328.403C104.885 324.487 103.909 320.542 102.534 317.373C104.11 318.72 105.329 319.925 106.463 321.046C107.089 321.665 107.689 322.259 108.309 322.836C110.436 324.816 112.717 326.519 116.882 328.204C121.008 329.874 123.712 330.573 126.032 330.822C127.833 331.015 129.398 330.935 131.176 330.843C131.675 330.817 132.189 330.791 132.731 330.769L134.021 330.717L133.011 329.88C132.458 329.421 132.095 328.647 131.962 327.6C131.878 326.947 131.888 326.21 131.986 325.42C132.648 326.481 133.62 327.464 134.743 328.36C136.373 329.661 138.377 330.821 140.381 331.804C144.384 333.768 148.459 335.06 149.709 335.353C166.13 339.206 173.279 338.589 179.519 337.855C179.769 337.826 180.017 337.796 180.264 337.767C183.082 337.432 185.743 337.115 189.093 337.229C192.292 337.338 196.13 337.841 201.318 339.111Z"
              fill="black" stroke="black"/>
        <path d="M203.675 339.333C202.557 336.461 200.711 335.014 198.643 334.274C196.991 333.683 195.188 333.539 193.464 333.518C194.885 334.71 195.94 335.639 196.744 336.652C197.757 337.927 198.362 339.319 198.876 341.488C199.74 345.134 198.79 347.367 197.68 349.974C197.604 350.152 197.528 350.331 197.452 350.513C199.312 349.482 201.186 348.133 202.486 346.491C204.045 344.522 204.771 342.149 203.675 339.333Z"
              fill="black" stroke="black"/>
        <path d="M264.264 277.979C263.647 276.942 263.128 275.955 262.784 274.966C264.106 274.954 265.316 274.998 266.457 275.048C266.66 275.057 266.861 275.066 267.06 275.075C268.163 275.125 269.214 275.172 270.234 275.168C272.664 275.156 274.96 274.85 277.614 273.586C282.869 271.082 289.467 264.839 301.47 249.899C302.325 248.834 303.014 248.188 303.545 247.871C304.07 247.558 304.318 247.626 304.457 247.729C304.665 247.881 304.892 248.283 305.035 249.089C305.173 249.867 305.214 250.914 305.155 252.203C304.922 257.367 303.121 266.049 300.28 275.734C297.125 286.489 291.602 300.198 285.734 312.321C282.801 318.381 279.785 324.037 276.939 328.724C274.088 333.421 271.427 337.113 269.208 339.27C268.485 339.972 266.81 341.127 264.464 342.54C262.136 343.944 259.19 345.578 255.964 347.237C249.507 350.557 241.959 353.963 236.02 355.824C233.04 356.758 230.515 357.287 228.749 357.248C227.864 357.228 227.232 357.066 226.83 356.799C226.458 356.552 226.242 356.19 226.227 355.624C226.211 355.027 226.422 354.199 226.968 353.092C227.51 351.993 228.362 350.658 229.577 349.059C232.008 345.861 235.855 341.653 241.468 336.224C263.959 314.474 270.035 301.525 270.001 292.653C269.983 288.204 268.429 284.835 266.734 281.968C266.312 281.252 265.879 280.566 265.461 279.905L265.389 279.792C264.995 279.17 264.616 278.57 264.264 277.979Z"
              fill="black" stroke="black"/>
        <path d="M141.11 310.134C140.378 309.708 139.741 309.528 139.191 309.518C138.645 309.507 138.153 309.662 137.702 309.957C136.781 310.559 136.023 311.757 135.474 313.317C134.466 316.177 134.26 319.956 134.769 322.478C136.895 321.203 139.755 318.979 141.507 316.65C142.469 315.371 143.047 314.125 143.057 313.029C143.066 311.984 142.56 310.98 141.11 310.134Z"
              fill="black" stroke="black"/>
        <path d="M143.141 302.982C143.73 301.743 144.418 300.919 145.156 300.41C145.889 299.904 146.698 299.689 147.568 299.711C149.336 299.757 151.369 300.786 153.399 302.421C155.415 304.045 157.361 306.213 158.947 308.417C160.355 310.374 161.461 312.335 162.08 313.941C158.05 314.228 152.28 313.865 147.993 312.284C145.728 311.448 143.953 310.3 143.026 308.804C142.121 307.344 141.966 305.459 143.141 302.982Z"
              fill="black" stroke="black"/>
        <path d="M125.748 299.058C126.15 298.173 126.612 297.591 127.092 297.233C127.567 296.88 128.082 296.729 128.633 296.737C129.766 296.756 131.097 297.454 132.46 298.644C134.988 300.852 137.34 304.507 138.301 307.329C135.732 307.408 131.95 307.009 129.09 305.806C127.537 305.153 126.325 304.292 125.689 303.21C125.073 302.161 124.949 300.818 125.748 299.058Z"
              fill="black" stroke="black"/>
        <path d="M116.086 297.606C116.65 298.732 118.141 300.326 120.796 301.875C122.426 302.825 124.482 303.75 127.001 304.534C125.208 303.416 123.591 301.973 122.441 300.159C120.356 296.87 119.866 292.458 122.456 286.771C118.551 287.82 116.541 289.536 115.678 291.36C114.741 293.34 115.082 295.602 116.086 297.606Z"
              fill="black" stroke="black"/>
        <path fill-rule="evenodd" clip-rule="evenodd"
              d="M123.113 297.866C122.939 297.842 122.763 297.807 122.587 297.76C120.09 297.091 118.515 294.261 119.071 291.439C119.612 288.686 121.98 286.958 124.414 287.495C123.812 288.66 123.339 290.009 123.048 291.486C122.601 293.759 122.656 295.979 123.113 297.866Z"
              fill="white"/>
        <path fill-rule="evenodd" clip-rule="evenodd"
              d="M210.473 273.428C220.492 274.49 232.364 276.31 240.781 284.791C249.198 293.272 240.082 303.027 234.023 306.821C222.834 313.827 217.713 299.414 192.104 299.387C168.047 299.363 188.828 271.132 210.473 273.428Z"
              fill="white"/>
        <path d="M200.449 201.454C196.397 208.05 194.916 214.046 195.909 219.469C198.07 217.714 204.053 212.89 211.063 207.624C218.933 201.711 228.133 195.214 234.669 191.893C234.947 191.323 234.991 190.833 234.876 190.405C234.751 189.936 234.418 189.466 233.828 189.005C232.632 188.071 230.525 187.282 227.656 186.678C221.947 185.476 213.507 185.062 204.178 185.433C194.857 185.805 184.681 186.959 175.51 188.876C166.327 190.796 158.2 193.472 152.941 196.863C146.599 200.951 141.506 205.867 139.066 210.153C137.844 212.301 137.324 214.227 137.571 215.784C137.81 217.295 138.786 218.551 140.803 219.375C141.216 219.544 141.802 219.615 142.578 219.563C143.348 219.511 144.266 219.34 145.318 219.06C147.422 218.5 150.007 217.519 152.918 216.252C158.672 213.748 165.629 210.157 172.541 206.59L172.785 206.464C179.766 202.862 186.689 199.295 192.218 196.938C194.981 195.761 197.42 194.875 199.358 194.441C200.326 194.224 201.193 194.114 201.926 194.146C202.653 194.179 203.31 194.355 203.787 194.772C203.916 194.886 203.955 195.024 203.967 195.101C203.979 195.179 203.973 195.248 203.967 195.292C203.954 195.381 203.926 195.471 203.898 195.548C203.839 195.708 203.742 195.915 203.616 196.159C203.362 196.653 202.959 197.36 202.411 198.274C202.063 198.854 201.408 199.915 200.449 201.454Z"
              fill="black" stroke="black"/>
        <path fill-rule="evenodd" clip-rule="evenodd"
              d="M195.82 213.83C194.452 207.282 188.138 204.268 182.886 205.609C176.812 207.16 170.537 209.129 164.205 211.643C126.084 226.779 154.425 199.226 170.431 192.321C182.923 186.932 201.032 185.451 215.865 186.476C215.89 189.493 201.261 200.545 195.82 213.83Z"
              fill="white"/>
        <path fill-rule="evenodd" clip-rule="evenodd"
              d="M288.498 218.006C295.833 208.695 241.556 185.372 216.357 201.55C205.495 208.523 177.875 236.04 210.794 220.402C243.713 204.764 284.405 229.223 288.498 218.006Z"
              fill="white"/>
        <path fill-rule="evenodd" clip-rule="evenodd"
              d="M120.691 261.595C126.362 260.014 134.029 261.878 139.259 266.152C142.328 268.659 144.507 273.605 120.066 277.284C118.532 277.515 112.777 279.317 109.737 278.522C103.251 276.916 111.203 264.24 120.691 261.595Z"
              fill="white"/>
        <path fill-rule="evenodd" clip-rule="evenodd"
              d="M157.915 279.296C159.115 281.689 161.773 285.953 157.112 287.698C152.45 289.443 145.623 289.895 138.934 286.969C132.245 284.043 135.288 281.089 142.567 278.274C148 276.173 157.11 267.207 169.899 251.375C175.864 240.153 179.748 233.519 181.551 231.473C184.961 227.6 182.055 259.43 162.502 273.04C162.177 273.266 156.715 276.903 157.915 279.296Z"
              fill="white"/>
        <path fill-rule="evenodd" clip-rule="evenodd"
              d="M110.432 377.942C119.602 380.137 129.61 387.092 138.376 399.068C147.142 411.044 124.899 404.799 107.324 398.642C89.7498 392.485 87.5594 402.743 83.9655 399.067C76.2235 391.356 95.0882 374.271 110.432 377.942Z"
              fill="white"/>
        <path d="M202.962 394.155C206.407 391.651 207.915 386.502 207.781 381.655C207.756 380.755 207.593 379.436 207.412 377.975C207.307 377.134 207.197 376.246 207.105 375.364C206.98 374.175 206.888 373.006 206.895 372.022C206.895 372.021 206.895 372.02 206.895 372.018C206.155 373.161 205.458 374.37 204.741 375.615C204.216 376.527 203.679 377.459 203.106 378.398C201.335 381.299 199.252 384.194 196.165 386.511C193.014 388.876 188.899 390.628 185.182 391.872C182.257 392.85 179.557 393.522 177.726 393.932C180.995 395.562 185.556 396.617 190.079 396.836C195.166 397.082 200.061 396.264 202.962 394.155Z"
              fill="black" stroke="black"/>
        <path d="M83.6306 382.139C83.6794 382.849 83.7191 383.557 83.7256 384.204C90.5378 373.75 99.0996 370.364 104.25 369.282C102.179 367.519 99.9705 364.536 98.191 361.05C96.3416 357.428 94.9234 353.201 94.6075 349.129C94.3526 349.623 94.0453 350.261 93.6962 351.019C92.6229 353.348 91.1859 356.736 89.7259 360.319C88.2664 363.901 86.7866 367.673 85.6278 370.767C84.4606 373.885 83.6393 376.264 83.4717 377.098C83.3816 377.547 83.3795 378.278 83.4261 379.195C83.4559 379.783 83.5036 380.418 83.5526 381.07C83.5791 381.423 83.606 381.781 83.6306 382.139Z"
              fill="black" stroke="black"/>
        <path fill-rule="evenodd" clip-rule="evenodd"
              d="M221.586 243.265C235.541 245.178 245.363 258.931 244.014 274.311C236.92 269.808 228.427 266.624 219.097 265.345C209.482 264.027 200.214 264.902 192.053 267.517C194.499 252.134 207.532 241.339 221.586 243.265Z"
              fill="white"/>
        <path fill-rule="evenodd" clip-rule="evenodd"
              d="M218.772 260.155C232.542 262.194 243.326 268.766 244.271 275.342C236.947 272.869 228.485 270.828 219.401 269.483C208.835 267.919 198.862 267.508 190.361 268.088C192.16 261.568 204.487 258.04 218.772 260.155Z"
              fill="white"/>
        <path fill-rule="evenodd" clip-rule="evenodd"
              d="M142.73 249.368C152.658 250.048 160.547 255.254 161.1 261.25C155.801 259.583 149.652 258.42 143.061 257.969C135.769 257.47 128.913 257.91 123.076 259.082C123.976 252.98 132.561 248.673 142.73 249.368Z"
              fill="white"/>
        <path fill-rule="evenodd" clip-rule="evenodd"
              d="M154.093 231.91C164.589 234.121 171.356 245.675 170.37 258.685C165.012 254.676 158.568 251.683 151.392 250.172C143.448 248.498 135.638 248.857 128.645 250.865C132.457 237.979 143.341 229.645 154.093 231.91Z"
              fill="white"/>
        <path d="M155.332 237.609C159.233 238.429 163.305 241.901 166.058 245.922C167.427 247.923 168.446 250.028 168.948 251.957C169.452 253.895 169.418 255.591 168.776 256.834C168.36 257.637 167.432 258.146 166.036 258.384C164.654 258.62 162.928 258.568 161.106 258.36C158.316 258.041 155.4 257.371 153.273 256.882C152.619 256.731 152.039 256.598 151.561 256.497C142.36 254.562 133.356 254.567 125.235 256.189C128.806 248.732 133.041 243.48 137.917 240.379C142.975 237.161 148.768 236.229 155.332 237.609Z"
              fill="black" stroke="black"/>
        <path d="M220.179 249.279C233.48 251.139 243.266 261.563 243.458 273.21C236.372 269.614 228.103 266.985 219.133 265.73C209.299 264.355 199.867 264.808 191.591 266.741C194.315 255.127 206.579 247.377 220.179 249.279Z"
              fill="black" stroke="black"/>
        <path d="M133.779 264.801C132.088 264.07 130.328 263.142 128.724 261.859C142.165 263.615 147.529 263.042 153.061 261.234C153.652 261.041 154.245 260.854 154.838 260.668C159.595 259.17 164.345 257.675 168.064 252.822C168.275 253.618 168.283 254.371 168.093 255.139C167.83 256.201 167.177 257.334 166.058 258.673C163.938 261.208 160.27 264.34 154.843 268.975C154.508 269.261 154.167 269.553 153.818 269.85C148.292 274.572 142.722 276.857 137.755 278.895C137.417 279.034 137.081 279.171 136.749 279.308C132.232 281.172 128.214 282.969 125.431 286.49C126.06 283.968 128.39 279.302 136.7 273.97C138.179 273.021 139.284 272.223 140.062 271.537C140.828 270.861 141.332 270.247 141.522 269.657C141.621 269.349 141.635 269.044 141.553 268.748C141.471 268.455 141.304 268.205 141.093 267.991C140.683 267.576 140.055 267.243 139.346 266.939C138.712 266.666 137.957 266.394 137.143 266.1C137.035 266.061 136.925 266.021 136.815 265.982C135.869 265.639 134.84 265.26 133.779 264.801Z"
              fill="black" stroke="black"/>
        <path d="M172.951 313.855C171.968 314.262 171.152 314.677 170.47 315.064C173.957 310.548 174.36 304.881 172.934 299.524C172.071 296.283 170.822 293.994 168.725 292.217C167.038 290.786 164.829 289.711 161.909 288.714C161.93 288.709 161.951 288.703 161.972 288.697C163.285 288.343 165.046 287.743 166.956 286.915C170.76 285.267 175.24 282.678 177.938 279.252C180.598 275.875 183.784 271.176 186.565 267.074C186.894 266.589 187.217 266.112 187.533 265.647C189.031 263.442 190.365 261.499 191.38 260.139C191.809 259.565 192.173 259.105 192.464 258.778C192.458 258.837 192.453 258.9 192.448 258.964C192.396 259.684 192.443 260.675 193.045 261.826C194.235 264.103 197.52 266.869 206.029 269.584C214.096 272.158 220.505 274.249 225.257 275.858C214.494 274.465 205.895 274.341 199.479 275.507C192.069 276.854 187.442 279.953 185.893 284.938L185.889 284.95L185.886 284.962C185.203 287.622 185.785 290.118 187.587 292.408C189.36 294.661 192.308 296.71 196.37 298.577C198.778 300.926 200.469 302.944 201.466 304.636C202.481 306.358 202.722 307.644 202.413 308.571C202.111 309.477 201.219 310.226 199.492 310.718C197.771 311.208 195.328 311.407 192.137 311.293C182.447 310.948 176.586 312.346 172.951 313.855Z"
              fill="black" stroke="black"/>
        <path fill-rule="evenodd" clip-rule="evenodd"
              d="M172.065 303.494C171.589 291.921 162.805 289.755 160.305 287.299C167.587 289.783 174.243 291.273 177.281 297.076C180.505 303.233 181.041 312.365 167.852 315.276C169.32 312.892 172.35 310.437 172.065 303.494Z"
              fill="white"/>
        <path d="M208.776 242.845C210.277 240.893 212.09 238.869 214.687 237.28C217.809 235.369 222.106 234.062 228.426 234.341C234.72 234.619 238.541 236.748 240.832 239.469C242.886 241.91 243.757 244.885 244.018 247.58C243.376 247.165 242.769 246.758 242.178 246.363C238.393 243.828 235.282 241.746 228.213 240.832C223.937 240.279 221.036 240.226 218.03 240.647C215.361 241.021 212.619 241.768 208.776 242.845Z"
              fill="black" stroke="black"/>
        <path d="M148.165 226.093C150.01 224.882 152.105 223.714 154.602 223.128C157.656 222.412 161.349 222.56 165.95 224.662C170.518 226.749 172.539 229.679 173.207 232.671C173.803 235.336 173.34 238.118 172.522 240.504C172.238 240.018 171.972 239.547 171.712 239.086C171.557 238.812 171.405 238.542 171.251 238.275C170.691 237.294 170.127 236.353 169.456 235.439C168.104 233.597 166.338 231.893 163.31 230.128C160.307 228.377 158.138 227.464 155.706 226.931C153.608 226.471 151.323 226.297 148.165 226.093Z"
              fill="black" stroke="black"/>
        <path fill-rule="evenodd" clip-rule="evenodd"
              d="M260.626 322.153C253.219 329.919 239.875 341.14 227.616 347.112C237.501 333.889 236.677 330.966 251.896 316.368C267.114 301.771 257.602 288.122 266.918 284.336C274.151 299.073 273.019 309.158 260.626 322.153Z"
              fill="white"/>
    </g>
    <defs>
        <clipPath id="clip0_1007_3746">
            <rect width="512" height="512" fill="white"/>
        </clipPath>
    </defs>
</svg>
