<svg width="512" height="512" viewBox="0 0 512 512" fill="none" xmlns="http://www.w3.org/2000/svg">
    <path d="M379.274 250.501L379.262 250.483C377.686 248.18 376.205 245.801 374.728 243.429L374.43 242.951C372.852 240.417 371.27 237.894 369.561 235.459L369.554 235.449C357.655 217.582 343.226 201.535 326.717 187.813C321.518 183.719 316.117 179.889 310.533 176.339L309.799 175.872L310.571 175.473C314.243 173.574 316.062 171.304 316.304 169.037C316.546 166.779 315.247 164.293 312.143 161.898C310.217 160.644 308.18 159.57 306.058 158.688L305.253 158.353L305.948 157.828C306.676 157.276 307.441 156.776 308.238 156.33L308.263 156.316L308.289 156.305C311.107 155.122 313.171 152.639 313.82 149.653C314.469 146.666 313.622 143.55 311.55 141.304L311.526 141.278L311.506 141.249C311.284 140.928 311.147 140.619 311.103 140.312C311.058 139.996 311.118 139.72 311.226 139.482C311.328 139.255 311.474 139.061 311.596 138.906C311.729 138.736 311.833 138.61 311.923 138.467L311.942 138.436L311.967 138.407C318.856 130.342 326.561 123.011 334.96 116.532C342.51 110.002 352.499 107.023 362.394 108.351L362.395 108.351C367.837 109.089 373.376 108.538 378.566 106.743L378.586 106.736L378.606 106.731C387.597 104.438 393.452 95.7824 392.232 86.5844L392.23 86.5702L392.229 86.556C391.736 79.9657 390.093 73.5124 387.377 67.4877L387.374 67.4802L387.371 67.4726C383.941 59.1463 376.338 53.2753 367.415 52.0623C361.732 51.3427 355.963 51.7467 350.436 53.2513L350.429 53.2532C340.724 55.7438 330.414 53.5862 322.522 47.414C314.22 41.3435 307.178 33.7149 301.79 24.9537C296.243 16.3894 288.628 9.36062 279.648 4.51653L279.637 4.5105L279.637 4.51036C268.221 -2.02672 253.893 -0.459473 244.161 8.38986C235.038 17.3938 226.451 26.9251 218.445 36.9348C212.375 44.5829 203.269 49.1999 193.512 49.5758L193.509 49.5759C188.31 49.7431 183.19 48.2717 178.873 45.3697C172.835 41.3518 165.071 40.9977 158.693 44.4492L158.682 44.455L158.671 44.4603C153.863 46.7657 149.342 49.627 145.201 52.9855L145.194 52.9914L145.186 52.997C137.368 58.867 131.454 66.9108 128.182 76.1231L128.177 76.1356L128.172 76.1478C125.9 81.609 128.467 87.8796 133.916 90.1801L133.934 90.1874L133.95 90.196C140.495 93.5554 147.26 96.2814 154.072 99.0265C157.339 100.343 160.617 101.664 163.887 103.062C163.888 103.062 163.889 103.062 163.89 103.063L163.693 103.522C171.594 106.786 179.323 110.393 187.138 114.085L379.274 250.501ZM379.274 250.501L379.288 250.518C381.96 253.776 384.841 256.859 387.911 259.746C414.433 287.265 433.87 320.818 444.547 357.515L444.548 357.518C449.62 374.568 450.79 392.541 447.97 410.105C445.326 424.162 439.485 437.423 430.899 448.862C430.64 449.157 430.425 449.488 430.262 449.845L428.257 452.017L428.248 452.026L428.24 452.036C426.996 453.533 425.662 454.952 424.246 456.286L424.204 456.325L424.172 456.373C423.044 458.073 421.602 459.543 419.924 460.704L419.922 460.706C378.182 489.972 326.031 500.265 276.302 489.053L276.182 489.026L276.062 489.058C221.342 503.835 163.101 498.01 112.39 472.691L112.363 472.677L112.334 472.667C109.681 471.725 107.035 470.701 104.479 469.508C95.1574 465.036 86.9483 458.546 80.4469 450.507C70.7842 436.998 65.0793 421.062 63.9733 404.489L63.9731 404.486C62.0402 377.567 66.0457 350.551 75.7065 325.351L75.7103 325.34C83.8697 302.539 95.4267 281.101 109.99 261.751L109.992 261.748C126.816 239.025 146.435 218.512 168.387 200.695L379.274 250.501Z"
          fill="black" stroke="black"/>
    <path d="M77.3006 385.629C77.4849 356.834 86.475 328.785 103.064 305.248C116.219 285.745 131.997 268.147 149.953 252.949C149.953 252.949 149.953 252.519 150.726 251.832C146.375 252.328 142.137 253.547 138.188 255.439C134.054 257.353 130.065 259.563 126.251 262.052C129.311 256.775 132.786 251.75 136.642 247.023C145.708 235.348 175.403 198.366 191.689 196.126C196.265 195.497 170.498 235.14 180.239 239.065C187.006 241.792 223.814 196.922 226.04 196.126C231.193 194.495 241.584 209.237 240.983 213.531C240.096 219.038 239.722 224.615 239.866 230.191C239.866 236.804 248.368 240.239 250 235.258C251.901 230.914 254.081 226.697 256.527 222.634C260.054 215.714 264.729 209.442 270.353 204.084C273.808 199.951 279.23 198.013 284.522 199.018C288.884 200.05 292.869 202.281 296.03 205.458C305.558 215.287 313.29 226.71 318.873 239.208C319.523 240.742 320.456 242.14 321.621 243.33C321.919 241.654 321.919 239.939 321.621 238.264C320.734 230.35 321.495 222.339 323.854 214.733C325.057 209.924 326.774 209.409 330.381 212.93C335.057 217.19 339.42 221.782 343.434 226.67C344.331 228.129 345.608 229.316 347.127 230.105V230.878C347.016 230.631 346.871 230.4 346.698 230.191C346.636 229.1 346.312 228.039 345.753 227.1C341.875 219.26 337.122 211.884 331.583 205.115C331.755 204.428 330.381 203.999 331.497 202.882C343.097 214.049 353.567 226.331 362.757 239.552C365.292 242.768 367.561 246.186 369.541 249.771L368.94 250.286C363.509 247.673 358.431 244.383 353.825 240.496L351.593 238.951L351.077 238.521C350.648 238.521 351.077 239.122 351.077 239.466C353.827 243.687 357.251 247.43 361.211 250.544C375.774 263.566 388.642 278.367 399.512 294.599C415.109 317.483 426.965 342.703 434.636 369.312C438.865 383.258 439.309 398.077 435.924 412.251C432.61 425.752 424.048 437.374 412.136 444.541C412.072 443.601 332.627 461.472 333.387 460.915C339.165 455.004 298.747 438.487 214.59 442.308C193.093 443.284 235.135 458.316 233.197 468.071C231.674 475.734 188.869 477.412 178.808 476.659C171.733 476.13 72.8922 472.365 77.3006 385.629ZM210.296 429.426C220.967 429.426 180.239 382.194 175.945 336.393C171.651 290.591 190.91 253.378 180.239 253.378C169.567 253.378 153.044 282.004 160.201 336.393C167.357 390.782 199.624 429.426 210.296 429.426Z"
          fill="white"/>
    <path d="M265.36 294.615V295.115V371.803C265.36 378.206 261.379 383.771 255.421 385.995C255.421 385.995 255.42 385.995 255.42 385.995L242.392 390.944L247.884 410.155L267.424 402.551L265.36 294.615ZM265.36 294.615H264.86H232.122M265.36 294.615H232.122M232.122 294.615V276.779H285.511V376.647C285.511 380.886 284.7 384.842 282.819 388.528C279.576 394.881 274.174 399.906 267.425 402.551L232.122 294.615Z"
          fill="black" stroke="black"/>
    <path d="M229.904 78.446C237.506 92.3596 240.512 108.321 238.492 124.047C238.532 124.447 238.532 124.849 238.492 125.249C237.805 127.053 237.548 129.371 235.401 130.144C233.254 130.917 231.45 129.199 229.99 127.654C226.265 123.377 223.145 118.609 220.716 113.484C213.158 99.7436 205.687 85.9173 198.817 71.7476C198.594 71.1916 198.422 70.6168 198.302 70.03C199.933 70.03 201.479 71.6617 203.197 70.03L196.842 65.9079C196.034 63.8861 196.148 61.6124 197.155 59.6817C198.161 57.7511 199.96 56.3555 202.08 55.8603C209.428 53.6465 215.871 49.1308 220.458 42.9787C224.58 38.5131 228.273 33.7898 232.223 29.1524C233.425 27.7784 240.038 20.1353 240.983 19.4483C246.538 14.7589 253.233 11.6188 260.391 10.3453C268.87 9.06187 277.339 12.7293 282.204 19.7918C284.015 21.8889 287.397 28.2955 289.017 35.8222C290.6 43.1794 290.444 51.6503 290.19 54.4862C289.92 59.3834 284.262 89.8629 282.204 95.965C279.183 106.6 275.512 117.04 271.211 127.224C269.816 130.917 267.845 134.366 265.372 137.444C262.108 141.051 259.274 140.793 256.784 136.757C253.951 131.608 251.951 126.043 250.858 120.268C247.413 105.335 241.615 91.044 233.683 77.9307C230.148 72.5203 225.934 67.5851 221.145 63.2457C220.716 63.2457 220.286 62.0434 219.427 62.4728C224.351 69.343 227.843 74.6674 229.904 78.446Z"
          fill="#B5C1C9"/>
    <path d="M333.473 60.154C336.271 61.3392 337.607 64.5458 336.478 67.3677C335.839 69.4904 334.852 71.4926 333.558 73.2932C332.27 74.9249 331.068 76.6424 329.78 78.36C330.553 79.1328 330.896 78.36 331.497 78.36C338.11 74.4955 343.95 69.7722 350.305 65.3925C351.162 64.5128 352.339 64.0172 353.568 64.0184C361.15 63.5939 367.993 68.5379 369.97 75.8695C370.146 76.2285 370.454 76.5055 370.829 76.6424C372.547 77.3294 372.976 78.9611 373.577 80.421C376.012 84.895 374.499 90.4924 370.142 93.1308C363.249 91.1815 355.889 91.7289 349.36 94.6766C348.587 94.6766 347.986 95.6213 347.127 95.3637C346.904 94.8373 346.472 94.4274 345.934 94.232C345.397 94.0366 344.802 94.0732 344.293 94.3331C342.833 92.9591 342.232 94.3331 341.889 95.3637C341.545 96.3942 341.889 97.4247 341.373 98.4552C339.348 100.761 336.899 102.656 334.16 104.037C333.129 101.633 333.043 101.633 330.81 103.608L331.927 104.037C332.43 104.144 332.809 104.558 332.871 105.068C330.784 107.741 328.392 110.162 325.744 112.281C318.788 119.667 311.66 126.966 304.532 134.18C302.753 136.528 300.247 138.219 297.404 138.989C294.141 139.59 293.368 138.989 294.141 135.554C295.45 130.878 297.385 126.4 299.895 122.243C301.425 118.767 303.356 115.481 305.648 112.453H306.507C307.709 112.453 309.685 113.827 310.028 112.453C310.372 111.079 307.709 111.766 306.679 110.822C309.169 105.583 312.519 100.86 315.267 95.793C315.782 95.0201 316.641 94.3331 316.469 92.8732C313.767 95.4963 311.323 98.372 309.169 101.461C304.446 107.215 299.895 113.14 295.171 118.636C294.421 119.572 293.556 120.409 292.595 121.127C290.963 122.415 289.675 122.329 289.16 120.01C289.198 119.525 289.198 119.036 289.16 118.551C292.128 104.15 297.192 90.2616 304.188 77.3294C309.016 65.7041 320.97 58.6927 333.473 60.154ZM353.224 75.4401C350.476 75.4401 349.188 78.36 346.955 79.6481C346.182 79.6481 344.98 80.6786 345.667 81.9668C346.354 83.255 347.299 81.9668 348.072 81.9668C350.663 80.4532 353.726 79.9631 356.659 80.5928C357.862 80.5928 358.978 78.9611 358.978 77.4153C358.978 75.8695 358.033 75.1825 356.488 75.8695C355.455 76.3926 354.228 76.3603 353.224 75.7836V75.4401ZM321.536 91.1557C322.351 92.7251 323.493 94.1014 324.885 95.1919C325.142 92.9591 325.142 92.9591 321.536 91.4992V91.1557Z"
          fill="#B5C1C9"/>
    <path d="M171.937 55.7749C178.933 57.6131 185.031 61.9123 189.113 67.8836C200.307 83.975 208.43 101.997 213.073 121.042C213.073 121.042 213.073 121.815 213.073 122.244L204.485 113.656C205.172 113.656 205 112.883 204.485 112.454C197.984 104.227 190.18 97.12 181.384 91.414C178.994 89.9742 161.957 86.0432 155.907 78.7614C155.134 77.8313 156.335 75.4567 155.907 74.4675C154.611 71.4722 152.655 63.1459 154.476 60.1546C157.259 55.5827 164.882 56.8497 165.926 56.7196L171.937 55.7749ZM193.75 88.8377C194.625 88.6758 195.487 88.4461 196.326 88.1506C197.185 88.1506 197.7 87.0342 197.099 86.1755C196.498 85.3167 195.897 85.4884 195.382 86.1755C194.867 86.8625 193.321 87.4636 192.548 85.6602C191.775 83.8568 190.143 83.5991 188.512 83.1698C186.88 82.7404 186.88 83.1698 186.966 84.372C188.88 86.3306 191.194 87.8537 193.75 88.8377ZM181.641 83.7709C181.04 83.7709 180.353 84.2003 180.783 84.6297C181.212 85.0591 182.157 87.7213 183.874 88.0648C185.592 88.4083 184.733 87.206 184.733 86.519C184.733 85.832 183.101 84.2003 181.641 83.7709ZM180.611 77.9312C182.328 79.6488 184.39 79.477 186.107 80.0782C184.733 78.5324 183.101 77.3301 180.611 77.9312Z"
          fill="#B5C1C9"/>
    <path d="M333.473 60.1545C320.97 58.6933 309.016 65.7047 304.189 77.33C297.364 90.2055 292.446 104.004 289.589 118.293C289.627 118.779 289.627 119.267 289.589 119.753C288.64 115.165 288.64 110.43 289.589 105.841C290.722 93.2949 292.993 80.8774 296.374 68.7423C297.41 65.1685 298.942 61.7575 300.925 58.6088C303.217 53.7928 308.871 51.6063 313.807 53.6279C319.217 55.2595 324.627 56.9771 329.952 58.7805C331.251 58.8079 332.498 59.2947 333.473 60.1545Z"
          fill="white"/>
    <path d="M171.937 55.7747L165.926 56.7193C162.145 57.1332 158.76 59.2525 156.737 62.4731C156.222 63.246 155.964 63.7613 156.737 64.5342C159.227 66.5952 157.252 67.1964 155.535 67.7116C155.535 65.4788 153.817 64.0189 153.473 61.872L151.928 63.5036C150.244 65.4821 149.546 68.1164 150.03 70.669C150.514 73.2215 152.127 75.4179 154.418 76.6429C154.933 76.6429 155.535 77.5016 156.05 76.6429C156.265 76.21 156.265 75.7017 156.05 75.2688C155.191 73.6372 156.05 72.349 156.737 70.8032C157.939 72.7784 160.601 74.2383 158.97 77.244C157.338 80.2497 159.571 79.2192 160.43 79.7344C167.3 83.5989 174.256 87.2058 180.954 91.242C189.751 96.9481 197.554 104.055 204.055 112.282C204.055 112.711 204.57 113.141 204.055 113.484C191.351 102.462 176.82 93.7434 161.117 87.721C155.449 85.3165 149.867 82.826 143.941 80.2497C141.775 79.3625 140.157 77.5007 139.582 75.2316C139.006 72.9626 139.54 70.5549 141.021 68.7422C145.106 62.0951 151.757 57.4329 159.399 55.8606C163.502 54.7593 167.819 54.7297 171.937 55.7747Z"
          fill="white"/>
    <path d="M370.142 93.2168C374.499 90.5783 376.012 84.9809 373.577 80.507C372.976 79.047 372.547 77.4154 370.829 76.7283C370.454 76.5914 370.146 76.3144 369.97 75.9555C367.993 68.6239 361.15 63.6798 353.568 64.1044C358.379 61.4057 364.193 61.1821 369.198 63.5032C378.922 68.9145 384.237 79.8186 382.509 90.8122C382.025 93.9581 380.296 96.7773 377.712 98.6349C375.127 100.493 371.904 101.232 368.768 100.688C364.352 100.132 359.908 99.8169 355.457 99.7435C360.158 97.1547 365.071 94.9713 370.142 93.2168Z"
          fill="white"/>
    <path d="M268.979 153.245C272.086 156.379 275.447 159.252 279.026 161.833C272.877 164.385 265.781 162.398 261.851 157.024C264.17 152.472 264.341 152.387 268.12 153.245H268.979Z"
          fill="#B5C1C9"/>
    <path d="M281.946 153.245L290.534 159.085C287.006 160.734 282.954 160.859 279.331 159.429C275.709 157.999 272.834 155.142 271.383 151.528C271.383 151.528 271.383 151.528 271.383 151.098C273.501 150.308 275.871 150.596 277.738 151.871C278.97 152.744 280.437 153.223 281.946 153.245Z"
          fill="#B5C1C9"/>
    <path d="M244.847 157.454C247.646 160.742 250.882 163.631 254.465 166.041C254.895 166.041 255.668 166.642 255.496 167.329C255.324 168.017 254.465 168.102 253.864 168.274C249.086 169.489 244.023 168.084 240.553 164.581C239.78 160.116 239.78 160.202 243.902 158.312C244.246 158.055 244.504 157.711 244.847 157.454Z"
          fill="#B5C1C9"/>
    <path d="M256.784 155.65C259.785 158.437 262.969 161.019 266.316 163.379C267.089 163.894 267.862 164.667 266.316 165.268C261.022 166.716 255.368 164.976 251.803 160.803C251.803 156.852 253.263 155.736 256.784 155.65Z"
          fill="#B5C1C9"/>
    <path d="M226.04 167.157L233.769 170.507C231.035 174.361 225.7 175.282 221.832 172.568C220.458 171.451 219.17 170.163 217.796 168.961C216.422 167.758 217.796 166.642 219.857 166.556C221.931 166.586 223.999 166.787 226.04 167.157Z"
          fill="#B5C1C9"/>
    <path d="M233.769 161.833C236.805 163.802 239.677 166.014 242.357 168.446C242.357 168.446 243.559 169.133 243.215 169.82C242.872 170.507 242.271 170.421 241.67 170.593C240.528 170.979 239.291 170.979 238.149 170.593C235.531 169.976 232.994 169.054 230.591 167.845C229.303 162.95 229.733 162.177 233.769 161.919V161.833Z"
          fill="#B5C1C9"/>
    <path d="M208.865 141.222C209.697 141.136 210.479 141.634 210.754 142.424C213.017 146.108 214.316 150.301 214.533 154.619C214.533 156.68 214.533 156.852 211.785 155.993L210.84 155.306C210.737 154.717 210.502 154.159 210.153 153.674C207.899 149.92 207.427 145.359 208.865 141.222Z"
          fill="#B5C1C9"/>
    <path d="M306.593 152.559C301.791 153.409 296.993 151.045 294.742 146.719C294.227 144.228 296.459 142.854 300.238 143.37C298.435 146.461 300.753 147.32 302.814 148.093C304.875 148.866 306.679 149.81 306.593 152.559Z"
          fill="#B5C1C9"/>
    <path d="M216.937 170.764C218.225 172.052 220.801 173.169 220.2 174.886C219.599 176.604 216.937 176.26 215.048 176.432C212.587 176.929 210.029 176.533 207.834 175.316C207.834 170.506 208.263 170.163 212.987 170.592C214.275 170.764 215.563 171.795 216.937 170.764Z"
          fill="#B5C1C9"/>
    <path d="M282.204 148.522C282.808 146.829 284.264 145.582 286.03 145.247C287.796 144.911 289.608 145.537 290.791 146.891C293.446 149.875 296.477 152.502 299.808 154.706C300.925 155.564 300.839 155.65 299.808 156.251C295.75 154.766 291.909 152.744 288.387 150.24C286.879 148.443 284.422 147.761 282.204 148.522Z"
          fill="white"/>
    <path d="M215.821 144.829C215.821 142.339 216.765 141.652 218.912 142.511C222.013 143.6 224.488 145.981 225.697 149.037C226.149 150.118 226.149 151.336 225.698 152.417C225.246 153.498 224.379 154.353 223.292 154.791C222.256 155.377 221.02 155.497 219.891 155.12C218.761 154.744 217.844 153.906 217.367 152.816C219.084 152.043 221.746 152.816 222.176 150.068C222.253 148.139 221.263 146.324 219.599 145.345C218.476 144.628 217.095 144.44 215.821 144.829Z"
          fill="#B5C1C9"/>
    <path d="M285.553 173.598C282.347 174.049 279.082 173.414 276.278 171.795C274.217 170.678 274.217 169.133 276.278 168.016C278.231 166.824 280.545 166.368 282.805 166.728C284.179 169.047 286.154 170.764 285.553 173.598Z"
          fill="#B5C1C9"/>
    <path d="M282.204 148.522C284.292 147.948 286.525 148.615 287.957 150.24C291.479 152.744 295.321 154.766 299.379 156.251C292.511 158.621 284.985 155.234 282.204 148.522Z"
          fill="#B5C1C9"/>
    <path d="M305.047 172.739C302.049 170.739 300.45 167.208 300.925 163.636C301.869 161.661 303.415 160.802 305.476 162.606C305.476 163.98 306.249 165.01 306.679 166.298C307.776 168.556 307.087 171.276 305.047 172.739Z"
          fill="#B5C1C9"/>
    <path d="M216.937 170.764C215.563 172.138 214.275 170.764 212.987 170.764C208.263 170.335 207.834 170.764 207.834 175.487C205.169 174.311 203.945 171.211 205.086 168.531C206.729 166.49 209.626 165.977 211.87 167.329C213.718 168.22 215.425 169.377 216.937 170.764Z"
          fill="white"/>
    <path d="M295.687 173.341C293.792 173.013 292.082 172.005 290.878 170.507C289.589 169.047 287.958 167.244 289.675 165.269C290.424 164.447 291.484 163.979 292.595 163.979C293.707 163.979 294.766 164.447 295.515 165.269C296.538 167.852 296.599 170.717 295.687 173.341Z"
          fill="#B5C1C9"/>
    <path d="M208.865 141.222C207.264 145.473 207.707 150.223 210.067 154.104C210.416 154.589 210.651 155.147 210.754 155.735C207.924 155.218 205.583 153.233 204.61 150.526C203.637 147.818 204.178 144.797 206.031 142.596C206.889 141.737 207.662 140.965 208.865 141.222Z"
          fill="white"/>
    <path d="M215.821 144.83C217.095 144.44 218.476 144.628 219.599 145.345C221.263 146.325 222.253 148.139 222.176 150.068C221.746 152.559 219.084 152.043 217.367 152.816C215.959 150.407 215.414 147.59 215.821 144.83Z"
          fill="white"/>
    <path d="M305.047 172.739C307.087 171.276 307.777 168.556 306.679 166.298C306.249 165.01 305.391 163.98 305.477 162.605C307.527 164.04 309.376 165.744 310.973 167.672C311.636 168.406 311.908 169.414 311.704 170.382C311.501 171.351 310.845 172.163 309.942 172.567C308.482 173.512 306.765 175.144 305.047 172.739Z"
          fill="white"/>
    <path d="M226.04 167.157C223.999 166.787 221.931 166.586 219.857 166.556C218.053 166.556 217.538 167.415 217.796 168.96C216.003 167.965 214.404 166.656 213.073 165.096C217.452 161.661 219.685 162.09 226.04 167.157Z"
          fill="white"/>
    <path d="M306.593 152.558C306.593 149.81 304.704 148.951 302.557 148.092C300.41 147.234 298.177 146.461 299.98 143.369C303.696 143.099 307.096 145.461 308.139 149.037C308.568 150.583 308.74 152.129 306.593 152.558Z"
          fill="white"/>
    <path d="M235.229 147.663C236.231 147.552 237.225 147.937 237.891 148.694C239.093 149.81 239.008 150.841 237.376 151.356C235.149 151.916 232.818 151.916 230.592 151.356C228.788 151.356 228.531 149.553 228.531 148.093C228.531 146.633 228.531 145.602 230.334 145.774C230.177 147.442 231.342 148.945 232.996 149.209C234.628 149.724 235.057 148.952 235.229 147.663Z"
          fill="#B5C1C9"/>
    <path d="M233.34 161.661C229.303 161.661 228.874 162.691 230.162 167.586C228.363 166.701 226.712 165.542 225.267 164.151C223.292 162.52 224.151 161.403 226.04 160.802C228.442 159.695 231.261 160.027 233.34 161.661Z"
          fill="white"/>
    <path d="M256.784 155.65C253.263 155.65 252.147 156.852 251.459 160.803C251.197 160.681 250.963 160.505 250.772 160.287C249.484 158.742 246.736 157.453 249.227 154.877C251.582 153.199 254.817 153.53 256.784 155.65Z"
          fill="white"/>
    <path d="M244.847 157.453C244.847 157.453 244.246 158.055 243.903 158.14C239.781 160.03 239.781 159.944 240.553 164.41H240.038C238.578 162.692 235.916 161.318 237.376 158.398C238.836 155.478 241.842 156.079 244.847 157.453Z"
          fill="white"/>
    <path d="M281.946 153.245C280.437 153.223 278.97 152.744 277.738 151.871C275.871 150.596 273.501 150.308 271.383 151.098C272.21 149.596 273.71 148.585 275.413 148.38C277.115 148.176 278.812 148.804 279.971 150.068C280.877 150.951 281.555 152.042 281.946 153.245Z"
          fill="white"/>
    <path d="M268.979 153.246H267.776C263.998 152.387 263.826 152.473 261.507 157.024C260.391 155.564 258.502 154.19 260.734 152.301C263.294 150.365 266.923 150.781 268.979 153.246Z"
          fill="white"/>
    <path d="M295.686 173.341C296.675 170.711 296.675 167.812 295.686 165.183C297.887 166.749 299.371 169.13 299.808 171.795C300.238 173.856 298.95 174.286 295.686 173.341Z"
          fill="white"/>
    <path d="M285.553 173.598C286.24 170.765 284.179 169.047 282.805 166.986C284.961 166.712 286.971 168.127 287.442 170.249C288.043 171.795 287.7 173.427 285.553 173.598Z"
          fill="white"/>
    <path d="M235.229 147.663C235.229 148.951 234.284 149.724 232.996 149.467C231.342 149.202 230.177 147.699 230.334 146.032C232.141 145.642 234.017 146.267 235.229 147.663Z"
          fill="white"/>
    <path d="M210.84 155.65L211.784 156.337C211.355 156.337 210.754 156.423 210.84 155.65Z" fill="white"/>
    <path d="M246.135 188.971C247.595 189.572 247.166 191.032 247.595 191.976C247.74 192.31 247.681 192.697 247.443 192.972C247.205 193.247 246.83 193.361 246.479 193.265C245.534 193.265 244.332 192.492 244.418 191.118C244.504 189.744 245.276 189.572 246.135 188.971Z"
          fill="white"/>
    <path d="M272.54 70.064C272.502 86.3896 271.058 102.682 268.224 118.763C267.931 121.161 267.018 123.442 265.576 125.387C264.497 126.848 263.32 127.14 261.947 125.387C259.369 122.531 257.341 119.229 255.963 115.647C250.667 103.861 246.155 91.5891 240.368 80.0961C237.804 74.874 234.887 69.8302 231.638 64.9992C226.455 56.3613 227.361 45.4097 233.894 37.7275C237.327 33.9289 241.152 30.4226 244.88 26.9162C247.281 24.5947 250.259 22.9478 253.511 22.1437C258.906 21.7511 263.939 24.8599 265.968 29.8382C270.991 42.6366 273.231 56.3452 272.54 70.064Z"
          fill="white"/>
    <path d="M409.989 336.593C406.91 331.891 402.45 328.087 397.795 324.828C396.335 323.798 395.819 324.141 395.905 325.859C395.863 326.459 395.863 327.062 395.905 327.662C397.037 337.605 396.573 347.665 394.531 357.462C391.846 372.016 385.981 385.798 377.356 397.824C369.006 408.96 357.991 417.82 345.323 423.587C343.517 423.846 341.771 424.427 340.171 425.305C336.617 427.027 332.908 428.407 329.093 429.427C320.194 431.955 311.027 433.425 301.784 433.806C289.997 434.535 278.166 434.017 266.488 432.261C249.044 429.85 232.418 423.346 217.967 413.282C206.676 405.618 197.373 395.373 190.83 383.396C189.542 380.906 188.168 378.587 186.88 376.097C187.313 394.077 193.314 411.48 204.055 425.906C169.017 407.614 146.432 380.391 143.426 340.028V336.765C143.512 336.544 143.512 336.299 143.426 336.078C141.35 309.947 150.107 284.112 167.643 264.628C167.643 266.002 164.495 289.161 172.538 314.008C173.122 316.694 174.295 319.216 175.973 321.393C175.945 304.905 187.728 260.842 203.139 236.203C212.454 221.31 230.349 209.367 232.395 208.636C237.548 207.005 241.584 209.237 240.983 213.531C240.095 219.038 239.722 224.615 239.866 230.191C239.866 236.804 239.866 243.331 239.866 249.943H244.16C244.16 244.533 248.11 240.497 249.742 235.516C251.643 231.171 253.823 226.955 256.269 222.892C259.796 215.972 264.471 209.7 270.095 204.342C273.55 200.209 278.972 198.271 284.265 199.276C288.626 200.308 292.612 202.539 295.772 205.716C305.3 215.545 313.032 226.968 318.616 239.466C319.266 241 320.198 242.398 321.364 243.588C321.661 241.912 321.661 240.197 321.364 238.522C320.524 230.505 321.372 222.402 323.854 214.734C325.056 209.924 326.774 209.409 330.381 212.93C335.057 217.19 339.42 221.782 343.434 226.67C344.331 228.129 345.607 229.316 347.127 230.106C347.066 229.014 346.742 227.953 346.182 227.014C342.305 219.174 337.551 211.799 332.013 205.029C331.583 204.428 330.209 203.999 331.326 202.882C323.896 195.209 315.176 188.901 305.562 184.247C304.789 184.247 303.931 182.959 303.158 183.646C302.385 184.333 303.158 185.278 303.587 186.051C307.697 196.349 311.224 206.872 314.15 217.567C315.61 222.892 315.782 224.008 315.181 226.155L314.494 225.039C310.662 216.072 306.065 207.453 300.753 199.276C296.586 191.906 290.692 185.659 283.578 181.07C280.51 179.23 276.871 178.587 273.358 179.266C267.686 180.632 262.762 184.141 259.618 189.056C252.948 198.921 248.307 210.014 245.963 221.69C245.276 224.781 244.589 227.873 243.902 231.222C243.301 229.075 244.332 227.357 244.332 225.554C244.341 215.39 245.435 205.257 247.595 195.325C249.656 185.449 243.731 180.125 233.941 182.444C229.152 183.764 224.682 186.042 220.801 189.142C209.36 198.283 199.745 209.5 192.462 222.205C189.714 226.67 187.223 230.793 183.874 236.375C188.603 216.925 198.04 198.935 211.355 183.989C202.18 188.234 193.534 193.537 185.592 199.791C185.592 199.791 175.027 210.949 164.495 223.321C155.746 233.598 146.828 245.371 145.745 246.25C145.18 246.586 144.989 247.312 145.315 247.882C145.745 248.655 146.518 247.882 147.205 247.882L165.926 244.962C166.558 244.7 167.269 244.7 167.901 244.962C167.901 247.195 165.668 247.968 164.294 249.256C160.258 253.035 156.136 256.728 152.357 260.764C145.916 267.72 139.39 274.59 133.464 281.975C129.771 286.613 125.821 291.078 122.558 296.059C95.7927 337.824 88.4553 364.41 87.6058 378.759C84.1711 436.771 152.825 465.596 197.414 472.365C213.772 474.849 232.315 469.261 235.143 468.329C237.548 467.556 237.462 466.612 235.83 464.722C231.401 459.853 227.46 454.56 224.065 448.921C225.048 449.342 225.972 449.89 226.813 450.553C227.757 451.325 228.616 452.184 229.561 452.871C242.682 462.004 257.389 468.615 272.929 472.365C282.918 474.947 293.184 476.302 303.501 476.402C335.633 478.53 367.68 471.152 395.648 455.19C397.297 454.644 398.859 453.863 400.285 452.871L406.382 448.32L408.186 446.774C408.993 446.566 409.733 446.152 410.333 445.572C410.333 444.885 411.191 444.971 411.793 444.799C411.728 443.859 412.149 442.951 412.909 442.394C420.126 435.164 443.596 387.919 409.989 336.593Z"
          fill="#B5C1C9"/>
    <path d="M127.452 434.255C142.301 442.803 184.125 466.878 240.859 467.138C240.833 467.162 240.804 467.187 240.775 467.212C240.367 467.562 239.752 467.981 238.938 468.457C237.315 469.406 234.972 470.545 232.102 471.778C226.366 474.243 218.573 477.067 210.345 479.498C202.115 481.928 193.467 483.959 186.015 484.845C182.289 485.289 178.875 485.444 175.97 485.224C173.056 485.003 170.7 484.409 169.051 483.39C158.611 476.936 155.402 473.577 152.143 469.439C151.706 468.884 151.267 468.314 150.811 467.721C147.82 463.835 144.053 458.94 134.773 450.525C129.447 445.696 125.006 441.438 121.662 437.953C118.305 434.454 116.091 431.773 115.178 430.088C114.952 429.67 114.82 429.339 114.764 429.089C114.707 428.832 114.745 428.729 114.76 428.703L114.76 428.702C114.765 428.693 114.797 428.637 114.984 428.608C115.183 428.577 115.491 428.591 115.937 428.685C117.737 429.066 121.086 430.602 126.249 433.564C126.628 433.781 127.029 434.012 127.452 434.255Z"
          fill="black" stroke="black"/>
    <path d="M384.479 466.556C392.248 457.238 413.993 431.159 427.331 381.467C427.365 381.833 427.396 382.246 427.422 382.704C427.531 384.593 427.569 387.207 427.533 390.328C427.46 396.566 427.094 404.798 426.424 413.239C425.754 421.682 424.783 430.323 423.502 437.381C422.862 440.91 422.146 444.033 421.356 446.533C420.56 449.052 419.708 450.873 418.826 451.858C415.963 455.055 413.929 456.974 412.262 458.221C410.606 459.459 409.302 460.043 407.88 460.556C407.507 460.69 407.121 460.821 406.717 460.958C405.578 461.345 404.289 461.782 402.706 462.495C400.549 463.466 397.836 464.949 394.106 467.531C390.404 470.094 387.205 472.124 384.659 473.524C383.386 474.224 382.284 474.762 381.369 475.131C380.444 475.504 379.748 475.688 379.276 475.711C378.795 475.734 378.731 475.596 378.713 475.549C378.688 475.486 378.667 475.361 378.702 475.139C378.737 474.919 378.822 474.636 378.973 474.283C379.585 472.854 381.141 470.571 383.849 467.312C384.048 467.073 384.258 466.821 384.479 466.556Z"
          fill="black" stroke="black"/>
</svg>
