<svg width="512" height="512" viewBox="0 0 512 512" fill="none" xmlns="http://www.w3.org/2000/svg">
    <path d="M511.5 255.029C511.5 346.447 437.184 420.558 345.507 420.558C253.831 420.558 179.514 346.447 179.514 255.029C179.514 163.611 253.831 89.5 345.507 89.5C437.184 89.5 511.5 163.611 511.5 255.029Z"
          fill="black" stroke="black"/>
    <path d="M345.507 400.652C426.189 400.652 491.594 335.454 491.594 255.029C491.594 174.603 426.189 109.406 345.507 109.406C264.826 109.406 199.42 174.603 199.42 255.029C199.42 335.454 264.826 400.652 345.507 400.652Z"
          fill="#B5C1C9"/>
    <path fill-rule="evenodd" clip-rule="evenodd"
          d="M199.662 264.304C199.501 261.496 199.42 258.666 199.42 255.817C199.42 174.956 264.826 109.406 345.507 109.406C426.189 109.406 491.594 174.956 491.594 255.817C491.594 258.666 491.513 261.496 491.353 264.304C486.966 187.394 423.346 126.381 345.507 126.381C267.668 126.381 204.048 187.394 199.662 264.304Z"
          fill="white"/>
    <path d="M210.738 212.299C244.491 139.737 330.463 108.292 402.879 141.962C333.641 118.986 256.675 151.131 225.099 219.014C193.523 286.897 218.432 366.664 280.494 405.066C208.219 371.096 176.986 284.861 210.738 212.299Z"
          fill="black" stroke="black"/>
    <path d="M302.979 399.824L258.001 388.29C250.538 376.122 245.844 358.819 243.791 339.133C241.729 319.364 242.336 297.233 245.452 275.574C248.569 253.913 254.192 232.741 262.153 214.883C270.117 197.018 280.401 182.515 292.813 174.135C343.884 139.656 412.126 151.595 445.248 200.746C450.424 208.427 454.437 216.562 457.329 224.954C455.283 220.829 452.943 216.795 450.304 212.879C433.504 187.948 402.405 182.135 375.903 190.619C349.39 199.106 327.328 221.949 328.644 254.48C330.57 302.07 317.779 329.67 307.781 349.825C307.391 350.609 307.006 351.383 306.625 352.148C302.128 361.181 298.329 368.811 297.02 376.188C295.649 383.909 297.004 391.337 302.979 399.824Z"
          fill="black" stroke="black"/>
    <path fill-rule="evenodd" clip-rule="evenodd"
          d="M460.582 229.058C461.288 231.168 461.937 233.311 462.527 235.485C479.284 297.213 442.171 360.662 379.633 377.203C317.095 393.743 252.814 357.11 236.057 295.382C235.116 291.916 234.345 288.445 233.739 284.978C253.076 342.794 315.035 376.329 375.37 360.372C434.398 344.76 470.774 287.359 460.582 229.058Z"
          fill="white"/>
    <path d="M368.25 205.972V205.472H367.75H329.775V185.036H391.848V300.289C391.848 304.818 390.914 309.636 388.75 313.84L388.746 313.848L388.742 313.856C385.334 321.077 378.815 326.812 371.038 329.833L371.03 329.836L371.022 329.839L341.427 342.462L335.079 320.154L356.904 310.55C356.906 310.55 356.907 310.549 356.909 310.548C363.698 307.721 368.25 301.426 368.25 294.164V205.972Z"
          fill="black" stroke="black"/>
    <path d="M380.29 190.102H320.928V210.673H357.139V295.308C357.139 302.067 352.983 307.945 346.75 310.59L332.206 316.173L338.439 338.507L360.403 329.985C367.824 327.046 374.057 321.463 377.322 314.41C379.399 310.295 380.29 305.594 380.29 301.185V190.102Z"
          fill="#B5C1C9"/>
    <path d="M332.993 319.029L330.915 312.094L346.186 306.634C352.731 304.047 357.094 298.298 357.094 291.687V208.91H319.072V201.232H363.594V291.252C363.594 294.825 362.793 298.635 360.923 301.969C357.984 307.684 352.375 312.209 345.696 314.591L332.993 319.029Z"
          fill="white"/>
    <path d="M68.4752 396.017L68.4569 395.999L68.4368 395.984C49.2321 380.941 35.218 367.941 26.3726 356.981C17.2212 345.643 9.79401 330.734 4.10419 312.235C-10.7714 256.017 21.2741 187.238 84.3048 144.853C121.945 119.542 164.223 107.963 202.125 110.171C240.025 112.379 273.522 128.366 293.683 158.165C296.144 161.802 298.897 167.07 301.762 172.552L302.05 173.102C305.008 178.763 308.076 184.593 311.024 188.951C331.185 218.75 333.506 255.701 321.362 291.559C309.217 327.419 282.611 362.16 244.971 387.471C209.373 411.408 168.777 423.635 130.934 422.317C114.947 421.76 100.857 417.689 88.6141 410.991C80.2682 406.426 74.606 401.919 68.4752 396.017Z"
          fill="black" stroke="black"/>
    <path fill-rule="evenodd" clip-rule="evenodd"
          d="M79.7681 380.977C97.1574 390.998 151.825 393.231 198.515 370.185C241.833 348.804 277.58 303.632 287.797 273.187C299.824 237.346 288.877 189.189 283.551 176.188C290.206 181.449 293.091 191.878 297.951 199.035C332.04 249.24 304.522 326.894 236.487 372.479C202.964 394.941 165.859 405.426 132.762 404.277C103.509 403.262 95.9182 396.553 90.6623 391.512C84.4676 385.569 80.8362 382.058 79.7681 380.977Z"
          fill="#B5C1C9"/>
    <path fill-rule="evenodd" clip-rule="evenodd"
          d="M215.966 342.649C283.275 296.85 310.5 218.832 276.773 168.392C243.047 117.952 161.141 114.19 93.8316 159.989C26.5221 205.788 -0.702484 283.806 33.0239 334.246C66.7502 384.686 148.656 388.448 215.966 342.649Z"
          fill="#DAE2EB"/>
    <path fill-rule="evenodd" clip-rule="evenodd"
          d="M215.966 342.649C283.275 296.85 310.5 218.832 276.773 168.392C243.047 117.952 161.141 114.19 93.8316 159.989C26.5221 205.788 -0.702484 283.806 33.0239 334.246C66.7502 384.686 148.656 388.448 215.966 342.649Z"
          fill="#B5C1C9"/>
    <path fill-rule="evenodd" clip-rule="evenodd"
          d="M42.6667 346.036C81.5135 380.093 151.343 378.084 210.006 338.069C276.844 292.479 303.878 214.817 270.388 164.606C268.538 161.832 266.542 159.2 264.41 156.71C269.823 161.455 274.634 166.901 278.73 173.042C312.22 223.252 285.186 300.914 218.348 346.505C155.203 389.576 79.121 388.614 42.6667 346.036Z"
          fill="white"/>
    <path fill-rule="evenodd" clip-rule="evenodd"
          d="M249.507 167.506C214.462 139.668 154.321 144.598 105.529 182.062C49.9373 224.746 30.1277 293.498 61.2827 335.625C63.004 337.952 64.8449 340.15 66.7962 342.217C61.9129 338.338 57.5169 333.823 53.7067 328.671C22.5517 286.545 42.3612 217.792 97.9525 175.108C150.472 134.782 216.14 132.151 249.507 167.506Z"
          fill="white"/>
    <path d="M202.124 323.437C175.844 341.641 146.945 350.736 120.661 350.988C146.456 347.993 173.849 336.356 197.981 316.302C224.795 294.02 242.536 265.541 249.531 237.492C256.526 209.444 252.781 181.789 236.555 161.228C232.212 155.724 227.196 151.009 221.637 147.08C234.634 152.865 245.628 161.777 253.503 173.758C267.701 195.359 269.099 222.901 259.814 250.004C250.53 277.105 230.571 303.732 202.124 323.437Z"
          fill="black" stroke="black"/>
    <path d="M123.868 257.472L173.191 206.362L173.619 205.918L173.097 205.591L148.792 190.346L150.384 180.831L162.999 176.72L218.909 198.929L222.967 211.204L136.111 302.124C132.702 305.692 128.297 308.753 123.337 310.339L123.33 310.341L123.323 310.343C115.11 313.234 105.502 312.351 96.9234 308.243C96.9213 308.242 96.9193 308.241 96.9172 308.24L71.9203 295.43V282.952L82.4718 274.609L99.1594 282.596L99.1697 282.601L99.1801 282.606C99.6528 282.806 100.017 282.949 100.279 283.034C100.408 283.076 100.53 283.11 100.636 283.127C100.688 283.136 100.755 283.143 100.827 283.139C100.887 283.136 101.022 283.122 101.15 283.025C101.316 282.9 101.373 282.712 101.36 282.553C101.35 282.427 101.299 282.332 101.272 282.287C101.213 282.189 101.13 282.099 101.059 282.029C100.908 281.88 100.681 281.691 100.409 281.476C100.006 281.158 99.464 280.752 98.8379 280.283C98.6123 280.114 98.3757 279.937 98.1308 279.753C97.2011 279.054 96.1394 278.245 95.0604 277.371C92.893 275.617 90.691 273.631 89.349 271.78C88.6767 270.853 88.2513 270.001 88.127 269.26C88.0246 268.65 88.1243 268.115 88.48 267.643C94.0568 269.499 99.6386 270.428 105.224 270.428C111.103 270.428 117.317 265.999 123.868 257.472Z"
          fill="black" stroke="black"/>
    <path d="M219.826 198.347L159.306 163.203L144.533 177.607L180.627 200.554L116.459 266.023C111.334 271.252 103.183 272.347 95.6651 269.16L78.6962 261.038L67.7101 282.75L92.9911 295.706C101.671 299.864 111.42 300.772 119.779 297.829C124.833 296.214 129.307 293.101 132.762 289.484L219.826 198.347Z"
          fill="#B5C1C9"/>
    <path d="M74.2029 286.997L75.8258 283.794L98.5851 294.675C108.668 298.945 119.6 297.478 126.474 290.473L212.538 202.762L164.128 172.02L167.467 168.768L222.609 200.505L135.029 291.369C131.554 294.975 127.053 298.079 121.969 299.689C113.561 302.623 103.754 301.718 95.0226 297.572L74.2029 286.997Z"
          fill="white"/>
</svg>
