<svg width="320" height="260" viewBox="0 0 320 260" fill="none" xmlns="http://www.w3.org/2000/svg">
<g clip-path="url(#clip0_1038_9458)">
<rect width="320" height="180.005" transform="translate(0 -136)" fill="#C2E0FF" fill-opacity="0.2"/>
<g clip-path="url(#clip1_1038_9458)">
<rect y="-136" width="320" height="180.005" fill="#272D33"/>
<g clip-path="url(#clip2_1038_9458)">
<g filter="url(#filter0_b_1038_9458)">
<path d="M8 14C8 12.8954 8.89543 12 10 12H43C44.1046 12 45 12.8954 45 14V34C45 35.1046 44.1046 36 43 36H10C8.89543 36 8 35.1046 8 34V14Z" fill="#101214" fill-opacity="0.75"/>
<path d="M22.9503 19.2727V28H21.7401L17.304 21.5994H17.2231V28H15.9063V19.2727H17.1251L21.5654 25.6818H21.6464V19.2727H22.9503ZM24.9912 28V19.2727H30.4031V20.4062H26.3079V23.0653H30.0153V24.1946H26.3079V28H24.9912ZM31.712 20.4062V19.2727H38.4663V20.4062H35.7433V28H34.4308V20.4062H31.712Z" fill="#F4F6F8"/>
</g>
<g filter="url(#filter1_b_1038_9458)">
<path d="M51 14C51 12.8954 51.8954 12 53 12H73C74.1046 12 75 12.8954 75 14V34C75 35.1046 74.1046 36 73 36H53C51.8954 36 51 35.1046 51 34V14Z" fill="#101214" fill-opacity="0.75"/>
<path d="M56.3151 24.7615L57.9135 23.1631L63.8367 29.0862L62.2382 30.6847C62.0363 30.8866 61.7624 31 61.4768 31C61.1913 31 60.9174 30.8866 60.7154 30.6847L56.3151 26.2843C56.1132 26.0823 55.9998 25.8085 55.9998 25.5229C55.9998 25.2373 56.1132 24.9635 56.3151 24.7615Z" fill="#F4F6F8"/>
<path fill-rule="evenodd" clip-rule="evenodd" d="M65.2509 27.672L59.3277 21.7489L59.3312 21.7454L56.2928 18.7071L57.707 17.2929L60.7454 20.3312L64.0766 17H69.9998V22.9232L66.6685 26.2544L69.707 29.2929L68.2928 30.7071L65.2543 27.6686L65.2509 27.672ZM66.7689 21.3078C66.9819 21.3078 67.1901 21.2446 67.3672 21.1263C67.5444 21.0079 67.6824 20.8397 67.7639 20.6429C67.8454 20.4462 67.8667 20.2296 67.8252 20.0207C67.7836 19.8118 67.6811 19.6199 67.5304 19.4693C67.3798 19.3187 67.1879 19.2161 66.979 19.1746C66.7701 19.133 66.5536 19.1543 66.3568 19.2359C66.16 19.3174 65.9918 19.4554 65.8735 19.6325C65.7552 19.8096 65.692 20.0178 65.692 20.2308C65.692 20.5164 65.8055 20.7904 66.0074 20.9923C66.2094 21.1943 66.4833 21.3078 66.7689 21.3078Z" fill="#F4F6F8"/>
</g>
<g filter="url(#filter2_b_1038_9458)">
<rect x="275" y="12" width="37" height="24" rx="2" fill="#101214" fill-opacity="0.75"/>
<rect x="281" y="19" width="25" height="10" rx="5" fill="#C2E0FF" fill-opacity="0.2"/>
</g>
</g>
</g>
<rect y="68.0054" width="220" height="10" rx="5" fill="#C2E0FF" fill-opacity="0.2"/>
<rect y="90.0054" width="129" height="10" rx="5" fill="#C2E0FF" fill-opacity="0.2"/>
<rect y="122.005" width="158" height="8" rx="4" fill="#C2E0FF" fill-opacity="0.2"/>
<path d="M288 76.0054C288 67.1688 295.163 60.0054 304 60.0054C312.837 60.0054 320 67.1688 320 76.0054C320 84.8419 312.837 92.0054 304 92.0054C295.163 92.0054 288 84.8419 288 76.0054Z" fill="#BBD9F6" fill-opacity="0.13"/>
<path d="M303 69.0054H305V71.0054H303V69.0054Z" fill="#F4F6F8"/>
<path d="M303 75.0054H305V77.0054H303V75.0054Z" fill="#F4F6F8"/>
<path d="M303 81.0054H305V83.0054H303V81.0054Z" fill="#F4F6F8"/>
<g filter="url(#filter3_dd_1038_9458)">
<rect x="128" y="92" width="192" height="168" rx="2" fill="#272D33"/>
<circle cx="152" cy="116" r="6" fill="#C2E0FF" fill-opacity="0.2"/>
<rect x="172" y="112" width="50" height="8" rx="4" fill="#C2E0FF" fill-opacity="0.2"/>
<circle cx="152" cy="156" r="6" fill="#C2E0FF" fill-opacity="0.2"/>
<rect x="172" y="152" width="91" height="8" rx="4" fill="#C2E0FF" fill-opacity="0.2"/>
<circle cx="152" cy="196" r="6" fill="#C2E0FF" fill-opacity="0.2"/>
<rect x="172" y="192" width="67" height="8" rx="4" fill="#C2E0FF" fill-opacity="0.2"/>
<rect width="192" height="40" transform="translate(128 216)" fill="#BBD9F6" fill-opacity="0.13"/>
<path d="M152.047 229L157.767 234.544C157.916 234.688 158 234.884 158 235.088C158 235.292 157.916 235.487 157.767 235.632L156.72 236.67L151.06 231H147.682V229H152.047Z" fill="#F4F6F8"/>
<path fill-rule="evenodd" clip-rule="evenodd" d="M150.231 233L155.775 238.544C155.919 238.688 156 238.884 156 239.088C156 239.292 155.919 239.487 155.775 239.632L152.632 242.775C152.487 242.919 152.292 243 152.088 243C151.884 243 151.688 242.919 151.544 242.775L146 237.231V233H150.231ZM147.88 235.947C148.007 236.032 148.156 236.077 148.308 236.077C148.512 236.077 148.707 235.996 148.852 235.852C148.996 235.707 149.077 235.512 149.077 235.308C149.077 235.156 149.032 235.007 148.947 234.88C148.863 234.754 148.743 234.655 148.602 234.597C148.462 234.539 148.307 234.524 148.158 234.553C148.008 234.583 147.871 234.656 147.764 234.764C147.656 234.871 147.583 235.008 147.553 235.158C147.524 235.307 147.539 235.462 147.597 235.602C147.655 235.743 147.754 235.863 147.88 235.947Z" fill="#F4F6F8"/>
<path d="M178.539 233.617C178.492 233.183 178.297 232.845 177.952 232.603C177.611 232.361 177.166 232.24 176.62 232.24C176.235 232.24 175.905 232.298 175.63 232.414C175.355 232.53 175.145 232.687 174.999 232.886C174.853 233.085 174.778 233.312 174.775 233.567C174.775 233.78 174.823 233.964 174.919 234.119C175.019 234.275 175.153 234.408 175.322 234.517C175.491 234.623 175.678 234.713 175.884 234.786C176.089 234.858 176.296 234.92 176.505 234.969L177.46 235.208C177.844 235.298 178.214 235.419 178.568 235.571C178.926 235.723 179.246 235.916 179.528 236.148C179.813 236.38 180.038 236.66 180.204 236.988C180.37 237.316 180.453 237.701 180.453 238.141C180.453 238.738 180.3 239.263 179.995 239.717C179.69 240.168 179.25 240.521 178.673 240.776C178.099 241.028 177.405 241.154 176.59 241.154C175.798 241.154 175.11 241.031 174.527 240.786C173.947 240.541 173.492 240.183 173.164 239.712C172.84 239.242 172.664 238.668 172.637 237.992H174.452C174.478 238.347 174.588 238.642 174.78 238.877C174.972 239.112 175.223 239.288 175.531 239.404C175.842 239.52 176.19 239.578 176.575 239.578C176.976 239.578 177.327 239.518 177.629 239.399C177.934 239.277 178.172 239.107 178.345 238.892C178.517 238.673 178.605 238.418 178.608 238.126C178.605 237.861 178.527 237.643 178.375 237.47C178.222 237.295 178.008 237.149 177.733 237.033C177.461 236.913 177.143 236.807 176.779 236.714L175.62 236.416C174.782 236.201 174.119 235.874 173.632 235.437C173.148 234.996 172.906 234.411 172.906 233.682C172.906 233.082 173.068 232.557 173.393 232.106C173.721 231.655 174.167 231.305 174.73 231.057C175.294 230.805 175.932 230.679 176.644 230.679C177.367 230.679 178 230.805 178.544 231.057C179.09 231.305 179.52 231.652 179.831 232.096C180.143 232.537 180.304 233.044 180.313 233.617H178.539ZM185.901 233.364V234.756H181.511V233.364H185.901ZM182.595 231.534H184.394V238.703C184.394 238.945 184.431 239.131 184.504 239.26C184.58 239.386 184.679 239.472 184.802 239.518C184.925 239.565 185.061 239.588 185.21 239.588C185.322 239.588 185.425 239.58 185.518 239.563C185.614 239.547 185.687 239.532 185.737 239.518L186.04 240.925C185.944 240.959 185.806 240.995 185.627 241.035C185.452 241.075 185.236 241.098 184.981 241.104C184.53 241.118 184.124 241.05 183.763 240.901C183.402 240.748 183.115 240.513 182.903 240.195C182.694 239.876 182.591 239.479 182.595 239.001V231.534ZM189.673 241.154C189.189 241.154 188.754 241.068 188.366 240.896C187.981 240.72 187.676 240.461 187.451 240.12C187.229 239.779 187.118 239.358 187.118 238.857C187.118 238.426 187.197 238.07 187.357 237.788C187.516 237.507 187.733 237.281 188.008 237.112C188.283 236.943 188.593 236.816 188.937 236.729C189.286 236.64 189.645 236.575 190.016 236.536C190.464 236.489 190.827 236.448 191.105 236.411C191.384 236.371 191.586 236.312 191.712 236.232C191.841 236.149 191.906 236.022 191.906 235.849V235.82C191.906 235.445 191.795 235.155 191.572 234.95C191.35 234.744 191.031 234.641 190.613 234.641C190.172 234.641 189.822 234.737 189.564 234.93C189.309 235.122 189.136 235.349 189.047 235.611L187.366 235.372C187.499 234.908 187.718 234.52 188.023 234.209C188.328 233.894 188.701 233.659 189.141 233.503C189.582 233.344 190.069 233.264 190.603 233.264C190.971 233.264 191.337 233.307 191.702 233.393C192.066 233.48 192.399 233.622 192.701 233.821C193.003 234.017 193.245 234.283 193.427 234.621C193.612 234.96 193.705 235.382 193.705 235.889V241H191.975V239.951H191.915C191.806 240.163 191.652 240.362 191.453 240.548C191.258 240.73 191.011 240.877 190.712 240.99C190.417 241.099 190.071 241.154 189.673 241.154ZM190.141 239.832C190.502 239.832 190.815 239.76 191.08 239.618C191.345 239.472 191.549 239.28 191.692 239.041C191.838 238.803 191.911 238.542 191.911 238.261V237.361C191.854 237.407 191.758 237.45 191.622 237.49C191.49 237.53 191.34 237.565 191.175 237.594C191.009 237.624 190.845 237.651 190.683 237.674C190.52 237.697 190.379 237.717 190.26 237.734C189.991 237.77 189.751 237.83 189.539 237.913C189.327 237.996 189.16 238.112 189.037 238.261C188.914 238.406 188.853 238.595 188.853 238.827C188.853 239.159 188.974 239.409 189.216 239.578C189.458 239.747 189.766 239.832 190.141 239.832ZM195.585 241V233.364H197.33V234.636H197.409C197.549 234.196 197.787 233.856 198.125 233.617C198.467 233.375 198.856 233.254 199.294 233.254C199.393 233.254 199.504 233.259 199.627 233.269C199.753 233.276 199.857 233.287 199.94 233.304V234.96C199.864 234.933 199.743 234.91 199.577 234.89C199.415 234.867 199.257 234.855 199.105 234.855C198.777 234.855 198.482 234.926 198.22 235.069C197.961 235.208 197.757 235.402 197.608 235.651C197.459 235.899 197.385 236.186 197.385 236.511V241H195.585ZM205.429 233.364V234.756H201.039V233.364H205.429ZM202.123 231.534H203.923V238.703C203.923 238.945 203.959 239.131 204.032 239.26C204.108 239.386 204.208 239.472 204.33 239.518C204.453 239.565 204.589 239.588 204.738 239.588C204.851 239.588 204.953 239.58 205.046 239.563C205.142 239.547 205.215 239.532 205.265 239.518L205.568 240.925C205.472 240.959 205.335 240.995 205.156 241.035C204.98 241.075 204.765 241.098 204.509 241.104C204.059 241.118 203.653 241.05 203.291 240.901C202.93 240.748 202.643 240.513 202.431 240.195C202.222 239.876 202.12 239.479 202.123 239.001V231.534ZM216.582 235.382L214.942 235.561C214.895 235.395 214.814 235.24 214.698 235.094C214.585 234.948 214.433 234.83 214.241 234.741C214.049 234.651 213.813 234.607 213.535 234.607C213.16 234.607 212.845 234.688 212.59 234.85C212.338 235.013 212.214 235.223 212.217 235.482C212.214 235.704 212.295 235.884 212.461 236.023C212.63 236.163 212.908 236.277 213.296 236.366L214.599 236.645C215.321 236.801 215.858 237.048 216.21 237.386C216.564 237.724 216.743 238.166 216.746 238.713C216.743 239.194 216.602 239.618 216.324 239.986C216.049 240.35 215.666 240.635 215.175 240.841C214.685 241.046 214.121 241.149 213.485 241.149C212.55 241.149 211.798 240.954 211.228 240.562C210.658 240.168 210.318 239.62 210.209 238.917L211.964 238.748C212.043 239.093 212.212 239.353 212.471 239.528C212.729 239.704 213.066 239.792 213.48 239.792C213.908 239.792 214.251 239.704 214.509 239.528C214.771 239.353 214.902 239.136 214.902 238.877C214.902 238.658 214.817 238.478 214.648 238.335C214.483 238.193 214.224 238.083 213.873 238.007L212.57 237.734C211.838 237.581 211.296 237.324 210.945 236.963C210.593 236.598 210.419 236.138 210.423 235.581C210.419 235.11 210.547 234.703 210.805 234.358C211.067 234.01 211.43 233.741 211.894 233.553C212.361 233.36 212.9 233.264 213.51 233.264C214.405 233.264 215.109 233.455 215.623 233.836C216.14 234.217 216.46 234.732 216.582 235.382ZM220.498 241.154C220.014 241.154 219.578 241.068 219.19 240.896C218.806 240.72 218.501 240.461 218.276 240.12C218.054 239.779 217.943 239.358 217.943 238.857C217.943 238.426 218.022 238.07 218.181 237.788C218.34 237.507 218.557 237.281 218.832 237.112C219.108 236.943 219.417 236.816 219.762 236.729C220.11 236.64 220.47 236.575 220.841 236.536C221.288 236.489 221.651 236.448 221.93 236.411C222.208 236.371 222.41 236.312 222.536 236.232C222.666 236.149 222.73 236.022 222.73 235.849V235.82C222.73 235.445 222.619 235.155 222.397 234.95C222.175 234.744 221.855 234.641 221.438 234.641C220.997 234.641 220.647 234.737 220.389 234.93C220.133 235.122 219.961 235.349 219.871 235.611L218.191 235.372C218.324 234.908 218.542 234.52 218.847 234.209C219.152 233.894 219.525 233.659 219.966 233.503C220.407 233.344 220.894 233.264 221.428 233.264C221.795 233.264 222.162 233.307 222.526 233.393C222.891 233.48 223.224 233.622 223.526 233.821C223.827 234.017 224.069 234.283 224.251 234.621C224.437 234.96 224.53 235.382 224.53 235.889V241H222.8V239.951H222.74C222.631 240.163 222.477 240.362 222.278 240.548C222.082 240.73 221.835 240.877 221.537 240.99C221.242 241.099 220.896 241.154 220.498 241.154ZM220.965 239.832C221.327 239.832 221.64 239.76 221.905 239.618C222.17 239.472 222.374 239.28 222.516 239.041C222.662 238.803 222.735 238.542 222.735 238.261V237.361C222.679 237.407 222.583 237.45 222.447 237.49C222.314 237.53 222.165 237.565 221.999 237.594C221.834 237.624 221.67 237.651 221.507 237.674C221.345 237.697 221.204 237.717 221.085 237.734C220.816 237.77 220.576 237.83 220.364 237.913C220.152 237.996 219.984 238.112 219.862 238.261C219.739 238.406 219.678 238.595 219.678 238.827C219.678 239.159 219.799 239.409 220.041 239.578C220.282 239.747 220.591 239.832 220.965 239.832ZM228.209 230.818V241H226.41V230.818H228.209ZM233.511 241.149C232.745 241.149 232.084 240.99 231.527 240.672C230.973 240.35 230.548 239.896 230.249 239.31C229.951 238.72 229.802 238.025 229.802 237.227C229.802 236.441 229.951 235.752 230.249 235.158C230.551 234.562 230.972 234.098 231.512 233.766C232.052 233.432 232.687 233.264 233.416 233.264C233.887 233.264 234.331 233.34 234.749 233.493C235.169 233.642 235.541 233.874 235.862 234.189C236.187 234.504 236.442 234.905 236.628 235.392C236.813 235.876 236.906 236.453 236.906 237.122V237.674H230.647V236.461H235.181C235.178 236.116 235.103 235.81 234.957 235.541C234.811 235.269 234.608 235.056 234.346 234.9C234.087 234.744 233.786 234.666 233.441 234.666C233.073 234.666 232.75 234.756 232.472 234.935C232.193 235.11 231.976 235.342 231.82 235.631C231.668 235.916 231.59 236.229 231.587 236.57V237.629C231.587 238.073 231.668 238.455 231.83 238.773C231.993 239.088 232.22 239.33 232.511 239.499C232.803 239.664 233.144 239.747 233.535 239.747C233.797 239.747 234.034 239.711 234.246 239.638C234.459 239.562 234.642 239.451 234.798 239.305C234.954 239.159 235.072 238.978 235.151 238.763L236.832 238.952C236.726 239.396 236.523 239.784 236.225 240.115C235.93 240.443 235.552 240.698 235.092 240.881C234.631 241.06 234.104 241.149 233.511 241.149Z" fill="#F4F6F8"/>
</g>
</g>
<defs>
<filter id="filter0_b_1038_9458" x="-24" y="-20" width="101" height="88" filterUnits="userSpaceOnUse" color-interpolation-filters="sRGB">
<feFlood flood-opacity="0" result="BackgroundImageFix"/>
<feGaussianBlur in="BackgroundImage" stdDeviation="16"/>
<feComposite in2="SourceAlpha" operator="in" result="effect1_backgroundBlur_1038_9458"/>
<feBlend mode="normal" in="SourceGraphic" in2="effect1_backgroundBlur_1038_9458" result="shape"/>
</filter>
<filter id="filter1_b_1038_9458" x="19" y="-20" width="88" height="88" filterUnits="userSpaceOnUse" color-interpolation-filters="sRGB">
<feFlood flood-opacity="0" result="BackgroundImageFix"/>
<feGaussianBlur in="BackgroundImage" stdDeviation="16"/>
<feComposite in2="SourceAlpha" operator="in" result="effect1_backgroundBlur_1038_9458"/>
<feBlend mode="normal" in="SourceGraphic" in2="effect1_backgroundBlur_1038_9458" result="shape"/>
</filter>
<filter id="filter2_b_1038_9458" x="243" y="-20" width="101" height="88" filterUnits="userSpaceOnUse" color-interpolation-filters="sRGB">
<feFlood flood-opacity="0" result="BackgroundImageFix"/>
<feGaussianBlur in="BackgroundImage" stdDeviation="16"/>
<feComposite in2="SourceAlpha" operator="in" result="effect1_backgroundBlur_1038_9458"/>
<feBlend mode="normal" in="SourceGraphic" in2="effect1_backgroundBlur_1038_9458" result="shape"/>
</filter>
<filter id="filter3_dd_1038_9458" x="96" y="76" width="256" height="232" filterUnits="userSpaceOnUse" color-interpolation-filters="sRGB">
<feFlood flood-opacity="0" result="BackgroundImageFix"/>
<feColorMatrix in="SourceAlpha" type="matrix" values="0 0 0 0 0 0 0 0 0 0 0 0 0 0 0 0 0 0 127 0" result="hardAlpha"/>
<feOffset dy="16"/>
<feGaussianBlur stdDeviation="16"/>
<feColorMatrix type="matrix" values="0 0 0 0 0 0 0 0 0 0 0 0 0 0 0 0 0 0 0.16 0"/>
<feBlend mode="normal" in2="BackgroundImageFix" result="effect1_dropShadow_1038_9458"/>
<feColorMatrix in="SourceAlpha" type="matrix" values="0 0 0 0 0 0 0 0 0 0 0 0 0 0 0 0 0 0 127 0" result="hardAlpha"/>
<feOffset dy="4"/>
<feGaussianBlur stdDeviation="4"/>
<feColorMatrix type="matrix" values="0 0 0 0 0 0 0 0 0 0 0 0 0 0 0 0 0 0 0.1 0"/>
<feBlend mode="normal" in2="effect1_dropShadow_1038_9458" result="effect2_dropShadow_1038_9458"/>
<feBlend mode="normal" in="SourceGraphic" in2="effect2_dropShadow_1038_9458" result="shape"/>
</filter>
<clipPath id="clip0_1038_9458">
<rect width="320" height="260" fill="white"/>
</clipPath>
<clipPath id="clip1_1038_9458">
<rect width="320" height="180.005" fill="white" transform="translate(0 -136)"/>
</clipPath>
<clipPath id="clip2_1038_9458">
<rect width="320" height="180.005" fill="white" transform="translate(0 -136)"/>
</clipPath>
</defs>
</svg>
