<svg width="24" height="32" viewBox="0 0 24 32" fill="none" xmlns="http://www.w3.org/2000/svg">
    <g clip-path="url(#clip0)">
        <path d="M12.1595 0C5.4757 0.0268478 0.0639572 5.43859 0.0371094 12.1224C0.0371094 13.461 0.25317 14.7906 0.676342 16.0601C0.992123 16.9243 1.92924 17.3897 2.80882 17.1225C3.659 16.7965 4.1103 15.867 3.83927 14.9977C3.48002 14.0081 3.32021 12.9585 3.36751 11.9076C3.51326 7.08014 7.54426 3.28438 12.3717 3.43012C17.1992 3.57587 20.995 7.60687 20.8493 12.4344C20.7125 16.9537 17.1532 20.6242 12.6389 20.8991C12.6389 20.8991 10.9373 21.0026 10.091 21.1062C9.77902 21.1509 9.46963 21.2123 9.16408 21.2903C9.12061 21.335 9.05029 21.335 9.00555 21.2916L9.00427 21.2903C8.97359 21.2507 8.97359 21.1944 9.00427 21.1548L9.26763 19.7178L10.8657 12.5302C11.0575 11.6328 10.486 10.7493 9.58853 10.5576C8.69104 10.3658 7.80762 10.9373 7.61585 11.8348C7.61585 11.8348 3.81498 29.4277 3.81498 29.5875C3.59764 30.4428 4.11414 31.3122 4.96943 31.5295C4.97838 31.5321 4.98861 31.5346 4.99756 31.5359H5.08577C5.93979 31.7571 6.8117 31.2431 7.0316 30.3891C7.03543 30.3751 7.03927 30.361 7.04182 30.3457C7.03927 30.3188 7.03927 30.292 7.04182 30.2664C7.08913 30.0593 7.56855 27.7184 7.56855 27.7184C7.93164 25.9516 9.35585 24.5977 11.138 24.3241C11.5049 24.2678 13.0468 24.1643 13.0468 24.1643C19.705 23.5008 24.5645 17.5648 23.8997 10.9066C23.2937 4.83388 18.2629 0.15853 12.1595 0Z" fill="#52616B"/>
        <path d="M12.8955 27.9513C11.8025 27.7237 10.7336 28.4256 10.5061 29.5174C10.5035 29.5277 10.5022 29.5379 10.4997 29.5481C10.2632 30.6336 10.951 31.7062 12.0377 31.9427C12.039 31.9427 12.0402 31.9427 12.0415 31.944H12.0978C13.1615 32.201 14.2316 31.5464 14.4873 30.484C14.4898 30.4763 14.4911 30.4674 14.4936 30.4597V30.3485C14.6816 29.2515 13.981 28.1993 12.8955 27.9513Z" fill="#52616B"/>
    </g>
    <defs>
        <clipPath id="clip0">
            <rect width="23.9239" height="32" fill="white" transform="translate(0.0371094)"/>
        </clipPath>
    </defs>
</svg>
