<svg width="140" height="140" viewBox="0 0 140 140" fill="none" xmlns="http://www.w3.org/2000/svg">
    <path d="M70 140C108.66 140 140 108.66 140 70C140 31.3401 108.66 0 70 0C31.3401 0 0 31.3401 0 70C0 108.66 31.3401 140 70 140Z"
          fill="#FF8C00"/>
    <path d="M70 19.7C49.2 19.7 32.2 36.6 32.2 57.5C32.2 61.7 32.9 65.8 34.2 69.8C35.1 72.5 38.1 74 40.9 73.0999C43.6 72.1999 45.1 69.2 44.2 66.4C43.1 63.3 42.6 59.9999 42.7 56.6999C43.1 42.5999 54.4999 30.9999 68.5999 30.2999C84.2999 29.4999 97.3 42 97.3 57.5C97.3 72 85.8999 83.8999 71.5999 84.7C71.5999 84.7 66.2999 84.9999 63.6999 85.3999C62.3999 85.5999 61.3999 85.7999 60.6999 85.8999C60.3999 85.9999 60.0999 85.7 60.1999 85.3999L61.0999 81L66 58.4C66.5999 55.6 64.7999 52.7999 62 52.1999C59.2 51.5999 56.4 53.3999 55.8 56.1999C55.8 56.1999 44 111.2 43.9 111.8C43.3 114.6 45.1 117.4 47.9 118C50.7 118.6 53.4999 116.8 54.0999 114C54.1999 113.4 55.8 106.1 55.8 106.1C57 100.5 61.6 96.3999 67 95.7C68.2 95.5 72.9 95.2 72.9 95.2C82.3936 94.4601 91.2593 90.1681 97.7282 83.1802C104.197 76.1923 107.794 67.0224 107.8 57.5C107.8 36.6 90.7999 19.7 70 19.7ZM72.6999 106.7C71.8854 106.524 71.0442 106.512 70.2249 106.664C69.4057 106.816 68.6247 107.129 67.9272 107.584C67.2296 108.04 66.6294 108.63 66.1613 109.319C65.6932 110.008 65.3664 110.784 65.1999 111.6C65.0244 112.414 65.0123 113.256 65.1641 114.075C65.3159 114.894 65.6287 115.675 66.0845 116.373C66.5402 117.07 67.1297 117.67 67.819 118.139C68.5083 118.607 69.2835 118.933 70.0999 119.1C73.5 119.8 76.8999 117.7 77.5999 114.2C78.2999 110.7 76.1999 107.4 72.6999 106.7Z"
          fill="white"/>
</svg>
