<svg width="320" height="170" viewBox="0 0 320 170" fill="none" xmlns="http://www.w3.org/2000/svg">
    <path d="M310.967 139.132L0 139.132L0 145.566L310.967 145.566V139.132Z" fill="#B5C1C9" stroke="black"
          stroke-width="3.564"/>
    <path fill-rule="evenodd" clip-rule="evenodd"
          d="M29.983 124.835L287.837 124.835L310.967 138.775L0 138.775L29.983 124.835Z" fill="white" stroke="black"
          stroke-width="3.168" stroke-linejoin="round"/>
    <path d="M45.894 129.355L45.894 44.9873H68.5658H69.0658V44.4873V35.3262H90.1775H90.6775V34.8262V25.6651L111.789 25.6651H112.289V25.1651L112.289 15.2282L163.091 13.4756V23.3779V23.8779H163.591H174.48H174.98V23.3779V13.458L204.039 13.458V33.039V33.539H204.539L225.651 33.539V42.7002V43.2002H226.151H242.759H243.259V42.7002V33.539H271.149V124.835V125.214L271.515 125.316C288.064 129.933 298.28 133.023 302.203 134.592C303.177 134.982 303.959 135.356 304.557 135.714C305.16 136.076 305.546 136.403 305.758 136.686C305.961 136.957 305.98 137.149 305.94 137.299C305.897 137.456 305.762 137.665 305.448 137.912L45.894 129.355Z"
          fill="black" stroke="black"/>
    <path d="M212.518 30.0622L212.322 30.1406L212.242 30.3367C211.685 31.7015 210.271 32.5417 208.78 32.3411C204.716 31.7945 201.591 31.3516 199.401 31.0118C199.132 30.9701 198.659 30.9178 198.096 30.8555C198.056 30.8511 198.016 30.8466 197.975 30.8421C197.351 30.7731 196.617 30.6909 195.885 30.5944C195.151 30.4978 194.428 30.3879 193.827 30.2643C193.201 30.1357 192.782 30.0059 192.601 29.8972C192.484 29.8271 192.358 29.7526 192.225 29.674C191.669 29.3458 190.992 28.946 190.372 28.4929C189.991 28.2138 189.646 27.9251 189.378 27.635C189.106 27.3414 188.936 27.0724 188.865 26.8353C188.775 26.5384 188.766 26.0707 188.8 25.5499C188.821 25.2136 188.856 24.9133 188.886 24.6511C188.888 24.6338 188.89 24.6166 188.892 24.5996C190.889 24.1121 192.226 23.8239 192.925 23.7269L192.855 23.2312L192.925 23.7269C193.179 23.6915 193.404 23.5672 193.547 23.345C193.676 23.1471 193.704 22.9256 193.706 22.7552C193.71 22.4803 193.643 22.1505 193.591 21.8932C193.581 21.8451 193.572 21.7996 193.564 21.7575C193.535 21.6054 193.514 21.4804 193.507 21.3775C193.506 21.3666 193.506 21.3564 193.505 21.3469C193.527 21.3507 193.553 21.356 193.582 21.3633C193.973 21.4598 194.513 21.8096 195.207 22.533C195.889 23.2435 196.671 24.2617 197.553 25.5999L197.701 25.8237L197.968 25.8255L210.054 25.9067L210.269 25.9082L210.418 25.7525L215.752 20.1542C218.17 18.7266 220.078 17.7278 221.481 17.1475C222.19 16.8543 222.752 16.676 223.175 16.5987C223.622 16.5171 223.817 16.5665 223.877 16.6009C224.301 16.8444 224.687 17.4823 224.539 18.664C224.392 19.8416 223.71 21.4771 222.107 23.4928C219.995 26.1493 216.812 28.346 212.518 30.0622Z"
          fill="black" stroke="black"/>
    <path d="M208.926 27.5976C209.3 28.6017 209.324 29.3285 208.996 29.7778C208.506 30.4519 206.613 31.4164 205.678 31.1747C202.885 30.4525 207.573 29.8103 204.71 28.3865C203.52 27.711 204.909 27.4607 208.878 27.6356L208.926 27.5976Z"
          fill="white"/>
    <path d="M219.644 18.3402L219.644 18.3402C218.368 18.5708 217.429 19.2244 216.603 20.0734C216.187 20.5009 215.805 20.9737 215.422 21.4663C215.323 21.5946 215.222 21.725 215.122 21.8563C214.841 22.2218 214.555 22.594 214.262 22.9453L219.644 18.3402ZM219.644 18.3402C220.309 18.2198 220.684 17.9287 220.996 17.6751C221.006 17.6668 221.016 17.6585 221.026 17.6503C221.304 17.4236 221.518 17.2489 221.916 17.1402L221.988 17.1207M219.644 18.3402L221.988 17.1207M221.988 17.1207L222.051 17.0812M221.988 17.1207L222.051 17.0812M222.051 17.0812L222.567 16.7569L222.621 16.7227M222.051 17.0812L222.621 16.7227M222.621 16.7227L222.666 16.6757M222.621 16.7227L222.666 16.6757M222.666 16.6757C222.811 16.5202 223.004 16.4923 223.456 16.4598C223.463 16.4592 223.471 16.4587 223.478 16.4582C223.865 16.4306 224.474 16.387 224.909 15.8541L224.948 15.8057M222.666 16.6757L224.948 15.8057M224.948 15.8057L224.975 15.7491M224.948 15.8057L224.975 15.7491M224.975 15.7491C225.036 15.6177 225.128 15.4782 225.248 15.3073C225.261 15.288 225.275 15.2682 225.29 15.2479C225.392 15.1022 225.512 14.9308 225.607 14.7588C225.715 14.5613 225.821 14.3088 225.82 14.0215C225.82 13.7137 225.697 13.4308 225.467 13.1851L225.466 13.1836M224.975 15.7491L225.466 13.1836M225.466 13.1836C225.418 13.1332 225.371 13.0843 225.325 13.0364C225.082 12.7825 224.866 12.5568 224.71 12.2974C224.542 12.0171 224.469 11.7334 224.563 11.3822L224.584 11.3061M225.466 13.1836L224.584 11.3061M224.584 11.3061L224.58 11.2275M224.584 11.3061L224.58 11.2275M224.58 11.2275C224.551 10.6419 224.357 10.0856 224.191 9.60987C224.164 9.53071 224.137 9.45378 224.112 9.37932C223.925 8.82527 223.806 8.35837 223.888 7.86847L223.923 7.65676M224.58 11.2275L223.923 7.65676M223.923 7.65676L223.794 7.48553M223.923 7.65676L223.794 7.48553M223.794 7.48553C223.103 6.56936 223.181 5.29051 223.982 4.45993L224.023 4.41743M223.794 7.48553L224.023 4.41743M224.023 4.41743L224.053 4.36657M224.023 4.41743L224.053 4.36657M224.053 4.36657C224.333 3.89049 224.857 3.41616 225.556 3.00051C226.249 2.58865 227.079 2.25505 227.927 2.04299C228.776 1.83055 229.621 1.74536 230.343 1.81308C231.074 1.88152 231.622 2.09972 231.952 2.43471L231.952 2.43482M224.053 4.36657L231.952 2.43482M231.952 2.43482L231.961 2.44363M231.952 2.43482L231.961 2.44363M231.961 2.44363C232.725 3.17957 233.427 4.29188 233.895 5.50136C234.363 6.71409 234.573 7.96771 234.415 8.98336L234.414 8.98335M231.961 2.44363L234.414 8.98335M234.414 8.98335L234.413 8.9901M234.414 8.98335L234.413 8.9901M234.413 8.9901C234.392 9.14426 234.33 9.29585 234.231 9.46809C234.163 9.5855 234.097 9.68378 234.023 9.79504C233.975 9.86648 233.923 9.94328 233.865 10.0339C233.615 10.4259 233.346 10.943 233.502 11.6156C233.482 11.6923 233.464 11.768 233.449 11.8343C233.442 11.8632 233.436 11.8903 233.43 11.915C233.397 12.05 233.37 12.1425 233.336 12.213C233.306 12.2768 233.279 12.3041 233.255 12.3202C233.231 12.3365 233.173 12.3671 233.038 12.3745L232.827 12.3862M234.413 8.9901L232.827 12.3862M232.827 12.3862L232.688 12.5461M232.827 12.3862L232.688 12.5461M232.688 12.5461L232.62 12.625L232.536 12.7217M232.688 12.5461L232.536 12.7217M232.536 12.7217L232.509 12.8468M232.536 12.7217L232.509 12.8468M232.509 12.8468C232.392 13.3831 232.411 13.8998 232.457 14.3735C232.476 14.5697 232.498 14.748 232.519 14.9188C232.552 15.1885 232.583 15.4395 232.597 15.7123L232.61 15.9761M232.509 12.8468L232.61 15.9761M232.61 15.9761L232.835 16.1138M232.61 15.9761L232.835 16.1138M232.835 16.1138C234.191 16.9432 235.593 17.4725 236.993 18.0009C237.535 18.2054 238.076 18.4097 238.615 18.6313C240.698 19.4946 242.527 20.3604 242.913 22.415C243.214 24.0215 243.383 25.9437 243.519 27.8994C243.558 28.4543 243.594 29.0127 243.629 29.5664C243.718 30.937 243.804 32.2795 243.924 33.473L243.255 46.8433M232.835 16.1138L243.255 46.8433M243.255 46.8433C243.239 46.8488 243.221 46.8544 243.202 46.8602C242.978 46.9267 242.62 46.9883 242.138 47.0384C241.182 47.1379 239.835 47.1833 238.321 47.176C235.293 47.1616 231.668 46.937 229.297 46.5396C224.943 45.8097 221.137 43.8684 218.415 41.9684C217.054 41.019 215.973 40.0861 215.235 39.3308C214.866 38.9523 214.59 38.6259 214.409 38.3704C214.319 38.2423 214.258 38.1405 214.222 38.0654C214.2 38.0197 214.192 37.9946 214.19 37.9869C214.176 37.5025 214.137 37.0061 214.1 36.5325C214.076 36.2282 214.053 35.9333 214.037 35.657C213.996 34.9137 214.003 34.2054 214.154 33.4815C214.575 31.4929 214.634 29.4465 214.328 27.4389L243.255 46.8433ZM214.328 27.4387C214.266 27.0279 214.163 26.6111 214.066 26.2182C214.06 26.1957 214.054 26.1733 214.049 26.1509C213.945 25.7289 213.849 25.3325 213.797 24.9464C213.696 24.1876 213.771 23.5353 214.262 22.9454L214.328 27.4387Z"
          fill="black" stroke="black"/>
    <path d="M217.269 21.2969C216.306 22.8445 216.004 25.8327 215.018 26.4468C214.033 27.0609 213.454 28.0237 211.801 28.7022C211.255 27.9308 211.576 26.6436 212.764 24.8405C213.952 23.0374 215.453 21.8562 217.269 21.2969Z"
          fill="white"/>
    <path d="M220.745 21.0698C220.68 20.445 220.77 19.6055 221.372 19.5017C222.059 24.7963 223.479 32.9218 225.056 38.0105L223.774 38.0744C221.831 32.5314 220.897 22.44 220.745 21.0698ZM223.015 22.2549C222.849 21.0748 222.764 19.8842 222.761 18.6922C223.833 18.0633 225.469 17.1046 226.279 17.6642C226.537 20.6127 229.122 35.4206 229.278 37.3757L226.351 38.9789C225.269 34.7528 223.81 26.5615 223.015 22.2549Z"
          fill="#DAE2EB"/>
    <path d="M236.913 34.5847C233.2 31.7284 230.653 29.329 229.27 27.3868C227.888 25.4446 226.926 22.7629 226.385 19.3417C226.797 25.0551 227.327 28.7014 227.975 30.2807C228.622 31.86 229.852 33.9739 231.663 36.6225L236.913 34.5847Z"
          fill="#DAE2EB"/>
    <path d="M223.8 37.9597C222.647 33.9705 221.746 29.905 221.103 25.7896C220.887 24.3728 220.702 22.9497 220.546 21.5202C220.48 21.0147 220.525 20.3683 220.823 20.0608C220.966 21.3603 221.134 22.6587 221.329 23.9483C222.055 28.7151 223.181 33.3652 224.595 37.9203L223.8 37.9597ZM219.137 37.7059C219.116 37.4943 219.077 28.2618 219.623 23.8424C219.621 23.7915 221.433 36.8717 221.519 37.6878L219.137 37.7059Z"
          fill="white"/>
    <path d="M225.181 18.0583L226.378 38.0146L222.618 18.7617L225.181 18.0583Z" fill="white"/>
    <path d="M233.419 8.60612C233.465 8.30165 233.502 8.05516 233.506 7.99019C233.536 7.29507 233.488 6.59948 233.362 5.91515C233.156 4.84668 232.67 3.74938 231.573 3.32C231.43 3.26452 231.268 3.27282 231.132 3.34261C230.014 1.96117 226.871 2.738 225.653 3.96205C225.239 4.32272 225.017 4.83833 225.047 5.36698C224.977 5.43634 224.931 5.52401 224.915 5.61833C224.904 5.67913 224.901 5.74086 224.905 5.80227C224.907 5.83815 224.886 5.87878 224.908 5.85967C224.891 5.89761 224.87 5.93368 224.844 5.96722C224.689 6.16566 224.719 6.44198 224.914 6.60385C225.056 6.71336 225.255 6.72887 225.416 6.64291C225.888 6.39573 226.855 6.87498 227.304 7.01382C228.228 7.28936 229.579 6.80442 230.551 6.78916C230.734 6.77654 230.918 6.79767 231.092 6.85138C231.563 7.04305 231.624 7.65855 231.74 8.15255C231.934 8.95946 232.456 9.65995 233.195 10.103C233.195 10.103 233.32 9.2298 233.419 8.60612Z"
          fill="white"/>
    <path fill-rule="evenodd" clip-rule="evenodd"
          d="M226.686 11.1626C227.221 11.2612 227.762 10.912 227.924 10.3449C228.087 9.77781 227.812 9.19567 227.306 8.99707L226.686 11.1626Z"
          fill="white"/>
    <path d="M53.2573 128.766H266.645V39.4726H247.762V49.1337H221.147V39.4726L199.535 39.4726V19.3916H179.483V29.8115H158.587V19.3916L120.367 19.3916V29.8115L98.7556 29.8115V39.4726H77.1439V49.1337H53.2573L53.2573 128.766Z"
          fill="#B5C1C9"/>
    <path d="M246.271 127.864L265.93 84.0869L265.4 128.051L246.271 127.864Z" fill="white"/>
    <path d="M216.033 131.475L204.981 131.2L245.265 66.3754L216.033 131.475Z" fill="black" stroke="black"/>
    <path d="M227.499 53.4985L235.024 53.6875L207.597 98.1827L227.499 53.4985Z" fill="black" stroke="black"/>
    <path d="M225.664 128.767V128.763L210.171 128.374L258.958 39.4119L258.959 39.4082V39.4119L263.786 39.8042L225.665 128.763L225.664 128.767ZM228.476 49.0589L243.055 49.1827L224.81 79.0791L235.221 55.7468L209.099 92.3083L228.476 49.0589Z"
          fill="white"/>
    <path fill-rule="evenodd" clip-rule="evenodd"
          d="M51.9912 101.959H50.0231L49.8466 53.7055L51.4784 49.7737L51.9912 101.959Z" fill="white"/>
    <path fill-rule="evenodd" clip-rule="evenodd"
          d="M76.6543 49.416H74.0302L73.7948 43.8483L75.9705 39.7653L76.6543 49.416Z" fill="white"/>
    <path fill-rule="evenodd" clip-rule="evenodd"
          d="M98.4575 39.7656H95.8334L95.5981 34.1979L97.7737 30.1149L98.4575 39.7656Z" fill="white"/>
    <path fill-rule="evenodd" clip-rule="evenodd"
          d="M119.904 30.1152H117.28L117.044 23.8327L119.22 19.7497L119.904 30.1152Z" fill="white"/>
    <path fill-rule="evenodd" clip-rule="evenodd"
          d="M216.037 39.2077L214.318 39.169C217.131 39.231 219.227 39.2962 222.037 39.3648V48.2042L221.966 49.7734C222.069 50.6639 168.162 49.8437 167.884 50.1309H159.044C159.008 49.8342 158.971 49.5379 158.933 49.2415C161.204 49.1946 163.475 49.1467 165.745 49.1023C168.712 49.0489 171.678 49.0083 174.644 48.9508C175.862 48.9284 176.343 48.4967 176.348 47.4388C176.356 45.5801 176.351 43.7218 176.33 41.8638C176.318 40.806 175.834 40.3937 174.604 40.4086C168.951 40.4875 161.5 40.7102 155.841 40.8376C150.183 40.965 149.23 39.5905 149.216 39.5051C151.121 39.4629 161.248 39.4225 163.152 39.3796C164.566 39.3492 165.031 38.9303 165.028 37.6914C165.024 35.8971 165.013 34.1029 164.988 32.3094C164.973 31.1961 164.48 30.7671 163.205 30.7901C161.001 30.8324 159.424 30.1166 159.415 29.71C159.493 29.7119 159.574 29.7119 159.658 29.7101C165.569 29.5888 168.617 29.4801 174.522 29.3846C175.818 29.3663 178.546 29.1212 179.922 29.1181C182.843 29.1153 185.764 29.1041 188.683 29.1032C191.677 29.1084 194.671 29.1279 197.663 29.1312C198.194 25.2758 198.193 22.7442 197.661 21.5362C197.239 20.5798 195.81 19.865 193.372 19.3916H199.448V37.9781L197.904 30.6935C195.644 30.6882 193.384 30.6854 191.124 30.6962C189.886 30.7034 189.381 31.1397 189.369 32.2076C189.351 34.0709 189.353 35.9348 189.359 37.7984C189.361 38.6036 198.254 39.0734 216.037 39.2077ZM180.391 40.4802C179.197 40.4818 178.729 40.9339 178.723 42.0742C178.713 43.9577 178.715 45.127 178.728 47.0112C178.736 48.2121 179.19 48.633 180.472 48.6355C183.197 48.6432 185.922 48.6428 188.646 48.6514C191.441 48.6648 194.234 48.69 197.027 48.7011C198.216 48.7071 198.686 48.261 198.7 47.1261C198.723 45.2147 198.738 44.0184 198.732 42.107L197.103 40.5707C191.536 40.5149 185.965 40.4845 180.391 40.4802ZM203.026 40.1227C201.694 40.121 201.278 40.5029 201.266 41.7001C201.249 43.3705 201.239 45.0407 201.235 46.7112C201.232 47.8733 201.667 48.2519 203.017 48.2558C205.708 48.2664 208.399 48.2708 211.09 48.2827C213.886 48.2997 215.966 48.3269 218.761 48.3437L220.468 46.9242C220.504 45.2015 220.524 43.4781 220.536 41.7551C220.544 40.6594 220.097 40.2652 218.816 40.2476C213.317 40.1838 208.531 40.1413 203.026 40.1227ZM186.261 31.1869L186.171 31.1871C180.233 31.2536 174.291 31.3445 168.346 31.4626C167.062 31.4908 166.564 31.9256 166.564 32.9961C166.563 34.7001 166.582 36.4041 166.598 38.1083L168.709 39.0504C171.596 38.9986 174.401 39.0987 177.287 39.0504C180.248 39.0055 183.263 39.0956 186.223 39.0504C187.585 39.0313 187.993 39.0601 188 37.9224C188.012 36.1886 188.013 34.4548 188.005 32.7216C188 31.6379 187.558 31.2138 186.349 31.1881L186.261 31.1869Z"
          fill="white"/>
    <path d="M223.681 38.7804C223.01 38.7642 222.339 38.7481 221.668 38.7322C222.043 38.7957 222.373 38.9207 222.633 39.1489C223.068 39.5304 223.185 40.0868 223.181 40.6862V40.6865C223.168 42.4108 223.148 44.1365 223.112 45.8621L223.108 46.0903L222.932 46.2363L221.225 47.6558L221.085 47.7724L220.902 47.7713C219.501 47.7629 218.079 47.7517 216.658 47.7405C215.271 47.7296 213.884 47.7187 212.516 47.7104L223.681 38.7804ZM223.681 38.7804L223.681 47.1318L223.681 47.6319L223.94 47.6319C224.047 47.9761 224.244 48.2685 224.582 48.4728C224.604 48.4864 224.627 48.4995 224.651 48.5121C208.079 48.4473 195.229 48.415 186.1 48.415C180.55 48.415 176.375 48.4269 173.575 48.4509C172.175 48.4628 171.117 48.4778 170.402 48.4959C170.045 48.5049 169.769 48.5148 169.577 48.5257C169.482 48.5311 169.401 48.5371 169.338 48.5444C169.31 48.5476 169.277 48.552 169.244 48.5585H165.742C166.222 48.5489 166.703 48.5393 167.183 48.5299C168.462 48.5069 169.742 48.4862 171.023 48.4655C172.71 48.4383 174.397 48.411 176.082 48.3784L223.681 38.7804ZM149.67 39.2593C153.892 39.1669 162.806 39.0286 169.545 38.9294L167.71 37.4223L167.53 37.2742L167.528 37.0409C167.527 36.9242 167.525 36.8075 167.524 36.6908C167.508 35.1037 167.493 33.5138 167.493 31.9236L149.67 39.2593ZM149.67 39.2593L149.593 39.1428C149.946 39.1303 150.395 39.1168 150.915 39.1025C152.253 39.0657 154.06 39.0242 155.928 38.984C158.208 38.935 160.581 38.8878 162.299 38.8537C163.394 38.832 164.222 38.8155 164.593 38.8072C165.317 38.7915 165.949 38.6802 166.385 38.288C166.84 37.8783 166.959 37.2788 166.957 36.6179C166.953 34.8225 166.943 33.0262 166.918 31.2301C166.909 30.6142 166.768 30.052 166.323 29.6714C165.896 29.3053 165.297 29.2057 164.625 29.2178L164.625 29.2179C163.44 29.2406 162.656 29.2651 161.842 29.2906C161.271 29.3085 160.684 29.3268 159.933 29.3454C159.931 29.2744 159.929 29.2034 159.927 29.1323C161.553 29.0988 163.073 29.0663 164.546 29.0347C168.313 28.9541 171.777 28.8799 175.958 28.8122C176.636 28.8026 177.234 28.6904 177.655 28.3209C178.097 27.9344 178.23 27.3727 178.233 26.7566L178.233 26.7565C178.241 24.9603 178.231 23.1646 178.218 21.3718C178.217 21.2319 178.211 21.0956 178.198 20.9639H178.975C178.967 22.768 178.972 24.5718 178.983 26.3748V26.3748C178.988 27.0402 179.116 27.6409 179.57 28.048C180.01 28.442 180.639 28.5473 181.352 28.5458C181.352 28.5458 181.352 28.5458 181.352 28.5458L181.351 28.0458M149.67 39.2593L194.33 28.5445C195.919 28.5508 197.508 28.5571 199.092 28.5588L199.283 28.5591L199.426 28.4318L200.065 27.8604V27.1901L199.093 28.0588C197.507 28.0571 195.92 28.0508 194.334 28.0445C192.927 28.0389 191.52 28.0333 190.112 28.0309M181.351 28.0458C182.665 28.0445 183.979 28.0416 185.293 28.0386C186.9 28.035 188.506 28.0314 190.112 28.0309M181.351 28.0458C179.975 28.0489 179.491 27.6141 179.483 26.3716L181.351 28.0458ZM190.112 28.0309L190.111 28.5309C190.111 28.5309 190.112 28.5309 190.112 28.5309C190.112 28.5309 190.112 28.5309 190.112 28.5309L190.112 28.0309ZM202.953 38.8625C199.512 38.854 196.069 38.8499 192.626 38.85L202.953 38.8625ZM202.953 38.8625C202.88 38.9079 202.811 38.9594 202.746 39.0178C202.309 39.4106 202.201 39.9937 202.195 40.6229C202.179 42.2943 202.168 43.9657 202.164 45.6376C202.164 45.6377 202.164 45.6377 202.164 45.6378L202.664 45.6388M202.953 38.8625L208.111 47.1954C206.889 47.1918 205.667 47.1883 204.446 47.1834M202.664 45.6388C202.662 46.801 203.096 47.1796 204.446 47.1834M202.664 45.6388C202.668 43.9683 202.679 42.2981 202.695 40.6278C202.707 39.4305 203.124 39.0486 204.456 39.0504L202.664 45.6388ZM204.446 47.1834L204.444 47.6834C204.444 47.6834 204.444 47.6834 204.444 47.6834L204.446 47.1834ZM180.962 39.0047C180.209 39.015 179.458 39.0257 178.713 39.037C178.253 39.0447 177.793 39.0526 177.334 39.0606C177.457 39.1193 177.571 39.1915 177.676 39.2797C178.113 39.6489 178.253 40.1929 178.259 40.7858M180.962 39.0047L176.083 48.3784C176.729 48.3665 177.304 48.248 177.712 47.8843C178.138 47.506 178.274 46.9632 178.277 46.3688C178.285 44.5076 178.28 42.6466 178.259 40.7858M180.962 39.0047C180.67 39.0819 180.409 39.2118 180.195 39.4168C179.783 39.8115 179.655 40.3773 179.652 40.9992C179.642 42.885 179.645 44.0565 179.658 45.9423C179.662 46.5837 179.782 47.1669 180.211 47.5664C180.631 47.957 181.231 48.0618 181.9 48.0631M180.962 39.0047L190.074 48.0791C188.646 48.0746 187.222 48.0725 185.798 48.0705C184.5 48.0687 183.202 48.0668 181.9 48.0631M178.259 40.7858L177.759 40.7914L178.259 40.7858C178.259 40.7858 178.259 40.7858 178.259 40.7858ZM181.9 48.0631C181.9 48.0631 181.9 48.0631 181.9 48.0631L181.901 47.5631L181.9 48.0631ZM190.075 47.5791L190.074 48.0791C191.351 48.0852 192.631 48.0938 193.912 48.1024L190.075 47.5791ZM190.075 47.5791C191.356 47.5852 192.636 47.5938 193.917 47.6024C195.43 47.6126 196.943 47.6227 198.456 47.6288L190.075 47.5791ZM217.467 38.6354V38.6351C217.534 38.6366 217.601 38.6381 217.668 38.6396C217.526 38.6382 217.383 38.6368 217.241 38.6354L217.467 38.6354ZM190.288 36.7277C190.29 37.3744 190.412 37.9657 190.863 38.3659C191.297 38.7508 191.919 38.8512 192.625 38.85L190.288 36.7277ZM187.14 38.9199C187.292 38.9176 187.443 38.9153 187.594 38.913C188.296 38.9031 188.909 38.7979 189.34 38.432C189.795 38.045 189.925 37.4759 189.929 36.8535C189.941 35.1177 189.942 33.382 189.934 31.647C189.934 31.6469 189.934 31.6469 189.934 31.6468L189.434 31.6493C189.429 30.5656 188.987 30.1415 187.778 30.1157L187.691 30.1146L187.6 30.1147L187.14 38.9199Z"
          fill="black" stroke="black"/>
    <path d="M156.199 103.388C171.004 103.388 183.006 91.3863 183.006 76.5809C183.006 61.7756 171.004 49.7734 156.199 49.7734C141.393 49.7734 129.391 61.7756 129.391 76.5809C129.391 91.3863 141.393 103.388 156.199 103.388Z"
          fill="#B5C1C9" stroke="black" stroke-width="5.544"/>
    <path d="M185.338 76.6863C186.369 84.0266 187.245 91.9438 186.063 98.2726C185.474 101.429 184.379 104.151 182.57 106.204C180.768 108.248 178.227 109.666 174.666 110.166C167.463 111.179 156.971 109.04 148.009 104.803C143.535 102.688 139.471 100.063 136.405 97.074C133.336 94.0832 131.296 90.7576 130.801 87.2385C129.794 80.0745 132.428 72.7018 137.148 66.8512C141.869 61.0005 148.639 56.7218 155.824 55.712C170.248 53.6848 183.32 62.3335 185.338 76.6863Z"
          fill="black" stroke="black"/>
    <path fill-rule="evenodd" clip-rule="evenodd"
          d="M156.427 102.666C141.721 102.337 129.938 90.7117 130.108 76.6999C130.278 62.6881 142.337 51.5961 157.043 51.9251C171.749 52.2541 183.532 63.8797 183.362 77.8915C183.191 91.9033 171.132 102.995 156.427 102.666Z"
          fill="#B5C1C9"/>
    <path fill-rule="evenodd" clip-rule="evenodd"
          d="M130.109 78.356C130.32 91.9032 142.172 102.628 156.581 102.309C170.99 101.991 182.499 90.7512 182.288 77.204C182.274 76.2671 182.203 75.3437 182.081 74.4365C182.071 87.8122 170.643 98.8443 156.37 99.1594C142.958 99.4556 131.761 90.1838 130.106 77.9734C130.106 78.1008 130.106 78.2283 130.109 78.356Z"
          fill="white"/>
    <path fill-rule="evenodd" clip-rule="evenodd"
          d="M178.357 74.9958C178.178 64.5748 168.112 56.3253 155.874 56.57C143.636 56.8148 133.861 65.461 134.04 75.8819C134.052 76.6026 134.112 77.3129 134.217 78.0107C134.224 67.7218 143.93 59.2355 156.053 58.9931C167.444 58.7653 176.954 65.8975 178.359 75.29C178.359 75.1921 178.359 75.094 178.357 74.9958Z"
          fill="white"/>
    <path d="M156.427 54.9912C163.293 54.9912 169.448 57.9553 173.619 62.6358C169.339 58.5779 163.495 56.0799 157.06 56.0799C145.768 56.0799 136.316 63.7742 133.951 74.0915C135.439 63.3138 144.918 54.9912 156.427 54.9912Z"
          fill="black" stroke="black"/>
    <path fill-rule="evenodd" clip-rule="evenodd"
          d="M166.473 78.452L150.684 87.4927C149.833 88.0002 148.769 87.3276 148.3 85.9904C148.19 85.6788 148.121 85.3473 148.097 85.0141L147.62 65.8891C147.655 64.4591 148.688 63.3255 149.908 63.3571C150.191 63.3645 150.468 63.4361 150.721 63.568L167.324 73.6523C168.092 74.2184 168.211 75.7422 167.62 77.0557C167.337 77.6995 166.924 78.2032 166.473 78.452Z"
          fill="white"/>
    <path d="M165.279 79.6441L165.279 79.6442C165.577 79.4807 165.901 79.1123 166.132 78.5726L166.134 78.5689C166.372 78.026 166.457 77.4448 166.407 76.955C166.357 76.4642 166.182 76.1376 165.978 75.9814L150.267 66.4949C150.099 66.4095 149.919 66.3639 149.736 66.3589L165.279 79.6441ZM165.279 79.6441L165.272 79.648M165.279 79.6441L165.272 79.648M165.272 79.648L150.306 88.1406L150.306 88.1406M165.272 79.648L150.306 88.1406M150.306 88.1406L150.299 88.1448M150.306 88.1406L150.299 88.1448M150.299 88.1448C150.083 88.272 149.831 88.2699 149.551 88.0947C149.26 87.9117 148.957 87.5422 148.764 86.9933L148.764 86.9927M150.299 88.1448L148.764 86.9927M148.764 86.9927C148.677 86.7451 148.621 86.4809 148.601 86.2153M148.764 86.9927L148.601 86.2153M148.601 86.2153L148.12 68.2393C148.148 67.1002 148.945 66.3377 149.736 66.3589L148.601 86.2153Z"
          fill="black" stroke="black"/>
    <path fill-rule="evenodd" clip-rule="evenodd"
          d="M149.943 71.1664V83.4247C149.943 84.6091 150.903 85.5693 152.088 85.5693C152.462 85.5693 152.829 85.4714 153.154 85.2855L163.852 79.1564C164.88 78.5676 165.235 77.2572 164.647 76.2294C164.457 75.8986 164.183 75.6243 163.852 75.4347L153.154 69.3056C152.126 68.7168 150.816 69.0726 150.227 70.1003C150.041 70.4249 149.943 70.7924 149.943 71.1664Z"
          fill="white"/>
    <path d="M306.987 60.1565L306.987 60.1566L306.978 60.1475C306.679 59.8569 306.027 59.5483 305.173 59.3721C304.335 59.1994 303.383 59.1713 302.535 59.3679C300.758 59.7801 299.027 60.7318 298.188 62.1145L298.162 62.1559L298.13 62.1917C297.748 62.6113 297.569 63.025 297.543 63.4176C297.516 63.8098 297.636 64.2382 297.954 64.695L298.072 64.864L298.037 65.0671C297.857 66.0978 297.775 66.9301 297.826 67.903L297.83 67.9856L297.807 68.0652C297.731 68.3331 297.786 68.5464 297.927 68.77C298.057 68.978 298.236 69.1585 298.446 69.3706C298.492 69.4175 298.54 69.466 298.59 69.5166C298.917 69.8491 299.125 70.2042 299.174 70.6098C299.222 71.0061 299.107 71.3734 298.953 71.708L298.923 71.7723L298.877 71.8258C298.696 72.0351 298.499 72.1679 298.29 72.2474C298.094 72.3219 297.907 72.3404 297.781 72.3528L297.779 72.353C297.528 72.3778 297.439 72.3883 297.311 72.5207L297.265 72.5677L297.209 72.6014L296.746 72.8779L296.685 72.9146L296.616 72.9326C296.094 73.0686 295.474 73.1039 294.91 73.1285C294.837 73.1316 294.765 73.1346 294.694 73.1376C294.19 73.1586 293.734 73.1776 293.352 73.2428C292.31 73.4243 291.701 74.0928 291.159 75.0127C290.976 75.324 290.813 75.641 290.643 75.9711C290.555 76.1423 290.465 76.3171 290.369 76.4965C290.099 77.003 289.796 77.5221 289.409 77.9659L289.408 77.9667C289.029 78.399 289.014 78.976 289.207 79.7527C289.289 80.0824 289.4 80.415 289.515 80.7601C289.534 80.8157 289.553 80.8716 289.571 80.9278C289.701 81.3194 289.833 81.7349 289.896 82.1254C290.175 83.8406 290.128 85.5896 289.758 87.2902L289.758 87.2929C289.681 87.6385 289.591 87.9808 289.501 88.3141C289.491 88.3523 289.481 88.3903 289.471 88.4282C289.392 88.7242 289.314 89.0127 289.245 89.3017C289.089 89.9532 288.982 90.5752 288.999 91.1933L288.999 91.1982C289.01 91.8233 289.149 92.443 289.3 93.1215C289.309 93.1602 289.317 93.1992 289.326 93.2383C289.483 93.9424 289.646 94.7104 289.614 95.5045C289.582 96.28 289.31 97.0658 288.987 97.8136C288.824 98.1909 288.642 98.5705 288.463 98.9426L288.438 98.994C288.267 99.3512 288.098 99.7014 287.944 100.05C287.284 101.545 286.993 102.792 287.763 103.882L287.764 103.884C287.835 103.986 287.905 104.069 287.987 104.167C288.038 104.228 288.093 104.294 288.157 104.373C288.303 104.557 288.469 104.789 288.567 105.075L288.574 105.095L288.58 105.116C288.699 105.597 288.691 106.098 288.555 106.575C288.467 106.994 288.377 107.41 288.287 107.825C287.86 109.794 287.442 111.724 287.343 113.683C287.291 114.717 287.421 115.753 287.556 116.839C287.577 117.006 287.598 117.174 287.618 117.344C287.769 118.593 287.891 119.903 287.66 121.218C287.645 121.307 287.627 121.402 287.611 121.488C287.604 121.523 287.598 121.557 287.592 121.589L287.592 121.589L287.591 121.594C287.45 122.315 287.268 123.041 287.09 123.753C287.009 124.079 286.928 124.403 286.852 124.722C286.607 125.751 286.405 126.76 286.352 127.78L286.352 127.782C286.346 127.889 286.38 128.074 286.512 128.349C286.64 128.617 286.845 128.935 287.128 129.292C287.693 130.007 288.542 130.841 289.63 131.711C291.804 133.448 294.886 135.287 298.441 136.56C301.963 137.821 305.701 137.992 308.611 137.848C310.063 137.775 311.302 137.625 312.196 137.495C312.617 137.433 312.962 137.376 313.218 137.334L313.264 137.327C313.392 137.305 313.502 137.287 313.583 137.276C313.624 137.27 313.664 137.264 313.699 137.261L313.702 137.261C313.722 137.259 313.795 137.251 313.87 137.263C314.296 137.326 314.616 137.193 314.906 136.839C315.222 136.452 315.492 135.804 315.705 134.872C316.128 133.018 316.275 130.291 316.347 127.005C316.374 125.827 316.39 124.582 316.407 123.285C316.486 117.397 316.578 110.467 317.643 104.15C318.595 98.5023 318.864 92.898 318.578 88.1564C318.291 83.394 317.447 79.5707 316.222 77.4369L316.192 77.3845L316.175 77.3265C315.959 76.5766 315.476 76.0256 314.815 75.5701C314.143 75.1073 313.318 74.7641 312.453 74.421C311.525 74.0579 310.839 73.6598 310.184 73.2377C309.981 73.1067 309.784 72.9761 309.586 72.8445C309.139 72.547 308.684 72.2443 308.125 71.9206L307.889 71.7842L307.882 71.6447C307.879 71.645 307.876 71.6453 307.873 71.6456C307.819 71.6509 307.737 71.6589 307.658 71.6585C307.578 71.658 307.434 71.65 307.291 71.5751C307.118 71.4848 307.003 71.328 306.96 71.1412C306.923 70.9826 306.943 70.8258 306.973 70.6976L307.005 70.5608L307.103 70.4605L307.167 70.3955L307.302 70.2577L307.494 70.2463C307.61 70.2394 307.656 70.2141 307.669 70.2054C307.681 70.1977 307.697 70.1838 307.719 70.1399C307.745 70.0886 307.767 70.018 307.796 69.9045C307.801 69.8847 307.807 69.8625 307.813 69.8386C307.825 69.7868 307.84 69.7267 307.857 69.6648C307.797 69.3406 307.856 68.9921 307.936 68.6915C308.036 68.3177 308.198 67.9166 308.362 67.541C308.445 67.3515 308.531 67.1632 308.613 66.9846L308.613 66.9828C308.696 66.8033 308.773 66.6344 308.842 66.4764C308.987 66.1425 309.068 65.9157 309.087 65.7867L309.087 65.7867L309.089 65.7784C309.228 64.9319 309.059 63.8465 308.658 62.7886C308.258 61.7336 307.653 60.7697 306.987 60.1565ZM307.657 70.6581C307.657 70.6582 307.658 70.6584 307.662 70.6585C307.659 70.6581 307.657 70.6581 307.657 70.6581Z"
          fill="black" stroke="black"/>
    <path d="M302.943 90.2034C303.032 93.1206 302.341 95.7027 301.285 98.4005C298.766 92.4171 296.767 86.2529 295.709 79.846C295.506 78.6356 295.338 77.4245 295.204 76.2129C295.14 75.6625 295.228 74.9118 295.798 74.8238C296.578 80.5201 297.989 86.12 300.009 91.5292C300.047 91.6598 300.115 91.7804 300.208 91.8821C300.535 92.1886 300.829 91.8713 300.719 91.5246C299.242 86.8549 298.293 82.0798 297.349 77.2629C297.193 76.2166 297.116 75.1608 297.117 74.1037C298.132 73.5475 299.682 72.6985 300.448 73.1924C300.689 75.7895 301.54 78.3761 301.773 81.015C301.794 81.5556 301.881 82.0919 302.033 82.6129C302.11 82.8355 302.204 83.0521 302.316 83.2609C302.498 85.5833 302.87 87.8817 302.943 90.2034Z"
          fill="#B5C1C9"/>
    <path d="M309.673 91.3647C307.982 90.5086 306.898 88.8354 305.562 87.4866C305.065 86.985 304.253 87.0547 304.93 87.7832C305.401 88.2878 305.906 88.7681 306.403 89.2459C307.368 90.1782 308.353 91.0837 309.326 92.008C309.439 92.1 309.531 92.2145 309.597 92.3443C309.66 92.5256 309.677 92.7197 309.647 92.9092C309.527 94.4168 309.54 95.9319 309.683 97.4374C309.761 98.2292 309.871 99.076 309.586 99.8185C309.66 99.6216 308.453 98.2256 308.295 97.9904C307.543 96.909 306.812 95.814 306.112 94.692C305.355 93.4626 304.157 92.2568 303.935 90.7827C303.821 90.0048 303.979 89.1957 303.939 88.4244C303.902 87.6075 303.804 86.7945 303.647 85.9919C303.527 85.5118 303.461 85.02 303.449 84.5254C303.443 84.439 303.466 84.3531 303.514 84.281C303.652 84.1041 303.933 84.2235 304.118 84.3498C305.65 85.4004 307.306 86.2595 309.049 86.9076C309.386 87.0339 309.76 87.186 309.888 87.5169C309.939 87.6789 309.955 87.8499 309.934 88.0184C309.888 89.1455 309.801 90.2609 309.673 91.3647Z"
          fill="#B5C1C9"/>
    <path d="M291.775 78.8548C291.679 83.0667 292.575 87.5018 293.627 91.571C294.719 95.8441 296.366 99.8645 298.236 103.878C300.711 109.192 303.958 114.2 307.586 118.889C308.059 119.5 308.949 120.466 309.86 120.003C309.733 120.066 306.271 115.075 305.959 114.612C304.659 112.763 303.403 110.884 302.246 108.95C299.951 105.147 298.049 101.146 296.564 97.0013C296.277 96.1546 295.99 95.3001 295.728 94.4427C295.483 93.6233 295.259 92.7993 295.054 91.9707C293.992 87.6408 293.518 83.2061 293.277 78.7698C293.226 77.8217 293.424 76.57 294.42 76.4094C293.678 84.4643 297.614 92.1537 301.166 99.5071C303.77 104.943 306.251 110.456 309.36 115.658C309.744 116.298 310.153 116.954 310.78 117.396C309.768 115.477 308.758 113.561 307.727 111.65C306.672 109.699 305.65 107.734 304.66 105.754C303.574 103.58 302.549 101.381 301.584 99.1571C301.726 99.1727 301.87 99.1498 301.999 99.091C302.156 99.211 302.681 99.207 302.749 99.0498C303.523 97.3052 304.065 95.4778 304.362 93.6092C305.261 95.043 306.192 96.4583 307.156 97.8551C307.654 98.5763 308.163 99.2896 308.681 99.9951C309.018 100.455 309.891 101.253 310.012 101.793C311.143 106.459 312.182 111.161 312.608 115.967C312.872 118.953 312.738 121.932 312.73 124.918C312.726 126.098 312.667 127.275 312.555 128.448C311.295 127.124 310.061 125.765 308.892 124.381C304.58 119.322 300.634 113.82 296.736 103.602C297.144 105.573 300.068 114.088 302.8 118.502C305.636 123.084 308.999 126.733 310.423 128.327C310.864 128.774 311.238 129.275 311.537 129.816C312.301 131.391 312.145 132.379 311.547 134.024C306.386 130.3 302.42 125.23 299.591 119.729C296.762 114.228 294.999 108.273 293.799 102.27C292.257 94.5547 291.579 86.7068 291.775 78.8548Z"
          fill="#B5C1C9"/>
    <path d="M294.208 79.7024C294.433 83.7816 294.88 87.8617 295.884 91.8403C296.069 92.6022 296.281 93.3598 296.521 94.113C296.764 94.9014 297.03 95.687 297.311 96.4653C298.716 100.276 300.516 103.954 302.687 107.45C303.781 109.228 304.97 110.954 306.2 112.655C306.886 113.602 307.691 114.244 308.012 115.391C308.383 116.721 308.797 117.88 309.644 119.034C308.736 117.797 306.128 114.291 305.967 114.07C304.737 112.37 303.548 110.643 302.454 108.865C300.282 105.369 298.483 101.691 297.078 97.8806C296.807 97.1021 296.536 96.3166 296.288 95.5283C296.057 94.7749 295.845 94.0174 295.651 93.2555C294.647 89.2746 294.2 85.1969 293.975 81.1177C293.931 80.6102 294.01 80.0996 294.207 79.6225L294.208 79.7024Z"
          fill="white"/>
    <path d="M299.684 76.6825C300.645 81.2896 301.152 85.9713 301.2 90.6681C301.217 93.836 301.004 91.6079 300.689 91.0208C300.615 90.9087 300.548 90.7925 300.489 90.6728C300.489 90.6471 300.472 90.6218 300.461 90.5963C299.26 86.4947 298.412 82.3407 297.588 78.1479C297.433 77.1161 297.355 76.0749 297.357 75.0324L297.651 74.8734C297.678 75.4527 299.573 76.1073 299.684 76.6825Z"
          fill="white"/>
    <path d="M291.669 80.1374C291.668 80.095 291.667 80.0525 291.687 80.0122C291.69 80.1769 291.693 80.3416 291.696 80.5113C291.489 83.5274 291.767 86.5726 292.094 89.5869C292.955 97.5339 294.099 105.526 296.851 113.063C299.604 120.6 304.101 127.727 310.695 132.582C311.069 133.124 311.366 133.104 311.069 134.37C304.474 129.516 299.381 122.104 296.618 114.564C293.855 107.025 292.722 99.0355 291.861 91.0811C291.466 87.4439 291.125 83.7559 291.669 80.1374Z"
          fill="white"/>
    <path d="M298.964 64.4098C299.032 64.2379 299.118 64.0733 299.221 63.9187C299.537 63.3927 299.785 62.8133 300.259 62.386C300.351 62.2918 300.462 62.2172 300.585 62.1669C300.696 62.1286 300.816 62.1239 300.927 62.0829C301.088 61.9928 301.239 61.8854 301.376 61.7628C301.519 61.6372 301.731 61.6239 301.889 61.7304C301.969 61.5553 302.111 61.4148 302.29 61.3356C302.488 61.3162 302.689 61.3223 302.886 61.3539C303.099 61.3501 303.305 61.1097 303.501 61.3978C303.532 61.465 303.576 61.5261 303.63 61.5777C303.697 61.6119 303.771 61.6302 303.846 61.6312C304.284 61.6964 304.571 62.1754 305.011 62.2146C305.11 62.2099 305.209 62.2213 305.304 62.2485C305.731 62.4232 305.944 63.0831 306.078 63.4607C306.359 64.2807 307.238 65.7149 306.507 66.5109C306.397 66.63 306.244 66.7315 306.215 66.8856C306.186 67.0396 306.22 67.1457 306.169 67.2689C306.117 67.3921 305.98 67.4466 305.907 67.5337C305.817 67.7021 305.767 67.8879 305.76 68.0776C305.668 68.4982 305.29 68.791 305.022 69.1314C304.806 69.4084 304.657 69.7311 304.46 70.0234C303.521 71.4165 300.934 71.0583 299.976 69.8415C299.671 69.516 299.542 69.0685 299.628 68.6349C299.576 68.5728 299.546 68.4955 299.544 68.4151C299.543 68.3644 299.548 68.3138 299.558 68.264C299.557 68.2353 299.556 68.1989 299.557 68.2171C299.546 68.1848 299.532 68.1536 299.515 68.1242C299.406 67.9446 299.464 67.7127 299.645 67.6014C299.777 67.5263 299.941 67.5315 300.068 67.6149C300.361 67.8127 301.786 67.4313 302.153 67.4067C303.019 67.3456 303.888 67.347 304.753 67.4108C304.989 67.0464 305.19 66.6613 305.353 66.2605C305.391 66.1844 305.405 66.099 305.394 66.0151C305.354 65.8649 305.177 65.8081 305.051 65.7166C304.585 65.3839 304.797 64.7244 304.231 64.474C303.963 64.3538 303.646 64.3333 303.367 64.2289C303.016 64.0841 302.683 63.7828 302.312 63.8673C301.994 63.9405 301.745 64.2884 301.425 64.2237C301.307 64.1998 301.191 64.1211 301.08 64.1621C300.969 64.2031 300.938 64.4066 300.855 64.5304C300.733 64.7146 300.449 64.7274 300.303 64.8965C300.157 65.0656 300.2 65.2574 300.112 65.4203C300.027 65.5536 299.89 65.6475 299.732 65.6807C299.575 65.7138 299.411 65.6833 299.277 65.5962C299.017 65.4032 298.88 65.0901 298.917 64.7724C298.917 64.6501 298.933 64.5283 298.964 64.4098ZM302.796 68.4191C302.18 68.3721 301.374 68.1431 300.804 68.5406C300.745 68.5831 300.689 68.6299 300.638 68.6806C300.632 68.7195 300.618 68.7572 300.598 68.792C300.892 68.9137 301.194 69.0201 301.501 69.1108C302.393 69.3265 303.337 68.984 303.828 68.2663C303.492 68.3558 303.146 68.4071 302.796 68.4191Z"
          fill="white"/>
    <path d="M313.448 99.3838C314.112 100.333 313.989 102.423 314.073 103.555C314.104 104.065 314.478 106.233 313.913 106.571C313.588 106.766 312.809 104.009 312.75 103.801C312.552 103.118 312.248 102.407 312.371 101.735C312.509 100.958 312.866 99.9055 313.448 99.3838Z"
          fill="white"/>
    <path d="M289.375 100.617C289.516 100.123 289.593 99.5744 289.954 99.2007C290.362 98.7609 290.883 98.413 291.474 98.1859C291.505 98.1423 291.536 98.0987 291.566 98.0601C291.6 98.0825 291.63 98.1083 291.657 98.1371C291.658 98.1446 291.659 98.1523 291.657 98.1599C291.989 98.5393 291.968 99.5025 292.02 100.006C292.053 100.259 292.329 101.252 291.97 101.603C291.764 101.804 291.215 100.636 291.17 100.548C291.092 100.382 290.992 100.224 290.931 100.045C290.73 100.378 290.529 100.688 290.389 100.936C290.202 101.264 289.579 102.742 289.044 102.751C288.751 102.754 289.332 100.767 289.375 100.617Z"
          fill="white"/>
    <path d="M303.768 73.1031C303.729 72.9916 303.72 72.8714 303.744 72.7554C303.789 72.6418 303.861 72.5417 303.955 72.4643L304.726 71.7098C304.589 73.2945 305.521 74.37 306.969 74.7509C308.47 75.1467 310.031 75.5994 311.126 76.6721C312.042 77.558 313.497 78.3486 313.779 79.5726C313.926 80.2539 314.956 83.8095 315.054 86.8707C315.203 91.5063 314.376 96.1179 314.301 96.683C314.192 97.4972 313.59 98.3463 312.93 96.7439C312.41 95.4871 312.717 95.2365 312.75 93.9674C312.795 92.3342 312.792 90.6992 312.717 89.0681C312.56 85.7401 312.566 81.1038 309.866 78.6931C310.101 79.4911 310.229 80.3172 310.248 81.1495C310.283 82.304 310.239 83.4783 310.165 84.6479C310.164 84.8098 310.114 84.9677 310.024 85.1013C309.902 85.2506 309.718 85.3346 309.526 85.3289C309.147 85.3339 308.774 85.2357 308.446 85.0444C308.113 84.8551 307.892 84.4133 307.646 84.1143C307.089 83.4595 306.567 82.7759 306.08 82.0661C305.234 80.8177 302.664 77.3788 304.434 76.0029C304.655 75.8481 304.827 75.6316 304.928 75.3799C305.176 74.6266 304.03 74.0347 303.768 73.1031Z"
          fill="white"/>
    <path fill-rule="evenodd" clip-rule="evenodd"
          d="M271.096 59.2479C268.857 59.4351 268.872 59.4096 268.153 61.5053C267.785 62.5773 267.63 63.5506 268.248 64.6503C268.866 65.7495 269.431 66.9084 269.833 68.2505C267.72 68.2168 265.68 68.1942 263.64 68.1489C261.243 68.0955 258.847 68.009 256.45 67.9702C256.039 67.9635 255.845 67.8649 255.671 67.4742C254.553 64.9697 253.769 62.3414 252.755 59.7986C252.574 59.3441 252.36 59.1136 251.888 59.1326C251.365 59.1535 250.839 59.2358 250.32 59.2C249.279 59.1281 248.747 59.6173 248.561 60.5947C248.502 60.9076 248.374 61.2068 248.287 61.5151C247.864 63.0178 247.726 64.4252 248.411 65.9946C249.712 68.9763 250.793 72.0579 251.863 75.1331C253.136 78.7941 254.757 82.3247 255.903 86.0334C256.625 88.3703 257.471 90.6694 258.252 92.9884C258.4 93.4278 258.506 93.8813 258.631 94.3281C258.856 94.9534 259.086 95.5765 259.304 96.2042C259.851 97.7876 260.392 99.3733 260.935 100.958C261.469 102.62 261.922 104.313 262.551 105.937C264.742 111.594 266.399 117.412 268.148 123.21C269.603 128.031 270.923 132.891 272.42 137.698C272.769 138.818 272.971 138.868 274.143 138.735C275.533 138.576 276.403 137.913 276.7 136.537C276.712 136.481 276.721 136.418 276.752 136.371C277.694 134.958 277.399 133.506 277.028 131.973C276.492 129.759 275.737 127.621 275.027 125.466C274.867 124.981 274.939 124.799 275.486 124.759C279.535 124.467 283.534 123.801 287.534 123.142C289.255 122.858 289.277 122.885 289.848 124.587C290.801 127.429 291.698 130.29 292.434 133.196C292.929 135.152 293.942 135.631 295.82 134.746C296.082 134.622 296.205 134.408 296.322 134.17C296.875 133.046 297.299 131.869 297.721 130.693C297.926 130.122 297.86 129.569 297.676 128.988C295.543 122.241 293.427 115.489 291.311 108.737C291.216 108.434 291.161 108.119 291.087 107.81C290.985 107.439 290.884 107.068 290.782 106.696C290.439 106.167 290.328 105.566 290.228 104.96C289.828 103.967 289.428 102.975 289.027 101.982C288.525 100.726 288.065 99.4572 287.833 98.1188C287.542 97.5783 287.39 96.9908 287.249 96.3999C286.563 94.3442 285.952 92.2622 285.096 90.2654C283.763 87.1557 282.601 83.98 281.424 80.811C280.183 77.4736 278.563 74.2967 277.256 70.9901C275.798 67.3032 273.951 63.7879 272.482 60.1085C272.214 59.4369 271.847 59.1853 271.096 59.2479ZM285.74 110.029C286.361 112.183 286.995 114.332 287.652 116.475C287.803 116.968 287.653 117.051 287.187 117.089C282.617 117.461 278.138 118.459 273.597 119.043C273.212 119.092 273.047 119.064 272.922 118.657C272.273 116.541 271.586 114.437 270.913 112.328C270.86 112.162 270.822 111.99 270.764 111.774C270.807 111.53 271.066 111.596 271.232 111.56C275.839 110.581 280.547 110.37 285.204 109.773C285.429 109.744 285.641 109.685 285.74 110.029ZM281.45 97.456C282.161 99.4567 283.019 101.405 283.511 103.483C283.637 104.016 283.489 104.118 282.992 104.166C281.424 104.315 279.857 104.483 278.299 104.71C275.472 105.123 272.667 105.696 269.807 105.875C269.487 105.895 269.12 106.081 268.966 105.556C268.329 103.386 267.675 101.221 267.013 99.0583C266.862 98.5677 266.899 98.3417 267.516 98.3031C269.781 98.1605 272.043 97.9703 274.305 97.7715C276.511 97.5775 278.715 97.3511 281.077 97.1237C281.182 97.1055 281.349 97.1714 281.45 97.456ZM276.774 85.3389C277.561 87.1225 278.349 88.9054 279.154 90.6803C279.339 91.0875 279.259 91.2498 278.81 91.2844C278.054 91.3426 277.298 91.4053 276.549 91.5149C272.821 92.0605 269.046 92.0094 265.307 92.3968C264.92 92.437 264.683 92.3666 264.517 91.941C263.722 89.9112 263.134 87.8183 262.442 85.7304C262.642 85.6903 262.783 85.6478 262.927 85.6354C267.344 85.2498 271.79 85.4835 276.205 85.0634C276.457 85.0393 276.655 85.0687 276.774 85.3389ZM272.219 74.2444C272.861 75.7746 273.522 77.2969 274.186 78.8178C274.35 79.1925 274.282 79.3238 273.848 79.3196C272.855 79.3104 271.861 79.3286 270.869 79.3672C267.63 79.4929 264.401 79.8109 261.156 79.7882C260.83 79.7857 260.39 80.0171 260.194 79.473C259.511 77.5851 258.808 75.704 258.079 73.7268C258.658 73.7 259.175 73.6653 259.693 73.6534C263.547 73.5661 267.4 74.0867 271.254 73.7151C271.715 73.6705 272.027 73.7855 272.219 74.2444Z"
          fill="black" stroke="black" stroke-width="2.376"/>
    <path fill-rule="evenodd" clip-rule="evenodd"
          d="M273.909 137.117L275.031 134.464C268.814 114.448 263.725 98.6914 259.765 87.1949C255.805 75.6985 252.547 67.1731 249.992 61.6188L249.113 64.5165L261.348 97.8614"
          fill="white"/>
    <path fill-rule="evenodd" clip-rule="evenodd"
          d="M270.785 60.8642C271.408 62.4443 271.993 64.0207 272.647 65.5685C274.404 69.7264 276.204 73.867 277.965 78.0238C281.429 86.2043 284.555 94.511 287.363 102.938C288.725 107.024 289.768 111.2 291.032 115.312C292.511 120.122 294.057 124.911 295.573 129.71C295.751 130.275 296.563 130.541 297.036 130.175C297.295 129.974 297.072 129.746 297.013 129.558C296.226 127.059 295.403 124.57 294.627 122.068C293.128 117.232 291.69 112.376 290.152 107.553C289.225 104.645 288.103 101.799 287.162 98.8949C284.455 90.5514 281.206 82.4171 277.713 74.3752C275.962 70.3434 274.397 66.2294 272.347 62.3296C272.226 62.0995 272.15 61.8443 272.068 61.5958C271.799 60.7761 271.801 60.775 270.785 60.8642Z"
          fill="#B5C1C9"/>
    <path fill-rule="evenodd" clip-rule="evenodd"
          d="M251.416 60.507C250.75 60.389 250.565 60.51 250.851 61.2558C253.324 67.7069 255.752 74.1744 258.302 80.5976C260.434 85.9712 262.365 91.4304 263.931 96.9922C265.426 102.304 267.548 107.398 269.155 112.666C270.274 116.331 271.218 120.048 272.456 123.68C273.581 126.98 274.576 130.322 275.286 133.735C275.423 134.395 275.769 134.211 276.156 134.192C276.761 134.162 276.476 133.788 276.429 133.513C275.9 130.406 274.747 127.474 273.785 124.493C271.358 116.975 269.233 109.367 266.836 101.842C263.313 90.7806 259.394 79.852 255.166 69.0372C254.14 66.413 253.25 63.7352 252.095 61.1603C251.956 60.8505 251.921 60.4483 251.416 60.507Z"
          fill="#B5C1C9"/>
    <path fill-rule="evenodd" clip-rule="evenodd"
          d="M283.046 93.7525C282.599 92.4622 282.599 92.4718 281.261 92.5182C278.066 92.629 274.925 93.2137 271.723 93.2437C269.593 93.2636 267.492 93.523 265.381 93.5862C265.451 94.4572 265.855 94.7249 266.775 94.6922C270.797 94.5488 274.804 94.2847 278.802 93.9089C280.176 93.7798 281.571 93.8023 283.046 93.7525Z"
          fill="#F4F6F8"/>
    <path fill-rule="evenodd" clip-rule="evenodd"
          d="M290.382 117.664C287.035 117.963 283.563 118.279 280.146 118.97C278.233 119.357 276.291 119.506 274.377 119.853C274.134 119.897 273.566 119.678 273.675 120.342C273.765 120.893 274.104 120.808 274.508 120.77C279.709 120.275 284.851 119.298 290.061 118.89C290.238 118.876 290.423 118.889 290.59 118.841C290.815 118.777 291.309 119.023 291.17 118.487C291.084 118.155 291.165 117.573 290.382 117.664Z"
          fill="#F4F6F8"/>
    <path fill-rule="evenodd" clip-rule="evenodd"
          d="M286.419 104.95C283.979 105.219 281.532 105.442 279.101 105.769C276.016 106.184 272.969 106.849 269.853 107.056C269.685 107.067 269.211 106.866 269.327 107.384C269.408 107.744 269.419 108.131 270.034 108.049C273.267 107.613 276.514 107.272 279.74 106.797C281.997 106.464 284.288 106.518 286.533 106.126C286.758 106.087 287.26 106.319 287.16 105.801C287.093 105.453 287.071 104.9 286.419 104.95Z"
          fill="#F4F6F8"/>
    <path fill-rule="evenodd" clip-rule="evenodd"
          d="M277.99 81.4334C277.905 80.6659 277.528 80.4796 276.792 80.5173C271.686 80.7787 266.577 80.9849 261.468 81.2104C261.207 81.2218 260.945 81.2488 260.687 81.2683C260.701 82.1071 261.022 82.3936 261.884 82.342C267.077 82.031 272.274 81.7889 277.47 81.5203C277.644 81.5112 277.815 81.4634 277.99 81.4334Z"
          fill="#F4F6F8"/>
    <path fill-rule="evenodd" clip-rule="evenodd"
          d="M293.774 132.847C294.27 131.572 294.671 130.44 294.221 129.056C293.372 126.444 292.69 123.763 291.919 121.042C291.242 121.942 290.892 122.729 291.273 123.931C292.194 126.836 292.936 129.812 293.774 132.847Z"
          fill="#F4F6F8"/>
    <path fill-rule="evenodd" clip-rule="evenodd"
          d="M258.014 69.9617C260.783 70.3129 263.647 70.1699 266.511 70.1668C268.626 70.1646 270.741 70.4227 272.853 70.3147C273.12 70.3011 273.59 70.4744 273.598 70.085C273.607 69.6239 273.167 69.5367 272.717 69.5434C269.097 69.5973 265.475 69.4608 261.852 69.3249C260.52 69.2746 259.187 69.2273 257.854 69.2056C257.592 69.2012 257.124 68.9652 257.099 69.3779C257.075 69.768 257.393 70.0631 258.014 69.9617Z"
          fill="#F4F6F8"/>
    <path fill-rule="evenodd" clip-rule="evenodd"
          d="M286.568 103.746C285.643 100.76 284.791 98.011 283.915 95.1824C283.285 96.0656 282.936 96.7989 283.326 97.908C283.933 99.6318 284.59 101.348 284.968 103.166C285.175 104.163 285.941 103.379 286.568 103.746Z"
          fill="#F4F6F8"/>
    <path fill-rule="evenodd" clip-rule="evenodd"
          d="M274.023 71.549C273.484 72.5345 273 73.3341 273.619 74.5195C274.324 75.8679 274.738 77.4038 275.282 78.856C275.461 79.332 276.397 79.6179 276.771 79.3189C276.972 79.158 276.823 78.9938 276.77 78.8507C275.867 76.4374 274.957 74.0271 274.023 71.549Z"
          fill="#F4F6F8"/>
    <path fill-rule="evenodd" clip-rule="evenodd"
          d="M279.15 83.1818C278.305 84.34 278.168 85.3612 278.839 86.6113C279.559 87.9541 280.073 89.4364 280.578 90.8983C280.844 91.6665 281.363 91.3255 281.714 91.2535C282.133 91.1672 281.79 90.7828 281.717 90.5683C280.881 88.1268 280.026 85.6932 279.15 83.1818Z"
          fill="#F4F6F8"/>
    <path fill-rule="evenodd" clip-rule="evenodd"
          d="M287.441 107.94C286.701 109.052 286.755 110.128 287.199 111.35C287.776 112.938 288.18 114.603 288.55 116.262C288.731 117.07 289.237 116.789 289.611 116.719C290.186 116.611 289.75 116.21 289.674 116.002C288.724 113.392 288.334 110.613 287.441 107.94Z"
          fill="#F4F6F8"/>
    <path fill-rule="evenodd" clip-rule="evenodd"
          d="M272.604 68.294C271.504 66.0616 270.87 63.6326 269.864 61.3196C269.25 62.5377 269.134 63.6551 269.776 64.8319C270.215 65.6348 270.592 66.5005 270.847 67.3894C271.118 68.3358 271.581 68.6784 272.604 68.294Z"
          fill="#F4F6F8"/>
    <path fill-rule="evenodd" clip-rule="evenodd"
          d="M296.727 131.258C295.254 131.381 294.824 132.004 294.51 134.201C296.235 133.841 295.875 132.268 296.727 131.258Z"
          fill="#F4F6F8"/>
    <path fill-rule="evenodd" clip-rule="evenodd"
          d="M276.029 135.16C274.766 135.251 274.766 135.251 274.315 137.09C275.403 137.063 275.414 137.051 276.029 135.16Z"
          fill="#F4F6F8"/>
    <path d="M80.4506 39.8225C80.3835 39.8237 80.568 53.63 80.8635 70.7656L80.8725 71.2859C80.961 76.3966 81.0493 81.2227 81.1316 85.4894C82.6798 94.6441 84.0863 94.2425 84.651 79.4533C85.3495 61.1606 86.5177 92.6441 87.5521 90.7936L86.7651 39.7126L80.4506 39.8225ZM87.2051 39.7799L87.6537 90.5357C88.2933 89.6662 88.9692 89.948 89.6623 89.8371L88.9209 39.7501L87.2051 39.7799ZM89.3554 39.78L89.7936 89.8209C90.285 89.4786 90.782 88.7114 91.278 86.9798C91.3665 86.6708 91.4522 86.3353 91.535 85.9745C91.416 80.4724 91.1067 39.7495 91.071 39.7501L89.3554 39.78Z"
          fill="white"/>
    <path d="M61.9639 87.2808L61.9638 87.281L61.9545 87.2718C61.6217 86.9421 60.9838 86.632 60.115 86.4252C59.2614 86.2221 58.2441 86.1328 57.2133 86.197C55.1178 86.3275 53.1382 87.0742 52.2522 88.5637L52.2276 88.6051L52.1955 88.6411C52.0548 88.7988 51.8985 89.1803 51.7706 89.7986C51.6488 90.3877 51.5694 91.1018 51.5203 91.8322C51.4221 93.2922 51.4483 94.762 51.4762 95.3075L51.4803 95.3885L51.4586 95.4667C51.425 95.588 51.4275 95.7609 51.4914 95.9921C51.5544 96.2201 51.6681 96.4713 51.8144 96.7275C52.107 97.24 52.4964 97.7128 52.7395 97.9678C53.0887 98.3293 53.3046 98.7097 53.3553 99.1389C53.4049 99.5588 53.2867 99.951 53.122 100.315L53.0931 100.379L53.0477 100.433C52.6744 100.873 52.376 101.223 52.1529 101.481L52.052 101.598L51.9029 101.637C51.4999 101.744 51.2238 101.862 50.9304 101.988C50.8905 102.005 50.8503 102.022 50.8095 102.039C50.46 102.187 50.0852 102.333 49.5205 102.431C48.2961 102.648 47.3957 103.257 46.6056 104.047C46.2073 104.445 45.8406 104.886 45.4733 105.346C45.3759 105.468 45.2779 105.592 45.1791 105.717C44.911 106.057 44.6376 106.403 44.358 106.73L44.3573 106.731C43.893 107.271 43.8206 107.868 43.9166 108.57C43.9656 108.929 44.0564 109.297 44.1566 109.692C44.1625 109.715 44.1684 109.739 44.1743 109.762C44.2669 110.126 44.3657 110.515 44.4259 110.898C44.7259 112.777 44.6766 114.694 44.2805 116.557L44.2799 116.56C44.2692 116.609 44.2526 116.751 44.2357 117.012C44.2197 117.26 44.2051 117.586 44.1915 117.982C44.1645 118.772 44.1424 119.825 44.1225 121.059C44.1001 122.441 44.0806 124.042 44.0598 125.746C44.0434 127.085 44.0263 128.486 44.0064 129.894C43.9614 133.088 43.9024 136.305 43.8066 138.856C43.7586 140.131 43.7013 141.245 43.6315 142.107C43.5966 142.538 43.5582 142.912 43.5154 143.215C43.4741 143.506 43.4243 143.767 43.3565 143.951C43.2215 144.318 43.0785 144.703 42.9301 145.103C42.0046 147.596 40.8675 150.66 40.1168 153.407C39.6809 155.002 39.3838 156.462 39.3281 157.623C39.3003 158.204 39.3341 158.687 39.4287 159.066C39.5233 159.445 39.6699 159.687 39.8435 159.832C40.6025 160.466 41.6869 160.803 43.2787 160.911C44.8708 161.018 46.8972 160.893 49.484 160.667C49.6204 160.655 49.8577 160.577 50.2101 160.396C50.5496 160.222 50.9495 159.977 51.3976 159.68C52.0112 159.273 52.6883 158.787 53.3972 158.278C53.7283 158.04 54.0663 157.798 54.4081 157.556C55.4687 156.805 56.5594 156.066 57.5247 155.563C58.0072 155.311 58.4771 155.109 58.9097 154.996C59.3343 154.885 59.7815 154.846 60.1811 154.992C60.7866 155.213 61.7922 155.674 62.9288 156.196C63.5454 156.478 64.2006 156.779 64.8514 157.068C65.7899 157.486 66.7307 157.886 67.5675 158.195C68.4152 158.509 69.1169 158.715 69.5911 158.766C72.9837 159.134 76.0605 158.172 78.4306 156.842C80.8205 155.501 82.4216 153.828 82.9071 152.86C83.3967 151.883 83.4278 151.367 83.2983 151.034C83.1618 150.684 82.785 150.362 81.978 149.941C81.9415 149.922 81.8381 149.899 81.5857 149.914C81.4827 149.92 81.3743 149.93 81.2516 149.942L81.2038 149.947C81.0658 149.961 80.9127 149.975 80.7576 149.981C80.4534 149.994 80.091 149.98 79.7496 149.841C79.3867 149.693 79.0851 149.418 78.8927 148.986C78.7764 148.725 78.6924 148.5 78.6564 148.312C78.6235 148.14 78.6021 147.848 78.8201 147.62C79.011 147.419 79.2709 147.403 79.3632 147.397L79.3639 147.397C79.4226 147.393 79.4847 147.393 79.5348 147.392L79.5453 147.392C79.6019 147.391 79.6515 147.391 79.7016 147.388C79.8894 147.377 80.0371 147.339 80.1741 147.196C80.3292 147.034 80.5322 146.672 80.6416 145.857C80.8921 143.988 80.983 139.823 80.9436 135.645C80.9042 131.469 80.7355 127.355 80.4808 125.589C80.4801 125.587 80.4721 125.559 80.4273 125.504C80.3743 125.439 80.2869 125.358 80.1542 125.263C79.8876 125.072 79.4981 124.867 79.0053 124.65C78.0292 124.22 76.7463 123.787 75.4435 123.346L75.4148 123.336C74.1175 122.898 72.7995 122.452 71.8178 122.009C71.3296 121.789 70.8923 121.556 70.5757 121.307C70.2889 121.081 69.9463 120.721 69.9979 120.236C70.0863 119.404 70.0484 119.122 70.0178 118.912C70.016 118.9 70.0142 118.887 70.0122 118.875C69.9956 118.762 69.9756 118.628 69.9727 118.456C69.9696 118.265 69.987 118.039 70.0356 117.724C70.0579 117.58 70.1318 117.419 70.2902 117.309C70.434 117.209 70.587 117.193 70.688 117.195C70.8782 117.199 71.0721 117.273 71.2224 117.341C71.5462 117.486 71.9586 117.741 72.3817 118.023C72.8005 118.302 73.2569 118.625 73.689 118.931L73.7225 118.955C74.1686 119.271 74.5845 119.564 74.9206 119.783C75.0121 119.843 75.0989 119.901 75.1825 119.956C75.4091 120.107 75.6127 120.243 75.8265 120.359C76.109 120.513 76.3592 120.603 76.6066 120.617C77.0645 120.644 77.724 120.419 78.7221 119.199C79.1426 118.686 79.7304 118.142 80.3901 117.576C80.7834 117.239 81.217 116.881 81.6664 116.51C81.9683 116.26 82.2774 116.005 82.5862 115.746C84.145 114.44 85.7698 112.98 86.9384 111.334C87.6117 110.386 88.7595 109.698 89.7152 109.124C89.7403 109.109 89.7653 109.094 89.7901 109.079C90.2951 108.776 90.7454 108.504 91.1035 108.227C91.4677 107.946 91.6739 107.707 91.757 107.495C91.7666 107.471 91.782 107.398 91.7456 107.244C91.7099 107.093 91.6337 106.905 91.5139 106.682C91.2744 106.236 90.901 105.724 90.4878 105.214C90.116 104.755 89.7263 104.314 89.3945 103.939C89.3597 103.899 89.3255 103.86 89.2921 103.823C89.1181 103.625 88.9607 103.446 88.8395 103.299C88.7789 103.225 88.7231 103.155 88.677 103.091C88.6453 103.047 88.6063 102.99 88.5735 102.928C88.5234 102.923 88.4312 102.926 88.2866 102.958C87.9448 103.034 87.4813 103.232 86.9786 103.505C86.4835 103.774 85.9815 104.099 85.5697 104.403C85.1421 104.72 84.8603 104.979 84.7613 105.114C84.4994 105.471 84.2337 106.018 83.9745 106.563C83.9652 106.583 83.9559 106.602 83.9467 106.622C83.8315 106.864 83.7177 107.103 83.6129 107.302C83.5104 107.496 83.3797 107.727 83.2285 107.87C82.7571 108.315 81.9296 108.884 80.7835 109.572C79.6275 110.265 78.1159 111.097 76.2519 112.067L75.9404 112.23L75.6822 111.992C73.991 110.432 72.6927 109.212 71.7889 108.332C71.3374 107.892 70.9812 107.535 70.7225 107.261C70.4815 107.005 70.2818 106.779 70.1921 106.619L70.1629 106.567L70.1467 106.51C69.9089 105.669 69.3783 105.054 68.6606 104.55C67.9321 104.038 67.0395 103.658 66.1078 103.281C65.0961 102.877 64.4358 102.432 63.8129 101.963C63.6853 101.868 63.5607 101.772 63.4359 101.676C62.9525 101.305 62.4656 100.931 61.7886 100.531L61.5566 100.394L61.5437 100.125C61.5126 99.4775 61.898 99.0161 62.166 98.7039C62.1853 98.6814 62.2042 98.6595 62.2227 98.6381C62.5002 98.3157 62.6765 98.1108 62.7348 97.8536L62.7655 97.7181L62.8617 97.6179L62.9304 97.5464L63.0658 97.4053L63.261 97.3935C63.3895 97.3857 63.444 97.357 63.4647 97.3431C63.4844 97.33 63.5073 97.3078 63.5342 97.2529C63.5646 97.1909 63.5903 97.1081 63.6215 96.9827C63.6272 96.9601 63.6332 96.9351 63.6396 96.9084C63.6537 96.8498 63.6699 96.7827 63.6884 96.7141C63.5399 96.076 63.8076 95.5839 64.0463 95.2214C64.1017 95.1371 64.151 95.0659 64.1966 95C64.2688 94.8955 64.332 94.8041 64.3966 94.6947C64.4903 94.5356 64.5466 94.399 64.5663 94.2628L64.5663 94.2628L64.5676 94.2546C64.7177 93.3242 64.4616 91.9419 63.9402 90.5691C63.4209 89.2018 62.6807 87.9552 61.9639 87.2808Z"
          fill="black" stroke="black"/>
    <path d="M48.0196 123.798L48.7824 140.944L52.2044 138.239L48.0196 123.798Z" fill="#B5C1C9"/>
    <path fill-rule="evenodd" clip-rule="evenodd"
          d="M57.624 99.9779C56.6396 98.3887 55.9983 96.8956 55.7 95.4985C55.6592 96.5026 55.6747 97.3797 55.7464 98.1299C55.1146 97.1974 54.618 95.7167 54.439 94.9596C54.3898 95.5746 54.2848 95.7755 54.3738 96.7628C53.9702 95.9724 53.7015 95.0396 53.6344 94.7049C53.3755 95.3159 53.4616 95.3828 53.3376 95.8514C53.0963 93.651 53.9052 92.0453 55.6261 91.0431C56.0326 90.8064 56.9248 90.2871 57.7273 89.7904C57.7802 89.7579 54.872 92.0475 57.624 99.9779Z"
          fill="white"/>
    <path d="M51.3629 104.557C51.4245 105.783 53.9718 118.044 59.6901 132.341C52.8994 118.044 50.7555 107.321 50.5336 104.404C50.0408 104.461 49.886 105.4 49.902 106.052C50.0401 111.61 54.4352 125.651 57.8151 132.412C58.2846 133.465 59.0168 135.033 60.0118 137.115C63.0592 137.824 64.5872 138.175 64.5955 138.169C66.6931 136.944 68.868 135.893 71.0676 134.848C71.8441 134.485 72.9165 134.843 72.9164 135.915C72.9163 137.111 72.8794 143.816 72.9155 145.566C74.0066 145.954 74.7486 144.272 75.3214 144.662C77.0623 145.847 78.2275 145.687 78.1799 145.137C78.1243 144.499 79.351 135.558 79.3515 130.196C79.352 124.835 75.0624 123.762 71.8449 125.907C71.236 126.313 65.7444 129.479 62.4156 130.788C60.1652 131.656 62.1075 130.256 62.173 130.173C62.1911 130.165 62.2035 130.144 62.2178 130.127C62.5059 129.881 62.9423 129.521 63.5273 129.045C60.0893 122.924 57.9656 119.213 57.1561 117.913C58.2614 119.116 65.1262 127.806 65.1752 127.769C65.6164 124.554 65.7869 122.912 65.6867 122.844C64.8251 122.162 61.8593 119.52 56.789 114.918L65.1995 121.177L65.5005 116.901C62.4645 115.471 60.0517 113.708 58.2621 111.61C56.4725 109.512 55.0428 106.772 53.9731 103.389C52.3048 104.104 51.4348 104.493 51.3629 104.557ZM48.99 104.833C47.92 105.01 47.7071 106.386 47.7632 107.429C48.0234 112.309 48.535 117.187 49.679 121.95C49.8995 122.862 50.1414 123.768 50.4046 124.67C50.687 125.613 50.9957 126.553 51.3042 127.485C52.155 129.912 53.8777 133.675 56.4723 138.775C57.456 139.128 57.9328 138.533 57.9024 136.988C57.8799 135.852 48.1965 113.693 48.99 104.833Z"
          fill="#B5C1C9"/>
    <path d="M47.1808 107.678C47.5365 121.976 53.8388 134.592 56.1165 138.418C56.7794 139.541 57.3331 138.519 56.3596 136.87C54.0818 133.044 47.18 113.397 47.9883 105.641C47.4188 106.629 47.1496 107.308 47.1808 107.678Z"
          fill="white"/>
    <path d="M53.9447 104.103L51.7023 105.008C51.7511 105.36 51.8084 105.711 51.874 106.061C52.9398 110.614 56.4612 123.077 56.3217 119.614C56.0898 114.479 55.3531 109.379 54.1209 104.378C54.0999 104.287 54.037 104.195 53.9447 104.103Z"
          fill="white"/>
    <path d="M65.502 123.796L65.5891 122.857L57.1894 115.541L65.502 123.796Z" fill="white"/>
    <path d="M75.6147 129.194C74.0268 129.828 70.3166 130.535 64.4842 131.315C69.7374 128.484 73.1439 126.919 74.7037 126.622C77.0433 126.176 77.563 128.409 75.6147 129.194Z"
          fill="white"/>
    <path d="M58.9987 149.139L55.8562 140.701L59.2792 139.464L63.6042 140.559C63.6133 143.177 63.3821 145.082 62.9108 146.274C62.4395 147.465 61.1355 148.42 58.9987 149.139Z"
          fill="#B5C1C9"/>
    <path d="M54.6878 144.137L56.3295 148.686L49.9681 152.669L54.6878 144.137Z" fill="white"/>
    <path d="M73.8155 142.514L77.8511 141.71L77.7139 135.121L73.8155 142.514Z" fill="white"/>
    <path d="M80.196 153.095C77.2395 154.464 75.1011 155.288 73.7806 155.567C71.7998 155.986 72.0308 156.185 69.1126 154.942C68.6178 154.731 68.5303 156.181 70.2811 156.803C71.4484 157.217 72.6152 157.218 73.7817 156.806C76.5695 156.059 78.6385 155.287 79.9888 154.488C81.8038 153.414 82.4026 153.254 81.9445 151.238C81.9445 151.238 81.3617 151.857 80.196 153.095Z"
          fill="white"/>
    <path d="M73.4636 148.214C73.1525 148.408 72.6411 148.89 72.9558 150.652C73.2586 152.348 73.3 153.951 72.8742 154.035C71.459 154.316 71.856 154.884 69.7725 154.058C69.4193 153.918 69.3555 154.884 70.6056 155.297C71.4391 155.572 72.2725 155.572 73.1061 155.297C75.098 154.796 76.5765 154.279 77.5417 153.746C78.4065 153.267 78.4562 152.958 77.6908 152.817C76.7899 153.207 75.4534 151.951 75.4632 151.833C75.522 151.185 75.7856 150.612 75.1966 149.653C75.1063 149.501 74.9519 149.216 74.8304 148.881C74.1267 148.308 73.6711 148.086 73.4636 148.214Z"
          fill="white"/>
    <path d="M58.9759 101.245C58.6184 101.96 57.9499 106.404 59.3327 108.751C61.0842 111.723 65.8531 114.06 65.854 113.96C65.8548 113.86 65.7667 111.81 65.7669 110.538C65.7669 109.585 66.2436 109.465 67.1967 110.18L74.3454 116.257L76.4901 118.044C77.3287 117.331 78.4012 116.497 79.7074 115.542C81.6668 114.109 82.5673 113.397 84.3548 111.967C86.1422 110.538 84.7126 108.036 82.5677 109.465C80.4228 110.895 79.5767 111.419 75.3323 113.683C71.7673 110.086 68.8366 106.881 66.1248 104.819C63.413 102.757 60.4057 101.602 58.9759 101.245ZM53.3461 92.7225C53.3458 95.5085 52.9026 93.277 54.7749 95.5743C55.4371 96.3866 56.204 97.0001 57.1566 98.4259C57.6331 97 57.8538 96.9076 58.5861 95.5741C58.0221 97.7214 58.727 97.0844 57.9057 98.5532C58.5719 97.6315 58.952 97.5008 59.906 95.7608C59.3708 97.6692 58.8569 99.1261 58.646 99.3765C59.2233 98.9795 59.0899 99.1076 59.9335 98.1057C59.6154 98.8363 59.2299 99.5274 58.7986 100.164C61.5153 97.1645 62.8737 95.0007 62.8739 93.6727C62.8743 90.3914 61.1613 87.9692 57.8725 87.9693C54.5836 87.9695 53.3465 89.4413 53.3461 92.7225Z"
          fill="white"/>
    <path fill-rule="evenodd" clip-rule="evenodd"
          d="M93.1162 88.376L93.2931 98.0899C93.3175 99.4311 92.2386 100.539 90.8833 100.564L88.4484 100.609L88.5258 104.858C88.5441 105.864 87.7349 106.695 86.7184 106.714C85.7019 106.732 84.863 105.932 84.8447 104.926L84.7674 100.676L82.5817 100.717C81.2264 100.742 80.1079 99.6746 80.0835 98.3334L79.9066 88.6194L93.1162 88.376Z"
          fill="black" stroke="black" stroke-width="0.55" stroke-linecap="round" stroke-linejoin="round"/>
    <path d="M92.0457 94.8305L81.2144 95.0281C81.1464 95.0293 81.1 95.5084 81.1107 96.0981C81.1214 96.6878 81.1852 97.1649 81.2531 97.1637L92.0844 96.9661C92.1524 96.9649 92.1989 96.4858 92.1882 95.8961C92.1775 95.3063 92.1137 94.8293 92.0457 94.8305Z"
          fill="#B5C1C9"/>
    <path d="M87.8841 105.304L87.7595 98.3801C87.7587 98.3366 87.279 98.3102 86.688 98.321C86.097 98.3318 85.6185 98.3758 85.6193 98.4193C86.3894 101.557 86.7851 103.716 86.8063 104.896C86.8382 106.667 87.8849 105.347 87.8841 105.304Z"
          fill="#B5C1C9"/>
    <path d="M87.7054 105.305L87.6278 100.978C87.6277 100.969 86.9864 101.448 86.8442 101.931C86.5463 102.941 86.623 104.476 86.635 105.144C86.6526 106.131 87.7059 105.333 87.7054 105.305Z"
          fill="white"/>
    <path d="M90.3504 89.4985L90.4038 92.4263L89.4819 89.5144L87.8892 89.5437L87.9159 91.0076L87.4548 89.5517L81.121 89.6682C81.0531 89.6694 81.0169 90.7082 81.0402 91.9883C81.0636 93.2684 81.1376 94.3051 81.2056 94.3039L92.0347 94.1048C92.1013 94.1035 92.1373 93.1085 92.117 91.866L92.1155 91.7846C92.0922 90.5045 92.0181 89.4678 91.9502 89.4691L90.3504 89.4985Z"
          fill="#B5C1C9"/>
    <path d="M81.1213 89.6679C81.0563 89.6691 81.0207 90.636 81.0381 91.8628L81.0411 92.0487C81.0489 92.4764 81.0621 92.8775 81.0787 93.2241C82.4212 93.7896 83.7448 93.6872 84.5111 92.6111C85.5688 91.126 86.6524 90.7029 87.7956 90.571L87.4789 89.5512L81.1213 89.6679ZM87.915 89.5432L87.9336 90.5565C88.5421 90.4983 89.1676 90.5133 89.8153 90.4867L89.5136 89.5138L87.915 89.5432ZM90.3854 89.4978L90.4026 90.4485C90.8041 90.411 91.2143 90.3454 91.6343 90.2262C91.792 90.1815 91.9422 90.1304 92.0853 90.0734C92.0559 89.6962 92.0228 89.4677 91.9912 89.4683L90.3854 89.4978Z"
          fill="white"/>
    <path d="M87.7891 104.122C86.9945 104.262 86.5613 104.701 86.2761 104.931C86.086 105.084 85.7959 105.706 85.406 106.797C85.5304 106.793 85.483 106.847 85.3322 106.934C85.378 108.009 85.7555 109.017 86.4096 109.787C87.8827 109.274 89.1473 108.908 89.8707 108.384C90.6707 107.804 90.5574 107.032 89.8628 106.982C89.4068 107.148 89.8465 106.333 89.8419 106.215C89.8288 105.802 89.4893 105.975 89.0637 105.932C88.8181 105.908 89.51 105.303 89.199 105.158C89.0247 105.076 88.7263 105.018 88.577 104.868C88.46 104.75 89.1406 104.418 88.8671 104.246C88.5936 104.074 88.2284 104.044 87.7891 104.122Z"
          fill="white"/>
    <path fill-rule="evenodd" clip-rule="evenodd"
          d="M49.0147 146.888C49.6177 147.529 49.4454 148.432 48.8767 150.55C48.596 151.595 48.0181 152.171 47.6577 153.513C47.2973 154.855 48.007 155.363 47.7263 156.408C47.1576 158.526 45.4605 159.912 43.9357 159.505C42.411 159.097 41.636 157.05 42.2048 154.932C42.371 154.313 44.2262 149.452 45.5506 147.195C46.4628 145.64 48.4118 146.247 49.0147 146.888Z"
          fill="white"/>
    <mask id="path-85-inside-1_6891_2394" fill="white">
        <path fill-rule="evenodd" clip-rule="evenodd"
              d="M46.1169 155.003C44.5725 154.445 43.1707 153.851 42.0487 153.296C43.3116 153.585 44.857 154.043 46.4991 154.636C48.0434 155.194 49.4453 155.788 50.5673 156.343C49.3043 156.054 47.7589 155.596 46.1169 155.003Z"/>
    </mask>
    <path fill-rule="evenodd" clip-rule="evenodd"
          d="M46.1169 155.003C44.5725 154.445 43.1707 153.851 42.0487 153.296C43.3116 153.585 44.857 154.043 46.4991 154.636C48.0434 155.194 49.4453 155.788 50.5673 156.343C49.3043 156.054 47.7589 155.596 46.1169 155.003Z"
          fill="black"/>
    <path d="M46.1169 155.003L46.4565 154.062L46.1169 155.003ZM42.0487 153.296L42.2717 152.321L41.6054 154.192L42.0487 153.296ZM46.4991 154.636L46.8388 153.696L46.4991 154.636ZM50.5673 156.343L50.3443 157.318L51.0105 155.447L50.5673 156.343ZM46.4565 154.062C44.9414 153.515 43.5749 152.935 42.4919 152.399L41.6054 154.192C42.7665 154.766 44.2037 155.375 45.7772 155.943L46.4565 154.062ZM41.8257 154.271C43.0418 154.549 44.5478 154.995 46.1594 155.577L46.8388 153.696C45.1662 153.092 43.5814 152.621 42.2717 152.321L41.8257 154.271ZM46.1594 155.577C47.6746 156.124 49.0411 156.704 50.1241 157.24L51.0105 155.447C49.8494 154.873 48.4122 154.264 46.8388 153.696L46.1594 155.577ZM50.7903 155.368C49.5741 155.09 48.0681 154.644 46.4565 154.062L45.7772 155.943C47.4498 156.547 49.0345 157.018 50.3443 157.318L50.7903 155.368Z"
          fill="black" mask="url(#path-85-inside-1_6891_2394)"/>
    <mask id="path-87-inside-2_6891_2394" fill="white">
        <path fill-rule="evenodd" clip-rule="evenodd"
              d="M45.0221 152.429C43.6436 151.931 42.3917 151.402 41.389 150.91C42.5151 151.171 43.8938 151.583 45.3595 152.112C46.738 152.61 47.99 153.139 48.9926 153.631C47.8665 153.37 46.4878 152.958 45.0221 152.429Z"/>
    </mask>
    <path fill-rule="evenodd" clip-rule="evenodd"
          d="M45.0221 152.429C43.6436 151.931 42.3917 151.402 41.389 150.91C42.5151 151.171 43.8938 151.583 45.3595 152.112C46.738 152.61 47.99 153.139 48.9926 153.631C47.8665 153.37 46.4878 152.958 45.0221 152.429Z"
          fill="black"/>
    <path d="M45.0221 152.429L45.3618 151.488L45.0221 152.429ZM41.389 150.91L41.6151 149.936L40.9483 151.808L41.389 150.91ZM45.3595 152.112L45.6993 151.172L45.3595 152.112ZM48.9926 153.631L48.7665 154.605L49.4333 152.734L48.9926 153.631ZM45.3618 151.488C44.0118 151.001 42.7942 150.486 41.8297 150.012L40.9483 151.808C41.9891 152.319 43.2755 152.861 44.6824 153.369L45.3618 151.488ZM41.163 151.884C42.2434 152.135 43.5837 152.534 45.0198 153.053L45.6993 151.172C44.2038 150.632 42.7867 150.208 41.6151 149.936L41.163 151.884ZM45.0198 153.053C46.3699 153.541 47.5874 154.055 48.5519 154.529L49.4333 152.734C48.3925 152.223 47.1061 151.68 45.6993 151.172L45.0198 153.053ZM49.2187 152.657C48.1381 152.406 46.7979 152.007 45.3618 151.488L44.6824 153.369C46.1778 153.91 47.5948 154.333 48.7665 154.605L49.2187 152.657Z"
          fill="black" mask="url(#path-87-inside-2_6891_2394)"/>
    <mask id="path-89-inside-3_6891_2394" fill="white">
        <path fill-rule="evenodd" clip-rule="evenodd"
              d="M44.4378 150.307C43.5266 149.977 42.6992 149.628 42.0366 149.302C42.7812 149.474 43.6927 149.745 44.6616 150.095C45.5728 150.424 46.4002 150.774 47.0628 151.1C46.3181 150.928 45.4066 150.657 44.4378 150.307Z"/>
    </mask>
    <path fill-rule="evenodd" clip-rule="evenodd"
          d="M44.4378 150.307C43.5266 149.977 42.6992 149.628 42.0366 149.302C42.7812 149.474 43.6927 149.745 44.6616 150.095C45.5728 150.424 46.4002 150.774 47.0628 151.1C46.3181 150.928 45.4066 150.657 44.4378 150.307Z"
          fill="black"/>
    <path d="M44.4378 150.307L44.098 151.247L44.4378 150.307ZM42.0366 149.302L42.2617 148.327L41.5951 150.199L42.0366 149.302ZM44.6616 150.095L44.3219 151.036L44.6616 150.095ZM47.0628 151.1L46.8376 152.075L47.5043 150.203L47.0628 151.1ZM44.7775 149.366C43.8949 149.047 43.1023 148.711 42.4782 148.404L41.5951 150.199C42.296 150.544 43.1582 150.908 44.098 151.247L44.7775 149.366ZM41.8115 150.276C42.5102 150.437 43.3829 150.697 44.3219 151.036L45.0013 149.155C44.0025 148.794 43.0523 148.51 42.2617 148.327L41.8115 150.276ZM44.3219 151.036C45.2044 151.355 45.9971 151.69 46.6212 151.997L47.5043 150.203C46.8033 149.858 45.9412 149.494 45.0013 149.155L44.3219 151.036ZM47.2879 150.126C46.5892 149.964 45.7164 149.705 44.7775 149.366L44.098 151.247C45.0968 151.608 46.0471 151.892 46.8376 152.075L47.2879 150.126Z"
          fill="black" mask="url(#path-89-inside-3_6891_2394)"/>
    <path d="M91.5651 165.255L91.5591 165.294V165.333C91.5591 165.981 91.119 167.56 88.495 168.52C86.7816 169.085 84.7691 169.371 82.746 169.371C81.1542 169.371 79.535 169.192 78.1243 168.82C76.7042 168.446 75.5438 167.891 74.8195 167.173C74.2826 166.642 73.9329 166.03 73.9329 165.333V165.294L73.9268 165.255L71.2722 148.313C71.2914 146.589 72.6328 145.228 74.8504 144.272C77.0617 143.318 79.9832 142.849 82.746 142.849C85.663 142.849 88.3988 143.283 90.3855 144.126L90.3855 144.126L90.3901 144.128C92.0969 144.833 93.0467 145.658 93.5717 146.406C94.0824 147.133 94.2136 147.817 94.2198 148.313L91.5651 165.255Z"
          fill="black" stroke="black"/>
    <path d="M73.2774 149.139C73.391 149.283 73.5132 149.421 73.6417 149.552C75.4651 151.418 79.2778 152.266 82.9246 152.266C85.2454 152.266 87.5661 151.927 89.5553 151.248C91.065 150.679 92.0034 149.915 92.5713 149.162C92.574 149.219 92.5753 149.274 92.5753 149.327L90.4307 163.565C90.4307 164.301 89.9541 165.774 87.6904 166.633C86.2607 167.124 84.5926 167.369 82.9246 167.369C80.3034 167.369 77.5631 166.756 76.2525 165.406C75.776 164.915 75.4185 164.301 75.4185 163.565L73.2739 149.327L73.279 149.141L73.2774 149.139Z"
          fill="#B5C1C9"/>
    <path d="M90.3933 152C90.4312 152.769 90.442 153.59 90.4182 154.464C90.4182 160.672 89.1118 164.397 88.4586 165.225C87.8054 164.397 86.499 160.672 86.499 154.464C86.499 154.038 86.5052 153.623 86.5169 153.22C87.6167 153.054 88.6771 152.775 89.6453 152.385C89.8926 152.275 90.1219 152.158 90.3344 152.035L90.3933 152Z"
          fill="white"/>
    <mask id="path-94-inside-4_6891_2394" fill="white">
        <path d="M74.5609 149.596C74.6649 150.169 74.7821 150.779 74.9142 151.427C75.8174 156.039 76.6333 158.753 76.8908 159.342C76.9074 158.7 76.6396 155.88 75.7364 151.269C75.6743 150.952 75.6127 150.644 75.5517 150.345C75.2967 150.266 75.0337 150.102 74.7739 149.852C74.706 149.78 74.6408 149.702 74.5783 149.619L74.5609 149.596Z"/>
    </mask>
    <path d="M74.5609 149.596C74.6649 150.169 74.7821 150.779 74.9142 151.427C75.8174 156.039 76.6333 158.753 76.8908 159.342C76.9074 158.7 76.6396 155.88 75.7364 151.269C75.6743 150.952 75.6127 150.644 75.5517 150.345C75.2967 150.266 75.0337 150.102 74.7739 149.852C74.706 149.78 74.6408 149.702 74.5783 149.619L74.5609 149.596Z"
          fill="black"/>
    <path d="M74.5609 149.596L73.577 149.774L75.3648 149.001L74.5609 149.596ZM74.9142 151.427L75.894 151.227L75.8955 151.235L74.9142 151.427ZM76.8908 159.342L77.8905 159.368L75.9746 159.743L76.8908 159.342ZM75.7364 151.269L76.7177 151.076L75.7364 151.269ZM75.5517 150.345L75.8479 149.39L76.413 149.565L76.5314 150.145L75.5517 150.345ZM74.7739 149.852L74.0799 150.572L74.0633 150.556L74.0475 150.539L74.7739 149.852ZM74.5783 149.619L73.78 150.222L73.7745 150.214L74.5783 149.619ZM75.5449 149.417C75.6475 149.983 75.7633 150.586 75.894 151.227L73.9343 151.627C73.8008 150.972 73.6822 150.354 73.577 149.774L75.5449 149.417ZM75.8955 151.235C76.799 155.848 77.5983 158.464 77.807 158.941L75.9746 159.743C75.6683 159.042 74.8357 156.23 73.9328 151.619L75.8955 151.235ZM75.8911 159.316C75.9046 158.796 75.6585 156.074 74.755 151.461L76.7177 151.076C77.6206 155.687 77.9102 158.604 77.8905 159.368L75.8911 159.316ZM74.755 151.461C74.6935 151.147 74.6324 150.842 74.5719 150.546L76.5314 150.145C76.593 150.447 76.6552 150.757 76.7177 151.076L74.755 151.461ZM75.2554 151.3C74.8151 151.164 74.4212 150.901 74.0799 150.572L75.4679 149.132C75.6463 149.304 75.7783 149.369 75.8479 149.39L75.2554 151.3ZM74.0475 150.539C73.9512 150.437 73.8622 150.33 73.78 150.222L75.3767 149.017C75.4195 149.074 75.4609 149.123 75.5003 149.165L74.0475 150.539ZM73.7745 150.214L73.7571 150.191L75.3648 149.001L75.3822 149.025L73.7745 150.214Z"
          fill="black" mask="url(#path-94-inside-4_6891_2394)"/>
    <mask id="path-96-inside-5_6891_2394" fill="white">
        <path d="M76.2415 149.596C76.2895 149.883 76.347 150.188 76.4155 150.512C76.8671 152.818 77.4121 154.148 77.6094 154.429C77.6862 154.095 77.6893 152.659 77.2377 150.353C77.2067 150.195 77.1752 150.041 77.1435 149.892C76.9006 149.875 76.6579 149.814 76.4264 149.708C76.3666 149.678 76.3099 149.643 76.2564 149.606L76.2415 149.596Z"/>
    </mask>
    <path d="M76.2415 149.596C76.2895 149.883 76.347 150.188 76.4155 150.512C76.8671 152.818 77.4121 154.148 77.6094 154.429C77.6862 154.095 77.6893 152.659 77.2377 150.353C77.2067 150.195 77.1752 150.041 77.1435 149.892C76.9006 149.875 76.6579 149.814 76.4264 149.708C76.3666 149.678 76.3099 149.643 76.2564 149.606L76.2415 149.596Z"
          fill="black"/>
    <path d="M76.2415 149.596L75.2552 149.76L74.8583 147.385L76.8209 148.781L76.2415 149.596ZM76.4155 150.512L77.3938 150.304L77.3954 150.312L77.3969 150.32L76.4155 150.512ZM77.6094 154.429L78.5839 154.654L78.0806 156.841L76.7909 155.004L77.6094 154.429ZM77.2377 150.353L78.2191 150.161L77.2377 150.353ZM77.1435 149.892L77.2144 148.894L77.9649 148.948L78.1216 149.684L77.1435 149.892ZM76.4264 149.708L76.0113 150.618L75.9895 150.608L75.9682 150.597L76.4264 149.708ZM76.2564 149.606L75.6866 150.428L75.677 150.421L76.2564 149.606ZM77.2278 149.431C77.2734 149.704 77.3282 149.995 77.3938 150.304L75.4372 150.719C75.3657 150.381 75.3056 150.062 75.2552 149.76L77.2278 149.431ZM77.3969 150.32C77.6153 151.435 77.8541 152.303 78.0571 152.915C78.1587 153.222 78.2496 153.46 78.3222 153.629C78.4031 153.817 78.4411 153.874 78.4279 153.855L76.7909 155.004C76.5989 154.73 76.3755 154.199 76.1586 153.544C75.9268 152.845 75.6673 151.895 75.4341 150.704L77.3969 150.32ZM76.6348 154.205C76.6296 154.228 76.6436 154.162 76.6474 153.957C76.6508 153.774 76.6455 153.52 76.6239 153.197C76.5809 152.554 76.4748 151.661 76.2563 150.545L78.2191 150.161C78.4523 151.352 78.5703 152.329 78.6195 153.064C78.6654 153.752 78.6589 154.328 78.5839 154.654L76.6348 154.205ZM76.2563 150.545C76.2264 150.392 76.196 150.244 76.1654 150.1L78.1216 149.684C78.1545 149.838 78.187 149.997 78.2191 150.161L76.2563 150.545ZM77.0725 150.889C76.7115 150.864 76.3521 150.774 76.0113 150.618L76.8416 148.799C76.9637 148.854 77.0898 148.885 77.2144 148.894L77.0725 150.889ZM75.9682 150.597C75.8684 150.546 75.7746 150.489 75.6866 150.428L76.8262 148.784C76.8452 148.798 76.8647 148.809 76.8847 148.82L75.9682 150.597ZM75.677 150.421L75.6621 150.411L76.8209 148.781L76.8358 148.791L75.677 150.421Z"
          fill="black" mask="url(#path-96-inside-5_6891_2394)"/>
    <path d="M73.8961 156.295C73.848 155.966 73.8138 155.578 73.7941 155.13C74.2697 157.326 75.0004 160.079 76.1785 162.449C77.3897 164.885 78.9556 166.209 80.1564 167.019C79.773 166.917 79.3661 166.8 78.958 166.663C78.1714 166.398 77.4084 166.067 76.8153 165.648C76.2216 165.229 75.8456 164.756 75.7337 164.217C75.6511 163.819 75.4734 163.14 75.2596 162.324C75.1358 161.852 74.9999 161.333 74.8633 160.795C74.4854 159.308 74.0942 157.65 73.8961 156.295Z"
          fill="black" stroke="black"/>
    <path d="M82.7458 146.648C78.4601 146.514 75.9477 147.717 75.061 148.251C75.6522 148.786 78.3123 149.855 82.7458 149.855C87.1794 149.855 89.8395 148.786 90.4307 148.251C89.8395 147.717 87.1794 146.648 82.7458 146.648Z"
          fill="white"/>
    <path fill-rule="evenodd" clip-rule="evenodd"
          d="M240.285 23.4363C238.78 25.9138 235.55 26.8557 232.824 25.5267C230.099 24.1977 228.852 21.0731 229.876 18.3613L240.285 23.4363Z"
          fill="white"/>
    <path d="M240.604 38.7331L240.491 38.913L240.541 39.1192C240.887 40.5503 240.233 42.0676 238.909 42.7896C235.304 44.7561 232.517 46.2503 230.547 47.2739C230.306 47.3996 229.892 47.6378 229.401 47.9209C229.366 47.9411 229.33 47.9615 229.294 47.9821C228.75 48.2958 228.108 48.6648 227.459 49.0209C226.809 49.3776 226.16 49.7174 225.602 49.9739C225.02 50.2409 224.606 50.3843 224.396 50.4038C224.26 50.4164 224.115 50.431 223.961 50.4464C223.32 50.5108 222.539 50.5892 221.773 50.5904C221.301 50.5911 220.854 50.562 220.468 50.4869C220.076 50.4108 219.782 50.2942 219.586 50.145C219.341 49.9582 219.06 49.5865 218.783 49.1457C218.605 48.8612 218.457 48.5983 218.329 48.3688C218.329 48.3685 218.328 48.3682 218.328 48.368C220.128 46.7112 221.298 45.6216 221.833 45.1035C222.191 44.7567 222.227 44.2564 222.215 43.8839C222.206 43.6103 222.163 43.2933 222.124 43.0014C222.108 42.8846 222.093 42.7717 222.081 42.6672C222.033 42.2629 222.021 41.9379 222.081 41.6917C222.132 41.4808 222.229 41.3473 222.438 41.2609C222.724 41.1427 223.113 41.1726 223.676 41.5749C224.243 41.9803 224.905 42.7123 225.659 43.814L225.947 44.235L226.362 43.9356L236.186 36.8385L236.36 36.7122L236.39 36.4984L237.437 28.8156C238.561 26.2291 239.521 24.292 240.317 22.9914C240.72 22.3344 241.07 21.8576 241.367 21.5443C241.681 21.2138 241.868 21.1377 241.937 21.1299C242.423 21.0748 243.107 21.3615 243.677 22.4031C244.244 23.4414 244.647 25.1661 244.527 27.7441C244.369 31.1414 243.076 34.8022 240.604 38.7331Z"
          fill="black" stroke="black"/>
    <path d="M236.287 39.4981L237.756 41.1112C237.823 41.9503 237.326 42.8066 236.465 43.2433C233.893 44.5479 231.067 45.6089 227.986 46.4263C225.985 46.84 224.72 46.7892 224.192 46.2741L236.276 39.5589L236.287 39.4981Z"
          fill="white"/>
    <path d="M223.692 44.513C223.351 44.5495 223.061 44.4766 222.975 44.3213C222.719 43.8573 222.587 43.3369 222.577 42.7604C222.617 42.3824 222.767 42.135 223.027 42.0179L224.471 44.066L223.692 44.513Z"
          fill="white"/>
    <path d="M225.454 44.9135C226.328 45.3432 227.236 47.0286 227.298 47.8842C226.233 48.392 225.339 48.8719 224.631 49.0435C224.601 49.0698 224.567 49.092 224.529 49.1085C224.036 49.3236 223.496 49.475 222.908 49.5625C222.526 49.5926 222.287 49.5404 222.189 49.4058L223.475 48.7708C223.435 48.6863 223.424 48.5918 223.446 48.495C223.237 48.5456 222.981 48.5982 222.667 48.6545C221.025 48.8451 219.997 48.6887 219.581 48.185C221.792 46.3543 222.979 45.3821 223.143 45.2684C223.7 44.8816 224.58 44.4837 225.454 44.9135Z"
          fill="white"/>
    <path d="M239.339 28.5902L242.064 27.7076C242.238 29.5961 242.114 31.2876 241.692 32.7821C241.606 33.0859 240.609 33.3228 240.474 33.672C240.035 34.8063 240.222 36.2695 239.262 37.8822C238.597 38.305 238.19 37.3953 238.042 35.1532C237.894 32.9112 238.326 30.7235 239.339 28.5902Z"
          fill="white"/>
</svg>
