<svg width="1007" height="704" viewBox="0 0 1007 704" fill="none" xmlns="http://www.w3.org/2000/svg">
<path fill-rule="evenodd" clip-rule="evenodd" d="M364.7 520.9H356.2V512.4H364.7V503.8H356.2V495.3H364.7V486.8H373.2V478.2H364.7V486.8H356.2V478.2H364.7V469.7H356.2V478.2H347.7V486.8H339.2V478.2H330.7V486.8H322.2V478.2H330.7V469.7H322.2V478.2H313.7V469.7H305.2V478.2H313.7V486.8H305.2V495.3H313.7V503.8H305.2V512.4H313.7V520.9H322.2V529.4H330.7V520.9H339.2V529.4H347.7V520.9H356.2V529.4H364.7V520.9H373.2V512.4H364.7V520.9ZM313.7 520.9V529.4H305.2V521H313.7V520.9ZM339.2 478.2V469.7H347.7V478.2H339.2ZM364.7 495.2V503.8H373.2V495.3H364.7V495.2ZM322.2 486.8H313.7V495.3H322.2V486.8ZM322.2 529.4V537.9H330.7V529.4H339.2V537.9H347.7V529.4H356.2V537.9H364.7V529.4H373.2V537.9H364.7V546.5H356.2V537.9H347.7V546.5H339.2V537.9H330.7V546.5H322.2V537.9H313.7V546.5H305.2V537.9H313.7V529.4H322.2ZM356.2 512.4V503.8H347.7V512.4H356.2ZM339.2 512.4V520.9H347.7V512.4H339.2ZM330.7 512.4H339.2V503.8H330.7V512.4ZM330.7 512.4H322.2V520.9H330.7V512.4ZM330.7 495.3H322.2V503.8H330.7V495.3ZM339.2 495.3V486.8H330.7V495.3H339.2ZM347.7 495.3H339.2V503.8H347.7V495.3ZM347.7 495.3H356.2V486.8H347.7V495.3ZM322.2 503.8V512.4H313.7V503.8H322.2ZM381.7 478.2H373.2V469.7H381.7V478.2ZM373.2 495.2H381.7V486.8H373.2V495.3V495.2ZM381.7 512.4H373.2V503.8H381.7V512.4ZM373.2 529.4H381.7V521H373.2V529.5V529.4ZM373.2 546.4H381.7V538H373.2V546.6V546.4Z" fill="#131519"/>
<path fill-rule="evenodd" clip-rule="evenodd" d="M802.7 445H794.2V436.5H802.7V427.9H794.2V419.4H802.7V410.9H811.2V402.4H802.7V410.9H794.2V402.4H802.7V393.8H794.2V402.3H785.7V410.9H777.2V402.3H768.7V410.9H760.2V402.3H768.7V393.8H760.2V402.3H751.7V393.8H743.2V402.3H751.7V410.9H743.2V419.4H751.7V427.9H743.2V436.5H751.7V445H760.2V453.5H768.7V445H777.2V453.5H785.7V445H794.2V453.5H802.7V445H811.2V436.5H802.7V445ZM751.7 445V453.5H743.2V445H751.7ZM777.2 402.3V393.8H785.7V402.3H777.2ZM802.7 419.3V427.9H811.2V419.4H802.7V419.3ZM760.2 410.9H751.7V419.4H760.2V410.9ZM760.2 453.5V462H768.7V453.5H777.2V462H785.7V453.5H794.2V462H802.7V453.5H811.2V462H802.7V470.6H794.2V462H785.7V470.6H777.2V462H768.7V470.6H760.2V462H751.7V470.6H743.2V462H751.7V453.5H760.2ZM794.2 436.5V427.9H785.7V436.5H794.2ZM777.2 436.5V445H785.7V436.5H777.2ZM768.7 436.5H777.2V427.9H768.7V436.5ZM768.7 436.5H760.2V445H768.7V436.5ZM768.7 419.4H760.2V427.9H768.7V419.4ZM777.2 419.4V410.9H768.7V419.4H777.2ZM785.7 419.4H777.2V427.9H785.7V419.4ZM785.7 419.4H794.2V410.9H785.7V419.4ZM760.2 427.9V436.5H751.7V427.9H760.2ZM819.7 402.3H811.2V393.8H819.7V402.3ZM811.2 419.3H819.7V411H811.2V419.5V419.3ZM819.7 436.5H811.2V427.9H819.7V436.5ZM811.2 453.5H819.7V445H811.2V453.5ZM811.2 470.5H819.7V462H811.2V470.6V470.5ZM59.7001 172.5H51.3V164H59.7001V155.5H51.3V146.9H59.7001V138.4H68.2V130H59.7001V138.5H51.3V130H59.7001V121.5H51.2001V130H42.8V138.5H34.3V130H25.8V138.5H17.3V130H25.8V121.5H17.3V130H8.80005V121.5H0.300049V130H8.80005V138.5H0.300049V147H8.80005V155.6H0.300049V164.1H8.80005V172.6H17.3V181.2H25.8V172.6H34.3V181.2H42.8V172.6H51.2001V181.2H59.7001V172.6H68.2V164H59.7001V172.5ZM8.80005 172.5V181.1H0.300049V172.5H8.80005ZM34.3 130V121.5H42.8V130H34.3ZM59.7001 147V155.6H68.2V147H59.7001ZM17.3 138.5H8.80005V147H17.3V138.5ZM17.3 181.2V189.7H25.8V181H34.3V189.5H42.8V181H51.3V189.5H59.7001V181H68.2V189.5H59.7001V198H51.2001V189.5H42.8V198H34.3V189.5H25.8V198H17.3V189.5H8.80005V198H0.300049V189.5H8.80005V181H17.3V181.2ZM51.3 164.2V155.6H42.8V164.1H51.2001L51.3 164.2ZM34.3 164.2V172.6H42.8V164H34.3V164.2ZM25.8 164.2H34.3V155.6H25.8V164.1V164.2ZM25.8 164.2H17.3V172.6H25.8V164V164.2ZM25.8 147H17.3V155.6H25.8V147ZM34.3 147V138.5H25.8V147H34.3ZM42.8 147H34.3V155.6H42.8V147ZM42.8 147H51.2001V138.5H42.8V147ZM17.3 155.6V164.1H8.80005V155.6H17.3ZM76.7 130H68.2V121.5H76.7V130ZM68.2 147H76.7V138.5H68.2V147ZM76.7 164.1H68.2V155.6H76.7V164.1ZM68.2 181.1H76.7V172.6H68.2V181.2V181.1ZM68.2 198.2H76.7V189.7H68.2V198.2ZM960 607.6H951.6V599H960.1V590.4H951.6V582H960.1V573.5H968.6V565H960V573.5H951.5V565H960V556.4H951.5V565H943V573.5H934.5V565H926V573.5H917.5V565H926V556.4H917.5V565H909V556.4H900.5V565H909V573.5H900.5V582H909V590.5H900.5V599.1H909V607.6H917.5V616.1H926V607.6H934.5V616.1H943V607.6H951.5V616.1H960V607.6H968.5V599.1H960V607.6ZM909.1 607.6V616.1H900.6V607.6H909.1ZM934.6 565V556.4H943.1V565H934.6ZM960.1 582V590.5H968.6V582H960H960.1ZM917.6 573.5H909V582H917.5V573.5H917.6ZM917.6 616.1V624.6H926.1V616.1H934.6V624.6H943.1V616.1H951.6V624.6H960.1V616.1H968.6V624.6H960V633.2H951.5V624.6H943V633.2H934.5V624.6H926V633.2H917.5V624.6H909V633.2H900.5V624.6H909V616.1H917.5H917.6ZM951.6 599.1V590.5H943V599.1H951.5H951.6ZM934.6 599.1V607.6H943.1V599H934.6V599.1ZM926.1 599.1H934.6V590.5H926V599.1H926.1ZM926.1 599.1H917.6V607.6H926.1V599V599.1ZM926.1 582H917.6V590.5H926.1V582ZM934.6 582V573.5H926V582H934.5H934.6ZM943.1 582H934.6V590.5H943.1V582ZM943.1 582H951.6V573.5H943V582H943.1ZM917.6 590.5V599.1H909V590.5H917.5H917.6ZM977 565H968.5V556.4H977V565ZM968.5 582H977V573.5H968.5V582ZM977 599H968.5V590.5H977V599.1V599ZM968.5 616.1H977V607.6H968.5V616.1ZM968.5 633.1H977V624.6H968.5V633.2V633.1Z" fill="#181C20"/>
<path fill-rule="evenodd" clip-rule="evenodd" d="M156.3 658H147.8V649.5H156.3V640.9H147.8V632.4H156.3V623.9H164.8V615.4H156.3V623.9H147.8V615.4H156.3V606.8H147.8V615.3H139.3V623.9H130.8V615.3H122.3V623.9H113.8V615.3H122.3V606.8H113.8V615.3H105.3V606.8H96.8V615.3H105.3V623.9H96.8V632.4H105.3V640.9H96.8V649.5H105.3V658H113.8V666.5H122.3V658H130.8V666.5H139.3V658H147.8V666.5H156.3V658H164.8V649.5H156.3V658ZM105.3 658V666.5H96.8V658H105.3ZM130.8 615.3V606.8H139.3V615.3H130.8ZM156.3 632.3V640.9H164.8V632.4H156.3V632.3ZM113.8 623.9H105.3V632.4H113.8V623.9ZM113.8 666.5V675H122.3V666.5H130.8V675H139.3V666.5H147.8V675H156.3V666.5H164.8V675H156.3V683.6H147.8V675H139.3V683.6H130.8V675H122.3V683.6H113.8V675H105.3V683.6H96.8V675H105.3V666.5H113.8ZM147.8 649.5V640.9H139.3V649.5H147.8ZM130.8 649.5V658H139.3V649.5H130.8ZM122.3 649.5H130.8V640.9H122.3V649.5ZM122.3 649.5H113.8V658H122.3V649.5ZM122.3 632.4H113.8V640.9H122.3V632.4ZM130.8 632.4V623.9H122.3V632.4H130.8ZM139.3 632.4H130.8V640.9H139.3V632.4ZM139.3 632.4H147.8V623.9H139.3V632.4ZM113.8 640.9V649.5H105.3V640.9H113.8ZM173.3 615.3H164.8V606.8H173.3V615.3ZM164.8 632.3H173.3V624H164.8V632.5V632.3ZM173.3 649.5H164.8V640.9H173.3V649.5ZM164.8 666.5H173.3V658H164.8V666.5ZM164.8 683.5H173.3V675H164.8V683.6V683.5Z" fill="#4038FF"/>
<path fill-rule="evenodd" clip-rule="evenodd" d="M449.6 546.5H458.1V623.2H449.6V546.5ZM441.1 546.5H432.6V623.2H441.1V546.5ZM424.1 546.5H415.6V623.2H424.1V546.5ZM398.6 546.5H407.1V623.2H398.6V546.5ZM390.1 546.5H381.7V623.2H390.1V546.5ZM998.5 228H1007V304.7H998.5V228ZM990 228H981.5V304.7H990V228ZM973 228H964.5V304.7H973V228ZM947.5 228H956V304.7H947.5V228ZM939.1 228H930.6V304.7H939.1V228ZM458.9 406.2V414.7H382.4V406.2H459H458.9ZM458.9 397.7V389H382.4V397.6H459L458.9 397.7ZM458.9 380.7V372H382.4V380.5H459L458.9 380.7ZM458.9 355V363.6H382.4V355H459H458.9ZM458.9 346.5V338H382.4V346.5H459H458.9ZM743.2 538.8V547.3H666.8V538.8H743.2ZM743.2 530.3V521.8H666.8V530.3H743.2ZM743.2 513.3V504.7H666.8V513.2H743.2V513.3ZM743.2 487.6V496.2H666.8V487.6H743.2ZM743.2 479.1V470.6H666.8V479.1H743.2Z" fill="#131519"/>
<path fill-rule="evenodd" clip-rule="evenodd" d="M816.4 76.8H824.9C824.926 66.7323 822.968 56.7582 819.136 47.4481C815.305 38.138 809.675 29.6745 802.57 22.5417C795.465 15.4088 787.024 9.74652 777.729 5.87862C768.434 2.01073 758.468 0.0131089 748.4 0V8.5C757.355 8.49991 766.222 10.2687 774.492 13.7047C782.762 17.1408 790.271 22.1765 796.59 28.5227C802.908 34.8689 807.91 42.4006 811.31 50.6854C814.71 58.9702 816.439 67.8449 816.4 76.8ZM799.4 76.8H807.9C807.9 43.8 781.3 17.1 748.4 17.1V25.6C755.114 25.5999 761.762 26.9257 767.963 29.5012C774.164 32.0767 779.795 35.8512 784.533 40.6082C789.272 45.3652 793.024 51.011 795.575 57.2217C798.127 63.4324 799.426 70.0858 799.4 76.8ZM790.9 76.8H782.4C782.426 72.3183 781.566 67.8755 779.869 63.7273C778.173 59.5792 775.672 55.8074 772.513 52.629C769.353 49.4506 765.596 46.9282 761.457 45.2071C757.319 43.4859 752.882 42.5999 748.4 42.6V34.1C771.9 34.1 790.9 53.2 790.9 76.8ZM765.4 76.8H773.9C773.913 73.4429 773.263 70.1162 771.988 67.0109C770.712 63.9055 768.836 61.0826 766.467 58.7041C764.097 56.3256 761.282 54.4383 758.181 53.1506C755.081 51.8629 751.757 51.2 748.4 51.2V59.7C752.909 59.7 757.233 61.4911 760.421 64.6792C763.609 67.8673 765.4 72.1913 765.4 76.7V76.8ZM748.4 76.8H756.9C756.9 72.1 753.1 68.2 748.4 68.2V76.8Z" fill="#2F2FF4"/>
<path d="M184.2 260.6H260.6V337.4C250.541 337.374 240.585 335.366 231.302 331.493C222.018 327.619 213.588 321.955 206.494 314.823C199.4 307.691 193.779 299.232 189.954 289.929C186.129 280.625 184.174 270.659 184.2 260.6ZM582.3 627.2H658.7V704C648.641 703.974 638.685 701.966 629.402 698.093C620.118 694.219 611.688 688.555 604.594 681.423C597.5 674.292 591.879 665.832 588.054 656.529C584.229 647.225 582.274 637.259 582.3 627.2ZM884.2 13.5H960.6V90.3C950.541 90.2738 940.585 88.2665 931.302 84.3927C922.018 80.5189 913.589 74.8546 906.494 67.723C899.4 60.5915 893.779 52.1324 889.954 42.8288C886.129 33.5252 884.174 23.5593 884.2 13.5Z" fill="#131519"/>
<path fill-rule="evenodd" clip-rule="evenodd" d="M18.4 516.6H10V593.4H18.5V516.6H18.4ZM43.9 516.6H52.4V593.4H44V516.6H43.9ZM69.4 516.6H61V593.4H69.5V516.6H69.4ZM86.4 516.6H77.9V593.4H86.4V516.6ZM26.9 516.6H35.4V593.4H27V516.6H26.9ZM221.3 71.6H212.8V148.4H221.3V71.6ZM246.8 71.6H255.3V148.4H246.8V71.6ZM272.3 71.6H263.8V148.4H272.3V71.6ZM289.3 71.6H280.8V148.4H289.3V71.6ZM229.8 71.6H238.3V148.4H229.8V71.6Z" fill="#131519"/>
<path d="M824.3 560L194.3 561.4V189.5H233.6V220.8H265.8V124.6H321.7V158.3H439V124.6H529.8V158.3H572.6V129.3C572.6 126.7 574.7 124.6 577.3 124.6H696.2V189.6L763.2 188.1V154.8H824.3V560Z" fill="#C4C3C6"/>
<path fill-rule="evenodd" clip-rule="evenodd" d="M313.7 124.6L322.2 124.7L322.6 145.1L315.3 158.1L313.7 124.6ZM815 154.7H824.3V215.5L815.1 217.7V154.7H815ZM583.5 190.5L577.9 190.4L602.9 191V219.7L602.7 219C603 221.9 435.7 217.8 434.7 218.7L406.1 221.6L405.7 218.7L427.7 218.3C437.4 218.1 439.8 219.4 449.4 219.3C453.4 219.1 454.9 220.6 455 217.2L454.9 199.2C454.9 195.7 453.3 194.4 449.3 194.4C431 194.7 406.9 195.4 388.6 195.8C370.2 196.2 367.2 191.8 367.1 191.5L412.2 191.1C416.8 191 418.3 189.6 418.3 185.6L418.2 168.2C418.2 164.6 416.5 163.2 412.4 163.2C405.3 163.4 400.2 161.1 400.1 159.8H400.9C420.1 159.4 429.9 159 449 158.8C453.2 158.7 462 157.8 466.5 157.8H495L524 157.9C524 157.9 526.6 139.2 524 133.3C522 128.7 510.2 126.3 510.2 126.3H529.8V163.3L524.8 163H502.9C498.9 163 497.3 164.4 497.2 167.9V185.9C497.2 189.9 583.6 190.5 583.6 190.5H583.5ZM468 194.7C464 194.7 462.6 196.1 462.5 199.8V215.8C462.5 219.7 464.1 221 468.2 221.1C477 221.1 485.9 219.6 494.7 219.7L521.8 219.8C525.7 219.8 527.2 219.8 527.2 216.2L527.3 199.9L522.1 194.9L467.9 194.6L468 194.7ZM541.2 193.5C536.9 193.5 535.6 194.7 535.5 198.6V214.8C535.5 218.6 536.8 218.4 541.2 218.4C549.9 218.4 558.6 219.9 567.3 219.9L592.2 220.1L597.7 215.5L597.9 198.8C597.9 195.2 596.5 194 592.4 193.9L541.2 193.5ZM487 164.5H486.7L429 165.5C424.8 165.5 423.2 167 423.2 170.5V187L430.2 190C439.5 189.9 448.6 190.2 457.9 190C467.5 189.9 477.2 190.2 486.9 190C491.2 190 492.6 190 492.6 186.4V169.5C492.6 166 491.2 164.6 487.2 164.5H487Z" fill="white"/>
<path fill-rule="evenodd" clip-rule="evenodd" d="M588 185.6L582.5 185.5L611.3 186.2L610.3 214.1V214.8C610.7 217.6 612.3 218.5 616.5 218.5L642.5 218.8H647.8V221C647.8 221 433.1 220 432.2 221H403.6L403.2 218.1L425.2 217.7L454.1 217.2C458.1 217.1 459.6 215.7 459.6 212.2V194.2C459.5 190.8 457.9 189.5 453.9 189.5C435.6 189.8 386.1 190.5 367.7 190.9L365.4 187.4C365.4 187.2 410.7 186.4 416.9 186.2C421.4 186.1 422.9 184.7 422.9 180.7V163.3C422.8 159.7 421.2 158.3 417 158.3C409.9 158.5 407.3 157.9 400.1 158.1V154.9H400.9C420.1 154.5 434.6 154.1 453.7 153.9C457.9 153.8 459.4 152.4 459.4 148.8V111.8C459.4 110.6 459.2 109.6 458.9 108.8H465.1V147.5C465.1 151.5 466.7 153 471.1 153H528.6L533.4 148.7V158.1H507.4C503.4 158.1 501.8 159.5 501.7 163V181C501.7 185 503.2 186.3 507.7 186.3L564.9 186.4C566.9 186.4 568.2 186.2 569.1 185.6H588.1H588ZM472.7 189.7C468.8 189.7 467.3 191.2 467.3 194.9V210.9C467.3 214.8 468.8 216.1 472.9 216.1L499.4 216.2L526.5 216.4C530.4 216.4 531.9 214.9 532 211.3V195L526.8 190L472.7 189.7ZM546 188.6C541.6 188.6 540.3 189.8 540.3 193.6L540.2 209.9C540.2 213.7 541.6 214.9 545.9 214.9L572.1 215L599.2 215.2L604.7 210.6L605 193.9C605 190.3 603.5 189.1 599.4 188.9L546 188.6ZM491.7 159.6H491.4L433.7 160.6C429.5 160.6 427.9 162.1 427.9 165.6L428 182.1L434.6 187.4L462.6 186.9L491.3 186.5C495.8 186.5 497.3 185.1 497.3 181.5V164.6C497.3 161.1 495.9 159.7 492 159.6H491.7ZM839 343.6C836.4 341 829.2 339.2 823.2 340.6C817.117 341.734 811.708 345.173 808.1 350.2C805.2 353.4 805 356.9 807.4 360.4C806.8 363.8 806.4 366.6 806.7 369.9C805.9 372.7 808 374.6 809.6 376.2C811.4 378 811.4 379.5 810.5 381.5C808.8 383.5 807.2 381.9 805.5 383.6L804 384.6C801 385.3 796.6 385 793.5 385.6C785.4 386.9 784.3 396.2 779.8 401.3C776.3 405.4 780.3 411.7 781 416.1C781.9 421.5 781.7 426.9 780.6 432.2C779.6 436.6 778 440.9 778.1 445.2C778.1 449.9 780.3 454.5 780.1 459.2C779.7 467.9 768.3 478.6 774.4 487.2C775.2 488.4 776.4 489.4 776.8 490.7C777.1 492 777.1 493.4 776.8 494.7C775.1 502.4 773.1 510.1 772.8 518C772.3 526 775.2 534.2 773.8 542.2L773.6 543.3C772.3 550.1 769.9 556.7 769.6 563.6C769.2 569.4 786.4 585.3 809.7 593.6C833.1 602 859.1 595.8 860 596C876 598.4 865.7 537 874 487.4C880.2 450.6 877.5 414.4 869.2 399.9C867.6 394.1 861.8 391.6 856.2 389.4C850.5 387.2 847.7 384.5 842.4 381.4C842.4 378.9 838.9 381.7 839.4 379.2L839.7 379C842 378.9 841.9 377 842.4 375.6C841.4 372.6 845.9 365.9 846.4 363.2C847.4 357 843.8 348 839 343.6Z" fill="black"/>
<path d="M824.9 442C825.1 451.5 822.9 459.8 819.5 468.6C809.611 445.67 802.98 421.468 799.8 396.7C799.6 394.9 799.8 392.5 801.8 392.2C804.428 411.111 809.192 429.663 816 447.5C817 448.5 818 447.5 817.7 446.3C813.163 431.12 809.491 415.695 806.7 400.1C806.2 396.7 806 393.3 806 389.9C809.3 388.1 814.3 385.4 816.8 386.9C817.6 395.4 820.3 403.7 821.1 412.3C821.038 414.85 821.659 417.371 822.9 419.6C823.4 427.1 824.6 434.6 824.9 442ZM846.6 445.8C841.2 443 837.6 437.6 833.3 433.2C831.7 431.6 829.1 431.8 831.3 434.2L836.1 438.9L845.5 447.9C845.9 448.2 846.2 448.5 846.4 448.9C846.6 449.5 846.7 450.2 846.6 450.8C846.2 455.7 846.2 460.6 846.6 465.4C846.9 468 847.3 470.8 846.4 473.2C846.6 472.5 842.7 468 842.2 467.2C839.8 463.7 837.4 460.2 835.2 456.6C832.7 452.6 828.8 448.6 828.1 443.9C827.7 441.4 828.2 438.8 828.1 436.3C828 433.6 827.6 431 827.1 428.3C826.7 426.8 826.5 425.3 826.5 423.6C826.5 423.4 826.5 423.1 826.7 422.9C827.2 422.3 828.1 422.7 828.7 423.1C833.7 426.5 839 429.3 844.7 431.4C845.7 431.8 846.9 432.3 847.3 433.4C847.5 433.9 847.6 434.4 847.5 435C847.3 438.6 847.1 442.2 846.6 445.8Z" fill="#C4C3C6"/>
<path d="M788.7 405.3C788.4 418.9 791.3 433.3 794.7 446.5C803.92 478.608 819.269 508.627 839.9 534.9C841.4 536.9 844.3 540 847.2 538.5C846.8 538.7 835.6 522.5 834.6 521.1C830.4 515.1 826.3 509 822.6 502.7C812.321 485.535 804.48 467.025 799.3 447.7C795.9 433.7 794.3 419.4 793.6 405C793.4 402 794 397.9 797.3 397.4C794.9 423.4 807.6 448.4 819.1 472.1C827.5 489.7 835.6 507.6 845.6 524.4C846.9 526.5 848.2 528.6 850.2 530.1C846.9 523.8 843.7 517.6 840.3 511.5C833.249 498.225 826.645 484.718 820.5 471C820.9 471 821.4 471 821.8 470.8C822.3 471.2 824 471.2 824.2 470.7C826.687 465.083 828.435 459.167 829.4 453.1C833.838 460.119 838.507 466.99 843.4 473.7C844.5 475.2 847.4 477.8 847.7 479.5C851.4 494.7 854.7 509.9 856.1 525.5C857 535.1 856.6 544.8 856.5 554.5C856.5 558.2 856.3 562 856 565.8C851.9 561.6 847.9 557.2 844.1 552.7C826.904 532.924 813.573 510.095 804.8 485.4C806.1 491.8 815.6 519.4 824.4 533.6C833.6 548.5 844.4 560.3 849.1 565.5C850.5 566.9 851.7 568.5 852.7 570.3C855.2 575.3 854.7 578.6 852.7 583.9C836.339 571.724 823.08 555.861 814 537.6C804.9 519.8 799.1 500.6 795.3 481.1C790.3 456.1 788.1 430.7 788.7 405.3Z" fill="#C4C3C6"/>
<path d="M796.6 408C797.306 423.802 799.822 439.471 804.1 454.7L806.6 462.3C811.179 474.725 817.009 486.653 824 497.9C827.6 503.6 831.4 509.2 835.4 514.7C837.6 517.7 840.2 519.9 841.3 523.6C842.5 527.9 843.8 531.6 846.6 535.4L834.6 519.3C830.6 513.8 826.8 508.2 823.3 502.4C813.621 486.689 806.215 469.687 801.3 451.9C798.212 439.006 796.371 425.846 795.8 412.6C795.7 411 795.9 409.3 796.6 407.8V408ZM814.3 398.3C817.4 413.2 819.1 428.3 819.3 443.5C819.3 453.8 818.6 446.5 817.6 444.7L816.9 443.5V443.3C813.157 430.016 810.021 416.569 807.5 403C807 399.7 806.8 396.3 806.8 393L807.8 392.4C807.8 394.3 813.9 396.4 814.3 398.3Z" fill="white"/>
<path d="M788.4 409.4V409V410.6C787.8 420.4 788.7 430.3 789.7 440C792.5 465.8 796.2 491.6 805.1 516C814.1 540.4 828.6 563.5 850 579.2C851.2 581 852.1 580.9 851.2 585C829.805 568.535 813.566 546.294 804.4 520.9C795.4 496.5 791.8 470.6 789 444.9C787.278 433.141 787.076 421.21 788.4 409.4Z" fill="white"/>
<path fill-rule="evenodd" clip-rule="evenodd" d="M812.8 357L812 358.5L811.8 359.7C811.7 360.7 812.1 361.7 813 362.4C813.441 362.667 813.967 362.754 814.47 362.642C814.973 362.53 815.414 362.229 815.7 361.8L815.9 361.1C815.9 360.8 816 360.4 816.3 360.1C816.5 359.8 816.9 359.7 817.2 359.5C817.5 359.4 817.9 359.2 818.1 358.9L818.3 358.4C818.5 358.1 818.6 357.8 818.8 357.7L819.6 357.8L819.9 357.9C820.6 358 821.1 357.7 821.6 357.3L822.8 356.8C823.7 356.6 824.5 357 825.2 357.4L826.2 357.9L827.5 358.3C828 358.3 828.5 358.5 829 358.7C830 359.2 830.3 360 830.5 360.8C830.8 361.5 831 362.2 831.7 362.8L832 363C832.4 363.2 832.7 363.4 832.8 363.7L832.7 364.5C832.1 365.8 831.5 367.1 830.7 368.2C827.298 368.003 823.885 368.103 820.5 368.5C818.7 368.9 816.2 369.3 815.5 368.9C815.1 368.6 814.6 368.6 814.2 368.9C813.6 369.2 813.4 369.9 813.8 370.5L813.9 370.8V371.5C813.9 371.7 813.9 372 814.1 372.2C813.8 373.6 814.3 375 815.3 376.1C818.3 380.1 826.7 381.2 829.8 376.7L830.5 375.5L831.5 373.8L832.4 372.9C833.1 372.1 833.8 371.4 834 370.4C834 369.8 834.2 369.2 834.5 368.6L834.8 368.3L835.3 367.8L835.4 367.1V366.5C835.5 366.2 835.8 365.9 836.1 365.6L836.4 365.3C838.3 363.3 836.8 359.9 835.7 357.3C835.445 356.675 835.211 356.041 835 355.4V355.3C834.5 354 833.8 352.1 832.5 351.5C832.169 351.444 831.831 351.444 831.5 351.5C830.8 351.3 830.2 350.9 829.6 350.5C829 350 828.5 349.6 827.8 349.5C827.5 349.5 827.3 349.5 827.1 349.3C826.941 349.156 826.806 348.987 826.7 348.8C826.2 348.1 825.7 348.3 825.3 348.5C825.106 348.564 824.904 348.597 824.7 348.6H822.7C822.2 348.8 821.7 349.3 821.4 349.8C820.9 349.5 820.2 349.5 819.8 349.9C819.3 350.3 818.8 350.7 818.3 350.9C818.1 351.1 817.9 351.1 817.8 351.1C817.6 351.1 817.4 351.1 817.2 351.3C816.8 351.4 816.5 351.7 816.2 352C815 353 814.2 354.4 813.5 355.7L812.8 356.9V357ZM823.1 371.3L824.4 371.5C825.515 371.457 826.622 371.289 827.7 371C826.864 372.149 825.702 373.02 824.365 373.502C823.028 373.983 821.577 374.052 820.2 373.7L817.2 372.7L817.4 372.3L817.9 371.9C819.4 370.9 821.3 371.1 823.1 371.3Z" fill="white"/>
<path d="M858.9 471.7C861 474.8 860.6 481.6 860.9 485.3C860.9 486.9 862.2 493.9 860.4 495C859.4 495.6 856.8 486.7 856.6 486C856 483.8 855 481.5 855.4 479.4C855.8 476.8 857 473.4 858.9 471.7ZM781 475.7C781.4 474.1 781.6 472.4 782.8 471.2C784.1 469.7 785.8 468.6 787.8 467.9L788 467.5L788.3 467.7C789.3 469 789.3 472.1 789.5 473.7C789.6 474.6 790.5 477.8 789.3 478.9C788.7 479.6 786.9 475.9 786.7 475.5L786 473.9L784.2 476.8C783.6 477.8 781.6 482.6 779.9 482.7C778.9 482.7 780.8 476.2 780.9 475.7H781ZM827.5 386.7V385.5C827.5 385.2 827.8 384.8 828.1 384.6L830.6 382.2C830.2 387.2 833.2 390.8 837.9 392C842.7 393.3 847.8 394.7 851.3 398.2C854.3 401.1 859 403.6 859.9 407.6C860.4 409.8 863.7 421.3 864.1 431.2C864.5 446.2 861.9 461.2 861.6 463C861.3 465.6 859.3 468.4 857.2 463.2C855.5 459.2 856.5 458.3 856.6 454.2C856.8 448.9 856.7 443.6 856.5 438.4C856 427.6 856 412.6 847.3 404.8C848 407.3 848.4 410 848.5 412.8C848.6 416.5 848.5 420.3 848.2 424C848.2 424.6 848.1 425 847.8 425.5C847.604 425.73 847.358 425.913 847.08 426.034C846.803 426.155 846.502 426.212 846.2 426.2C844.9 426.2 843.7 425.9 842.7 425.3C841.6 424.7 840.9 423.3 840.1 422.3C838.321 420.187 836.653 417.984 835.1 415.7C832.3 411.7 824 400.5 829.7 396.1C830.4 395.5 831 394.8 831.3 394.1C832.1 391.6 828.3 389.7 827.5 386.7Z" fill="white"/>
<path fill-rule="evenodd" clip-rule="evenodd" d="M783.5 489.8L781.9 485.8L779.6 480.2C778 476.1 776.6 472 775.8 467.6C774.8 465.9 774.4 464 773.9 462.1L772.4 457.4C770.833 452.253 769.031 447.182 767 442.2C763.1 433 759.7 423.6 756.2 414.2L755.2 411.6C753.1 405.6 750.5 399.9 748 394.1C745.9 389.4 743.8 384.6 742 379.8C739.5 373.8 736.9 367.8 734.2 361.9C731.5 356.2 728.9 350.4 726.6 344.6C725.8 342.4 724.6 341.6 722.2 341.8H721.9C718.4 342.1 716.7 342.3 715.5 343.2C714.4 344.1 713.8 345.7 712.7 349V349.1C711.4 352.6 710.9 355.7 712.9 359.3C714.9 362.9 716.7 366.6 717.9 370.9H711.8L698 370.6L688.5 370.4L674.8 370C673.5 370 672.8 369.7 672.3 368.4C670.2 363.6 668.4 358.7 666.7 353.7L663 343.6C662.4 342.1 661.7 341.4 660.2 341.4L658.4 341.5C657.4 341.6 656.2 341.7 655.1 341.6C651.7 341.4 650.1 343 649.4 346.2L648.9 348L648.5 349.1C647.1 354.1 646.7 358.6 648.9 363.6C653 373.3 656.5 383.3 659.9 393.2C661.6 398.2 663.6 403.2 665.5 408.2C668.22 414.872 670.688 421.643 672.9 428.5C674.4 433.5 676.1 438.5 677.8 443.3L680.4 451L681.2 454L681.6 455.4L682.2 457.2C684.061 462.155 685.795 467.157 687.4 472.2L689 476.8L690.5 481.9C691.6 485.7 692.7 489.4 694.1 492.9C700.1 508.6 704.9 524.7 709.6 540.8L712 548.8L717.9 569.1C720.4 578.1 722.9 586.9 725.7 595.8C726.7 599.4 727.4 599.6 731.2 599.2C735.7 598.6 738.5 596.5 739.5 592L739.6 591.5C742.7 586.9 741.8 582.2 740.6 577.3C739.2 571.3 737.3 565.6 735.4 559.8L734.2 556.2C733.7 554.6 733.9 554 735.7 553.9C748.6 552.9 761.3 550.9 774 548.8L774.6 548.7C780.1 547.7 780.2 547.8 782 553.3C785 562.5 788 571.8 790.3 581.3C791.9 587.5 795.1 589.1 801.3 586.3C802.1 585.8 802.5 585.1 802.8 584.3C804.6 580.7 806 576.9 807.4 573.1C808.1 571.3 807.8 569.5 807.3 567.6L787.3 503.2L786.9 502L786.4 500L786.2 499L785.2 495.4C784.251 493.672 783.672 491.764 783.5 489.8ZM680 388.7C681.735 388.621 683.468 388.521 685.2 388.4L700.3 388.7C707.7 389.1 715.1 389.4 722.5 388.7C724 388.5 725 388.9 725.6 390.4C727.6 395.4 729.8 400.2 731.9 405.2C732.5 406.4 732.2 406.8 730.9 406.8L721.2 406.9L709.9 407.5C703.2 407.9 696.6 408.4 689.9 408.3C689.634 408.279 689.366 408.279 689.1 408.3C688.2 408.5 687.3 408.6 686.8 407.3L681.9 393.9L680 388.7ZM694.6 427.4L694 427.5C695.87 434.304 698.072 441.012 700.6 447.6C701.1 449 701.9 449.3 703.1 449.1C708.3 448.6 713.4 448.3 718.5 448.1C725.5 447.7 732.5 447.3 739.5 446.3C741.9 445.9 744.3 445.7 746.7 445.5C748.2 445.5 748.4 444.9 747.9 443.5L740.2 426.3C739.8 425.4 739.2 425.3 738.4 425.3C731.1 426.1 723.7 426.3 716.4 426.3C709.123 426.405 701.851 426.772 694.6 427.4ZM754 464.4C754.3 464.4 754.9 464.6 755.2 465.5L757.2 471C759 475.6 760.7 480.2 761.8 485C762.2 486.7 761.8 487 760.1 487.2C755.1 487.7 750 488.2 745 489L737 490.2C730.6 491.2 724.1 492.4 717.5 492.8H716.9C716.1 493 715.2 493.1 714.9 491.8L708.6 470.7C708.1 469.1 708.2 468.4 710.2 468.2C722.486 467.454 734.755 466.454 747 465.2L754 464.4ZM721.6 511.2C721.2 511.2 720.6 511.2 720.6 511.9L720.7 512.5L721 513.7L722.9 519.5L727.5 534.1C727.9 535.5 728.4 535.6 729.6 535.4C735.5 534.6 741.3 533.7 747.1 532.7C755.846 531.134 764.654 529.933 773.5 529.1C775 528.9 775.5 528.7 775 527.1L769 506.2C768.6 505.2 768 505.2 767.4 505.4H767.2L752 507C742 508 731.9 509 722 511.2H721.5H721.6Z" fill="black"/>
<path d="M780.4 485.8L783.6 484.5L780.4 485.8ZM782 489.8L785.2 488.5L785.4 488.9V489.2L782 489.8ZM780.4 485.8L777.2 487L780.4 485.7V485.8ZM778.2 480.2L775 481.4L778.2 480.2ZM774.4 467.6L777.4 466L777.7 466.5V467.1L774.4 467.6ZM772.4 462.1L775.8 461V461.3L772.5 462.1H772.4ZM771 457.4L774.3 456.4L771 457.4ZM765.6 442.2L762.4 443.6L765.6 442.2ZM754.8 414.2L751.6 415.4L754.8 414.2ZM753.8 411.6L750.6 412.8L753.8 411.6ZM746.6 394.1L749.7 392.7L746.6 394.1ZM746.6 394.1L743.4 395.5L746.6 394.1ZM740.5 379.8L743.7 378.6L740.5 379.8ZM732.7 361.9L735.9 360.5L732.7 361.9ZM725.2 344.6L722 345.9L725.2 344.6ZM720.7 341.8L720.4 338.3L720.7 341.8ZM720.5 341.8L720.8 345.3L720.5 341.8ZM714.1 343.2L712 340.4L714.1 343.2ZM711.2 349L714.5 350.2L711.2 349ZM711.2 349.1L714.5 350.2L711.2 349.2V349.1ZM711.5 359.3L708.5 361L711.5 359.3ZM716.5 370.9L719.9 369.9L721.2 374.5H716.5V370.9ZM710.3 370.9V374.3V370.9ZM696.6 370.6L696.5 374.1V370.6H696.6ZM687.1 370.4L687 373.8V370.4H687.1ZM687.1 370.4V366.9V370.4ZM673.4 370V373.5V370ZM670.9 368.4L674 367L670.9 368.4ZM665.2 353.7L668.5 352.6L665.2 353.7ZM665.2 353.7L662 355L665.2 353.8V353.7ZM661.5 343.6L664.8 342.3L661.5 343.6ZM658.7 341.4L658.9 344.9L658.7 341.4ZM657 341.5L657.3 345L657 341.5ZM653.7 341.6L653.4 345.1L653.7 341.6ZM648 346.2L644.6 345.5L648 346.2ZM647.4 348L644.2 347L647.4 348ZM647.1 349.1L650.4 350.1L647.1 349.1ZM647.4 363.6L650.6 362.3L647.4 363.6ZM658.4 393.2L661.8 392.2L658.5 393.2H658.4ZM664.1 408.2L667.3 406.8L664.1 408.1V408.2ZM671.4 428.5L668.1 429.5L671.4 428.5ZM676.4 443.3L679.6 442.3L676.3 443.3H676.4ZM676.4 443.3L673 444.5L676.3 443.3H676.4ZM678.9 451L682.2 450L678.9 451ZM679.8 454L676.4 454.9L679.8 453.9V454ZM680.1 455.4L676.9 456.5L676.8 456.3L680.1 455.3V455.4ZM680.8 457.3L677.6 458.4L680.8 457.3ZM680.8 457.3L684.1 456.1L680.8 457.3ZM680.8 457.3L684.1 456.1L680.8 457.3ZM680.8 457.3L684.1 456.1L680.8 457.3ZM680.8 457.3L677.6 458.4L680.8 457.3ZM680.8 457.3L684.1 456.1L680.8 457.3ZM680.8 457.3L684.1 456.1L680.8 457.3ZM682.3 461.5L685.6 460.3L682.3 461.5ZM686 472.2L689.2 471.1L685.9 472.2H686ZM687.5 476.8L690.8 475.8L687.5 476.8ZM689.1 481.9L692.4 480.9L689.1 481.9ZM689.1 481.9L685.8 482.9L689.1 481.9ZM692.7 492.9L689.4 494.2L692.7 493V492.9ZM708.2 540.8L711.5 539.8L708.2 540.8ZM708.2 540.8L704.8 541.8L708.2 540.8ZM710.6 548.8L707.3 549.8L710.6 548.8ZM716.4 569.1L713.1 570.1L716.4 569.1ZM716.4 569.1L719.7 568.1L716.4 569.1ZM716.4 569.1L719.7 568.1L716.4 569.1ZM716.4 569.1L719.7 568.1L716.4 569.1ZM724.2 595.8L727.5 594.8L724.2 595.8ZM729.8 599.2L730.2 602.6L729.8 599.2ZM738 592L741.4 592.8L738 592ZM738 592L734.7 591.3L738.1 592H738ZM738.2 591.5L735.3 589.5L738.3 591.5H738.2ZM739.2 577.3L742.5 576.5L739.2 577.3ZM733.9 559.8L737.2 558.7L733.9 559.7V559.8ZM733.9 559.8L730.6 560.8L733.9 559.8ZM732.8 556.2L729.5 557.2L732.8 556.2ZM734.2 553.9L734.5 557.4L734.2 553.9ZM772.6 548.8L773.2 552.2L772.6 548.8ZM772.6 548.8L772 545.3L772.6 548.8ZM773.1 548.7L772.6 545.2L773.1 548.7ZM780.6 553.3L777.3 554.4L780.6 553.4V553.3ZM788.9 581.3L785.5 582.1L788.9 581.2V581.3ZM799.8 586.3L801.3 589.3L799.8 586.3ZM801.4 584.3L798.3 582.8L801.4 584.4V584.3ZM806 573.1L802.7 571.9L806 573.1ZM805.8 567.6L802.5 568.6L805.8 567.6ZM785.8 503.2L782.5 504.2L785.8 503.2ZM785.8 503.2L789.1 502.2L785.8 503.2ZM785.8 503.2L782.5 504.2L785.8 503.2ZM785.8 503.2L782.5 504.2L785.8 503.2ZM785.5 502L782.2 503L785.5 502ZM785 500L788.4 499.2L785 500ZM785 500L781.6 500.7L785 500ZM784.8 499L788.1 498.1V498.2L784.8 499ZM783.8 495.4L786.8 493.5L787 494L787.1 494.5L783.8 495.5V495.4ZM680.3 388.6L680.2 385.1L680.3 388.6ZM678.6 388.6L675.3 389.9L673.7 385.4L678.4 385.2L678.6 388.7V388.6ZM683.8 388.4L683.7 385V388.4H683.8ZM698.9 388.7L698.8 392.2L698.9 388.7ZM721.1 388.7L721.4 392.1L721.1 388.6V388.7ZM724.2 390.4L721 391.7L724.2 390.4ZM730.5 405.2L727.3 406.5L730.5 405.2ZM729.5 406.8V403.3V406.8ZM719.8 406.9L719.9 410.4L719.8 406.9ZM708.5 407.5L708.3 404.1L708.5 407.5ZM708.5 407.5L708.7 411L708.5 407.5ZM688.5 408.3V411.8V408.3ZM687.7 408.3L688.2 411.8L687.7 408.4V408.3ZM685.3 407.3L688.6 406.1L685.3 407.3ZM680.5 393.9L677.2 395.1L680.5 393.9ZM680.5 393.9L683.7 392.7L680.5 393.9ZM680.5 393.9L677.2 395.1L680.5 393.9ZM692.5 427.5L689.2 428.6L688 424.9L691.8 424.1L692.5 427.5ZM693.1 427.5L693.9 430.8L693.1 427.4V427.5ZM694.6 434L697.9 433L694.6 434ZM694.6 434L697.9 433L694.6 434ZM694.6 434L691.3 435V434.9L694.6 433.9V434ZM699.2 447.7L695.9 448.9L699.2 447.7ZM701.7 449.1L701.4 445.7L701.7 449.1ZM717.1 448.1L717.3 451.5L717.1 448V448.1ZM717.1 448.1L717.3 451.5L717.1 448V448.1ZM717.1 448.1L716.9 444.6H717L717.1 448V448.1ZM717.1 448.1L717.3 451.5H717.2L717.1 448V448.1ZM738 446.3L737.5 442.8L738 446.3ZM745.3 445.5L745.6 449L745.3 445.5ZM746.4 443.5L743.3 445L746.4 443.6V443.5ZM738.8 426.3L742 424.9L738.8 426.3ZM737 425.3L737.3 428.8L737 425.4V425.3ZM715 426.3V429.8V426.4V426.3ZM694.1 427.3L694.4 430.7L694.1 427.2V427.3ZM753.8 465.5L750.5 466.7L753.8 465.5ZM752.6 464.5L753.2 467.8H752.9L752.6 464.4V464.5ZM755.8 471L759.1 469.8L755.8 471ZM760.4 485L757 485.8L760.4 485ZM758.7 487.2L758.3 483.8L758.7 487.2ZM743.5 489L744 492.4L743.5 489ZM735.6 490.2L736.2 493.7H736.1L735.6 490.2ZM735.6 490.2L735.1 486.8L735.6 490.2ZM716.1 492.8L716.3 496.2L716.1 492.8ZM715.5 492.8L716 496.3L715.5 492.8ZM713.4 491.8L710.1 492.7L713.4 491.7V491.8ZM707.2 470.7L710.5 469.7L707.2 470.7ZM708.8 468.2L709 471.7L708.8 468.2ZM730.7 466.5L731 470L730.7 466.5ZM745.7 465.1L745.3 461.7L745.6 465.1H745.7ZM745.7 465.1L746 468.6L745.6 465.1H745.7ZM719 512L715.7 512.8L715.5 512.1L715.6 511.4L719 512ZM720.1 511.3L720.3 514.8L720.1 511.3ZM719.2 512.6L722.6 511.8L719.2 512.6ZM719.5 513.8L722.8 512.8L719.5 513.8ZM721.4 519.6L718 520.6L721.4 519.6ZM726 534L722.7 535L726 534ZM728.2 535.3L727.8 531.9L728.2 535.3ZM745.7 532.6L746.2 536L745.7 532.6ZM772.1 529L772.4 532.4L772.1 529ZM773.6 527L776.9 526L773.6 527ZM767.5 506.1L764.1 507.1L767.5 506.1ZM765.9 505.3L766.4 508.7L765.9 505.3ZM765.8 505.3L766.2 508.7L765.8 505.3ZM750.6 506.9L750.3 503.5L750.6 506.9ZM720.6 511.1L721.4 514.5L720.6 511.1ZM783.6 484.4L785.2 488.4L778.8 491L777.2 487L783.6 484.4ZM783.6 484.4L777.2 487L783.6 484.3V484.4ZM781.4 478.8L783.6 484.3L777.2 486.9L775 481.3L781.4 478.8ZM777.8 467C778.5 471 779.8 474.8 781.4 478.8L774.9 481.3C773.109 477.052 771.768 472.628 770.9 468.1L777.8 467ZM775.8 461.2C776.3 463.2 776.8 464.6 777.4 465.9L771.3 469.2C770.289 467.173 769.549 465.021 769.1 462.8L775.9 461.2H775.8ZM774.3 456.2L775.8 460.9L769.2 463.1L767.7 458.3L774.3 456.3V456.2ZM768.8 440.8C771 445.8 772.6 451.1 774.3 456.2L767.7 458.3C766 453.2 764.4 448.3 762.4 443.5L768.8 440.8ZM758.1 413C761.5 422.3 764.9 431.7 768.8 440.8L762.4 443.5C758.4 434.2 755 424.7 751.6 415.3L758.1 413ZM757.1 410.3L758.1 413L751.6 415.3L750.6 412.7L757.1 410.3ZM749.7 392.6C752.3 398.4 754.9 404.3 757.1 410.3L750.6 412.7C748.5 406.9 745.9 401.2 743.4 395.4L749.7 392.6ZM749.7 392.6L743.4 395.4L749.7 392.6ZM743.7 378.5L749.7 392.6L743.4 395.4C741.3 390.7 739.2 385.9 737.3 381L743.7 378.5ZM735.9 360.4C738.6 366.3 741.3 372.3 743.7 378.4L737.3 381C734.9 375 732.3 369.2 729.6 363.3L735.9 360.3V360.4ZM728.4 343.2C730.7 349 733.3 354.6 735.9 360.4L729.6 363.3C727 357.5 724.3 351.7 722 345.8L728.4 343.2ZM720.4 338.2C722 338.2 723.8 338.2 725.4 339.2C727 340.2 727.9 341.8 728.4 343.2L722 346C721.7 345.2 721.5 345.2 721.7 345.3C721.9 345.5 721.8 345.3 721 345.3L720.4 338.4V338.2ZM720.2 338.2H720.4L721 345.2H720.8L720.2 338.2ZM712 340.3C713.2 339.3 714.5 339 715.8 338.7L720.2 338.3L720.8 345.2C719 345.3 717.8 345.4 717 345.6L716.2 345.8L712 340.3ZM708 347.8L709.5 343.6C710.049 342.311 710.908 341.177 712 340.3L716.2 345.8L715.8 346.5L714.5 350.1L707.9 347.8H708ZM708 347.8L714.5 350.1L707.9 347.9L708 347.8ZM708.4 360.8C705.8 356 706.6 351.8 707.9 347.8L714.5 350.1C713.5 353.2 713.2 355.2 714.5 357.5L708.5 360.9L708.4 360.8ZM713.2 371.8C712 367.8 710.4 364.3 708.4 360.8L714.5 357.5C716.5 361.2 718.5 365.2 719.9 369.9L713.2 371.9V371.8ZM710.4 367.3H716.6V374.3H710.3V367.3H710.4ZM696.6 367L710.4 367.3L710.3 374.3L696.5 374L696.6 367ZM687.2 366.8L696.6 367L696.5 374C693.3 374 690.1 373.8 687 373.7L687.2 366.8ZM687.2 366.8L686.9 373.8L687.2 366.8ZM673.4 366.5L687.2 366.8L687 373.8L673.3 373.4L673.4 366.4V366.5ZM674 366.9C674.1 367.1 674.1 367.1 674 367L673.6 366.6L673.2 366.5H673.4V373.5C672.4 373.4 671.2 373.3 670 372.5C668.963 371.826 668.16 370.848 667.7 369.7L674 366.9ZM668.5 352.5C670.3 357.5 672 362.3 674 366.9L667.7 369.7C665.5 364.7 663.7 359.7 662 354.8L668.5 352.5ZM668.5 352.5L662 354.8L668.5 352.5ZM664.8 342.2L668.5 352.5L662 354.8C660.8 351.4 659.6 348 658.3 344.8L664.8 342.2ZM658.6 337.9C660 337.9 661.5 338.1 662.7 339.2C663.8 340.1 664.4 341.3 664.7 342.2L658.3 344.8L658.1 344.3L658.3 344.5C658.444 344.634 658.614 344.736 658.8 344.8C658.9 344.8 659 344.8 658.8 344.8L658.6 337.8V337.9ZM656.7 337.9H658.6L658.9 344.8L657.3 344.9L656.7 337.9ZM653.9 338.1L656.7 338L657.3 345H653.4L653.9 338V338.1ZM644.6 345.4C645 343.4 645.8 341.4 647.6 339.9C649.4 338.4 651.6 337.9 653.9 338.1L653.4 345.1C652.4 344.9 652 345.1 652 345.2C652 345.2 651.6 345.6 651.4 346.7L644.6 345.4ZM644.2 346.8L644.6 345.4L651.4 346.7L650.7 349L644.2 346.8ZM643.7 348.1L644.2 346.8L650.7 349L650.4 350L643.7 348.1ZM644.3 364.9C641.6 358.9 642.3 353.4 643.7 348.1L650.4 350C649.2 354.5 648.9 358.1 650.6 362.2L644.3 364.9ZM655.3 394.3C651.8 384.3 648.3 374.4 644.3 364.9L650.6 362.2C654.9 372 658.4 382.1 661.8 392L655.2 394.3H655.3ZM660.8 409.3L655.2 394.3L661.8 392C663.5 397 665.4 401.8 667.3 406.7L660.8 409.3ZM668.1 429.4C666.1 422.6 663.5 416 660.8 409.3L667.3 406.7C669.9 413.5 672.6 420.3 674.7 427.4L668.1 429.4ZM673.1 444.4C671.3 439.4 669.6 434.4 668.1 429.4L674.7 427.4C676.249 432.328 677.882 437.229 679.6 442.1L673 444.4H673.1ZM673.1 444.4L679.6 442.1L673 444.4H673.1ZM675.6 452C674.745 449.463 673.879 446.929 673 444.4L679.6 442.1L682.2 449.8L675.6 452ZM676.4 454.8L675.6 452L682.2 449.8L683.2 453L676.4 454.8ZM676.8 456.2L676.4 454.8L683.1 453L683.5 454.4L676.8 456.2ZM677.5 458.3L676.9 456.4L683.4 454.1L684.1 456L677.5 458.3ZM677.5 458.3L684.1 456L677.6 458.3H677.5ZM677.5 458.3L684.1 456L677.6 458.3H677.5ZM677.5 458.3L684.1 456L677.5 458.3ZM677.5 458.3L684.1 456L677.5 458.3ZM677.5 458.3L684.1 456L677.6 458.3H677.5ZM677.5 458.3L684.1 456L677.6 458.3H677.5ZM679 462.5L677.6 458.3L684.1 456L685.6 460.2L679 462.5ZM682.7 473.2L679 462.5L685.6 460.2L689.2 471L682.7 473.2ZM684.2 477.9L682.7 473.2L689.2 471L690.8 475.6L684.2 477.9ZM685.8 482.9L684.2 477.8L690.8 475.7L692.4 480.8L685.8 482.8V482.9ZM685.8 482.9L692.4 480.9L685.7 482.9H685.8ZM689.4 494.1C688 490.4 686.9 486.5 685.8 482.8L692.4 480.8C693.5 484.6 694.6 488.2 695.9 491.6L689.4 494.1ZM704.8 541.7C700.295 525.637 695.158 509.758 689.4 494.1L695.9 491.6C701.9 507.4 706.8 523.6 711.5 539.6L704.8 541.6V541.7ZM704.8 541.7L711.5 539.7L704.8 541.7ZM707.3 549.7L704.8 541.7L711.5 539.7L713.9 547.8L707.3 549.8V549.7ZM713 570L707.2 549.9L713.8 547.9L719.7 568.1L713 570.1V570ZM713 570L719.6 568.1L713 570.1V570ZM713 570L719.6 568.1L713 570.1V570ZM713 570L719.6 568.1L713 570.1V570ZM720.8 596.8C718.1 587.9 715.5 579 713 570L719.7 568.1C722.2 577.1 724.7 586 727.4 594.8L720.8 596.8ZM730.1 602.6L727.3 602.8C726.4 602.8 725.3 602.6 724.2 602C723.209 601.406 722.41 600.538 721.9 599.5C721.4 598.7 721.1 597.8 720.8 596.8L727.4 594.8L728 596.3L727.6 596C727.3 595.8 727.1 595.8 727.4 595.8L729.3 595.7L730.1 602.6ZM741.3 592.8C740.7 595.6 739.4 598 737.3 599.8C735.3 601.5 732.8 602.3 730.1 602.6L729.3 595.7C731.1 595.5 732.2 595 732.9 594.4C733.6 593.8 734.2 592.9 734.6 591.3L741.3 592.8ZM741.3 592.7L734.6 591.3L741.4 592.7H741.3ZM741 593.4L741.3 592.7C741.3 592.7 741.3 592.5 741.3 592.7L734.6 591.2L734.7 590.7C734.7 590.5 734.9 590 735.2 589.6L741 593.4ZM742.4 576.4C743.6 581.4 745 587.4 741 593.4L735.2 589.6C737.4 586.4 736.9 583.1 735.7 578.1L742.4 576.5V576.4ZM737.1 558.7C739.1 564.4 741 570.4 742.4 576.5L735.7 578.1C734.3 572.3 732.4 566.7 730.5 560.9L737.1 558.7ZM737.1 558.7L730.5 560.9L737.1 558.7ZM736 555.1L737.1 558.7L730.5 560.9L729.4 557.3L736 555.1ZM734.4 557.4C734.1 557.4 734.1 557.4 734.4 557.4C734.5 557.3 735.1 557 735.5 556.3C735.9 555.6 735.9 555.1 735.9 554.9V555.1L729.4 557.3C729.2 556.8 729 556.1 729 555.5C729 554.8 729 553.7 729.6 552.7C730.2 551.7 731.1 551.1 731.9 550.8L733.9 550.4L734.4 557.4ZM773 552.2C760.22 554.522 747.339 556.257 734.4 557.4L733.9 550.4C746.6 549.5 759.2 547.4 771.9 545.4L773 552.2ZM773 552.2L771.9 545.3L773.1 552.2H773ZM773.6 552.1H773L772 545.3H772.5L773.6 552.1ZM777.2 554.4L776.2 551.6C775.9 551 775.9 551.3 776.3 551.6C776.7 551.8 777 551.6 776.4 551.7L773.6 552.1L772.5 545.2C773.8 545 775.1 544.8 776.2 544.8C777.2 544.8 778.7 544.8 780 545.7C781.4 546.5 782 547.7 782.5 548.7C783 549.7 783.4 550.9 783.8 552.3L777.2 554.4ZM785.4 582.1C783.1 572.8 780.2 563.6 777.2 554.4L783.8 552.3C786.8 561.5 789.8 570.8 792.1 580.3L785.4 582.1ZM801.2 589.4C797.9 590.9 794.3 591.8 791.1 590.4C787.8 588.8 786.3 585.5 785.4 582.1L792.1 580.4C792.8 583.3 793.7 583.9 794 584C794.3 584.2 795.4 584.4 798.2 583.1L801.2 589.4ZM804.4 585.9C803.773 587.404 802.642 588.641 801.2 589.4L798.2 583.1L798 583.2L798.2 582.8L804.4 585.9ZM809.1 574.3C807.8 578.1 806.3 582.1 804.4 585.9L798.2 582.9C799.9 579.4 801.2 575.8 802.6 571.9L809.1 574.3ZM809.1 566.6C809.7 568.8 810.1 571.5 809.1 574.3L802.6 571.9C802.9 571.1 802.9 570.1 802.4 568.6L809 566.6H809.1ZM789.1 502.2C795.7 523.6 802.3 545.1 809.1 566.6L802.4 568.6L782.4 504.2L789.1 502.2ZM789.1 502.2L782.4 504.2L789.1 502.2ZM789.1 502.2L782.4 504.2L789 502.2H789.1ZM789.1 502.2L782.4 504.2L789.1 502.2ZM788.7 501L789.1 502.1L782.4 504.2L782.1 503.1L788.7 501ZM788.3 499.3L788.7 501L782.1 503L781.5 500.7L788.3 499.3ZM788.3 499.3L781.5 500.7L788.3 499.2V499.3ZM788 498.3L788.3 499.3L781.5 500.7L781.3 499.8L788 498.2V498.3ZM787 494.5L788 498.1L781.3 499.9L780.3 496.3L787 494.5ZM785.4 489.2C785.7 491.2 786 492.5 786.6 493.5L780.8 497.3C779.2 494.9 778.8 492.3 778.5 490.3L785.4 489.3V489.2ZM680.4 392.1H678.6L678.3 385.2H680.1L680.4 392.1ZM683.8 391.9C682.7 391.9 681.6 391.9 680.4 392.1L680.1 385.1L683.6 385L683.8 392V391.9ZM698.7 392.2C693.6 392 688.7 391.8 683.7 391.9L683.6 384.9C688.8 384.9 693.9 385.1 698.9 385.3L698.7 392.3V392.2ZM721.3 392.1C713.6 392.8 706 392.5 698.7 392.2L698.9 385.2C706.4 385.6 713.5 385.9 720.7 385.2L721.3 392.1ZM720.9 391.7C720.9 391.6 720.9 391.6 720.9 391.7L721.3 392H721.6L721.3 392.1L720.7 385.1C721.7 385.1 723.1 385.1 724.4 385.8C725.9 386.5 726.8 387.8 727.4 389L720.9 391.7ZM727.2 406.5L720.9 391.7L727.3 389C729.3 394 731.5 398.9 733.6 403.8L727.2 406.5ZM729.3 403.3C729.6 403.3 729.5 403.3 729.3 403.3C729 403.4 728.3 403.7 727.7 404.6C727.1 405.4 727.2 406.2 727.2 406.4C727.2 406.7 727.3 406.7 727.2 406.5L733.6 403.8L734.1 405.4C734.1 406.1 734.2 407.2 733.5 408.4C732.931 409.237 732.079 409.841 731.1 410.1L729.3 410.3V403.3ZM719.6 403.5C722.8 403.3 726.1 403.3 729.3 403.3V410.3L719.8 410.4L719.6 403.4V403.5ZM708.2 404.1C711.9 403.9 715.7 403.6 719.6 403.5L719.8 410.5C716.1 410.5 712.4 410.8 708.6 411L708.2 404V404.1ZM708.2 404.1L708.6 411.1L708.2 404.1ZM688.4 404.8C694.9 404.8 701.4 404.5 708.2 404.1L708.6 411.1C701.9 411.4 695.1 411.8 688.3 411.8V404.8H688.4ZM687.1 404.9H688.4V411.8H688.2H688.1L687.1 404.9ZM688.5 406.1C688.5 406.1 688.5 405.9 688.2 405.6C687.846 405.261 687.388 405.05 686.9 405H686.8H687.1L688.1 411.8C687.8 411.8 686.6 412.1 685.3 411.8C684.523 411.56 683.817 411.134 683.242 410.559C682.666 409.984 682.24 409.277 682 408.5L688.5 406.1ZM683.6 392.7L688.6 406.1L682 408.5C680.383 404.027 678.75 399.561 677.1 395.1L683.6 392.7ZM683.6 392.7L677.1 395.1L683.6 392.7ZM683.6 392.7L677.1 395.1L683.6 392.6V392.7ZM681.7 387.5L683.7 392.7L677.1 395L675.2 389.9L681.7 387.5ZM691.7 424.1H692.3L693.8 430.8L693.1 430.9L691.7 424.1ZM691.2 435.1L689.2 428.6L695.7 426.5L697.7 432.9L691.2 435V435.1ZM691.2 434.9L697.8 433.1L691.1 434.9H691.2ZM691.2 434.9L697.8 433.1L691.1 434.9H691.2ZM695.8 448.9C694 444.3 692.6 439.6 691.2 435L697.8 433C699.2 437.6 700.6 442 702.3 446.4L695.8 448.9ZM702 452.6C700.8 452.758 699.58 452.549 698.5 452C697 451.3 696.3 450 695.8 448.9L702.3 446.4C702.3 446.5 702.3 446.4 702.3 446.4C702.156 446.21 701.976 446.05 701.77 445.93C701.564 445.809 701.337 445.731 701.1 445.7H701.3L702 452.6ZM717.2 451.6C712 451.8 707 452.1 702 452.6L701.3 445.6C706.5 445.1 711.7 444.9 716.8 444.6L717.2 451.6ZM717.2 451.6L716.8 444.6L717.2 451.6ZM717.2 451.6L716.8 444.6L717.2 451.6ZM717.1 451.6L716.9 444.6L717.1 451.6ZM738.4 449.7C731.3 450.7 724.1 451.1 717.2 451.5L716.8 444.5C723.8 444.2 730.6 443.8 737.4 442.8L738.4 449.7ZM745.4 449L738.4 449.7L737.4 442.8C739.9 442.5 742.5 442.2 744.9 442.1L745.5 449H745.4ZM749.4 442.1C749.7 442.6 749.9 443.2 750 443.9C750.1 444.6 750.1 445.6 749.6 446.7C749 447.7 748.1 448.3 747.3 448.6C746.7 448.9 746 448.9 745.5 449L744.9 442C745.1 442 745 442 744.9 442.1C744.5 442.2 743.9 442.6 743.5 443.3C743.1 444 743.1 444.7 743.2 444.9C743.2 445.1 743.2 445.2 743.2 444.9L749.5 442.1H749.4ZM742 425L749.6 442.2L743.3 445.1L735.6 427.8L742 425ZM736.6 422C737.2 422 738.2 421.9 739.3 422.3C740.6 422.9 741.5 423.9 742 425L735.6 427.8L736 428.3L736.7 428.8C737.2 429 737.6 428.9 737.3 428.9L736.6 422ZM714.9 423C722.3 422.9 729.5 422.7 736.6 422L737.3 429C729.8 429.7 722.3 429.8 715 430L714.9 423ZM693.8 423.9C700.8 423.3 707.9 423.1 714.8 422.9L715 429.9C708 430.1 701.2 430.2 694.4 430.8L693.8 423.8V423.9ZM692.4 424.1L693.8 423.9L694.4 430.8H694.3L693.9 430.9L692.4 424.1ZM750.4 466.8L751.1 467.5C751.6 467.8 752.3 468.1 753.1 467.9L752 461C754.6 460.6 756.4 462.5 757 464.4L750.5 466.7L750.4 466.8ZM752.5 472.4L750.5 466.8L757 464.5L759 469.9L752.5 472.4ZM757 485.9C756 481.4 754.3 476.9 752.5 472.4L759 469.9C760.8 474.5 762.6 479.3 763.7 484.3L757 485.9ZM758.3 483.9H758.7C758.6 483.9 758.1 484 757.7 484.6C757.1 485.1 757 485.7 757 486V485.9L763.7 484.3C763.9 485.1 764.4 487.3 762.9 489.1C762.2 489.9 761.3 490.3 760.7 490.5L759 490.8L758.3 483.8V483.9ZM743 485.7C748.084 484.973 753.186 484.372 758.3 483.9L759 490.8C754 491.3 749 491.8 744 492.5L743 485.7ZM735 486.9L743 485.7L744 492.5L736.2 493.8L735.1 486.9H735ZM735.1 486.9L736.1 493.8L735.1 486.9ZM715.9 489.4C722.337 488.884 728.745 488.049 735.1 486.9L736.1 493.8C729.7 494.8 723.1 495.9 716.3 496.3L715.9 489.4ZM714.9 489.5L715.9 489.4L716.3 496.4H716L715 489.5H714.9ZM716.7 490.9C716.7 490.9 716.7 490.7 716.4 490.4C716.2 490 715.8 489.8 715.4 489.7L714.7 489.5H715L716 496.4C715.8 496.4 714.5 496.7 713.2 496.3C711.4 495.7 710.5 494.2 710.1 492.8L716.7 490.8V490.9ZM710.5 469.8L716.7 490.8L710.1 492.8L703.8 471.8L710.5 469.8ZM709 471.8H708.9C709.1 471.7 709.7 471.4 710.1 470.7C710.4 470.1 710.4 469.5 710.4 469.5V469.8L703.8 471.8C703.7 471.3 703.5 470.8 703.5 470.1C703.5 469.4 703.5 468.4 704 467.3C705.2 465.2 707.6 464.9 708.6 464.9L709 471.9V471.8ZM731 470.1L709 471.8L708.6 464.8C715.8 464.4 723.1 463.8 730.4 463.2L731 470.1ZM746 468.7L731 470.1L730.4 463.1L745.3 461.8L746 468.7ZM746 468.7L745.3 461.7L745.9 468.7H746ZM752.9 468L745.9 468.7L745.3 461.7L752.3 461.1L752.9 468ZM715.7 511.4C715.8 510.7 716.1 510.1 716.6 509.4C717.1 508.8 717.6 508.4 718.2 508.2C719 507.9 719.9 507.9 720 507.8L720.4 514.8C720.3 514.8 720.3 514.8 720.4 514.8L720.9 514.6C721.325 514.431 721.703 514.16 721.999 513.812C722.295 513.463 722.502 513.047 722.6 512.6L715.7 511.4ZM715.9 513.4L715.8 512.8L722.5 511.1L722.7 511.8L715.9 513.5V513.4ZM716.3 514.8L715.9 513.5L722.7 511.8L722.9 512.8L716.3 514.8ZM718.1 520.6L716.3 514.8L722.9 512.8L724.8 518.5L718.1 520.6ZM722.7 535.3L718.1 520.6L724.8 518.6L729.4 533.2L722.7 535.2V535.3ZM728.7 538.9C728.2 539 726.7 539.2 725.3 538.5C724.668 538.177 724.11 537.726 723.662 537.174C723.215 536.623 722.887 535.985 722.7 535.3L729.4 533.3L729.3 533.1C729.093 532.81 728.824 532.57 728.513 532.397C728.201 532.224 727.856 532.123 727.5 532.1H727.8L728.7 538.9ZM746.2 536.2C740.4 537.2 734.6 538.2 728.7 538.9L727.7 532.1L745.1 529.4L746.2 536.2ZM772.4 532.6C763.7 533.3 755 534.8 746.2 536.2L745.2 529.4C753.9 527.9 762.8 526.4 771.8 525.7L772.4 532.7V532.6ZM776.9 526.2C777.1 526.7 777.3 527.4 777.2 528.2C777.204 529.17 776.88 530.112 776.281 530.875C775.682 531.637 774.843 532.175 773.9 532.4C773.407 532.509 772.905 532.576 772.4 532.6L771.8 525.7H772.1C772.1 525.7 771.5 525.8 771 526.4C770.4 527.1 770.3 527.8 770.3 528.1C770.3 528.4 770.3 528.5 770.3 528.1L776.9 526.1V526.2ZM770.9 505.4C772.8 512.4 774.9 519.3 776.9 526.2L770.3 528.2L764.1 507.2L770.8 505.4H770.9ZM765.4 502C765.5 502 766.8 501.8 768 502.2C769.7 502.8 770.5 504.2 770.8 505.4L764.1 507.3L764.5 507.9C764.743 508.2 765.047 508.444 765.392 508.617C765.737 508.789 766.115 508.886 766.5 508.9C766.5 508.9 766.6 508.9 766.5 508.9L765.5 502H765.4ZM765.4 502L766.4 508.9H766.2L765.3 502H765.4ZM750.3 503.7C755.3 503.2 760.3 502.7 765.3 502L766.2 509L751 510.6L750.3 503.6V503.7ZM719.9 507.9C730 505.7 740.3 504.7 750.3 503.7L751 510.6C740.9 511.6 731 512.6 721.4 514.6L719.9 507.9ZM720 507.9H719.9L721.4 514.7H720.4L720 507.8V507.9Z" fill="black"/>
<path fill-rule="evenodd" clip-rule="evenodd" d="M730.2 594L733.9 585.3C733.9 585.3 704.2 488.1 685.2 432.3C666.3 376.5 654 349.5 654 349.5L651.2 358.9L690.2 466.9" fill="#C4C3C6"/>
<path fill-rule="evenodd" clip-rule="evenodd" d="M721.3 347C723.3 352.2 725.2 357.3 727.3 362.3L744.3 402.6C755.3 429.1 765.3 456 774.3 483.3C778.6 496.5 781.9 510 786 523.3C790.7 538.9 795.6 554.3 800.5 569.9C801 571.8 803.6 572.6 805.2 571.4C806 570.8 805.2 570 805.1 569.4L797.5 545.2C792.7 529.5 788.1 513.8 783.2 498.2C780.2 488.8 776.7 479.6 773.7 470.2C765 443.2 754.7 416.8 743.5 390.8C737.9 377.8 732.9 364.4 726.3 351.8L725.4 349.4C724.6 346.8 724.6 346.8 721.4 347H721.3ZM658.6 345.9C656.5 345.5 655.9 345.9 656.8 348.3C664.8 369.2 672.5 390.1 680.6 410.9C687.4 428.3 693.6 446 698.6 464C703.3 481.2 710.1 497.7 715.2 514.8C718.8 526.6 721.8 538.6 725.7 550.4C729.3 561.1 732.5 571.9 734.7 583C735.2 585 736.3 584.5 737.5 584.4C739.5 584.4 738.5 583.1 738.5 582.2C736.7 572.2 733.1 562.7 730 553C722.3 528.7 715.5 504 707.9 479.7C696.606 443.91 684.166 408.492 670.6 373.5C667.3 365 664.6 356.3 660.8 348C660.4 347 660.3 345.7 658.6 345.9Z" fill="white"/>
<path fill-rule="evenodd" clip-rule="evenodd" d="M760.4 453.6C759 449.4 759 449.5 754.7 449.6C744.3 449.9 734.1 451.8 723.7 451.9C716.9 451.9 710.1 452.7 703.3 452.9C703.5 455.7 704.8 456.6 707.8 456.5C720.8 456 733.8 455.2 746.7 454.1C751.1 453.6 755.7 453.7 760.4 453.6ZM784.2 531C773.4 532 762.2 533 751.1 535.1C744.9 536.4 738.6 536.8 732.4 538C731.6 538 729.8 537.4 730.1 539.5C730.4 541.3 731.5 541 732.8 540.9C749.6 539.3 766.3 536.2 783.1 534.9L784.9 534.8C785.6 534.6 787.2 535.4 786.7 533.7C786.5 532.6 786.7 530.7 784.2 531ZM771.4 489.8C763.4 490.7 755.5 491.4 747.7 492.4C737.7 493.8 727.8 495.9 717.7 496.5C717.2 496.5 715.7 495.9 716 497.5C716.3 498.7 716.3 500 718.3 499.7C728.8 498.3 739.3 497.3 749.7 495.7C757 494.7 764.4 494.9 771.7 493.7C772.4 493.5 774.1 494.3 773.7 492.6C773.5 491.5 773.5 489.6 771.4 489.8ZM744 413.7C743.8 411.2 742.6 410.7 740.2 410.7L690.6 412.9L688.1 413C688.1 415.7 689.1 416.7 691.9 416.5C708.7 415.5 725.6 414.8 742.4 414L744.1 413.7H744Z" fill="white"/>
<path fill-rule="evenodd" clip-rule="evenodd" d="M795 580C796.7 576 798 572.3 796.6 567.8C793.9 559.4 791.7 550.7 789.3 541.8C787.1 544.8 785.9 547.3 787.1 551.2C790.1 560.6 792.4 570.2 795.1 580.1L795 580Z" fill="#C4C3C6"/>
<path fill-rule="evenodd" clip-rule="evenodd" d="M679.4 376.4C688.4 377.6 697.6 377.1 706.9 377.2C713.7 377.2 720.6 378 727.4 377.7C728.3 377.7 729.8 378.2 729.8 377C729.8 375.5 728.5 375.2 727 375.2C715.3 375.4 703.6 374.9 691.8 374.4L678.8 374C678 374 676.5 373.2 676.4 374.5C676.4 375.8 677.4 376.7 679.4 376.5V376.4Z" fill="white"/>
<path fill-rule="evenodd" clip-rule="evenodd" d="M771.8 485.9L763.3 458.1C761.3 461 760.1 463.4 761.3 467C763.3 472.5 765.4 478.1 766.6 484C767.3 487.2 769.8 484.7 771.8 485.9ZM731.3 381.6C729.5 384.8 728 387.4 730 391.2C732.2 395.6 733.5 400.6 735.3 405.2C735.8 406.8 738.9 407.8 740.1 406.8C740.7 406.3 740.2 405.8 740.1 405.3L731.3 381.6ZM747.9 419.3C745.1 423 744.7 426.3 746.9 430.3C749.2 434.7 750.8 439.5 752.4 444.3C753.3 446.8 754.9 445.7 756.1 445.4C757.4 445.1 756.3 443.9 756.1 443.2L747.9 419.3ZM774.7 499.5C772.3 503 772.5 506.5 773.9 510.5C775.671 515.703 777.107 521.014 778.2 526.4C778.8 529 780.4 528.1 781.6 527.9C783.5 527.5 782.1 526.2 781.8 525.5C778.8 517.1 777.6 508.1 774.8 499.5H774.7ZM726.6 371C723.1 363.9 721 356 717.8 348.5C715.8 352.5 715.4 356.1 717.5 359.9C718.9 362.5 720.1 365.3 720.9 368.2C721.8 371.2 723.3 372.3 726.6 371.1V371ZM804.7 575C800 575.3 798.6 577.4 797.6 584.5C803.1 583.3 802 578.2 804.7 575ZM737.7 587.6C733.7 587.9 733.7 587.9 732.2 593.8C735.7 593.8 735.7 593.7 737.7 587.6Z" fill="#C4C3C6"/>
<path d="M588 361.3C590.955 350.289 591.712 338.803 590.228 327.499C588.744 316.195 585.048 305.294 579.351 295.419C573.654 285.543 566.068 276.887 557.025 269.943C547.983 262.999 537.661 257.905 526.65 254.95C504.412 248.983 480.714 252.094 460.769 263.599C450.894 269.296 442.237 276.882 435.293 285.925C428.349 294.967 423.255 305.289 420.3 316.3C414.333 338.538 417.444 362.236 428.949 382.181C440.455 402.125 459.412 416.683 481.65 422.65C503.888 428.617 527.587 425.506 547.531 414.001C567.476 402.495 582.033 383.538 588 361.3Z" fill="#C4C3C6" stroke="black" stroke-width="13.2"/>
<path d="M511.2 436.4C561.2 429.4 595.9 382.4 588.7 331.4C585.513 307.135 572.82 285.128 553.411 270.22C534.002 255.312 509.466 248.722 485.2 251.9C435.2 258.9 400.5 305.9 407.7 356.9C410.887 381.165 423.58 403.172 442.989 418.08C462.398 432.989 486.933 439.578 511.2 436.4Z" fill="black"/>
<path d="M505.9 423.3C553.5 423.3 592.1 386.5 592.1 341.1C592.1 295.8 553.5 259 505.9 259C458.3 259 419.7 295.8 419.7 341.1C419.7 386.5 458.3 423.3 505.9 423.3Z" fill="#C4C3C6"/>
<path fill-rule="evenodd" clip-rule="evenodd" d="M515.8 422.4C558.3 421.8 591.8 384.7 590.8 339.6C589.8 294.6 554.7 258.6 512.2 259.2C509.2 259.2 506.4 259.5 503.5 259.9C545.5 259.9 580 295.6 581 340.3C582 382.3 552.9 417.3 514.6 422.4H515.8Z" fill="white"/>
<path fill-rule="evenodd" clip-rule="evenodd" d="M424.8 342.4C424.651 325.72 430.066 309.466 440.19 296.208C450.314 282.951 464.569 273.447 480.7 269.2C466.181 274.549 453.665 284.248 444.86 296.972C436.055 309.696 431.39 324.827 431.5 340.3C431.368 350.035 433.158 359.7 436.768 368.741C440.377 377.783 445.736 386.024 452.536 392.991C459.336 399.958 467.444 405.515 476.395 409.343C485.346 413.171 494.965 415.196 504.7 415.3C510.7 415.3 516.5 414.6 522 413.3C514.293 416.029 506.176 417.415 498 417.4C488.265 417.296 478.646 415.271 469.695 411.443C460.744 407.615 452.636 402.058 445.836 395.091C439.036 388.124 433.677 379.883 430.068 370.841C426.458 361.8 424.668 352.135 424.8 342.4Z" fill="black"/>
<path fill-rule="evenodd" clip-rule="evenodd" d="M534.6 345.5L485.8 373.2C483.2 374.8 479.8 372.7 478.4 368.6L477.8 365.6L476.3 307.1C476.4 302.7 479.6 299.2 483.4 299.3C484.3 299.3 485.1 299.5 485.9 299.9L537.3 330.9C539.7 332.6 540 337.2 538.2 341.3C537.471 343.043 536.211 344.513 534.6 345.5Z" fill="white"/>
<path fill-rule="evenodd" clip-rule="evenodd" d="M534.3 350.2L486 377.7C483.4 379.2 480 377.1 478.7 373.1C478.3 372.1 478.1 371.1 478 370.1L476.5 311.8C476.5 307.5 479.7 304 483.4 304.1C484.2 304.1 485.1 304.4 485.8 304.8L536.8 335.5C539.2 337.3 539.7 341.9 537.9 345.9C537.1 347.9 535.9 349.4 534.4 350.2H534.3Z" fill="black"/>
<path fill-rule="evenodd" clip-rule="evenodd" d="M494.3 315.3C493.243 314.712 492.052 314.409 490.843 314.418C489.634 314.428 488.448 314.751 487.401 315.355C486.354 315.959 485.481 316.824 484.867 317.866C484.254 318.908 483.92 320.091 483.9 321.3V361C483.92 362.209 484.254 363.392 484.867 364.434C485.481 365.476 486.354 366.341 487.401 366.945C488.448 367.549 489.634 367.872 490.843 367.881C492.052 367.891 493.243 367.587 494.3 367L528.9 347.2C529.936 346.578 530.792 345.698 531.387 344.647C531.982 343.595 532.294 342.408 532.294 341.2C532.294 339.992 531.982 338.805 531.387 337.753C530.792 336.702 529.936 335.822 528.9 335.2L494.3 315.2V315.3ZM266.3 259.6C266.1 259.6 266.7 304.3 267.7 359.7V361.4L268.6 407.4C273.6 437 278.1 435.7 279.9 387.9C281.3 353.3 283.1 373.6 285.1 395.3C286.5 410.8 287.9 427.1 289.3 424.6L286.8 259.2L266.3 259.6ZM288.2 259.4L289.7 423.7C291.2 421.7 292.8 421.7 294.5 421.6L296.2 421.5L293.7 259.3L288.2 259.4ZM296.6 421.4L295.1 259.4H300.7L301.2 310L302.2 409L301.4 412.2C299.8 417.8 298.2 420.3 296.6 421.4Z" fill="white"/>
<path fill-rule="evenodd" clip-rule="evenodd" d="M207.6 413.8C202 408.3 180.2 407.3 173.6 418.3C170.6 421.7 170.7 437.4 170.9 441C170.1 444.1 173.7 448.9 175.5 450.7C177.4 452.7 177.3 454.4 176.4 456.5L173.5 459.9C170.3 460.7 169.2 461.9 165.9 462.4C157.1 464 153.1 471.2 148.3 476.9C144.4 481.4 147.3 486.8 148.1 491.7C149.1 497.6 148.9 503.6 147.7 509.4C146.7 514.2 147.2 591.1 144.7 597.9C138.4 615 126.6 645 134 651C139.6 655.8 149.6 655.5 166.3 654C172.5 653.5 193.5 633.1 200.3 635.6C206 638 224 647.3 231 648C253.8 650.5 272.2 635 275.7 628C279 621.5 277.3 619.1 272 616.4C269.8 615.3 264.6 618.2 262.8 614.1C259.8 607.5 267.1 616.1 268.6 604.8C270.2 592.5 269.7 550.4 268 538.8C267.2 533.1 233.5 527.2 234.1 521.8C234.7 516.2 233.6 517.6 234.2 513.8C234.5 511.8 243.1 518.6 247.5 521.6C251.6 524.2 255.3 527.6 262 519.3C267 513.2 280.8 504.8 288.7 493.8C292.7 488.2 302.7 485.4 304.4 481C306 477 294.7 466.4 294 464.8C292.6 461.5 280.9 469.1 279 471.8C277 474.4 275.3 479.5 274.2 480.5C270 484.4 252 493.8 252 493.8C252 493.8 235.6 478.6 234.5 476.8C232.7 470.4 226.5 467.8 220.5 465.3C214.3 462.8 212.5 459.9 206.7 456.5C206.7 453.7 209.9 452.3 210.6 449.5L210.8 449.3C213.3 449.2 213.2 447.1 213.8 445.5C212.7 442.4 216.1 440.7 216.5 437.8C216.683 428.943 213.462 420.353 207.5 413.8H207.6Z" fill="black"/>
<path d="M161.3 533.2L163.8 588.7L174.8 580L161.3 533.2Z" fill="#C4C3C6"/>
<path fill-rule="evenodd" clip-rule="evenodd" d="M192.4 456C187.7 448.4 186.2 441.6 186.2 441.6C186.2 441.6 186 446.5 186.4 450.1C184.44 446.911 182.989 443.436 182.1 439.8C182 441.8 181.6 442.5 181.9 445.7C180.844 443.567 180.038 441.319 179.5 439C178.7 441 179 441.2 178.5 442.7C177.8 435.6 180.4 430.4 186 427.2L192.8 423.1C192.9 423 183.5 430.4 192.4 456.1V456Z" fill="white"/>
<path fill-rule="evenodd" clip-rule="evenodd" d="M199.1 560.9C187.138 531.869 178.094 501.721 172.1 470.9C172.5 470.6 180.6 467.1 180.6 467.1C180.6 467.1 185.8 483.6 194.5 493.7C201.203 500.793 209.13 506.619 217.9 510.9L216.9 524.7L189.7 504.4C189.7 504.4 214.4 526.8 218.5 530.1C219 530.4 216.9 546.1 216.9 546.1L207.8 534.8C202.274 527.813 196.64 520.912 190.9 514.1C194.9 520.5 211.5 550.1 211.5 550.1L207.3 553.7L207.2 553.8L206.7 554.2C205.4 555.3 201.7 558.2 208 555.8C218.504 551.211 228.693 545.933 238.5 540C248.9 533 262.8 536.6 262.8 554C262.8 565.8 260.9 583 259.8 593.4C259.3 598.3 258.9 601.6 259 602.3C259.1 604.1 255.4 604.6 249.7 600.8C248.9 600.2 248 601 246.8 601.9C245.5 603 243.8 604.4 241.9 603.7V577.7V572.4C241.9 569 238.5 567.8 235.9 569C228.9 572.4 221.8 575.8 215 579.7L200.2 576.3C200.2 576.3 195.3 566.2 193.1 561.1C182.1 539.2 167.9 493.7 167.4 475.7C167.4 473.7 167.9 470.6 169.4 470.4C170.2 479.9 177.1 514.6 199.1 560.9ZM160.5 480.2C160.3 476.8 161 472.4 164.5 471.8C162.5 493.6 180.2 540.4 188.8 563.2C191.5 570.2 193.3 575 193.3 575.9C193.5 583.4 188.7 581.7 188.7 581.7C188.7 581.7 176.1 556.9 172 545C170.067 539.084 168.3 533.115 166.7 527.1C163.208 511.654 161.133 495.923 160.5 480.1V480.2Z" fill="#C4C3C6"/>
<path d="M158.6 481C160.344 515.98 170.278 550.061 187.6 580.5C189.7 584.2 191.5 580.9 188.3 575.5C181 563.1 158.6 499.5 161.3 474.5C161.3 474.5 158.5 479.2 158.6 481ZM180.5 469.4L173.3 472.4L173.8 475.8C177.3 490.5 188.7 530.8 188.2 519.7C187.5 503 185.1 486.5 181.1 470.3C180.986 469.951 180.779 469.639 180.5 469.4ZM218 533.2L218.2 530.2L191 506.5L218 533.2ZM250.7 550.7C243 553.7 214.7 557.5 214.7 557.5C214.7 557.5 240.2 543.8 247.7 542.3C255.3 540.9 257 548.1 250.7 550.7Z" fill="white"/>
<path d="M196.8 615.3L186.8 587.9L197.8 583.9L211.8 587.5C211.8 587.5 211.8 600.2 209.5 606C207.2 611.8 196.8 615.3 196.8 615.3Z" fill="#C4C3C6"/>
<path d="M183 599L188.2 613.8L167.7 626.7L182.9 599H183ZM244.9 593.8L257.9 591.2L257.5 569.9L244.9 593.8ZM265.5 628C265.5 628 251.2 634.7 244.7 636C238.3 637.4 239.1 638 229.7 634C228 633.4 227.7 638 233.4 640C237.2 641.4 241 641.4 244.7 640C253.7 637.6 260.5 635.1 264.8 632.6C270.8 629.1 272.7 628.6 271.2 622L265.5 628Z" fill="white"/>
<path d="M243.7 612.3C242.7 612.9 241.1 614.4 242.1 620.1C243.1 625.6 243.1 630.8 241.8 631.1C237.2 632.1 238.5 633.8 231.8 631.1C230.6 630.7 230.4 633.8 234.5 635.1C237.2 636.1 239.9 636.1 242.5 635.1C247.484 634.021 252.32 632.342 256.9 630.1C261.1 627.8 257.4 627.1 257.4 627.1C254.4 628.4 250.2 624.3 250.2 624C250.4 621.9 251.2 620 249.3 617L248.1 614.4C245.9 612.6 244.4 611.8 243.7 612.3Z" fill="white"/>
<path fill-rule="evenodd" clip-rule="evenodd" d="M178.5 437.7C178.3 437.4 178.5 436.7 178.5 432.6C178.5 422 182.5 417.2 193.2 417.2C203.9 417.2 209.4 425 209.4 435.7C209.4 440 205 447 196.2 456.7C197.6 454.7 198.9 452.4 199.9 450L197.2 453.1L195.7 454.1C196.4 453.3 198.1 448.6 199.8 442.4C197.8 446.2 196.5 447.6 195.3 449.1L193.3 451.5C194.8 448.9 194.8 448.3 194.8 447.2C194.8 446.3 194.8 445 195.6 441.8L193.8 444.8C192.7 446.8 192 447.8 190.9 451.1C188.9 448 187.1 446.1 185.5 444.4L183.2 441.8C179.9 437.8 178.8 438.1 178.5 437.8V437.7ZM198 484.5C193.5 476.9 195.7 462.5 196.8 460.2C205.183 462.603 213.048 466.536 220 471.8C226.8 477 234.1 484.4 242.5 493L249.8 500.5C263.5 493.1 266.2 491.5 273.2 486.8C280.2 482.2 284.8 490.3 279 494.9C273.2 499.5 270.3 501.9 264 506.5C257.6 511.1 253.5 514.5 253.5 514.5L246.5 508.8L223.5 489.1C223.5 489.1 218.8 485.6 218.8 490.3L219 500.2V501.4C219 501.7 203.6 494.1 198 484.4V484.5Z" fill="white"/>
<path fill-rule="evenodd" clip-rule="evenodd" d="M307.4 418.5L307.9 450C307.901 452.088 307.085 454.093 305.628 455.587C304.171 457.082 302.187 457.948 300.1 458L292.2 458.1L292.5 471.9C292.5 473.474 291.882 474.985 290.778 476.108C289.675 477.23 288.174 477.874 286.6 477.9C285.043 477.901 283.546 477.296 282.427 476.214C281.307 475.132 280.652 473.656 280.6 472.1L280.3 458.3L273.3 458.5C272.249 458.527 271.204 458.346 270.223 457.968C269.242 457.591 268.345 457.023 267.584 456.299C266.822 455.575 266.211 454.707 265.785 453.747C265.359 452.786 265.126 451.751 265.1 450.7L264.6 419.3L307.4 418.5Z" fill="black" stroke="black" stroke-width="0.9" stroke-linecap="round" stroke-linejoin="round"/>
<path d="M303.9 439.4L268.9 440C268.6 440 268.4 441.6 268.5 443.5C268.5 445.5 268.7 447 268.9 447L304 446.4C304.2 446.4 304.4 444.8 304.3 442.9C304.3 440.9 304.1 439.4 303.9 439.4ZM290.4 473.3L290 451C290 450.9 288.5 450.8 286.5 450.8C284.6 450.8 283.1 451 283.1 451.1C283.1 451.1 286.8 466.4 286.9 472.1C287 477.8 290.4 473.6 290.4 473.4V473.3Z" fill="#C4C3C6"/>
<path d="M289.8 473.3L289.6 459.3C289.6 459.3 287.5 460.8 287 462.4C286 465.7 286.3 470.6 286.4 472.8C286.4 476 289.8 473.4 289.8 473.3Z" fill="white"/>
<path d="M298.4 422.2L298.6 431.6L295.6 422.2H290.4L290.5 427L289 422.3L268.5 422.7C268.3 422.7 268.2 426 268.2 430.2C268.3 434.4 268.5 437.7 268.8 437.7L303.8 437.1C304.1 437.1 304.2 433.9 304.1 429.8V429.6C304.1 425.4 303.8 422.1 303.6 422.1H298.4V422.2Z" fill="#C4C3C6"/>
<path fill-rule="evenodd" clip-rule="evenodd" d="M304.2 428.3C304.2 424.7 303.9 422.1 303.7 422.1H298.5L298.7 431.7C300.7 430.7 302.6 429.6 304.2 428.3ZM268.3 432.6C268.248 429.265 268.314 425.93 268.5 422.6L289.1 422.3L290.6 427.2V422.2H295.6L298.6 431.7C294.2 433.7 288.8 435 283.1 435.1C277.7 435.2 272.6 434.3 268.3 432.6Z" fill="white"/>
<path d="M290.1 469.5C287.5 470 286.1 471.4 285.2 472.1C283.923 473.921 282.975 475.952 282.4 478.1C282.8 478.1 282.6 478.3 282.1 478.6C282.3 482.1 283.5 485.3 285.6 487.8C290.4 486.2 294.5 485 296.8 483.3C299.4 481.4 299.1 478.9 296.8 478.8C295.3 479.3 296.8 476.7 296.8 476.3C296.7 474.9 295.6 475.5 294.2 475.3C293.4 475.3 295.7 473.3 294.7 472.9C294.1 472.6 293.1 472.4 292.7 471.9C292.3 471.5 294.5 470.5 293.6 469.9C292.7 469.3 291.6 469.2 290.1 469.5Z" fill="white"/>
<path fill-rule="evenodd" clip-rule="evenodd" d="M164.6 608C166.6 610 166 613 164.1 619.8C163.2 623.2 161.3 625.1 160.1 629.4C159 633.7 161.3 635.4 160.4 638.8C158.5 645.6 153.1 650.1 148.1 648.8C143.1 647.5 140.7 640.8 142.5 634C143.1 632 149.1 616.3 153.3 609C156.3 604 162.6 605.9 164.6 608Z" fill="white"/>
<path fill-rule="evenodd" clip-rule="evenodd" d="M155.2 634.2C150.2 632.4 145.6 630.5 142 628.7C151.55 630.928 160.811 634.25 169.6 638.6C165.5 637.6 160.5 636.1 155.2 634.2ZM151.6 625.9C147.2 624.3 143.1 622.6 139.9 620.9C148.408 622.935 156.66 625.921 164.5 629.8C160.8 628.9 156.4 627.6 151.6 625.9ZM149.7 619C146.7 618 144.1 616.8 142 615.8C147.6 617.123 153.033 619.068 158.2 621.6C155.8 621 152.9 620.2 149.7 619Z" fill="black"/>
<path d="M304 667.7C304 670.5 302 676.2 293 679.5C286.791 681.464 280.312 682.443 273.8 682.4C263.2 682.4 252.2 680 247 674.8C245.982 673.908 245.156 672.819 244.572 671.599C243.988 670.378 243.657 669.052 243.6 667.7L235 612.7C235 599.4 255.6 593.3 273.8 593.3C283.3 593.3 292.4 594.7 299.1 597.5C310.6 602.3 312.5 608.9 312.5 612.7L303.9 667.7H304Z" fill="black"/>
<path fill-rule="evenodd" clip-rule="evenodd" d="M305.6 615.3C303.7 617.8 300.7 620.3 295.8 622.1C289.4 624.3 281.8 625.4 274.3 625.4C262.5 625.4 250.2 622.6 244.3 616.6L243.1 615.2V615.9L250.1 661.9C250.1 664.3 251.2 666.3 252.7 667.9C257 672.3 265.9 674.3 274.3 674.3C279.7 674.3 285.1 673.5 289.8 671.9C297.1 669.1 298.6 664.3 298.6 661.9L305.6 615.9V615.3Z" fill="#C4C3C6"/>
<path d="M298.5 624.5C298.7 627 298.7 629.7 298.6 632.5C298.6 652.5 294.4 664.6 292.3 667.3C290.1 664.6 285.9 652.6 285.9 632.5V628.5C290.199 627.803 294.376 626.489 298.3 624.6L298.5 624.5Z" fill="white"/>
<path d="M247.3 616.7C249.193 627.368 251.697 637.919 254.8 648.3C254.178 638.464 252.74 628.697 250.5 619.1C249.221 618.683 248.103 617.879 247.3 616.8V616.7ZM252.7 616.7C253.557 622.085 255.034 627.354 257.1 632.4C257.408 627.451 256.901 622.485 255.6 617.7C254.8 617.7 254.1 617.4 253.3 617.1C253.128 617.01 252.961 616.91 252.8 616.8L252.7 616.7Z" fill="black"/>
<path d="M243.5 621C244.5 621.6 246.3 642.3 254 657.6C261.6 673 273.6 674 271.9 676.6C270.8 675.5 251.4 673.6 249.5 664.4C248.7 660.4 244.8 647.6 243.5 638.6C242.7 633 243.5 621 243.5 621Z" fill="black"/>
<path d="M273.8 607.2C259.9 606.7 251.8 610.6 248.8 612.4C250.8 614.1 259.4 617.6 273.8 617.6C288.1 617.6 296.8 614.1 298.6 612.4C296.7 610.6 288.1 607.2 273.8 607.2Z" fill="white"/>
<path d="M681.7 132.2C681.7 132.2 705.6 118.3 709.8 120.8C714.1 123.3 715.1 132.2 704.4 145.4C693.7 158.6 672.6 166.8 672.6 166.8C670.4 171.8 665.2 175 659.6 174.2C646.6 172.3 636.4 170.9 629.3 169.7C625.8 169.1 610.3 167.8 606.8 165.7C603.1 163.5 595.4 159.3 594.2 154.9C593.4 152.4 594.2 147.9 594.4 145.9C594.4 145.9 605 143.4 608.7 142.9C612.1 142.5 606.4 134.1 611.5 135.4C616.6 136.7 625.2 149.8 625.2 149.8L664.2 150.3L681.7 132.2Z" fill="black"/>
<path d="M660.6 157.4C660.6 157.4 662.4 162.3 660.8 164.4C659.2 166.6 653.1 169.7 650 168.9C641 166.5 656.2 164.5 647 159.9C641.3 156.6 660.5 157.5 660.5 157.5H660.6V157.4Z" fill="white"/>
<path d="M676.3 191.1C676.2 185.9 675.2 181.2 676.3 176.1C677.5 169.9 677.7 163.4 676.7 157.1C675.9 151.9 672.9 146.1 676.8 141.3C681.8 135.3 686 127.5 695.1 125.8C698.5 125.2 698.9 122.9 702.3 122L703.9 121C705.9 118.8 709.2 120.7 711.1 118.4C712.1 116.1 714.9 114 712.9 111.8C711.1 110 708.7 107.8 709.6 104.5C709.4 100.6 706.7 97.3 707.4 93.3C706.085 91.5562 705.434 89.4015 705.562 87.2213C705.69 85.0412 706.59 82.9777 708.1 81.4C712.4 73.9 730.3 69 736.1 74.8C738.995 77.7553 741.238 81.2844 742.684 85.1598C744.131 89.0352 744.75 93.1709 744.5 97.3C744.1 100.5 740.5 102.2 741.7 105.6C741.1 107.3 741.3 109.6 738.7 109.6L738.4 109.9C737.7 112.9 738.6 115.9 738.7 118.8C744.7 122.4 750.7 124.1 757.2 126.8C763.7 129.5 770.6 132.6 772 140.2C774 150.8 774.3 165.4 775.4 176.2L773.4 220.2C773.7 223 742 222.8 726.4 220.2C697.8 215.4 676.4 194.7 676.4 191.2L676.3 191.1Z" fill="black"/>
<path d="M687.6 137C684.6 142 683.6 151.6 680.3 153.6C677.1 155.6 675.3 158.7 669.9 160.9C669.9 160.9 667.3 157.2 673 148.4C678.8 139.7 687.6 137 687.6 137Z" fill="white"/>
<path fill-rule="evenodd" clip-rule="evenodd" d="M705.4 128.6C705.43 134.28 706.034 139.942 707.2 145.5C709.9 160.1 714 182.1 717.2 194.2L726.5 189C726.3 186 724.3 174.3 722.2 161.5C720.089 149.439 718.222 137.337 716.6 125.2C714 123.4 708.8 126.5 705.4 128.6ZM700.9 131.2C698.9 131.5 698.7 134.2 698.9 136.2L699.1 137.8C699.9 145.7 703.1 174.8 708.8 191.3L713 191C707.571 171.38 703.561 151.395 701 131.2H700.9Z" fill="#C4C3C6"/>
<path d="M751.2 180C751.2 180 733.2 166.1 726.5 156.7C719.8 147.2 717.1 130.7 717.1 130.7C717.1 130.7 719.1 158.4 722.3 166C725.5 173.7 734.3 186.6 734.3 186.6L751.3 179.9L751.2 180Z" fill="#C4C3C6"/>
<path fill-rule="evenodd" clip-rule="evenodd" d="M700 151.5C702.1 164.8 705 178 708.8 190.9L711.3 190.7C705.393 171.897 701.275 152.578 699 133C698 134 698 136 698.2 137.7L700 151.5ZM695.2 145.2C694.058 160.138 693.625 175.121 693.9 190.1L701.5 190L695.2 145.2Z" fill="white"/>
<path d="M713 126.5L717 191L705 128.8L713 126.5ZM739.9 95.8L740.2 93.8C740.2 91.6 740.2 89.3 739.7 87.1C739 83.7 737.4 80.0999 733.9 78.6999C733.4 78.5999 732.9 78.6 732.5 78.8C728.8 74.4 718.7 76.8 714.8 80.8C714.132 81.3584 713.603 82.065 713.256 82.8635C712.909 83.662 712.753 84.5305 712.8 85.4L712.4 86.2V87L712.2 87.3C711.7 88 711.8 88.9 712.4 89.4C712.9 89.8 713.5 89.8 714 89.5C715.6 88.7 718.7 90.3 720.1 90.7C723.1 91.5999 727.5 90 730.6 90C731.2 90 731.8 90 732.4 90.2C733.9 90.8 734.1 92.8 734.4 94.4C735.1 97 736.8 99.1999 739.2 100.7L739.9 95.8Z" fill="white"/>
<path fill-rule="evenodd" clip-rule="evenodd" d="M718.1 104.1C719.8 104.5 721.6 103.3 722.1 101.5C722.7 99.7 721.8 97.8 720.1 97.1L718.1 104.1ZM762.1 143.9C757.3 151.9 746.8 154.9 738 150.6C733.791 148.631 730.472 145.158 728.695 140.864C726.918 136.57 726.813 131.767 728.4 127.4L762.1 143.9Z" fill="white"/>
<path d="M751 160.9C751 160.9 761.8 135.4 766.6 134.9C771.6 134.2 777.6 140.8 777.1 157.7C776.5 174.7 764.6 194 764.6 194C765.9 199.3 763.6 205 758.6 207.7C747.1 214.1 738.1 219 731.8 222.3C728.6 224 715.4 232.3 711.4 232.7C707.1 233.2 698.4 234.4 694.8 231.7C692.7 230.1 690.6 226 689.6 224.4C689.6 224.4 699 215.6 701.6 212.9C704.1 210.5 699.1 202.3 704 200.2C708.9 198.2 716.4 208.9 716.4 208.9L747.9 185.9L751 160.9Z" fill="black"/>
<path d="M749 195.9L753.9 201C753.993 202.43 753.65 203.854 752.919 205.085C752.187 206.316 751.1 207.298 749.8 207.9C741.5 212.1 732.4 215.6 722.4 218.3C716 219.6 711.9 219.5 710.1 217.9L749.1 196.1V195.9H749ZM708.5 212C707.4 212.2 706.5 212 706.2 211.5C705.3 210 704.9 208.3 704.8 206.5C704.9 205.2 705.4 204.5 706.2 204.1L710.9 210.6L708.5 212.1V212ZM616.4 151.4C615.4 151.5 614.4 151.3 614.1 150.8C613.3 149.3 612.8 147.6 612.8 145.8C612.9 144.5 613.4 143.8 614.2 143.3L618.9 149.9L616.4 151.4Z" fill="white"/>
<path d="M714 213.4C716.9 214.8 719.9 220.2 720 222.9C716.7 224.6 713.8 226.2 711.5 226.7L711.2 226.9C709.6 227.6 707.9 228.1 706 228.4C704.7 228.5 704 228.4 703.6 227.9L707.8 225.9C707.6 225.6 707.6 225.3 707.7 224.9C707 225.2 706.2 225.3 705.2 225.5C699.9 226.2 696.5 225.7 695.2 224.1C695.2 224.1 705.8 215.1 706.6 214.6C708.4 213.3 711.2 212 714 213.4ZM759 160.6L767.7 157.7C768.3 163.8 768 169.3 766.7 174.1C766.4 175.1 763.2 175.9 762.7 177.1C761.4 180.7 762.1 185.4 759.1 190.6C759.1 190.6 755.9 192.7 755.1 181.8C754.1 171 758.9 160.6 758.9 160.6H759Z" fill="white"/>
<path fill-rule="evenodd" clip-rule="evenodd" d="M518.1 525.4H512.6C521.6 525.5 528.4 525.7 537.6 526V554.6L537.3 559.6C537.6 562.6 363.1 559.9 362.3 560.8H333.6L333.2 557.9L355.2 557.5L384.2 557C388 557 389.6 555.5 389.6 552V534C389.6 530.6 388 529.3 384 529.3C365.7 529.6 341.6 530.3 323.2 530.7C304.9 531.1 301.8 526.7 301.8 526.4L346.9 526C351.5 525.9 352.9 524.5 352.9 520.5V503.1C352.8 499.5 351.2 498.1 347.1 498.1C339.9 498.3 334.8 496.1 334.8 494.7H335.6C354.7 494.3 364.6 493.9 383.7 493.7C387.9 493.6 396.7 492.7 401.2 492.7H429.6C439.3 492.7 447 492.7 460.6 491.7C460.6 491.7 457.7 491.9 456.6 492.7C454.6 488.1 448.9 492.8 448.9 492.8L456.9 490.7L466.6 492.7L464.4 498.2L459.4 497.9H437.4C433.4 497.9 431.8 499.3 431.8 502.8V520.8C431.8 524.8 518.1 525.4 518.1 525.4ZM402.7 529.6C398.8 529.6 397.3 531 397.3 534.7V550.7C397.3 554.6 398.8 556 403 556H429.4L456.6 556.2C460.4 556.2 461.9 554.8 462 551.1V534.8L456.8 529.8L402.8 529.6H402.7ZM476 528.4C471.7 528.4 470.3 529.6 470.3 533.5L470.2 549.7C470.2 553.5 471.6 554.7 476 554.7L502.1 554.8L526.9 555L532.5 550.4L532.7 533.7C532.7 530.1 531.3 528.9 527.1 528.8L476 528.4ZM421.7 499.4H421.4L363.7 500.4C359.6 500.4 357.9 501.9 357.9 505.4L358.1 521.9L364.9 524.9C374.2 524.8 383.3 525.1 392.7 524.9C402.3 524.8 412 525.1 421.6 524.9C426 524.9 427.3 524.9 427.3 521.3V504.4C427.3 500.9 425.9 499.6 422 499.4H421.7Z" fill="white"/>
<path fill-rule="evenodd" clip-rule="evenodd" d="M522.7 522L517.2 521.8L544.5 522.5V551H545C545.4 553.9 547 554.7 551.1 554.8C561.534 554.887 571.967 554.987 582.4 555.1V557.2C582.4 557.2 367.7 556.3 366.8 557.2H338.2C338.2 556.2 338 555.3 337.9 554.4L359.9 553.9L388.7 553.4C392.7 553.4 394.2 551.9 394.2 548.5V530.5C394.2 527 392.6 525.7 388.6 525.8C370.3 526 320.7 526.8 302.4 527.2L300.1 523.7C300.1 523.4 345.4 522.6 351.5 522.4C356.1 522.4 357.6 521 357.6 517L357.5 499.5C357.5 495.9 355.8 494.5 351.7 494.6L334.9 495.1L334.8 491.1H335.6L388.3 490.1C392.5 490.1 394.1 488.6 394.1 485.1V467.6C394.1 466.4 393.9 465.4 393.6 464.6H399.8V484C399.8 488 401.4 489.4 405.8 489.4H463.2L468 485.2V494.5H442C438 494.5 436.4 496 436.4 499.5V517.5C436.4 521.5 437.9 522.8 442.4 522.8H499.5C500.971 522.969 502.459 522.727 503.8 522.1H522.8L522.7 522ZM407.3 526C403.5 526 402 527.5 401.9 531.2V547.2C401.9 551 403.4 552.4 407.6 552.4H434.1L461.2 552.6C465 552.6 466.6 551.2 466.6 547.6L466.7 531.3L461.4 526.3L407.4 526H407.3ZM480.6 524.8C476.3 524.8 475 526.1 474.9 529.9V546.2C474.9 549.9 476.2 551.2 480.6 551.2H506.7L533.9 551.5L539.4 546.9L539.6 530.1C539.6 526.6 538.2 525.3 534.1 525.2L480.6 524.8ZM426.3 496H426.1C406.8 496.2 387.6 496.5 368.3 496.9C364.2 496.9 362.6 498.4 362.6 501.9V518.4L369.2 523.8L397.2 523.3L426 522.9C430.4 522.9 432 521.5 432 517.9V500.9C432 497.5 430.5 496.1 426.6 496H426.3Z" fill="black"/>
</svg>
