<svg width="432" height="348" viewBox="0 0 432 348" fill="none" xmlns="http://www.w3.org/2000/svg">
<g clip-path="url(#clip0_1008_6543)">
    <path fill-rule="evenodd" clip-rule="evenodd"
          d="M262.266 334H256V327.733L329.733 254H336V260.266L262.266 334ZM316.8 254H304.295L256 302.296V314.8L316.8 254ZM279.423 254H292L256 290V277.422L279.423 254ZM256 254V265.2L267.2 254H256ZM336 273.2V285.705L287.705 334H275.2L336 273.2ZM336 310.578V298L300 334H312.577L336 310.578ZM324.8 334L336 322.8V334H324.8Z"
          fill="#B7C8FA" fill-opacity="0.06"/>
    <path d="M256 254H176V174H256V254Z" fill="#B7C8FA" fill-opacity="0.06"/>
    <path fill-rule="evenodd" clip-rule="evenodd"
          d="M167.111 254V174H176V254H167.111ZM96 254V174H104.889V254H96ZM113.778 174V254H122.667V174H113.778ZM149.333 254V174H158.222V254H149.333ZM131.556 174V254H140.444V174H131.556Z"
          fill="#B7C8FA" fill-opacity="0.06"/>
    <path d="M416 254H336V174H416V254Z" fill="#B7C8FA" fill-opacity="0.06"/>
    <path fill-rule="evenodd" clip-rule="evenodd"
          d="M13.7779 169.556C59.188 169.556 96.0001 206.368 96.0001 251.778C96.0001 297.188 59.188 334 13.7779 334C-31.6322 334 -68.4443 297.188 -68.4443 251.778C-68.4443 206.368 -31.6322 169.556 13.7779 169.556Z"
          fill="#B7C8FA" fill-opacity="0.06"/>
    <path fill-rule="evenodd" clip-rule="evenodd"
          d="M336 14H344.889V22.8889H336V14ZM353.778 22.8889H344.889V31.7778H336V40.6667H344.889V49.5556H336V58.4444H344.889V67.3333H336V76.2222H344.889V85.1111H336V94H344.889V85.1111H353.778V94H362.667V85.1111H371.556V94H380.444V85.1111H389.333V94H398.222V85.1111H407.111V94H416V85.1111H407.111V76.2222H416V67.3333H407.111V58.4444H416V49.5556H407.111V40.6667H416V31.7778H407.111V22.8889H416V14H407.111V22.8889H398.222V14H389.333V22.8889H380.444V14H371.556V22.8889H362.667V14H353.778V22.8889ZM353.778 31.7778V22.8889H362.667V31.7778H353.778ZM353.778 40.6667V31.7778H344.889V40.6667H353.778ZM362.667 40.6667V31.7778H371.556V40.6667H362.667ZM362.667 49.5556V40.6667H353.778V49.5556H344.889V58.4444H353.778V67.3333H344.889V76.2222H353.778V85.1111H362.667V76.2222H371.556V85.1111H380.444V76.2222H389.333V85.1111H398.222V76.2222H407.111V67.3333H398.222V58.4444H407.111V49.5556H398.222V40.6667H407.111V31.7778H398.222V22.8889H389.333V31.7778H380.444V22.8889H371.556V31.7778H380.444V40.6667H371.556V49.5556H362.667ZM362.667 58.4444H353.778V49.5556H362.667V58.4444ZM371.556 58.4444V49.5556H380.444V58.4444H371.556ZM371.556 67.3333V58.4444H362.667V67.3333H353.778V76.2222H362.667V67.3333H371.556ZM380.444 67.3333V76.2222H371.556V67.3333H380.444ZM389.333 67.3333H380.444V58.4444H389.333V67.3333ZM389.333 49.5556H398.222V58.4444H389.333V49.5556ZM389.333 40.6667H398.222V31.7778H389.333V40.6667ZM389.333 40.6667V49.5556H380.444V40.6667H389.333ZM389.333 67.3333V76.2222H398.222V67.3333H389.333Z"
          fill="#B7C8FA" fill-opacity="0.06"/>
    <path fill-rule="evenodd" clip-rule="evenodd"
          d="M96 167.734V174H89.7331L16 100.267V94H22.2662L96 167.734ZM16 113.2V125.705L64.2958 174H76.8L16 113.2ZM16 150.577V138L52 174H39.4221L16 150.577ZM16 174H27.2L16 162.8V174ZM35.2 94H47.7047L96 142.295V154.8L35.2 94ZM72.5779 94H60L96 130V117.423L72.5779 94ZM96 105.2L84.8 94H96V105.2Z"
          fill="#B7C8FA" fill-opacity="0.06"/>
    <path fill-rule="evenodd" clip-rule="evenodd"
          d="M20.4444 96.2222C20.4444 55.7213 53.2769 22.8889 93.7778 22.8889C134.279 22.8889 167.111 55.7213 167.111 96.2222C167.111 136.723 134.279 169.556 93.7778 169.556C53.2769 169.556 20.4444 136.723 20.4444 96.2222ZM93.7778 14C48.3677 14 11.5555 50.8121 11.5555 96.2222C11.5555 141.632 48.3677 178.444 93.7778 178.444C139.188 178.444 176 141.632 176 96.2222C176 50.8121 139.188 14 93.7778 14ZM93.7778 40.6667C63.0953 40.6667 38.2222 65.5397 38.2222 96.2222C38.2222 126.905 63.0953 151.778 93.7778 151.778C124.46 151.778 149.333 126.905 149.333 96.2222C149.333 65.5397 124.46 40.6667 93.7778 40.6667ZM29.3333 96.2222C29.3333 60.6305 58.1861 31.7778 93.7778 31.7778C129.369 31.7778 158.222 60.6305 158.222 96.2222C158.222 131.814 129.369 160.667 93.7778 160.667C58.1861 160.667 29.3333 131.814 29.3333 96.2222ZM60.4444 94C60.4444 74.3632 76.3632 58.4444 96 58.4444C115.637 58.4444 131.556 74.3632 131.556 94C131.556 113.637 115.637 129.556 96 129.556C76.3632 129.556 60.4444 113.637 60.4444 94ZM96 49.5556C71.454 49.5556 51.5555 69.454 51.5555 94C51.5555 118.546 71.454 138.444 96 138.444C120.546 138.444 140.444 118.546 140.444 94C140.444 69.454 120.546 49.5556 96 49.5556ZM96 76.2222C86.1816 76.2222 78.2222 84.1816 78.2222 94C78.2222 103.818 86.1816 111.778 96 111.778C105.818 111.778 113.778 103.818 113.778 94C113.778 84.1816 105.818 76.2222 96 76.2222ZM69.3333 94C69.3333 79.2724 81.2724 67.3333 96 67.3333C110.728 67.3333 122.667 79.2724 122.667 94C122.667 108.728 110.728 120.667 96 120.667C81.2724 120.667 69.3333 108.728 69.3333 94ZM87.1111 94C87.1111 89.0908 91.0908 85.1111 96 85.1111C100.909 85.1111 104.889 89.0908 104.889 94C104.889 98.9092 100.909 102.889 96 102.889C91.0908 102.889 87.1111 98.9092 87.1111 94Z"
          fill="#B7C8FA" fill-opacity="0.06"/>
    <path fill-rule="evenodd" clip-rule="evenodd"
          d="M167.111 174V94H176V174H167.111ZM96 174V94H104.889V174H96ZM113.778 94V174H122.667V94H113.778ZM149.333 174V94H158.222V174H149.333ZM131.556 94V174H140.444V94H131.556Z"
          fill="#B7C8FA" fill-opacity="0.06"/>
    <path d="M336 174H256V94H336V174Z" fill="#B7C8FA" fill-opacity="0.06"/>
    <path d="M385.838 234.82H36V242.058H385.838V234.82Z" fill="#C4C3C7" stroke="black" stroke-width="3.564"/>
    <path fill-rule="evenodd" clip-rule="evenodd" d="M69.7309 218.736H359.817L385.838 234.418H36L69.7309 218.736Z"
          fill="white" stroke="black" stroke-width="3.168" stroke-linejoin="round"/>
    <path d="M309.103 115.466H341.605V218.736C360.212 223.926 371.739 227.411 376.187 229.191C380.635 230.97 381.841 232.578 379.806 234.016L87.0682 224.365V128.345H113.136V117.476H137.45V106.607H161.763V94.885L220.04 92.8745V104.597H232.289V92.8745H266.107V115.466H290.42V126.334H309.103V115.466Z"
          fill="black"/>
    <path d="M278.367 100.525C283.888 97.262 287.146 95.9153 288.139 96.4849C289.63 97.3395 289.992 100.449 286.311 105.078C283.857 108.165 280.184 110.685 275.292 112.64C274.571 114.41 272.738 115.499 270.804 115.239C266.232 114.624 262.712 114.125 260.242 113.742C259.009 113.551 253.578 113.129 252.389 112.414C251.068 111.621 248.394 110.175 247.935 108.648C247.671 107.768 247.926 106.183 247.986 105.519C250.441 104.914 252.099 104.552 252.962 104.432C254.148 104.268 252.116 101.34 253.913 101.784C255.111 102.08 256.713 103.748 258.717 106.788L272.313 106.879L278.367 100.525Z"
          fill="black"/>
    <path d="M271.041 109.344C271.463 110.474 271.489 111.292 271.121 111.797C270.569 112.555 268.439 113.64 267.388 113.369C264.246 112.556 269.52 111.834 266.298 110.232C264.96 109.472 266.523 109.19 270.988 109.387L271.041 109.344Z"
          fill="white"/>
    <path d="M276.402 121.066C276.353 119.259 276.004 117.616 276.373 115.849C276.832 113.677 276.897 111.443 276.564 109.251C276.285 107.419 275.229 105.413 276.613 103.751C278.371 101.642 279.826 98.9499 283 98.3762C284.212 98.157 284.326 97.3599 285.508 97.0371L286.089 96.6723C286.77 95.9469 287.934 96.5783 288.587 95.7776C288.955 94.9873 289.941 94.2631 289.24 93.5152C288.621 92.86 287.781 92.1071 288.091 90.9563C288.025 89.6186 287.087 88.4546 287.319 87.0573C286.375 85.805 286.483 84.0572 287.575 82.9242C289.101 80.334 295.344 78.6101 297.347 80.6408C299.207 82.4331 300.67 85.9445 300.272 88.4897C300.118 89.572 298.893 90.1757 299.274 91.3681C299.083 91.9635 299.121 92.729 298.199 92.78L298.122 92.8688C297.896 93.9063 298.183 94.9217 298.233 95.9451C300.3 97.2086 302.414 97.814 304.657 98.7372C306.948 99.6868 309.332 100.757 309.83 103.41C310.522 107.095 310.597 112.174 310.979 115.939L310.214 131.234C310.313 132.222 299.283 132.117 293.866 131.209C283.862 129.532 276.434 122.304 276.402 121.066Z"
          fill="black"/>
    <path d="M280.427 102.255C279.343 103.996 279.004 107.358 277.895 108.049C276.786 108.74 276.134 109.823 274.275 110.586C273.661 109.719 274.023 108.27 275.359 106.242C276.695 104.214 278.384 102.885 280.427 102.255Z"
          fill="white"/>
    <path d="M284.339 102.001C284.265 101.298 284.366 100.353 285.044 100.237C285.816 106.193 287.414 115.334 289.188 121.059L287.745 121.131C285.56 114.895 284.51 103.542 284.339 102.001ZM286.892 103.334C286.705 102.006 286.609 100.667 286.606 99.3258C287.812 98.6184 289.652 97.5399 290.564 98.1694C290.854 101.486 293.762 118.145 293.937 120.345L290.645 122.148C289.428 117.394 287.786 108.179 286.892 103.334Z"
          fill="#D8D8D8"/>
    <path d="M302.527 117.205C298.351 113.992 295.484 111.292 293.929 109.107C292.374 106.922 291.292 103.905 290.683 100.057C291.147 106.484 291.743 110.586 292.472 112.363C293.2 114.14 294.583 116.518 296.621 119.497L302.527 117.205Z"
          fill="#D8D8D8"/>
    <path d="M287.775 121.002C286.478 116.514 285.464 111.94 284.74 107.31C284.498 105.716 284.29 104.115 284.115 102.507C284.04 101.939 284.091 101.211 284.425 100.865C284.587 102.327 284.775 103.788 284.995 105.239C285.812 110.602 287.079 115.833 288.67 120.957L287.775 121.002ZM282.529 120.716C282.506 120.478 282.462 110.092 283.076 105.12C283.073 105.063 285.112 119.778 285.208 120.696L282.529 120.716Z"
          fill="white"/>
    <path d="M289.329 98.6128L290.675 121.064L286.446 99.4042L289.329 98.6128Z" fill="white"/>
    <path d="M298.596 87.9785C298.648 87.6359 298.69 87.3586 298.695 87.2856C298.729 86.5035 298.674 85.721 298.532 84.9511C298.301 83.7491 297.754 82.5146 296.52 82.0316C296.359 81.9692 296.177 81.9785 296.023 82.057C294.766 80.5029 291.23 81.3768 289.86 82.7539C289.394 83.1596 289.144 83.7397 289.179 84.3344C289.1 84.4125 289.048 84.5111 289.03 84.6172C289.017 84.6856 289.014 84.7551 289.018 84.8241C289.02 84.8645 288.997 84.9102 289.022 84.8887C289.003 84.9314 288.979 84.972 288.95 85.0097C288.775 85.233 288.81 85.5438 289.029 85.7259C289.188 85.8491 289.413 85.8666 289.593 85.7699C290.125 85.4918 291.212 86.0309 291.717 86.1871C292.757 86.4971 294.277 85.9516 295.37 85.9344C295.576 85.9202 295.783 85.944 295.979 86.0044C296.509 86.22 296.577 86.9125 296.708 87.4682C296.926 88.376 297.514 89.164 298.345 89.6624C298.345 89.6624 298.485 88.6801 298.596 87.9785Z"
          fill="white"/>
    <path fill-rule="evenodd" clip-rule="evenodd"
          d="M291.021 90.8549C291.623 90.9659 292.232 90.573 292.415 89.935C292.597 89.297 292.288 88.6421 291.719 88.4187L291.021 90.8549Z"
          fill="white"/>
    <path d="M95.9144 223.159H335.975V122.704H314.733V133.573H284.79V122.704H260.477V100.113H237.919V111.835H214.41V100.113H171.413V111.835H147.1V122.704H122.787V133.573H95.9144V223.159Z"
          fill="#C4C3C6"/>
    <path d="M313.056 222.145L335.172 172.895L334.575 222.355L313.056 222.145Z" fill="white"/>
    <path d="M265.606 226.434L315.87 145.551L279.397 226.778L265.606 226.434Z" fill="black"/>
    <path d="M301.394 138.158L265.606 196.217L291.575 137.911L301.394 138.158Z" fill="black"/>
    <path d="M289.872 223.159V223.155L272.442 222.718L327.327 122.635L327.329 122.631V122.635L332.759 123.076L289.874 223.155L289.872 223.159ZM293.035 133.488L309.437 133.627L288.911 167.261L300.624 141.012L271.236 182.144L293.035 133.488Z"
          fill="white"/>
    <path fill-rule="evenodd" clip-rule="evenodd"
          d="M94.4902 193.001H92.2762L92.0776 138.715L93.9133 134.292L94.4902 193.001Z" fill="white"/>
    <path fill-rule="evenodd" clip-rule="evenodd"
          d="M122.236 133.89H119.284L119.019 127.626L121.467 123.033L122.236 133.89Z" fill="white"/>
    <path fill-rule="evenodd" clip-rule="evenodd"
          d="M146.765 123.033H143.812L143.548 116.769L145.995 112.176L146.765 123.033Z" fill="white"/>
    <path fill-rule="evenodd" clip-rule="evenodd"
          d="M170.892 112.176H167.94L167.675 105.108L170.123 100.515L170.892 112.176Z" fill="white"/>
    <path fill-rule="evenodd" clip-rule="evenodd"
          d="M279.042 122.406L277.108 122.362C280.272 122.432 282.63 122.506 285.792 122.583V132.527L285.712 134.293C285.827 135.294 225.182 134.372 224.869 134.695H214.924C214.884 134.361 214.842 134.028 214.8 133.694C217.355 133.641 219.909 133.587 222.463 133.538C225.801 133.477 229.138 133.432 232.474 133.367C233.845 133.342 234.385 132.856 234.391 131.666C234.401 129.575 234.395 127.484 234.371 125.394C234.358 124.204 233.813 123.74 232.429 123.757C226.069 123.846 217.687 124.096 211.321 124.24C204.955 124.383 203.883 122.837 203.868 122.741C206.011 122.693 217.403 122.648 219.546 122.599C221.136 122.565 221.659 122.094 221.656 120.7C221.652 118.682 221.64 116.663 221.612 114.645C221.594 113.393 221.04 112.91 219.605 112.936C217.126 112.984 215.352 112.179 215.342 111.721C215.429 111.723 215.52 111.723 215.615 111.721C222.265 111.585 225.694 111.463 232.337 111.355C233.795 111.334 236.864 111.059 238.412 111.055C241.699 111.052 244.984 111.04 248.268 111.039C251.637 111.044 255.005 111.066 258.371 111.07C258.968 106.733 258.967 103.885 258.368 102.526C257.894 101.45 256.286 100.645 253.543 100.113H260.379V121.023L258.641 112.828C256.099 112.822 253.557 112.818 251.014 112.831C249.622 112.839 249.054 113.33 249.04 114.531C249.019 116.627 249.022 118.724 249.029 120.821C249.032 121.726 259.036 122.255 279.042 122.406ZM238.94 123.838C237.596 123.839 237.07 124.348 237.063 125.631C237.052 127.75 237.055 129.065 237.069 131.185C237.078 132.536 237.588 133.01 239.031 133.012C242.097 133.021 245.162 133.021 248.227 133.03C251.371 133.045 254.513 133.074 257.655 133.086C258.993 133.093 259.522 132.591 259.538 131.314C259.563 129.164 259.58 127.818 259.573 125.668L257.741 123.939C251.477 123.877 245.21 123.842 238.94 123.838ZM264.404 123.435C262.906 123.434 262.437 123.863 262.424 125.21C262.405 127.089 262.393 128.968 262.389 130.847C262.386 132.155 262.875 132.581 264.394 132.585C267.421 132.597 270.449 132.602 273.476 132.615C276.621 132.635 278.962 132.665 282.106 132.684L284.027 131.087C284.067 129.149 284.089 127.21 284.103 125.272C284.112 124.039 283.609 123.596 282.168 123.576C275.982 123.504 270.597 123.456 264.404 123.435ZM245.544 113.383H245.442C238.762 113.458 232.077 113.56 225.389 113.693C223.945 113.725 223.385 114.214 223.384 115.418C223.384 117.335 223.404 119.252 223.423 121.169L225.797 122.229C229.045 122.171 232.201 122.283 235.448 122.229C238.779 122.179 242.171 122.28 245.501 122.229C247.032 122.208 247.492 122.24 247.5 120.96C247.513 119.01 247.515 117.059 247.505 115.109C247.5 113.89 247.003 113.413 245.642 113.384L245.544 113.383Z"
          fill="white"/>
    <path fill-rule="evenodd" clip-rule="evenodd"
          d="M280.65 121.2L278.716 121.156C281.88 121.226 285.042 121.299 288.204 121.376V131.321H288.389C288.504 132.323 289.051 132.621 290.509 132.633C293.518 132.662 296.527 132.69 299.535 132.725C300.155 132.733 300.774 132.742 301.394 132.751V133.488C251.658 133.273 226.686 133.273 226.477 133.488H216.532C216.492 133.155 216.45 132.821 216.408 132.488C218.963 132.435 221.517 132.381 224.071 132.331C227.409 132.271 230.746 132.225 234.082 132.161C235.453 132.136 235.993 131.65 235.999 130.46C236.009 128.369 236.003 126.278 235.979 124.188C235.966 122.998 235.421 122.534 234.037 122.551C227.677 122.64 210.448 122.89 204.083 123.033L203.278 121.827C203.263 121.731 219.011 121.441 221.154 121.393C222.744 121.359 223.267 120.888 223.264 119.494C223.26 117.475 223.248 115.457 223.22 113.439C223.202 112.187 222.648 111.704 221.213 111.73C218.734 111.778 217.863 111.831 215.382 111.887C215.364 111.429 215.351 110.972 215.342 110.515C215.429 110.517 215.52 110.517 215.614 110.515C222.265 110.378 227.302 110.256 233.945 110.149C235.403 110.128 235.944 109.651 235.949 108.396C235.958 106.379 235.947 104.361 235.933 102.345C235.93 101.918 235.881 101.581 235.769 101.319H237.913C237.912 101.337 237.912 101.356 237.912 101.374C237.899 103.571 237.905 105.768 237.919 107.966C237.928 109.363 238.472 109.852 240.02 109.849C243.306 109.846 246.592 109.833 249.876 109.832C253.245 109.838 256.613 109.86 259.979 109.864L261.636 108.384V111.625L260.249 111.621C257.707 111.615 255.165 111.612 252.622 111.624C251.23 111.632 250.662 112.123 250.648 113.325C250.627 115.421 250.63 117.518 250.637 119.614C250.641 120.973 251.164 121.444 252.703 121.441C259.335 121.441 265.963 121.455 272.588 121.483C273.257 121.487 273.736 121.404 274.067 121.2H280.65ZM240.548 122.631C239.204 122.633 238.678 123.142 238.671 124.425C238.66 126.543 238.663 127.859 238.677 129.979C238.686 131.33 239.196 131.803 240.639 131.806C243.705 131.815 246.77 131.814 249.835 131.824C252.978 131.839 256.121 131.867 259.263 131.88C260.601 131.887 261.13 131.385 261.146 130.108C261.171 127.958 261.187 126.612 261.181 124.462L259.349 122.733C253.085 122.67 246.818 122.636 240.548 122.631ZM266.012 122.229C264.514 122.227 264.045 122.657 264.032 124.004C264.013 125.883 264.001 127.762 263.997 129.641C263.994 130.949 264.483 131.375 266.001 131.379C269.029 131.391 272.057 131.396 275.084 131.409C278.229 131.428 281.374 131.459 284.518 131.478L286.439 129.881C286.479 127.943 286.501 126.004 286.516 124.066C286.524 122.833 286.021 122.389 284.58 122.37C278.394 122.298 272.205 122.25 266.012 122.229ZM247.152 112.176L247.05 112.177C240.37 112.251 233.685 112.354 226.997 112.487C225.553 112.518 224.993 113.007 224.992 114.212C224.992 116.129 225.012 118.046 225.031 119.963L227.301 121.827C230.549 121.769 233.797 121.706 237.044 121.652C240.375 121.601 243.705 121.563 247.035 121.512C248.567 121.491 249.099 121.034 249.108 119.754C249.121 117.803 249.123 115.853 249.113 113.903C249.108 112.684 248.61 112.207 247.25 112.178L247.152 112.176Z"
          fill="black"/>
    <path d="M211.723 194.609C228.379 194.609 241.881 181.107 241.881 164.451C241.881 147.795 228.379 134.292 211.723 134.292C195.067 134.292 181.565 147.795 181.565 164.451C181.565 181.107 195.067 194.609 211.723 194.609Z"
          fill="#C4C3C7" stroke="black" stroke-width="5.544"/>
    <path fill-rule="evenodd" clip-rule="evenodd"
          d="M232.578 202.791C249.072 200.472 247.38 180.984 245.062 164.49C242.744 147.996 227.717 138.097 211.224 140.415C194.73 142.733 180.276 160.024 182.594 176.518C184.912 193.012 216.084 205.109 232.578 202.791Z"
          fill="black"/>
    <path fill-rule="evenodd" clip-rule="evenodd"
          d="M211.979 193.797C195.435 193.427 182.179 180.348 182.371 164.585C182.562 148.821 196.129 136.343 212.673 136.713C229.217 137.083 242.473 150.162 242.281 165.925C242.09 181.688 228.523 194.167 211.979 193.797Z"
          fill="#C4C3C6"/>
    <path fill-rule="evenodd" clip-rule="evenodd"
          d="M182.372 166.448C182.609 181.688 195.943 193.753 212.153 193.395C228.363 193.037 241.311 180.392 241.074 165.151C241.057 164.097 240.978 163.059 240.84 162.038C240.83 177.086 227.973 189.497 211.916 189.851C196.827 190.185 184.23 179.754 182.369 166.017C182.369 166.16 182.369 166.304 182.372 166.448Z"
          fill="white"/>
    <path fill-rule="evenodd" clip-rule="evenodd"
          d="M236.651 162.667C236.45 150.944 225.125 141.663 211.358 141.938C197.59 142.214 186.593 151.941 186.795 163.664C186.809 164.475 186.876 165.274 186.993 166.059C187.002 154.484 197.922 144.937 211.559 144.664C224.375 144.408 235.073 152.432 236.654 162.998C236.654 162.888 236.654 162.778 236.651 162.667Z"
          fill="white"/>
    <path fill-rule="evenodd" clip-rule="evenodd"
          d="M211.98 139.6C224.28 139.6 234.607 147.88 237.394 159.028C233.83 149.086 224.112 141.95 212.693 141.95C198.269 141.95 186.595 153.334 186.616 167.377C186.619 169.444 186.876 171.453 187.357 173.377C186.42 170.762 185.908 167.952 185.904 165.027C185.882 150.984 197.557 139.6 211.98 139.6Z"
          fill="black"/>
    <path fill-rule="evenodd" clip-rule="evenodd"
          d="M223.282 166.555L205.52 176.726C204.563 177.297 203.365 176.54 202.838 175.036C202.714 174.685 202.637 174.312 202.609 173.938L202.072 152.422C202.113 150.813 203.274 149.538 204.647 149.573C204.966 149.582 205.276 149.662 205.562 149.811L224.24 161.156C225.104 161.792 225.237 163.507 224.573 164.984C224.255 165.709 223.79 166.275 223.282 166.555Z"
          fill="white"/>
    <path fill-rule="evenodd" clip-rule="evenodd"
          d="M222.209 168.39L205.372 177.944C204.463 178.481 203.328 177.767 202.83 176.351C202.713 176.021 202.64 175.67 202.615 175.317L202.072 155.067C202.103 153.553 203.184 152.354 204.468 152.388C204.766 152.396 205.057 152.472 205.325 152.612L223.039 163.308C223.871 163.908 224.026 165.522 223.416 166.913C223.124 167.594 222.689 168.127 222.209 168.39Z"
          fill="black"/>
    <path fill-rule="evenodd" clip-rule="evenodd"
          d="M204.686 158.36V172.15C204.686 173.483 205.766 174.563 207.099 174.563C207.519 174.563 207.933 174.453 208.298 174.244L220.333 167.348C221.489 166.686 221.89 165.212 221.227 164.055C221.014 163.683 220.705 163.375 220.333 163.161L208.298 156.266C207.142 155.604 205.668 156.004 205.005 157.16C204.796 157.525 204.686 157.939 204.686 158.36Z"
          fill="white"/>
    <path fill-rule="evenodd" clip-rule="evenodd"
          d="M381.742 145.559C380.845 144.688 378.32 144.051 376.225 144.537C374.148 145.019 372.034 146.148 370.98 147.883C369.987 148.974 369.905 150.206 370.738 151.4C370.53 152.586 370.433 153.567 370.492 154.716C370.214 155.697 370.961 156.331 371.512 156.896C372.137 157.53 372.122 158.06 371.811 158.732C371.227 159.407 370.669 158.876 370.071 159.49L369.551 159.801C368.51 160.073 366.995 159.958 365.926 160.14C363.095 160.633 362.729 163.842 361.161 165.638C359.924 167.049 361.329 169.223 361.578 170.778C361.88 172.638 361.83 174.534 361.429 176.379C361.093 177.883 360.52 179.369 360.562 180.904C360.59 182.529 361.32 184.096 361.253 185.716C361.13 188.779 357.155 192.488 359.274 195.489C359.554 195.889 359.949 196.231 360.106 196.688C360.219 197.139 360.209 197.61 360.078 198.058C359.517 200.74 358.837 203.43 358.699 206.162C358.559 208.967 359.553 211.791 359.063 214.572C359.041 214.708 359.013 214.846 358.988 214.982C358.53 217.32 357.71 219.621 357.584 222.02C357.471 224.053 363.438 229.55 371.556 232.456C379.675 235.362 388.707 233.227 389.021 233.273C394.57 234.099 390.998 212.796 393.903 195.558C396.058 182.771 395.128 170.168 392.238 165.133C391.659 163.124 389.652 162.265 387.717 161.497C385.719 160.716 384.765 159.788 382.922 158.72C382.88 157.847 381.692 158.825 381.893 157.958L381.965 157.885C382.784 157.836 382.752 157.19 382.923 156.683C382.583 155.682 384.144 153.309 384.28 152.389C384.637 150.223 383.399 147.086 381.742 145.559Z"
          fill="black"/>
    <path d="M376.811 179.776C376.911 183.058 376.134 185.963 374.946 188.998C372.112 182.267 369.863 175.332 368.672 168.124C368.444 166.762 368.255 165.4 368.105 164.037C368.033 163.418 368.132 162.573 368.773 162.474C369.65 168.882 371.238 175.182 373.51 181.268C373.553 181.415 373.629 181.55 373.735 181.665C374.102 182.01 374.433 181.653 374.31 181.263C372.647 176.009 371.58 170.637 370.518 165.218C370.343 164.041 370.255 162.853 370.257 161.664C371.398 161.038 373.143 160.083 374.004 160.639C374.275 163.561 375.232 166.47 375.495 169.439C375.519 170.047 375.616 170.651 375.787 171.237C375.874 171.487 375.98 171.731 376.106 171.966C376.31 174.579 376.729 177.164 376.811 179.776Z"
          fill="#C4C3C6"/>
    <path d="M384.383 181.082C382.48 180.119 381.261 178.237 379.758 176.72C379.198 176.155 378.285 176.234 379.046 177.053C379.576 177.621 380.144 178.161 380.704 178.699C381.789 179.748 382.898 180.766 383.992 181.806C384.119 181.91 384.223 182.038 384.297 182.184C384.368 182.388 384.387 182.607 384.353 182.82C384.219 184.516 384.232 186.221 384.394 187.914C384.481 188.805 384.605 189.758 384.285 190.593C384.367 190.371 383.01 188.801 382.832 188.536C381.986 187.32 381.164 186.088 380.377 184.826C379.525 183.443 378.177 182.086 377.927 180.428C377.798 179.553 377.977 178.642 377.932 177.775C377.89 176.856 377.78 175.941 377.603 175.038C377.469 174.498 377.394 173.945 377.381 173.388C377.374 173.291 377.399 173.194 377.453 173.113C377.608 172.914 377.925 173.049 378.133 173.191C379.856 174.373 381.719 175.339 383.68 176.068C384.059 176.21 384.48 176.381 384.624 176.754C384.682 176.936 384.699 177.128 384.676 177.318C384.624 178.586 384.526 179.841 384.383 181.082Z"
          fill="#C4C3C6"/>
    <path d="M364.247 167.008C364.139 171.747 365.147 176.736 366.331 181.314C367.559 186.121 369.412 190.644 371.516 195.16C374.3 201.137 377.953 206.771 382.034 212.046C382.566 212.734 383.568 213.821 384.593 213.3C384.45 213.371 380.556 207.756 380.204 207.235C378.742 205.154 377.328 203.041 376.027 200.865C373.445 196.587 371.305 192.086 369.634 187.423C369.312 186.47 368.989 185.509 368.694 184.545C368.419 183.623 368.166 182.696 367.936 181.764C366.741 176.892 366.207 171.903 365.937 166.912C365.879 165.846 366.102 164.438 367.222 164.257C366.388 173.319 370.816 181.969 374.811 190.242C377.742 196.358 380.533 202.559 384.031 208.412C384.462 209.132 384.922 209.87 385.628 210.367C384.489 208.208 383.353 206.052 382.193 203.903C381.006 201.708 379.856 199.497 378.743 197.27C377.521 194.824 376.368 192.35 375.282 189.848C375.442 189.866 375.604 189.84 375.749 189.774C375.926 189.909 376.516 189.904 376.592 189.728C377.463 187.765 378.073 185.709 378.408 183.607C379.419 185.22 380.467 186.812 381.551 188.384C382.111 189.195 382.683 189.997 383.266 190.791C383.645 191.308 384.628 192.206 384.764 192.814C386.036 198.063 387.205 203.352 387.684 208.76C387.981 212.118 387.831 215.47 387.822 218.829C387.816 220.156 387.751 221.48 387.625 222.8C386.206 221.312 384.818 219.782 383.503 218.225C378.653 212.534 374.213 206.344 369.828 194.849C370.287 197.067 373.577 206.646 376.65 211.612C379.84 216.766 383.624 220.872 385.226 222.664C385.722 223.167 386.143 223.731 386.479 224.34C387.339 226.112 387.163 227.223 386.491 229.073C380.684 224.884 376.222 219.181 373.04 212.992C369.857 206.803 367.874 200.104 366.524 193.35C364.79 184.671 364.026 175.842 364.247 167.008Z"
          fill="#C4C3C6"/>
    <path d="M366.984 167.962C367.237 172.551 367.74 177.141 368.87 181.617C369.078 182.474 369.317 183.326 369.586 184.174C369.86 185.061 370.159 185.944 370.475 186.82C372.055 191.107 374.08 195.245 376.523 199.177C377.754 201.177 379.092 203.12 380.475 205.033C381.247 206.099 382.152 206.822 382.514 208.112C382.931 209.607 383.397 210.912 384.349 212.21C383.328 210.818 380.394 206.873 380.213 206.625C378.83 204.712 377.492 202.77 376.261 200.77C373.818 196.837 371.793 192.699 370.213 188.412C369.908 187.536 369.603 186.653 369.324 185.766C369.064 184.918 368.825 184.066 368.608 183.209C367.478 178.73 366.975 174.143 366.722 169.554C366.672 168.983 366.761 168.409 366.982 167.872L366.984 167.962Z"
          fill="white"/>
    <path d="M373.144 164.564C374.225 169.747 374.796 175.014 374.85 180.298C374.869 183.862 374.629 181.355 374.275 180.695C374.192 180.569 374.117 180.438 374.051 180.303C374.05 180.275 374.031 180.246 374.019 180.217C372.668 175.603 371.714 170.93 370.787 166.213C370.612 165.052 370.525 163.881 370.527 162.708L370.858 162.529C370.888 163.181 373.02 163.917 373.144 164.564Z"
          fill="white"/>
    <path d="M364.128 168.452C364.127 168.404 364.126 168.356 364.148 168.311C364.152 168.496 364.155 168.682 364.158 168.872C363.926 172.266 364.239 175.691 364.606 179.083C365.575 188.023 366.861 197.014 369.958 205.493C373.055 213.972 378.114 221.99 385.533 227.452C385.953 228.062 386.287 228.04 385.953 229.464C378.534 224.002 372.804 215.664 369.696 207.182C366.587 198.7 365.312 189.712 364.344 180.763C363.9 176.672 363.516 172.523 364.128 168.452Z"
          fill="white"/>
    <path d="M372.335 150.758C372.412 150.564 372.509 150.379 372.625 150.205C372.98 149.613 373.259 148.961 373.792 148.481C373.896 148.375 374.021 148.291 374.159 148.234C374.284 148.191 374.419 148.186 374.543 148.14C374.725 148.038 374.895 147.918 375.049 147.78C375.21 147.638 375.448 147.623 375.626 147.743C375.716 147.546 375.876 147.388 376.076 147.299C376.3 147.277 376.526 147.284 376.747 147.32C376.987 147.315 377.219 147.045 377.44 147.369C377.474 147.445 377.523 147.513 377.584 147.571C377.659 147.61 377.743 147.63 377.827 147.632C378.32 147.705 378.643 148.244 379.138 148.288C379.249 148.283 379.361 148.296 379.468 148.326C379.947 148.523 380.188 149.265 380.339 149.69C380.654 150.612 381.643 152.226 380.821 153.121C380.697 153.255 380.525 153.369 380.493 153.543C380.46 153.716 380.498 153.835 380.44 153.974C380.383 154.113 380.228 154.174 380.146 154.272C380.045 154.461 379.988 154.67 379.98 154.884C379.877 155.357 379.452 155.686 379.15 156.069C378.907 156.381 378.74 156.744 378.518 157.073C377.462 158.64 374.551 158.237 373.474 156.868C373.131 156.502 372.985 155.999 373.082 155.511C373.023 155.441 372.99 155.354 372.988 155.264C372.987 155.207 372.992 155.15 373.003 155.093C373.002 155.061 373.002 155.02 373.002 155.041C372.99 155.004 372.975 154.969 372.955 154.936C372.833 154.734 372.897 154.473 373.101 154.348C373.249 154.264 373.434 154.269 373.577 154.363C373.907 154.586 375.51 154.157 375.923 154.129C376.896 154.06 377.874 154.062 378.847 154.134C379.113 153.724 379.339 153.29 379.522 152.84C379.565 152.754 379.581 152.658 379.569 152.564C379.524 152.395 379.325 152.331 379.183 152.228C378.658 151.853 378.897 151.111 378.26 150.83C377.959 150.695 377.602 150.671 377.289 150.554C376.894 150.391 376.519 150.052 376.102 150.147C375.744 150.23 375.464 150.621 375.103 150.548C374.971 150.521 374.841 150.433 374.716 150.479C374.591 150.525 374.556 150.754 374.463 150.893C374.325 151.1 374.005 151.115 373.841 151.305C373.677 151.495 373.725 151.711 373.627 151.894C373.531 152.044 373.377 152.15 373.2 152.187C373.023 152.225 372.838 152.19 372.687 152.092C372.394 151.875 372.24 151.523 372.282 151.165C372.282 151.028 372.3 150.891 372.335 150.758ZM376.647 155.268C375.953 155.215 375.046 154.958 374.405 155.405C374.339 155.452 374.276 155.505 374.219 155.562C374.211 155.606 374.196 155.648 374.173 155.688C374.504 155.824 374.843 155.944 375.189 156.046C376.193 156.289 377.255 155.904 377.807 155.096C377.429 155.197 377.039 155.255 376.647 155.268Z"
          fill="white"/>
    <path d="M388.629 190.104C389.376 191.172 389.237 193.524 389.331 194.797C389.366 195.371 389.787 197.81 389.152 198.19C388.787 198.409 387.91 195.308 387.843 195.073C387.621 194.305 387.279 193.506 387.417 192.749C387.573 191.875 387.974 190.691 388.629 190.104Z"
          fill="white"/>
    <path d="M361.547 191.492C361.706 190.936 361.792 190.319 362.198 189.898C362.658 189.403 363.244 189.012 363.908 188.757C363.943 188.708 363.978 188.658 364.012 188.615C364.05 188.64 364.084 188.669 364.114 188.702C364.116 188.71 364.116 188.719 364.115 188.727C364.487 189.154 364.464 190.238 364.522 190.804C364.56 191.088 364.87 192.206 364.466 192.601C364.234 192.827 363.617 191.513 363.566 191.414C363.479 191.227 363.366 191.049 363.298 190.848C363.072 191.223 362.845 191.572 362.688 191.851C362.478 192.22 361.776 193.882 361.175 193.893C360.845 193.896 361.498 191.661 361.547 191.492Z"
          fill="white"/>
    <path d="M377.739 160.538C377.695 160.413 377.686 160.278 377.712 160.147C377.762 160.019 377.844 159.907 377.95 159.82L378.817 158.971C378.662 160.754 379.712 161.964 381.341 162.392C383.029 162.837 384.786 163.347 386.017 164.553C387.048 165.55 388.684 166.439 389.002 167.816C389.167 168.583 390.326 172.583 390.436 176.027C390.604 181.242 389.673 186.43 389.589 187.066C389.467 187.982 388.789 188.937 388.047 187.134C387.461 185.72 387.807 185.438 387.844 184.011C387.894 182.173 387.892 180.334 387.807 178.499C387.63 174.755 387.637 169.539 384.599 166.827C384.864 167.725 385.008 168.654 385.029 169.59C385.069 170.889 385.019 172.21 384.936 173.526C384.934 173.708 384.879 173.886 384.777 174.036C384.64 174.204 384.433 174.299 384.218 174.292C383.791 174.298 383.371 174.187 383.002 173.972C382.628 173.759 382.378 173.262 382.102 172.926C381.476 172.189 380.888 171.42 380.341 170.622C379.388 169.217 376.498 165.348 378.489 163.801C378.737 163.626 378.93 163.383 379.044 163.1C379.323 162.252 378.033 161.586 377.739 160.538Z"
          fill="white"/>
<path fill-rule="evenodd" clip-rule="evenodd" d="M340.983 144.951C338.464 145.161 338.481 145.133 337.672 147.49C337.258 148.696 337.084 149.791 337.779 151.028C338.474 152.265 339.11 153.569 339.562 155.079C337.185 155.041 334.889 155.015 332.594 154.964C329.898 154.904 327.203 154.807 324.507 154.763C324.044 154.756 323.825 154.645 323.629 154.205C322.372 151.388 321.49 148.431 320.349 145.57C320.146 145.059 319.905 144.8 319.374 144.821C318.785 144.844 318.193 144.937 317.61 144.897C316.439 144.816 315.84 145.366 315.631 146.466C315.564 146.818 315.421 147.154 315.323 147.501C314.847 149.192 314.691 150.775 315.462 152.541C316.926 155.895 318.142 159.362 319.346 162.822C320.778 166.94 322.602 170.912 323.891 175.084C324.703 177.713 325.655 180.3 326.533 182.909C326.7 183.403 326.819 183.913 326.96 184.416C327.212 185.119 327.472 185.82 327.716 186.526C328.332 188.308 328.94 190.092 329.552 191.875C330.152 193.744 330.662 195.648 331.37 197.476C333.834 203.84 335.699 210.385 337.666 216.908C339.303 222.332 340.788 227.799 342.473 233.208C342.865 234.467 343.093 234.523 344.411 234.373C345.974 234.195 346.953 233.448 347.287 231.901C347.301 231.837 347.311 231.767 347.346 231.714C348.406 230.124 348.074 228.491 347.656 226.766C347.053 224.276 346.204 221.871 345.405 219.446C345.225 218.901 345.306 218.695 345.922 218.651C350.477 218.322 354.975 217.573 359.475 216.831C361.412 216.512 361.437 216.542 362.079 218.457C363.151 221.655 364.16 224.873 364.988 228.142C365.545 230.343 366.684 230.882 368.797 229.886C369.093 229.746 369.23 229.506 369.362 229.238C369.984 227.973 370.461 226.65 370.936 225.326C371.167 224.684 371.092 224.062 370.885 223.409C368.486 215.818 366.106 208.222 363.725 200.626C363.618 200.285 363.556 199.931 363.473 199.583C363.358 199.165 363.244 198.748 363.129 198.33C362.744 197.735 362.619 197.058 362.507 196.377C362.056 195.26 361.606 194.143 361.156 193.026C360.59 191.614 360.073 190.186 359.812 188.68C359.484 188.072 359.314 187.411 359.155 186.747C358.383 184.434 357.696 182.092 356.733 179.845C355.233 176.347 353.926 172.774 352.601 169.209C351.206 165.455 349.383 161.881 347.913 158.161C346.273 154.013 344.195 150.058 342.543 145.919C342.241 145.163 341.827 144.88 340.983 144.951ZM357.457 202.08C358.156 204.502 358.869 206.921 359.609 209.331C359.779 209.885 359.609 209.979 359.085 210.022C353.944 210.44 348.905 211.564 343.797 212.22C343.364 212.276 343.178 212.243 343.037 211.785C342.307 209.406 341.534 207.038 340.777 204.666C340.718 204.479 340.675 204.286 340.61 204.043C340.658 203.768 340.949 203.842 341.136 203.802C346.318 202.701 351.615 202.463 356.854 201.791C357.108 201.758 357.345 201.692 357.457 202.08ZM352.631 187.935C353.431 190.185 354.397 192.378 354.949 194.715C355.091 195.315 354.925 195.43 354.366 195.483C352.602 195.652 350.838 195.84 349.086 196.096C345.906 196.56 342.751 197.205 339.533 197.406C339.172 197.429 338.76 197.638 338.587 197.047C337.87 194.606 337.135 192.17 336.389 189.737C336.22 189.185 336.261 188.931 336.955 188.888C339.504 188.727 342.049 188.513 344.593 188.29C347.075 188.071 349.554 187.817 352.212 187.561C352.329 187.54 352.518 187.615 352.631 187.935ZM347.37 174.303C348.255 176.31 349.142 178.315 350.049 180.312C350.257 180.77 350.166 180.953 349.661 180.992C348.811 181.057 347.96 181.128 347.117 181.251C342.924 181.865 338.677 181.807 334.47 182.243C334.035 182.288 333.769 182.209 333.581 181.73C332.688 179.447 332.025 177.092 331.247 174.743C331.473 174.698 331.631 174.651 331.792 174.637C336.762 174.203 341.763 174.466 346.731 173.993C347.014 173.966 347.236 173.999 347.37 174.303ZM342.247 161.822C342.968 163.543 343.712 165.256 344.459 166.967C344.644 167.388 344.567 167.536 344.079 167.531C342.962 167.521 341.844 167.541 340.728 167.585C337.084 167.726 333.451 168.084 329.8 168.058C329.434 168.056 328.939 168.316 328.718 167.704C327.949 165.58 327.159 163.464 326.338 161.239C326.99 161.209 327.572 161.17 328.155 161.157C332.491 161.059 336.825 161.644 341.16 161.226C341.679 161.176 342.03 161.305 342.247 161.822Z" fill="#0D0D0D" stroke="black" stroke-width="2.376"/>
<path fill-rule="evenodd" clip-rule="evenodd" d="M344.148 232.554L345.41 229.568C338.416 207.05 332.691 189.324 328.236 176.391C323.781 163.457 320.116 153.866 317.241 147.618L316.252 150.878L330.017 188.391" fill="white"/>
<path fill-rule="evenodd" clip-rule="evenodd" d="M340.634 146.769C341.334 148.546 341.992 150.32 342.728 152.061C344.705 156.739 346.73 161.397 348.711 166.073C352.609 175.276 356.125 184.621 359.284 194.102C360.816 198.698 361.989 203.397 363.411 208.022C365.075 213.434 366.815 218.822 368.52 224.22C368.721 224.855 369.634 225.155 370.165 224.744C370.457 224.517 370.207 224.261 370.14 224.049C369.254 221.237 368.329 218.438 367.456 215.623C365.769 210.182 364.152 204.72 362.421 199.293C361.378 196.022 360.117 192.82 359.057 189.553C356.012 180.167 352.357 171.016 348.428 161.968C346.458 157.433 344.697 152.804 342.39 148.417C342.254 148.158 342.169 147.871 342.077 147.592C341.774 146.669 341.777 146.668 340.634 146.769Z" fill="#C4C3C7"/>
<path fill-rule="evenodd" clip-rule="evenodd" d="M318.843 146.368C318.095 146.235 317.886 146.371 318.208 147.21C320.99 154.468 323.722 161.744 326.59 168.97C328.989 175.015 331.161 181.157 332.923 187.414C334.605 193.389 336.992 199.12 338.8 205.046C340.058 209.17 341.12 213.351 342.513 217.437C343.779 221.15 344.898 224.909 345.697 228.75C345.851 229.492 346.241 229.285 346.676 229.263C347.357 229.23 347.036 228.808 346.984 228.499C346.388 225.004 345.091 221.705 344.009 218.352C341.279 209.895 338.887 201.336 336.191 192.87C332.227 180.426 327.819 168.131 323.062 155.964C321.908 153.012 320.907 149.999 319.607 147.103C319.451 146.754 319.412 146.302 318.843 146.368Z" fill="#C4C3C7"/>
<path fill-rule="evenodd" clip-rule="evenodd" d="M354.427 183.769C353.923 182.317 353.924 182.328 352.418 182.38C348.823 182.505 345.29 183.162 341.689 183.196C339.291 183.219 336.928 183.51 334.553 183.582C334.632 184.561 335.087 184.863 336.121 184.826C340.647 184.664 345.154 184.367 349.652 183.944C351.198 183.799 352.767 183.825 354.427 183.769Z" fill="#F3F3F3"/>
<path fill-rule="evenodd" clip-rule="evenodd" d="M362.68 210.669C358.914 211.005 355.008 211.361 351.165 212.138C349.012 212.573 346.827 212.741 344.674 213.132C344.401 213.181 343.762 212.934 343.885 213.682C343.986 214.301 344.367 214.206 344.822 214.163C350.672 213.605 356.457 212.507 362.319 212.047C362.518 212.032 362.725 212.047 362.913 211.993C363.167 211.92 363.722 212.197 363.566 211.595C363.469 211.221 363.561 210.566 362.68 210.669Z" fill="#F3F3F3"/>
<path fill-rule="evenodd" clip-rule="evenodd" d="M358.221 196.365C355.476 196.668 352.724 196.919 349.988 197.287C346.518 197.754 343.09 198.502 339.584 198.735C339.395 198.748 338.863 198.521 338.993 199.103C339.084 199.509 339.096 199.945 339.788 199.851C343.425 199.362 347.078 198.978 350.707 198.443C353.247 198.069 355.824 198.13 358.35 197.689C358.603 197.645 359.168 197.905 359.055 197.323C358.98 196.932 358.955 196.309 358.221 196.365Z" fill="#F3F3F3"/>
<path fill-rule="evenodd" clip-rule="evenodd" d="M348.739 169.91C348.643 169.046 348.219 168.837 347.391 168.879C341.647 169.173 335.899 169.405 330.152 169.659C329.857 169.672 329.563 169.702 329.272 169.724C329.289 170.668 329.65 170.99 330.62 170.932C336.462 170.582 342.309 170.31 348.154 170.007C348.349 169.997 348.542 169.943 348.739 169.91Z" fill="#F3F3F3"/>
<path fill-rule="evenodd" clip-rule="evenodd" d="M366.496 227.749C367.054 226.315 367.505 225.041 366.999 223.485C366.044 220.546 365.276 217.53 364.409 214.469C363.648 215.481 363.254 216.367 363.683 217.719C364.718 220.986 365.553 224.335 366.496 227.749Z" fill="#F3F3F3"/>
<path fill-rule="evenodd" clip-rule="evenodd" d="M326.266 157.003C329.381 157.398 332.603 157.238 335.825 157.234C338.204 157.232 340.583 157.522 342.96 157.4C343.26 157.385 343.788 157.58 343.797 157.142C343.808 156.623 343.313 156.525 342.807 156.533C338.734 156.593 334.659 156.44 330.584 156.287C329.085 156.23 327.585 156.177 326.086 156.153C325.791 156.148 325.265 155.882 325.236 156.346C325.209 156.785 325.567 157.117 326.266 157.003Z" fill="#F3F3F3"/>
<path fill-rule="evenodd" clip-rule="evenodd" d="M358.389 195.011C357.349 191.652 356.391 188.559 355.405 185.377C354.696 186.371 354.303 187.196 354.743 188.444C355.425 190.383 356.164 192.314 356.589 194.358C356.822 195.481 357.684 194.598 358.389 195.011Z" fill="#F3F3F3"/>
<path fill-rule="evenodd" clip-rule="evenodd" d="M344.276 158.789C343.67 159.898 343.125 160.798 343.822 162.131C344.615 163.648 345.081 165.376 345.693 167.01C345.894 167.545 346.947 167.867 347.367 167.531C347.593 167.35 347.426 167.165 347.366 167.004C346.35 164.289 345.327 161.577 344.276 158.789Z" fill="#F3F3F3"/>
<path fill-rule="evenodd" clip-rule="evenodd" d="M350.045 171.877C349.094 173.18 348.939 174.328 349.694 175.735C350.504 177.246 351.083 178.913 351.651 180.558C351.95 181.422 352.534 181.038 352.929 180.957C353.4 180.86 353.015 180.428 352.932 180.186C351.992 177.44 351.03 174.702 350.045 171.877Z" fill="#F3F3F3"/>
<path fill-rule="evenodd" clip-rule="evenodd" d="M359.371 199.729C358.539 200.979 358.6 202.191 359.099 203.565C359.748 205.352 360.202 207.225 360.619 209.091C360.822 210.001 361.392 209.684 361.812 209.605C362.459 209.484 361.969 209.032 361.884 208.799C360.814 205.863 360.376 202.736 359.371 199.729Z" fill="#F3F3F3"/>
<path fill-rule="evenodd" clip-rule="evenodd" d="M342.68 155.128C341.442 152.616 340.729 149.883 339.597 147.281C338.906 148.652 338.776 149.909 339.499 151.233C339.992 152.136 340.416 153.11 340.703 154.11C341.008 155.175 341.528 155.56 342.68 155.128Z" fill="#F3F3F3"/>
<path fill-rule="evenodd" clip-rule="evenodd" d="M369.818 225.961C368.161 226.101 367.677 226.801 367.323 229.273C369.264 228.868 368.859 227.098 369.818 225.961Z" fill="#F3F3F3"/>
<path fill-rule="evenodd" clip-rule="evenodd" d="M346.533 230.353C345.112 230.455 345.112 230.455 344.605 232.523C345.829 232.493 345.841 232.48 346.533 230.353Z" fill="#F3F3F3"/>
<path d="M126.507 123.098C126.432 123.099 126.639 138.631 126.972 157.909L126.982 158.494C127.081 164.244 127.181 169.673 127.273 174.473C129.015 184.772 130.597 184.32 131.233 167.682C132.019 147.103 133.333 182.522 134.496 180.44L133.611 122.974L126.507 123.098ZM134.106 123.05L134.611 180.15C135.33 179.172 136.091 179.489 136.87 179.364L136.036 123.016L134.106 123.05ZM136.525 123.05L137.018 179.346C137.571 178.961 138.13 178.098 138.688 176.15C138.788 175.802 138.884 175.425 138.977 175.019C138.843 168.829 138.495 123.016 138.455 123.016L136.525 123.05Z" fill="white"/>
<path fill-rule="evenodd" clip-rule="evenodd" d="M106.095 176.078C104.168 174.169 96.5807 173.81 94.3006 177.644C93.2303 178.843 93.2846 184.282 93.3492 185.547C93.0501 186.625 94.3325 188.278 94.9265 188.901C95.6005 189.598 95.5844 190.18 95.2499 190.92C94.8304 191.415 94.4959 191.807 94.2466 192.095C93.1246 192.393 92.7665 192.777 91.6134 192.978C88.5627 193.518 87.1646 196.027 85.4755 198.003C84.1427 199.554 85.1551 201.435 85.4239 203.146C85.7505 205.192 85.6969 207.278 85.2655 209.307C84.9044 210.962 85.111 237.705 84.2485 240.048C82.0602 245.992 77.94 256.43 80.4635 258.539C82.4367 260.188 85.9045 260.116 91.7187 259.608C93.8603 259.421 101.155 252.33 103.511 253.191C105.566 253.943 111.799 257.205 114.23 257.468C122.149 258.327 128.543 252.971 129.774 250.516C130.907 248.256 130.3 247.428 128.486 246.482C127.724 246.084 125.902 247.1 125.268 245.677C124.25 243.392 126.758 246.348 127.28 242.46C127.856 238.163 127.683 223.561 127.098 219.503C126.813 217.532 115.111 215.473 115.307 213.622C115.515 211.669 115.139 212.162 115.346 210.822C115.45 210.15 118.422 212.511 119.979 213.525C121.402 214.452 122.67 215.597 124.998 212.753C126.757 210.603 131.545 207.702 134.265 203.874C135.655 201.916 139.15 200.963 139.75 199.435C140.296 198.046 136.373 194.364 136.131 193.805C135.641 192.671 131.568 195.311 130.903 196.218C130.238 197.124 129.615 198.893 129.246 199.242C128.282 200.153 125.708 201.697 121.524 203.874C117.721 200.367 115.699 198.399 115.457 197.968C114.832 195.758 112.667 194.811 110.581 193.966C108.428 193.107 107.786 192.085 105.799 190.91C105.753 189.949 106.909 189.46 107.125 188.507L107.203 188.426C108.086 188.373 108.051 187.661 108.235 187.104C107.868 186.003 109.048 185.435 109.194 184.423C109.578 182.04 107.882 177.759 106.095 176.078Z" fill="black"/>
    <path d="M90.0225 217.57L90.8807 236.859L94.7304 233.816L90.0225 217.57Z" fill="#C4C3C6"/>
<path fill-rule="evenodd" clip-rule="evenodd" d="M100.827 190.772C99.72 188.984 98.9985 187.304 98.663 185.732C98.6171 186.862 98.6344 187.849 98.7151 188.693C98.0043 187.644 97.4457 185.978 97.2443 185.126C97.1889 185.818 97.0708 186.044 97.1709 187.155C96.7169 186.266 96.4146 185.216 96.3391 184.84C96.0479 185.527 96.1447 185.602 96.0053 186.13C95.7337 183.654 96.6438 181.848 98.5798 180.72C99.0371 180.454 100.041 179.87 100.944 179.311C101.003 179.274 97.7315 181.85 100.827 190.772Z" fill="white"/>
<path d="M93.7832 195.923C93.8525 197.302 96.7182 211.096 103.151 227.18C95.5117 211.096 93.0999 199.033 92.8502 195.751C92.2958 195.816 92.1216 196.872 92.1396 197.605C92.2951 203.858 97.2396 219.654 101.042 227.261C101.57 228.445 102.394 230.209 103.513 232.552C106.942 233.349 108.66 233.744 108.67 233.736C111.03 232.359 113.476 231.176 115.951 230.001C116.825 229.593 118.031 229.995 118.031 231.201C118.031 232.547 117.989 240.089 118.03 242.058C119.257 242.495 120.092 240.603 120.737 241.041C122.695 242.375 124.006 242.194 123.952 241.576C123.89 240.858 125.27 230.799 125.27 224.767C125.271 218.736 120.445 217.529 116.825 219.942C116.14 220.399 109.962 223.961 106.217 225.433C103.686 226.41 105.871 224.835 105.945 224.741C105.965 224.733 105.979 224.709 105.995 224.69C106.319 224.413 106.81 224.008 107.468 223.473C103.6 216.586 101.211 212.412 100.301 210.949C101.544 212.302 109.267 222.079 109.322 222.037C109.818 218.42 110.01 216.573 109.897 216.496C108.928 215.729 105.592 212.757 99.8876 207.579L109.349 214.621L109.688 209.811C106.272 208.202 103.558 206.218 101.545 203.858C99.5315 201.498 97.9231 198.415 96.7197 194.609C94.8429 195.414 93.864 195.851 93.7832 195.923ZM91.1136 196.234C89.9099 196.432 89.6704 197.981 89.7336 199.154C90.0262 204.644 90.6018 210.132 91.8888 215.491C92.1369 216.516 92.409 217.536 92.7051 218.55C93.0228 219.611 93.3701 220.669 93.7172 221.717C94.6743 224.448 96.6123 228.681 99.5312 234.418C100.638 234.816 101.174 234.146 101.14 232.408C101.115 231.13 90.221 206.201 91.1136 196.234Z" fill="#C4C3C6"/>
<path d="M89.0788 199.434C89.4789 215.519 96.5691 229.712 99.1315 234.016C99.8772 235.28 100.5 234.131 99.405 232.275C96.8425 227.971 89.0779 205.868 89.9873 197.143C89.3466 198.254 89.0437 199.018 89.0788 199.434Z" fill="white"/>
<path d="M96.6882 195.413L94.1655 196.432C94.2205 196.828 94.2849 197.223 94.3587 197.616C95.5577 202.739 99.5193 216.759 99.3624 212.863C99.1015 207.087 98.2726 201.349 96.8865 195.723C96.8628 195.62 96.792 195.517 96.6882 195.413Z" fill="white"/>
<path d="M109.69 217.568L109.788 216.511L100.338 208.281L109.69 217.568Z" fill="white"/>
<path d="M121.067 223.64C119.28 224.353 115.106 225.148 108.545 226.026C114.455 222.841 118.287 221.081 120.042 220.746C122.674 220.245 123.259 222.757 121.067 223.64Z" fill="white"/>
    <path d="M102.373 246.078L98.8383 236.585L102.689 235.194L107.555 236.425C107.565 239.371 107.305 241.515 106.775 242.855C106.244 244.195 104.777 245.269 102.373 246.078Z"
          fill="#C4C3C6"/>
<path d="M97.5238 240.45L99.3707 245.568L92.2142 250.049L97.5238 240.45Z" fill="white"/>
<path d="M119.043 238.625L123.583 237.721L123.428 230.308L119.043 238.625Z" fill="white"/>
<path d="M126.22 250.528C122.894 252.068 120.488 252.995 119.003 253.309C116.774 253.78 117.034 254.004 113.751 252.606C113.195 252.369 113.096 254 115.066 254.699C116.379 255.166 117.692 255.167 119.004 254.704C122.14 253.863 124.468 252.994 125.987 252.095C128.029 250.887 128.703 250.707 128.187 248.439C128.187 248.439 127.531 249.135 126.22 250.528Z" fill="white"/>
<path d="M118.647 245.038C118.297 245.255 117.721 245.798 118.076 247.781C118.416 249.688 118.463 251.491 117.984 251.586C116.392 251.902 116.838 252.541 114.494 251.611C114.097 251.454 114.025 252.541 115.432 253.006C116.369 253.315 117.307 253.315 118.245 253.005C120.485 252.443 122.149 251.861 123.235 251.26C124.208 250.722 124.264 250.374 123.402 250.216C122.389 250.655 120.885 249.241 120.896 249.108C120.963 248.38 121.259 247.735 120.596 246.657C120.495 246.485 120.321 246.165 120.184 245.788C119.393 245.143 118.88 244.893 118.647 245.038Z" fill="white"/>
<path d="M102.348 192.197C101.945 193.001 101.193 198.001 102.749 200.641C104.719 203.985 110.085 206.614 110.086 206.501C110.086 206.389 109.987 204.083 109.988 202.651C109.988 201.579 110.524 201.445 111.596 202.249L119.638 209.085L122.051 211.095C122.995 210.294 124.201 209.355 125.671 208.281C127.875 206.669 128.888 205.868 130.899 204.26C132.91 202.651 131.301 199.836 128.888 201.445C126.475 203.053 125.524 203.642 120.749 206.19C116.738 202.143 113.441 198.538 110.39 196.218C107.339 193.898 103.956 192.599 102.348 192.197ZM96.0142 182.609C96.0138 185.743 95.5152 183.233 97.6216 185.817C98.3665 186.731 99.2293 187.421 100.301 189.026C100.837 187.421 101.085 187.317 101.909 185.817C101.275 188.233 102.068 187.516 101.144 189.169C101.893 188.132 102.321 187.985 103.394 186.027C102.792 188.174 102.214 189.813 101.977 190.095C102.626 189.648 102.476 189.792 103.425 188.665C103.067 189.487 102.633 190.265 102.148 190.981C105.205 187.606 106.733 185.172 106.733 183.678C106.733 179.987 104.806 177.262 101.106 177.262C97.4064 177.262 96.0147 178.918 96.0142 182.609Z" fill="white"/>
<path fill-rule="evenodd" clip-rule="evenodd" d="M140.756 177.72L140.955 188.649C140.982 190.157 139.769 191.403 138.244 191.431L135.505 191.482L135.592 196.263C135.612 197.395 134.702 198.329 133.558 198.35C132.415 198.371 131.471 197.471 131.45 196.339L131.363 191.558L128.905 191.604C127.38 191.632 126.122 190.431 126.094 188.922L125.895 177.994L140.756 177.72Z" fill="black" stroke="#111111" stroke-width="0.55" stroke-linecap="round" stroke-linejoin="round"/>
<path d="M139.551 184.981L127.366 185.203C127.29 185.204 127.237 185.743 127.249 186.407C127.261 187.07 127.333 187.607 127.41 187.606L139.595 187.383C139.671 187.382 139.724 186.843 139.711 186.18C139.699 185.516 139.628 184.979 139.551 184.981Z" fill="#C4C3C7"/>
<path d="M134.87 196.763L134.73 188.974C134.729 188.925 134.189 188.895 133.524 188.908C132.859 188.92 132.321 188.969 132.322 189.018C133.188 192.548 133.633 194.977 133.657 196.305C133.693 198.297 134.871 196.812 134.87 196.763Z" fill="#C4C3C7"/>
<path d="M134.668 196.766L134.581 191.897C134.581 191.888 133.86 192.427 133.7 192.969C133.364 194.106 133.451 195.832 133.464 196.584C133.484 197.695 134.669 196.796 134.668 196.766Z" fill="white"/>
    <path d="M137.644 178.983L137.704 182.277L136.667 179.001L134.876 179.034L134.906 180.681L134.387 179.043L127.261 179.174C127.185 179.175 127.144 180.344 127.17 181.784C127.197 183.224 127.28 184.391 127.356 184.389L139.539 184.165C139.614 184.164 139.655 183.044 139.632 181.647L139.63 181.555C139.604 180.115 139.521 178.949 139.444 178.95L137.644 178.983Z"
          fill="#C4C3C7"/>
    <path d="M127.261 179.174C127.188 179.175 127.148 180.263 127.168 181.643L127.171 181.852C127.18 182.333 127.195 182.785 127.214 183.174C128.724 183.811 130.213 183.695 131.075 182.485C132.265 180.814 133.484 180.338 134.77 180.19L134.414 179.042L127.261 179.174ZM134.904 179.033L134.925 180.173C135.61 180.108 136.314 180.125 137.042 180.095L136.703 179L134.904 179.033ZM137.684 178.982L137.703 180.052C138.155 180.01 138.616 179.936 139.089 179.802C139.266 179.752 139.435 179.694 139.596 179.63C139.563 179.206 139.526 178.949 139.49 178.949L137.684 178.982Z"
          fill="white"/>
    <path d="M134.763 195.433C133.869 195.591 133.381 196.085 133.061 196.343C132.847 196.516 132.52 197.216 132.082 198.443C132.222 198.439 132.168 198.5 131.999 198.597C132.05 199.806 132.475 200.94 133.211 201.807C134.868 201.229 136.291 200.818 137.104 200.228C138.004 199.576 137.877 198.708 137.096 198.651C136.583 198.837 137.077 197.921 137.072 197.788C137.057 197.324 136.675 197.518 136.197 197.47C135.92 197.443 136.699 196.762 136.349 196.599C136.153 196.507 135.817 196.441 135.649 196.272C135.517 196.14 136.283 195.766 135.975 195.573C135.668 195.379 135.257 195.346 134.763 195.433Z"
          fill="white"/>
    <path fill-rule="evenodd" clip-rule="evenodd"
          d="M91.1416 243.545C91.8199 244.266 91.626 245.283 90.9861 247.665C90.6703 248.841 90.0202 249.488 89.6149 250.998C89.2094 252.508 90.0078 253.08 89.6921 254.255C89.0522 256.638 87.1429 258.198 85.4276 257.739C83.7123 257.281 82.8405 254.977 83.4804 252.595C83.6674 251.898 85.7545 246.43 87.2444 243.891C88.2707 242.142 90.4632 242.824 91.1416 243.545Z"
          fill="white"/>
    <path fill-rule="evenodd" clip-rule="evenodd"
          d="M87.8811 252.674C86.1437 252.047 84.5667 251.378 83.3044 250.754C84.7252 251.079 86.4637 251.595 88.3111 252.262C90.0485 252.89 91.6256 253.558 92.8879 254.183C91.467 253.858 89.7284 253.341 87.8811 252.674Z"
          fill="black"/>
    <path fill-rule="evenodd" clip-rule="evenodd"
          d="M86.6497 249.779C85.0989 249.219 83.6905 248.624 82.5625 248.07C83.8293 248.364 85.3803 248.827 87.0293 249.423C88.5801 249.983 89.9885 250.578 91.1165 251.132C89.8496 250.838 88.2986 250.375 86.6497 249.779Z"
          fill="black"/>
    <path fill-rule="evenodd" clip-rule="evenodd"
          d="M85.9926 247.392C84.9675 247.021 84.0367 246.628 83.2913 246.261C84.129 246.455 85.1544 246.76 86.2444 247.154C87.2695 247.524 88.2004 247.918 88.9457 248.285C88.108 248.091 87.0826 247.785 85.9926 247.392Z"
          fill="black"/>
    <path d="M139.566 264.296C139.566 265.284 138.901 267.261 135.741 268.414C133.746 269.072 131.418 269.402 129.089 269.402C125.431 269.402 121.605 268.578 119.776 266.767C119.111 266.108 118.612 265.284 118.612 264.296L115.618 245.192C115.618 240.58 122.77 238.439 129.089 238.439C132.415 238.439 135.575 238.933 137.903 239.921C141.895 241.568 142.56 243.874 142.56 245.192L139.566 264.296Z"
          fill="black"/>
    <path d="M118.437 246.078C118.565 246.24 118.702 246.395 118.847 246.543C120.898 248.642 125.187 249.596 129.29 249.596C131.901 249.596 134.512 249.214 136.749 248.451C138.448 247.811 139.504 246.951 140.143 246.104C140.146 246.168 140.147 246.23 140.147 246.289L137.734 262.307C137.734 263.135 137.198 264.792 134.652 265.759C133.043 266.311 131.167 266.587 129.29 266.587C126.341 266.587 123.258 265.897 121.784 264.378C121.248 263.826 120.846 263.135 120.846 262.307L118.433 246.289L118.439 246.08L118.437 246.078Z"
          fill="#C4C3C7"/>
    <path d="M137.692 249.297C137.735 250.162 137.747 251.086 137.72 252.069C137.72 259.053 136.251 263.244 135.516 264.175C134.781 263.244 133.311 259.053 133.311 252.069C133.311 251.589 133.318 251.122 133.331 250.669C134.569 250.482 135.762 250.169 136.851 249.73C137.129 249.606 137.387 249.474 137.626 249.336L137.692 249.297Z"
          fill="white"/>
    <path d="M119.881 246.592C119.998 247.237 120.13 247.923 120.278 248.652C121.295 253.841 122.213 256.894 122.502 257.556C122.521 256.835 122.22 253.662 121.203 248.474C121.134 248.118 121.064 247.771 120.996 247.435C120.709 247.346 120.413 247.162 120.121 246.88C120.044 246.799 119.971 246.712 119.901 246.619L119.881 246.592Z"
          fill="#111111"/>
    <path d="M121.771 246.592C121.825 246.915 121.89 247.259 121.967 247.623C122.475 250.217 123.088 251.714 123.31 252.03C123.397 251.654 123.4 250.038 122.892 247.444C122.857 247.266 122.822 247.093 122.786 246.925C122.513 246.906 122.24 246.838 121.979 246.719C121.912 246.684 121.848 246.646 121.788 246.604L121.771 246.592Z"
          fill="#111111"/>
    <path d="M118.576 248.09C118.933 248.301 119.555 255.472 122.204 260.801C124.854 266.13 129.046 266.499 128.424 267.392C128.058 267.001 121.313 266.351 120.65 263.155C120.362 261.772 119.031 257.32 118.576 254.21C118.385 252.903 118.385 250.863 118.576 248.09Z"
          fill="black"/>
    <path d="M129.089 243.276C124.268 243.126 121.442 244.479 120.444 245.08C121.109 245.681 124.102 246.884 129.089 246.884C134.077 246.884 137.07 245.681 137.735 245.08C137.07 244.479 134.077 243.276 129.089 243.276Z"
          fill="white"/>
    <path fill-rule="evenodd" clip-rule="evenodd"
          d="M306.321 104.663C304.628 107.45 300.994 108.51 297.928 107.015C294.861 105.52 293.459 102.004 294.612 98.9536L306.321 104.663Z"
          fill="white"/>
    <path d="M302.571 110.563C305.133 104.655 306.982 101.637 308.118 101.508C309.823 101.315 311.93 103.612 311.654 109.533C311.47 113.48 309.97 117.693 307.154 122.171C307.603 124.027 306.756 125.994 305.04 126.93C300.982 129.143 297.844 130.826 295.622 131.98C294.513 132.557 289.873 135.434 288.494 135.562C286.963 135.704 283.956 136.121 282.694 135.159C281.966 134.605 281.248 133.174 280.909 132.601C283.124 130.564 284.545 129.242 285.173 128.634C286.037 127.798 284.318 124.901 286.031 124.194C287.173 123.723 288.606 124.748 290.33 127.267L301.382 119.283L302.571 110.563Z"
          fill="black"/>
    <path d="M301.823 122.732L303.475 124.547C303.551 125.491 302.992 126.454 302.023 126.945C299.13 128.413 295.95 129.606 292.485 130.526C290.233 130.991 288.81 130.934 288.216 130.355L301.81 122.8L301.823 122.732Z"
          fill="white"/>
    <path d="M287.654 128.374C287.27 128.415 286.944 128.333 286.847 128.158C286.56 127.636 286.41 127.051 286.399 126.402C286.445 125.977 286.614 125.699 286.905 125.567L288.531 127.871L287.654 128.374Z"
          fill="white"/>
    <path d="M289.635 128.825C290.619 129.309 291.639 131.205 291.709 132.167C290.511 132.738 289.506 133.278 288.71 133.471C288.676 133.501 288.637 133.526 288.595 133.544C288.04 133.786 287.432 133.957 286.771 134.055C286.341 134.089 286.072 134.03 285.961 133.879L287.409 133.165C287.364 133.069 287.351 132.963 287.376 132.854C287.141 132.911 286.853 132.97 286.499 133.034C284.652 133.248 283.495 133.072 283.028 132.506C285.515 130.446 286.85 129.352 287.035 129.224C287.662 128.789 288.652 128.342 289.635 128.825Z"
          fill="white"/>
    <path d="M305.256 110.461L308.322 109.468C308.518 111.593 308.379 113.495 307.904 115.177C307.807 115.519 306.685 115.785 306.533 116.178C306.039 117.454 306.25 119.1 305.169 120.914C304.421 121.39 303.964 120.367 303.797 117.844C303.63 115.322 304.117 112.861 305.256 110.461Z"
          fill="white"/>
</g>
<defs>
    <clipPath id="clip0_1008_6543">
        <rect width="432" height="348" fill="white"/>
    </clipPath>
</defs>
</svg>
