<svg width="256" height="256" viewBox="0 0 256 256" fill="none" xmlns="http://www.w3.org/2000/svg">
<path d="M55.9034 235.383C36.0353 235.383 19.9291 222.516 19.9291 206.645C19.9291 205.692 19.9874 204.745 20.1029 203.806C9.29151 198.733 2.34461 189.393 2.34461 179.018C2.34461 173.574 4.25142 168.359 7.739 163.874C2.80072 159.032 0 152.931 0 146.474C0 139.98 2.83295 133.845 7.82826 128.987C5.02551 124.847 3.51691 120.179 3.51691 115.335C3.51691 99.4633 19.6231 86.5967 39.4911 86.5967H76C76.3496 86.5967 81.7534 86.5419 81.5165 86.5441C81.5563 86.5437 86.6271 86.5445 86.6667 86.5441C84.9116 84.3596 63.1379 58.8562 63.3333 42.5C63.5443 24.8405 80.8255 16.2984 82.4484 15.6378C89.8865 12.6102 100.523 15.6273 108.302 24.6601C117.769 35.6534 130.473 43.4313 137.696 52.8427C139.488 55.1779 144.36 61.606 144.593 61.9113C146.719 64.6959 148.096 66.4284 149.298 67.8092C154.686 73.9945 161.936 79.6418 171.088 84.7461C180.18 89.8168 188.035 97.849 194.89 108.136H256V222.74H183.813C169.419 231.429 148.869 238.619 133.385 240.475C118.335 242.278 95.8948 240.548 65.7451 235.383H55.9034Z" fill="black"/>
<path d="M119.107 50.4818C119.17 52.3991 118.931 54.4149 118.351 56.3279C118.113 57.1128 117.83 57.8385 117.512 58.4991C119.312 58.5374 121.024 57.3728 121.97 55.1955C122.085 54.9302 122.186 54.6578 122.272 54.3799C125.682 58.58 131.678 65.8217 131.876 66.0812C134.132 69.0367 135.626 70.9162 137.021 72.518C143.345 79.7796 151.725 86.3079 162.123 92.1077C177.055 100.437 182.913 112.681 184.856 115.8L184.885 115.847C188.011 123.191 189.148 133.304 187.527 144.161C187.065 147.251 186.407 150.224 185.582 153.041C191.576 149.728 196.8 142.608 199.032 133.689C200.361 128.377 200.433 123.207 199.467 118.753H242.667V165.401C242.667 167.125 242.573 168.828 242.391 170.503C225.803 170.589 210.299 172.339 202.393 175.387C198.735 176.798 197.128 178.323 197.354 179.833C206.238 178.221 222.225 176.148 228 177.089C233.775 178.029 239.225 183.352 237.685 186.404C229.999 201.628 214.219 212.068 196 212.068H188.228C188.327 211.894 188.425 211.719 188.521 211.542C191.349 206.328 191.908 201.055 190.465 197.167C189.542 199.113 188.29 200.974 187.065 203.058C172 228.681 140.8 228.797 131.407 229.923C122.529 230.987 109.992 230.583 93.895 228.681C99.8788 225.756 104 219.609 104 212.5C104 209.759 103.388 207.162 102.292 204.837C108.159 194.294 128.823 180.082 137.021 177.089C134.333 176.088 131.616 174.861 128.919 173.406C123.132 170.285 112.256 163.041 116 153.041C119.745 143.041 112.256 133.52 106.593 129.833C110.852 127.061 116.997 123.333 120 115.847C120.989 113.381 123.925 98.5001 112 87.8334C104.496 81.1204 95.5361 77.1156 85.5988 63.8334C73.5988 50.5001 68.0002 30.649 85.5988 25.1765C85.6406 25.1728 85.6924 25.168 85.7532 25.168C86.1892 25.1561 90.5448 30.1775 93.1186 33.1667C101.965 43.4405 112.029 42.6875 119.107 50.4818Z" fill="#DAE2EB"/>
<path d="M119.451 98.8733C118.131 95.1262 115.833 91.2621 112 87.8335C104.496 81.1205 95.5361 77.1157 85.5988 63.8335C73.9291 50.8672 68.3132 31.737 84.1979 25.6607C83.6504 37.1053 82.3691 48.6013 90.6669 59.07C102.292 73.7366 122.645 92.309 120 98.5002C119.916 98.6963 119.729 98.8179 119.451 98.8733Z" fill="white"/>
<path fill-rule="evenodd" clip-rule="evenodd" d="M104.904 201.167C109.333 196.606 119.284 183.989 134.667 175.834C150.05 167.678 167.856 168.419 172.206 177.335C173.176 179.323 170.582 188.513 163.292 190.626C154.956 193.043 135.913 188.474 127.802 192.429C119.234 196.606 104.372 201.714 104.904 201.167Z" fill="white"/>
<path fill-rule="evenodd" clip-rule="evenodd" d="M85.2989 22.0582L101.521 36.3365C103.44 38.0263 103.924 40.5124 102.6 41.8894L101.002 43.5516C99.6785 44.9286 97.0492 44.675 95.1294 42.9852L88.1772 36.866C83.0577 32.3599 81.7691 25.7302 85.2989 22.0582Z" fill="black"/>
<path fill-rule="evenodd" clip-rule="evenodd" d="M87.9044 25.3387L101.598 37.7932C103.218 39.2671 103.637 41.423 102.534 42.6085L101.202 44.0395C100.098 45.225 97.8896 44.9912 96.269 43.5173L90.4004 38.1796C86.0789 34.2491 84.9614 28.5 87.9044 25.3387Z" fill="white"/>
<path d="M24 167.833C18.109 167.833 13.3334 172.609 13.3334 178.5V183.833C13.3334 189.724 18.109 194.5 24 194.5H92C99.3638 194.5 105.333 188.531 105.333 181.167C105.333 173.803 99.3638 167.833 92 167.833H24Z" fill="#DAE2EB"/>
<path d="M42.6667 201.167C36.7756 201.167 32 205.942 32 211.833V213.167C32 219.058 36.7756 223.833 42.6667 223.833H86C92.2592 223.833 97.3333 218.759 97.3333 212.5C97.3333 206.241 92.2592 201.167 86 201.167H42.6667Z" fill="#DAE2EB"/>
<path d="M22.6667 133.167C16.7756 133.167 12 137.942 12 143.833V150.5C12 156.391 16.7756 161.167 22.6667 161.167H95.3333C103.065 161.167 109.333 154.899 109.333 147.167C109.333 139.435 103.065 133.167 95.3333 133.167H22.6667Z" fill="#DAE2EB"/>
<path d="M27.5363 98.5C21.9014 98.5 17.3334 103.276 17.3334 109.167V115.833C17.3334 121.724 21.9014 126.5 27.5363 126.5H91.9421C99.3379 126.5 105.333 120.232 105.333 112.5C105.333 104.768 99.3379 98.5 91.9421 98.5H27.5363Z" fill="#DAE2EB"/>
<path d="M106.667 126.5H98.0367C92.4936 126.5 88 121.127 88 114.5C88 107.873 92.4936 102.5 98.0367 102.5H106.667V126.5Z" fill="black"/>
<path d="M109.333 161.167H101.936C97.185 161.167 93.3334 155.794 93.3334 149.167C93.3334 142.539 97.185 137.167 101.936 137.167H109.333V161.167Z" fill="black"/>
<path d="M105.333 195.833H97.9363C93.185 195.833 89.3334 190.461 89.3334 183.833C89.3334 177.206 93.185 171.833 97.9363 171.833H105.333V195.833Z" fill="black"/>
<path d="M98.6667 223.833H92.5025C88.5431 223.833 85.3334 219.655 85.3334 214.5C85.3334 209.345 88.5431 205.167 92.5025 205.167H98.6667V223.833Z" fill="black"/>
<path d="M103.312 155.833H100.641C97.3414 155.833 94.6666 151.953 94.6666 147.167C94.6666 142.38 97.3414 138.5 100.641 138.5H103.043C104.768 138.5 106.298 139.605 106.84 141.242C107.613 143.575 108 145.791 108 147.889C108 149.781 107.686 151.565 107.057 153.239C106.471 154.8 104.979 155.833 103.312 155.833Z" fill="white"/>
<path d="M99.3119 190.5H96.6409C93.3414 190.5 90.6666 186.62 90.6666 181.833C90.6666 177.047 93.3414 173.167 96.6409 173.167H99.0432C100.768 173.167 102.298 174.272 102.84 175.908C103.613 178.242 104 180.457 104 182.555C104 184.448 103.686 186.231 103.057 187.906C102.471 189.466 100.979 190.5 99.3119 190.5Z" fill="white"/>
<path d="M93.0407 219.833H91.446C88.8064 219.833 86.6666 216.849 86.6666 213.167C86.6666 209.485 88.8064 206.5 91.446 206.5H92.8137C94.5784 206.5 96.1345 207.656 96.6436 209.346C97.1034 210.872 97.3333 212.331 97.3333 213.722C97.3333 214.854 97.1812 215.935 96.8772 216.965C96.3754 218.666 94.8138 219.833 93.0407 219.833Z" fill="white"/>
<path d="M100.574 122.5H97.9742C94.6748 122.5 92 118.321 92 113.167C92 108.012 94.6748 103.833 97.9742 103.833H100.31C102.059 103.833 103.605 104.969 104.128 106.638C104.931 109.205 105.333 111.641 105.333 113.945C105.333 116.038 105.002 118.007 104.338 119.853C103.768 121.441 102.261 122.5 100.574 122.5Z" fill="white"/>
<path fill-rule="evenodd" clip-rule="evenodd" d="M74.8447 122.538C76.6452 122.587 78.3568 121.102 79.3032 118.325C80.776 114.005 79.8377 108.193 77.2074 105.344C76.4014 104.471 75.53 103.977 74.6666 103.837C76.5391 107.699 77.0345 114.089 75.6839 119.769C75.4459 120.77 75.1633 121.695 74.8447 122.538Z" fill="black"/>
<path fill-rule="evenodd" clip-rule="evenodd" d="M26.5331 122.534C25.1827 122.583 23.899 121.098 23.1892 118.321C22.0846 114.001 22.7883 108.189 24.7611 105.34C25.3656 104.467 26.0191 103.974 26.6666 103.833C25.2623 107.695 24.8907 114.085 25.9037 119.765C26.0822 120.766 26.2941 121.691 26.5331 122.534Z" fill="black"/>
<path fill-rule="evenodd" clip-rule="evenodd" d="M19.8665 157.201C18.5161 157.249 17.2324 155.764 16.5226 152.988C15.418 148.667 16.1217 142.855 18.0944 140.007C18.6989 139.134 19.3525 138.64 20 138.5C18.5956 142.361 18.2241 148.752 19.237 154.432C19.4155 155.433 19.6275 156.358 19.8665 157.201Z" fill="black"/>
<path fill-rule="evenodd" clip-rule="evenodd" d="M19.8665 190.534C18.5161 190.583 17.2324 189.098 16.5226 186.321C15.418 182.001 16.1217 176.189 18.0944 173.34C18.6989 172.467 19.3525 171.974 20 171.833C18.5956 175.695 18.2241 182.085 19.237 187.765C19.4155 188.766 19.6275 189.691 19.8665 190.534Z" fill="black"/>
<path fill-rule="evenodd" clip-rule="evenodd" d="M38.5331 221.201C37.1827 221.243 35.899 219.972 35.1892 217.597C34.0846 213.9 34.7883 208.928 36.7611 206.491C37.3656 205.744 38.0191 205.322 38.6666 205.202C37.2623 208.505 36.8907 213.973 37.9037 218.832C38.0822 219.688 38.2941 220.48 38.5331 221.201Z" fill="black"/>
<path fill-rule="evenodd" clip-rule="evenodd" d="M73.4669 190.5C74.8173 190.166 76.101 188.317 76.8108 185.34C77.9154 180.706 77.2117 175.093 75.2389 172.804C74.6344 172.102 73.9809 171.794 73.3334 171.837C74.7377 175.301 75.1093 181.586 74.0963 187.553C73.9178 188.605 73.7059 189.59 73.4669 190.5Z" fill="black"/>
<path fill-rule="evenodd" clip-rule="evenodd" d="M74.8447 157.205C76.6452 157.256 78.3568 155.773 79.3032 152.999C80.776 148.68 79.8377 142.867 77.2074 140.014C76.4014 139.14 75.53 138.645 74.6666 138.504C76.5391 142.368 77.0345 148.759 75.6839 154.437C75.4459 155.438 75.1633 156.363 74.8447 157.205Z" fill="black"/>
<path fill-rule="evenodd" clip-rule="evenodd" d="M74.7557 221.167C75.656 220.88 76.5118 219.296 76.985 216.743C77.7214 212.772 77.2522 207.961 75.9371 205.998C75.5341 205.397 75.0984 205.133 74.6667 205.17C75.603 208.138 75.8506 213.526 75.1753 218.641C75.0563 219.542 74.9151 220.386 74.7557 221.167Z" fill="black"/>
</svg>
