<svg width="256" height="256" viewBox="0 0 256 256" fill="none" xmlns="http://www.w3.org/2000/svg">
    <g clip-path="url(#clip0_1008_6254)">
        <path d="M186.771 56.289C220.313 70.8145 229.999 130.739 209.969 184.455C200.497 209.855 185.745 231.314 168.649 244.978C161.415 250.76 154.095 254.069 146.902 255.361C141.999 256.243 138.3 256.135 134.035 255.508C121.622 255.266 112.018 254.082 105.224 251.956C98.1829 249.753 90.9805 245.111 83.617 238.032C62.2557 215.558 58.4369 169.074 75.2031 124.111C95.2333 70.395 137.868 37.0197 171.41 51.5452C175.651 53.382 181.922 54.1891 186.771 56.289Z"
              fill="black"/>
        <path fill-rule="evenodd" clip-rule="evenodd"
              d="M138.603 244.367C149.041 242.749 173.681 223.158 187.757 194.064C200.817 167.07 203.907 131.156 199.893 112.204C195.168 89.8923 190.176 76.4481 170.941 65.752C175.334 65.8388 180.306 67.8054 184.439 69.5114C213.435 81.4799 222.238 132.481 205.079 180.824C196.624 204.645 183.251 223.887 168.391 235.848C155.256 246.42 150.048 245.97 146.331 245.462C141.95 244.863 139.374 244.498 138.603 244.367Z"
              fill="#DAE2EB"/>
        <path fill-rule="evenodd" clip-rule="evenodd"
              d="M185.927 173.628C206.479 126.054 199.849 77.4422 171.118 65.0503C142.388 52.6583 102.437 81.1791 81.8847 128.753C61.333 176.327 67.9632 224.939 96.6938 237.331C125.424 249.723 165.376 221.202 185.927 173.628Z"
              fill="#DAE2EB"/>
        <path fill-rule="evenodd" clip-rule="evenodd"
              d="M185.927 173.628C206.479 126.054 199.848 77.4422 171.118 65.0503C142.387 52.6583 102.436 81.1791 81.8844 128.753C61.3326 176.327 67.9628 224.939 96.6934 237.331C125.424 249.723 165.375 221.202 185.927 173.628Z"
              fill="#DAE2EB"/>
        <path fill-rule="evenodd" clip-rule="evenodd"
              d="M151.757 73.198C129.002 72.8415 104.248 97.9732 93.2415 134.709C80.7012 176.564 90.7549 217.633 115.697 226.439C117.075 226.926 118.47 227.304 119.877 227.576C116.706 227.527 113.575 226.982 110.524 225.905C85.5821 217.099 75.5284 176.03 88.0687 134.175C99.9162 94.6327 127.692 68.5353 151.757 73.198Z"
              fill="white"/>
        <path fill-rule="evenodd" clip-rule="evenodd"
              d="M143.018 217.401C155.065 206.193 165.421 188.556 171.184 167.226C182.602 124.969 171.67 84.2213 146.767 76.2121C142.581 74.8661 138.268 74.5304 133.933 75.1041C142.05 72.162 150.204 72.0714 157.679 75.4004C181.732 86.1127 189.65 128.177 175.365 169.354C167.977 190.651 156.096 207.539 143.018 217.401L143.018 217.401Z"
              fill="black"/>
        <path d="M152.555 105.744L139.739 183.704C139.23 186.798 138.133 190.023 136.363 192.719C133.512 197.313 128.975 200.512 124 201.692L109.276 204.709L105.64 198.226L108.042 189.788L117.765 187.478C121.958 186.249 107.907 188.631 108.699 184.109C111.707 182.95 113.595 181.159 116.071 179.05C118.546 176.94 120.032 172.54 120.529 165.848C122.163 156.157 123.598 142.24 126.902 122.649L113.683 123.612L111.597 117.927L116.153 110.911L147.13 100.964L152.555 105.744Z"
              fill="black"/>
        <path d="M147.55 99.31L134.298 177.377C133.791 180.478 132.709 183.715 130.972 186.425C128.171 191.043 123.729 194.272 118.865 195.482L104.472 198.588L103.315 183.651L112.821 181.282C116.921 180.028 120.133 176.406 120.921 171.873L130.796 115.117L109.04 117.34L111.494 104.605L147.55 99.31Z"
              fill="#DAE2EB"/>
        <path d="M108.296 198.434L108.116 196.257L121.094 193.072C126.69 191.391 131.065 186.581 132.126 180.577L145.406 105.402L115.691 108.456L116.249 105.614L149.184 100.529L136.117 177.815C135.598 180.882 134.492 184.087 132.715 186.778C129.852 191.362 125.311 194.588 120.341 195.824L108.296 198.434Z"
              fill="white"/>
        <path d="M173.336 11.6656C195.437 23.7928 205.341 56.9331 201.729 93.3474C200.569 105.043 200.072 127.121 199.13 129.902C198.187 132.684 200.074 140.304 199.189 148.667C198.065 159.288 196.848 170.837 195.185 174.239C182.992 199.185 190.351 199.112 171.478 211.347C168.537 213.254 176.729 187.596 173.905 191.954C167.809 201.359 162.657 209.414 143.365 213.969C124.072 218.524 112.529 210.917 99.8149 209.446C87.1011 207.975 77.362 205.821 70.5977 202.985C63.587 200.045 56.6485 194.605 49.7823 186.666C30.0523 161.659 30.662 113.919 52.2465 69.7607C78.0327 17.0061 125.033 -12.7932 158.036 5.31636C162.209 7.60638 168.565 9.04751 173.336 11.6656Z"
              fill="black"/>
        <path fill-rule="evenodd" clip-rule="evenodd"
              d="M102.423 197.893C113.922 197.241 142.382 179.973 160.131 152.253C176.6 126.534 182.957 91 180.166 71.7281C176.881 49.0407 172.566 35.1722 152.516 22.7319C157.291 23.2233 162.541 25.6429 166.899 27.7253C197.471 42.334 202.805 94.0107 180.095 140.645C168.904 163.623 152.741 181.582 135.565 192.142C120.383 201.475 114.75 200.546 110.746 199.697C106.026 198.696 103.252 198.095 102.423 197.893Z"
              fill="#DAE2EB"/>
        <path fill-rule="evenodd" clip-rule="evenodd"
              d="M158.218 130.045C186.333 85.0498 187.646 36.1758 161.149 20.8819C134.653 5.58792 90.382 29.6655 62.2671 74.6607C34.1522 119.656 32.84 168.53 59.3363 183.824C85.8325 199.118 130.104 175.04 158.218 130.045Z"
              fill="#DAE2EB"/>
        <path fill-rule="evenodd" clip-rule="evenodd"
              d="M158.218 130.045C186.333 85.0498 187.646 36.1758 161.149 20.8819C134.653 5.58792 90.382 29.6655 62.2671 74.6607C34.1522 119.656 32.84 168.53 59.3363 183.824C85.8325 199.118 130.104 175.04 158.218 130.045Z"
              fill="#DAE2EB"/>
        <path fill-rule="evenodd" clip-rule="evenodd"
              d="M75.4854 190.037C103.482 194.47 137.98 169.786 157.367 129.256C179.455 83.0789 173.564 33.819 144.209 19.2309C142.587 18.4249 140.928 17.7416 139.236 17.1777C143.137 17.7953 146.912 18.9782 150.502 20.7623C179.857 35.3504 185.748 84.6103 163.659 130.787C142.791 174.413 104.416 199.68 75.4854 190.037Z"
              fill="white"/>
        <path fill-rule="evenodd" clip-rule="evenodd"
              d="M138.654 25.1585C113.946 22.7019 84.9364 45.49 69.9032 81.1248C52.7754 121.725 60.2763 163.627 86.6569 174.716C88.1144 175.328 89.599 175.834 91.1063 176.236C87.6634 175.894 84.3042 175.061 81.0779 173.705C54.6973 162.616 47.1964 120.715 64.3242 80.1143C80.5057 41.7573 112.881 18.2848 138.654 25.1585Z"
              fill="white"/>
        <path fill-rule="evenodd" clip-rule="evenodd"
              d="M113.281 170.444C127.062 160.34 139.602 143.624 147.577 122.767C163.375 81.4502 155.277 39.5298 129.489 29.1355C125.155 27.3886 120.597 26.6434 115.938 26.8086C124.824 24.6252 133.502 25.3063 141.163 29.3544C165.814 42.3804 170.593 85.3362 151.838 125.299C142.138 145.968 128.042 161.788 113.281 170.444Z"
              fill="black"/>
        <path d="M134.789 58.2234L114.396 135.034C113.586 138.083 112.134 141.207 110.004 143.739C106.551 148.069 101.407 150.844 95.9639 151.559L79.894 153.199L76.5406 146.371L79.8381 138.153L90.4768 136.752C95.0841 135.916 79.7908 136.982 81.0262 132.532C84.3558 131.654 86.5357 130.038 89.3736 128.159C92.2116 126.28 94.1815 122.016 95.2835 115.367C97.8631 105.822 100.587 92.0306 105.802 72.7363L91.523 72.4609L89.7669 66.5773L95.2562 59.9832L129.37 52.9316L134.789 58.2234Z"
              fill="black"/>
        <path d="M130.637 51.2349L109.746 128.01C108.937 131.062 107.496 134.195 105.391 136.741C101.977 141.095 96.9069 143.908 91.5522 144.665L75.745 146.429L75.7547 131.396L86.2209 129.912C90.7544 129.041 94.5285 125.721 95.7623 121.265L111.211 65.4703L87.5262 65.6666L91.2504 53.1701L130.637 51.2349Z"
              fill="#DAE2EB"/>
        <path d="M79.4848 146.719L79.471 144.53L93.837 142.551C100.058 141.391 105.212 136.996 106.866 131.103L127.577 57.3179L95.0381 57.6194L95.8809 54.8347L132.089 52.8038L111.433 128.715C110.614 131.728 109.144 134.824 106.989 137.345C103.495 141.654 98.2923 144.453 92.7884 145.228L79.4848 146.719Z"
              fill="white"/>
        <path fill-rule="evenodd" clip-rule="evenodd"
              d="M178.321 195.566C160.643 227.513 133.885 245.73 111.138 239.777C132.003 241.426 155.167 224.487 171.281 196.416C181.598 179.217 175.994 195.91 178.321 195.566Z"
              fill="white"/>
    </g>
    <defs>
        <clipPath id="clip0_1008_6254">
            <rect width="256" height="256" fill="white"/>
        </clipPath>
    </defs>
</svg>
