<svg width="256" height="256" viewBox="0 0 256 256" fill="none" xmlns="http://www.w3.org/2000/svg">
    <g clip-path="url(#clip0_1008_6257)">
        <path d="M127.93 256C93.7799 256 64.5 239.136 64.5 214.352C64.5 189.568 93.7799 172.703 127.93 172.703C162.081 172.703 191.36 189.568 191.36 214.352C191.36 239.136 162.081 256 127.93 256Z"
              fill="black"/>
        <path d="M127.93 243.938C156.3 243.938 179.298 230.692 179.298 214.352C179.298 198.011 156.3 184.765 127.93 184.765C99.5602 184.765 76.5618 198.011 76.5618 214.352C76.5618 230.692 99.5602 243.938 127.93 243.938Z"
              fill="white"/>
        <path d="M127.93 235.99C156.3 235.99 179.298 222.743 179.298 206.403C179.298 190.063 156.3 176.817 127.93 176.817C99.5602 176.817 76.5618 190.063 76.5618 206.403C76.5618 222.743 99.5602 235.99 127.93 235.99Z"
              fill="#DAE2EB"/>
        <path d="M176.642 201.739C176.642 210.637 170.348 218.463 160.36 223.716C151.758 228.24 140.741 230.69 129.259 230.69C117.776 230.69 106.759 228.24 98.158 223.716C88.1694 218.463 81.876 210.637 81.876 201.739C81.876 201.654 81.876 201.569 81.8777 201.484L81.876 137.683C81.876 130.03 90.2406 123.826 100.559 123.826H157.959C168.277 123.826 176.642 130.03 176.642 137.683V201.57C176.642 201.594 176.642 201.619 176.642 201.643C176.642 201.675 176.642 201.707 176.642 201.739Z"
              fill="black"/>
        <path d="M162.469 200.134H162.471V120.293H90.7327L90.7349 200.134C90.7334 200.204 90.7327 200.275 90.7327 200.346C90.7327 210.764 106.792 219.209 126.602 219.209C146.412 219.209 162.471 210.764 162.471 200.346C162.471 200.275 162.471 200.204 162.469 200.134Z"
              fill="#DAE2EB"/>
        <path d="M161.586 203.44C158.794 212.386 144.103 219.209 126.398 219.209C106.701 219.209 90.7327 210.764 90.7327 200.346C90.7327 200.275 90.7334 200.204 90.7349 200.134L90.7327 120.293H95.0559L95.058 193.77C95.0565 193.84 95.0558 193.911 95.0558 193.982C95.0558 204.4 111.024 212.845 130.721 212.845C143.901 212.845 155.412 209.064 161.586 203.44Z"
              fill="white"/>
        <path d="M128.816 169.751C113.805 169.751 99.4919 166.496 88.4777 160.575C76.1687 153.957 68.5908 144.325 68.5908 133.541C68.5908 122.757 76.1687 113.125 88.4777 106.507C99.4919 100.585 113.805 97.3306 128.816 97.3306C143.826 97.3306 158.14 100.585 169.154 106.507C181.463 113.125 189.041 122.757 189.041 133.541C189.041 144.325 181.463 153.957 169.154 160.575C158.14 166.496 143.826 169.751 128.816 169.751Z"
              fill="black"/>
        <path d="M130.144 155.62C159.248 155.62 182.841 145.142 182.841 132.216C182.841 119.29 159.248 108.812 130.144 108.812C101.04 108.812 77.4473 119.29 77.4473 132.216C77.4473 145.142 101.04 155.62 130.144 155.62Z"
              fill="#DAE2EB"/>
        <path fill-rule="evenodd" clip-rule="evenodd"
              d="M115.494 125.149C129.168 106.762 182.975 134.999 166.828 114.856C150.681 94.7133 124.341 107.73 105.441 111.52C86.5402 115.31 73.5582 124.918 76.4448 132.979C79.3314 141.041 101.82 143.537 115.494 125.149Z"
              fill="black"/>
        <path fill-rule="evenodd" clip-rule="evenodd"
              d="M148.3 161.802C150.746 161.802 152.729 163.78 152.729 166.218V198.896C152.729 201.335 150.746 203.312 148.3 203.312C145.855 203.312 143.872 201.335 143.872 198.896V166.218C143.872 163.78 145.855 161.802 148.3 161.802Z"
              fill="black"/>
        <path fill-rule="evenodd" clip-rule="evenodd"
              d="M128.816 161.802C131.262 161.802 133.244 163.78 133.244 166.218V204.195C133.244 206.634 131.262 208.611 128.816 208.611C126.37 208.611 124.388 206.634 124.388 204.195V166.218C124.388 163.78 126.37 161.802 128.816 161.802Z"
              fill="black"/>
        <path fill-rule="evenodd" clip-rule="evenodd"
              d="M108.446 161.802C110.891 161.802 112.874 163.78 112.874 166.218V198.896C112.874 201.335 110.891 203.312 108.446 203.312C106 203.312 104.017 201.335 104.017 198.896V166.218C104.017 163.78 106 161.802 108.446 161.802Z"
              fill="black"/>
        <path fill-rule="evenodd" clip-rule="evenodd"
              d="M115.523 121.069C127.092 109.993 165.746 124.145 154.943 113.2C144.14 102.255 120.702 106.644 106.188 109.541C91.6741 112.439 83.9102 122.538 85.537 127.055C87.1638 131.572 103.955 132.146 115.523 121.069Z"
              fill="white"/>
        <path d="M168.869 81.7749C175.55 84.8386 179.138 86.7945 182.567 89.6114C187.217 93.4323 190.093 98.0558 190.987 103.889C192.126 111.32 189.595 120.422 189.949 132.358C189.982 133.467 188.9 147.915 157.084 147.908C147.66 147.906 138.794 149.424 129.073 149.086C98.5974 148.024 80.0589 143.345 69.1449 129.049L68.6482 128.399L68.5775 127.586C68.5111 126.824 68.4329 126.062 68.3429 125.302C68.3228 125.132 68.1228 123.491 68.0502 122.874C67.9089 121.671 67.7864 120.543 67.6731 119.371C67.0562 112.981 66.8782 106.931 67.3523 101.182C67.7605 96.2307 68.6436 91.8153 70.0947 88.0359C72.722 81.1929 80.5684 75.3862 86.9037 74.4497C88.1734 74.2617 93.6594 73.6436 99.3507 72.0681C105.585 70.3422 112.018 67.6465 112.265 67.4347C113.309 65.197 113.12 63.9457 111.401 61.9678C111.237 61.7807 110.41 60.8507 110.171 60.5773C106.671 56.5716 102.929 53.3393 104.051 49.0672C103.98 47.6148 103.644 46.2467 102.761 43.3826C101.413 39.0061 100.931 36.6335 101.287 33.845C97.604 27.6401 98.5184 16.634 103.612 11.4234C111.389 -0.504933 137.671 -4.19254 146.745 5.67836C154.716 13.9787 158.188 28.664 156.074 39.9412C155.722 41.9721 154.986 43.3224 153.295 45.7043C153.113 45.9593 153.029 46.0786 152.94 46.2042C151.506 48.2391 151.197 49.1236 151.564 50.4264L151.804 51.2806L151.51 52.1178C151.406 52.412 151.327 52.6903 151.15 53.3575C150.643 55.2742 148.048 56.1317 147.265 57.1821C146.473 58.2427 145.417 58.9791 144.127 59.3662C143.93 60.8956 144.002 62.6204 144.273 65.6594C144.301 65.9713 144.313 66.1074 144.328 66.2804C144.398 67.0864 144.45 67.7485 144.486 68.3509C152.262 73.4328 160.411 77.9196 168.869 81.7749Z"
              fill="black"/>
        <path d="M103.391 22.1028C103.824 21.0825 104.364 20.1077 105.003 19.1938C106.97 16.0823 109.429 12.6136 112.344 10.1069C112.911 9.55284 113.591 9.11791 114.34 8.82949C115.016 8.61091 115.739 8.59432 116.415 8.3602C117.401 7.83739 118.324 7.21048 119.168 6.491C120.046 5.75496 121.329 5.69527 122.272 6.34665C122.772 5.30835 124.602 6.14687 125.689 5.69116C126.893 5.59402 128.104 5.64977 129.291 5.85697C130.578 5.85512 131.85 4.43882 133.006 6.17805C133.185 6.58292 133.44 6.9516 133.76 7.26502C134.16 7.47551 134.606 7.59201 135.062 7.60511C137.699 8.03655 139.383 10.9253 142.036 11.2012C142.635 11.1827 143.233 11.2607 143.805 11.4318C146.361 12.5162 147.577 16.4781 148.345 18.7464C149.946 23.6714 155.096 32.3219 150.586 37.007C149.909 37.7074 148.976 38.2994 148.781 39.2168C148.587 40.1341 148.779 40.7711 148.456 41.5022C148.134 42.2332 147.297 42.5452 146.846 43.0588C146.284 44.0562 145.959 45.1609 145.892 46.2933C145.293 48.7967 142.975 50.5098 141.316 52.5173C139.978 54.1513 139.043 56.0645 137.818 57.7916C131.984 66.0226 116.388 63.6358 110.738 56.2762C108.932 54.3031 108.202 51.6174 108.771 49.0356C108.463 48.6597 108.294 48.1951 108.29 47.7151C108.291 47.4122 108.324 47.1101 108.388 46.8134L108.388 46.5337C108.329 46.3395 108.248 46.152 108.148 45.9744C107.51 44.8914 107.883 43.5116 108.989 42.8645C109.796 42.4281 110.789 42.475 111.546 42.9852C113.297 44.1951 121.317 42.6784 123.537 42.5664C125.807 42.4442 130.314 43.5389 132.586 43.5568C135.556 43.5802 136.925 41.9512 139.884 42.2139C141.352 40.0601 142.61 37.779 143.641 35.4004C143.88 34.9497 143.976 34.4413 143.916 33.9389C143.693 33.0377 142.632 32.6817 141.877 32.1232C139.097 30.091 140.454 26.172 137.063 24.6226C135.456 23.8788 133.543 23.7261 131.871 23.0756C129.766 22.1771 127.79 20.3458 125.538 20.8154C123.607 21.2223 120.213 21.6434 118.284 21.2265C117.577 21.0721 116.886 20.5912 116.21 20.8254C115.534 21.0595 115.324 22.2722 114.808 23.0035C114.05 24.0926 112.329 24.1417 111.427 25.1378C110.525 26.1339 110.765 27.2838 110.217 28.2483C109.685 29.0364 108.846 29.5841 107.892 29.767C106.938 29.9499 105.948 29.7523 105.149 29.2193C103.597 28.0413 102.805 26.1579 103.066 24.2638C103.081 23.5335 103.19 22.8075 103.391 22.1028ZM126.285 48.413C122.689 48.0526 118.007 46.493 114.629 49.0236C114.277 49.2943 113.947 49.5937 113.642 49.9186C113.598 50.1707 113.514 50.414 113.393 50.6387C115.096 51.4552 114.305 52.3408 116.088 52.9574C121.276 54.4384 125.262 53.0779 130.559 48.4673C128.586 49.0183 128.327 48.3661 126.285 48.413Z"
              fill="white"/>
        <path d="M115.819 74.5391C114.365 77.6927 91.6863 86.8653 91.6656 88.6315C91.6487 90.0675 109.417 87.1134 114.423 87.6714C115.574 87.7997 120.766 89.116 111.232 96.1238C101.698 103.132 91.0654 102.628 87.5961 106.459C84.1268 110.289 80.7458 111.006 76.7691 117.818C77.1563 109.969 74.4717 99.4057 78.0713 91.4239C79.5558 88.1321 82.7791 82.7167 100.284 79.759C107.972 78.46 115.819 74.5391 115.819 74.5391Z"
              fill="white"/>
        <path fill-rule="evenodd" clip-rule="evenodd"
              d="M163.461 140.948C154.148 143.155 145.047 143.86 137.597 143.997C137.65 143.968 137.704 143.939 137.758 143.911C148.641 138.04 158.499 131.852 165.929 124.377C172.645 117.697 178.9 110.148 181.209 101.813C181.216 101.849 172.147 128.879 163.461 140.948ZM128.168 143.905C119.795 143.614 112.665 142.678 106.573 141.275C113.358 137.812 119.961 134.252 126.668 130.757C147.187 120.173 169.668 109.406 170.746 91.5072C175.254 93.1989 175.472 96.0938 174.702 98.0113C171.113 106.987 166.444 115.64 159.115 123.273C157.706 124.732 156.207 126.154 154.62 127.539C152.928 128.98 151.126 130.381 149.328 131.767C143.212 136.212 136.275 140.27 128.56 143.919C128.428 143.914 128.297 143.91 128.168 143.905ZM92.13 130.755C92.9467 128.369 98.4874 119.172 108.718 110.37C118.741 101.747 133.464 93.4969 133.659 92.9548C136.174 87.7839 141.434 83.5388 143.96 78.4644C147.242 78.4536 150.461 79.8084 154.618 82.2244C155.167 82.5436 157.928 84.4744 158.424 84.7658C157.845 86.9634 156.911 89.0533 155.628 91.0197C148.711 99.7732 117.952 117.318 108.717 125.059C108.032 125.634 120.76 119.814 122.399 119.61C122.875 119.523 123.249 119.362 123.491 119.141C135.572 110.581 157.286 98.8047 163.953 88.0073C166.467 88.945 166.445 90.6201 165.851 91.6783C164.578 94.0177 163.151 96.3102 161.568 98.5558C153.252 110.46 126.668 127.922 104.247 139.019C100.999 132.019 90.1115 136.696 92.13 130.755Z"
              fill="#DAE2EB"/>
    </g>
    <defs>
        <clipPath id="clip0_1008_6257">
            <rect width="256" height="256" fill="white"/>
        </clipPath>
    </defs>
</svg>
