<svg width="256" height="256" viewBox="0 0 256 256" fill="none" xmlns="http://www.w3.org/2000/svg">
    <path d="M179.001 174.716C179.268 176.029 180.371 181.462 180.679 183.151C181.331 186.736 181.711 189.739 181.828 192.796C181.836 193.023 181.836 193.023 181.838 193.093C182.25 203.314 180.122 224.283 175.454 256L168.715 252.632L158.435 245.895L157.397 254.954C138.389 256.631 113.928 250.197 96.1712 229.627C89.0663 221.41 85.7079 212.477 83.9298 200.819C83.6321 198.868 83.4505 197.455 83.0873 194.363C70.3473 194.957 58.9863 185.803 58.9798 185.794L49.6129 172.681L56.48 166.169L31.1018 170.972L31.0077 153.441C30.7191 99.7048 38.5212 64.5476 63.1764 33.0528C90.2759 -1.55072 133.971 -9.6736 172.968 11.9533C202.575 28.3578 223.054 60.1786 224.332 92.7032L225.11 112.492L205.744 107.334C206.775 107.608 193.207 103.814 190.306 103.192C189.865 103.098 189.435 103.011 188.987 102.926C187.139 102.571 185.831 102.276 182.619 101.518C181.657 101.29 181.142 101.17 180.58 101.041C175.975 99.9856 173.601 99.7381 172.377 99.9882C171.135 100.244 169.915 100.45 168.715 100.608C184.057 120.339 188.118 151.397 179.001 174.716Z"
          fill="black"/>
    <path d="M209.638 93.633C202.811 91.8195 200.853 91.6501 193.426 90.2309C188.475 89.2847 176.121 88.7006 156.366 88.4784C153.48 82.9001 149.555 77.8573 144.59 73.35C140.99 70.3003 136.557 67.965 132.196 66.1153C112.637 56.9496 91.1117 61.7012 80.7618 80.5846C72.3337 95.9594 67.9277 120.309 65.8858 137.576C65.3853 141.676 65.4454 145.855 65.1851 151.276L46.4809 153.319C46.2607 112.418 50.3046 74.7101 75.4487 42.6793C98.1105 13.8219 133.685 7.63257 165.976 25.491C190.839 39.2298 208.556 66.1949 209.638 93.633Z"
          fill="white"/>
    <path d="M192.891 91.2373C187.958 90.2851 175.65 89.6973 155.966 89.4737C153.091 83.86 149.18 78.7852 144.233 74.2493C140.647 71.1803 136.229 68.8301 131.884 66.9687C112.396 57.7449 90.9493 62.5266 80.637 81.5299C74.8362 92.2179 70.9477 107.216 68.4269 121.197C65.9645 132.002 64.3461 143.21 63.3429 152.417C63.326 152.568 63.3097 152.719 63.294 152.87L46.4809 154.725C46.43 145.184 46.6075 135.815 47.2222 126.649C50.1098 101.435 56.9915 77.9591 72.2094 56.9178C93.2207 27.8774 126.204 21.6488 156.143 39.6205C174.498 50.6288 188.652 70.075 194.165 91.481C193.759 91.4039 193.335 91.3228 192.891 91.2373Z"
          fill="#DAE2EB"/>
    <path d="M93.1336 144.777L102.251 167.968V143.593L107.538 149.476V138.25C124.227 129.804 139.305 118.807 152.277 104.088C164.983 115.787 172.061 137.262 169.853 155.64C169.089 161.996 165.601 167.898 163.055 173.011C164.505 181.297 166.272 180.899 166.454 187.02C165.321 188.936 161.922 193.744 158.432 199.347C153.437 188.936 150.666 188.936 153.989 176.91C154.432 175.277 150.505 171.675 147.947 170.179C138.119 164.53 128.23 166.341 116.69 170.73C122.611 177.068 129.761 178.367 135.903 181.122C141.462 183.622 146.276 186.731 146.376 193.148C146.658 209.365 146.477 225.622 146.477 241.821C132.5 243.041 120.677 234.361 106.962 218.635C95.4418 205.449 98.9059 188.877 94.4147 175.729C83.539 172.029 83.539 181.122 74.7982 180.199C66.0574 179.276 64.7011 175.541 63.3517 173.671C72.8981 168.357 78.504 162.897 74.7982 151.285C81.0664 149.34 87.1846 147.186 93.1336 144.777Z"
          fill="#DAE2EB"/>
    <path d="M143.528 113.467C146.675 110.519 149.721 107.397 152.66 104.088C154.738 105.986 156.667 108.141 158.432 110.498C162.625 122.46 166.964 138.785 165.858 149.661C163.928 168.647 162.724 171.947 162.578 172.669C162.235 174.359 163.636 176.566 164.837 178.584C165.243 179.838 165.633 180.766 165.968 181.674C165.338 185.112 160.251 194.29 159.755 194.107C159.367 193.964 157.216 189.772 155.846 185.501C155.148 183.327 155.725 178.556 155.846 178.202C156.401 176.576 157.851 173.979 158.374 172.669C158.626 172.035 161.714 152.273 156.752 137.846C154.044 129.973 147.385 119.53 143.528 113.467Z"
          fill="white"/>
    <path d="M94.2967 176.621C83.4624 172.681 83.4624 182.363 74.7547 181.38C66.0471 180.397 64.6959 176.42 63.3517 174.429C64.1426 173.959 64.9063 173.487 65.6398 173.011C66.6562 174.822 67.9801 175.277 70.8129 176.076C77.8549 178.064 92.6975 168.356 94.2967 176.621Z"
          fill="white"/>
    <path d="M146.297 202.549C146.402 215.652 146.284 228.768 146.284 241.846C137.95 242.575 131.496 238.698 123.835 232.951C136.203 234.651 135.093 236.207 138.686 231.533C143.094 225.799 142.67 208.828 146.297 202.549Z"
          fill="white"/>
    <path d="M147.747 101.561C132.34 114.962 98.8968 132.974 77.6244 137.846C76.4825 130.867 80.0939 116.673 87.9186 107.336C90.1656 104.655 95.5488 97.2326 104.771 93.0322C110.218 90.5512 119.6 90.0178 123.447 90.022C133.806 90.0334 142.725 94.3291 147.747 101.561Z"
          fill="white"/>
    <path d="M140.714 106.502C123.777 119.118 96.0901 133.544 77.6233 137.846C76.9929 133.927 77.8189 127.76 80.0094 121.432C81.0656 119.653 82.236 117.954 83.5184 116.387C85.7897 113.611 91.231 105.927 100.553 101.578C106.059 99.0093 115.542 98.4571 119.43 98.4615C127.925 98.471 135.462 101.4 140.714 106.502V106.502Z"
          fill="#DAE2EB"/>
    <path fill-rule="evenodd" clip-rule="evenodd"
          d="M160.796 208.818L168.795 195.241C170.705 192.224 171.659 195.241 171.659 204.292C171.659 213.343 171.065 227.297 169.877 246.154L157.593 231.446L160.796 208.818Z"
          fill="#DAE2EB"/>
    <path fill-rule="evenodd" clip-rule="evenodd"
          d="M171.659 204.158C171.659 213.238 171.065 227.237 169.877 246.154L157.593 231.398L158.613 230.717L167.713 242.068C168.901 223.15 169.495 209.152 169.495 200.071C169.495 197.384 169.6 196.09 169.433 194.396C171.043 193.163 171.659 195.819 171.659 204.158Z"
          fill="white"/>
</svg>
