<svg width="256" height="256" viewBox="0 0 256 256" fill="none" xmlns="http://www.w3.org/2000/svg">
    <path fill-rule="evenodd" clip-rule="evenodd"
          d="M62.1897 209.925L109.532 246.876C114.214 250.531 120.446 251.358 125.884 249.048L181.002 225.625C186.44 223.314 190.259 218.215 191.023 212.246L198.745 151.895C199.511 145.911 197.089 139.963 192.395 136.299L145.053 99.3476C140.37 95.693 134.138 94.8655 128.7 97.1764L73.5827 120.599C68.1447 122.91 64.3255 128.009 63.5617 133.978L49.4956 193.419C48.7298 199.403 57.4952 206.261 62.1897 209.925Z"
          fill="black"/>
    <path fill-rule="evenodd" clip-rule="evenodd"
          d="M106.955 198.378C105.398 197.972 103.919 197.912 102.383 198.006C101.308 198.444 100.531 198.282 99.8472 197.7C99.23 197.175 98.8092 196.363 97.8784 196.102C97.8343 197.624 98.2847 197.594 97.6681 199.176C97.4517 199.731 99.331 201.18 99.5813 201.586C100.572 203.19 101.896 203.556 103.301 204.568C104.315 205.298 105.144 211.274 105.177 213.12C103.894 210.636 100.594 203.708 97.7915 203.313C97.6154 203.288 97.4073 203.149 97.3933 202.973C97.309 201.912 94.843 201.583 94.7686 200.506C94.5098 196.76 94.6452 195.58 91.8629 193.698C90.4792 192.762 90.691 191.384 88.9925 190.964C88.708 190.894 87.8066 189.329 87.3175 189.616C86.2815 190.223 86.3643 188.669 86.0169 187.877C85.262 186.156 82.9405 186.949 81.3027 186.241C79.8618 185.618 71.801 177.936 70.8314 176.694C72.3972 177.52 75.4089 178.186 76.9683 179.017C78.4786 179.821 86.4775 185.574 87.6496 186.875C87.1292 186.074 86.4759 183.789 85.6895 180.02L79.0668 172.797C75.0825 169.294 72.9106 167.353 72.5512 166.975C72.7911 167.021 75.7489 168.247 81.4247 170.65L88.3697 178.712L88.7936 185.104C89.5192 186.056 89.9563 186.635 90.1047 186.842C91.0945 188.223 91.1263 187.295 92.9641 187.582C95.9247 188.045 94.2953 190.498 96.6977 191.851C96.9934 192.017 99.3846 192.552 99.4091 192.974C99.5469 195.345 100.953 196.508 102.45 197.579C104.211 197.092 105.798 196.998 106.955 198.378ZM93.6309 157.144C92.8821 157.389 92.6578 156.75 92.1778 156.542C91.4463 156.07 90.7147 155.597 89.9835 155.125C89.8793 155.155 89.7752 155.186 89.671 155.217C89.185 154.9 88.8979 154.308 88.219 154.26C87.9072 154.464 87.7928 154.393 87.8817 154.039C87.7494 153.957 87.6169 153.874 87.484 153.792C86.8246 154.368 86.6817 154.017 86.6342 153.496C83.6023 151.919 77.8215 152.364 74.6505 150.983C73.2741 150.384 71.6585 149.948 70.7849 148.595C70.4723 148.111 69.9609 148.56 69.5765 148.57C69.2168 148.58 69.3752 149.105 69.3063 149.381C68.1414 154.045 69.5375 156.402 67.41 161.084C66.1579 163.839 66.4336 166.485 66.1081 169.167C65.5494 173.772 67.1945 177.217 67.3526 181.438C67.4352 183.644 70.9728 183.672 70.187 186.111L70.1368 186.484C70.0575 186.563 70.0083 186.653 69.9882 186.752C70.2961 187.203 69.9891 187.455 69.5019 187.648C69.4031 187.82 69.3038 187.992 69.2048 188.165C69.2826 188.322 69.2582 188.416 69.0445 188.394C67.4903 190.428 67.4264 192.402 67.3624 194.296C67.2882 196.487 67.9145 198.337 68.1518 200.38C68.2562 201.279 68.6526 202.081 68.0296 203.268C67.7667 203.769 68.1803 203.846 68.3647 204.045C72.2237 208.197 77.2544 210.576 82.953 211.952C86.7673 212.874 87.0373 215.85 91.049 216.343C91.3429 216.136 91.4284 216.441 91.6525 216.406L91.6782 216.486L91.7709 216.45C91.9118 216.329 91.9778 216.339 91.9455 216.518C92.0653 216.672 92.245 216.68 92.472 216.571C93.4379 215.841 95.4257 216.456 95.7314 217.58C95.8606 217.666 95.9899 217.752 96.1192 217.838C96.9617 217.459 97.4049 217.506 96.8098 218.658C97.0398 218.873 97.1414 219.319 97.6899 218.958C98.7515 218.319 98.9988 219.037 99.3105 219.647C100.863 220.947 102.757 221.759 104.518 222.754C106.579 223.919 109.379 232.983 111.764 233.652C114.126 234.315 116.758 234.026 119.519 233.377C120.111 233.238 120.376 232.929 120.58 232.29C121.881 228.212 121.991 216.383 122.468 212.437C122.586 211.461 122.395 210.515 121.546 210.338C120.675 210.157 120.321 209.557 120.372 208.617C120.502 206.245 119.669 204.908 117.714 204.428C116.063 204.023 112.235 202.172 111.924 200.161C113.391 200.536 113.903 201.929 114.996 202.833C115.386 201.383 115.745 200.049 116.126 198.635C117.111 199.12 116.858 200.305 116.77 201.374C116.651 202.824 119.367 204.794 121.045 204.91C121.392 204.935 121.376 205.34 121.401 205.702C121.46 206.567 121.66 207.355 122.142 207.915C122.524 208.359 123.068 208.332 123.465 207.448C125.189 203.604 124.514 199.442 124.795 195.503C124.395 195.332 124.374 195.018 124.824 194.528L124.769 193.929C123.265 192.425 122.291 190.398 121.008 188.674C120.775 188.361 120.6 187.989 120.592 187.442C121.907 188.745 123.221 190.048 124.761 191.575C125.089 187.184 125.616 183.029 122.788 180.871C119.932 178.691 116.671 177.095 113.386 175.542C113.062 175.389 112.818 175.109 112.537 174.887L112.587 174.961C112.439 175.008 112.291 175.055 112.143 175.102C110.644 175.972 112.323 177.482 110.889 178.549C109.037 179.924 107.018 182.418 105.153 182.26C103.3 182.102 101.26 182.567 99.2937 182.8C97.6501 182.995 95.9631 183.334 94.2279 184.473C93.1754 185.164 92.0903 186.2 91.0959 185.545C90.9908 185.476 90.6578 185.629 90.4753 185.777C89.387 186.66 89.4554 185.918 89.5127 185.186C89.5412 184.822 89.5763 184.455 89.6299 184.084C90.2563 179.769 92.2584 174.118 95.5311 170.4C98.0586 167.529 100.825 164.904 103.486 162.169C103.263 161.69 102.824 161.475 102.41 161.23C102.327 161.35 102.244 161.471 102.161 161.591C101.932 161.806 101.816 161.77 101.791 161.53C101.465 161.314 101.139 161.098 100.813 160.882C99.9277 161.366 99.6927 161.223 99.8924 160.323C99.1373 160.278 98.7662 159.626 98.0935 159.45C97.2109 160.087 97.0709 159.454 96.8511 158.957C96.5524 158.756 96.2542 158.555 95.9559 158.354C95.7682 158.49 95.6846 158.483 95.7787 158.233C95.6508 158.157 95.5226 158.082 95.3947 158.006C95.2699 158.186 95.1145 158.339 94.9706 158.255C94.8214 158.167 94.9196 157.973 95.0464 157.796C94.9135 157.711 94.7806 157.624 94.6479 157.538C94.5419 157.568 94.4365 157.598 94.3307 157.628C94.0978 157.466 93.8642 157.305 93.6309 157.144Z"
          fill="#DAE2EB"/>
    <path fill-rule="evenodd" clip-rule="evenodd"
          d="M78.4861 134.597L118.512 167.077C121.716 169.677 126.94 170.612 130.18 169.165L177.411 148.079C180.651 146.633 180.681 143.352 177.477 140.753L137.451 108.272C134.248 105.673 129.024 104.738 125.783 106.184L78.5524 127.27C75.3121 128.717 75.2824 131.997 78.4861 134.597Z"
          fill="white"/>
    <path fill-rule="evenodd" clip-rule="evenodd"
          d="M124.166 229.035L130.917 175.682C131.457 171.412 134.516 166.78 137.749 165.337L184.873 144.306C188.106 142.863 190.289 145.155 189.749 149.426L182.998 202.778C182.458 207.049 179.399 211.68 176.166 213.123L129.041 234.155C125.808 235.597 123.626 233.305 124.166 229.035Z"
          fill="#DAE2EB"/>
    <path fill-rule="evenodd" clip-rule="evenodd"
          d="M99.7245 214.88C94.0387 210.628 87.9564 207.087 81.8429 203.764C74.8437 199.957 72.4619 193.237 68.949 186.545C77.4229 186.887 96.9393 204.86 99.7245 214.88Z"
          fill="white"/>
    <path fill-rule="evenodd" clip-rule="evenodd"
          d="M59.7832 188.584C60.7062 188.072 64.5265 187.738 65.4531 187.842C66.9407 188.01 68.908 187.5 69.7784 188.507C70.5639 189.417 70.2461 191.289 70.4006 192.738C70.5943 194.556 70.8168 196.372 70.9395 198.195C70.9974 199.059 71.2496 199.367 72.1548 199.217C73.0227 199.072 73.9227 199.139 74.8059 199.071C76.15 198.969 77.2967 199.242 78.5574 199.915C82.8287 202.193 87.5385 203.423 92.0842 205.032C100.452 207.993 114.447 211.742 122.451 215.598C126.394 217.439 130.462 219.056 134.248 221.178C139.148 223.925 142.701 238.454 142.792 238.929C142.972 239.885 127.601 248.703 125.379 249.6C122.722 250.673 69.5602 235.55 65.5015 235.21C63.6597 235.056 61.8396 234.653 60.0595 234.371C59.7887 232.622 59.83 232.536 58.7437 233.427C57.8072 234.194 56.9344 235.065 56.1519 235.99C53.9096 238.642 51.0866 239.176 47.9306 238.287C46.0927 237.769 41.0461 235.496 40.2683 236.458C38.2162 233.035 37.767 229.212 37.7533 225.397C37.7375 220.911 36.9795 216.264 37.3033 211.792C37.394 210.542 37.5521 205.893 39.4377 203.547C41.4039 201.099 54.7166 191.392 59.7832 188.584Z"
          fill="black"/>
    <path fill-rule="evenodd" clip-rule="evenodd"
          d="M60.0928 192.186C61.14 197.135 61.877 202.182 61.0526 207.154C60.2095 212.238 57.485 216.637 54.2443 220.603C51.2613 224.254 47.3935 226.943 43.6381 229.733C42.8125 227.784 43.1332 225.689 42.9276 223.672C42.5244 219.706 42.2885 215.713 42.2284 211.728C42.1806 208.551 43.1305 205.725 45.7314 203.525C50.3932 199.582 55.1264 195.74 60.0928 192.186Z"
          fill="#DAE2EB"/>
    <path fill-rule="evenodd" clip-rule="evenodd"
          d="M44.6356 234.628C51.304 230.222 56.0777 224.414 60.2901 218.099C61.1996 216.736 61.9285 216.659 63.2325 217.248C66.1456 218.563 66.128 218.448 64.11 221.293C60.4 226.524 55.4361 230.558 51.2397 235.321C50.7734 235.851 50.2862 235.739 49.7431 235.627C48.1653 235.3 46.579 235.005 44.6356 234.628Z"
          fill="#DAE2EB"/>
    <path fill-rule="evenodd" clip-rule="evenodd"
          d="M62.1954 192.117C63.6963 192.712 65.0747 193.283 66.4714 193.798C66.9608 193.978 67.1304 194.28 67.1531 194.718C67.3856 199.225 68.5436 203.731 68.1115 208.239C68.0516 208.864 67.9522 209.485 67.8278 210.097C67.2373 213.009 66.4958 213.417 63.5333 212.645C63.0135 212.509 62.9584 212.271 63.0179 211.927C64.1439 205.41 62.5462 198.812 62.1954 192.117Z"
          fill="#DAE2EB"/>
    <path fill-rule="evenodd" clip-rule="evenodd"
          d="M74.8748 205.042C79.6337 208.248 84.9277 209.634 90.0146 211.512C94.0389 212.997 98.0951 214.395 102.132 215.845C109.104 218.35 116.089 220.818 123.029 223.408C124.881 224.099 126.594 225.171 128.362 226.088C128.562 226.191 128.752 226.392 128.853 226.594C130.207 229.289 131.657 231.943 132.659 234.796C132.817 235.246 133.258 235.86 132.862 236.175C132.476 236.482 131.822 236.376 131.235 236.174C128.516 235.237 125.78 234.352 123.041 233.475C107.474 228.494 91.4229 225.725 75.4514 222.592C74.956 222.495 74.4605 222.339 73.9625 222.324C72.7691 222.287 72.3915 221.862 72.5953 220.591C73.4077 215.519 74.0969 210.427 74.8748 205.042Z"
          fill="white"/>
    <path fill-rule="evenodd" clip-rule="evenodd"
          d="M133.093 236.238C128.1 238.467 125.303 240.524 120.577 242.658C120.056 242.893 108.675 240.32 108.227 240.109C98.6259 235.596 88.2392 234.249 77.8996 232.69C73.4289 232.017 68.979 231.211 64.2728 230.424C66.7298 227.867 69.1891 225.56 71.3336 222.99C72.8639 221.156 74.3785 221.08 76.52 221.594C87.8467 224.313 99.3362 226.359 110.514 229.696C114.947 231.019 119.378 232.349 124.057 233.749L133.093 236.238Z"
          fill="#B5C1C9"/>
    <path fill-rule="evenodd" clip-rule="evenodd"
          d="M152.403 79.851C156.859 76.3068 162.135 73.9824 167.181 71.3318C168.256 70.767 169.436 71.0397 170.587 71.1698C171.562 71.2799 172.816 72.0113 173.395 70.758C173.982 69.4845 175.128 68.1446 174.087 66.6396C173.796 66.2189 173.659 65.8971 173.73 65.4178C175.161 55.7919 171.138 47.5627 166.337 39.6763C160.286 29.7364 153.133 20.544 144.986 12.0526C140.467 7.3426 134.904 4.73289 128.581 3.04722C125.727 2.28666 123.211 0.446112 120.098 0.274976C119.912 0.264787 119.675 0.07697 119.557 0.138691C117.59 1.17437 115.73 0.458883 113.752 0.0898085C111.205 -0.386023 110.017 1.07612 109.02 3.35919C105.6 11.1819 100.606 18.0094 93.7238 23.4611C92.4895 24.4386 90.2339 23.6995 89.6048 22.1424C88.4289 19.2287 87.3406 16.2815 86.1212 13.1003C84.6456 14.7391 83.0365 14.4909 81.1493 13.9427C78.2348 13.0944 75.3515 13.144 72.6187 15.0297C68.7888 17.6726 64.7982 20.0788 62.0443 23.9076C60.7163 25.754 61.876 31.1088 63.9387 32.0372C69.2542 34.4312 69.5227 34.6998 73.738 39.1738C74.868 40.3726 74.7021 40.9262 73.4977 42.0065C63.8926 50.6237 52.8314 57.1589 41.266 62.9668C39.8488 63.6784 39.3296 64.3978 39.2209 65.8878C39.0528 68.1934 39.795 71.4809 41.8316 76.6074C44.325 82.8837 48.3201 91.0368 49.5398 92.6411C53.9067 98.3855 58.4766 103.909 64.5348 108.123C73.4362 114.313 89.7523 123.104 100.628 125.864C102.14 126.248 105.777 123.548 110.37 119.314C110.392 119.617 110.435 119.962 110.506 120.365C110.961 119.366 111.454 118.527 111.976 117.809C112.909 116.922 113.872 115.983 114.858 115.005C118.214 112.667 121.992 112.133 124.536 106.548C127.49 112.239 133.707 114.032 136.484 119.314C137.631 121.496 137.258 123.529 138.411 125.708C140.749 130.127 144.671 134.662 147.438 138.859C148.305 140.173 149.057 141.53 150.623 142.303C151.932 142.95 151.131 144.507 151.935 145.577C156.17 151.214 160.227 156.973 164.338 162.695C167.501 167.099 170.673 171.476 175.236 174.743C176.381 175.563 176.137 173.926 177.559 174.388C181.158 175.559 193.419 179.576 191.877 172.857C199.338 171.974 202.754 169.8 210.018 167.807C213.051 166.975 213.548 166.221 215.171 163.467C216.45 161.294 216.655 160.222 218.821 159.572C218.37 157.786 216.91 156.685 215.871 155.35C205.027 141.418 191.075 130.622 177.021 119.897C173.609 117.293 155.741 90.2671 147.67 81.7056C149.403 81.4311 150.942 81.0134 152.403 79.851Z"
          fill="black"/>
    <path fill-rule="evenodd" clip-rule="evenodd"
          d="M182.842 158.007C186.92 156.824 191.044 156.283 195.132 155.908C199.814 155.477 202.697 151.432 206.183 147.781C201.53 145.237 186.727 151.725 182.842 158.007Z"
          fill="white"/>
    <path fill-rule="evenodd" clip-rule="evenodd"
          d="M142.502 87.8647L142.513 87.9208C141.555 88.444 141.781 87.6851 141.701 87.2557C139.773 85.0387 137.696 82.9193 136.52 80.2049C133.551 81.1765 130.831 82.6092 128.226 84.2546C126.188 85.5416 125.361 87.3686 126.06 89.5188C128.562 97.2121 131.712 104.637 139.039 109.421C151.438 117.517 161.023 128.445 171.994 137.974C174.22 139.908 179.078 148.706 184.866 151.014C190.184 153.135 196.507 148.863 197.531 148.691C199.805 148.308 202.102 148.054 204.814 147.687C200.163 143.937 195.787 140.371 191.368 136.855C183.057 130.242 175.357 123.039 168.137 115.38C167.13 114.311 165.284 114.203 164.829 112.606C164.629 112.454 164.43 112.301 164.231 112.149L164.329 112.203C163.368 111.86 162.764 111.236 162.619 110.252L162.649 110.274C161.812 110.452 161.464 109.975 161.233 109.34C161.233 109.34 161.331 109.416 161.331 109.415C160.056 108.53 158.835 107.6 157.663 106.627C156.263 105.464 154.934 104.24 153.669 102.962C150.545 99.8037 147.817 96.3105 145.384 92.5669C144.315 91.0599 141.968 90.2605 142.502 87.8647Z"
          fill="#DAE2EB"/>
    <path fill-rule="evenodd" clip-rule="evenodd"
          d="M109.545 209.471C109.339 210.419 110.389 210.482 112.45 209.828C111.921 209.398 110.792 209.393 109.545 209.471Z"
          fill="white"/>
    <path fill-rule="evenodd" clip-rule="evenodd"
          d="M56.5537 87.2957C53.7038 89.9093 53.6417 89.9366 56.0758 92.7574C62.3392 100.015 64.0364 105.846 72.2054 110.997C73.7751 111.987 74.5699 112.278 75.7248 110.173C82.7913 97.3029 92.4965 86.4898 102.893 76.2356C110.975 68.2651 118.964 60.2017 127.055 52.241C128.353 50.9645 128.537 50.1024 127.439 48.4955C122.304 40.9835 118.57 32.7264 115.247 24.299C114.471 22.3276 114.016 20.2324 113.201 18.2216C112.197 15.741 111.573 16.8226 110.5 17.9552C107.141 21.4978 103.581 24.8637 100.387 28.5466C88.1292 42.6828 78.2252 51.6819 62.5692 61.6177C57.9026 64.5786 53.8304 71.4937 48.0567 71.2249C45.9824 71.1287 44.7989 72.3633 45.3746 74.6359C46.6516 79.6836 48.5464 82.149 51.3014 86.5061C52.3016 88.0884 52.8821 86.6241 53.4308 86.1842C60.6739 80.3745 67.8761 74.5135 75.1001 68.6804C75.8245 68.0949 76.6219 67.6008 77.3856 67.0647C78.0706 66.2281 78.6865 65.2584 80.3034 65.7118C79.4726 66.3823 78.7843 66.9377 78.0965 67.4925C70.9165 74.0943 63.742 80.7024 56.5537 87.2957Z"
          fill="#DAE2EB"/>
    <path fill-rule="evenodd" clip-rule="evenodd"
          d="M77.9007 106.455C78.3643 108.538 78.5012 110.703 78.9953 112.83C79.6041 115.453 80.3584 114.445 81.5518 113.443C85.2867 110.309 89.1892 107.378 92.7851 104.082C106.587 91.4293 117.391 83.643 133.855 75.6496C138.762 73.2677 143.665 66.8324 149.173 67.8406C151.152 68.2025 152.466 67.1119 152.239 64.7524C151.735 59.5118 140.146 51.8714 132.37 56.8155C131.591 57.3119 130.743 49.1275 129.933 49.5692C129.155 50.3231 118.893 69.9278 117.405 69.2652C118.299 68.6969 119.04 68.2261 119.78 67.756C127.624 62.033 75.9162 97.5539 77.9007 106.455Z"
          fill="#DAE2EB"/>
    <path fill-rule="evenodd" clip-rule="evenodd"
          d="M113.233 24.9678C112.475 22.8593 112.027 20.6201 111.232 18.4695C110.252 15.8165 109.655 16.9691 108.624 18.1745C105.396 21.9447 101.974 25.5255 98.9066 29.4462C87.1347 44.4951 77.6127 54.0671 62.5423 64.6172C58.0502 67.761 54.149 75.1302 48.5742 74.8207C46.5714 74.7099 45.4343 76.0237 45.9998 78.453C47.2543 83.8486 116.478 33.9806 113.233 24.9678Z"
          fill="white"/>
    <path fill-rule="evenodd" clip-rule="evenodd"
          d="M72.6911 32.775C72.5974 32.7554 72.4882 32.7597 72.4122 32.7128C66.7107 29.1911 66.1488 29.3506 62.4072 35.8275C64.7864 35.2539 65.678 36.9658 66.8085 38.3202C67.7918 39.4983 68.7732 40.6786 69.7664 41.8479C73.0052 45.6617 73.0072 45.6601 76.8295 42.5242C84.7556 36.0216 84.8327 35.5907 80.2854 26.3457C79.8877 25.5361 79.538 25.086 78.6047 25.223C77.5636 25.3754 76.4705 25.3033 75.4739 25.5931C70.1592 27.1397 69.8621 28.0404 73.1313 32.2355C73.3892 32.4978 73.6874 32.7764 73.3011 33.1254C73.2464 33.1755 72.9021 32.8998 72.6911 32.775Z"
          fill="#DAE2EB"/>
    <path fill-rule="evenodd" clip-rule="evenodd"
          d="M158.961 59.0419C152.545 51.3877 147.174 43.2216 142.124 35.0189C136.34 25.6276 126.336 22.3137 116.351 17.4962C117.033 28.7732 144.061 55.1197 158.961 59.0419Z"
          fill="white"/>
    <path fill-rule="evenodd" clip-rule="evenodd"
          d="M140.322 114.682C140.161 114.426 140 114.17 139.84 113.915C139.799 113.977 139.719 114.04 139.726 114.102C139.765 114.455 139.896 114.739 140.234 114.814C140.234 114.814 140.322 114.682 140.322 114.682Z"
          fill="#B5C1C9"/>
</svg>
