<svg width="256" height="256" viewBox="0 0 256 256" fill="none" xmlns="http://www.w3.org/2000/svg">
    <path fill-rule="evenodd" clip-rule="evenodd"
          d="M55.0188 79.8366C58.0598 79.8366 75.1276 77.5877 83.5063 74.7766C80.7134 104.012 59.4874 210.836 68.4247 235.012C74.1606 251.148 86.6249 257.173 99.705 255.814C119.187 253.79 151.935 252.638 180.14 249.068C193.707 247.35 207.51 247.35 215.889 242.321C229.94 233.887 224.666 210.03 215.889 193.969C212.689 188.113 210.36 189.471 202.483 189.471C202.483 173.729 207.638 150.515 210.36 127.414C214.062 96.0052 215.889 57.3818 215.889 45.5406C215.889 24.9899 206.836 0 195.78 0C159.473 0 72.5532 5.6223 58.9289 5.6223C41.1905 5.6223 31 22.7015 31 42.7295C31 62.7574 37.2804 79.8366 55.0188 79.8366Z"
          fill="black"/>
    <path fill-rule="evenodd" clip-rule="evenodd"
          d="M75.748 13.2565L192.488 9.36572C201.382 16.1591 205.829 35.2424 205.829 66.6156C205.829 97.9888 201.382 138.749 192.488 188.897C132.114 191.942 99.1308 193.911 93.5369 194.804C87.9431 195.696 82.9232 199.792 78.477 207.089C83.935 165.731 88.955 130.95 93.5369 102.744C96.2027 86.3346 96.9158 56.3777 93.5369 39.3802C91.2844 28.0485 85.3547 19.3406 75.748 13.2565Z"
          fill="#DAE2EB"/>
    <path fill-rule="evenodd" clip-rule="evenodd"
          d="M108.552 61.9587C142.606 57.1189 165.394 54.715 176.917 54.7469C194.202 54.7948 195.191 55.5439 174.735 59.9671C154.28 64.3902 142.268 64.7421 124.361 65.281C112.424 65.6402 107.154 64.5328 108.552 61.9587Z"
          fill="black"/>
    <path fill-rule="evenodd" clip-rule="evenodd"
          d="M100.377 38.9258C90.3594 26.01 82.1496 17.4811 75.748 13.339L192.436 9.36572C197.863 13.601 201.634 22.5139 203.748 36.1043C141.513 46.5959 107.056 47.5364 100.377 38.9258Z"
          fill="white"/>
    <path fill-rule="evenodd" clip-rule="evenodd"
          d="M72.098 24.9756C74.463 27.1774 83.4976 32.9421 83.4976 46.8234C83.4976 53.8027 81.8541 63.2611 80.46 69.5115C64.0101 72.6244 51.4783 75.3874 50.0842 73.1151C55.528 71.7501 59.5781 68.5882 62.2345 63.6294C64.3355 59.7075 67.3046 51.5068 66.7909 42.6219C66.1301 31.1907 59.3978 27.9649 58.0426 26.6249L72.098 24.9756Z"
          fill="white"/>
    <path fill-rule="evenodd" clip-rule="evenodd"
          d="M80.5359 69.5655C64.0449 72.6407 51.4818 75.3702 50.0842 73.1253C55.5416 71.7769 59.6019 68.6534 62.2649 63.7547C63.4271 61.6169 65.8576 56.0351 71.894 52.1332C75.9183 49.5319 79.7861 48.8308 83.4976 50.0299C83.1459 56.4843 81.747 64.2148 80.5359 69.5655Z"
          fill="#DAE2EB"/>
    <path fill-rule="evenodd" clip-rule="evenodd"
          d="M53.7825 32.2305C56.7355 35.4525 58.212 39.7225 58.212 45.0403C58.212 46.3012 58.1693 47.5267 58.0867 48.7123L45.7415 50.3687C45.6139 49.8173 45.4276 46.7655 45.7415 44.3226C46.0059 42.2649 46.9789 38.064 49.2876 35.3678C51.1593 33.1819 53.5317 32.2356 53.7825 32.2305Z"
          fill="#DAE2EB"/>
    <path fill-rule="evenodd" clip-rule="evenodd"
          d="M203.471 194.403C205.477 194.358 208.56 198.774 210.82 206.152C214.421 217.907 208.329 223.496 201.621 226.958C185.013 229.364 132.078 235.844 130.861 233.402C109.536 239.796 100.382 240.475 103.398 235.438C105.784 231.454 105.109 229.211 105.265 219.917C105.465 207.959 99.0058 204.251 97.7573 202.784L203.471 194.403Z"
          fill="white"/>
    <path fill-rule="evenodd" clip-rule="evenodd"
          d="M213.061 227.629C209.767 239.093 151.827 238.821 136.302 240.718C120.778 242.614 96.1918 246.508 99.2105 241.538C100.528 239.369 103.366 233.675 109.668 229.916C113.726 227.495 149.512 215.31 177.472 211.853C196.111 209.549 206.348 205.538 208.183 199.821C216.771 210.984 213.08 224.121 213.061 227.629Z"
          fill="#DAE2EB"/>
    <path fill-rule="evenodd" clip-rule="evenodd"
          d="M92.015 209.411C94.1259 212.454 95.0139 216.394 94.679 221.23C94.5996 222.377 94.489 223.49 94.3496 224.565L84.5725 225.601C84.5072 225.095 84.5534 222.312 84.9532 220.103C85.29 218.241 86.3169 214.458 88.2956 212.094C89.8997 210.177 91.8182 209.406 92.015 209.411Z"
          fill="#DAE2EB"/>
    <path fill-rule="evenodd" clip-rule="evenodd"
          d="M108.552 61.9587C142.606 57.1189 165.394 54.715 176.917 54.7469C194.202 54.7948 195.191 55.5439 174.735 59.9671C154.28 64.3902 142.268 64.7421 124.361 65.281C112.424 65.6402 107.154 64.5328 108.552 61.9587Z"
          fill="black"/>
    <path fill-rule="evenodd" clip-rule="evenodd"
          d="M108.232 103.906C136.779 99.6477 155.895 97.6311 165.583 97.8566C180.115 98.1949 180.958 98.9594 163.836 103.031C146.714 107.102 136.622 107.252 121.578 107.489C111.548 107.647 107.1 106.453 108.232 103.906Z"
          fill="black"/>
    <path fill-rule="evenodd" clip-rule="evenodd"
          d="M190.102 125.257C154.683 129.613 130.999 131.693 119.049 131.496C101.124 131.202 100.115 130.439 121.423 126.306C142.731 122.174 155.196 121.993 173.778 121.709C186.166 121.52 191.607 122.703 190.102 125.257Z"
          fill="black"/>
    <path fill-rule="evenodd" clip-rule="evenodd"
          d="M108.139 82.6266C126.12 79.4822 138.194 78.2086 144.36 78.8056C153.61 79.7012 154.175 80.495 143.447 83.8919C132.72 87.2888 126.311 87.0497 116.758 86.7073C110.389 86.4791 107.516 85.1189 108.139 82.6266Z"
          fill="black"/>
    <path fill-rule="evenodd" clip-rule="evenodd"
          d="M78.3542 183.001C81.4605 183.13 83.6915 183.03 85.0473 182.701C87.7939 182.035 90.9141 182.315 89.2857 181.577C88.4623 181.203 84.7751 180.017 82.5685 179.441C81.9447 179.278 81.353 179.134 80.7889 179.009C84.281 178.695 87.9615 178.184 92.2773 177.35C103.359 175.21 102.659 174.778 92.6451 174.483C90.6394 174.424 88.0828 174.472 84.9753 174.625C86.0384 174.167 87.137 173.623 88.2921 172.974C90.5877 171.684 94.1137 169.244 94.7502 168.56C96.0093 167.208 92.0195 168.347 87.2391 168.182C84.832 168.098 81.4775 168.547 77.1756 169.529L78.3542 183.001Z"
          fill="black"/>
    <path fill-rule="evenodd" clip-rule="evenodd"
          d="M203.514 22.1576C200.213 23.0007 197.793 23.3996 196.254 23.3544C193.097 23.2616 189.751 24.2969 191.359 23.1047C192.172 22.502 195.926 20.3373 198.203 19.1887C198.847 18.864 199.461 18.5683 200.048 18.2986C196.157 18.7669 192.015 19.0627 187.103 19.1507C174.489 19.3768 175.154 18.7384 186.032 16.0809C188.211 15.5486 191.016 15.0051 194.449 14.4503C193.18 14.1938 191.852 13.8506 190.438 13.4057C187.628 12.5214 183.204 10.6575 182.349 10.0535C180.657 8.85871 185.284 9.18218 190.472 7.88642C193.06 7.2398 196.788 6.95165 201.655 7.02196L203.514 22.1576Z"
          fill="black"/>
</svg>
