<svg width="256" height="256" viewBox="0 0 256 256" fill="none" xmlns="http://www.w3.org/2000/svg">
    <path fill-rule="evenodd" clip-rule="evenodd"
          d="M0 178.098C33.436 200.515 59.492 194.008 78.1679 158.577C96.8439 123.146 122.466 109.046 155.033 116.277V105.185C142.046 82.6155 116.848 75.4266 79.4376 83.6187C42.0275 91.8109 15.5483 84.4379 0 61.4999V178.098Z"
          fill="black"/>
    <path fill-rule="evenodd" clip-rule="evenodd"
          d="M9.11963 166.699C37.4549 185.194 59.7858 179.825 76.1123 150.593C92.4388 121.36 113.969 106.036 140.702 104.619V95.4682C129.349 89.0866 107.321 89.2753 74.6166 96.0342C41.9126 102.793 20.0803 99.0985 9.11963 84.9505V166.699Z"
          fill="white"/>
    <path d="M79.7944 67.5182C73.7982 62.5294 64.4591 62.2909 56.1147 66.0195C47.4397 69.8958 40.8681 77.5171 38.7589 87.3691C36.8272 96.3924 33.4422 103.102 30.287 105.804C28.6965 106.592 27.3492 107.572 26.2642 108.854C24.6621 110.747 23.8571 113.102 24.033 115.551C17.1903 125.281 13.2731 138.609 13.6511 150.671C12.2669 151.403 11.05 152.386 10.0531 153.651C8.0302 156.219 7.44891 159.356 8.03101 162.52C8.44793 164.787 9.44628 167.037 10.914 169.308C13.3758 173.118 17.2746 177.118 22.0036 180.783C26.7327 184.447 31.59 187.23 35.9132 188.678C38.4907 189.54 40.9333 189.957 43.2519 189.81C46.489 189.604 49.4169 188.286 51.4399 185.718C52.4368 184.453 53.1045 183.044 53.4855 181.535C66.215 178.801 79.1734 170.981 86.931 161.134C95.1331 150.723 97.9152 137.267 92.202 124.077C92.2191 124.041 92.2381 124.004 92.2589 123.966C92.383 123.737 92.5511 123.505 92.7177 123.323C94.262 122.67 96.0092 122.22 97.9608 121.942C99.6403 121.703 101.029 121.62 103.53 121.556C104.95 121.519 105.401 121.502 106.064 121.442C106.701 121.383 107.275 121.296 107.892 121.134C109.437 120.726 110.804 120.035 112.044 118.46C113.546 116.555 114.136 114.277 113.967 111.977C113.85 110.399 113.393 108.892 112.676 107.377C111.653 105.215 110.05 102.952 107.934 100.516C104.507 96.5687 99.6413 92.1123 94.809 88.3682C92.3222 86.4414 89.8019 84.7589 87.3412 83.3857C87.9831 78.0782 85.5942 72.3437 79.7944 67.5182Z"
          fill="black"/>
    <path fill-rule="evenodd" clip-rule="evenodd"
          d="M106.178 114.075C102.656 113.073 96.9286 109.523 90.8508 104.636C82.0876 97.5899 76.213 90.6744 77.9618 88.5302C78.4464 87.936 79.4136 87.8342 80.7452 88.1474C79.7335 87.6964 78.7623 87.3295 77.8464 87.0548C80.5265 84.1081 81.9931 78.8013 75.0335 73.0038C67.7847 66.9654 49.2091 72.534 45.7181 88.8609C43.2255 100.518 38.6279 108.545 34.0284 111.924C31.8944 112.831 30.9465 113.953 31.1846 115.289C31.2976 115.922 31.6373 116.378 32.2038 116.656C31.8299 117.085 31.4728 117.516 31.1325 117.949C23.373 127.81 19.1259 143.574 21.3811 156.095C18.7525 156.094 16.688 156.765 15.6895 158.034C13.0408 161.401 18.1008 168.71 26.382 175.134C34.6633 181.558 43.0298 184.665 45.6785 181.299C46.3101 180.496 45.4207 178.912 43.0103 176.545C41.2978 174.916 38.6019 172.684 34.9223 169.851C29.403 165.602 27.4467 163.216 25.5755 159.784C31.1846 165.835 42.6116 167.232 53.7985 166.727C73.5736 165.835 80.7655 157.166 81.1142 156.723C86.5824 149.773 90.7439 138.682 85.2478 126.464C83.4394 122.444 87.1695 117.923 89.0855 117.04C96.8247 113.475 105.438 114.895 106.178 114.075ZM67.1333 87.2077C68.0827 88.1476 69.2218 88.7835 70.4254 89.1147C69.9057 90.9625 69.2574 94.509 68.1287 100.464C67.7393 102.519 64.2428 107.183 59.8692 106.394C53.3868 105.224 47.733 106.203 43.0103 108.315C45.8347 103.733 48.2251 97.5397 50.2279 89.7342C52.048 82.6405 57.8446 78.8981 60.7968 77.7229C63.7489 76.5478 69.1211 75.5796 72.6748 77.7229C74.9886 79.1185 75.295 82.4491 73.527 83.8773C71.6596 85.3858 67.731 83.8773 68.1287 81.9383C68.1863 81.6572 68.3696 81.1152 68.6824 80.9335C68.605 81.2572 68.7373 81.7409 69.0793 82.3845C70.5842 83.0212 71.5899 83.1349 72.0964 82.7257C73.0938 81.92 73.0995 80.2771 71.7089 79.5079C69.9281 78.523 67.8473 78.6877 65.6187 78.8981C64.3436 81.6067 64.852 84.9492 67.1333 87.2077Z"
          fill="#DAE2EB"/>
    <path d="M55.9091 126.148C58.7467 122.976 56.4177 119.552 52.4455 117.755C50.3694 116.845 48.2483 116.464 46.6732 117.893C45.5607 118.64 45.1498 120.055 45.705 121.229C46.4237 122.995 47.9681 124.3 49.8628 124.741C50.3245 124.917 50.8341 124.948 51.322 124.83C50.3219 123.894 49.4677 122.819 48.7853 121.637C48.0208 119.971 48.8889 118.78 50.8382 118.931C52.7693 119.172 54.3963 120.41 55.1034 122.175C55.4523 123.009 55.4252 123.955 55.0284 124.786C54.6317 125.616 53.9018 126.254 53.0159 126.545C50.4658 127.272 47.7443 126.69 45.7896 125C43.7417 123.57 42.8529 121.019 43.5632 118.61C44.0142 116.958 45.6367 113.816 50.6316 114.94C53.8126 115.423 58.6654 119.567 59.4799 122.317C60.1718 124.777 59.6708 126.778 57.5359 128.167C56.1719 128.879 54.6613 129.263 53.1311 129.288C52.5965 129.307 52.0622 129.289 51.5323 129.232C51.5219 129.172 51.5046 129.114 51.4808 129.058C53.1764 128.466 54.7005 127.464 55.9091 126.148Z"
          fill="black"/>
    <path d="M59.0068 132.435C56.2826 135.469 58.5183 138.744 62.3314 140.462C64.3244 141.333 66.3606 141.697 67.8727 140.329C68.9407 139.615 69.3352 138.261 68.8023 137.139C68.1124 135.449 66.6298 134.202 64.811 133.78C64.3678 133.612 63.8785 133.582 63.4102 133.695C64.3702 134.59 65.1902 135.619 65.8452 136.748C66.5791 138.342 65.7457 139.482 63.8745 139.337C62.0207 139.107 60.4588 137.923 59.7801 136.235C59.4451 135.438 59.4713 134.532 59.8521 133.738C60.2329 132.944 60.9337 132.333 61.7841 132.055C64.2322 131.36 66.8447 131.916 68.7211 133.532C70.687 134.9 71.5402 137.339 70.8582 139.643C70.4252 141.224 68.8675 144.229 64.0726 143.155C61.019 142.693 56.3606 138.73 55.5788 136.1C54.9147 133.746 55.3957 131.833 57.4451 130.504C58.7545 129.823 60.2047 129.455 61.6737 129.431C62.1868 129.413 62.6998 129.43 63.2084 129.485C63.2184 129.542 63.235 129.598 63.2579 129.651C61.6301 130.217 60.167 131.176 59.0068 132.435Z"
          fill="black"/>
    <path d="M80.8966 154.007C84.1561 151.257 82.5383 147.349 79.0696 144.819C77.2516 143.526 75.2978 142.767 73.5466 143.955C72.356 144.524 71.7162 145.901 72.0391 147.198C72.4139 149.13 73.6563 150.733 75.3838 151.514C75.7927 151.775 76.2726 151.896 76.7581 151.86C75.9698 150.728 75.3446 149.479 74.9018 148.152C74.4659 146.315 75.5019 145.247 77.3321 145.742C79.1294 146.325 80.4621 147.874 80.826 149.803C81.0122 150.716 80.8202 151.68 80.2967 152.46C79.7731 153.24 78.9659 153.766 78.071 153.908C75.5142 154.208 73.0238 153.139 71.4582 151.069C69.7583 149.25 69.3591 146.486 70.4583 144.146C71.1778 142.535 73.2747 139.604 77.8356 141.624C80.781 142.672 84.6768 147.756 84.9702 150.711C85.1976 153.348 84.3693 155.307 82.092 156.356C80.6679 156.846 79.1615 156.975 77.6994 156.734C77.1868 156.661 76.681 156.549 76.1862 156.399C76.1868 156.336 76.1806 156.273 76.1677 156.212C77.8867 155.902 79.5143 155.143 80.8966 154.007Z"
          fill="black"/>
    <path fill-rule="evenodd" clip-rule="evenodd"
          d="M98.5768 101.188C97.6313 100.336 96.6379 99.4795 95.6092 98.6298C91.7785 95.4658 87.9523 92.8122 84.9045 91.1729C83.4576 90.3946 82.2414 89.8764 81.3501 89.6511C80.6305 89.4691 80.2561 89.5028 80.1642 89.6186C80.0722 89.7344 80.1177 90.115 80.4419 90.7951C80.8433 91.6374 81.593 92.7431 82.6402 94.0248C84.846 96.7248 86.6108 98.024 90.4415 101.188C94.2721 104.352 93.955 101.227 97.0029 102.867C98.4498 103.645 102.667 105.281 98.5768 101.188Z"
          fill="white"/>
    <path fill-rule="evenodd" clip-rule="evenodd"
          d="M87.222 126.35C85.4439 122.229 88.8734 120.85 90.7572 119.945C92.9446 118.894 101.447 115.209 103.573 114.827C82.361 113.405 74.9799 105.219 72.6391 108.555C70.3269 111.85 80.5934 116.742 86.0271 128.607C85.8463 128.127 87.4305 126.834 87.222 126.35Z"
          fill="black"/>
    <path fill-rule="evenodd" clip-rule="evenodd"
          d="M20.6998 157.269C11.7093 157.694 20.8016 169.29 27.4416 174.193C35.7245 180.309 44.0928 183.267 46.742 180.062C47.3738 179.298 46.5856 182.252 35.5341 175.112C24.4826 167.971 19.9025 163.216 20.6998 157.269Z"
          fill="white"/>
    <path fill-rule="evenodd" clip-rule="evenodd"
          d="M72.8215 120.202C64.3443 106.61 44.0131 108.191 36.0666 118.323C26.1541 130.963 26.2108 138.993 23.7652 149.743C23.6426 150.282 25.6875 154.832 26.6206 153.006C27.9847 150.337 29.182 139.706 35.9917 129.746C47.4593 112.974 62.5033 119.575 72.8215 120.202Z"
          fill="white"/>
    <path d="M82.377 87.2541C80.863 86.792 81.334 85.3411 79.8974 85.0123C79.9078 85.3989 78.5841 86.3315 78.1066 86.749C75.4203 89.0974 73.3698 88.705 71.391 88.6505C69.4122 88.5959 67.8094 87.8066 66.0185 86.4159C66.6334 87.2365 66.6007 88.4235 67.8094 89.0974C74.2522 92.6894 84.2297 91.6255 85.6906 88.3617C84.6255 87.9734 83.5182 87.6024 82.377 87.2541Z"
          fill="black"/>
    <path d="M115.807 85.2594C116.131 83.9569 116.97 83.263 118.061 82.7996C118.586 82.5767 119.183 82.4154 119.898 82.2786C120.88 82.0909 121.939 81.9667 123.803 81.7921C123.967 81.7767 124.163 81.7584 124.518 81.7254C126.352 81.5547 127.231 81.4503 127.816 81.3202C128.36 81.1991 130.964 80.5192 130.857 80.5462C134.34 79.6656 137.031 79.2775 139.933 79.4724C146.132 79.8886 150.259 80.0126 154.103 79.7706C157.075 79.5834 159.202 80.3702 160.777 81.9601C160.973 82.1573 161.127 82.3295 161.316 82.5553C162.686 82.8241 164.654 83.5923 168.435 85.1703C168.584 85.2325 168.584 85.2325 168.733 85.2947C168.988 85.4015 170.012 85.8302 170.266 85.9363C172.124 86.7129 175.746 88.9672 182.286 93.2708C182.506 93.4161 182.506 93.4161 182.727 93.5613C183.548 94.1019 187.786 96.9046 188.858 97.6088C190.94 98.977 192.32 99.8634 193.213 100.4C195.673 101.877 197.237 103.906 198.079 106.461C198.667 108.246 198.833 109.679 199 112.865C199.038 113.602 199.055 113.903 199.081 114.291L199.082 114.314C199.189 115.912 200.619 120.916 202.895 127.805C203.098 128.422 203.308 129.052 203.523 129.694C204.338 132.122 205.207 134.645 206.108 137.215C206.723 138.967 207.176 140.243 207.832 142.08C208.263 143.285 208.585 144.34 208.847 145.364C208.945 145.747 209.029 146.101 209.124 146.525C209.15 146.642 209.179 146.77 209.228 146.989C209.265 147.154 209.29 147.269 209.315 147.374C209.42 147.82 209.491 148.044 209.578 148.226C209.603 148.278 209.631 148.33 209.661 148.379C210.53 149.824 222.527 164.134 227.173 168.997C228.177 170.052 228.554 171.557 228.165 172.961C227.836 174.148 227.001 175.116 225.901 175.621L199.66 194.317L199.159 194.455C196.346 195.229 193.339 194.305 191.444 192.085L191.396 192.028L174.994 170.701C174.841 170.633 174.678 170.56 174.504 170.481C173.57 170.059 172.53 169.577 171.41 169.042C168.21 167.511 165.008 165.86 162.009 164.143C158.224 161.977 155.03 159.861 152.593 157.818C151.911 157.247 151.29 156.682 150.732 156.123C149.621 155.01 148.417 153.827 146.8 152.254C146.579 152.038 146.579 152.038 146.356 151.822C140.559 146.188 140.073 145.711 138.292 143.856C135.106 140.538 133.9 139.024 133.844 137.238C133.837 137.213 133.828 137.18 133.816 137.14C133.754 136.943 133.649 136.678 133.504 136.361C133.186 135.667 132.71 134.8 132.125 133.853C130.917 131.898 129.387 129.827 128.067 128.371C127.796 128.073 127.572 127.828 127.082 127.294C122.718 122.533 121.125 120.427 120.286 117.364C119.162 113.262 118.108 110.236 116.978 108.199C116.905 108.067 116.827 107.929 116.741 107.779C116.616 107.559 116.157 106.772 116.066 106.614C115.786 106.127 115.575 105.741 115.381 105.358C114.833 104.268 114.492 103.294 114.368 102.257C114.2 100.844 114.477 99.4677 115.226 98.1745C116.468 96.0291 118.513 94.8849 120.921 94.6915C116.98 92.1773 115.059 88.2736 115.807 85.2594Z"
          fill="black"/>
    <path d="M223.43 171.97L204.519 150.973L199.457 136.973L192.62 106.595L163.721 87.2324L180.099 105.4L156.872 85.1486L147.047 84.5528L136.629 83.6606L119.954 86.3402L121.442 89.3194L127.396 91.999H137.814L151.513 96.1666L161.338 108.396L165.212 120.905L152.705 121.201L142.287 119.117L133.054 110.183C133.054 110.183 132.162 105.417 130.079 103.02C127.995 100.624 122.334 97.9573 120.846 98.5531C119.359 99.149 117.265 100.64 122.93 110.466L128.591 120.296L137.824 131.614L143.781 140.251L157.467 153.653L176.824 164.671L197.223 189.839L223.43 171.97Z"
          fill="#B5C1C9"/>
    <path d="M142.005 119.1C142.005 119.1 152.271 127.304 157.639 127.304C152.738 123.441 145.739 118.836 145.739 118.836L142.005 119.1Z"
          fill="black"/>
    <path d="M123.115 111.116C123.115 111.116 129.037 110.561 129.6 107.762C130.077 111.34 124.473 114.276 124.473 114.276L123.115 111.116Z"
          fill="black"/>
    <path d="M120.55 99.2942C120.55 99.2942 118.539 99.817 119.437 102.856C119.925 104.567 120.632 106.215 121.544 107.762C121.544 107.762 126.87 105.177 127.023 104.169C127.006 104.169 124.429 100.856 120.55 99.2942Z"
          fill="white"/>
    <path d="M128.676 84.9636C128.951 85.2399 129.046 85.633 128.926 85.9935C128.806 86.3539 128.49 86.6265 128.097 86.7076L125.838 87.177L120.789 87.5692L119.857 86.0837L128.676 84.9636Z"
          fill="white"/>
    <path d="M120.509 87.8941L127.674 86.9177L121.132 90.1747L120.509 87.8941Z" fill="black"/>
    <path d="M84.9945 69.9812C84.9945 69.9812 82.6311 81.9952 90.9013 87.7797C90.9013 87.7797 99.5637 93.1192 103.503 85.1099C107.442 77.1006 101.927 73.9859 99.1715 73.0959C95.7836 72.0032 92.8691 77.9905 84.9945 69.9812Z"
          fill="black"/>
    <path d="M102.264 81.15C102.264 81.15 102.543 77.7939 99.1184 77.3711C94.9609 76.855 92.8167 79.119 91.098 77.6641C89.9771 76.6966 88.9217 75.6532 87.939 74.541C87.939 74.541 88.2336 82.322 91.3861 84.6526C94.5386 86.9833 96.8268 87.5659 97.9726 87.5659C98.595 87.5972 99.2062 87.3892 99.6847 86.9833C99.6847 86.9833 98.9121 84.4662 102.264 81.15Z"
          fill="#B5C1C9"/>
    <path d="M87.939 74.541L88.841 78.256C89.0176 79.0294 89.3705 79.75 89.8715 80.3603C89.8946 80.3903 89.9209 80.417 89.9473 80.447C90.7678 81.3814 91.9936 81.8407 93.2169 81.6721C94.4402 81.5035 95.5003 80.7291 96.0445 79.6067L97.0586 77.5224C95.7603 77.4854 94.466 77.683 93.2362 78.106C91.4683 78.7129 89.1703 76.1051 87.939 74.541Z"
          fill="white"/>
    <path d="M204.539 152.149L198.128 156.617L192.163 106.46L204.539 152.149Z" fill="white"/>
    <path d="M108.311 83.0093L254.103 158.347C255.877 159.283 256.527 161.154 255.536 162.896C254.594 164.549 252.515 164.819 250.822 163.948L132.983 105.025L129.858 101.902C129.387 101.434 123.917 98.9229 123.267 98.7799L116.936 96.8305L104.224 90.4332L108.311 83.0093Z"
          fill="black"/>
    <path d="M109.204 87.5691L253.171 160.431C253.267 160.477 253.34 160.56 253.374 160.661C253.408 160.762 253.399 160.872 253.35 160.966C253.253 161.153 253.025 161.23 252.835 161.139L116.313 91.9787L116.023 91.708C115.969 91.6594 115.902 91.6267 115.831 91.6134L115.342 91.5221L108.784 88.4106C109.027 88.241 109.18 87.9698 109.201 87.6735L109.204 87.5691Z"
          fill="#B5C1C9"/>
    <path d="M205.131 151.406L192.163 160.526L208.448 154.641L205.131 151.406Z" fill="black"/>
    <path d="M104.224 90.8262C107.102 90.8262 109.435 88.4931 109.435 85.615C109.435 82.7369 107.102 80.4038 104.224 80.4038C101.346 80.4038 99.0127 82.7369 99.0127 85.615C99.0127 88.4931 101.346 90.8262 104.224 90.8262Z"
          fill="black"/>
    <path d="M104.55 87.5691C105.809 87.5691 106.83 86.5483 106.83 85.2892C106.83 84.03 105.809 83.0093 104.55 83.0093C103.291 83.0093 102.27 84.03 102.27 85.2892C102.27 86.5483 103.291 87.5691 104.55 87.5691Z"
          fill="#B5C1C9"/>
</svg>
