<svg width="256" height="256" viewBox="0 0 256 256" fill="none" xmlns="http://www.w3.org/2000/svg">
    <g clip-path="url(#clip0_1008_6256)">
        <path d="M150.152 199.925C125.684 199.925 104.966 185.051 104.966 165.113C104.966 145.175 125.684 130.3 150.152 130.3C174.621 130.3 195.339 145.175 195.339 165.113C195.339 185.051 174.621 199.925 150.152 199.925Z"
              fill="black"/>
        <path d="M150.152 191.464C170.423 191.464 186.855 179.666 186.855 165.113C186.855 150.56 170.423 138.763 150.152 138.763C129.882 138.763 113.449 150.56 113.449 165.113C113.449 179.666 129.882 191.464 150.152 191.464Z"
              fill="white"/>
        <path fill-rule="evenodd" clip-rule="evenodd"
              d="M150.152 184.47C168.894 184.47 184.087 173.525 184.087 160.024C184.087 146.523 168.894 135.579 150.152 135.579C131.411 135.579 116.217 146.523 116.217 160.024C116.217 173.525 131.411 184.47 150.152 184.47Z"
              fill="#DAE2EB"/>
        <path d="M182.001 148.757C182.001 163.414 167.211 173.863 150.152 173.863C133.093 173.863 118.303 163.414 118.303 148.757C118.303 148.677 118.303 148.596 118.305 148.516L118.303 36.8112C118.303 31.8781 122.312 27.879 127.258 27.879H173.046C177.992 27.879 182.001 31.878 182.001 36.8111V148.576C182.001 148.6 182.001 148.624 182.001 148.648C182.001 148.685 182.001 148.721 182.001 148.757Z"
              fill="black"/>
        <path d="M173.045 148.576L173.046 36.8112H127.258L127.26 148.576C127.259 148.636 127.258 148.697 127.258 148.757C127.258 157.69 137.508 164.931 150.152 164.931C162.796 164.931 173.046 157.69 173.046 148.757C173.046 148.697 173.046 148.636 173.045 148.576Z"
              fill="#DAE2EB"/>
        <path d="M129.699 36.3411L134.526 142.827C134.525 142.888 131.787 160.025 152.509 162.581C155.227 162.916 157.626 163.039 159.742 162.979C156.825 163.93 153.577 164.461 150.152 164.461C137.508 164.461 127.258 157.22 127.258 148.287C127.258 148.227 127.259 148.166 127.26 148.106L127.258 36.3411H129.699Z"
              fill="white"/>
        <path d="M150.152 72.4297C168.817 72.4297 183.948 61.6086 183.948 48.26C183.948 34.9115 168.817 24.0903 150.152 24.0903C131.487 24.0903 116.356 34.9115 116.356 48.26C116.356 61.6086 131.487 72.4297 150.152 72.4297Z"
              fill="black"/>
        <path d="M150.334 75.6036C130.765 75.6036 124.908 68.94 117.078 62.4817C111.344 57.7517 107.873 51.3677 107.873 43.4439C107.873 41.2425 108.141 28.2957 108.651 26.2429C112.482 10.8177 129.978 -0.000244141 150.152 -0.000244141C170.781 -0.000244141 188.608 11.3098 191.892 27.2906C192.247 29.019 192.432 38.9114 192.432 40.7407C192.432 49.1651 182.252 55.8194 182.113 63.3584C181.194 113.137 169.903 75.6036 150.334 75.6036Z"
              fill="black"/>
        <path d="M183.978 40.741C184.062 41.3606 184.104 41.9878 184.104 42.6213C184.104 54.5644 169.016 64.2462 150.405 64.2462C131.793 64.2462 116.705 54.5644 116.705 42.6213C116.705 41.9878 116.748 41.3606 116.831 40.741C118.316 51.8034 132.78 60.4853 150.405 60.4853C167.9 60.4853 182.281 51.9305 183.944 40.9841L183.978 40.741Z"
              fill="#DAE2EB"/>
        <path d="M150.152 56.8013C168.817 56.8013 183.948 45.9802 183.948 32.6316C183.948 19.2831 168.817 8.46191 150.152 8.46191C131.487 8.46191 116.356 19.2831 116.356 32.6316C116.356 45.9802 131.487 56.8013 150.152 56.8013Z"
              fill="#DAE2EB"/>
        <path fill-rule="evenodd" clip-rule="evenodd"
              d="M163.053 66.6144C164.759 66.6144 166.142 67.9973 166.142 69.7033V144.396C166.142 146.102 164.759 147.485 163.053 147.485C161.347 147.485 159.964 146.102 159.964 144.396V69.7033C159.964 67.9973 161.347 66.6144 163.053 66.6144Z"
              fill="black"/>
        <path fill-rule="evenodd" clip-rule="evenodd"
              d="M150.334 71.3392C152.04 71.3392 153.423 72.7222 153.423 74.4281V149.121C153.423 150.827 152.04 152.21 150.334 152.21C148.628 152.21 147.245 150.827 147.245 149.121V74.4281C147.245 72.7222 148.628 71.3392 150.334 71.3392Z"
              fill="black"/>
        <path fill-rule="evenodd" clip-rule="evenodd"
              d="M137.615 66.6144C139.321 66.6144 140.704 67.9973 140.704 69.7033V144.396C140.704 146.102 139.321 147.485 137.615 147.485C135.909 147.485 134.526 146.102 134.526 144.396V69.7033C134.526 67.9973 135.909 66.6144 137.615 66.6144Z"
              fill="black"/>
        <path d="M146.922 29.878C142.176 35.6251 135.825 37.0381 129.492 37.409C126.505 37.5839 123.608 37.1071 121.131 35.9746C117.946 34.5185 115.461 31.9851 114.601 28.6039C113.45 24.0774 115.318 18.3732 118.867 13.4618C122.699 8.15902 128.113 4.33402 134.425 3.23803C141.323 2.04023 148.308 1.83282 154.718 3.01907C163.4 4.62595 170.577 8.71632 175.293 15.757C177.168 18.5567 178.127 20.9234 177.725 23.6466C177.417 25.7305 176.252 27.4027 174.556 28.3825C173.426 29.0351 167.885 31.0617 165.645 30.6365C164.575 30.4334 160.636 29.5994 160.237 29.5185C157.619 28.987 155.631 28.6688 153.818 28.5236C150.059 28.2225 147.85 28.7539 146.922 29.878Z"
              fill="black"/>
        <path d="M144.757 26.8358C153.934 20.1391 185.15 34.3009 176.544 21.4215C167.939 8.54209 148.512 6.082 136.599 8.20503C124.686 10.3281 117.376 23.6422 118.615 28.7483C119.853 33.8543 135.581 33.5325 144.757 26.8358Z"
              fill="white"/>
        <path d="M106.855 256C81.7539 256 60.5 240.619 60.5 220.002C60.5 199.384 81.7539 184.003 106.855 184.003C131.957 184.003 153.211 199.384 153.211 220.002C153.211 240.619 131.957 256 106.855 256Z"
              fill="black"/>
        <path d="M106.855 247.249C127.65 247.249 144.508 235.05 144.508 220.001C144.508 204.953 127.65 192.753 106.855 192.753C86.0606 192.753 69.2031 204.953 69.2031 220.001C69.2031 235.05 86.0606 247.249 106.855 247.249Z"
              fill="white"/>
        <path fill-rule="evenodd" clip-rule="evenodd"
              d="M106.856 240.018C126.082 240.018 141.668 228.701 141.668 214.74C141.668 200.779 126.082 189.462 106.856 189.462C87.629 189.462 72.0428 200.779 72.0428 214.74C72.0428 228.701 87.629 240.018 106.856 240.018Z"
              fill="#DAE2EB"/>
        <path d="M139.528 203.089C139.528 218.245 124.355 229.05 106.855 229.05C89.3554 229.05 74.1827 218.245 74.1827 203.089C74.1827 203.006 74.1827 202.923 74.1842 202.84L74.1827 87.33C74.1827 82.2289 78.2957 78.0936 83.3694 78.0936H130.342C135.415 78.0936 139.528 82.2289 139.528 87.3299V202.901C139.528 202.926 139.528 202.951 139.528 202.976C139.528 203.014 139.528 203.052 139.528 203.089Z"
              fill="black"/>
        <path d="M130.34 202.901L130.342 87.3297H83.3696L83.3711 202.901C83.3701 202.964 83.3696 203.026 83.3696 203.089C83.3696 212.326 93.8847 219.814 106.856 219.814C119.827 219.814 130.342 212.326 130.342 203.089C130.342 203.026 130.341 202.964 130.34 202.901Z"
              fill="#DAE2EB"/>
        <path d="M85.8738 86.8439L90.8255 196.957C90.8245 197.02 88.0159 214.74 109.273 217.383C112.06 217.73 114.52 217.857 116.691 217.795C113.699 218.779 110.367 219.328 106.856 219.328C93.8847 219.328 83.3696 211.84 83.3696 202.603C83.3696 202.54 83.3701 202.478 83.3711 202.415L83.3696 86.8439H85.8738Z"
              fill="white"/>
        <path d="M106.855 124.161C126.003 124.161 141.525 112.972 141.525 99.1684C141.525 85.3651 126.003 74.1754 106.855 74.1754C87.7077 74.1754 72.1854 85.3651 72.1854 99.1684C72.1854 112.972 87.7077 124.161 106.855 124.161Z"
              fill="black"/>
        <path d="M107.042 127.443C86.9664 127.443 80.958 120.553 72.9258 113.875C67.0431 108.983 63.4823 102.382 63.4823 94.1883C63.4823 91.912 63.7571 78.5241 64.2802 76.4014C68.2108 60.4508 86.1592 49.2644 106.855 49.2644C128.017 49.2644 146.306 60.9597 149.674 77.4848C150.039 79.2721 150.228 89.5014 150.228 91.393C150.228 100.104 139.785 106.985 139.642 114.781C138.699 166.256 127.117 127.443 107.042 127.443Z"
              fill="black"/>
        <path d="M141.556 91.3934C141.642 92.0342 141.685 92.6828 141.685 93.3379C141.685 105.688 126.207 115.699 107.114 115.699C88.0214 115.699 72.5435 105.688 72.5435 93.3379C72.5435 92.6828 72.587 92.0342 72.6723 91.3934C74.1957 102.833 89.0342 111.81 107.114 111.81C125.062 111.81 139.815 102.964 141.521 91.645L141.556 91.3934Z"
              fill="#DAE2EB"/>
        <path d="M106.855 108.001C126.003 108.001 141.525 96.8108 141.525 83.0076C141.525 69.2044 126.003 58.0146 106.855 58.0146C87.7077 58.0146 72.1854 69.2044 72.1854 83.0076C72.1854 96.8108 87.7077 108.001 106.855 108.001Z"
              fill="#DAE2EB"/>
        <path fill-rule="evenodd" clip-rule="evenodd"
              d="M120.09 118.148C121.84 118.148 123.258 119.567 123.258 121.317V198.605C123.258 200.355 121.84 201.774 120.09 201.774C118.34 201.774 116.921 200.355 116.921 198.605V121.317C116.921 119.567 118.34 118.148 120.09 118.148Z"
              fill="black"/>
        <path fill-rule="evenodd" clip-rule="evenodd"
              d="M107.042 123.034C108.792 123.034 110.211 124.453 110.211 126.203V203.491C110.211 205.241 108.792 206.66 107.042 206.66C105.292 206.66 103.873 205.241 103.873 203.491V126.203C103.873 124.453 105.292 123.034 107.042 123.034Z"
              fill="black"/>
        <path fill-rule="evenodd" clip-rule="evenodd"
              d="M93.9942 118.148C95.7442 118.148 97.1629 119.567 97.1629 121.317V198.605C97.1629 200.355 95.7442 201.774 93.9942 201.774C92.2441 201.774 90.8254 200.355 90.8254 198.605V121.317C90.8254 119.567 92.2441 118.148 93.9942 118.148Z"
              fill="black"/>
        <path d="M103.566 80.1457C98.7091 86.0732 92.1954 87.5235 85.6986 87.898C82.6345 88.0746 79.6607 87.5784 77.1169 86.4057C73.8462 84.898 71.2903 82.279 70.4011 78.7866C69.2107 74.1115 71.1153 68.2243 74.7464 63.1581C78.6668 57.6881 84.2131 53.746 90.6869 52.6229C97.7622 51.3954 104.929 51.1907 111.508 52.4241C120.42 54.0949 127.792 58.3278 132.645 65.6037C134.575 68.497 135.564 70.9419 135.157 73.753C134.846 75.9043 133.654 77.6292 131.916 78.6387C130.759 79.3109 125.078 81.396 122.778 80.9539C121.68 80.7428 117.636 79.8764 117.227 79.7924C114.539 79.24 112.499 78.9088 110.638 78.7564C106.781 78.4405 104.516 78.9863 103.566 80.1457Z"
              fill="black"/>
        <path d="M101.339 77.0032C110.741 70.1021 142.8 84.7659 133.943 71.4572C125.086 58.1485 105.148 55.582 92.9295 57.7574C80.7109 59.9329 73.2384 73.6686 74.5195 78.9418C75.8007 84.215 91.9378 83.9044 101.339 77.0032Z"
              fill="white"/>
    </g>
    <defs>
        <clipPath id="clip0_1008_6256">
            <rect width="256" height="256" fill="white"/>
        </clipPath>
    </defs>
</svg>
