<svg width="256" height="256" viewBox="0 0 256 256" fill="none" xmlns="http://www.w3.org/2000/svg">
    <path fill-rule="evenodd" clip-rule="evenodd"
          d="M198.453 214.529C198.069 221.167 194.22 226.807 188.361 229.318L129.268 254.636C123.424 257.14 116.466 256.151 111.013 252.04L55.7387 210.377C50.2852 206.266 47.1627 199.657 47.5456 193.037L56.3808 41.4707C56.7648 34.8327 60.6136 29.1929 66.4733 26.6823L125.566 1.36386C131.411 -1.14025 138.368 -0.150932 143.821 3.9597L199.095 45.6233C204.549 49.734 207.671 56.3425 207.289 62.9634L198.453 214.529Z"
          fill="black"/>
    <path fill-rule="evenodd" clip-rule="evenodd"
          d="M122.725 235.706C122.437 240.315 119.381 242.035 115.9 239.548L65.1557 203.292C61.6743 200.805 59.0857 195.052 59.3739 190.443L62.9747 132.859C63.2629 128.25 66.3188 126.53 69.8002 129.017L120.544 165.272C124.026 167.76 126.614 173.513 126.326 178.122L122.725 235.706Z"
          fill="white"/>
    <path fill-rule="evenodd" clip-rule="evenodd"
          d="M123.611 157.708C123.323 162.318 120.267 164.038 116.786 161.55L66.0419 125.295C62.5606 122.807 59.972 117.055 60.2602 112.445L63.861 54.8612C64.1492 50.2521 67.2051 48.5321 70.6865 51.0194L121.431 87.2749C124.912 89.7623 127.5 95.5151 127.212 100.124L123.611 157.708Z"
          fill="white"/>
    <path fill-rule="evenodd" clip-rule="evenodd"
          d="M131.756 158.477C127.616 160.395 124.452 158.408 124.688 154.037L128.136 90.3353C128.372 85.9649 131.92 80.8667 136.06 78.9482L187.781 54.9785C191.921 53.0601 195.085 55.0477 194.849 59.4181L191.401 123.12C191.165 127.49 187.617 132.589 183.477 134.507L131.756 158.477Z"
          fill="#DAE2EB"/>
    <path fill-rule="evenodd" clip-rule="evenodd"
          d="M183.652 52.1119C187.626 54.7402 188.008 58.0319 184.505 59.4641L133.453 80.3404C129.951 81.7726 123.89 80.8031 119.917 78.1749L70.2712 45.3397C66.2976 42.7114 65.9156 39.4198 69.4181 37.9875L120.47 17.1113C123.972 15.6791 130.033 16.6485 134.007 19.2767L183.652 52.1119Z"
          fill="#DAE2EB"/>
    <path fill-rule="evenodd" clip-rule="evenodd"
          d="M189.051 129.999C193.211 128.049 196.397 130.077 196.168 134.53L192.73 200.312C192.5 204.765 188.943 209.956 184.783 211.907L132.205 235.787C128.046 237.737 124.86 235.709 125.089 231.256L128.938 166.283C129.168 161.83 132.725 156.639 136.885 154.688L189.051 129.999Z"
          fill="#DAE2EB"/>
    <path fill-rule="evenodd" clip-rule="evenodd"
          d="M194.011 74.3699C197.972 84.3842 194.45 129.347 183.445 209.259C188.663 209.567 186.245 211.061 176.192 213.742C166.14 216.423 149.256 222.144 125.542 230.905C157.858 219.141 171.256 199.477 165.735 171.912C157.453 130.564 182.725 132.62 194.011 74.3699Z"
          fill="black"/>
</svg>
