<svg width="256" height="256" viewBox="0 0 256 256" fill="none" xmlns="http://www.w3.org/2000/svg">
    <path d="M90.6188 174.615C90.4667 174.599 77.5173 168.697 71.7012 161.811C68.425 157.932 66.2003 156.016 63.45 154.959L63.2396 154.873C61.9142 154.297 60.6711 153.551 59.5422 152.655C51.4673 146.648 46.2172 138.386 43.2499 127.976C42.6799 126.025 42.3357 124.453 41.6972 121.163C41.3966 119.615 41.2812 119.033 41.1132 118.244C41.0379 117.891 41 117.531 41 117.17V106.739C41 106.299 41.0563 105.86 41.1676 105.435C41.422 104.46 41.6294 103.689 42.0982 101.963C43.0096 98.6055 43.3967 97.1239 43.8193 95.2921C44.1346 93.9221 44.428 92.7751 45.0257 90.5222L45.0726 90.3454C46.0454 86.679 46.4374 85.0623 46.7847 83.0882C47.4197 79.4692 47.263 76.3943 46.3556 69.2933C46.2783 68.6886 46.2434 68.4145 46.2017 68.0837C44.9789 58.4652 47.4338 49.5192 53.1322 41.2074C55.6201 37.399 59.1194 34.3415 63.2952 32.3469C67.6189 30.335 69.7181 29.4112 72.3918 28.4204C76.2469 27.0026 78.4085 24.8019 79.2836 21.3607C80.3928 16.2938 83.2313 11.7577 87.3661 8.48187C91.9407 4.9351 97.2256 2.62871 103.763 0.959763C104.242 0.831881 104.574 0.771377 105.195 0.675375C105.293 0.660245 105.35 0.651386 105.394 0.644398C106.168 0.223219 107.04 0 107.929 0H114.819C115.333 0 115.845 0.0746316 116.337 0.221515C117.064 0.438362 117.793 0.579144 119.363 0.823773C119.433 0.834731 119.433 0.834731 119.504 0.845779C121.337 1.13118 122.19 1.28584 123.432 1.60957C128.955 3.17136 134.592 4.30253 140.174 4.97965C147.022 5.65261 153.57 8.10005 159.218 12.1191C160.956 13.3936 162.765 14.5717 164.556 15.6035C168.121 17.5745 171.478 19.8942 174.635 22.5796C178.322 25.8111 182.358 28.6298 186.583 30.9381C195.83 35.7655 201.927 43.5181 204.699 53.6818C204.838 54.1917 204.838 54.1917 204.977 54.6998C207.093 62.4497 208.156 65.8582 209.828 69.7213C212.631 75.8085 214.126 82.4055 214.217 89.0942L214.216 89.28C214.21 89.5497 214.292 89.8143 214.449 90.0348C215.079 90.9151 215.418 91.9672 215.418 93.046V104.683C215.418 105.499 215.224 106.298 214.859 107.019C213.629 115.382 210.092 122.239 203.857 127.486C202.507 128.616 202.134 129.945 202.629 132.187C204.157 138.886 202.901 145.912 199.195 151.601C195.052 158.237 189.721 161.553 179.524 165.536C176.489 166.712 173.484 167.78 170.503 168.739C170.942 170.106 171.448 171.707 172.129 173.874C172.38 174.673 172.494 175.037 172.63 175.469C173.494 178.212 174.092 180.081 174.72 181.975C180.842 200.72 186.975 219.456 193.12 238.183C193.931 240.654 192.776 243.303 190.485 244.444C188.573 245.583 186.109 245.409 184.371 243.952L165.819 228.383C164.528 233.744 163.765 236.975 162.98 240.449C162.744 241.5 162.522 242.382 162.077 244.075C162.057 244.151 162.057 244.151 162.037 244.227C161.095 247.807 160.76 249.353 160.604 251.19C160.376 253.889 158.096 255.964 155.36 255.964H154.957C152.676 255.964 150.656 254.511 149.951 252.364C148.388 247.597 146.756 242.616 144.832 236.741C145.179 237.8 136.901 212.512 134.582 205.435C132.667 199.59 130.905 194.219 129.233 189.132C123.33 207.053 113.71 236.254 108.39 252.405C106.744 257.405 99.5014 257.115 98.2682 252C96.0853 242.945 94.2733 235.42 92.5832 228.386C91.2604 229.541 89.6915 230.849 87.4557 232.685L87.4017 232.73C83.7636 235.718 82.1726 237.072 80.3361 238.805C79.5643 239.536 78.9223 239.977 77.7914 240.661C77.7284 240.699 77.7284 240.699 77.6683 240.735C77.2908 240.963 77.1071 241.079 76.9927 241.162L76.9605 241.213C76.4212 242.063 75.9709 242.624 75.0392 243.249C73.3981 244.349 71.3881 244.53 69.5998 243.848C66.1318 242.547 65.1705 239.464 65.8581 236.628C65.9149 236.393 65.9696 236.206 66.0456 235.964C66.0623 235.911 66.0623 235.911 66.0691 235.89C66.6403 234.057 67.2476 232.183 68.0409 229.786C68.4113 228.667 75.9373 210.277 90.6188 174.615Z"
          fill="black"/>
    <path d="M135.04 147.162C135.645 146.187 136.82 146.723 137.612 145.537C133.821 146.749 130.27 146.574 126.737 146.547C118.199 146.431 109.82 144.25 102.333 140.198C93.0995 135.467 85.4726 128.169 80.3955 119.208C72.6971 105.595 70.846 91.1564 75.1624 76.1121C78.5495 63.9337 86.1787 53.3234 96.7088 46.1465C101.283 42.9409 106.499 41.0175 111.527 38.6199C117.267 35.8622 123.097 35.5724 129.122 35.6427C140.989 35.7794 152.483 39.7496 161.846 46.9457C167.778 51.3074 172.763 56.7994 176.504 63.0966C181.737 72.0283 184.683 81.4606 184.461 91.9469C184.105 108.633 177.804 122.492 165.406 133.628C157.401 140.816 147.428 145.517 136.731 147.144C136.41 147.193 136.086 147.219 135.761 147.224C135.52 147.219 135.279 147.198 135.04 147.162ZM104.247 132.627C104.661 133.278 105.289 133.768 106.027 134.015C118.487 139.758 131.222 140.549 144.189 136.008C149.879 134.164 155.057 131.044 159.319 126.892C161.677 125.443 163.368 123.318 165.077 121.236C177.745 105.69 179.227 83.9917 168.788 66.9081C167.266 64.4315 165.923 61.7265 163.235 60.1457C163.235 59.2674 162.594 58.7756 162.042 58.2487C149.164 45.9445 133.91 41.5532 116.413 45.3033C108.731 46.8667 101.653 50.5415 95.9968 55.9037C95.3869 56.1332 94.8495 56.518 94.4393 57.0191C91.6748 59.54 89.2786 62.4278 87.3195 65.5996C77.0402 82.2862 76.9334 99.2451 86.5541 116.274C87.2661 117.521 87.9603 118.909 89.3754 119.585C89.5288 120.532 89.9987 121.401 90.7103 122.053C91.9652 123.432 93.3803 124.688 94.6084 126.067C97.3215 128.894 100.605 131.129 104.247 132.627Z"
          fill="#DAE2EB"/>
    <path d="M177.883 224.587C175.607 223.227 173.872 221.217 171.966 219.441C167.38 215.171 162.889 210.779 158.038 206.144C156.38 215.188 154.792 223.868 153.194 232.557H152.834C152.31 231.049 151.769 229.559 151.279 228.044C148.291 218.748 141.078 196.659 138.115 187.329C137.892 186.61 137.162 185.796 137.926 185.051C138.691 184.306 139.163 185.267 139.79 185.397C140.158 185.482 140.538 185.511 140.915 185.484C144.35 185.155 148.643 185.891 152.13 185.484C155.315 185.085 155.564 179.862 158.853 180.052C159.679 179.99 160.493 180.276 161.103 180.841C162.039 181.949 162.091 180.841 162.391 180.139C163.791 182.487 170.54 201.345 171.27 203.675C172.67 208.18 174.439 212.555 175.719 217.085C176.423 219.58 177.178 222.049 177.908 224.526L177.883 224.587Z"
          fill="white"/>
    <path d="M119.126 191.617C120.15 190.584 119.708 189.263 120.168 188.069C120.909 188.59 120.715 189.263 120.574 189.82C118.631 197.573 110.446 223.608 107.762 231.145C107.197 232.736 106.879 234.407 106.402 236.042C106.27 236.518 106.296 237.12 105.44 237.245C105.034 232.825 103.674 228.612 102.879 224.282C102.084 219.952 100.989 215.729 100.045 211.453C99.7798 210.213 99.6385 209.432 98.2788 210.815C91.9743 217.104 85.564 223.204 79.1801 229.376C78.9696 229.505 78.7442 229.608 78.509 229.681C82.0409 218.451 91.5594 189.048 95.4974 178.168C96.4598 178.483 96.3186 178.941 96.2303 179.282C96.0272 180.082 96.1861 180.396 97.0691 180.181C98.9275 179.768 100.863 180.367 102.182 181.762C103.4 182.948 105.36 182.391 106.596 183.604C108.857 185.859 112.133 186.568 114.331 188.931C114.731 189.362 115.264 189.64 115.841 189.722C117.166 189.8 118.379 190.501 119.126 191.617Z"
          fill="#DAE2EB"/>
    <path d="M81.912 154.801C81.083 151.725 79.994 148.726 78.6568 145.835C78.1447 144.758 79.0561 141.625 79.9763 141.139C81.3981 140.302 83.2123 140.582 84.3166 141.807C87.5507 144.964 90.537 148.365 93.2489 151.98C94.7795 154 96.5619 155.818 98.5527 157.387C100.133 158.628 101.304 160.338 103.223 161.224C104.186 161.675 103.917 162.43 102.988 162.881C102.421 163.189 101.752 163.249 101.14 163.046C100.228 162.762 99.2645 162.682 98.3183 162.812C95.7153 163.04 93.103 162.493 90.8096 161.241C89.7317 160.713 88.5354 160.474 87.3374 160.547C85.4537 160.547 84.7332 158.811 83.6047 157.656C82.9197 156.767 82.3373 155.803 81.8686 154.783L81.912 154.801Z"
          fill="#DAE2EB"/>
    <path d="M79.5811 149.377C79.4308 147.645 79.0802 145.939 78.5369 144.297C78.31 143.646 79.5175 142.479 80.3528 142.537C81.6045 142.579 82.784 143.164 83.6124 144.154C85.5339 146.462 87.2939 148.914 88.8785 151.491C89.7883 152.961 90.8445 154.324 92.0291 155.557C92.9349 156.703 93.9378 157.76 95.0254 158.715C95.6973 159.212 95.3704 159.47 94.5805 159.403C94.0668 159.369 93.5685 159.205 93.1278 158.925C92.4526 158.516 91.7332 158.195 90.985 157.968C88.9883 157.322 87.1119 156.318 85.4374 155.003C84.6569 154.417 83.7967 153.958 82.886 153.644C81.4242 153.108 81.1428 152.046 80.4709 151.204C80.0937 150.633 79.7885 150.012 79.5629 149.358L79.5811 149.377Z"
          fill="white"/>
    <path d="M172.576 158.145C171.049 158.404 169.531 158.743 167.995 158.894C166.217 159.129 164.488 159.647 162.876 160.428C160.309 161.497 157.648 162.333 154.929 162.925C149.244 164.253 143.478 163.575 137.793 164.164C131.776 164.788 125.768 165.582 119.733 165.947C117.442 166.113 115.152 165.605 113.151 164.485C111.741 163.682 111.633 162.942 112.845 161.81C114.713 160.107 117.057 159.715 119.41 159.75C123.9 159.813 128.148 158.529 132.513 157.905C135.405 157.486 138.404 157.744 141.359 157.735C144.313 157.726 146.873 156.576 149.361 155.06C151.624 153.687 154.111 152.671 156.365 151.271C158.62 149.871 160.981 148.801 162.553 146.545C163.667 144.958 165.723 145.146 167.331 144.593C169.291 143.919 170.753 142.275 171.184 140.26C172.082 137.032 174.192 134.455 175.602 131.504C176.644 129.337 178.458 127.554 179.042 125.182C179.344 123.698 179.783 122.245 180.353 120.84C181.028 119.157 182.277 117.762 183.882 116.899C187.906 114.786 190.097 111.353 191.57 107.261C192.064 105.897 191.345 104.693 191.48 103.418C191.854 98.8797 191.379 94.312 190.079 89.9455C189.073 86.2898 188.92 82.438 187.385 78.9072C186.747 77.4539 186.792 75.7241 186.379 74.1638C185.148 69.4828 184.017 64.784 183.137 60.0316C182.867 58.5783 181.709 57.6154 180.919 56.4652C179.705 54.4598 178.245 52.6119 176.572 50.9639C171.094 46.0778 166.487 40.2109 159.715 36.8228C154.03 33.9696 148.678 30.412 142.427 28.7982C140.626 28.4599 138.789 28.3431 136.958 28.4505C132.324 28.4059 127.699 28.0849 123.056 28.1295C118.943 28.1741 114.812 27.9512 110.69 27.8798C106.948 27.7196 103.275 28.9212 100.362 31.2591C99.2356 32.018 98.0085 32.6182 96.7159 33.0423C93.2404 34.5046 90.3756 36.7782 87.4569 39.0518C82.9666 42.5113 79.024 46.5414 74.3451 49.7513C73.007 50.6429 72.6657 52.4796 72.1179 53.9686C71.13 56.6435 69.0825 58.6318 67.3941 60.8073C64.7717 64.1777 62.4907 67.5391 62.5805 72.0685C62.6343 74.8236 63.0654 77.6322 61.9159 80.3427C61.404 81.5643 62.5356 82.9641 62.1584 84.1856C61.4489 86.4325 61.0717 88.7507 60.1287 90.9708C59.06 93.4941 58.0901 96.0531 59.5091 99.1559C60.9284 102.055 61.8944 105.152 62.3739 108.34C62.6254 110.39 64.3227 111.906 64.3856 113.957C64.4844 117.523 66.0201 120.876 65.4453 124.522C64.9783 127.447 62.6613 129.123 61.2962 131.433C60.8382 132.208 60.003 131.932 59.4552 131.308C55.6654 126.992 51.5343 122.739 51.7588 116.498C51.7126 113.491 51.8776 110.485 52.2527 107.501C52.3246 107.065 52.4862 106.458 52.2527 106.173C50.1782 103.427 52.109 100.895 52.6928 98.3356C53.2083 96.7383 53.6311 95.1128 53.959 93.4674C54.2105 91.1937 55.36 89.2054 55.7552 86.9585C56.8581 81.7584 56.7815 76.3796 55.5306 71.2125C54.1794 65.6491 54.661 59.802 56.9047 54.5303C57.742 52.1687 58.8319 49.9029 60.1557 47.7719C61.4399 45.8638 63.4785 44.8563 64.8256 43.1355C66.963 40.416 69.9985 40.4606 72.9082 40.4606C76.6082 40.4606 79.1947 38.3742 81.5386 36.0025C83.8826 33.6308 86.5409 32.0259 88.6154 29.565C90.4115 27.3895 92.2076 25.2228 92.5848 22.2716C92.7555 20.9252 93.914 20.1673 94.7851 19.3827C98.4672 16.0837 102.131 12.7491 106.693 10.6092C107.041 10.437 107.42 10.3369 107.807 10.3149C111.996 10.3233 116.119 11.352 119.814 13.3108C122.149 14.461 124.421 15.7717 126.819 16.7614C127.993 17.184 129.032 17.9105 129.828 18.8656C131.282 20.7915 133.42 21.6207 135.351 22.7976C135.792 23.0881 136.335 23.1849 136.85 23.0651C139.159 22.5123 141.341 23.0651 143.532 23.7606C144.798 24.1618 146.119 24.0102 147.412 24.242C150.772 25.016 154.013 26.2334 157.048 27.862C161.447 29.8539 165.624 32.2952 169.513 35.1465C171.408 36.591 173.869 37.117 175.701 38.713C179.967 42.4222 184.322 46.0778 188.049 50.3041C190.869 53.505 192.27 57.6688 194.138 61.485C196.365 66.0144 199.212 70.205 201.619 74.6275C203.453 78.1196 204.556 81.9442 204.861 85.8708C205.445 92.0497 205.05 98.184 202.804 104.024C201.852 106.485 200.793 108.982 200.002 111.425C198.835 115.062 196.698 117.719 194.219 120.341C192.89 121.741 191.354 122.962 190.743 124.95C190.486 125.677 190.341 126.437 190.312 127.206C190.312 130.532 190.24 133.858 190.312 137.183C190.577 142.567 188.147 147.732 183.819 150.986C181.251 153.207 178.516 155.231 175.638 157.04C174.7 157.64 173.638 158.021 172.531 158.154L172.432 158.074L172.576 158.145Z"
          fill="#DAE2EB"/>
    <path d="M203.912 82.5847C203.61 78.7304 202.509 74.9764 200.674 71.551C198.275 67.2097 195.434 63.1061 193.216 58.6592C191.349 54.9079 189.951 50.822 187.137 47.6783C183.421 43.5308 179.074 39.9468 174.817 36.31C173.014 34.7425 170.533 34.2318 168.639 32.7876C164.75 29.9977 160.577 27.6075 156.185 25.6549C153.109 24.2107 150.016 22.7313 146.571 22.1325C145.281 21.9036 143.964 22.0621 142.702 21.657C140.528 20.9702 138.336 20.433 136.028 20.9702C135.513 21.0837 134.973 20.9815 134.54 20.6884C132.61 19.5348 130.49 18.7247 129.038 16.8314C128.243 15.8971 127.211 15.1834 126.044 14.7621C123.645 13.7934 121.381 12.5166 119.045 11.3806C115.363 9.45741 111.253 8.4474 107.078 8.43945C106.691 8.46107 106.314 8.55998 105.968 8.73005C101.459 10.8258 97.7521 14.1016 94.0815 17.3422C93.1796 18.1083 92.0613 18.848 91.89 20.1688C91.5202 23.066 89.7615 25.197 87.9217 27.3368C85.8384 29.7408 83.1328 31.4139 80.86 33.633C78.5873 35.8521 75.9178 37.9743 72.2562 38.0359C69.3341 38.0359 66.3128 38.0359 64.1393 40.6777C62.7865 42.3684 60.7573 43.3634 59.4676 45.2391C58.1491 47.3302 57.0637 49.5531 56.2299 51.8699C54.0089 57.0553 53.5536 62.8003 54.9312 68.2576C56.1764 73.3138 56.2596 78.5765 55.1747 83.6678C54.7328 85.8693 53.5874 87.8242 53.3709 90.052C53.3258 90.3867 53.2627 90.7213 53.1906 91.0471C54.1556 89.5325 55.1115 88.0003 56.0765 86.4681C56.6396 85.5319 57.2886 84.6477 58.0156 83.8263C58.8036 79.4054 58.6531 74.8736 57.5737 70.5119C56.2563 65.3359 56.68 59.8834 58.7822 54.9607C59.5736 52.7705 60.6016 50.6688 61.8485 48.691C63.0661 46.9298 64.9871 45.9788 66.2677 44.3761C68.2789 41.8576 71.1378 41.9105 73.9066 41.8929C77.3968 41.8929 79.8409 39.9556 82.0235 37.7717C84.206 35.5879 86.7493 34.0821 88.7063 31.8014C90.447 29.7848 92.1064 27.7683 92.4581 25.0209C92.6205 23.7792 93.7118 23.0748 94.5325 22.3791C98.0047 19.3235 101.477 16.215 105.77 14.2425C106.099 14.0805 106.457 13.9847 106.825 13.9607C110.78 13.9679 114.673 14.9235 118.162 16.7434C120.362 17.8177 122.509 19.0241 124.781 19.9487C125.884 20.3435 126.86 21.0147 127.613 21.8948C128.984 23.656 130.995 24.4573 132.817 25.5492C133.234 25.8195 133.746 25.9088 134.233 25.7958C136.291 25.429 138.412 25.6334 140.357 26.3858C140.782 26.4349 141.204 26.5114 141.619 26.6147L141.908 26.694C142.674 26.7644 143.441 26.7556 144.208 26.8965C147.379 27.6101 150.437 28.7386 153.299 30.2515C157.437 32.1014 161.366 34.368 165.023 37.0144C166.827 38.3617 169.135 38.846 170.867 40.3254C174.99 43.6575 178.883 47.2523 182.519 51.0862C185.18 54.0537 186.506 57.9195 188.273 61.4683C190.375 65.6775 193.062 69.5608 195.335 73.6644C197.065 76.9087 198.105 80.4612 198.392 84.1081C198.528 85.5522 198.609 87.0052 198.618 88.4406C198.731 88.7405 198.861 89.0344 199.006 89.3212C199.42 90.008 199.862 90.7301 200.043 91.0823C201.065 92.9315 202.072 94.7661 203.064 96.586C204.147 91.9981 204.434 87.2652 203.912 82.5847Z"
          fill="white"/>
    <path d="M157.723 50.2012C161.819 52.3999 165.129 54.4134 167.717 58.2886C171.13 59.6241 174.031 61.9105 176.033 64.8428C171.991 55.0873 163.862 48.5163 155.055 43.2594C150.406 40.4878 145.615 37.5561 140.564 35.5763C135.514 33.5966 130.169 33.4365 124.824 34.1358C119.301 34.8518 113.439 35.7364 108.371 38.1626C103.259 40.5005 98.3896 43.2843 93.8264 46.4776C90.4714 48.8954 87.6696 52.1051 84.9927 55.3232L84.9124 55.399L84.7964 55.5507C84.1629 56.3173 83.5383 57.0755 82.9048 57.8253C79.8079 61.429 77.0802 65.3019 74.7582 69.392C76.3834 67.734 78.3432 66.3993 80.5224 65.4662C81.6466 63.8656 82.8423 62.3071 84.0915 60.7822L86.7148 57.5894C88.8296 56.6374 90.0074 54.961 91.3726 53.2255C95.2976 50.1355 99.546 47.4313 104.052 45.1549C112.464 41.7049 121.551 39.9654 130.723 40.0497C135.842 39.9998 140.886 41.2137 145.356 43.5711C149.496 45.7446 153.601 47.994 157.723 50.2012ZM138.592 38.0194C138.378 37.8931 138.155 37.7751 137.932 37.6572C138.191 37.733 138.45 37.8088 138.7 37.9015C138.949 37.9942 139.404 38.1626 139.752 38.2974C139.369 38.1626 138.976 38.1037 138.592 38.0194Z"
          fill="white"/>
    <path d="M156.094 127.961C159.93 125.762 163.022 123.748 165.441 119.881C168.681 118.505 171.397 116.213 173.22 113.318C169.445 123.074 161.835 129.646 153.604 134.904C149.254 137.676 144.744 140.616 140.049 142.588C135.353 144.559 130.303 144.736 125.324 144.037C120.159 143.312 114.692 142.436 109.908 140.043C105.11 137.675 100.559 134.879 96.3171 131.694C93.1808 129.275 90.5583 126.057 88.051 122.838L87.9801 122.763L87.8738 122.611C87.2802 121.853 86.6954 121.086 86.1018 120.344C83.2058 116.716 80.6644 112.844 78.509 108.776C80.0105 110.414 81.8422 111.749 83.8958 112.703C84.9501 114.303 86.0753 115.862 87.2447 117.387C88.051 118.432 88.8661 119.51 89.6989 120.572C91.6746 121.532 92.7732 123.209 94.0579 124.945C97.7052 128.018 101.678 130.723 105.912 133.016C113.736 136.436 122.26 138.162 130.87 138.072C135.683 138.114 140.416 136.896 144.55 134.55C148.404 132.435 152.24 130.177 156.094 127.961ZM138.197 140.153C137.993 140.279 137.79 140.389 137.586 140.507C137.825 140.431 138.064 140.355 138.303 140.262C138.543 140.169 138.959 140.001 139.287 139.866C138.924 139.976 138.56 140.06 138.197 140.153Z"
          fill="white"/>
    <path d="M175.528 145.729C176.041 143.57 176.816 141.481 177.837 139.506C178.245 138.726 176.821 137.046 175.745 136.935C174.057 136.78 172.376 137.306 171.085 138.392C168.112 140.968 165.328 143.749 162.754 146.715C161.252 148.413 159.564 149.943 157.721 151.274C156.167 152.406 155.117 153.726 153.156 154.703C152.167 155.209 152.566 155.603 153.642 155.654C154.337 155.697 155.033 155.577 155.673 155.303C156.648 154.895 157.671 154.607 158.719 154.446C161.515 153.984 164.21 153.05 166.685 151.686C167.835 151.088 169.07 150.663 170.347 150.426C172.413 150.006 172.951 148.712 174.018 147.777C174.621 147.123 175.134 146.394 175.546 145.609L175.528 145.729Z"
          fill="white"/>
    <path d="M148.42 68.0285L141.368 64.7031L108.617 68.0554L107.579 69.131C107.665 71.0312 107.743 72.9404 107.812 74.8406L108.427 75.468L123.05 76.0058C123.318 87.4878 124.53 95.725 124.659 101.399C125.467 105.378 124.694 107.894 122.34 108.946C120.065 110.144 117.62 110.961 115.098 111.366C115.098 114.055 130.396 113.768 125.949 114.153L115.539 114.718L114.553 119.576L119.866 123.78L135.77 123.206C141.108 122.92 145.547 121.414 147.814 118.868C149.141 117.525 149.852 115.661 149.77 113.741L148.42 68.0285Z"
          fill="black"/>
    <path d="M141.48 65.6411L106.641 65.7544C106.772 68.2024 106.895 70.6592 107 73.1072L125.721 73.4905L126.018 105.785C126.018 108.399 123.136 110.22 118.748 110.612L108.472 111.213L112.799 120.029L128.462 119.393C133.719 119.089 138.099 117.573 140.332 115.107C141.648 113.776 142.349 111.962 142.268 110.098L141.48 65.6411Z"
          fill="#DAE2EB"/>
    <path d="M143.431 62.8276L106.641 63.0964C106.641 63.6878 106.704 64.2702 106.74 64.8885L139.94 65.5515V111.051C139.94 114.689 135.723 117.323 129.397 117.843L114.564 118.739L115.264 120.029L129.101 119.465C134.781 119.133 139.527 117.52 141.977 114.931C143.404 113.553 144.191 111.644 144.149 109.662L143.431 62.8276Z"
          fill="white"/>
</svg>
