<svg width="256" height="256" viewBox="0 0 256 256" fill="none" xmlns="http://www.w3.org/2000/svg">
    <g clip-path="url(#clip0_1008_6253)">
        <path d="M183.122 68.6093C167.287 62.2065 149.029 55.4377 148.364 40.6912C148.186 36.7561 156.575 25.0017 157.862 21.1943C163.973 3.11914 185.189 -4.95811 205.25 3.15328C225.312 11.2647 236.621 32.4931 230.511 50.5682C228.794 55.6459 222.187 74.2899 218.447 77.6524C208.873 86.2594 197.548 74.442 183.122 68.6093Z"
              fill="black"/>
        <path d="M187.663 55.3152C200.444 60.468 213.974 55.2953 217.884 43.7616C221.793 32.2279 214.602 18.7008 201.821 13.548C189.039 8.39524 175.509 13.568 171.6 25.1017C167.69 36.6354 174.882 50.1624 187.663 55.3152Z"
              fill="#DAE2EB"/>
        <path d="M195.995 11.6331C206.646 12.6019 216.273 23.0833 217.499 35.0439C217.577 35.814 217.62 36.5714 217.626 37.3143C215.496 26.3324 206.427 17.0988 196.462 16.1924C186.496 15.286 179.166 23.0279 179.267 33.8246C179.12 33.0697 179.006 32.3057 178.927 31.5357C177.702 19.575 185.344 10.6643 195.995 11.6331Z"
              fill="white"/>
        <path d="M187.923 51.9199C196.34 55.3132 205.25 51.9067 207.825 44.3114C210.399 36.716 205.663 27.808 197.246 24.4146C188.83 21.0213 179.919 24.4278 177.345 32.0231C174.77 39.6185 179.506 48.5266 187.923 51.9199Z"
              fill="black"/>
        <path fill-rule="evenodd" clip-rule="evenodd"
              d="M96.6997 237.893C96.4904 237.811 96.2809 237.728 96.0711 237.646C94.8852 237.179 93.7061 236.705 92.534 236.226L92.535 236.223C30.1469 210.657 -4.51623 172.349 0.474019 157.932C4.06776 147.55 18.9837 135.492 39.9375 108.644C48.2364 98.01 60.2933 72.4903 64.2139 61.1636C77.6315 22.3995 123.27 4.42176 167.457 19.7693L167.465 19.7472C168.595 20.1473 169.724 20.5681 170.851 21.012C171.12 21.118 172.198 21.5425 172.468 21.6488C173.595 22.0927 174.71 22.5555 175.812 23.0346L175.805 23.0567C218.741 42.0199 242.477 87.3183 229.059 126.082C225.139 137.409 218.756 165.163 218.585 178.998C218.155 213.929 222.146 233.433 218.553 243.815C213.562 258.232 163.878 263.322 100.883 239.511L100.881 239.514C99.881 239.135 97.9864 238.376 96.7084 237.868L96.6997 237.893Z"
              fill="black"/>
        <path fill-rule="evenodd" clip-rule="evenodd"
              d="M84.0969 221.211L84.0973 221.209C41.1822 198.85 16.1582 167.083 13.9016 150.492C15.1932 149.765 22.9469 155.056 37.1627 166.367C60.4396 178.881 79.9028 187.086 95.5524 190.98C119.027 196.821 153.428 207.035 157.146 209.949C167.313 217.919 173.356 223.132 176.818 231.679C167.9 242.74 134.216 245.434 90.525 224.428L90.5246 224.43C90.39 224.365 90.2553 224.299 90.1205 224.234C89.3129 223.835 88.1424 223.24 87.3109 222.82L87.3045 222.844C87.2357 222.81 87.1668 222.775 87.0979 222.741C86.0916 222.236 85.0911 221.726 84.0969 221.211Z"
              fill="#DAE2EB"/>
        <path d="M51.2544 224.412C34.478 213.492 28.4514 192.317 37.7936 177.115C47.1357 161.913 68.3089 158.442 85.0853 169.361C101.862 180.28 107.888 201.456 98.5461 216.658C89.204 231.859 68.0308 235.331 51.2544 224.412Z"
              fill="black"/>
        <path d="M57.6548 213.997C68.0833 220.784 81.245 218.626 87.0523 209.176C92.8596 199.727 89.1133 186.564 78.6848 179.776C68.2562 172.988 55.0945 175.146 49.2872 184.596C43.4799 194.046 47.2262 207.209 57.6548 213.997Z"
              fill="#DAE2EB"/>
        <path d="M77.3209 181.035C82.0261 184.048 85.1052 188.59 86.1792 193.354C84.7004 191.304 82.7898 189.468 80.4912 187.996C71.7792 182.417 60.7913 184.193 55.949 191.961C53.722 195.534 53.1827 199.752 54.0973 203.809C49.9735 198.091 49.2141 190.719 52.7787 185.001C57.621 177.233 68.6089 175.457 77.3209 181.035Z"
              fill="white"/>
        <path d="M98.849 135.544L125.502 152.135L99.1507 189.97L72.4981 173.38L98.849 135.544Z" fill="black"/>
        <path d="M101.081 169.224L95.0275 179.057L83.089 171.215L88.3679 162.64C92.7131 164.663 97.0153 166.896 101.081 169.224Z"
              fill="#DAE2EB"/>
        <path fill-rule="evenodd" clip-rule="evenodd"
              d="M57.7862 113.508C65.0568 103.904 75.6478 80.8725 79.1 70.6537C90.915 35.6814 129.253 18.7487 167.766 32.4777L167.773 32.4578C168.757 32.8157 169.742 33.1924 170.724 33.5899C170.958 33.6848 171.898 34.0648 172.133 34.16C173.115 34.5574 174.086 34.9719 175.047 35.4012L175.04 35.4211C195.235 44.5929 220.853 68.0748 205.384 77.7531C187.67 88.8355 183.009 118.2 191.712 138.847C196.394 149.953 210.079 162.582 209.892 175.053C209.838 178.64 198.702 171.586 205.676 180.574C216.948 195.101 204.723 212.779 175.371 193.984C161.13 184.866 144.237 176.219 125.853 168.78C87.0727 153.089 50.1721 146.215 27.3176 150.605C33.1707 142.441 43.9761 131.751 57.7862 113.508Z"
              fill="#DAE2EB"/>
        <path fill-rule="evenodd" clip-rule="evenodd"
              d="M115.823 159.406C86.144 144.273 58.5683 135.46 42.2031 135.997C44.0454 133.435 46.7426 122.528 58.7768 120.384C70.1483 118.358 85.4595 127.577 91.504 130.659C112.318 141.272 137.333 158.841 166.017 191.284C152.75 180.48 135.236 169.305 115.823 159.406Z"
              fill="white"/>
        <path fill-rule="evenodd" clip-rule="evenodd"
              d="M152.313 125.075C184.346 143.182 201.832 166.391 203.476 172.413C199.842 176.295 207.413 192.681 196.872 192.358C188.098 175.917 165.628 152.781 142.042 134.878C120.039 118.176 98.4522 107.385 82.8221 104.212C98.0885 101.887 124.407 109.302 152.313 125.075Z"
              fill="black"/>
        <path fill-rule="evenodd" clip-rule="evenodd"
              d="M111.085 57.2134C129.122 39.308 144.874 39.7332 151.571 39.4134C158.268 39.0936 168.065 44.9651 166.047 52.2389C153.123 54.3285 132.615 54.7178 116.155 66.7812C100.8 78.0348 83.332 103.98 75.8062 113.843C80.7055 102.429 95.3717 72.812 111.085 57.2134Z"
              fill="white"/>
    </g>
    <defs>
        <clipPath id="clip0_1008_6253">
            <rect width="256" height="256" fill="white"/>
        </clipPath>
    </defs>
</svg>
