<svg width="256" height="256" viewBox="0 0 256 256" fill="none" xmlns="http://www.w3.org/2000/svg">
    <path d="M30.2571 19.5132C32.611 11.6664 32.4284 8.14959 40.4046 6.54192L53.9173 10.2304C59.3485 9.13565 66.9681 3.63596 71.6972 6.54192C73.612 7.71857 79.7789 6.6659 81.6539 6.54192C86.6075 -1.81948 106.27 5.67768 111.524 2.55299C115.027 0.469858 120.264 0.469858 127.236 2.55299C135.153 1.22314 139.613 0.474072 140.615 0.305781C142.118 0.053343 143.61 -0.0394713 145.076 0.0150586C146.053 0.0514119 153.023 6.23629 165.986 18.5697C166.186 20.189 166.286 21.4066 166.286 22.2225V178.818C166.286 189.831 158.282 199.182 147.473 200.797L27.2808 213.978C15.2362 215.778 4.02439 207.397 2.23844 195.258C2.0797 194.179 2 193.09 2 191.999V67.9326C2 60.7034 5.48973 53.9262 11.3551 49.7646L23.8393 40.9066L30.2571 19.5132Z"
          fill="black"/>
    <path d="M49.0789 55.8204C48.5273 57.6589 47.3811 59.2585 45.8227 60.3642L31.9355 70.2175C29.6651 71.8284 28.3142 74.4519 28.3142 77.2503C28.3142 120.592 28.3142 153.099 28.3142 174.77C28.3142 179.236 30.6849 184.97 35.4262 191.972C35.4262 192.394 51.3307 199.769 55.9931 199.073L145.491 187.326C149.675 186.701 142.836 179.033 142.836 174.77C149.461 158.433 152.773 145.506 152.773 135.988C152.773 124.662 149.217 123.359 149.217 106.656C149.217 100.626 152.773 81.5342 152.773 74.8038C152.773 65.5469 152.773 50.17 152.773 28.6732C152.773 28.1995 152.735 27.7265 152.657 27.2592C151.882 22.5737 147.485 19.4084 142.836 20.1893L128.615 22.578C127.659 22.7386 126.683 22.7339 125.729 22.5642L107.318 19.2899C104.661 18.8174 101.939 19.6388 99.9767 21.5052C93.857 27.3264 88.9348 30.4451 85.2099 30.8612C80.1457 31.4269 75.3229 30.3021 70.7413 27.4868C68.9107 26.3619 66.727 25.9726 64.6246 26.3964L62.4886 26.8269C59.401 27.4493 56.9043 29.7343 55.9931 32.7718L49.0789 55.8204Z"
          fill="#DAE2EB"/>
    <path fill-rule="evenodd" clip-rule="evenodd"
          d="M33.947 94.4946C32.6642 95.4204 31.4161 96.4424 30.2212 97.6106C27.0218 100.738 27.2694 107.901 27.2859 115.427C29.0551 113.127 30.5648 111.164 32.0747 109.201C32.0244 110.129 31.8083 110.727 31.5344 111.215C30.0266 113.899 28.8256 117.159 27.0969 119.428L26.9922 120.435C27.4376 121.354 27.3919 121.884 26.9495 122.098C26.9492 128.847 25.9079 135.792 27.4641 142.656C27.8218 144.234 28.404 144.384 28.848 143.702C29.4077 142.842 29.6827 141.542 29.8123 140.083C29.8666 139.473 29.8797 138.78 30.2541 138.806C32.0641 138.929 35.1292 136.1 35.1119 133.612C35.0989 131.779 34.9182 129.717 36.0128 129.08C36.3128 131.557 36.5963 133.893 36.904 136.432C38.1465 135.105 38.8019 132.835 40.4045 132.478C39.9175 135.836 35.668 138.25 33.8659 138.623C31.7316 139.066 30.7354 141.178 30.6931 145.235C30.6765 146.843 30.2503 147.794 29.3022 147.936C28.3774 148.074 28.1002 149.646 28.1523 151.327C28.2542 154.62 28.1222 161.041 28.0823 167.602H16.9351V94.4946H33.947Z"
          fill="black"/>
    <path fill-rule="evenodd" clip-rule="evenodd"
          d="M151.174 166.239C150.899 164.806 150.949 163.457 151.148 162.061C151.642 161.098 151.543 160.385 151.039 159.741C150.584 159.161 149.844 158.749 149.662 157.892C151.112 157.905 151.051 158.315 152.598 157.808C153.142 157.631 154.384 159.393 154.752 159.635C156.205 160.593 156.458 161.812 157.318 163.127C157.939 164.076 163.559 165.041 165.31 165.135C163.043 163.88 156.695 160.632 156.521 158.065C156.51 157.904 156.392 157.71 156.226 157.691C155.225 157.577 155.089 155.319 154.07 155.214C150.529 154.847 149.398 154.929 147.809 152.329C147.019 151.036 145.694 151.181 145.417 149.619C145.371 149.358 143.948 148.482 144.256 148.047C144.907 147.124 143.425 147.145 142.697 146.801C141.115 146.053 142.035 143.967 141.48 142.45C140.992 141.116 134.27 133.506 133.159 132.579C133.832 134.034 134.248 136.8 134.926 138.25C135.582 139.653 140.475 147.14 141.628 148.253C140.904 147.751 138.779 147.076 135.254 146.228L128.865 139.944C125.822 136.192 124.133 134.146 123.799 133.805C123.826 134.026 124.778 136.762 126.656 142.016L133.818 148.623L139.862 149.233C140.715 149.927 141.234 150.346 141.42 150.488C142.661 151.438 141.777 151.434 141.918 153.118C142.145 155.831 144.593 154.433 145.707 156.668C145.844 156.943 146.18 159.14 146.58 159.177C148.823 159.385 149.827 160.707 150.738 162.108C150.148 163.695 149.946 165.137 151.174 166.239Z"
          fill="black"/>
    <path fill-rule="evenodd" clip-rule="evenodd"
          d="M51.3877 205.632C51.0705 204.366 51.1026 203.033 51.295 201.584C51.81 200.42 51.6926 199.773 51.1419 199.379C50.6443 199.024 49.8425 198.965 49.6343 198.216C51.1907 197.562 51.132 197.987 52.7855 196.783C53.3663 196.361 54.7274 197.502 55.126 197.568C56.7012 197.831 56.9916 198.899 57.9363 199.782C58.6181 200.418 64.6669 198.77 66.5487 198.056C64.0943 197.879 57.228 197.643 57.0014 195.228C56.9869 195.077 56.8576 194.942 56.6791 195C55.6016 195.35 55.4206 193.218 54.3253 193.585C50.5178 194.857 49.3039 195.458 47.5576 193.662C46.6887 192.768 45.2689 193.518 44.9472 192.128C44.8934 191.895 43.3522 191.699 43.6757 191.134C44.3607 189.938 42.7695 190.64 41.9828 190.64C40.2725 190.641 41.2278 188.19 40.608 186.972C40.0628 185.9 32.7267 181.595 31.5194 181.206C32.2647 182.31 32.7552 184.807 33.5056 185.904C34.232 186.967 39.6021 191.992 40.857 192.544C40.0722 192.389 37.7806 192.71 33.9823 193.508L27.0244 190.339C23.6982 188.093 21.8531 186.881 21.4891 186.704C21.5218 186.905 22.587 189.127 24.6846 193.37L32.478 196.497L38.9769 194.308C39.9031 194.591 40.4672 194.759 40.6692 194.811C42.0162 195.164 41.0676 195.567 41.2453 197.139C41.5317 199.671 44.138 197.185 45.3683 198.846C45.5197 199.05 45.9156 201.03 46.3452 200.882C48.7565 200.053 49.8552 200.876 50.8549 201.818C50.2472 203.631 50.052 205.126 51.3877 205.632Z"
          fill="black"/>
    <path d="M136.587 17.8524L127.19 23.0548H105.834C104.063 22.7398 100.925 21.2935 96.4206 18.716L84.3303 32.8548C75.9546 29.2936 70.2396 26.5745 67.1853 24.6976C65.3547 23.5727 63.171 23.1834 61.0686 23.6072L58.9325 24.0377C55.845 24.6601 53.3483 26.9451 52.4371 29.9826L45.5228 53.0312C44.9713 54.8697 43.825 56.4693 42.2667 57.575L28.3795 67.4283C26.109 69.0392 24.7582 71.6627 24.7582 74.4611C24.246 101.852 23.2977 125.732 21.9134 146.1C20.5291 166.468 18.6544 182.215 16.2892 193.338C13.9365 192.497 12.7601 188.914 12.7601 182.587C12.7601 182.159 12.6678 181.748 12.6678 181.326V69.4439C12.6678 66.6455 14.0187 64.0221 16.2892 62.4111L30.1763 52.5578C31.7347 51.4521 32.881 49.8525 33.4325 48.014L40.3468 24.9654C41.2579 21.9279 43.7547 19.6429 46.8422 19.0205L48.9783 18.59C51.0807 18.1662 53.2643 18.5555 55.0949 19.6804C59.6765 22.4957 64.4993 23.6205 69.5635 23.0548C73.2884 22.6387 78.2107 19.52 84.3303 13.6988C86.2923 11.8324 89.0145 11.011 91.6715 11.4835L110.082 14.7578C111.036 14.9275 112.012 14.9322 112.968 14.7716L127.19 12.3829C131.287 11.6947 135.188 14.0714 136.587 17.8524Z"
          fill="#DAE2EB"/>
    <path d="M61.7801 56.4587L28.4857 84.7845V74.8305C28.4857 72.1323 29.827 69.6028 32.0813 68.0495L45.8695 58.5488C47.4167 57.4827 48.5548 55.9404 49.1024 54.1677L55.9674 31.9441C56.8722 29.0154 59.3511 26.8121 62.4166 26.2121L64.5375 25.7969C65.9291 25.5245 69.2235 25.6629 74.4208 26.2121L84.9761 30.1019L101.923 25.0857L106.16 18.1274C115.885 20.6769 121.063 22.0062 121.695 22.1153C122.642 22.2789 127.123 22.2701 128.072 22.1153L142.192 19.812C146.26 19.1485 150.134 21.44 151.523 25.0857L140.076 26.9529C139.127 27.1077 133.94 26.3757 132.993 26.2121L117.458 30.1019L111.642 25.9184L96.9803 34.9395H80.7393L72.9719 34.0224L66.6167 38.169L61.7801 56.4587Z"
          fill="white"/>
    <path fill-rule="evenodd" clip-rule="evenodd"
          d="M51.9155 73.8284L132.598 66.5521C134.273 66.401 135.753 67.6366 135.904 69.3118C135.905 69.3171 135.905 69.3224 135.906 69.3277C136.049 71.0151 134.802 72.5012 133.116 72.6533L52.4334 79.9296C50.7582 80.0807 49.2778 78.8452 49.1267 77.17C49.1262 77.1647 49.1257 77.1593 49.1253 77.154C48.982 75.4666 50.2289 73.9805 51.9155 73.8284Z"
          fill="black"/>
    <path fill-rule="evenodd" clip-rule="evenodd"
          d="M51.9155 110.797L132.598 103.521C134.273 103.37 135.753 104.605 135.904 106.281C135.905 106.286 135.905 106.291 135.906 106.296C136.049 107.984 134.802 109.47 133.116 109.622L52.4334 116.898C50.7582 117.049 49.2778 115.814 49.1267 114.139C49.1262 114.133 49.1257 114.128 49.1253 114.123C48.982 112.435 50.2289 110.949 51.9155 110.797Z"
          fill="black"/>
    <path fill-rule="evenodd" clip-rule="evenodd"
          d="M51.9155 92.3133L132.598 85.037C134.273 84.8859 135.753 86.1214 135.904 87.7966C135.905 87.802 135.905 87.8073 135.906 87.8126C136.049 89.5 134.802 90.9861 133.116 91.1382L52.4334 98.4145C50.7582 98.5656 49.2778 97.33 49.1267 95.6548C49.1262 95.6495 49.1257 95.6442 49.1253 95.6389C48.982 93.9515 50.2289 92.4654 51.9155 92.3133Z"
          fill="black"/>
    <path fill-rule="evenodd" clip-rule="evenodd"
          d="M51.9347 129.24L106.855 124.225C108.539 124.071 110.029 125.311 110.183 126.995C110.183 127.002 110.184 127.009 110.184 127.016C110.328 128.715 109.073 130.212 107.375 130.367L52.4541 135.383C50.7702 135.536 49.2805 134.296 49.1267 132.612C49.1261 132.605 49.1255 132.599 49.1249 132.592C48.9812 130.892 50.2361 129.395 51.9347 129.24Z"
          fill="black"/>
    <path d="M64.8533 38.7428C67.2041 30.896 67.0217 27.3792 74.9871 25.7716L88.4815 29.46C93.9054 28.3653 101.515 22.8656 106.237 25.7716C108.15 26.9482 114.308 25.8956 116.181 25.7716C121.127 17.4102 145.735 27.0576 150.982 23.9329C154.48 21.8497 159.71 21.8497 166.672 23.9329C174.579 22.603 179.032 21.854 180.033 21.6857C181.534 21.4332 183.025 21.3404 184.488 21.3949C185.464 21.4313 192.424 27.6162 205.37 39.9496C205.57 41.5689 205.67 42.7865 205.67 43.6024V200.198C205.67 211.211 197.677 220.562 186.882 222.177L66.8527 235.358C54.8244 237.158 43.6278 228.776 41.8443 216.638C41.6857 215.559 41.6061 214.47 41.6061 213.379C25.7372 200.381 18.3981 192.911 19.5889 190.969C30.0057 173.976 35.6875 139.373 36.6345 87.1622C36.6345 79.9331 40.1195 73.1559 45.9769 68.9942L58.4443 60.1363L64.8533 38.7428Z"
          fill="black"/>
    <path d="M88.6212 77.2C88.0704 79.0385 86.9257 80.6381 85.3694 81.7438L71.5011 91.5971C69.2337 93.2081 67.8846 95.8315 67.8846 98.6299C67.8846 141.972 67.8846 174.479 67.8846 196.15C67.8846 200.615 70.2521 206.349 74.987 213.351C74.987 213.774 90.87 221.149 95.5261 220.452L184.903 208.706C189.081 208.081 182.251 200.413 182.251 196.15C188.867 179.813 192.175 166.885 192.175 157.367C192.175 146.042 188.624 144.739 188.624 128.035C188.624 122.006 192.175 102.914 192.175 96.1834C192.175 86.9265 192.175 71.5496 192.175 50.0528C192.175 49.5791 192.137 49.1062 192.059 48.6389C191.286 43.9533 186.894 40.788 182.251 41.569L168.049 43.9577C167.095 44.1182 166.12 44.1136 165.167 43.9438L146.781 40.6695C144.128 40.197 141.409 41.0185 139.45 42.8848C133.339 48.7061 128.423 51.8247 124.703 52.2408C119.646 52.8066 114.83 51.6818 110.254 48.8664C108.426 47.7416 106.245 47.3523 104.146 47.776L102.013 48.2066C98.9293 48.8289 96.436 51.114 95.5261 54.1515L88.6212 77.2Z"
          fill="#DAE2EB"/>
    <path fill-rule="evenodd" clip-rule="evenodd"
          d="M73.5102 115.874C72.2291 116.8 70.9827 117.822 69.7894 118.99C66.5943 122.117 66.8415 129.28 66.858 136.807C68.6249 134.506 70.1325 132.543 71.6404 130.58C71.5901 131.508 71.3743 132.107 71.1008 132.595C69.5951 135.279 68.3957 138.538 66.6693 140.807L66.5648 141.814C67.0096 142.734 66.9639 143.263 66.5221 143.477C66.5218 150.227 65.4819 157.172 67.036 164.036C67.3933 165.613 67.9747 165.763 68.418 165.082C68.977 164.222 69.2517 162.921 69.3811 161.462C69.4353 160.852 69.4483 160.16 69.8223 160.185C71.6298 160.308 74.6908 157.479 74.6734 154.991C74.6604 153.158 74.4801 151.096 75.5732 150.459C75.8727 152.936 76.1558 155.273 76.4631 157.811C77.704 156.485 78.3585 154.214 79.9589 153.857C79.4725 157.216 75.2288 159.629 73.4292 160.003C71.2977 160.445 70.3028 162.557 70.2606 166.615C70.2441 168.222 69.8184 169.173 68.8716 169.316C67.9481 169.454 67.6712 171.025 67.7233 172.706C67.825 175.999 67.6932 182.42 67.6534 188.982H56.5212V115.874H73.5102Z"
          fill="black"/>
    <path fill-rule="evenodd" clip-rule="evenodd"
          d="M190.578 187.619C190.304 186.186 190.353 184.838 190.552 183.442C191.046 182.478 190.947 181.765 190.444 181.122C189.989 180.541 189.25 180.129 189.068 179.273C190.516 179.286 190.455 179.695 192.001 179.188C192.543 179.011 193.784 180.773 194.151 181.015C195.602 181.973 195.855 183.192 196.714 184.508C197.335 185.456 202.947 186.421 204.696 186.515C202.431 185.26 196.092 182.012 195.918 179.446C195.907 179.284 195.79 179.09 195.624 179.071C194.623 178.957 194.488 176.7 193.471 176.594C189.934 176.227 188.804 176.309 187.218 173.709C186.428 172.416 185.106 172.561 184.829 171C184.783 170.738 183.362 169.862 183.669 169.427C184.32 168.504 182.84 168.525 182.113 168.181C180.533 167.434 181.452 165.347 180.897 163.83C180.41 162.496 173.697 154.886 172.588 153.959C173.26 155.414 173.676 158.181 174.352 159.63C175.008 161.034 179.894 168.52 181.045 169.633C180.322 169.131 178.2 168.456 174.68 167.608L168.299 161.324C165.26 157.572 163.574 155.526 163.24 155.186C163.267 155.406 164.218 158.143 166.093 163.396L173.246 170.004L179.282 170.613C180.133 171.308 180.652 171.726 180.837 171.868C182.077 172.818 181.194 172.815 181.335 174.498C181.562 177.211 184.006 175.813 185.118 178.048C185.255 178.324 185.591 180.52 185.99 180.557C188.23 180.766 189.233 182.087 190.142 183.488C189.554 185.075 189.352 186.517 190.578 187.619Z"
          fill="black"/>
    <path fill-rule="evenodd" clip-rule="evenodd"
          d="M90.9271 227.011C90.6104 225.746 90.6424 224.412 90.8345 222.963C91.3489 221.799 91.2316 221.152 90.6816 220.758C90.1847 220.404 89.384 220.344 89.1761 219.595C90.7303 218.941 90.6718 219.366 92.323 218.162C92.903 217.74 94.2623 218.881 94.6603 218.947C96.2335 219.21 96.5234 220.279 97.4668 221.161C98.1477 221.797 104.188 220.149 106.068 219.435C103.617 219.258 96.7595 219.022 96.5332 216.608C96.5188 216.456 96.3896 216.321 96.2113 216.379C95.1354 216.729 94.9545 214.598 93.8608 214.964C90.0584 216.236 88.8462 216.837 87.1022 215.041C86.2345 214.148 84.8166 214.898 84.4953 213.507C84.4416 213.274 82.9024 213.078 83.2255 212.513C83.9096 211.317 82.3206 212.019 81.535 212.02C79.827 212.021 80.781 209.569 80.162 208.351C79.6176 207.279 72.2914 202.975 71.0858 202.585C71.83 203.69 72.3198 206.187 73.0692 207.283C73.7946 208.346 79.1575 213.371 80.4107 213.923C79.627 213.768 77.3385 214.089 73.5452 214.887L66.5968 211.718C63.2751 209.472 61.4325 208.261 61.069 208.083C61.1017 208.285 62.1654 210.506 64.2602 214.749L72.043 217.876L78.5331 215.688C79.4581 215.97 80.0214 216.138 80.2231 216.191C81.5683 216.543 80.621 216.946 80.7985 218.518C81.0845 221.05 83.6872 218.565 84.9158 220.225C85.067 220.429 85.4624 222.409 85.8914 222.262C88.2995 221.432 89.3967 222.255 90.395 223.198C89.7881 225.011 89.5932 226.505 90.9271 227.011Z"
          fill="black"/>
    <path d="M176.011 39.232L166.626 44.4345H145.3C143.531 44.1194 140.397 42.6732 135.899 40.0956L123.825 54.2344C115.461 50.6732 109.753 47.9541 106.703 46.0772C104.875 44.9524 102.694 44.5631 100.595 44.9868L98.4616 45.4174C95.3782 46.0397 92.8849 48.3248 91.9749 51.3622L85.07 74.4108C84.5192 76.2493 83.3745 77.8489 81.8183 78.9546L67.9499 88.8079C65.6825 90.4189 64.3335 93.0423 64.3335 95.8407C63.8219 123.232 62.875 147.111 61.4925 167.48C60.1101 187.848 58.2379 203.594 55.8759 214.718C53.5264 213.877 52.3517 210.293 52.3517 203.967C52.3517 203.539 52.2595 203.128 52.2595 202.705V90.8235C52.2595 88.0251 53.6086 85.4017 55.8759 83.7907L69.7443 73.9374C71.3005 72.8317 72.4453 71.2321 72.996 69.3936L79.9009 46.3451C80.8109 43.3076 83.3042 41.0225 86.3876 40.4002L88.5208 39.9696C90.6203 39.5459 92.801 39.9352 94.6291 41.06C99.2045 43.8754 104.021 45.0002 109.078 44.4345C112.798 44.0183 117.714 40.8997 123.825 35.0784C125.784 33.2121 128.503 32.3906 131.156 32.8632L149.542 36.1374C150.495 36.3072 151.47 36.3118 152.424 36.1513L166.626 33.7626C170.718 33.0744 174.614 35.451 176.011 39.232Z"
          fill="#DAE2EB"/>
    <path d="M101.305 77.8386L68.0562 106.164V96.2104C68.0562 93.5122 69.3956 90.9826 71.6468 89.4294L85.4164 79.9287C86.9615 78.8626 88.0981 77.3203 88.645 75.5476L95.5007 53.324C96.4041 50.3953 98.8797 48.192 101.941 47.5919L104.059 47.1768C105.449 46.9044 108.739 47.0428 113.929 47.5919L124.47 51.4818L141.394 46.4656L145.625 39.5073C155.337 42.0568 160.508 43.386 161.139 43.4951C162.085 43.6588 166.559 43.6499 167.507 43.4951L181.608 41.1919C185.671 40.5283 189.539 42.8199 190.926 46.4656L179.495 48.3327C178.547 48.4875 173.368 47.7556 172.422 47.5919L156.908 51.4818L151.1 47.2983L136.458 56.3194H120.239L112.482 55.4023L106.136 59.5488L101.305 77.8386Z"
          fill="white"/>
    <path fill-rule="evenodd" clip-rule="evenodd"
          d="M91.4583 95.2079L172.023 87.9324C173.698 87.7811 175.178 89.0162 175.329 90.6909C175.33 90.6965 175.33 90.7021 175.331 90.7076C175.474 92.3951 174.227 93.8813 172.54 94.0336L91.9755 101.309C90.3007 101.46 88.8205 100.225 88.6692 98.5506C88.6687 98.545 88.6682 98.5395 88.6678 98.5339C88.5247 96.8464 89.7716 95.3602 91.4583 95.2079Z"
          fill="black"/>
    <path fill-rule="evenodd" clip-rule="evenodd"
          d="M91.4583 132.177L172.023 124.901C173.698 124.75 175.178 125.985 175.329 127.66C175.33 127.665 175.33 127.671 175.331 127.676C175.474 129.364 174.227 130.85 172.54 131.002L91.9755 138.278C90.3007 138.429 88.8205 137.194 88.6692 135.519C88.6687 135.514 88.6682 135.508 88.6678 135.503C88.5247 133.815 89.7716 132.329 91.4583 132.177Z"
          fill="black"/>
    <path fill-rule="evenodd" clip-rule="evenodd"
          d="M91.4583 113.693L172.023 106.417C173.698 106.266 175.178 107.501 175.329 109.176C175.33 109.181 175.33 109.187 175.331 109.192C175.474 110.88 174.227 112.366 172.54 112.518L91.9755 119.794C90.3007 119.945 88.8205 118.71 88.6692 117.035C88.6687 117.03 88.6682 117.024 88.6678 117.019C88.5247 115.331 89.7716 113.845 91.4583 113.693Z"
          fill="black"/>
    <path fill-rule="evenodd" clip-rule="evenodd"
          d="M91.4774 150.619L146.315 145.605C147.999 145.451 149.488 146.691 149.642 148.374C149.643 148.381 149.644 148.388 149.644 148.395C149.788 150.095 148.533 151.592 146.834 151.747L91.9962 156.762C90.3127 156.916 88.8232 155.676 88.6692 153.992C88.6686 153.985 88.668 153.978 88.6674 153.971C88.5238 152.272 89.7788 150.775 91.4774 150.619Z"
          fill="black"/>
    <path d="M113.239 56.7465C115.59 48.8997 115.408 45.3829 123.373 43.7752L136.867 47.4637C142.291 46.369 149.901 40.8693 154.623 43.7752C156.535 44.9519 162.694 43.8992 164.566 43.7752C169.513 35.4138 194.121 45.0612 199.368 41.9365C202.866 39.8534 208.096 39.8534 215.058 41.9365C222.965 40.6067 227.418 39.8576 228.419 39.6893C229.92 39.4369 231.41 39.3441 232.874 39.3986C233.85 39.435 240.81 45.6198 253.756 57.9532C253.956 59.5725 254.056 60.7901 254.056 61.606V218.202C254.056 229.214 246.062 238.565 235.268 240.18L115.239 253.361C103.21 255.161 92.0136 246.78 90.2301 234.642C90.0716 233.563 89.992 232.473 89.992 231.383C74.123 218.385 66.784 210.915 67.9748 208.972C78.3915 191.979 84.0734 157.377 85.0204 105.166C85.0204 97.9367 88.5054 91.1595 94.3628 86.9979L106.83 78.14L113.239 56.7465Z"
          fill="black"/>
    <path d="M137.007 95.2042C136.456 97.0427 135.312 98.6422 133.755 99.7479L119.887 109.601C117.62 111.212 116.271 113.836 116.271 116.634C116.271 159.976 116.271 192.483 116.271 214.154C116.271 218.62 118.638 224.353 123.373 231.356C123.373 231.778 139.256 239.153 143.912 238.456L233.289 226.71C237.467 226.085 230.637 218.417 230.637 214.154C237.253 197.817 240.561 184.889 240.561 175.372C240.561 164.046 237.01 162.743 237.01 146.039C237.01 140.01 240.561 120.918 240.561 114.188C240.561 104.931 240.561 89.5538 240.561 68.057C240.561 67.5833 240.522 67.1103 240.445 66.643C239.671 61.9575 235.28 58.7922 230.637 59.5731L216.435 61.9618C215.481 62.1224 214.506 62.1177 213.553 61.948L195.167 58.6737C192.514 58.2012 189.795 59.0226 187.836 60.889C181.725 66.7102 176.809 69.8289 173.089 70.245C168.032 70.8107 163.215 69.6859 158.64 66.8706C156.812 65.7457 154.631 65.3564 152.532 65.7802L150.399 66.2107C147.315 66.8331 144.822 69.1181 143.912 72.1556L137.007 95.2042Z"
          fill="#DAE2EB"/>
    <path fill-rule="evenodd" clip-rule="evenodd"
          d="M121.896 133.878C120.615 134.804 119.368 135.826 118.175 136.994C114.98 140.121 115.227 147.284 115.244 154.811C117.01 152.511 118.518 150.547 120.026 148.584C119.976 149.512 119.76 150.111 119.486 150.599C117.981 153.283 116.781 156.543 115.055 158.811L114.95 159.818C115.395 160.738 115.349 161.268 114.908 161.482C114.907 168.231 113.868 175.176 115.422 182.04C115.779 183.617 116.36 183.768 116.804 183.086C117.363 182.226 117.637 180.925 117.767 179.466C117.821 178.856 117.834 178.164 118.208 178.189C120.015 178.312 123.076 175.483 123.059 172.995C123.046 171.162 122.866 169.1 123.959 168.464C124.258 170.941 124.541 173.277 124.849 175.815C126.09 174.489 126.744 172.218 128.345 171.861C127.858 175.22 123.614 177.633 121.815 178.007C119.683 178.449 118.688 180.561 118.646 184.619C118.63 186.226 118.204 187.177 117.257 187.32C116.334 187.458 116.057 189.029 116.109 190.711C116.211 194.004 116.079 200.424 116.039 206.986H104.907V133.878H121.896Z"
          fill="black"/>
    <path fill-rule="evenodd" clip-rule="evenodd"
          d="M238.964 205.623C238.689 204.19 238.739 202.841 238.938 201.446C239.431 200.482 239.332 199.769 238.829 199.125C238.375 198.545 237.635 198.133 237.454 197.276C238.901 197.289 238.841 197.699 240.386 197.192C240.929 197.015 242.169 198.777 242.537 199.019C243.988 199.977 244.24 201.196 245.1 202.511C245.72 203.46 251.332 204.425 253.081 204.519C250.817 203.264 244.477 200.016 244.304 197.449C244.293 197.288 244.175 197.094 244.009 197.075C243.009 196.961 242.873 194.703 241.856 194.598C238.32 194.231 237.19 194.313 235.603 191.713C234.814 190.42 233.491 190.565 233.215 189.003C233.169 188.742 231.748 187.866 232.055 187.431C232.706 186.508 231.225 186.529 230.498 186.185C228.919 185.437 229.838 183.351 229.283 181.834C228.795 180.5 222.083 172.89 220.973 171.963C221.645 173.418 222.061 176.184 222.738 177.634C223.393 179.038 228.279 186.524 229.43 187.637C228.708 187.135 226.586 186.46 223.065 185.612L216.685 179.328C213.646 175.576 211.959 173.53 211.626 173.19C211.653 173.41 212.604 176.146 214.479 181.4L221.631 188.008L227.667 188.617C228.519 189.311 229.037 189.73 229.223 189.872C230.462 190.822 229.58 190.818 229.721 192.502C229.948 195.215 232.392 193.817 233.504 196.052C233.641 196.327 233.977 198.524 234.376 198.561C236.616 198.77 237.619 200.091 238.528 201.492C237.94 203.079 237.737 204.521 238.964 205.623Z"
          fill="black"/>
    <path fill-rule="evenodd" clip-rule="evenodd"
          d="M139.313 245.016C138.996 243.75 139.028 242.416 139.22 240.968C139.734 239.804 139.617 239.156 139.067 238.763C138.57 238.408 137.77 238.348 137.562 237.599C139.116 236.945 139.057 237.371 140.709 236.167C141.289 235.744 142.648 236.885 143.046 236.952C144.619 237.214 144.909 238.283 145.852 239.165C146.533 239.801 152.574 238.153 154.453 237.44C152.002 237.262 145.145 237.026 144.919 234.612C144.904 234.46 144.775 234.325 144.597 234.383C143.521 234.733 143.34 232.602 142.246 232.968C138.444 234.241 137.232 234.841 135.488 233.045C134.62 232.152 133.202 232.902 132.881 231.511C132.827 231.279 131.288 231.082 131.611 230.517C132.295 229.321 130.706 230.023 129.92 230.024C128.212 230.025 129.167 227.573 128.547 226.355C128.003 225.283 120.677 220.979 119.471 220.589C120.216 221.694 120.705 224.191 121.455 225.288C122.18 226.35 127.543 231.376 128.796 231.927C128.012 231.772 125.724 232.094 121.931 232.891L114.982 229.722C111.661 227.476 109.818 226.265 109.455 226.087C109.487 226.289 110.551 228.511 112.646 232.753L120.428 235.88L126.919 233.692C127.844 233.974 128.407 234.142 128.609 234.195C129.954 234.547 129.006 234.95 129.184 236.522C129.47 239.054 132.073 236.569 133.301 238.229C133.453 238.434 133.848 240.414 134.277 240.266C136.685 239.437 137.782 240.259 138.781 241.202C138.174 243.015 137.979 244.509 139.313 245.016Z"
          fill="black"/>
    <path d="M224.397 57.2362L215.012 62.4386H193.686C191.917 62.1236 188.783 60.6773 184.285 58.0998L172.211 72.2386C163.846 68.6773 158.139 65.9583 155.089 64.0814C153.261 62.9565 151.08 62.5672 148.981 62.991L146.847 63.4215C143.764 64.0439 141.271 66.3289 140.361 69.3664L133.456 92.415C132.905 94.2535 131.76 95.853 130.204 96.9587L116.336 106.812C114.068 108.423 112.719 111.046 112.719 113.845C112.208 141.236 111.261 165.116 109.878 185.484C108.496 205.852 106.624 221.598 104.262 232.722C101.912 231.881 100.738 228.298 100.738 221.971C100.738 221.543 100.645 221.132 100.645 220.71V108.828C100.645 106.029 101.994 103.406 104.262 101.795L118.13 91.9415C119.686 90.8358 120.831 89.2363 121.382 87.3978L128.287 64.3492C129.197 61.3117 131.69 59.0267 134.773 58.4043L136.907 57.9738C139.006 57.55 141.187 57.9393 143.015 59.0642C147.59 61.8795 152.407 63.0043 157.464 62.4386C161.184 62.0225 166.099 58.9038 172.211 53.0826C174.17 51.2162 176.889 50.3948 179.542 50.8673L197.928 54.1416C198.881 54.3113 199.855 54.316 200.81 54.1554L215.012 51.7667C219.104 51.0785 223 53.4552 224.397 57.2362Z"
          fill="#DAE2EB"/>
    <path d="M149.691 95.8425L116.442 124.168V114.214C116.442 111.516 117.781 108.987 120.032 107.433L133.802 97.9326C135.347 96.8665 136.484 95.3242 137.03 93.5515L143.886 71.3279C144.79 68.3992 147.265 66.1959 150.327 65.5959L152.445 65.1807C153.834 64.9083 157.124 65.0467 162.315 65.5959L172.855 69.4857L189.78 64.4695L194.011 57.5112C203.722 60.0607 208.894 61.3899 209.525 61.499C210.471 61.6627 214.945 61.6538 215.893 61.499L229.994 59.1958C234.056 58.5322 237.925 60.8238 239.312 64.4695L227.881 66.3366C226.933 66.4915 221.754 65.7595 220.807 65.5959L205.293 69.4857L199.485 65.3022L184.843 74.3233H168.624L160.868 73.4062L154.521 77.5527L149.691 95.8425Z"
          fill="white"/>
    <path fill-rule="evenodd" clip-rule="evenodd"
          d="M139.844 113.212L220.408 105.936C222.083 105.785 223.563 107.02 223.715 108.695C223.715 108.7 223.716 108.706 223.716 108.711C223.859 110.399 222.612 111.885 220.926 112.037L140.361 119.313C138.686 119.464 137.206 118.229 137.054 116.554C137.054 116.549 137.053 116.543 137.053 116.538C136.91 114.85 138.157 113.364 139.844 113.212Z"
          fill="black"/>
    <path fill-rule="evenodd" clip-rule="evenodd"
          d="M139.844 150.181L220.408 142.905C222.083 142.754 223.563 143.989 223.715 145.664C223.715 145.669 223.716 145.675 223.716 145.681C223.859 147.368 222.612 148.854 220.926 149.006L140.361 156.282C138.686 156.433 137.206 155.198 137.054 153.523C137.054 153.518 137.053 153.512 137.053 153.507C136.91 151.819 138.157 150.333 139.844 150.181Z"
          fill="black"/>
    <path fill-rule="evenodd" clip-rule="evenodd"
          d="M139.844 131.696L220.408 124.421C222.083 124.27 223.563 125.505 223.715 127.179C223.715 127.185 223.716 127.191 223.716 127.196C223.859 128.884 222.612 130.37 220.926 130.522L140.361 137.798C138.686 137.949 137.206 136.714 137.054 135.039C137.054 135.034 137.053 135.028 137.053 135.022C136.91 133.335 138.157 131.849 139.844 131.696Z"
          fill="black"/>
    <path fill-rule="evenodd" clip-rule="evenodd"
          d="M139.863 168.623L194.701 163.609C196.385 163.455 197.874 164.695 198.028 166.378C198.029 166.385 198.029 166.392 198.03 166.399C198.173 168.099 196.918 169.596 195.22 169.751L140.382 174.766C138.698 174.92 137.209 173.68 137.055 171.997C137.054 171.989 137.054 171.982 137.053 171.975C136.909 170.276 138.164 168.779 139.863 168.623Z"
          fill="black"/>
    <path fill-rule="evenodd" clip-rule="evenodd"
          d="M54.4561 223.629C55.0475 222.13 55.7833 220.93 56.6309 219.791C57.4228 219.249 57.739 218.529 57.784 217.594C57.8241 216.75 57.6098 215.863 57.9537 214.955C58.7883 215.964 58.5386 216.297 59.7024 216.898C60.1112 217.11 59.9084 219.577 59.995 220.051C60.3365 221.927 59.8441 223.216 59.6544 225.011C59.5177 226.307 62.2748 231.056 63.2421 232.347C62.5837 229.639 60.6005 222.3 61.8452 219.833C61.9233 219.678 61.9569 219.419 61.8705 219.288C61.3485 218.494 62.4531 216.336 61.917 215.538C60.0535 212.766 59.3534 212.063 59.7939 208.591C60.0129 206.865 59.168 206.086 59.8258 204.467C59.9361 204.196 59.5691 202.416 59.976 202.229C60.8378 201.834 59.9661 200.833 59.724 200.018C59.1974 198.245 60.8256 196.97 61.2981 195.201C61.714 193.644 61.8008 182.058 61.6416 180.446C61.2695 182.24 60.0612 185.057 59.695 186.849C59.3401 188.584 58.2561 198.799 58.3418 200.61C58.1848 199.653 57.3052 197.573 55.7029 194.372L55.288 184.227C55.4876 178.702 55.5797 175.668 55.5644 175.127C55.4648 175.347 54.583 178.506 52.9188 184.602L53.6135 195.575L56.8031 200.291C56.9342 201.513 57.0164 202.253 57.0497 202.511C57.2722 204.234 56.7611 203.622 55.9602 205.26C54.6701 207.897 56.8243 208.303 56.2989 211.113C56.2341 211.459 55.2782 213.7 55.4907 214.009C56.6836 215.743 56.5738 217.643 56.3681 219.551C55.1944 220.596 54.3208 221.776 54.4561 223.629Z"
          fill="black"/>
    <path fill-rule="evenodd" clip-rule="evenodd"
          d="M97.6607 135.163C98.2459 134.303 99.0209 133.633 99.9305 133.007C100.817 132.737 101.136 132.326 101.123 131.766C101.11 131.261 100.797 130.712 101.135 130.19C102.181 130.856 101.913 131.039 103.314 131.483C103.806 131.64 103.743 133.11 103.877 133.402C104.408 134.555 103.924 135.296 103.829 136.363C103.76 137.133 107.314 140.187 108.534 141.032C107.575 139.355 104.743 134.798 106.023 133.401C106.103 133.314 106.124 133.16 106.014 133.075C105.349 132.56 106.487 131.339 105.805 130.822C103.433 129.021 102.566 128.548 102.836 126.49C102.971 125.466 101.929 124.938 102.584 124.01C102.693 123.855 102.139 122.757 102.601 122.674C103.58 122.497 102.492 121.833 102.152 121.325C101.412 120.221 103.224 119.568 103.651 118.537C104.027 117.63 103.313 110.662 103.014 109.681C102.706 110.734 101.493 112.344 101.191 113.397C100.899 114.416 100.352 120.487 100.579 121.583C100.328 120.996 99.1549 119.682 97.0585 117.642L95.8604 111.507C95.7047 108.195 95.5989 106.376 95.5428 106.049C95.4421 106.175 94.6345 108.013 93.12 111.565L94.7032 118.218L98.7598 121.283C98.9988 122.027 99.1468 122.479 99.204 122.636C99.585 123.689 98.9451 123.285 98.125 124.214C96.804 125.71 99.3482 126.106 98.9323 127.761C98.881 127.964 97.9223 129.245 98.1922 129.446C99.7073 130.574 99.7127 131.71 99.6067 132.844C98.3096 133.39 97.3724 134.038 97.6607 135.163Z"
          fill="black"/>
</svg>
