<svg width="256" height="256" viewBox="0 0 256 256" fill="none" xmlns="http://www.w3.org/2000/svg">
    <g clip-path="url(#clip0_1008_6266)">
        <path d="M97.1801 211.96C97.371 203.454 100.766 195.403 102.901 187.181C105.556 177.085 106.376 166.597 105.323 156.212C104.446 147.535 99.9646 137.851 106.83 130.37C115.545 120.876 122.983 108.572 137.972 106.635C143.693 105.895 149.185 104.262 154.792 103.028L157.595 101.452C160.952 98.2049 166.253 101.452 169.495 97.8442C171.402 94.2175 171.536 91.2934 168.427 87.6098C165.681 84.3819 161.924 80.6413 163.64 75.3057C163.64 69.0018 159.521 63.3055 160.932 56.7927C156.801 50.6799 157.712 42.4894 163.087 37.4252C170.83 25.6149 193.6 21.7034 202.506 31.7289C210.798 40.5995 214.265 52.9171 211.812 64.7865C210.84 69.8373 204.966 72.3816 206.472 78.0779C205.443 80.8312 205.443 84.4388 201.114 84.4578L200.732 84.8566C199.435 89.6794 200.542 94.5213 200.542 99.3442C209.921 105.779 219.798 111.461 230.081 116.338C240.589 121.351 251.497 126.952 253.214 139.541C255.598 157.029 254.53 176.263 255.445 194.055L255.998 204.783C256.666 218.074 96.9706 220.942 97.1801 211.96Z"
              fill="black"/>
        <path d="M138.079 145.809C137.25 138.322 136.593 130.808 136.106 123.27C135.909 119.833 136.658 115.264 140.15 114.86C142.597 144.019 147.663 172.9 155.283 201.175H147.898C143.532 182.982 140.169 164.539 138.079 145.809ZM148.809 130.373C148.184 123.871 148.033 117.333 148.355 110.81C154.687 107.661 164.352 102.861 168.849 106.144C169.5 122.348 173.878 138.475 174.47 154.852C174.434 158.197 174.798 161.534 175.555 164.797C175.963 166.199 176.471 167.572 177.074 168.906C177.385 179.692 178.339 190.435 178.68 201.175C174.093 202.599 170.93 203.311 169.189 203.311C166.906 203.311 164.034 202.599 160.574 201.175C155.553 177.755 152.156 154.155 148.809 130.373Z"
              fill="#DAE2EB"/>
        <path d="M184.827 201.175C184.663 197.975 184.342 194.783 183.863 191.61C183.27 188.709 183.01 185.755 183.089 182.801C183.082 182.281 183.249 181.772 183.565 181.348C184.478 180.348 186.184 181.141 187.315 181.952C196.545 188.708 206.615 194.359 217.296 198.777C218.717 199.385 220.341 200.09 221.404 201.175C209.116 202.599 199.901 203.311 193.757 203.311C191.772 203.311 188.796 202.599 184.827 201.175Z"
              fill="#DAE2EB"/>
        <path d="M131.798 207.584H128.283C124.52 183.367 123.355 158.783 123.269 134.259C123.17 130.832 123.825 127.423 125.189 124.269V124.893C125.189 152.424 126.745 180.05 131.717 207.146C131.744 207.292 131.771 207.438 131.798 207.584ZM155.429 207.584H150.953C145.58 186.508 141.637 165.1 139.154 143.499C138.335 136.064 137.685 128.603 137.204 121.118C136.97 118.468 137.399 115.113 139.154 113.587C139.602 120.393 140.187 127.199 140.928 133.967C143.696 158.982 148.742 183.493 155.429 207.584ZM115.355 207.584H112.85C112.786 206.479 112.724 205.374 112.663 204.269C111.279 181.04 110.317 157.509 114.815 134.678C114.815 134.413 114.815 134.147 114.969 133.882V137.027C112.663 156.144 113.412 175.565 114.585 194.796C114.828 199.056 115.083 203.32 115.355 207.584Z"
              fill="white"/>
        <path d="M161.74 123.032C166.204 151.552 169.294 168.096 168.121 196.902C167.223 216.291 166.625 202.533 164.869 198.911C164.453 198.206 164.079 197.479 163.752 196.733C163.752 196.564 163.752 196.414 163.612 196.245C157.506 170.774 152.203 157.4 148.452 131.479C147.82 125.121 147.667 118.73 147.993 112.352L149.849 111.451C149.829 114.942 161.242 119.503 161.74 123.032Z"
              fill="white"/>
        <path d="M206.83 62.9017C207.144 61.2826 207.4 59.972 207.439 59.625C207.77 55.9081 207.697 52.1671 207.223 48.4652C206.437 42.6829 204.218 36.6693 198.678 34.0673C197.958 33.7308 197.121 33.7308 196.4 34.0673C190.998 26.3575 174.621 29.6583 168.041 35.8839C165.816 37.7031 164.54 40.4053 164.564 43.2467C164.186 43.5992 163.925 44.0563 163.818 44.5574C163.746 44.8802 163.713 45.2101 163.72 45.5404C163.72 45.7331 163.602 45.9451 163.72 45.8488C163.623 46.0474 163.505 46.2349 163.366 46.4077C162.516 47.4285 162.601 48.9176 163.563 49.8385C164.265 50.4643 165.287 50.6021 166.136 50.1855C168.63 48.9905 173.482 51.8238 175.76 52.6911C180.448 54.4213 187.526 52.1932 192.53 52.3779C193.477 52.3605 194.417 52.5242 195.3 52.8597C197.677 54.0162 197.834 57.3314 198.305 60.0105C199.095 64.3878 201.606 68.2851 205.298 70.862C205.298 70.862 206.162 66.2168 206.83 62.9017Z"
              fill="white"/>
        <path d="M170.447 69.7938C169.736 68.8997 171.217 67.0475 171.749 66.0415C171.986 65.5944 172.549 63.6304 173.851 63.3909C174.621 63.2472 174.502 65.7701 174.473 65.9457C174.629 66.5853 174.465 67.2357 173.999 67.8299C173.142 68.6361 171.92 69.3118 170.447 69.7938Z"
              fill="#DAE2EB"/>
        <path d="M245.453 201.175H240.205C240.229 181.263 241.56 153.852 225.629 138.765C226.845 143.608 227.393 148.586 227.26 153.569C227.124 160.49 226.483 167.524 225.688 174.482C225.626 175.451 225.275 176.382 224.678 177.16C223.867 178.019 222.692 178.465 221.496 178.367C219.134 178.287 216.839 177.583 214.858 176.33C212.917 175.086 211.617 172.37 210.142 170.503C206.875 166.43 203.831 162.194 201.02 157.812C196.13 150.061 181.205 128.695 192.617 121.02C194.096 120.184 195.291 118.945 196.052 117.455C197.837 113.024 190.851 109.139 189.511 103.5C189.308 102.817 189.308 102.091 189.511 101.407C189.812 100.735 190.295 100.155 190.909 99.7287L196.013 95.4291C194.693 104.858 200.166 111.59 209.055 114.287C218.254 117.097 227.842 120.265 234.285 127.016C239.623 132.58 242.262 140.029 243.523 147.421C245.29 157.793 244.649 168.316 244.339 178.744C244.111 186.397 244.771 193.744 245.453 201.175Z"
              fill="white"/>
        <path fill-rule="evenodd" clip-rule="evenodd"
              d="M67.4875 202.262C82.1552 186.093 136.056 201.695 120.323 187.822C104.591 173.95 73.1492 182.141 53.6956 187.458C34.2419 192.774 24.6529 207.253 27.2961 213.246C29.9394 219.24 52.8199 218.431 67.4875 202.262Z"
              fill="white"/>
        <path d="M135.075 137.129C144.154 140.538 149.06 142.776 153.835 146.158C160.312 150.746 164.526 156.548 166.244 164.116C168.432 173.758 168.121 201.174 168.121 217.196C168.121 218.654 98.5389 229.662 85.7085 230.104C45.4854 231.489 20.6436 224.906 4.94924 207.151L4.23506 206.343L4.06661 205.284C3.90856 204.29 3.73502 203.298 3.54604 202.309C3.5039 202.088 3.08847 199.954 2.9358 199.151C2.63838 197.587 2.3725 196.119 2.11474 194.591C0.710465 186.267 -0.0843372 178.349 0.00711637 170.765C0.0858623 164.234 0.839471 158.363 2.39987 153.274C5.22506 144.06 15.0179 135.729 23.2725 133.924C24.9268 133.561 32.0925 132.251 39.44 129.666C47.4887 126.834 55.7088 122.712 56.0143 122.412C57.1814 119.382 56.8161 117.758 54.3701 115.321C54.1368 115.09 52.9613 113.946 52.6214 113.609C47.6421 108.675 42.4164 104.776 43.497 99.0711C43.2693 97.1727 42.7 95.4091 41.2728 91.7331C39.0919 86.1161 38.2377 83.0483 38.4479 79.3586C33.024 71.5564 33.2082 57.0383 39.4316 49.7403C48.5659 33.3872 82.8286 26.1555 95.6895 38.2746C106.953 48.4342 112.885 67.3779 111.148 82.3609C110.872 85.0565 110.028 86.8946 108.022 90.1727C107.807 90.5237 107.706 90.6878 107.601 90.8606C105.902 93.6602 105.577 94.8484 106.181 96.5236L106.577 97.622L106.266 98.7468C106.157 99.1421 106.078 99.5143 105.907 100.405C105.417 102.966 102.081 104.327 101.146 105.776C100.203 107.239 98.8801 108.301 97.2166 108.926C97.1001 110.95 97.3536 113.205 97.9923 117.167C98.0578 117.573 98.0864 117.75 98.1224 117.976C98.2899 119.027 98.4193 119.89 98.522 120.677C109.232 126.633 123.581 132.843 135.075 137.129Z"
              fill="black"/>
        <path d="M100.262 77.2793C98.555 74.9819 96.2722 73.6328 93.8586 73.7999C89.2008 74.1223 85.8195 79.9684 86.3062 86.8576C86.6129 91.1987 88.3823 94.9182 90.8146 96.995C90.2524 99.9761 88.4984 96.6263 86.6349 99.3495C85.1009 101.615 84.6205 105.204 83.2373 107.582C80.4555 112.367 73.8819 109.319 68.7331 108.586C61.6882 107.582 57.5988 109.205 53.0759 103.889C52.0152 102.839 49.6141 98.0728 47.6827 91.7477C45.9894 86.2026 45.872 84.1515 44.8628 80.1997C44.3468 78.1791 44.7824 73.7784 44.5782 73.6563C42.5075 72.2394 41.3298 69.8286 41.4798 67.3136C41.4297 66.3512 42.7261 61.7324 43.4469 60.4748C45.6359 56.211 48.4128 51.4349 51.8558 47.8856C52.5199 47.1077 53.3368 46.4769 54.2552 46.033C55.0878 45.6873 55.9999 45.6034 56.831 45.2372C58.0266 44.4645 59.1331 43.5601 60.13 42.5408C61.1686 41.4968 62.7837 41.308 64.0353 42.0843C64.5685 40.6749 66.9583 41.6213 68.2877 40.9282C69.798 40.697 71.3322 40.6663 72.8512 40.837C74.4753 40.7241 75.9482 38.7509 77.5711 40.9406C77.8352 41.4581 78.193 41.9213 78.6261 42.3063C79.1512 42.549 79.7254 42.664 80.3022 42.6421C83.672 42.9834 86.0714 46.6405 89.4472 46.7758C90.2017 46.7001 90.9637 46.7513 91.702 46.9274C95.0308 48.1351 96.9407 53.2447 98.1253 56.1638C99.9436 60.8031 101.02 70.2352 100.262 77.2793Z"
              fill="#DAE2EB"/>
        <path d="M45.0297 76.7875C44.7154 75.1684 44.4601 73.8578 44.4208 73.5108C44.0898 69.7939 44.1622 66.0529 44.6368 62.351C45.4225 56.5687 47.6421 50.5551 53.1813 47.9531C53.9021 47.6166 54.739 47.6166 55.4598 47.9531C60.8615 40.2434 75.1022 40.3397 81.6824 46.5653C83.9069 48.3845 85.1829 51.0867 85.1591 53.9281C85.5376 54.2806 85.7979 54.7377 85.9055 55.2388C85.977 55.5616 86.0099 55.8915 86.0037 56.2218C86.0037 56.4145 86.1216 56.6265 86.0037 56.5302C86.0999 56.7288 86.2185 56.9163 86.3573 57.0891C87.2076 58.1099 87.1223 59.599 86.1608 60.5199C85.4583 61.1457 84.4362 61.2835 83.5877 60.8669C81.0931 59.6719 76.2414 62.5052 73.9629 63.3726C69.2754 65.1027 64.334 66.079 59.3293 66.2637C58.383 66.2463 57.4423 66.41 56.5598 66.7456C54.183 67.902 54.0259 71.2172 53.5545 73.8963C52.7647 78.2736 50.2532 82.1709 46.5618 84.7478C46.5618 84.7478 45.6975 80.1027 45.0297 76.7875Z"
              fill="white"/>
        <path d="M188.01 52.4654C188.58 52.6244 192.457 50.0268 192.712 50.5609C199.097 52.7038 206.784 50.3424 207.643 56.9763C208.066 59.0599 208.277 66.598 206.935 68.1705C206.987 68.5489 206.922 68.9289 206.749 69.2599C206.639 69.4742 206.504 69.6739 206.346 69.855C206.256 69.9625 206.224 70.1373 206.201 70.0269C206.164 70.184 206.144 70.3455 206.143 70.5085C206.152 71.4863 205.407 72.2754 204.425 72.3264C203.73 72.3375 203.08 71.9229 202.789 71.2827C201.918 69.4172 198.395 62.9075 196.684 62.2955C193.189 61.0062 183.619 51.2527 188.01 52.4654Z"
              fill="#DAE2EB"/>
        <path d="M60.4867 131.931C58.8808 136.191 30.1145 150.248 30.2507 152.562C30.3615 154.443 53.29 148.97 59.8792 149.248C61.394 149.312 68.2952 150.566 56.4938 160.601C44.6924 170.637 30.7614 170.939 26.5854 176.267C22.4093 181.595 18.0606 182.838 13.4978 192.115C13.2776 181.806 8.79507 168.22 12.7573 157.446C14.3914 153.003 18.0997 145.622 40.6849 140.168C50.6037 137.773 60.4867 131.931 60.4867 131.931Z"
              fill="white"/>
        <path fill-rule="evenodd" clip-rule="evenodd"
              d="M129.661 214.362C117.643 218.102 105.765 219.853 95.9999 220.709C96.0677 220.666 96.1355 220.623 96.2032 220.581C109.942 211.895 122.306 202.887 131.365 192.412C139.559 183.043 147.069 172.578 149.328 161.441C149.34 161.487 139.942 197.749 129.661 214.362Z"
              fill="#DAE2EB"/>
        <path fill-rule="evenodd" clip-rule="evenodd"
              d="M83.8986 221.196C72.8742 221.574 63.4219 220.994 55.2892 219.706C63.8806 214.543 72.2235 209.27 80.7101 204.073C106.681 188.315 135.211 172.139 134.968 148.547C141.047 150.357 141.601 154.137 140.768 156.724C136.885 168.831 131.554 180.615 122.636 191.3C120.92 193.343 119.084 195.346 117.127 197.308C115.039 199.353 112.801 201.356 110.568 203.338C102.947 209.729 94.2105 215.687 84.4153 221.177C84.2414 221.184 84.0692 221.19 83.8986 221.196Z"
              fill="#DAE2EB"/>
        <path fill-rule="evenodd" clip-rule="evenodd"
              d="M35.0289 208.321C35.8821 205.056 42.3305 192.257 55.0091 179.558C67.4312 167.116 86.0951 154.744 86.3007 154.002C89.1343 146.861 95.6801 140.706 98.5364 133.693C102.869 133.378 107.248 134.895 112.966 137.744C113.721 138.12 117.55 140.449 118.232 140.793C117.674 143.783 116.638 146.662 115.13 149.407C106.822 161.739 67.8596 188.001 56.3949 199.191C55.5452 200.023 71.8039 191.08 73.9479 190.657C74.5695 190.497 75.0475 190.249 75.3462 189.931C90.4914 177.386 118.054 159.661 125.839 144.62C129.248 145.643 129.376 147.884 128.693 149.353C127.232 152.596 125.563 155.791 123.686 158.937C113.828 175.607 80.371 201.377 51.8107 218.258C46.8601 209.199 32.9242 216.445 35.0289 208.321Z"
              fill="#DAE2EB"/>
    </g>
    <defs>
        <clipPath id="clip0_1008_6266">
            <rect width="256" height="256" fill="white"/>
        </clipPath>
    </defs>
</svg>
