<svg width="256" height="256" viewBox="0 0 256 256" fill="none" xmlns="http://www.w3.org/2000/svg">
    <path fill-rule="evenodd" clip-rule="evenodd"
          d="M183.264 225.752C183.144 230.841 180.376 235.091 176.005 236.895L131.933 255.09C127.574 256.889 122.283 255.982 118.051 252.71L75.1496 219.547C70.9169 216.275 68.3842 211.134 68.5041 206.057L72.7572 30.2485C72.8774 25.1589 75.6455 20.9092 80.0158 19.105L124.088 0.910379C128.447 -0.889145 133.738 0.0176194 137.971 3.28962L180.872 36.4532C185.104 39.7252 187.637 44.8662 187.517 49.9427L183.264 225.752Z"
          fill="black"/>
    <path fill-rule="evenodd" clip-rule="evenodd"
          d="M125.214 243.276C125.12 246.829 122.87 248.097 120.187 246.107L81.0873 217.105C78.4048 215.115 76.3062 210.621 76.3999 207.068L77.5707 162.674C77.6644 159.12 79.915 157.853 82.5975 159.843L121.697 188.845C124.38 190.835 126.479 195.329 126.385 198.882L125.214 243.276Z"
          fill="white"/>
    <path fill-rule="evenodd" clip-rule="evenodd"
          d="M125.214 182.941C125.12 186.495 122.87 187.762 120.187 185.773L81.0873 156.77C78.4048 154.78 76.3062 150.286 76.3999 146.733L77.5707 102.339C77.6645 98.7855 79.915 97.518 82.5975 99.5078L121.697 128.51C124.38 130.5 126.479 134.994 126.385 138.547L125.214 182.941Z"
          fill="white"/>
    <path fill-rule="evenodd" clip-rule="evenodd"
          d="M125.214 122.607C125.12 126.16 122.87 127.428 120.187 125.438L81.0873 96.4352C78.4048 94.4454 76.3062 89.9518 76.3999 86.3984L77.5707 42.0042C77.6645 38.4508 79.915 37.1833 82.5975 39.1731L121.697 68.1757C124.38 70.1655 126.479 74.6591 126.385 78.2125L125.214 122.607Z"
          fill="white"/>
    <path fill-rule="evenodd" clip-rule="evenodd"
          d="M132.314 122.42C129.209 123.822 126.753 122.206 126.829 118.809L127.944 69.2984C128.021 65.9016 130.6 62.0105 133.706 60.6075L172.507 43.0785C175.613 41.6755 178.068 43.2918 177.992 46.6886L176.877 96.1996C176.8 99.5964 174.221 103.487 171.115 104.89L132.314 122.42Z"
          fill="#DAE2EB"/>
    <path fill-rule="evenodd" clip-rule="evenodd"
          d="M173.717 161.66C176.853 160.226 179.342 161.889 179.277 165.376L178.279 216.876C178.214 220.362 175.62 224.351 172.485 225.785L132.835 243.306C129.699 244.74 127.211 243.077 127.275 239.591L128.609 188.734C128.673 185.248 131.268 181.259 134.403 179.825L173.717 161.66Z"
          fill="#DAE2EB"/>
    <path fill-rule="evenodd" clip-rule="evenodd"
          d="M173.718 100.439C176.853 99.0046 179.342 100.668 179.277 104.154L178.279 155.654C178.214 159.14 175.62 163.129 172.485 164.564L132.835 182.084C129.7 183.519 127.211 181.855 127.276 178.369L128.609 127.513C128.674 124.027 131.268 120.038 134.403 118.603L173.718 100.439Z"
          fill="#DAE2EB"/>
</svg>
