<svg width="256" height="256" viewBox="0 0 256 256" fill="none" xmlns="http://www.w3.org/2000/svg">
    <g clip-path="url(#clip0_1008_6255)">
        <path d="M240.607 101.167C239.781 95.0451 240.321 92.5158 234.642 89.9646L224.282 90.3117C220.415 88.5745 215.447 83.2508 211.635 84.5484C210.091 85.0738 205.678 83.2399 204.314 82.825C201.636 75.879 182.407 78.6392 178.904 75.4544C176.569 73.3313 172.718 72.4248 167.352 72.735C161.684 70.3963 158.492 69.079 157.775 68.783C156.699 68.339 155.612 68.0131 154.528 67.7976C153.806 67.6565 147.968 70.9539 137.014 77.6913C136.68 78.8358 136.466 79.7051 136.372 80.2993L118.311 194.331C117.041 202.35 121.848 210.545 129.609 213.592L216.459 243.993C218.839 244.928 223.133 246.418 227.875 244.03C234.597 240.646 241.808 238.109 244.21 226.534C246.612 214.96 250.474 179.5 255.799 141.316C256.632 136.052 254.848 130.513 251.016 126.467L242.858 117.856L240.607 101.167Z"
              fill="black"/>
        <path d="M218.797 125.052C218.991 126.487 219.651 127.851 220.671 128.926L229.764 138.507C231.25 140.073 231.943 142.218 231.62 144.257C226.619 175.83 222.869 199.51 220.369 215.297C219.853 218.55 217.446 222.317 213.145 226.597C213.097 226.905 200.53 229.525 197.176 228.211L132.606 204.166C129.596 202.987 135.519 198.584 136.01 195.479C133.015 182.432 132.067 172.441 133.165 165.508C134.471 157.257 137.241 156.924 139.168 144.755C139.864 140.363 139.447 125.84 140.224 120.937C141.292 114.193 143.066 102.992 145.546 87.3319C145.6 86.9868 145.684 86.649 145.794 86.322C146.906 83.0428 150.51 81.4979 153.845 82.8713L164.045 87.0725C164.73 87.3548 165.45 87.5203 166.172 87.5618L180.112 88.3626C182.123 88.4782 184.034 89.5476 185.264 91.2468C189.1 96.5464 192.366 99.67 195.062 100.618C198.727 101.906 202.409 101.921 206.109 100.663C207.587 100.161 209.24 100.255 210.74 100.928L212.264 101.611C214.466 102.598 216.042 104.695 216.363 107.066L218.797 125.052Z"
              fill="#DAE2EB"/>
        <path d="M158.421 82.1827L164.757 87.5995L180.518 91.2939C181.862 91.3708 184.345 90.8598 187.967 89.7608L195.258 102.155C201.851 101.009 206.383 100.017 208.854 99.1773C210.335 98.6743 211.991 98.7684 213.494 99.4409L215.021 100.124C217.228 101.112 218.807 103.209 219.129 105.58L221.572 123.572C221.767 125.007 222.428 126.371 223.451 127.446L232.563 137.028C234.053 138.595 234.747 140.741 234.424 142.78C231.641 162.828 229.586 180.393 228.257 195.475C226.928 210.557 226.494 222.356 226.956 230.871C228.79 230.665 230.072 228.257 230.802 223.647C230.851 223.335 230.967 223.051 231.015 222.744L243.927 141.215C244.25 139.176 243.555 137.031 242.066 135.464L232.953 125.881C231.931 124.806 231.269 123.442 231.074 122.007L228.631 104.015C228.309 101.644 226.73 99.5474 224.523 98.5598L222.996 97.8765C221.494 97.204 219.837 97.1099 218.356 97.6129C214.65 98.8718 210.96 98.8571 207.288 97.5688C204.587 96.6211 201.314 93.497 197.469 88.1964C196.236 86.497 194.322 85.4274 192.307 85.3121L178.341 84.5131C177.617 84.4717 176.896 84.3062 176.209 84.0239L165.988 79.8229C163.044 78.6126 159.89 79.6695 158.421 82.1827Z"
              fill="#DAE2EB"/>
        <path d="M209.527 123.213L230.619 149.552L231.764 142.319C232.074 140.358 231.384 138.288 229.914 136.77L220.923 127.482C219.914 126.44 219.259 125.123 219.062 123.74L216.598 106.404C216.273 104.12 214.713 102.09 212.54 101.124L211.037 100.456C210.051 100.017 207.625 99.5482 203.761 99.0487L195.595 100.051L183.777 93.4757L181.479 87.6869C174.074 87.8583 170.134 87.929 169.659 87.8991C168.948 87.8542 165.672 87.0732 164.996 86.7966L154.934 82.6819C152.035 81.4964 148.939 82.492 147.504 84.901L155.66 88.2366C156.337 88.5132 160.214 88.878 160.926 88.9228L171.839 94.4351L176.574 92.4006L186.259 101.491L198.137 104.298L203.923 104.975L208.094 109.086L209.527 123.213Z"
              fill="white"/>
        <path fill-rule="evenodd" clip-rule="evenodd"
              d="M214.549 137.574L156.545 118.436C155.34 118.038 154.118 118.679 153.817 119.866C153.816 119.87 153.815 119.874 153.814 119.878C153.518 121.076 154.26 122.368 155.474 122.768L213.477 141.906C214.683 142.304 215.904 141.663 216.205 140.476C216.206 140.472 216.207 140.468 216.208 140.464C216.505 139.266 215.763 137.974 214.549 137.574Z"
              fill="black"/>
        <path fill-rule="evenodd" clip-rule="evenodd"
              d="M210.073 164.567L152.07 145.43C150.864 145.032 149.643 145.672 149.342 146.86C149.341 146.864 149.34 146.868 149.339 146.871C149.042 148.07 149.784 149.361 150.998 149.762L209.002 168.899C210.207 169.297 211.429 168.657 211.73 167.469C211.731 167.465 211.732 167.461 211.733 167.457C212.029 166.259 211.288 164.968 210.073 164.567Z"
              fill="black"/>
        <path fill-rule="evenodd" clip-rule="evenodd"
              d="M212.311 151.07L154.308 131.933C153.102 131.535 151.881 132.175 151.58 133.363C151.579 133.367 151.578 133.371 151.577 133.375C151.28 134.573 152.022 135.864 153.236 136.265L211.24 155.402C212.445 155.8 213.667 155.16 213.968 153.972C213.969 153.969 213.97 153.965 213.971 153.961C214.267 152.762 213.526 151.471 212.311 151.07Z"
              fill="black"/>
        <path fill-rule="evenodd" clip-rule="evenodd"
              d="M190.634 174.349L151.155 161.271C149.943 160.869 148.714 161.512 148.41 162.705C148.408 162.71 148.407 162.715 148.406 162.72C148.108 163.927 148.854 165.228 150.077 165.633L189.555 178.712C190.767 179.113 191.996 178.471 192.301 177.277C192.302 177.272 192.303 177.267 192.304 177.262C192.603 176.055 191.857 174.754 190.634 174.349Z"
              fill="black"/>
        <path fill-rule="evenodd" clip-rule="evenodd"
              d="M184.534 176.334C184.462 175.149 184.58 174.119 184.791 173.094C185.151 172.486 185.138 171.906 184.877 171.268C184.641 170.692 184.222 170.167 184.168 169.453C185.04 169.867 184.977 170.167 185.941 170.206C186.28 170.22 186.913 171.93 187.118 172.22C187.931 173.367 188.003 174.381 188.436 175.639C188.748 176.546 192.068 178.859 193.116 179.421C191.833 177.817 188.223 173.534 188.286 171.499C188.29 171.371 188.232 171.187 188.133 171.126C187.538 170.759 187.603 168.974 186.997 168.608C184.889 167.337 184.202 167.085 183.416 164.63C183.024 163.409 182.217 163.152 182.153 161.866C182.142 161.651 181.343 160.576 181.556 160.325C182.008 159.793 181.115 159.396 180.699 158.926C179.796 157.907 180.486 156.548 180.25 155.219C180.043 154.051 176.493 146.286 175.885 145.259C176.195 146.573 176.266 148.831 176.579 150.141C176.882 151.411 179.339 158.569 179.96 159.752C179.558 159.162 178.323 158.047 176.256 156.408L172.82 149.763C171.232 146.011 170.349 143.957 170.17 143.6C170.172 143.778 170.567 146.162 171.354 150.751L175.235 157.862L178.834 160.019C179.302 160.794 179.587 161.262 179.69 161.424C180.375 162.505 179.843 162.256 179.818 163.599C179.778 165.762 181.343 165.362 181.867 167.403C181.932 167.654 181.991 169.448 182.229 169.588C183.566 170.375 184.084 171.677 184.541 173.016C184.083 174.079 183.866 175.139 184.534 176.334Z"
              fill="black"/>
        <path fill-rule="evenodd" clip-rule="evenodd"
              d="M228.018 132.226C228.449 131.592 229.02 131.099 229.691 130.638C230.344 130.439 230.579 130.136 230.569 129.723C230.56 129.351 230.33 128.947 230.578 128.562C231.349 129.053 231.151 129.188 232.184 129.515C232.546 129.63 232.5 130.714 232.599 130.928C232.99 131.778 232.633 132.324 232.563 133.111C232.513 133.678 235.131 135.928 236.03 136.551C235.324 135.315 233.237 131.957 234.18 130.928C234.239 130.864 234.254 130.75 234.173 130.688C233.683 130.309 234.522 129.409 234.019 129.027C232.272 127.701 231.633 127.352 231.832 125.836C231.931 125.082 231.163 124.692 231.646 124.008C231.726 123.894 231.318 123.085 231.659 123.024C232.38 122.893 231.578 122.404 231.327 122.03C230.782 121.216 232.117 120.735 232.432 119.976C232.709 119.307 232.183 114.173 231.963 113.45C231.736 114.226 230.842 115.412 230.62 116.188C230.404 116.939 230.001 121.413 230.169 122.22C229.984 121.788 229.119 120.82 227.575 119.316L226.692 114.796C226.577 112.356 226.499 111.015 226.458 110.774C226.384 110.867 225.788 112.221 224.673 114.839L225.839 119.741L228.828 121.999C229.004 122.547 229.113 122.88 229.155 122.996C229.436 123.772 228.965 123.474 228.36 124.158C227.387 125.261 229.262 125.553 228.955 126.772C228.917 126.922 228.211 127.866 228.41 128.014C229.526 128.845 229.53 129.682 229.452 130.518C228.496 130.92 227.806 131.398 228.018 132.226Z"
              fill="black"/>
        <path fill-rule="evenodd" clip-rule="evenodd"
              d="M135.507 102.402C136.408 102.413 139.236 103.683 139.829 104.119C140.78 104.819 142.407 105.24 142.505 106.275C142.594 107.209 141.43 108.371 140.807 109.428C140.027 110.753 139.267 112.089 138.434 113.39C138.039 114.007 138.06 114.318 138.766 114.57C139.443 114.812 140.036 115.211 140.685 115.511C141.672 115.969 142.333 116.607 142.872 117.564C144.699 120.808 147.358 123.504 149.713 126.395C154.047 131.717 161.903 139.79 165.534 145.585C167.351 148.399 169.37 151.109 170.937 154.053C172.965 157.867 168.121 169.25 167.944 169.612C167.589 170.34 152.445 170.365 150.446 170.109C148.055 169.803 118.658 138.528 116.003 136.701C114.798 135.871 113.734 134.879 112.637 133.986C113.329 132.678 113.401 132.635 112.196 132.82C111.158 132.98 110.111 133.236 109.1 133.565C106.203 134.507 103.969 133.765 102.219 131.914C101.201 130.836 98.8317 127.292 97.8053 127.648C98.1008 124.489 99.7136 121.685 101.626 119.057C103.874 115.966 105.687 112.474 108.166 109.527C108.858 108.703 111.31 105.57 113.805 104.697C116.407 103.787 130.565 102.343 135.507 102.402Z"
              fill="black"/>
        <path fill-rule="evenodd" clip-rule="evenodd"
              d="M130.717 105.14C129.113 108.977 127.264 112.761 124.445 115.877C121.564 119.064 117.788 121.036 113.88 122.506C110.282 123.858 106.558 124.197 102.86 124.649C103.227 122.975 104.397 121.652 105.193 120.174C106.759 117.271 108.445 114.414 110.24 111.633C111.671 109.415 113.583 107.833 116.267 107.334C121.078 106.44 125.889 105.644 130.717 105.14Z"
              fill="#DAE2EB"/>
        <path fill-rule="evenodd" clip-rule="evenodd"
              d="M102.919 128.345C109.14 127.932 114.806 125.793 120.349 123.08C121.546 122.494 122.041 122.73 122.595 123.657C123.833 125.726 123.874 125.639 121.301 126.814C116.57 128.974 111.594 129.806 106.77 131.448C106.233 131.63 105.977 131.36 105.685 131.066C104.839 130.213 103.973 129.379 102.919 128.345Z"
              fill="#DAE2EB"/>
        <path fill-rule="evenodd" clip-rule="evenodd"
              d="M132.223 105.857C132.946 106.855 133.598 107.789 134.289 108.691C134.531 109.007 134.5 109.281 134.305 109.592C132.3 112.79 130.917 116.35 128.465 119.288C128.125 119.696 127.76 120.085 127.383 120.459C125.59 122.235 124.896 122.225 123.277 120.533C122.993 120.236 123.07 120.05 123.275 119.836C127.157 115.784 129.248 110.61 132.223 105.857Z"
              fill="#DAE2EB"/>
        <path fill-rule="evenodd" clip-rule="evenodd"
              d="M137.026 119.526C138.759 123.599 141.842 126.635 144.515 129.927C146.63 132.531 148.814 135.087 150.957 137.672C154.656 142.136 158.385 146.581 162.017 151.091C162.986 152.294 163.654 153.704 164.443 155.029C164.532 155.178 164.562 155.392 164.528 155.57C164.077 157.951 163.716 160.341 162.927 162.691C162.802 163.061 162.794 163.656 162.342 163.716C161.901 163.774 161.486 163.444 161.17 163.074C159.705 161.36 158.202 159.675 156.691 157.995C148.106 148.447 137.999 140.223 128.143 131.782C127.837 131.52 127.563 131.217 127.212 131.011C126.37 130.515 126.323 130.075 127.144 129.284C130.417 126.129 133.612 122.91 137.026 119.526Z"
              fill="white"/>
        <path fill-rule="evenodd" clip-rule="evenodd"
              d="M163.226 163.879C158.604 163.449 155.604 163.763 151.216 163.372C150.733 163.329 144.077 157.089 143.87 156.768C139.443 149.894 132.86 144.887 126.418 139.754C123.632 137.534 120.928 135.232 118.035 132.843C121.051 132.051 123.941 131.432 126.744 130.508C128.744 129.849 129.842 130.392 131.08 131.586C137.624 137.905 144.623 143.826 150.75 150.511C153.18 153.162 155.605 155.817 158.168 158.618L163.226 163.879Z"
              fill="#B5C1C9"/>
        <path fill-rule="evenodd" clip-rule="evenodd"
              d="M34.7463 84.2385C30.474 82.3537 25.8239 81.6333 21.2834 80.5992C20.3161 80.3788 19.4489 80.8576 18.5736 81.2148C17.8324 81.5172 17.0072 82.3826 16.2794 81.4976C15.54 80.5982 14.3481 79.7675 14.8369 78.3245C14.9732 77.9211 15.0108 77.6312 14.8499 77.26C11.6251 69.8026 12.9874 62.2778 15.0352 54.8592C17.6162 45.509 21.2259 36.5205 25.7683 27.8806C28.2883 23.088 32.0865 19.7622 36.6833 17.0158C38.7583 15.7764 40.332 13.7392 42.7388 12.9189C42.8821 12.8701 43.0272 12.6665 43.1333 12.6905C44.9041 13.0955 46.2087 12.1102 47.681 11.3789C49.5769 10.4367 50.8286 11.3568 52.1103 12.9813C56.503 18.5472 61.9147 22.9646 68.5086 25.8576C69.6911 26.3764 71.3008 25.2854 71.4548 23.8905C71.742 21.2807 71.9531 18.6629 72.216 15.8276C73.7323 16.8273 74.9416 16.2743 76.3037 15.4182C78.4069 14.0948 80.6816 13.503 83.2389 14.4265C86.823 15.7208 90.4816 16.7889 93.4798 19.2764C94.9255 20.476 95.184 25.053 93.7671 26.2544C90.1162 29.3518 89.9641 29.6275 87.6311 34.163C87.0055 35.3784 87.2567 35.7889 88.4381 36.3971C97.861 41.249 107.973 44.101 118.321 46.2554C119.589 46.5194 120.154 46.9863 120.565 48.1653C121.2 49.9898 121.335 52.8063 120.855 57.3912C120.268 63.0043 118.911 70.4616 118.303 72.024C116.129 77.6183 113.747 83.0791 109.91 87.8079C104.272 94.7558 93.3803 105.428 85.4435 110.039C84.3404 110.68 80.8949 109.298 76.3646 106.886C76.4135 107.136 76.4551 107.423 76.4871 107.764C75.9119 107.058 75.3416 106.488 74.7751 106.023C73.8492 105.511 72.8877 104.965 71.8998 104.391C68.7546 103.239 65.672 103.636 62.4552 99.6845C61.3776 104.926 56.8882 107.736 55.8611 112.608C55.4367 114.621 56.1728 116.18 55.7434 118.192C54.8727 122.272 52.7831 126.793 51.5265 130.787C51.1333 132.037 50.8392 133.298 49.7782 134.265C48.8913 135.074 49.8604 136.156 49.4625 137.196C47.368 142.674 45.4404 148.212 43.4617 153.732C41.9392 157.981 40.4048 162.21 37.5353 165.847C36.8149 166.76 36.6489 165.384 35.6333 166.069C33.0634 167.803 24.3134 173.733 24.0571 167.971C18.0067 168.892 14.8495 167.886 8.71114 167.869C6.14817 167.862 5.59277 167.362 3.71803 165.494C2.23924 164.021 1.84379 163.2 0.00101949 163.15C-0.0346073 161.61 0.871964 160.4 1.39599 159.095C6.86855 145.472 15.4666 133.699 24.1599 121.961C26.2704 119.111 34.3993 93.3787 38.8672 84.6986C37.4466 84.8568 36.1473 84.8567 34.7463 84.2385Z"
              fill="black"/>
        <path fill-rule="evenodd" clip-rule="evenodd"
              d="M32.8746 161.347C29.1874 161.497 25.5708 162.098 22.0123 162.805C17.9374 163.614 14.7874 161.519 11.1884 159.836C14.7346 156.992 28.4884 157.953 32.8746 161.347Z"
              fill="white"/>
        <path fill-rule="evenodd" clip-rule="evenodd"
              d="M45.3853 93.1001L45.3889 93.1479C46.2516 93.363 45.91 92.7974 45.8783 92.4325C46.902 90.2168 48.0636 88.0476 48.3917 85.5929C50.9239 85.7328 53.3616 86.3005 55.7565 87.0653C57.6302 87.6634 58.6742 88.963 58.5968 90.8565C58.3179 97.6324 57.4738 104.333 52.7898 109.803C44.8629 119.062 39.753 130.001 33.2551 140.11C31.9366 142.161 30.0574 150.345 26.0361 153.476C22.3417 156.352 16.4686 154.27 15.6308 154.354C13.7702 154.539 11.9194 154.835 9.71941 155.128C12.5377 151.078 15.1808 147.236 17.8687 143.425C22.9231 136.259 27.3718 128.747 31.3452 120.97C31.8998 119.885 33.3195 119.396 33.3263 118.003C33.4495 117.836 33.5718 117.669 33.6946 117.502L33.6295 117.568C34.3062 117.08 34.642 116.444 34.5406 115.615L34.5222 115.639C35.215 115.601 35.3831 115.139 35.425 114.574C35.425 114.574 35.365 114.657 35.365 114.657C36.1688 113.662 36.9206 112.643 37.6242 111.599C38.4654 110.352 39.2377 109.072 39.9474 107.761C41.7006 104.522 43.0718 101.098 44.1574 97.5364C44.6649 96.0828 46.325 94.924 45.3853 93.1001Z"
              fill="#DAE2EB"/>
        <path fill-rule="evenodd" clip-rule="evenodd"
              d="M110.047 178.915C110.4 179.545 109.525 179.836 107.66 179.854C108.025 179.422 108.979 179.153 110.047 178.915Z"
              fill="white"/>
        <path fill-rule="evenodd" clip-rule="evenodd"
              d="M110.142 64.4083C113.002 65.8359 113.057 65.8434 111.72 68.6239C108.278 75.7774 108.19 80.7752 102.757 86.69C101.713 87.8264 101.139 88.2354 99.7512 86.8293C91.2624 78.2324 81.1046 71.8571 70.5137 66.0798C62.2814 61.5891 54.1031 57.0042 45.8652 52.5236C44.5439 51.8052 44.2073 51.1642 44.7377 49.6452C47.2175 42.5442 48.4097 35.1684 49.235 27.7503C49.4275 26.0151 49.3347 24.2544 49.5488 22.4795C49.8123 20.2903 50.5498 21.006 51.6593 21.661C55.1315 23.7093 58.7263 25.5725 62.0963 27.769C75.0305 36.2003 84.9512 41.095 99.6954 45.437C104.09 46.7307 108.872 51.288 113.45 49.7762C115.094 49.2334 116.314 49.9443 116.349 51.8726C116.428 56.1553 115.446 58.533 114.186 62.6017C113.729 64.0791 112.943 63.0507 112.406 62.826C105.32 59.857 98.2546 56.8383 91.1782 53.8466C90.4685 53.5461 89.7202 53.3344 88.9897 53.0819C88.2567 52.5739 87.5501 51.9449 86.3509 52.6675C87.1647 53.0113 87.8388 53.2961 88.5125 53.5805C95.7216 57.1906 102.928 60.8068 110.142 64.4083Z"
              fill="#DAE2EB"/>
        <path fill-rule="evenodd" clip-rule="evenodd"
              d="M97.2852 86.9997C97.3105 88.6835 97.6093 90.359 97.6188 92.0834C97.6311 94.2102 96.8464 93.6096 95.7165 93.1099C92.1805 91.5475 88.5505 90.1764 85.0936 88.4603C71.8259 81.873 61.8375 78.326 47.3439 75.8628C43.0239 75.1292 37.946 71.3146 33.7888 73.2886C32.2952 73.9975 31.0535 73.457 30.7897 71.6143C30.2026 67.5219 37.913 59.175 44.9778 61.2265C45.6864 61.4327 44.8177 55.0282 45.5403 55.186C46.2958 55.5883 58.0757 68.2343 59.1257 67.4044C58.3133 67.1687 57.6403 66.9735 56.9678 66.7786C49.7032 64.1501 97.1795 79.8008 97.2852 86.9997Z"
              fill="#DAE2EB"/>
        <path fill-rule="evenodd" clip-rule="evenodd"
              d="M48.4629 27.6826C48.6535 25.9219 48.5596 24.135 48.7717 22.3342C49.0328 20.1128 49.7685 20.8399 50.875 21.5056C54.3379 23.5877 57.9228 25.482 61.2838 27.7144C74.1838 36.2833 84.077 41.2603 98.7783 45.6814C103.16 46.9986 107.931 51.628 112.493 50.0985C114.132 49.5493 115.349 50.272 115.385 52.2288C115.466 56.5749 47.6458 35.2095 48.4629 27.6826Z"
              fill="white"/>
        <path fill-rule="evenodd" clip-rule="evenodd"
              d="M82.1255 22.6861C82.1972 22.6495 82.2866 22.628 82.338 22.574C86.1913 18.5202 86.6814 18.5174 91.1234 22.7388C89.0706 22.8305 88.7208 24.3736 88.0996 25.6913C87.5593 26.8373 87.021 27.9847 86.4708 29.1261C84.6766 32.8488 84.6746 32.848 80.8946 31.2612C73.0562 27.9708 72.8999 27.6508 74.572 19.3777C74.718 18.6533 74.9034 18.2213 75.6894 18.1165C76.5663 17.9992 77.4363 17.6942 78.3069 17.6946C82.9503 17.6977 83.3872 18.3355 81.6514 22.3637C81.4995 22.6277 81.3185 22.9137 81.7075 23.0992C81.7627 23.1259 81.9817 22.8317 82.1255 22.6861Z"
              fill="#DAE2EB"/>
        <path fill-rule="evenodd" clip-rule="evenodd"
              d="M19.583 71.6144C22.5318 63.3925 24.5039 54.9636 26.2099 46.5773C28.1657 36.975 35.194 31.7351 41.7823 25.1778C44.4197 35.2516 30.3368 64.7012 19.583 71.6144Z"
              fill="white"/>
        <path fill-rule="evenodd" clip-rule="evenodd"
              d="M53.6542 111.586C53.7169 111.339 53.7797 111.093 53.8418 110.846C53.8835 110.891 53.9534 110.928 53.961 110.982C54.0057 111.287 53.9707 111.551 53.7442 111.681C53.7445 111.681 53.6542 111.586 53.6542 111.586Z"
              fill="#B5C1C9"/>
    </g>
    <defs>
        <clipPath id="clip0_1008_6255">
            <rect width="256" height="256" fill="white"/>
        </clipPath>
    </defs>
</svg>
