<svg width="16" height="16" viewBox="0 0 16 16" fill="none" xmlns="http://www.w3.org/2000/svg">
<path d="M1.31507 8.76151L2.91351 7.16308L8.83668 13.0862L7.23824 14.6847C7.03629 14.8866 6.76241 15 6.47685 15C6.19128 15 5.91741 14.8866 5.71545 14.6847L1.31507 10.2843C1.11318 10.0823 0.999756 9.80847 0.999756 9.52291C0.999756 9.23734 1.11318 8.96347 1.31507 8.76151Z" fill="#F4F6F8"/>
<path fill-rule="evenodd" clip-rule="evenodd" d="M10.2509 11.672L4.32772 5.74886L4.33115 5.74543L1.29283 2.70711L2.70705 1.29289L5.74537 4.33121L9.07658 1H14.9998V6.92317L11.6685 10.2544L14.707 13.2929L13.2928 14.7071L10.2543 11.6686L10.2509 11.672ZM11.7689 5.30776C11.9819 5.30776 12.1901 5.2446 12.3672 5.12627C12.5444 5.00793 12.6824 4.83973 12.7639 4.64295C12.8454 4.44616 12.8667 4.22963 12.8252 4.02072C12.7836 3.81182 12.6811 3.61992 12.5304 3.46931C12.3798 3.3187 12.1879 3.21613 11.979 3.17457C11.7701 3.13302 11.5536 3.15435 11.3568 3.23586C11.16 3.31737 10.9918 3.4554 10.8735 3.63251C10.7552 3.80961 10.692 4.01782 10.692 4.23082C10.692 4.51644 10.8055 4.79037 11.0074 4.99233C11.2094 5.1943 11.4833 5.30776 11.7689 5.30776Z" fill="#F4F6F8"/>
</svg>
