<svg width="16" height="16" viewBox="0 0 16 16" fill="none" xmlns="http://www.w3.org/2000/svg">
<path d="M3 2H1V14H3V9H7L7 14H9L9 2H7L7 7L3 7V2Z" fill="#F4F6F8"/>
<path d="M14.5819 8.85722C13.9659 8.01715 12.7021 8.04542 12.1242 8.91222L11.5839 9.72269L12.416 10.2774L12.9563 9.46692C13.1489 9.17799 13.5702 9.16856 13.7755 9.44859L13.8324 9.5262C13.9608 9.70131 13.9615 9.9393 13.8342 10.1152L11.5962 13.2052C11.3561 13.5366 11.5931 14 12.0019 14H14.9999V13H12.9795L14.6441 10.7018C15.0262 10.1741 15.0241 9.46018 14.6388 8.93483L14.5819 8.85722Z" fill="#F4F6F8"/>
</svg>
