<svg width="16" height="16" viewBox="0 0 16 16" fill="none" xmlns="http://www.w3.org/2000/svg">
<path d="M8.46445 2.12132C9.18242 1.40335 10.1562 1 11.1716 1C13.2859 1 15 2.71405 15 4.82843C15 5.84379 14.5966 6.81756 13.8787 7.53553L11.5355 9.87868C10.8176 10.5967 9.84378 11 8.82841 11C7.77122 11 6.81412 10.5715 6.12131 9.87868L7.53552 8.46447C7.8664 8.79535 8.32351 9 8.82841 9C9.31334 9 9.77841 8.80736 10.1213 8.46447L12.4645 6.12132C12.8074 5.77842 13 5.31336 13 4.82843C13 3.81861 12.1814 3 11.1716 3C10.6866 3 10.2216 3.19264 9.87867 3.53553L9.2071 4.20711L7.79288 2.79289L8.46445 2.12132Z" fill="#F4F6F8"/>
<path d="M7.17157 5C8.22877 5 9.18587 5.42851 9.87868 6.12132L8.46447 7.53553C8.13359 7.20465 7.67648 7 7.17157 7C6.68664 7 6.22158 7.19264 5.87868 7.53553L3.53553 9.87868C3.19264 10.2216 3 10.6866 3 11.1716C3 12.1814 3.81861 13 4.82843 13C5.31335 13 5.77843 12.8074 6.12132 12.4645L6.79289 11.7929L8.20711 13.2071L7.53553 13.8787C6.81756 14.5966 5.84379 15 4.82843 15C2.71404 15 1 13.286 1 11.1716C1 10.1562 1.40335 9.18244 2.12132 8.46447L4.46447 6.12132C5.18244 5.40335 6.15621 5 7.17157 5Z" fill="#F4F6F8"/>
</svg>
