<svg width="16" height="16" viewBox="0 0 16 16" fill="none" xmlns="http://www.w3.org/2000/svg">
<path fill-rule="evenodd" clip-rule="evenodd" d="M3.7335 2.94784C3.30863 3 2.87242 3 2 3V6.67545C2 7.20912 2 7.47596 2.01463 7.71754C2.20146 10.8024 4.14849 13.5038 7.01601 14.6566C7.24057 14.7469 7.49371 14.8312 8 15C8.50629 14.8312 8.75943 14.7469 8.98399 14.6566C11.8515 13.5038 13.7985 10.8024 13.9854 7.71754C14 7.47596 14 7.20912 14 6.67545V3C13.1276 3 12.6914 3 12.2665 2.94784C11.4685 2.84988 10.6934 2.6152 9.97514 2.25407C9.59269 2.0618 9.22975 1.81983 8.50385 1.3359L8 1L7.49615 1.3359C6.77025 1.81983 6.40731 2.0618 6.02486 2.25407C5.30658 2.6152 4.53146 2.84988 3.7335 2.94784ZM10 6C10 6.74028 9.5978 7.38663 9 7.73244V12H7V7.73244C6.4022 7.38663 6 6.74028 6 6C6 4.89543 6.89543 4 8 4C9.10457 4 10 4.89543 10 6Z" fill="white"/>
</svg>
