<svg width="16" height="16" viewBox="0 0 16 16" fill="none" xmlns="http://www.w3.org/2000/svg">
<path d="M9 4C9 2.34315 10.3431 1 12 1C13.6569 1 15 2.34315 15 4C15 5.65685 13.6569 7 12 7C10.3431 7 9 5.65685 9 4Z" fill="white"/>
<path d="M1 7H3V15H1V7Z" fill="#F4F6F8"/>
<path d="M10.2747 8.79278L4 7V13L8.16572 14.6663C8.71684 14.8867 9.30497 15 9.89855 15C10.6229 15 11.3373 14.8314 11.9852 14.5074L15 13V12.5C15 11.6716 14.3284 11 13.5 11H10.8311C10.6383 11 10.4458 11.0159 10.2557 11.0476L8.59743 11.324C7.80104 11.4567 6.98957 11.1967 6.41867 10.6258L6.14645 10.3536C5.95118 10.1583 5.95118 9.84171 6.14645 9.64645C6.34171 9.45118 6.65829 9.45118 6.85355 9.64645L7.12577 9.91867C7.46832 10.2612 7.9552 10.4172 8.43303 10.3376L10.0913 10.0612C10.3357 10.0205 10.5832 10 10.8311 10H11V9.7543C11 9.30782 10.704 8.91543 10.2747 8.79278Z" fill="#F4F6F8"/>
</svg>
