<svg width="16" height="16" viewBox="0 0 16 16" fill="none" xmlns="http://www.w3.org/2000/svg">
<path fill-rule="evenodd" clip-rule="evenodd" d="M1 2C1 1.44772 1.44772 1 2 1H14C14.5523 1 15 1.44772 15 2V9C15 9.55229 14.5523 10 14 10H2C1.44772 10 1 9.55229 1 9V2ZM8 8C9.38071 8 10.5 6.88071 10.5 5.5C10.5 4.11929 9.38071 3 8 3C6.61929 3 5.5 4.11929 5.5 5.5C5.5 6.88071 6.61929 8 8 8Z" fill="#F4F6F8"/>
<path d="M7.99996 12C6.13612 12 4.57002 13.2748 4.12598 15H11.8739C11.4299 13.2748 9.8638 12 7.99996 12Z" fill="#F4F6F8"/>
</svg>
