<svg width="16" height="16" viewBox="0 0 16 16" fill="none" xmlns="http://www.w3.org/2000/svg">
<path d="M8.00029 4.65058L7.33678 4.06241L6.99008 3.75507C5.75023 2.65601 3.85417 2.77013 2.7551 4.00998C1.65617 5.24968 1.77014 7.14545 3.00957 8.24457C3.00961 8.24461 3.00966 8.24464 3.0097 8.24468C3.0098 8.24477 3.00991 8.24487 3.01001 8.24496L8.00126 12.6642L12.9906 8.24448L8.00029 4.65058ZM8.00029 4.65058L8.66365 4.06225M8.00029 4.65058L8.66365 4.06225M8.66365 4.06225L9.00947 3.75555M8.66365 4.06225L9.00947 3.75555M9.00947 3.75555C10.2491 2.65619 12.1451 2.76986 13.2445 4.00944M9.00947 3.75555L13.2445 4.00944M13.2445 4.00944C14.3437 5.24888 14.2302 7.14467 12.9911 8.24409L13.2445 4.00944Z" stroke="#F4F6F8" stroke-width="2" stroke-linecap="round"/>
</svg>
