<svg width="16" height="16" viewBox="0 0 16 16" fill="none" xmlns="http://www.w3.org/2000/svg">
<path fill-rule="evenodd" clip-rule="evenodd" d="M1.31532 8.76151C1.11342 8.96347 1 9.23734 1 9.52291C1 9.80847 1.11342 10.0823 1.31532 10.2843L5.71569 14.6847C5.91765 14.8866 6.19152 15 6.47709 15C6.76266 15 7.03653 14.8866 7.23849 14.6847L15 6.92317V1H9.07683L1.31532 8.76151ZM12.3667 5.12619C12.1896 5.24453 11.9813 5.30769 11.7683 5.30769C11.4827 5.30769 11.2088 5.19423 11.0068 4.99226C10.8049 4.7903 10.6914 4.51637 10.6914 4.23075C10.6914 4.01775 10.7546 3.80954 10.8729 3.63243C10.9912 3.45533 11.1594 3.3173 11.3562 3.23579C11.553 3.15428 11.7695 3.13295 11.9784 3.1745C12.1874 3.21606 12.3792 3.31862 12.5299 3.46924C12.6805 3.61985 12.783 3.81174 12.8246 4.02065C12.8661 4.22956 12.8448 4.44609 12.7633 4.64288C12.6818 4.83966 12.5438 5.00786 12.3667 5.12619Z" fill="#F4F6F8"/>
</svg>
