<svg width="16" height="16" viewBox="0 0 16 16" fill="none" xmlns="http://www.w3.org/2000/svg">
<path fill-rule="evenodd" clip-rule="evenodd" d="M8 14.5C11.5899 14.5 14.5 11.5899 14.5 8C14.5 4.41015 11.5899 1.5 8 1.5C4.41015 1.5 1.5 4.41015 1.5 8C1.5 11.5899 4.41015 14.5 8 14.5ZM9.96758 6.8327H11.75C11.693 6.3815 11.5628 5.98099 11.3593 5.63118C11.1586 5.28137 10.8981 4.98606 10.578 4.74525C10.2579 4.5019 9.89026 4.31686 9.47518 4.19011C9.06281 4.06337 8.61517 4 8.13226 4C7.39976 4 6.7405 4.15716 6.1545 4.47148C5.5685 4.78327 5.10458 5.23701 4.76275 5.8327C4.42092 6.42839 4.25 7.15082 4.25 8C4.25 8.84664 4.4182 9.56781 4.75461 10.1635C5.09373 10.7592 5.55494 11.2142 6.13823 11.5285C6.72423 11.8428 7.3889 12 8.13226 12C8.66671 12 9.14555 11.9252 9.56877 11.7757C9.99471 11.6236 10.361 11.4183 10.6675 11.1597C10.9768 10.8986 11.2223 10.6033 11.4041 10.2738C11.5886 9.9417 11.7039 9.59696 11.75 9.23954L9.96758 9.23194C9.92689 9.4398 9.85364 9.62484 9.74783 9.78707C9.64474 9.9493 9.51451 10.0875 9.35716 10.2015C9.19981 10.3131 9.0194 10.398 8.81593 10.4563C8.61517 10.5146 8.39677 10.5437 8.16074 10.5437C7.74023 10.5437 7.36991 10.4474 7.04978 10.2548C6.72965 10.0621 6.48006 9.77693 6.301 9.39924C6.12466 9.02155 6.03649 8.55513 6.03649 8C6.03649 7.46008 6.12466 7.00127 6.301 6.62357C6.47735 6.24335 6.72558 5.95437 7.04571 5.75665C7.36584 5.5564 7.74159 5.45627 8.17295 5.45627C8.41169 5.45627 8.6328 5.48796 8.83627 5.55133C9.04246 5.6147 9.22423 5.70596 9.38158 5.8251C9.53893 5.94423 9.6678 6.08872 9.76818 6.25856C9.86856 6.42586 9.93502 6.61724 9.96758 6.8327Z" fill="#F4F6F8"/>
</svg>
