<svg width="16" height="16" viewBox="0 0 16 16" fill="none" xmlns="http://www.w3.org/2000/svg">
<path fill-rule="evenodd" clip-rule="evenodd" d="M8 15C11.866 15 15 11.866 15 8C15 4.13401 11.866 1 8 1C4.13401 1 1 4.13401 1 8C1 11.866 4.13401 15 8 15ZM8.00001 7C9.10458 7 10 6.10457 10 5C10 3.89543 9.10458 3 8.00001 3C6.89544 3 6.00001 3.89543 6.00001 5C6.00001 6.10457 6.89544 7 8.00001 7ZM8.00001 13C10.0176 13 11.756 11.805 12.5462 10.0842C11.4459 8.80795 9.81732 8 8.00001 8C6.1827 8 4.55409 8.80795 3.4538 10.0842C4.244 11.805 5.98245 13 8.00001 13Z" fill="#F4F6F8"/>
</svg>
