<svg width="17" height="16" viewBox="0 0 17 16" fill="none" xmlns="http://www.w3.org/2000/svg">
<path d="M6.76819 2.38887C7.00149 1.9439 7.19935 1.47955 7.35921 0.99999L11.5592 5.19999C11.0796 5.35984 10.6153 5.55771 10.1703 5.79101C9.76729 6.00232 9.38015 6.2427 9.01199 6.51024L14.338 11.2444C14.7968 11.6523 15.0593 12.2369 15.0593 12.8508C15.0593 14.0378 14.0971 15 12.9101 15C12.2962 15 11.7116 14.7375 11.3038 14.2786L6.56955 8.95265C6.30197 9.32084 6.06156 9.70803 5.85022 10.1111C5.61692 10.5561 5.41906 11.0204 5.2592 11.5L1.0592 7.29999C1.53876 7.14014 2.00311 6.94228 2.44809 6.70898C3.28454 6.27043 4.05254 5.70665 4.72445 5.03474L5.09396 4.66524C5.76587 3.99333 6.32964 3.22533 6.76819 2.38887Z" fill="#F4F6F8"/>
</svg>
