<svg width="24" height="24" viewBox="0 0 24 24" fill="none" xmlns="http://www.w3.org/2000/svg">
<path d="M8.69933 7.46037C9.38207 7.76217 10.4836 8 12 8C13.5164 8 14.6179 7.76217 15.3007 7.46037C15.8772 7.20553 16 7 16 7H18C18 8.13137 17.039 8.87865 16.1093 9.28963C15.0953 9.73783 13.6969 10 12 10C10.3031 10 8.90467 9.73783 7.89073 9.28963C6.961 8.87865 6 8.13137 6 7H8C8 7 8.12281 7.20553 8.69933 7.46037Z" fill="#F4F6F8"/>
<path fill-rule="evenodd" clip-rule="evenodd" d="M22 8C22 4.68629 17.5228 2 12 2C6.47715 2 2 4.68629 2 8V16C2 17.9088 3.38084 19.4266 5.1504 20.4097C6.95383 21.4116 9.37749 22 12 22C14.6225 22 17.0462 21.4116 18.8496 20.4097C20.6192 19.4266 22 17.9088 22 16L22 8ZM20 8C20 8.67834 19.5313 9.63413 18.0421 10.5277C16.5927 11.3973 14.4613 12 12 12C9.53874 12 7.40732 11.3973 5.95792 10.5277C4.46872 9.63413 4 8.67834 4 8C4 7.32166 4.46872 6.36587 5.95792 5.47235C7.40732 4.60271 9.53874 4 12 4C14.4613 4 16.5927 4.60271 18.0421 5.47235C19.5313 6.36587 20 7.32166 20 8ZM20 11.6006C18.1755 13.0576 15.2712 14 12 14C8.7288 14 5.82446 13.0576 4 11.6006V12C4 12.8526 4.63388 13.8348 6.12168 14.6614C7.57561 15.4691 9.65195 16 12 16C14.3481 16 16.4244 15.4691 17.8783 14.6614C19.3661 13.8348 20 12.8526 20 12V11.6006ZM4 16V15.6457C4.35466 15.9277 4.74219 16.1829 5.1504 16.4097C6.95383 17.4116 9.37749 18 12 18C14.6225 18 17.0462 17.4116 18.8496 16.4097C19.2578 16.1829 19.6453 15.9277 20 15.6457V16C20 16.8526 19.3661 17.8348 17.8783 18.6614C16.4244 19.4691 14.3481 20 12 20C9.65195 20 7.57561 19.4691 6.12168 18.6614C4.63388 17.8348 4 16.8526 4 16Z" fill="#F4F6F8"/>
</svg>
