<svg width="16" height="16" viewBox="0 0 16 16" fill="none" xmlns="http://www.w3.org/2000/svg">
<path fill-rule="evenodd" clip-rule="evenodd" d="M3 1H1V3H3L4.81063 10.2425C4.92193 10.6877 5.32191 11 5.78078 11H12.5714C13.0179 11 13.4103 10.704 13.533 10.2747L14.9615 5.27472C15.144 4.6359 14.6644 4 14 4H5L4.22792 1.68377C4.09181 1.27543 3.70967 1 3.27924 1H3ZM7 13.5C7 14.3284 6.32843 15 5.5 15C4.67157 15 4 14.3284 4 13.5C4 12.6716 4.67157 12 5.5 12C6.32843 12 7 12.6716 7 13.5ZM11.5 15C12.3284 15 13 14.3284 13 13.5C13 12.6716 12.3284 12 11.5 12C10.6716 12 10 12.6716 10 13.5C10 14.3284 10.6716 15 11.5 15Z" fill="#F4F6F8"/>
</svg>
