<svg width="16" height="16" viewBox="0 0 16 16" fill="none" xmlns="http://www.w3.org/2000/svg">
<path fill-rule="evenodd" clip-rule="evenodd" d="M8.69751 1.28083C8.30225 0.857927 7.63159 0.857927 7.23634 1.28083L6.1354 2.45879C5.93826 2.66972 5.65958 2.78515 5.37103 2.7754L3.75961 2.72094C3.18108 2.70139 2.70685 3.17562 2.7264 3.75415L2.78086 5.36557C2.79061 5.65412 2.67518 5.9328 2.46425 6.12993L1.2863 7.23088C0.863389 7.62613 0.86339 8.29679 1.2863 8.69205L2.46425 9.79299C2.67518 9.99013 2.79061 10.2688 2.78086 10.5574L2.7264 12.1688C2.70685 12.7473 3.18108 13.2215 3.75961 13.202L5.37103 13.1475C5.65958 13.1378 5.93826 13.2532 6.1354 13.4641L7.23634 14.6421C7.63159 15.065 8.30226 15.065 8.69751 14.6421L9.79845 13.4641C9.99559 13.2532 10.2743 13.1378 10.5628 13.1475L12.1742 13.202C12.7528 13.2215 13.227 12.7473 13.2074 12.1688L13.153 10.5574C13.1432 10.2688 13.2587 9.99013 13.4696 9.79299L14.6476 8.69205C15.0705 8.29679 15.0705 7.62613 14.6476 7.23088L13.4696 6.12993C13.2587 5.9328 13.1432 5.65412 13.153 5.36557L13.2074 3.75415C13.227 3.17562 12.7528 2.70139 12.1742 2.72094L10.5628 2.7754C10.2743 2.78515 9.99559 2.66972 9.79845 2.45879L8.69751 1.28083ZM11.7304 6.39471L10.5997 5.264L6.90082 8.96282L5.33409 7.39609L4.20338 8.5268L6.90082 11.2242L11.7304 6.39471Z" fill="#F4F6F8"/>
</svg>
