<svg width="16" height="16" viewBox="0 0 16 16" fill="none" xmlns="http://www.w3.org/2000/svg">
<path d="M9.00008 1.75C9.00008 1.33579 8.66429 1 8.25008 1C7.83587 1 7.50008 1.33579 7.50008 1.75V6.08579L6.50008 5.08579V2.75C6.50008 2.33579 6.16429 2 5.75008 2C5.33587 2 5.00008 2.33579 5.00008 2.75V3.58579L2.70718 1.29289L1.29297 2.70711L13.293 14.7071L14.7072 13.2929L13.5127 12.0984C13.6391 11.8063 13.7379 11.4982 13.8056 11.1769L13.8296 11.063C13.9429 10.5251 14.0001 9.97679 14.0001 9.42702V3.75C14.0001 3.33579 13.6643 3 13.2501 3C12.8359 3 12.5001 3.33579 12.5001 3.75V8H11.5001V2.75C11.5001 2.33579 11.1643 2 10.7501 2C10.3359 2 10.0001 2.33579 10.0001 2.75V8H9.41429L9.00008 7.58579V1.75Z" fill="#F4F6F8"/>
<path d="M10.3399 14.8364C9.94061 14.9433 9.52236 15 9.09304 15C7.16073 15 5.35627 14.0343 4.28441 12.4265L2.15476 9.23202C2.0539 9.08073 2.00008 8.90297 2.00008 8.72115C2.00008 7.90027 2.99286 7.48952 3.57283 8.07044L10.3399 14.8364Z" fill="#F4F6F8"/>
</svg>
