<svg width="16" height="16" viewBox="0 0 16 16" fill="none" xmlns="http://www.w3.org/2000/svg">
<path d="M2 4C2 5.10457 2.89543 6 4 6C4 4.69137 4.62842 3.52951 5.59995 2.79974C5.23506 2.31411 4.65421 2 4 2C2.89543 2 2 2.89543 2 4Z" fill="#F4F6F8"/>
<path d="M4 7C4.04233 7 4.08451 7.00066 4.12653 7.00196C4.22492 7.38343 4.37817 7.74285 4.57737 8.07131C3.01961 9.1551 2 10.9585 2 13H1C0.447715 13 0 12.5523 0 12V11C0 8.79086 1.79086 7 4 7Z" fill="#F4F6F8"/>
<path d="M4 13C4 11.494 4.83229 10.1824 6.062 9.5C6.63612 9.81858 7.29688 10 8 10C8.70312 10 9.36388 9.81858 9.938 9.5C11.1677 10.1824 12 11.494 12 13V14C12 14.5523 11.5523 15 11 15H5C4.44772 15 4 14.5523 4 14V13Z" fill="#F4F6F8"/>
<path d="M14 13C14 10.9585 12.9804 9.1551 11.4226 8.07131C11.6218 7.74285 11.7751 7.38343 11.8735 7.00196C11.9155 7.00066 11.9577 7 12 7C14.2091 7 16 8.79086 16 11V12C16 12.5523 15.5523 13 15 13H14Z" fill="#F4F6F8"/>
<path d="M14 4C14 5.10457 13.1046 6 12 6C12 4.69137 11.3716 3.52951 10.4 2.79974C10.7649 2.31411 11.3458 2 12 2C13.1046 2 14 2.89543 14 4Z" fill="#F4F6F8"/>
<path d="M8 8C9.10457 8 10 7.10457 10 6C10 4.89543 9.10457 4 8 4C6.89543 4 6 4.89543 6 6C6 7.10457 6.89543 8 8 8Z" fill="#F4F6F8"/>
</svg>
