<svg width="16" height="16" viewBox="0 0 16 16" fill="none" xmlns="http://www.w3.org/2000/svg">
<path fill-rule="evenodd" clip-rule="evenodd" d="M2 6C2 5.44772 2.44772 5 3 5H13C13.5523 5 14 5.44772 14 6V13C14 13.5523 13.5523 14 13 14H3C2.44772 14 2 13.5523 2 13V6ZM7.38955 11.7921C7.74929 12.0693 8.25067 12.0693 8.6104 11.7921L11.8104 9.32596C12.2478 8.98883 12.3292 8.36091 11.992 7.92346C11.6549 7.48601 11.027 7.40468 10.5895 7.74181L7.99998 9.73749L5.41041 7.74181C4.97296 7.40468 4.34504 7.48601 4.00791 7.92346C3.67079 8.36092 3.75211 8.98884 4.18957 9.32596L7.38955 11.7921Z" fill="#F4F6F8"/>
</svg>
