<svg width="16" height="16" viewBox="0 0 16 16" fill="none" xmlns="http://www.w3.org/2000/svg">
<path d="M9 1.75C9 1.33579 8.66421 1 8.25 1C7.83579 1 7.5 1.33579 7.5 1.75V8H6.5V2.75C6.5 2.33579 6.16421 2 5.75 2C5.33579 2 5 2.33579 5 2.75V9.5L3.57275 8.07044C2.99278 7.48952 2 7.90027 2 8.72115C2 8.90297 2.05382 9.08073 2.15468 9.23202L4.28434 12.4265C5.35619 14.0343 7.16065 15 9.09296 15C11.3701 15 13.336 13.4051 13.8055 11.1769L13.8295 11.063C13.9429 10.5251 14 9.97679 14 9.42702V3.75C14 3.33579 13.6642 3 13.25 3C12.8358 3 12.5 3.33579 12.5 3.75V8H11.5V2.75C11.5 2.33579 11.1642 2 10.75 2C10.3358 2 10 2.33579 10 2.75V8H9V1.75Z" fill="#F4F6F8"/>
</svg>
