<svg width="16" height="16" viewBox="0 0 16 16" fill="none" xmlns="http://www.w3.org/2000/svg">
<path d="M1 2H3V7L7 7L7 2H9L9 14H7L7 9H3V14H1V2Z" fill="#F4F6F8"/>
<path d="M11.8134 8.87856C12.388 8.01669 13.6005 7.88047 14.352 8.59336C14.9135 9.12604 14.9677 10.0022 14.4762 10.6L14.1473 11L14.4762 11.4C14.9677 11.9978 14.9135 12.874 14.352 13.4066C13.6005 14.1195 12.388 13.9833 11.8134 13.1214L11.584 12.7773L12.416 12.2226L12.6454 12.5667C12.8759 12.9125 13.3623 12.9671 13.6638 12.6811C13.8446 12.5096 13.862 12.2276 13.7037 12.0351L13.2638 11.5H12.5V10.5L13.2638 10.5L13.7037 9.96494C13.862 9.77245 13.8446 9.49036 13.6638 9.31885C13.3623 9.03289 12.8759 9.08753 12.6454 9.43326L12.416 9.77737L11.584 9.22267L11.8134 8.87856Z" fill="#F4F6F8"/>
</svg>
