<svg width="16" height="16" viewBox="0 0 16 16" fill="none" xmlns="http://www.w3.org/2000/svg">
<path d="M3.7 1.4C3.88885 1.14819 4.18524 1 4.5 1H11.5C11.8148 1 12.1111 1.14819 12.3 1.4L14.8 4.73333C14.9298 4.90643 15 5.11696 15 5.33333V6.72914L14.5547 7.02601C14.2188 7.24994 13.7812 7.24994 13.4453 7.02601L12.6641 6.50521C11.6564 5.83341 10.3436 5.83341 9.3359 6.50521L8.5547 7.02601C8.2188 7.24994 7.7812 7.24994 7.4453 7.02601L6.6641 6.50521C5.6564 5.83341 4.3436 5.83341 3.3359 6.50521L2.5547 7.02601C2.2188 7.24994 1.7812 7.24994 1.4453 7.02601L1 6.72914V5.33333C1 5.11696 1.07018 4.90643 1.2 4.73333L3.7 1.4Z" fill="#F4F6F8"/>
<path d="M3 9.02254V14C3 14.5523 3.44772 15 4 15H12C12.5523 15 13 14.5523 13 14V9.02253C12.7691 8.94089 12.5459 8.83008 12.3359 8.69011L11.5547 8.16931C11.2188 7.94537 10.7812 7.94537 10.4453 8.16931L9.6641 8.69011C8.6564 9.36191 7.3436 9.36191 6.3359 8.69011L5.5547 8.16931C5.2188 7.94537 4.7812 7.94537 4.4453 8.16931L3.6641 8.69011C3.45414 8.83008 3.23093 8.94089 3 9.02254Z" fill="#F4F6F8"/>
</svg>
