<svg width="16" height="16" viewBox="0 0 16 16" fill="none" xmlns="http://www.w3.org/2000/svg">
<path d="M9 3C9 3.42101 8.73983 3.78126 8.37149 3.92872L9.90308 7.7577C9.95196 7.87989 10.1035 7.92238 10.2088 7.84342L13.2 5.60004C13.0744 5.4329 13 5.22514 13 5C13 4.44772 13.4477 4 14 4C14.5523 4 15 4.44772 15 5C15 5.55228 14.5523 6 14 6C13.9047 6 13.8125 5.98667 13.7252 5.96177L12.0414 11.8549C12.0169 11.9408 11.9384 12 11.8491 12H4.15086C4.06156 12 3.98309 11.9408 3.95856 11.8549L2.27479 5.96177C2.18748 5.98667 2.0953 6 2 6C1.44772 6 1 5.55228 1 5C1 4.44772 1.44772 4 2 4C2.55228 4 3 4.44772 3 5C3 5.22514 2.9256 5.4329 2.80005 5.60004L5.79123 7.84342C5.89651 7.92238 6.04804 7.87989 6.09692 7.7577L7.62851 3.92872C7.26017 3.78126 7 3.42101 7 3C7 2.44772 7.44772 2 8 2C8.55228 2 9 2.44772 9 3Z" fill="#F4F6F8"/>
<path d="M4 14.1667C4 14.0746 4.07462 14 4.16667 14H11.8333C11.9254 14 12 14.0746 12 14.1667C12 14.6269 11.6269 15 11.1667 15H4.83333C4.3731 15 4 14.6269 4 14.1667Z" fill="#F4F6F8"/>
</svg>
