<svg width="16" height="16" viewBox="0 0 16 16" fill="none" xmlns="http://www.w3.org/2000/svg">
<path fill-rule="evenodd" clip-rule="evenodd" d="M8.13742 4.00175C7.54108 3.98656 6.95829 4.07067 6.45228 4.23673C5.94255 4.40401 5.56279 4.63688 5.32112 4.87617C5.08353 5.11143 5.01025 5.31813 5.00113 5.465C4.99231 5.60694 5.03651 5.79658 5.22631 6.02145C5.27289 6.07664 5.43147 6.21374 5.74478 6.38172C6.03423 6.53691 6.39846 6.68777 6.79926 6.8051L9.69067 7.48278L9.69852 7.48475C9.9253 7.5418 10.4 7.67435 10.8715 7.8484C11.1066 7.93521 11.3609 8.0396 11.5906 8.15847C11.7926 8.26299 12.0871 8.43374 12.3021 8.68856C12.7684 9.24093 13.0408 9.92287 12.9951 10.659C12.9497 11.3902 12.5991 12.0372 12.0862 12.545C11.5774 13.0488 10.9065 13.4223 10.1714 13.6636C9.43259 13.906 8.62027 14.0182 7.81175 13.9976C7.00357 13.977 6.2037 13.8239 5.49022 13.5412C4.78081 13.2602 4.14455 12.8456 3.68792 12.2995C3.49774 12.0721 3.30158 11.8069 3.17072 11.4614C3.03904 11.1138 3.00146 10.7607 3.00369 10.3875L5.00366 10.3995C5.00226 10.6327 5.02754 10.7173 5.04104 10.7529C5.05536 10.7908 5.08671 10.8545 5.22216 11.0165C5.41681 11.2493 5.74873 11.4924 6.22686 11.6818C6.70092 11.8696 7.266 11.9831 7.86266 11.9983C8.459 12.0134 9.04179 11.9293 9.5478 11.7633C10.0575 11.596 10.4373 11.3631 10.679 11.1238C10.9166 10.8886 10.9898 10.6819 10.999 10.535C11.0074 10.3993 10.9674 10.2201 10.7981 10.0081C10.7836 9.99836 10.7453 9.97294 10.6714 9.9347C10.543 9.86824 10.3729 9.79627 10.1789 9.72465C9.79724 9.58377 9.39998 9.47228 9.21813 9.42622L6.29266 8.74057L6.26833 8.73355C5.7329 8.5791 5.228 8.37397 4.79975 8.14437C4.38974 7.92455 3.97936 7.64487 3.69793 7.31144C3.23172 6.75907 2.95924 6.07713 3.00498 5.34097C3.05041 4.60975 3.40101 3.96284 3.91391 3.45499C4.42272 2.95118 5.09354 2.57769 5.82865 2.33644C6.56748 2.09397 7.37981 1.98181 8.18833 2.0024C8.99651 2.02298 9.79639 2.17611 10.5099 2.45877C11.2193 2.73981 11.8555 3.15444 12.3122 3.70048C12.5023 3.9279 12.6985 4.19313 12.8294 4.53861C12.961 4.88624 12.9986 5.23926 12.9964 5.61252L10.9964 5.60053C10.9978 5.36726 10.9725 5.28271 10.959 5.24705C10.9447 5.20925 10.9134 5.14546 10.7779 4.98349C10.5833 4.75073 10.2513 4.50758 9.77322 4.31816C9.29916 4.13035 8.73408 4.01694 8.13742 4.00175Z" fill="#F4F6F8"/>
<path d="M7.00004 1H9.00004V15H7.00004V1Z" fill="#F4F6F8"/>
</svg>
