<svg width="32" height="32" viewBox="0 0 32 32" fill="none" xmlns="http://www.w3.org/2000/svg">
<g clip-path="url(#clip0_603_266)">
<path d="M21.7526 12.6585L20.2474 11.3415L13.9513 18.5371L11.7071 16.2929L10.2929 17.7071L14.0487 21.4629L21.7526 12.6585Z" fill="#0EB152"/>
<path fill-rule="evenodd" clip-rule="evenodd" d="M16 0C7.16344 0 0 7.16344 0 16C0 24.8366 7.16344 32 16 32C24.8366 32 32 24.8366 32 16C32 7.16344 24.8366 0 16 0ZM2 16C2 8.26801 8.26801 2 16 2C23.732 2 30 8.26801 30 16C30 23.732 23.732 30 16 30C8.26801 30 2 23.732 2 16Z" fill="#0EB152"/>
</g>
<defs>
<clipPath id="clip0_603_266">
<rect width="32" height="32" fill="white"/>
</clipPath>
</defs>
</svg>
