<svg width="32" height="32" viewBox="0 0 32 32" fill="none" xmlns="http://www.w3.org/2000/svg">
<g clip-path="url(#clip0_603_274)">
<path d="M17 10V18H15V10H17Z" fill="#CAA802"/>
<path d="M17 22V20H15V22H17Z" fill="#CAA802"/>
<path fill-rule="evenodd" clip-rule="evenodd" d="M0 16C0 7.16344 7.16344 0 16 0C24.8366 0 32 7.16344 32 16C32 24.8366 24.8366 32 16 32C7.16344 32 0 24.8366 0 16ZM16 2C8.26801 2 2 8.26801 2 16C2 23.732 8.26801 30 16 30C23.732 30 30 23.732 30 16C30 8.26801 23.732 2 16 2Z" fill="#CAA802"/>
</g>
<defs>
<clipPath id="clip0_603_274">
<rect width="32" height="32" fill="white"/>
</clipPath>
</defs>
</svg>
