<svg width="144" height="144" viewBox="0 0 144 144" fill="none" xmlns="http://www.w3.org/2000/svg">
<path d="M144 71.9735V63.9703C109.139 62.9327 81.0673 34.8613 80.0297 6.99663e-07L72.0265 0C73.0687 39.28 104.72 70.9313 144 71.9735Z" fill="url(#paint0_radial_2642_492)"/>
<path d="M88.0338 1.3994e-06C89.0654 30.4425 113.557 54.9346 144 55.9662V47.9607C117.976 46.937 97.063 26.0236 96.0393 2.09926e-06L88.0338 1.3994e-06Z" fill="url(#paint1_radial_2642_492)"/>
<path d="M144 40C121.909 40 104 22.0914 104 2.79521e-06L112 3.49459e-06C112 17.6731 126.327 32 144 32V40Z" fill="url(#paint2_radial_2642_492)"/>
<path d="M120 4.19398e-06C120 13.2548 130.745 24 144 24V16C135.163 16 128 8.83656 128 4.89336e-06L120 4.19398e-06Z" fill="url(#paint3_radial_2642_492)"/>
<path d="M144 8C139.582 8 136 4.41829 136 5.59274e-06L144 6.29212e-06V8Z" fill="url(#paint4_radial_2642_492)"/>
<path d="M1.49091e-05 8.00002C4.4183 8.00002 8.00001 4.41829 8.00001 1.87545e-05L1.52588e-05 1.84048e-05L1.49091e-05 8.00002Z" fill="url(#paint5_radial_2642_492)"/>
<path d="M24 1.94539e-05C24 13.2549 13.2548 24 1.42097e-05 24L1.45594e-05 16C8.83657 16 16 8.83657 16 1.91042e-05L24 1.94539e-05Z" fill="url(#paint6_radial_2642_492)"/>
<path d="M63.9703 2.15509e-05H71.9735C70.9313 39.28 39.28 70.9313 1.21127e-05 71.9735L1.24626e-05 63.9703C34.8613 62.9327 62.9327 34.8613 63.9703 2.15509e-05Z" fill="url(#paint7_radial_2642_492)"/>
<path d="M55.9662 2.15509e-05C54.9346 30.4426 30.4426 54.9346 1.28124e-05 55.9662L1.31624e-05 47.9607C26.0236 46.937 46.937 26.0237 47.9607 2.15509e-05H55.9662Z" fill="url(#paint8_radial_2642_492)"/>
<path d="M1.35103e-05 40C22.0914 40 40 22.0914 40 2.15509e-05H32C32 17.6731 17.6731 32 1.386e-05 32L1.35103e-05 40Z" fill="url(#paint9_radial_2642_492)"/>
<path d="M0 72.0265V80.0297C34.8613 81.0673 62.9327 109.139 63.9703 144H71.9735C70.9312 104.72 39.28 73.0687 0 72.0265Z" fill="url(#paint10_radial_2642_492)"/>
<path d="M55.9662 144C54.9346 113.557 30.4425 89.0654 0 88.0338V96.0393C26.0236 97.063 46.937 117.976 47.9607 144H55.9662Z" fill="url(#paint11_radial_2642_492)"/>
<path d="M0 104C22.0914 104 40 121.909 40 144H32C32 126.327 17.6731 112 0 112V104Z" fill="url(#paint12_radial_2642_492)"/>
<path d="M24 144C24 130.745 13.2548 120 0 120V128C8.83655 128 16 135.163 16 144H24Z" fill="url(#paint13_radial_2642_492)"/>
<path d="M0 136C4.41827 136 8 139.582 8 144H0V136Z" fill="url(#paint14_radial_2642_492)"/>
<path d="M72.0265 144H80.0297C81.0673 109.139 109.139 81.0673 144 80.0297V72.0265C104.72 73.0687 73.0687 104.72 72.0265 144Z" fill="url(#paint15_radial_2642_492)"/>
<path d="M144 88.0338C113.557 89.0654 89.0654 113.557 88.0338 144H96.0393C97.063 117.976 117.976 97.063 144 96.0393V88.0338Z" fill="url(#paint16_radial_2642_492)"/>
<path d="M104 144C104 121.909 121.909 104 144 104V112C126.327 112 112 126.327 112 144H104Z" fill="url(#paint17_radial_2642_492)"/>
<path d="M144 120C130.745 120 120 130.745 120 144H128C128 135.163 135.163 128 144 128V120Z" fill="url(#paint18_radial_2642_492)"/>
<path d="M136 144C136 139.582 139.582 136 144 136V144H136Z" fill="url(#paint19_radial_2642_492)"/>
<defs>
<radialGradient id="paint0_radial_2642_492" cx="0" cy="0" r="1" gradientUnits="userSpaceOnUse" gradientTransform="translate(72 140.444) rotate(177.482) scale(80.9256 185.247)">
<stop stop-color="#0FD4B9"/>
<stop offset="0.671875" stop-color="#49C9B9"/>
<stop offset="1" stop-color="#2CAD9F"/>
</radialGradient>
<radialGradient id="paint1_radial_2642_492" cx="0" cy="0" r="1" gradientUnits="userSpaceOnUse" gradientTransform="translate(72 140.444) rotate(177.482) scale(80.9256 185.247)">
<stop stop-color="#0FD4B9"/>
<stop offset="0.671875" stop-color="#49C9B9"/>
<stop offset="1" stop-color="#2CAD9F"/>
</radialGradient>
<radialGradient id="paint2_radial_2642_492" cx="0" cy="0" r="1" gradientUnits="userSpaceOnUse" gradientTransform="translate(72 140.444) rotate(177.482) scale(80.9256 185.247)">
<stop stop-color="#0FD4B9"/>
<stop offset="0.671875" stop-color="#49C9B9"/>
<stop offset="1" stop-color="#2CAD9F"/>
</radialGradient>
<radialGradient id="paint3_radial_2642_492" cx="0" cy="0" r="1" gradientUnits="userSpaceOnUse" gradientTransform="translate(72 140.444) rotate(177.482) scale(80.9256 185.247)">
<stop stop-color="#0FD4B9"/>
<stop offset="0.671875" stop-color="#49C9B9"/>
<stop offset="1" stop-color="#2CAD9F"/>
</radialGradient>
<radialGradient id="paint4_radial_2642_492" cx="0" cy="0" r="1" gradientUnits="userSpaceOnUse" gradientTransform="translate(72 140.444) rotate(177.482) scale(80.9256 185.247)">
<stop stop-color="#0FD4B9"/>
<stop offset="0.671875" stop-color="#49C9B9"/>
<stop offset="1" stop-color="#2CAD9F"/>
</radialGradient>
<radialGradient id="paint5_radial_2642_492" cx="0" cy="0" r="1" gradientUnits="userSpaceOnUse" gradientTransform="translate(72 140.444) rotate(177.482) scale(80.9256 185.247)">
<stop stop-color="#0FD4B9"/>
<stop offset="0.671875" stop-color="#49C9B9"/>
<stop offset="1" stop-color="#2CAD9F"/>
</radialGradient>
<radialGradient id="paint6_radial_2642_492" cx="0" cy="0" r="1" gradientUnits="userSpaceOnUse" gradientTransform="translate(72 140.444) rotate(177.482) scale(80.9256 185.247)">
<stop stop-color="#0FD4B9"/>
<stop offset="0.671875" stop-color="#49C9B9"/>
<stop offset="1" stop-color="#2CAD9F"/>
</radialGradient>
<radialGradient id="paint7_radial_2642_492" cx="0" cy="0" r="1" gradientUnits="userSpaceOnUse" gradientTransform="translate(72 140.444) rotate(177.482) scale(80.9256 185.247)">
<stop stop-color="#0FD4B9"/>
<stop offset="0.671875" stop-color="#49C9B9"/>
<stop offset="1" stop-color="#2CAD9F"/>
</radialGradient>
<radialGradient id="paint8_radial_2642_492" cx="0" cy="0" r="1" gradientUnits="userSpaceOnUse" gradientTransform="translate(72 140.444) rotate(177.482) scale(80.9256 185.247)">
<stop stop-color="#0FD4B9"/>
<stop offset="0.671875" stop-color="#49C9B9"/>
<stop offset="1" stop-color="#2CAD9F"/>
</radialGradient>
<radialGradient id="paint9_radial_2642_492" cx="0" cy="0" r="1" gradientUnits="userSpaceOnUse" gradientTransform="translate(72 140.444) rotate(177.482) scale(80.9256 185.247)">
<stop stop-color="#0FD4B9"/>
<stop offset="0.671875" stop-color="#49C9B9"/>
<stop offset="1" stop-color="#2CAD9F"/>
</radialGradient>
<radialGradient id="paint10_radial_2642_492" cx="0" cy="0" r="1" gradientUnits="userSpaceOnUse" gradientTransform="translate(72 140.444) rotate(177.482) scale(80.9256 185.247)">
<stop stop-color="#0FD4B9"/>
<stop offset="0.671875" stop-color="#49C9B9"/>
<stop offset="1" stop-color="#2CAD9F"/>
</radialGradient>
<radialGradient id="paint11_radial_2642_492" cx="0" cy="0" r="1" gradientUnits="userSpaceOnUse" gradientTransform="translate(72 140.444) rotate(177.482) scale(80.9256 185.247)">
<stop stop-color="#0FD4B9"/>
<stop offset="0.671875" stop-color="#49C9B9"/>
<stop offset="1" stop-color="#2CAD9F"/>
</radialGradient>
<radialGradient id="paint12_radial_2642_492" cx="0" cy="0" r="1" gradientUnits="userSpaceOnUse" gradientTransform="translate(72 140.444) rotate(177.482) scale(80.9256 185.247)">
<stop stop-color="#0FD4B9"/>
<stop offset="0.671875" stop-color="#49C9B9"/>
<stop offset="1" stop-color="#2CAD9F"/>
</radialGradient>
<radialGradient id="paint13_radial_2642_492" cx="0" cy="0" r="1" gradientUnits="userSpaceOnUse" gradientTransform="translate(72 140.444) rotate(177.482) scale(80.9256 185.247)">
<stop stop-color="#0FD4B9"/>
<stop offset="0.671875" stop-color="#49C9B9"/>
<stop offset="1" stop-color="#2CAD9F"/>
</radialGradient>
<radialGradient id="paint14_radial_2642_492" cx="0" cy="0" r="1" gradientUnits="userSpaceOnUse" gradientTransform="translate(72 140.444) rotate(177.482) scale(80.9256 185.247)">
<stop stop-color="#0FD4B9"/>
<stop offset="0.671875" stop-color="#49C9B9"/>
<stop offset="1" stop-color="#2CAD9F"/>
</radialGradient>
<radialGradient id="paint15_radial_2642_492" cx="0" cy="0" r="1" gradientUnits="userSpaceOnUse" gradientTransform="translate(72 140.444) rotate(177.482) scale(80.9256 185.247)">
<stop stop-color="#0FD4B9"/>
<stop offset="0.671875" stop-color="#49C9B9"/>
<stop offset="1" stop-color="#2CAD9F"/>
</radialGradient>
<radialGradient id="paint16_radial_2642_492" cx="0" cy="0" r="1" gradientUnits="userSpaceOnUse" gradientTransform="translate(72 140.444) rotate(177.482) scale(80.9256 185.247)">
<stop stop-color="#0FD4B9"/>
<stop offset="0.671875" stop-color="#49C9B9"/>
<stop offset="1" stop-color="#2CAD9F"/>
</radialGradient>
<radialGradient id="paint17_radial_2642_492" cx="0" cy="0" r="1" gradientUnits="userSpaceOnUse" gradientTransform="translate(72 140.444) rotate(177.482) scale(80.9256 185.247)">
<stop stop-color="#0FD4B9"/>
<stop offset="0.671875" stop-color="#49C9B9"/>
<stop offset="1" stop-color="#2CAD9F"/>
</radialGradient>
<radialGradient id="paint18_radial_2642_492" cx="0" cy="0" r="1" gradientUnits="userSpaceOnUse" gradientTransform="translate(72 140.444) rotate(177.482) scale(80.9256 185.247)">
<stop stop-color="#0FD4B9"/>
<stop offset="0.671875" stop-color="#49C9B9"/>
<stop offset="1" stop-color="#2CAD9F"/>
</radialGradient>
<radialGradient id="paint19_radial_2642_492" cx="0" cy="0" r="1" gradientUnits="userSpaceOnUse" gradientTransform="translate(72 140.444) rotate(177.482) scale(80.9256 185.247)">
<stop stop-color="#0FD4B9"/>
<stop offset="0.671875" stop-color="#49C9B9"/>
<stop offset="1" stop-color="#2CAD9F"/>
</radialGradient>
</defs>
</svg>
