<svg width="192" height="192" viewBox="0 0 192 192" fill="none" xmlns="http://www.w3.org/2000/svg">
<g clip-path="url(#clip0_2633_1237)">
<path d="M96.0001 167.974C56.72 166.931 25.0687 135.28 24.0266 96.0001L96.0001 96.0001L96.0001 167.974Z" fill="white"/>
</g>
<g clip-path="url(#clip1_2633_1237)">
<path d="M167.974 95.9999C166.931 135.28 135.28 166.931 96.0001 167.973L96.0001 95.9999L167.974 95.9999Z" fill="white"/>
</g>
<path d="M96 96H24V24H96V96Z" fill="white"/>
<path fill-rule="evenodd" clip-rule="evenodd" d="M168 90.3603V96H162.36L96 29.6403V24H101.64L168 90.3603ZM96 41.28V52.5345L139.466 96H150.72L96 41.28ZM96 74.9197V63.6L128.4 96H117.08L96 74.9197ZM96 96H106.08L96 85.92V96ZM113.28 24H124.534L168 67.4655V78.72L113.28 24ZM146.92 24H135.6L168 56.4V45.0803L146.92 24ZM168 34.08L157.92 24H168V34.08Z" fill="white"/>
<defs>
<clipPath id="clip0_2633_1237">
<rect width="72" height="72" fill="white" transform="translate(96 168) rotate(-180)"/>
</clipPath>
<clipPath id="clip1_2633_1237">
<rect width="72" height="72" fill="white" transform="translate(168 96) rotate(90)"/>
</clipPath>
</defs>
</svg>
