<svg width="144" height="144" viewBox="0 0 144 144" fill="none" xmlns="http://www.w3.org/2000/svg">
<path d="M0 0L144 8.58591e-07L144 79.9999H72V72L0 72V0Z" fill="url(#paint0_radial_2642_490)"/>
<path d="M72 136H144V144H72V136Z" fill="url(#paint1_radial_2642_490)"/>
<path d="M72 87.9999L144 87.9999V95.9999L72 95.9999V87.9999Z" fill="url(#paint2_radial_2642_490)"/>
<path d="M72 120L144 120V128L72 128V120Z" fill="url(#paint3_radial_2642_490)"/>
<path d="M72 104L144 104V112L72 112V104Z" fill="url(#paint4_radial_2642_490)"/>
<path d="M8 72L8 144H3.14722e-06L0 72L8 72Z" fill="url(#paint5_radial_2642_490)"/>
<path d="M72 72V144L64 144V72L72 72Z" fill="url(#paint6_radial_2642_490)"/>
<path d="M56 72L56 144H48L48 72H56Z" fill="url(#paint7_radial_2642_490)"/>
<path d="M24 72L24 144H16L16 72H24Z" fill="url(#paint8_radial_2642_490)"/>
<path d="M40 72L40 144H32L32 72H40Z" fill="url(#paint9_radial_2642_490)"/>
<defs>
<radialGradient id="paint0_radial_2642_490" cx="0" cy="0" r="1" gradientUnits="userSpaceOnUse" gradientTransform="translate(72 140.444) rotate(177.482) scale(80.9256 185.247)">
<stop stop-color="#C5C7C3"/>
<stop offset="0.671875" stop-color="#817D78"/>
<stop offset="1" stop-color="#615D6A"/>
</radialGradient>
<radialGradient id="paint1_radial_2642_490" cx="0" cy="0" r="1" gradientUnits="userSpaceOnUse" gradientTransform="translate(72 140.444) rotate(177.482) scale(80.9256 185.247)">
<stop stop-color="#C5C7C3"/>
<stop offset="0.671875" stop-color="#817D78"/>
<stop offset="1" stop-color="#615D6A"/>
</radialGradient>
<radialGradient id="paint2_radial_2642_490" cx="0" cy="0" r="1" gradientUnits="userSpaceOnUse" gradientTransform="translate(72 140.444) rotate(177.482) scale(80.9256 185.247)">
<stop stop-color="#C5C7C3"/>
<stop offset="0.671875" stop-color="#817D78"/>
<stop offset="1" stop-color="#615D6A"/>
</radialGradient>
<radialGradient id="paint3_radial_2642_490" cx="0" cy="0" r="1" gradientUnits="userSpaceOnUse" gradientTransform="translate(72 140.444) rotate(177.482) scale(80.9256 185.247)">
<stop stop-color="#C5C7C3"/>
<stop offset="0.671875" stop-color="#817D78"/>
<stop offset="1" stop-color="#615D6A"/>
</radialGradient>
<radialGradient id="paint4_radial_2642_490" cx="0" cy="0" r="1" gradientUnits="userSpaceOnUse" gradientTransform="translate(72 140.444) rotate(177.482) scale(80.9256 185.247)">
<stop stop-color="#C5C7C3"/>
<stop offset="0.671875" stop-color="#817D78"/>
<stop offset="1" stop-color="#615D6A"/>
</radialGradient>
<radialGradient id="paint5_radial_2642_490" cx="0" cy="0" r="1" gradientUnits="userSpaceOnUse" gradientTransform="translate(72 140.444) rotate(177.482) scale(80.9256 185.247)">
<stop stop-color="#C5C7C3"/>
<stop offset="0.671875" stop-color="#817D78"/>
<stop offset="1" stop-color="#615D6A"/>
</radialGradient>
<radialGradient id="paint6_radial_2642_490" cx="0" cy="0" r="1" gradientUnits="userSpaceOnUse" gradientTransform="translate(72 140.444) rotate(177.482) scale(80.9256 185.247)">
<stop stop-color="#C5C7C3"/>
<stop offset="0.671875" stop-color="#817D78"/>
<stop offset="1" stop-color="#615D6A"/>
</radialGradient>
<radialGradient id="paint7_radial_2642_490" cx="0" cy="0" r="1" gradientUnits="userSpaceOnUse" gradientTransform="translate(72 140.444) rotate(177.482) scale(80.9256 185.247)">
<stop stop-color="#C5C7C3"/>
<stop offset="0.671875" stop-color="#817D78"/>
<stop offset="1" stop-color="#615D6A"/>
</radialGradient>
<radialGradient id="paint8_radial_2642_490" cx="0" cy="0" r="1" gradientUnits="userSpaceOnUse" gradientTransform="translate(72 140.444) rotate(177.482) scale(80.9256 185.247)">
<stop stop-color="#C5C7C3"/>
<stop offset="0.671875" stop-color="#817D78"/>
<stop offset="1" stop-color="#615D6A"/>
</radialGradient>
<radialGradient id="paint9_radial_2642_490" cx="0" cy="0" r="1" gradientUnits="userSpaceOnUse" gradientTransform="translate(72 140.444) rotate(177.482) scale(80.9256 185.247)">
<stop stop-color="#C5C7C3"/>
<stop offset="0.671875" stop-color="#817D78"/>
<stop offset="1" stop-color="#615D6A"/>
</radialGradient>
</defs>
</svg>
