<svg width="192" height="192" viewBox="0 0 192 192" fill="none" xmlns="http://www.w3.org/2000/svg">
<path fill-rule="evenodd" clip-rule="evenodd" d="M90.3603 96L96 96L96 101.64L29.6403 168L24 168L24 162.36L90.3603 96ZM41.28 168L52.5345 168L96 124.534L96 113.28L41.28 168ZM74.9197 168L63.6 168L96 135.6L96 146.92L74.9197 168ZM96 168L96 157.92L85.92 168L96 168ZM24 150.72L24 139.466L67.4655 96L78.72 96L24 150.72ZM24 117.08L24 128.4L56.4 96L45.0803 96L24 117.08ZM34.08 96L24 106.08L24 96L34.08 96Z" fill="white"/>
<path fill-rule="evenodd" clip-rule="evenodd" d="M96 101.64L96 96L101.64 96L168 162.36L168 168L162.36 168L96 101.64ZM168 150.72L168 139.466L124.534 96L113.28 96L168 150.72ZM168 117.08L168 128.4L135.6 96L146.92 96L168 117.08ZM168 96L157.92 96L168 106.08L168 96ZM150.72 168L139.466 168L96 124.535L96 113.28L150.72 168ZM117.08 168L128.4 168L96 135.6L96 146.92L117.08 168ZM96 157.92L106.08 168L96 168L96 157.92Z" fill="white"/>
<g clip-path="url(#clip0_2633_1239)">
<path d="M24.0263 96.0001C25.0685 56.72 56.7199 25.0687 95.9999 24.0266L95.9999 96.0001L24.0263 96.0001Z" fill="white"/>
</g>
<g clip-path="url(#clip1_2633_1239)">
<path d="M95.9999 24.0263C135.28 25.0685 166.931 56.7199 167.973 95.9999L95.9999 95.9999L95.9999 24.0263Z" fill="white"/>
</g>
<defs>
<clipPath id="clip0_2633_1239">
<rect width="72" height="72" fill="white" transform="translate(24 96) rotate(-90)"/>
</clipPath>
<clipPath id="clip1_2633_1239">
<rect width="72" height="72" fill="white" transform="translate(96 24)"/>
</clipPath>
</defs>
</svg>
