<svg width="144" height="144" viewBox="0 0 144 144" fill="none" xmlns="http://www.w3.org/2000/svg">
<path d="M0 0L144 8.58591e-07L144 79.9999H72V72L0 72V0Z" fill="white"/>
<path d="M72 136H144V144H72V136Z" fill="white"/>
<path d="M72 87.9999L144 87.9999V95.9999L72 95.9999V87.9999Z" fill="white"/>
<path d="M72 120L144 120V128L72 128V120Z" fill="white"/>
<path d="M72 104L144 104V112L72 112V104Z" fill="white"/>
<path d="M8 72L8 144H3.14722e-06L0 72L8 72Z" fill="white"/>
<path d="M72 72V144L64 144V72L72 72Z" fill="white"/>
<path d="M56 72L56 144H48L48 72H56Z" fill="white"/>
<path d="M24 72L24 144H16L16 72H24Z" fill="white"/>
<path d="M40 72L40 144H32L32 72H40Z" fill="white"/>
</svg>
