<svg width="192" height="192" viewBox="0 0 192 192" fill="none" xmlns="http://www.w3.org/2000/svg">
<g clip-path="url(#clip0_2633_1238)">
<path d="M32 96.0001L32 168L24 168L24 96.0001L32 96.0001Z" fill="white"/>
<path d="M96 96.0001L96 168L88 168L88 96.0001L96 96.0001Z" fill="white"/>
<path d="M80 168L80 96.0001L72 96.0001L72 168L80 168Z" fill="white"/>
<path d="M48 96.0001L48 168L40 168L40 96.0001L48 96.0001Z" fill="white"/>
<path d="M64 168L64 96.0001L56 96.0001L56 168L64 168Z" fill="white"/>
</g>
<g clip-path="url(#clip1_2633_1238)">
<path d="M96.0001 160L168 160L168 168L96.0001 168L96.0001 160Z" fill="white"/>
<path d="M96.0001 96L168 96L168 104L96.0001 104L96.0001 96Z" fill="white"/>
<path d="M168 112L96.0001 112L96.0001 120L168 120L168 112Z" fill="white"/>
<path d="M96.0001 144L168 144L168 152L96.0001 152L96.0001 144Z" fill="white"/>
<path d="M168 128L96.0001 128L96.0001 136L168 136L168 128Z" fill="white"/>
</g>
<path d="M96 24L96 96L24 96L24 24L96 24Z" fill="white"/>
<path d="M168 96L96 96L96 24L168 24V96Z" fill="white"/>
<defs>
<clipPath id="clip0_2633_1238">
<rect width="72" height="72" fill="white" transform="translate(24 168) rotate(-90)"/>
</clipPath>
<clipPath id="clip1_2633_1238">
<rect width="72" height="72" fill="white" transform="translate(168 168) rotate(180)"/>
</clipPath>
</defs>
</svg>
