<svg width="192" height="192" viewBox="0 0 192 192" fill="none" xmlns="http://www.w3.org/2000/svg">
<g clip-path="url(#clip0_2633_1240)">
<path d="M24 96.0265V104.03C58.8613 105.067 86.9327 133.139 87.9703 168H95.9735C94.9313 128.72 63.28 97.0687 24 96.0265Z" fill="white"/>
<path d="M79.9662 168C78.9346 137.557 54.4426 113.065 24 112.034V120.039C50.0236 121.063 70.937 141.976 71.9607 168H79.9662Z" fill="white"/>
<path d="M64 168C64 145.909 46.0914 128 24 128L24 136C41.6731 136 56 150.327 56 168H64Z" fill="white"/>
<path d="M48 168C48 154.745 37.2548 144 24 144L24 152C32.8366 152 40 159.163 40 168H48Z" fill="white"/>
<path d="M32 168C32 163.582 28.4183 160 24 160V168H32Z" fill="white"/>
</g>
<g clip-path="url(#clip1_2633_1240)">
<path d="M96.0265 168L104.03 168C105.067 133.139 133.139 105.067 168 104.03L168 96.0265C128.72 97.0687 97.0687 128.72 96.0265 168Z" fill="white"/>
<path d="M168 112.034C137.557 113.065 113.065 137.557 112.034 168L120.039 168C121.063 141.976 141.976 121.063 168 120.039L168 112.034Z" fill="white"/>
<path d="M168 128C145.909 128 128 145.909 128 168L136 168C136 150.327 150.327 136 168 136L168 128Z" fill="white"/>
<path d="M168 144C154.745 144 144 154.745 144 168L152 168C152 159.163 159.163 152 168 152L168 144Z" fill="white"/>
<path d="M168 160C163.582 160 160 163.582 160 168L168 168L168 160Z" fill="white"/>
</g>
<g clip-path="url(#clip2_2633_1240)">
<path d="M95.9735 24L87.9703 24C86.9327 58.8613 58.8613 86.9327 24 87.9703L24 95.9735C63.28 94.9313 94.9313 63.28 95.9735 24Z" fill="white"/>
<path d="M24 79.9662C54.4425 78.9346 78.9346 54.4426 79.9662 24L71.9607 24C70.937 50.0236 50.0236 70.937 24 71.9607L24 79.9662Z" fill="white"/>
<path d="M24 64C46.0914 64 64 46.0914 64 24L56 24C56 41.6731 41.6731 56 24 56L24 64Z" fill="white"/>
<path d="M24 48C37.2548 48 48 37.2548 48 24L40 24C40 32.8366 32.8366 40 24 40L24 48Z" fill="white"/>
<path d="M24 32C28.4183 32 32 28.4183 32 24L24 24L24 32Z" fill="white"/>
</g>
<g clip-path="url(#clip3_2633_1240)">
<path d="M168 95.9735L168 87.9703C133.139 86.9327 105.067 58.8613 104.03 24L96.0265 24C97.0687 63.28 128.72 94.9313 168 95.9735Z" fill="white"/>
<path d="M112.034 24C113.065 54.4426 137.557 78.9346 168 79.9662L168 71.9607C141.976 70.937 121.063 50.0236 120.039 24L112.034 24Z" fill="white"/>
<path d="M128 24C128 46.0914 145.909 64 168 64L168 56C150.327 56 136 41.6731 136 24L128 24Z" fill="white"/>
<path d="M144 24C144 37.2548 154.745 48 168 48L168 40C159.163 40 152 32.8366 152 24L144 24Z" fill="white"/>
<path d="M160 24C160 28.4183 163.582 32 168 32L168 24L160 24Z" fill="white"/>
</g>
<defs>
<clipPath id="clip0_2633_1240">
<rect width="72" height="72" fill="white" transform="translate(24 96)"/>
</clipPath>
<clipPath id="clip1_2633_1240">
<rect width="72" height="72" fill="white" transform="translate(96 168) rotate(-90)"/>
</clipPath>
<clipPath id="clip2_2633_1240">
<rect width="72" height="72" fill="white" transform="translate(96 24) rotate(90)"/>
</clipPath>
<clipPath id="clip3_2633_1240">
<rect width="72" height="72" fill="white" transform="translate(168 96) rotate(-180)"/>
</clipPath>
</defs>
</svg>
