<svg width="48" height="48" viewBox="0 0 48 48" fill="none" xmlns="http://www.w3.org/2000/svg">
<path d="M3 7C3 5.89543 3.89543 5 5 5H35C36.1046 5 37 5.89543 37 7V23H35V7L5 7V33H25V35H5C3.89543 35 3 34.1046 3 33V7Z" fill="#F4F6F8"/>
<path d="M18 16L25 20L18 24V16Z" fill="#F4F6F8"/>
<path d="M43 25C44.1046 25 45 25.8954 45 27V41C45 42.1046 44.1046 43 43 43H39V41H43V27H29V41H35V34.4142L33 36.4142L31.5858 35L36 30.5858L40.4142 35L39 36.4142L37 34.4142V43H29C27.8954 43 27 42.1046 27 41V27C27 25.8954 27.8954 25 29 25H43Z" fill="#F4F6F8"/>
</svg>
