<svg width="24" height="25" viewBox="0 0 24 25" fill="none" xmlns="http://www.w3.org/2000/svg">
<path d="M19.6217 8.82881C19.5057 8.91882 17.4575 10.0729 17.4575 12.6392C17.4575 15.6075 20.0638 16.6576 20.1418 16.6836C20.1298 16.7476 19.7277 18.1217 18.7676 19.5219C17.9116 20.754 17.0175 21.9841 15.6573 21.9841C14.2972 21.9841 13.9472 21.194 12.377 21.194C10.8469 21.194 10.3028 22.0101 9.05867 22.0101C7.81455 22.0101 6.94646 20.87 5.94836 19.4699C4.79225 17.8257 3.85815 15.2715 3.85815 12.8472C3.85815 8.95883 6.38641 6.89662 8.87466 6.89662C10.1968 6.89662 11.2989 7.76471 12.129 7.76471C12.9191 7.76471 14.1512 6.84461 15.6553 6.84461C16.2254 6.84461 18.2736 6.89662 19.6217 8.82881ZM14.9413 5.19845C15.5633 4.46038 16.0034 3.43627 16.0034 2.41217C16.0034 2.27016 15.9914 2.12614 15.9654 2.01013C14.9533 2.04814 13.7491 2.6842 13.0231 3.52628C12.453 4.17435 11.921 5.19845 11.921 6.23655C11.921 6.39257 11.947 6.54859 11.959 6.59859C12.023 6.61059 12.127 6.62459 12.231 6.62459C13.1391 6.62459 14.2812 6.01653 14.9413 5.19845Z" fill="black"/>
</svg>
