<svg width="24" height="25" viewBox="0 0 24 25" fill="none" xmlns="http://www.w3.org/2000/svg">
<path fill-rule="evenodd" clip-rule="evenodd" d="M3 4.5068C3 4.10798 3.15843 3.7255 3.44044 3.44349C3.72245 3.16148 4.10493 3.00305 4.50375 3.00305H19.4963C19.6937 3.00305 19.8893 3.04195 20.0717 3.11752C20.2542 3.19309 20.4199 3.30385 20.5596 3.44349C20.6992 3.58313 20.81 3.7489 20.8855 3.93134C20.9611 4.11378 21 4.30933 21 4.5068V19.4993C21 19.6968 20.9611 19.8923 20.8855 20.0748C20.81 20.2572 20.6992 20.423 20.5596 20.5626C20.4199 20.7022 20.2542 20.813 20.0717 20.8886C19.8893 20.9642 19.6937 21.0031 19.4963 21.0031H4.50375C4.10493 21.0031 3.72245 20.8446 3.44044 20.5626C3.15843 20.2806 3 19.8981 3 19.4993V4.5068ZM10.125 9.86555H12.5625V11.0903C12.9139 10.3861 13.8142 9.75305 15.1669 9.75305C17.7596 9.75305 18.375 11.1548 18.375 13.7269V18.4906H15.75V14.3127C15.75 12.8479 15.3986 12.0218 14.505 12.0218C13.2656 12.0218 12.75 12.9124 12.75 14.3127V18.4906H10.125V9.86555ZM5.625 18.3781H8.25V9.75305H5.625V18.3781ZM8.625 6.94055C8.625 7.16216 8.58135 7.38159 8.49655 7.58633C8.41174 7.79107 8.28744 7.9771 8.13074 8.13379C7.97404 8.29049 7.78802 8.41479 7.58328 8.4996C7.37854 8.5844 7.15911 8.62805 6.9375 8.62805C6.71589 8.62805 6.49646 8.5844 6.29172 8.4996C6.08698 8.41479 5.90096 8.29049 5.74426 8.13379C5.58756 7.9771 5.46326 7.79107 5.37845 7.58633C5.29365 7.38159 5.25 7.16216 5.25 6.94055C5.25 6.493 5.42779 6.06378 5.74426 5.74731C6.06072 5.43084 6.48995 5.25305 6.9375 5.25305C7.38505 5.25305 7.81427 5.43084 8.13074 5.74731C8.44721 6.06378 8.625 6.493 8.625 6.94055Z" fill="white"/>
</svg>
