<svg width="24" height="25" viewBox="0 0 24 25" fill="none" xmlns="http://www.w3.org/2000/svg">
<path fill-rule="evenodd" clip-rule="evenodd" d="M12 2.01093C6.475 2.01093 2 6.48593 2 12.0109C2 16.4359 4.8625 20.1734 8.8375 21.4984C9.3375 21.5859 9.525 21.2859 9.525 21.0234C9.525 20.7859 9.5125 19.9984 9.5125 19.1609C7 19.6234 6.35 18.5484 6.15 17.9859C6.0375 17.6984 5.55 16.8109 5.125 16.5734C4.775 16.3859 4.275 15.9234 5.1125 15.9109C5.9 15.8984 6.4625 16.6359 6.65 16.9359C7.55 18.4484 8.9875 18.0234 9.5625 17.7609C9.65 17.1109 9.9125 16.6734 10.2 16.4234C7.975 16.1734 5.65 15.3109 5.65 11.4859C5.65 10.3984 6.0375 9.49843 6.675 8.79843C6.575 8.54843 6.225 7.52343 6.775 6.14843C6.775 6.14843 7.6125 5.88593 9.525 7.17343C10.325 6.94843 11.175 6.83593 12.025 6.83593C12.875 6.83593 13.725 6.94843 14.525 7.17343C16.4375 5.87343 17.275 6.14843 17.275 6.14843C17.825 7.52343 17.475 8.54843 17.375 8.79843C18.0125 9.49843 18.4 10.3859 18.4 11.4859C18.4 15.3234 16.0625 16.1734 13.8375 16.4234C14.2 16.7359 14.5125 17.3359 14.5125 18.2734C14.5125 19.6109 14.5 20.6859 14.5 21.0234C14.5 21.2859 14.6875 21.5984 15.1875 21.4984C17.1727 20.8282 18.8977 19.5524 20.1198 17.8505C21.3419 16.1485 21.9995 14.1062 22 12.0109C22 6.48593 17.525 2.01093 12 2.01093Z" fill="black"/>
</svg>
