<svg width="24" height="25" viewBox="0 0 24 25" fill="none" xmlns="http://www.w3.org/2000/svg">
<path fill-rule="evenodd" clip-rule="evenodd" d="M14.76 3.00458H9.24C4.2 3.00458 3 4.20458 3 9.24458V14.7646C3 19.8046 4.2 21.0046 9.24 21.0046H14.76C19.8 21.0046 21 19.8046 21 14.7646V9.24458C21 4.20458 19.8 3.00458 14.76 3.00458Z" fill="#2787F5"/>
<path fill-rule="evenodd" clip-rule="evenodd" d="M17.3438 8.72333C17.7407 8.72333 17.8241 8.92768 17.7407 9.20579C17.5739 9.97054 15.9748 12.2232 15.9748 12.2232C15.8357 12.4456 15.7801 12.5569 15.9748 12.8071C16.0433 12.9031 16.1896 13.0464 16.357 13.2104C16.5291 13.379 16.7235 13.5694 16.8786 13.7527C17.4424 14.387 17.8673 14.922 17.9856 15.2908C18.0938 15.6608 17.9063 15.8483 17.5313 15.8483H16.2188C15.8672 15.8483 15.6902 15.6514 15.3077 15.2259C15.1456 15.0455 14.9465 14.8241 14.6816 14.5592C13.9029 13.8083 13.5692 13.711 13.3745 13.711C13.1103 13.711 13.0313 13.7858 13.0313 14.1608V15.3379C13.0313 15.6608 12.9281 15.8483 12.0938 15.8483C10.7033 15.8483 9.17521 15.0041 8.09064 13.4468C6.46377 11.1664 6.0188 9.44216 6.0188 9.09452C6.0188 8.89986 6.0938 8.72333 6.4688 8.72333H7.7813C8.11674 8.72333 8.24292 8.87014 8.36872 9.23358C9.01064 11.1035 10.093 12.7377 10.5379 12.7377C10.7048 12.7377 10.7813 12.6608 10.7813 12.2371V10.3043C10.7512 9.75409 10.559 9.51616 10.4166 9.33993C10.3287 9.2311 10.2598 9.14579 10.2598 9.02501C10.2598 8.87822 10.3853 8.72333 10.5938 8.72333H12.6563C12.9344 8.72333 13.0313 8.87206 13.0313 9.20579V11.806C13.0313 12.0841 13.152 12.1814 13.2355 12.1814C13.4023 12.1814 13.5414 12.0841 13.8473 11.7782C14.7928 10.7214 15.4603 9.09452 15.4603 9.09452C15.5437 8.89986 15.6976 8.72333 16.0313 8.72333H17.3438Z" fill="white"/>
</svg>
