<svg width="24" height="25" viewBox="0 0 24 25" fill="none" xmlns="http://www.w3.org/2000/svg">
<path fill-rule="evenodd" clip-rule="evenodd" d="M14.76 3.00458H9.24C4.2 3.00458 3 4.20458 3 9.24458V14.7646C3 19.8046 4.2 21.0046 9.24 21.0046H14.76C19.8 21.0046 21 19.8046 21 14.7646V9.24458C21 4.20458 19.8 3.00458 14.76 3.00458ZM17.3438 8.7245C17.7407 8.7245 17.8241 8.92885 17.7407 9.20696C17.5738 9.97172 15.9747 12.2243 15.9747 12.2243C15.8357 12.4468 15.7801 12.5581 15.9747 12.8083C16.0433 12.9043 16.1896 13.0476 16.3569 13.2115C16.5291 13.3801 16.7235 13.5706 16.8786 13.7539C17.4424 14.3881 17.8672 14.9232 17.9856 15.292C18.0938 15.662 17.9063 15.8495 17.5313 15.8495H16.2188C15.8672 15.8495 15.6902 15.6526 15.3077 15.2271C15.1455 15.0467 14.9465 14.8253 14.6816 14.5604C13.9029 13.8095 13.5692 13.7122 13.3745 13.7122C13.1103 13.7122 13.0313 13.787 13.0313 14.162V15.339C13.0313 15.662 12.9281 15.8495 12.0938 15.8495C10.7033 15.8495 9.17518 15.0053 8.09061 13.448C6.46373 11.1676 6.01877 9.44333 6.01877 9.09569C6.01877 8.90103 6.09377 8.7245 6.46877 8.7245H7.78127C8.11671 8.7245 8.24289 8.87131 8.36869 9.23476C9.01061 11.1047 10.0929 12.7388 10.5379 12.7388C10.7047 12.7388 10.7813 12.662 10.7813 12.2382V10.3054C10.7511 9.75526 10.559 9.51733 10.4166 9.3411C10.3287 9.23227 10.2598 9.14696 10.2598 9.02618C10.2598 8.87939 10.3852 8.7245 10.5938 8.7245H12.6563C12.9344 8.7245 13.0312 8.87323 13.0312 9.20696V11.8072C13.0312 12.0853 13.152 12.1826 13.2354 12.1826C13.4023 12.1826 13.5414 12.0853 13.8473 11.7794C14.7928 10.7226 15.4603 9.09569 15.4603 9.09569C15.5437 8.90103 15.6975 8.7245 16.0313 8.7245H17.3438Z" fill="white"/>
</svg>
