<svg width="43" height="23" viewBox="0 0 43 23" fill="none" xmlns="http://www.w3.org/2000/svg">
<g clip-path="url(#clip0_2824_382)">
<path d="M5.09226 3.30189C4.832 2.99067 4.50391 2.74183 4.13293 2.57414C3.78069 2.4169 3.4002 2.33156 3.01404 2.32308C2.5871 2.30938 2.16174 2.38102 1.76348 2.53395C1.40562 2.67306 1.08069 2.88406 0.809141 3.15391C0.543593 3.42103 0.33824 3.74086 0.206673 4.09254C-0.0688912 4.86048 -0.0688912 5.69901 0.206673 6.46695C0.33729 6.82123 0.542682 7.1438 0.809141 7.41314C1.0804 7.68325 1.40542 7.89439 1.76348 8.0331C2.16174 8.1859 2.5871 8.25754 3.01404 8.24384C3.4002 8.23536 3.78069 8.15002 4.13293 7.99291C4.50404 7.82523 4.832 7.57638 5.09226 7.26503L4.4366 6.76303C4.28826 6.9816 4.0907 7.16286 3.85947 7.29269C3.60265 7.4395 3.31033 7.51414 3.01404 7.50852C2.70825 7.5217 2.40326 7.4686 2.12044 7.35285C1.86488 7.25224 1.63368 7.09904 1.44199 6.90357C1.25163 6.69609 1.10681 6.45168 1.01671 6.18574C0.822444 5.6031 0.822444 4.97387 1.01671 4.39123C1.10719 4.1262 1.252 3.88271 1.44199 3.67588C1.63034 3.47388 1.85988 3.3139 2.11529 3.2065C2.39824 3.09089 2.70324 3.03791 3.00889 3.05096C3.30531 3.04535 3.59764 3.11999 3.85446 3.26679C4.08555 3.39663 4.28312 3.57801 4.43159 3.79645L5.08724 3.29445L5.09226 3.30189ZM7.01105 8.10839H7.81359V5.21698C7.79577 4.80084 7.88275 4.38679 8.06672 4.01228C8.19922 3.7573 8.38782 3.53521 8.61851 3.36218C8.78928 3.22999 8.98712 3.13669 9.19814 3.08854C9.31217 3.06884 9.42699 3.05552 9.54247 3.04848C10.1332 3.04848 10.5382 3.21577 10.7576 3.55048C11.003 3.98997 11.1171 4.48962 11.0866 4.9911V8.10839H11.8891V4.52929C11.9281 3.93986 11.742 3.35748 11.3676 2.89789C11.0149 2.52299 10.4741 2.33561 9.74505 2.33561C9.55408 2.33613 9.3643 2.36236 9.18046 2.41351C8.99213 2.4644 8.8104 2.53682 8.63883 2.62934C8.47162 2.7199 8.31681 2.83121 8.17811 2.96066C8.04481 3.08397 7.93052 3.22608 7.8388 3.38227H7.81359V-1H7.01105V8.10839ZM18.2758 5.30232V5.7114C18.2771 5.95033 18.2422 6.18809 18.1721 6.41671C18.1079 6.63071 17.9975 6.82841 17.8485 6.9957C17.6993 7.16299 17.5151 7.29609 17.3088 7.38547C17.069 7.48726 16.8101 7.53684 16.5494 7.5311C16.3875 7.53084 16.2261 7.51231 16.0684 7.4759C15.9153 7.44145 15.7696 7.38025 15.6381 7.29517C15.5104 7.21231 15.4046 7.10048 15.3293 6.96881C15.2484 6.82306 15.2082 6.65838 15.2128 6.492C15.2071 6.36608 15.231 6.24068 15.2829 6.12558C15.3347 6.01049 15.4131 5.9091 15.5116 5.82937C15.7225 5.66221 15.9666 5.54072 16.2279 5.473C16.5142 5.39523 16.8076 5.34642 17.1037 5.32737C17.4075 5.30728 17.6607 5.29723 17.8633 5.29723L18.2758 5.30232ZM17.8758 4.65221C17.5383 4.65221 17.1637 4.66813 16.7519 4.69997C16.3575 4.7322 15.9694 4.81663 15.5976 4.95091C15.2537 5.06887 14.9449 5.26982 14.6989 5.53576C14.4451 5.83707 14.3165 6.22293 14.3395 6.61492C14.3336 6.86403 14.3902 7.11066 14.5041 7.33275C14.611 7.53423 14.7604 7.71052 14.942 7.84989C15.1283 7.99278 15.3405 8.09926 15.5673 8.16359C15.804 8.23223 16.0495 8.26694 16.2963 8.26642C16.7016 8.27712 17.1035 8.19099 17.4683 8.01548C17.8156 7.82484 18.1036 7.54363 18.3011 7.20226H18.3265C18.3265 7.35455 18.3323 7.511 18.3442 7.67164C18.3559 7.83227 18.3753 7.9779 18.4024 8.10839H19.1618C19.1381 7.95611 19.1162 7.76116 19.096 7.52353C19.0757 7.28591 19.069 7.06251 19.0757 6.85346V4.3436C19.0835 4.03799 19.0257 3.73421 18.9061 3.45248C18.8017 3.21668 18.6481 3.00542 18.4556 2.83265C18.2633 2.6651 18.0371 2.54022 17.7922 2.4661C17.5352 2.38572 17.2671 2.345 16.9975 2.34565C15.9276 2.34565 15.126 2.61838 14.5926 3.16396L15.0787 3.73108C15.5505 3.29798 16.1721 3.06075 16.8152 3.06857C17.7872 3.06857 18.2733 3.55465 18.2733 4.52681V4.67231L17.8758 4.65221ZM21.7387 2.47119C21.7556 2.68036 21.77 2.90115 21.7819 3.13382C21.7936 3.36635 21.7996 3.55883 21.7996 3.71111V8.10839H22.602V5.21698C22.5843 4.80084 22.6712 4.38679 22.8551 4.01228C22.9876 3.7573 23.1762 3.53521 23.407 3.36218C23.5777 3.22999 23.7756 3.13669 23.9866 3.08854C24.0987 3.06649 24.2119 3.05057 24.3258 3.04091C24.9165 3.04091 25.3216 3.2082 25.5409 3.54291C25.7864 3.9824 25.9006 4.48205 25.8701 4.98353V8.10839H26.6725V4.52929C26.7114 3.93986 26.5253 3.35748 26.151 2.89789C25.8017 2.52299 25.2625 2.33561 24.5334 2.33561C24.3426 2.33613 24.1527 2.36236 23.969 2.41351C23.7806 2.4644 23.5988 2.53682 23.4272 2.62934C23.2579 2.71703 23.1004 2.82586 22.959 2.95309C22.8257 3.0764 22.7114 3.21851 22.6196 3.37471H22.5944C22.5944 3.22242 22.5944 3.07184 22.5944 2.92295C22.5944 2.77406 22.5843 2.62347 22.564 2.47119H21.7387ZM30.1659 4.38118C30.2713 4.12607 30.4241 3.89276 30.6164 3.6935C30.8073 3.49658 31.034 3.33726 31.2846 3.22412C31.5461 3.10603 31.8303 3.046 32.1175 3.04848C32.4261 3.0443 32.7323 3.1042 33.0161 3.22412C33.273 3.33308 33.5046 3.4928 33.6971 3.6935C33.8843 3.89184 34.0291 4.12581 34.1224 4.38118C34.2213 4.64973 34.271 4.93355 34.2692 5.21946C34.2815 5.52376 34.2298 5.82715 34.1173 6.11045C34.0127 6.36817 33.853 6.60031 33.649 6.7907C33.2373 7.1733 32.6945 7.38678 32.1302 7.38795C31.8429 7.39056 31.5586 7.33054 31.2973 7.21231C31.0467 7.09931 30.8198 6.93998 30.6291 6.74294C30.4367 6.54381 30.2839 6.31049 30.1784 6.05525C29.9599 5.51828 29.9599 4.91815 30.1784 4.38118H30.1659ZM29.2596 9.86532C29.5985 10.233 30.0128 10.5248 30.4747 10.7211C30.9573 10.9125 31.4737 11.0063 31.9935 10.9972C32.5269 11.0183 33.0582 10.9197 33.5477 10.7086C33.91 10.5427 34.2282 10.2952 34.4768 9.98576C34.6957 9.70534 34.8495 9.38055 34.9274 9.03448C35.0017 8.71413 35.0408 8.38686 35.0438 8.05815V2.47119H34.2414V3.40981H34.2161C33.9388 3.02838 33.5626 2.72838 33.1275 2.54139C32.9441 2.46349 32.7521 2.40712 32.5554 2.37332C32.3766 2.34239 32.1954 2.32647 32.0138 2.32556C31.616 2.32138 31.2215 2.39746 30.8544 2.54896C30.5109 2.69145 30.2007 2.90246 29.9431 3.16892C29.6849 3.43799 29.4805 3.75313 29.3406 4.09763C29.1932 4.4613 29.1192 4.85016 29.1229 5.24203C29.1193 5.6352 29.1977 6.02485 29.3532 6.38657C29.4999 6.72884 29.7152 7.03798 29.9861 7.29517C30.2586 7.55198 30.5783 7.75476 30.9278 7.89256C31.2965 8.03819 31.6902 8.11152 32.0872 8.10839C32.4936 8.10696 32.8954 8.02149 33.2668 7.85733C33.6562 7.68208 33.9852 7.39774 34.2136 7.03915H34.2389V8.04315C34.2403 8.33401 34.2011 8.6237 34.1224 8.90399C34.0519 9.16524 33.9239 9.40782 33.7477 9.61426C33.5603 9.82474 33.3252 9.98811 33.0617 10.0912C32.7324 10.216 32.3815 10.2757 32.029 10.2668C31.5903 10.2738 31.1562 10.1765 30.7632 9.98328C30.4024 9.80699 30.0884 9.54914 29.8469 9.23022L29.2596 9.86532ZM38.2866 4.84547C38.287 4.61072 38.3433 4.37948 38.451 4.17031C38.561 3.95343 38.7093 3.75796 38.889 3.59315C39.0755 3.42155 39.2916 3.2848 39.5269 3.18902C39.7673 3.0888 40.0256 3.03752 40.2864 3.03843C40.5361 3.02382 40.7861 3.06087 41.0206 3.14726C41.2551 3.23378 41.4688 3.36753 41.6483 3.54043C41.811 3.71581 41.937 3.92146 42.0191 4.14551C42.1013 4.36944 42.1378 4.60745 42.1267 4.84547H38.2866ZM42.9999 5.49557V5.14416C43.0021 4.77344 42.9404 4.40506 42.8177 4.05495C42.7033 3.72586 42.5233 3.42286 42.2887 3.16396C42.0506 2.90455 41.7611 2.69694 41.4382 2.55405C41.0742 2.3972 40.6806 2.3193 40.2838 2.32556C39.896 2.32256 39.5117 2.3985 39.1548 2.54896C38.8124 2.69315 38.5025 2.90403 38.2436 3.16892C37.9808 3.43917 37.7743 3.75822 37.6359 4.10767C37.4879 4.48336 37.414 4.88383 37.4183 5.28731C37.4144 5.69131 37.4909 6.09218 37.6436 6.46695C37.7852 6.81575 37.9932 7.13454 38.2562 7.40557C38.5195 7.67334 38.8359 7.88434 39.1852 8.02553C39.5571 8.17612 39.9555 8.25206 40.3573 8.24893C40.8118 8.25245 41.2618 8.15824 41.6761 7.97281C42.1191 7.76076 42.5045 7.44667 42.8 7.05677L42.1799 6.55477C41.9972 6.83141 41.7541 7.06394 41.4685 7.23489C41.1347 7.43806 40.7487 7.54102 40.3573 7.5311C40.0859 7.53384 39.8171 7.48086 39.5674 7.37543C39.0791 7.16847 38.6883 6.78547 38.4739 6.3037C38.3593 6.05225 38.2891 5.78317 38.2663 5.5081L42.9999 5.49557Z" fill="white"/>
<path d="M1 22.7317H3.00541V14.7079H3.03784L8.61129 22.7317H11.1591V12.2696H9.15118V20.0418H9.12135L3.64739 12.2696H1V22.7317ZM14.3614 19.7762C14.6382 20.4236 15.0584 21.0102 15.5944 21.4977C16.1306 21.9853 16.7709 22.3633 17.4741 22.6071C18.2395 22.8748 19.0521 23.0079 19.8701 22.9996C20.6981 22.9992 21.5189 22.8567 22.2911 22.5793C22.9984 22.3236 23.6431 21.939 24.1871 21.4479C24.7249 20.9565 25.1485 20.3679 25.4311 19.7185C25.7331 19.008 25.881 18.2492 25.8666 17.4857C25.8787 16.7072 25.7274 15.9338 25.4213 15.209C25.1413 14.5541 24.7177 13.9604 24.1771 13.4657C23.6368 12.9774 22.9904 12.6019 22.2811 12.3642C21.5051 12.1064 20.6844 11.9834 19.8602 12.0018C19.0421 11.9935 18.2297 12.1265 17.4641 12.3942C16.7613 12.6409 16.1215 13.0208 15.5856 13.5095C15.0452 14.0071 14.6216 14.603 14.3414 15.2598C14.0449 15.9897 13.903 16.7659 13.9235 17.5457C13.9125 18.3091 14.0637 19.0671 14.3688 19.7762H14.3614ZM16.2971 15.964C16.4744 15.5239 16.7423 15.12 17.0859 14.7749C17.4281 14.4329 17.8434 14.1609 18.3051 13.976C18.8076 13.7777 19.3492 13.6793 19.895 13.6874C20.4416 13.6807 20.9838 13.7789 21.4875 13.976C21.9522 14.1597 22.37 14.4318 22.7141 14.7749C23.0575 15.1202 23.3254 15.524 23.5028 15.964C23.6872 16.4305 23.7782 16.9242 23.7716 17.421C23.7776 17.9495 23.6832 18.4747 23.493 18.9726C23.3197 19.4256 23.0515 19.8422 22.7041 20.1988C22.3608 20.546 21.9429 20.8229 21.4775 21.0115C20.9751 21.2133 20.4325 21.314 19.8851 21.3071C19.3401 21.3146 18.7997 21.2139 18.3001 21.0115C17.8377 20.8216 17.4226 20.5449 17.0809 20.1988C16.7334 19.8424 16.4652 19.4257 16.2922 18.9726C16.1027 18.4745 16.0091 17.9492 16.016 17.421C16.0115 16.9214 16.106 16.4251 16.2946 15.9571L16.2971 15.964ZM30.6961 22.7317H32.5423L35.1549 14.7657H35.1873L37.8097 22.7317H39.7207L43 12.2696H40.9622L38.7478 19.8062H38.7155L36.2273 12.2696H34.2518L31.7162 19.8062H31.6839L29.5665 12.2696H27.3596L30.6961 22.7317Z" fill="#00C26F"/>
</g>
<defs>
<clipPath id="clip0_2824_382">
<rect width="43" height="23" fill="white"/>
</clipPath>
</defs>
</svg>
