<svg width="24" height="25" viewBox="0 0 24 25" fill="none" xmlns="http://www.w3.org/2000/svg">
<path d="M3.3749 11.1502C8.74359 8.81114 12.3236 7.26909 14.1148 6.52405C19.2292 4.39681 20.2919 4.02728 20.9846 4.01495C21.1369 4.0124 21.4776 4.05015 21.6982 4.22919C21.8845 4.38037 21.9358 4.58459 21.9603 4.72793C21.9848 4.87126 22.0154 5.19778 21.9911 5.45291C21.714 8.36495 20.5147 15.4317 19.9046 18.6932C19.6465 20.0733 19.1382 20.536 18.6461 20.5813C17.5766 20.6797 16.7645 19.8745 15.7287 19.1955C14.1078 18.1331 13.1921 17.4716 11.6188 16.4348C9.80053 15.2366 10.9792 14.5781 12.0154 13.5018C12.2866 13.2202 16.9987 8.93416 17.0899 8.54535C17.1013 8.49672 17.1119 8.31546 17.0042 8.21975C16.8965 8.12404 16.7376 8.15677 16.6229 8.1828C16.4604 8.2197 13.871 9.93117 8.85486 13.3172C8.11988 13.8219 7.45416 14.0678 6.8577 14.0549C6.20015 14.0407 4.93528 13.6831 3.99498 13.3775C2.84166 13.0026 1.92503 12.8044 2.00485 12.1677C2.04642 11.836 2.5031 11.4969 3.3749 11.1502Z" fill="white"/>
</svg>
