<svg width="24" height="25" viewBox="0 0 24 25" fill="none" xmlns="http://www.w3.org/2000/svg">
<path d="M6.21639 14.6514C6.21639 15.8129 5.27765 16.7516 4.11615 16.7516C2.95465 16.7516 2.01591 15.8129 2.01591 14.6514C2.01591 13.4899 2.95465 12.5512 4.11615 12.5512H6.21639V14.6514ZM7.26651 14.6514C7.26651 13.4899 8.20525 12.5512 9.36675 12.5512C10.5282 12.5512 11.467 13.4899 11.467 14.6514V19.902C11.467 21.0635 10.5282 22.0022 9.36675 22.0022C8.20525 22.0022 7.26651 21.0635 7.26651 19.902V14.6514Z" fill="white"/>
<path d="M9.36675 6.2186C8.20525 6.2186 7.26651 5.27986 7.26651 4.11837C7.26651 2.95687 8.20525 2.01813 9.36675 2.01813C10.5282 2.01813 11.467 2.95687 11.467 4.11837V6.2186H9.36675ZM9.36675 7.28464C10.5282 7.28464 11.467 8.22338 11.467 9.38487C11.467 10.5464 10.5282 11.4851 9.36675 11.4851H4.10024C2.93874 11.4851 2 10.5464 2 9.38487C2 8.22338 2.93874 7.28464 4.10024 7.28464H9.36675Z" fill="white"/>
<path d="M17.7836 9.38487C17.7836 8.22338 18.7224 7.28464 19.8839 7.28464C21.0453 7.28464 21.9841 8.22338 21.9841 9.38487C21.9841 10.5464 21.0453 11.4851 19.8839 11.4851H17.7836V9.38487ZM16.7335 9.38487C16.7335 10.5464 15.7947 11.4851 14.6333 11.4851C13.4718 11.4851 12.533 10.5464 12.533 9.38487V4.11837C12.533 2.95687 13.4718 2.01813 14.6333 2.01813C15.7947 2.01813 16.7335 2.95687 16.7335 4.11837V9.38487Z" fill="white"/>
<path d="M14.6333 17.8018C15.7947 17.8018 16.7335 18.7405 16.7335 19.902C16.7335 21.0635 15.7947 22.0022 14.6333 22.0022C13.4718 22.0022 12.533 21.0635 12.533 19.902V17.8018H14.6333ZM14.6333 16.7516C13.4718 16.7516 12.533 15.8129 12.533 14.6514C12.533 13.4899 13.4718 12.5512 14.6333 12.5512H19.8998C21.0613 12.5512 22 13.4899 22 14.6514C22 15.8129 21.0613 16.7516 19.8998 16.7516H14.6333Z" fill="white"/>
</svg>
