<svg width="24" height="25" viewBox="0 0 24 25" fill="none" xmlns="http://www.w3.org/2000/svg">
<path fill-rule="evenodd" clip-rule="evenodd" d="M2.625 11.9593C2.625 6.73404 6.71878 2.86554 12 2.86554C17.2812 2.86554 21.375 6.73404 21.375 11.9593C21.375 17.1845 17.2812 21.053 12 21.053C11.0514 21.053 10.1413 20.9278 9.28622 20.6927C9.12 20.6469 8.94324 20.6599 8.7855 20.7294L6.92469 21.5509C6.43794 21.7657 5.88849 21.4196 5.87218 20.8877L5.82113 19.22C5.81484 19.0145 5.72241 18.8225 5.56927 18.6855C3.74513 17.0542 2.625 14.6924 2.625 11.9593ZM9.12426 10.2519L6.37035 14.621C6.10607 15.0403 6.62147 15.5128 7.01629 15.2132L9.97444 12.9682C10.1745 12.8163 10.4511 12.8155 10.652 12.9662L12.8424 14.609C13.4996 15.102 14.4377 14.9289 14.8758 14.2338L17.6297 9.86465C17.8939 9.44534 17.3785 8.97284 16.9837 9.27247L14.0256 11.5175C13.8254 11.6694 13.5489 11.6702 13.348 11.5194L11.1577 9.87669C10.5004 9.38375 9.56231 9.55681 9.12426 10.2519Z" fill="white"/>
</svg>
