<svg width="24" height="25" viewBox="0 0 24 25" fill="none" xmlns="http://www.w3.org/2000/svg">
<path fill-rule="evenodd" clip-rule="evenodd" d="M22 12.0093C22 17.5322 17.5228 22.0093 12 22.0093C6.47715 22.0093 2 17.5322 2 12.0093C2 6.48649 6.47715 2.00934 12 2.00934C17.5228 2.00934 22 6.48649 22 12.0093ZM17.2046 10.5473C18.0117 10.5473 18.6666 11.2022 18.6666 12.0092C18.6666 12.6057 18.3041 13.1204 17.8245 13.3543C17.8479 13.4946 17.8596 13.635 17.8596 13.787C17.8596 16.0326 15.2514 17.8455 12.0234 17.8455C8.79529 17.8455 6.1871 16.0326 6.1871 13.787C6.1871 13.635 6.19879 13.4829 6.22219 13.3426C5.70757 13.1087 5.35669 12.6057 5.35669 12.0092C5.35669 11.2022 6.01166 10.5473 6.81868 10.5473C7.20464 10.5473 7.56722 10.711 7.82453 10.9566C8.83037 10.2198 10.2222 9.76363 11.7777 9.71685L12.5146 6.23147C12.538 6.16129 12.5731 6.10281 12.6315 6.06773C12.69 6.03264 12.7602 6.02094 12.8304 6.03264L15.2514 6.54726C15.4152 6.19638 15.766 5.96246 16.1754 5.96246C16.7485 5.96246 17.2163 6.4303 17.2163 7.0034C17.2163 7.5765 16.7485 8.04433 16.1754 8.04433C15.614 8.04433 15.1579 7.59989 15.1345 7.05018L12.9707 6.59404L12.3041 9.71685C13.8245 9.77533 15.2046 10.2432 16.1988 10.9566C16.4561 10.6993 16.807 10.5473 17.2046 10.5473ZM9.70757 12.0092C9.13447 12.0092 8.66663 12.4771 8.66663 13.0502C8.66663 13.6233 9.13447 14.0911 9.70757 14.0911C10.2807 14.0911 10.7485 13.6233 10.7485 13.0502C10.7485 12.4771 10.2807 12.0092 9.70757 12.0092ZM12.0117 16.559C12.4093 16.559 13.766 16.5122 14.4795 15.7987C14.5848 15.6935 14.5848 15.5297 14.5029 15.4128C14.3976 15.3075 14.2222 15.3075 14.1169 15.4128C13.6608 15.8572 12.7134 16.0209 12.0234 16.0209C11.3333 16.0209 10.3742 15.8572 9.92979 15.4128C9.82453 15.3075 9.64909 15.3075 9.54382 15.4128C9.43856 15.518 9.43856 15.6935 9.54382 15.7987C10.2456 16.5005 11.614 16.559 12.0117 16.559ZM13.2514 13.0502C13.2514 13.6233 13.7193 14.0911 14.2924 14.0911C14.8655 14.0911 15.3333 13.6233 15.3333 13.0502C15.3333 12.4771 14.8655 12.0092 14.2924 12.0092C13.7193 12.0092 13.2514 12.4771 13.2514 13.0502Z" fill="white"/>
</svg>
