<svg width="24" height="25" viewBox="0 0 24 25" fill="none" xmlns="http://www.w3.org/2000/svg">
<path d="M12 22.0109C17.5228 22.0109 22 17.5338 22 12.0109C22 6.48808 17.5228 2.01093 12 2.01093C6.47715 2.01093 2 6.48808 2 12.0109C2 17.5338 6.47715 22.0109 12 22.0109Z" fill="url(#paint0_linear_603_326)"/>
<path d="M6.5266 11.905C9.4418 10.6349 11.3857 9.79752 12.3584 9.39296C15.1355 8.23787 15.7125 8.03722 16.0887 8.03052C16.1714 8.02913 16.3563 8.04964 16.4762 8.14685C16.5773 8.22894 16.6052 8.33984 16.6185 8.41767C16.6318 8.4955 16.6484 8.6728 16.6352 8.81133C16.4847 10.3926 15.8335 14.2298 15.5022 16.0008C15.3621 16.7502 15.0861 17.0015 14.8188 17.0261C14.2381 17.0795 13.7972 16.6423 13.2347 16.2736C12.3546 15.6966 11.8573 15.3375 11.003 14.7745C10.0157 14.1239 10.6558 13.7663 11.2184 13.1819C11.3657 13.0289 13.9243 10.7017 13.9739 10.4905C13.98 10.4641 13.9858 10.3657 13.9273 10.3137C13.8689 10.2618 13.7826 10.2795 13.7203 10.2937C13.632 10.3137 12.226 11.243 9.50222 13.0816C9.10313 13.3557 8.74164 13.4892 8.41776 13.4822C8.06071 13.4745 7.37388 13.2803 6.8633 13.1144C6.23705 12.9108 5.73932 12.8032 5.78266 12.4574C5.80524 12.2774 6.05321 12.0932 6.5266 11.905Z" fill="white"/>
<defs>
<linearGradient id="paint0_linear_603_326" x1="12" y1="2.01093" x2="12" y2="21.8625" gradientUnits="userSpaceOnUse">
<stop stop-color="#2AABEE"/>
<stop offset="1" stop-color="#229ED9"/>
</linearGradient>
</defs>
</svg>
