<svg width="24" height="25" viewBox="0 0 24 25" fill="none" xmlns="http://www.w3.org/2000/svg">
<path fill-rule="evenodd" clip-rule="evenodd" d="M12 2.86554C6.71878 2.86554 2.625 6.73404 2.625 11.9593C2.625 14.6924 3.74513 17.0542 5.56928 18.6855C5.72241 18.8225 5.81484 19.0145 5.82113 19.22L5.87218 20.8877C5.88849 21.4196 6.43794 21.7657 6.92469 21.5509L8.7855 20.7294C8.94324 20.6599 9.12 20.6469 9.28622 20.6927C10.1413 20.9278 11.0514 21.053 12 21.053C17.2812 21.053 21.375 17.1845 21.375 11.9593C21.375 6.73404 17.2812 2.86554 12 2.86554Z" fill="url(#paint0_radial_603_409)"/>
<path fill-rule="evenodd" clip-rule="evenodd" d="M6.37035 14.621L9.12426 10.2519C9.56231 9.55681 10.5004 9.38375 11.1577 9.87669L13.348 11.5194C13.5489 11.6702 13.8254 11.6694 14.0256 11.5175L16.9837 9.27247C17.3785 8.97284 17.8939 9.44534 17.6297 9.86465L14.8758 14.2338C14.4377 14.9289 13.4996 15.102 12.8424 14.609L10.652 12.9662C10.4511 12.8155 10.1745 12.8163 9.97444 12.9682L7.01629 15.2132C6.62147 15.5128 6.10607 15.0403 6.37035 14.621Z" fill="white"/>
<defs>
<radialGradient id="paint0_radial_603_409" cx="0" cy="0" r="1" gradientUnits="userSpaceOnUse" gradientTransform="translate(6.23389 21.5152) scale(20.4299 20.4299)">
<stop stop-color="#0099FF"/>
<stop offset="0.609754" stop-color="#A033FF"/>
<stop offset="0.934823" stop-color="#FF5280"/>
<stop offset="1" stop-color="#FF7061"/>
</radialGradient>
</defs>
</svg>
