<svg width="46" height="32" viewBox="0 0 46 32" fill="none" xmlns="http://www.w3.org/2000/svg">
<path d="M44.8 4.99953C44.5371 4.02845 44.0234 3.14362 43.3104 2.43391C42.5974 1.72419 41.7102 1.21458 40.7379 0.956235C37.1689 0 22.8668 0 22.8668 0C22.8668 0 8.56094 0 4.99953 0.956235C4.03036 1.21676 3.14669 1.72743 2.43706 2.43706C1.72743 3.14669 1.21676 4.03037 0.956235 4.99953C0 8.56471 0 16.0075 0 16.0075C0 16.0075 0 23.4504 0.956235 27.0155C1.21676 27.9847 1.72743 28.8684 2.43706 29.578C3.14669 30.2876 4.03036 30.7983 4.99953 31.0588C8.5647 32 22.8668 32 22.8668 32C22.8668 32 37.1727 32 40.7379 31.0438C41.7084 30.7867 42.5944 30.2794 43.3072 29.5725C44.0201 28.8655 44.5348 27.9838 44.8 27.0155C45.7525 23.4504 45.7525 16.0075 45.7525 16.0075C45.7525 16.0075 45.7336 8.56471 44.8 4.99953ZM18.2927 22.8668V9.14824L30.1779 16.0075L18.2927 22.8668Z" fill="#7B8A95"/>
</svg>
