<svg width="24" height="24" viewBox="0 0 24 24" fill="none" xmlns="http://www.w3.org/2000/svg">
<path d="M6.10673 3.47357C5.51393 3.70411 5.0126 4.01149 4.51128 4.51281C4.00996 5.01047 3.70258 5.51545 3.47205 6.1046C3.24883 6.67544 3.0988 7.33045 3.05489 8.28919C3.01098 9.24792 3 9.5553 3 11.9997C3 14.4441 3.01098 14.7515 3.05489 15.7102C3.0988 16.6689 3.25249 17.3239 3.47205 17.8948C3.70258 18.4876 4.00996 18.9889 4.51128 19.4902C5.0126 19.9916 5.51393 20.2989 6.10673 20.5295C6.67758 20.7527 7.33259 20.9027 8.29132 20.9466C9.25005 20.9905 9.55743 21.0015 12.0018 21.0015C14.4462 21.0015 14.7536 20.9905 15.7123 20.9466C16.6711 20.9027 17.3261 20.749 17.8969 20.5295C18.4897 20.2989 18.9911 19.9916 19.4924 19.4902C19.9937 18.9889 20.3011 18.4876 20.5316 17.8948C20.7548 17.3239 20.9049 16.6689 20.9488 15.7102C20.9927 14.7515 21.0037 14.4441 21.0037 11.9997C21.0037 9.5553 20.9927 9.24792 20.9488 8.28919C20.9049 7.33045 20.7512 6.67544 20.5316 6.1046C20.3011 5.51545 19.9937 5.01047 19.496 4.51281C18.9947 4.01149 18.4934 3.70411 17.9006 3.47357C17.3297 3.25036 16.6747 3.10033 15.716 3.05642C14.7573 3.0125 14.4499 3.00153 12.0055 3.00153C9.56109 3.00153 9.25371 3.0125 8.29498 3.05642C7.33259 3.09667 6.67758 3.25036 6.10673 3.47357ZM15.6392 4.67382C16.5174 4.71407 16.9931 4.86044 17.3114 4.98486C17.7323 5.14952 18.0323 5.34347 18.347 5.65816C18.6617 5.97286 18.8557 6.27292 19.0203 6.69374C19.1447 7.0121 19.2911 7.4878 19.3314 8.36603C19.3753 9.31378 19.3826 9.59921 19.3826 12.0034C19.3826 14.4075 19.3716 14.6929 19.3314 15.6407C19.2911 16.5189 19.1447 16.9946 19.0203 17.313C18.8557 17.7338 18.6617 18.0338 18.347 18.3485C18.0323 18.6632 17.7323 18.8572 17.3114 19.0219C16.9931 19.1463 16.5174 19.2926 15.6392 19.3329C14.6914 19.3768 14.406 19.3841 12.0018 19.3841C9.59768 19.3841 9.31226 19.3731 8.3645 19.3329C7.48628 19.2926 7.01057 19.1463 6.69221 19.0219C6.2714 18.8572 5.97134 18.6632 5.65664 18.3485C5.34194 18.0338 5.148 17.7338 4.98333 17.313C4.85891 16.9946 4.71254 16.5189 4.67229 15.6407C4.62838 14.6929 4.62106 14.4075 4.62106 12.0034C4.62106 9.59921 4.63204 9.31378 4.67229 8.36603C4.71254 7.4878 4.85891 7.0121 4.98333 6.69374C5.148 6.27292 5.34194 5.97286 5.65664 5.65816C5.97134 5.34347 6.2714 5.14952 6.69221 4.98486C7.01057 4.86044 7.48628 4.71407 8.3645 4.67382C9.31226 4.62991 9.59768 4.62259 12.0018 4.62259C14.406 4.62259 14.6914 4.62991 15.6392 4.67382Z" fill="url(#paint0_radial_603_398)"/>
<path d="M7.38013 12.0037C7.38013 14.5578 9.45128 16.6253 12.0018 16.6253C14.5523 16.6253 16.6235 14.5542 16.6235 12.0037C16.6235 9.45314 14.556 7.38199 12.0018 7.38199C9.44762 7.38199 7.38013 9.44948 7.38013 12.0037ZM15.0024 12.0037C15.0024 13.6613 13.6595 15.0043 12.0018 15.0043C10.3441 15.0043 9.00119 13.6613 9.00119 12.0037C9.00119 10.346 10.3441 9.00305 12.0018 9.00305C13.6595 9.00305 15.0024 10.346 15.0024 12.0037Z" fill="url(#paint1_radial_603_398)"/>
<path d="M16.8101 8.27886C17.4063 8.27886 17.8896 7.79556 17.8896 7.19938C17.8896 6.60319 17.4063 6.11989 16.8101 6.11989C16.214 6.11989 15.7307 6.60319 15.7307 7.19938C15.7307 7.79556 16.214 8.27886 16.8101 8.27886Z" fill="#654C9F"/>
<defs>
<radialGradient id="paint0_radial_603_398" cx="0" cy="0" r="1" gradientUnits="userSpaceOnUse" gradientTransform="translate(3.32758 19.3535) rotate(-3.00009) scale(26.029 22.1244)">
<stop stop-color="#FED576"/>
<stop offset="0.2634" stop-color="#F47133"/>
<stop offset="0.6091" stop-color="#BC3081"/>
<stop offset="1" stop-color="#4C63D2"/>
</radialGradient>
<radialGradient id="paint1_radial_603_398" cx="0" cy="0" r="1" gradientUnits="userSpaceOnUse" gradientTransform="translate(7.54777 15.7777) rotate(-3.00009) scale(13.3662 11.3612)">
<stop stop-color="#FED576"/>
<stop offset="0.2634" stop-color="#F47133"/>
<stop offset="0.6091" stop-color="#BC3081"/>
<stop offset="1" stop-color="#4C63D2"/>
</radialGradient>
</defs>
</svg>
