<svg width="24" height="25" viewBox="0 0 24 25" fill="none" xmlns="http://www.w3.org/2000/svg">
<path fill-rule="evenodd" clip-rule="evenodd" d="M19.0016 4.91581C17.1342 3.03888 14.6443 2.00775 11.9929 2.00775C6.53314 2.00775 2.08553 6.45536 2.08078 11.9151C2.08078 13.6637 2.53694 15.3648 3.40176 16.8711L2 22.0078L7.2554 20.6298C8.70467 21.4185 10.3345 21.8367 11.9929 21.8367H11.9976C17.4573 21.8367 21.9049 17.3891 21.9097 11.9246C21.9049 9.27789 20.8738 6.78798 19.0016 4.91581ZM11.9929 20.1593C10.5103 20.1593 9.06105 19.7602 7.79709 19.0094L7.49774 18.8288L4.38061 19.6461L5.21216 16.605L5.01734 16.2914C4.19054 14.98 3.75814 13.4642 3.75814 11.9103C3.75814 7.3772 7.45497 3.68036 11.9976 3.68036C14.1977 3.68036 16.2647 4.54042 17.8232 6.09423C19.377 7.6528 20.2323 9.7198 20.2323 11.9198C20.2276 16.4672 16.5307 20.1593 11.9929 20.1593ZM16.5117 13.9916C16.2647 13.8681 15.0482 13.2693 14.8201 13.1838C14.592 13.103 14.4257 13.0603 14.2642 13.3073C14.0979 13.5544 13.6227 14.1151 13.4801 14.2767C13.3376 14.443 13.1903 14.462 12.9432 14.3385C12.6961 14.2149 11.8978 13.9536 10.9522 13.1078C10.2157 12.452 9.72154 11.6395 9.57424 11.3924C9.43168 11.1453 9.55998 11.0123 9.68353 10.8887C9.79281 10.7794 9.93061 10.5989 10.0542 10.4563C10.1777 10.3138 10.2205 10.2092 10.3012 10.0429C10.382 9.8766 10.344 9.73405 10.2822 9.61051C10.2205 9.48696 9.72629 8.26577 9.51722 7.77159C9.31764 7.28692 9.11332 7.35344 8.96126 7.34869C8.81871 7.33918 8.6524 7.33918 8.48609 7.33918C8.31978 7.33918 8.05369 7.40096 7.8256 7.64805C7.59752 7.89514 6.96079 8.49385 6.96079 9.71504C6.96079 10.9362 7.84936 12.1099 7.97291 12.2762C8.09645 12.4425 9.71679 14.9419 12.2019 16.0158C12.7911 16.2724 13.2521 16.4245 13.6132 16.5385C14.2072 16.7286 14.7441 16.7001 15.1718 16.6383C15.6469 16.567 16.6353 16.0396 16.8444 15.4599C17.0487 14.8802 17.0487 14.386 16.9869 14.2815C16.9251 14.1769 16.7588 14.1151 16.5117 13.9916Z" fill="#455A64"/>
</svg>
