<svg width="19" height="24" viewBox="0 0 19 24" fill="none" xmlns="http://www.w3.org/2000/svg">
<g clip-path="url(#clip0_2823_377)">
<path d="M12.8273 0.0120335L15.0374 0.0171904L15.0097 10.2742C15.0049 12.6754 14.1111 14.9913 12.4979 16.7821C12.6953 15.9366 12.7959 15.0716 12.7978 14.2037L12.8273 0.0120335Z" fill="white"/>
<path d="M5.72028 17.8994C5.17289 18.5681 4.48379 19.1091 3.7019 19.484C2.92001 19.8589 2.06449 20.0585 1.19606 20.0688L1.86169 17.8891L5.72028 17.8994Z" fill="white"/>
<path d="M7.07235 13.9734V14.1917C7.07097 14.8609 6.95371 15.5249 6.72566 16.1547L2.39212 16.1427L3.05428 13.9613L7.07235 13.9734Z" fill="white"/>
<path d="M16.7986 0.0223463H19L18.9827 6.36012C18.9769 8.76181 18.0819 11.0778 16.4675 12.8681C16.6648 12.0225 16.7654 11.1576 16.7674 10.2896L16.7986 0.0223463Z" fill="white"/>
<path d="M11.0731 0L11.0349 14.1968C11.0253 16.8017 9.97386 19.2964 8.11138 21.1333C6.2489 22.9703 3.72755 23.9994 1.10072 23.9948H0L0.663899 21.8135H1.10592C3.14979 21.8185 5.11216 21.0191 6.56227 19.5908C8.01237 18.1625 8.83171 16.2219 8.84043 14.1951L8.8699 0H11.0731Z" fill="white"/>
</g>
<defs>
<clipPath id="clip0_2823_377">
<rect width="19" height="24" fill="white"/>
</clipPath>
</defs>
</svg>
