<svg width="24" height="24" viewBox="0 0 24 24" fill="none" xmlns="http://www.w3.org/2000/svg">
<path d="M12.006 2.00153C7.82995 2.00153 6.60861 2.00583 6.37121 2.02553C5.51421 2.09676 4.98094 2.2317 4.39996 2.52095C3.95223 2.74328 3.59913 3.00099 3.25064 3.36226C2.61597 4.02108 2.23132 4.83161 2.09208 5.79508C2.02438 6.26281 2.00468 6.3582 2.00068 8.74733C1.99915 9.5437 2.00068 10.5918 2.00068 11.9976C2.00068 16.1703 2.0053 17.3904 2.0253 17.6273C2.09454 18.4612 2.22532 18.9859 2.50226 19.5598C3.03154 20.6583 4.0424 21.483 5.23326 21.7907C5.64561 21.8969 6.10103 21.9554 6.6857 21.9831C6.93341 21.9938 9.45824 22.0015 11.9846 22.0015C14.511 22.0015 17.0373 21.9984 17.2789 21.9861C17.9559 21.9543 18.349 21.9015 18.7836 21.7892C19.9822 21.4799 20.9746 20.6676 21.5146 19.5536C21.7862 18.9936 21.9239 18.4489 21.9862 17.6585C21.9998 17.4862 22.0055 14.7388 22.0055 11.995C22.0055 9.25075 21.9993 6.50837 21.9858 6.33605C21.9227 5.5329 21.785 4.99286 21.5046 4.42204C21.2746 3.95477 21.0192 3.60582 20.6484 3.24902C19.9867 2.61696 19.1774 2.23231 18.213 2.09323C17.7457 2.02568 17.6526 2.00568 15.2617 2.00153H12.006Z" fill="url(#paint0_radial_603_392)"/>
<path d="M12.006 2.00153C7.82995 2.00153 6.60861 2.00583 6.37121 2.02553C5.51421 2.09676 4.98094 2.2317 4.39996 2.52095C3.95223 2.74328 3.59913 3.00099 3.25064 3.36226C2.61597 4.02108 2.23132 4.83161 2.09208 5.79508C2.02438 6.26281 2.00468 6.3582 2.00068 8.74733C1.99915 9.5437 2.00068 10.5918 2.00068 11.9976C2.00068 16.1703 2.0053 17.3904 2.0253 17.6273C2.09454 18.4612 2.22532 18.9859 2.50226 19.5598C3.03154 20.6583 4.0424 21.483 5.23326 21.7907C5.64561 21.8969 6.10103 21.9554 6.6857 21.9831C6.93341 21.9938 9.45824 22.0015 11.9846 22.0015C14.511 22.0015 17.0373 21.9984 17.2789 21.9861C17.9559 21.9543 18.349 21.9015 18.7836 21.7892C19.9822 21.4799 20.9746 20.6676 21.5146 19.5536C21.7862 18.9936 21.9239 18.4489 21.9862 17.6585C21.9998 17.4862 22.0055 14.7388 22.0055 11.995C22.0055 9.25075 21.9993 6.50837 21.9858 6.33605C21.9227 5.5329 21.785 4.99286 21.5046 4.42204C21.2746 3.95477 21.0192 3.60582 20.6484 3.24902C19.9867 2.61696 19.1774 2.23231 18.213 2.09323C17.7457 2.02568 17.6526 2.00568 15.2617 2.00153H12.006Z" fill="url(#paint1_radial_603_392)"/>
<path d="M12.0014 4.61713C9.99569 4.61713 9.74397 4.6259 8.95621 4.66175C8.16999 4.69775 7.63333 4.82222 7.16376 5.00485C6.67802 5.19348 6.26599 5.44581 5.85549 5.85646C5.44469 6.26696 5.19236 6.67899 5.00311 7.16457C4.82002 7.63431 4.69539 8.17112 4.66 8.95703C4.62477 9.74479 4.61554 9.99666 4.61554 12.0024C4.61554 14.0081 4.62446 14.259 4.66016 15.0468C4.69632 15.833 4.82079 16.3697 5.00326 16.8392C5.19205 17.325 5.44438 17.737 5.85503 18.1475C6.26537 18.5583 6.67741 18.8113 7.16283 18.9999C7.63272 19.1825 8.16953 19.307 8.9556 19.343C9.74336 19.3788 9.99492 19.3876 12.0005 19.3876C14.0063 19.3876 14.2573 19.3788 15.045 19.343C15.8313 19.307 16.3685 19.1825 16.8384 18.9999C17.324 18.8113 17.7354 18.5583 18.1458 18.1475C18.5566 17.737 18.8089 17.325 18.9981 16.8394C19.1797 16.3697 19.3043 15.8328 19.3412 15.0469C19.3766 14.2592 19.3859 14.0081 19.3859 12.0024C19.3859 9.99666 19.3766 9.74495 19.3412 8.95719C19.3043 8.17097 19.1797 7.6343 18.9981 7.16473C18.8089 6.67899 18.5566 6.26696 18.1458 5.85646C17.735 5.44566 17.3242 5.19333 16.838 5.00485C16.3671 4.82222 15.8302 4.69775 15.044 4.66175C14.2562 4.6259 14.0054 4.61713 11.9991 4.61713H12.0014ZM11.3389 5.94801C11.5355 5.9477 11.7549 5.94801 12.0014 5.94801C13.9733 5.94801 14.207 5.95509 14.9856 5.99047C15.7057 6.0234 16.0965 6.14372 16.3568 6.2448C16.7015 6.37866 16.9472 6.53867 17.2055 6.79716C17.464 7.05564 17.624 7.30182 17.7582 7.64646C17.8593 7.90648 17.9797 8.29728 18.0125 9.01734C18.0479 9.79587 18.0556 10.0297 18.0556 12.0007C18.0556 13.9716 18.0479 14.2055 18.0125 14.984C17.9796 15.7041 17.8593 16.0949 17.7582 16.3549C17.6243 16.6995 17.464 16.9449 17.2055 17.2033C16.947 17.4618 16.7016 17.6218 16.3568 17.7556C16.0968 17.8572 15.7057 17.9772 14.9856 18.0101C14.2071 18.0455 13.9733 18.0532 12.0014 18.0532C10.0294 18.0532 9.79567 18.0455 9.01714 18.0101C8.29708 17.9769 7.90628 17.8566 7.6458 17.7555C7.30115 17.6216 7.05498 17.4616 6.79649 17.2031C6.53801 16.9446 6.378 16.6991 6.24383 16.3543C6.14275 16.0943 6.02227 15.7035 5.9895 14.9834C5.95411 14.2049 5.94704 13.971 5.94704 11.9988C5.94704 10.0267 5.95411 9.79403 5.9895 9.0155C6.02243 8.29544 6.14275 7.90464 6.24383 7.64431C6.37769 7.29966 6.53801 7.05349 6.79649 6.795C7.05498 6.53652 7.30115 6.37651 7.6458 6.24234C7.90613 6.14079 8.29708 6.02078 9.01714 5.9877C9.69843 5.95693 9.96245 5.9477 11.3389 5.94616V5.94801ZM15.9436 7.17427C15.4543 7.17427 15.0573 7.57076 15.0573 8.06019C15.0573 8.54946 15.4543 8.94642 15.9436 8.94642C16.4328 8.94642 16.8298 8.54946 16.8298 8.06019C16.8298 7.57091 16.4328 7.17396 15.9436 7.17396V7.17427ZM12.0014 8.20974C9.90691 8.20974 8.20877 9.90788 8.20877 12.0024C8.20877 14.0969 9.90691 15.7942 12.0014 15.7942C14.0959 15.7942 15.7934 14.0969 15.7934 12.0024C15.7934 9.90788 14.0957 8.20974 12.0012 8.20974H12.0014ZM12.0014 9.54062C13.3609 9.54062 14.4631 10.6427 14.4631 12.0024C14.4631 13.3619 13.3609 14.4641 12.0014 14.4641C10.6417 14.4641 9.53965 13.3619 9.53965 12.0024C9.53965 10.6427 10.6417 9.54062 12.0014 9.54062Z" fill="white"/>
<defs>
<radialGradient id="paint0_radial_603_392" cx="0" cy="0" r="1" gradientUnits="userSpaceOnUse" gradientTransform="translate(7.31397 23.5419) rotate(-90) scale(19.8215 18.4406)">
<stop stop-color="#FFDD55"/>
<stop offset="0.1" stop-color="#FFDD55"/>
<stop offset="0.5" stop-color="#FF543E"/>
<stop offset="1" stop-color="#C837AB"/>
</radialGradient>
<radialGradient id="paint1_radial_603_392" cx="0" cy="0" r="1" gradientUnits="userSpaceOnUse" gradientTransform="translate(-1.35102 3.44229) rotate(78.6776) scale(8.86037 36.532)">
<stop stop-color="#3771C8"/>
<stop offset="0.128" stop-color="#3771C8"/>
<stop offset="1" stop-color="#6600FF" stop-opacity="0"/>
</radialGradient>
</defs>
</svg>
