<svg width="108" height="36" viewBox="0 0 108 36" fill="none" xmlns="http://www.w3.org/2000/svg">
<g clip-path="url(#clip0_2208_4389)">
<path d="M26.377 12.446H13.857V16.161H22.737C22.297 21.361 17.964 23.593 13.872 23.593C12.5757 23.5987 11.2912 23.3461 10.0936 22.8499C8.89595 22.3537 7.80916 21.624 6.89666 20.7032C5.98416 19.7824 5.26423 18.689 4.77891 17.487C4.29359 16.2849 4.05261 14.9982 4.07002 13.702C4.07002 8.07797 8.42402 3.74797 13.884 3.74797C18.096 3.74797 20.578 6.43297 20.578 6.43297L23.178 3.73897C23.178 3.73897 19.838 0.0219727 13.748 0.0219727C5.99302 0.0219727 -0.00598145 6.56697 -0.00598145 13.636C-0.00598145 20.563 5.63702 27.318 13.944 27.318C21.251 27.318 26.6 22.312 26.6 14.91C26.6 13.348 26.373 12.446 26.373 12.446H26.377Z" fill="white"/>
<path d="M36.634 9.75503C31.496 9.75503 27.814 13.772 27.814 18.455C27.814 23.209 31.384 27.3 36.694 27.3C41.5 27.3 45.437 23.627 45.437 18.557C45.437 12.757 40.857 9.75503 36.634 9.75503ZM36.684 13.201C39.21 13.201 41.604 15.244 41.604 18.535C41.604 21.755 39.22 23.857 36.672 23.857C33.872 23.857 31.672 21.615 31.672 18.509C31.672 15.469 33.852 13.201 36.692 13.201H36.684Z" fill="white"/>
<path d="M55.815 9.75503C50.677 9.75503 46.995 13.772 46.995 18.455C46.995 23.209 50.565 27.3 55.875 27.3C60.681 27.3 64.618 23.627 64.618 18.557C64.618 12.757 60.038 9.75503 55.815 9.75503ZM55.865 13.201C58.391 13.201 60.785 15.244 60.785 18.535C60.785 21.755 58.401 23.857 55.853 23.857C53.053 23.857 50.853 21.615 50.853 18.509C50.853 15.469 53.033 13.201 55.873 13.201H55.865Z" fill="white"/>
<path d="M74.6281 9.76501C69.912 9.76501 66.2061 13.895 66.2061 18.531C66.2061 23.811 70.5031 27.313 74.5461 27.313C77.0461 27.313 78.3761 26.32 79.3461 25.181V26.911C79.3461 29.938 77.5081 31.751 74.7341 31.751C72.0541 31.751 70.7101 29.758 70.2341 28.628L66.8621 30.028C68.0581 32.558 70.4661 35.195 74.7621 35.195C79.4621 35.195 83.0241 32.242 83.0241 26.048V10.292H79.3601V11.778C78.2301 10.558 76.6821 9.76501 74.6301 9.76501H74.6281ZM74.9681 13.205C77.2801 13.205 79.6541 15.179 79.6541 18.55C79.6541 21.977 77.284 23.865 74.9171 23.865C72.4031 23.865 70.0641 21.825 70.0641 18.582C70.0641 15.214 72.4941 13.205 74.9681 13.205Z" fill="white"/>
<path d="M99.4 9.74402C94.952 9.74402 91.217 13.284 91.217 18.504C91.217 24.03 95.38 27.307 99.817 27.307C103.529 27.307 105.817 25.277 107.167 23.457L104.134 21.439C103.347 22.659 102.031 23.854 99.836 23.854C97.37 23.854 96.236 22.504 95.533 21.194L107.296 16.314L106.696 14.884C105.56 12.084 102.908 9.74402 99.4 9.74402ZM99.553 13.118C101.156 13.118 102.309 13.97 102.799 14.992L94.943 18.275C94.603 15.733 97.013 13.118 99.543 13.118H99.553Z" fill="white"/>
<path d="M85.6 26.787H89.464V0.929993H85.6V26.787Z" fill="white"/>
</g>
<defs>
<clipPath id="clip0_2208_4389">
<rect width="108" height="36" fill="white"/>
</clipPath>
</defs>
</svg>
