<svg width="24" height="25" viewBox="0 0 24 25" fill="none" xmlns="http://www.w3.org/2000/svg">
<path d="M2.34222 21.6602L3.70186 16.7018C2.86516 15.2519 2.42304 13.6022 2.42304 11.9193C2.42304 6.64239 6.72064 2.34955 11.9928 2.34955C14.5552 2.34955 16.956 3.34788 18.7625 5.1544C20.569 6.96091 21.5626 9.36643 21.5626 11.9241C21.5626 17.201 17.265 21.4938 11.9928 21.4938H11.9881C10.386 21.4938 8.81239 21.0897 7.41472 20.3291L2.34222 21.6602Z" fill="url(#paint0_linear_603_427)"/>
<path d="M2 22.0078L3.40718 16.8735C2.54195 15.3712 2.08082 13.6645 2.08557 11.9198C2.08557 6.45272 6.5353 2.00775 12.0024 2.00775C14.6551 2.00775 17.1462 3.03937 19.0145 4.91243C20.8876 6.7855 21.9192 9.27659 21.9144 11.9246C21.9144 17.3916 17.4647 21.8366 11.9976 21.8366H11.9929C10.3337 21.8366 8.70311 21.4183 7.25315 20.6291L2 22.0078ZM7.50036 18.8321L7.79986 19.0127C9.06442 19.7639 10.5144 20.1585 11.9929 20.1632H11.9976C16.5377 20.1632 20.2363 16.4694 20.2363 11.9246C20.2363 9.72346 19.3806 7.65548 17.826 6.09618C16.2715 4.53687 14.1987 3.68115 11.9976 3.68115C7.45282 3.68115 3.75422 7.375 3.75422 11.9198C3.75422 13.4744 4.18683 14.9909 5.01402 16.303L5.20894 16.6167L4.38174 19.6498L7.50036 18.8321Z" fill="url(#paint1_linear_603_427)"/>
<path fill-rule="evenodd" clip-rule="evenodd" d="M9.52084 7.76914C9.33543 7.35554 9.14052 7.34604 8.96462 7.34128C8.822 7.33653 8.65561 7.33653 8.48922 7.33653C8.32283 7.33653 8.05661 7.39833 7.82842 7.64554C7.60023 7.89274 6.9632 8.49175 6.9632 9.71352C6.9632 10.9305 7.85219 12.1095 7.97579 12.2759C8.0994 12.4423 9.69198 15.0237 12.2068 16.0173C14.2986 16.8445 14.7264 16.6781 15.1781 16.6353C15.6345 16.5925 16.6423 16.0363 16.8515 15.4563C17.0559 14.8763 17.0559 14.3819 16.9941 14.2773C16.9323 14.1728 16.7659 14.111 16.5187 13.9873C16.2715 13.8637 15.0545 13.2647 14.8263 13.1792C14.5981 13.0984 14.4317 13.0556 14.2701 13.3028C14.1037 13.55 13.6283 14.1062 13.4857 14.2726C13.343 14.439 13.1957 14.458 12.9485 14.3344C12.7013 14.2108 11.9026 13.9493 10.9565 13.1031C10.2197 12.4471 9.72051 11.6341 9.57789 11.3869C9.43527 11.1397 9.56362 11.0066 9.68723 10.883C9.79657 10.7737 9.93443 10.593 10.058 10.4504C10.1816 10.3078 10.2244 10.2032 10.3052 10.0368C10.3861 9.8704 10.348 9.72778 10.2862 9.60418C10.2197 9.48533 9.73952 8.2588 9.52084 7.76914Z" fill="white"/>
<defs>
<linearGradient id="paint0_linear_603_427" x1="11.9556" y1="21.6599" x2="11.9556" y2="2.34947" gradientUnits="userSpaceOnUse">
<stop stop-color="#20B038"/>
<stop offset="1" stop-color="#60D66A"/>
</linearGradient>
<linearGradient id="paint1_linear_603_427" x1="11.9557" y1="22.0065" x2="11.9557" y2="2.00359" gradientUnits="userSpaceOnUse">
<stop stop-color="#F9F9F9"/>
<stop offset="1" stop-color="white"/>
</linearGradient>
</defs>
</svg>
