<svg width="24" height="25" viewBox="0 0 24 25" fill="none" xmlns="http://www.w3.org/2000/svg">
<path d="M12 22.0109C17.5228 22.0109 22 17.5338 22 12.0109C22 6.48808 17.5228 2.01093 12 2.01093C6.47715 2.01093 2 6.48808 2 12.0109C2 17.5338 6.47715 22.0109 12 22.0109Z" fill="url(#paint0_linear_603_319)"/>
<path d="M6.52654 11.9053C9.44174 10.6352 11.3857 9.79789 12.3583 9.39333C15.1354 8.23824 15.7125 8.03758 16.0886 8.03089C16.1713 8.0295 16.3563 8.05 16.4761 8.14722C16.5773 8.22931 16.6051 8.3402 16.6184 8.41803C16.6317 8.49586 16.6483 8.67316 16.6351 8.8117C16.4846 10.3929 15.8335 14.2302 15.5022 16.0012C15.362 16.7506 15.086 17.0018 14.8188 17.0264C14.2381 17.0799 13.7971 16.6426 13.2346 16.274C12.3545 15.697 11.8573 15.3379 11.003 14.7749C10.0157 14.1243 10.6557 13.7667 11.2184 13.1823C11.3656 13.0293 13.9243 10.702 13.9738 10.4909C13.98 10.4645 13.9857 10.3661 13.9273 10.3141C13.8688 10.2621 13.7825 10.2799 13.7202 10.294C13.6319 10.3141 12.2259 11.2434 9.50216 13.082C9.10307 13.3561 8.74158 13.4896 8.4177 13.4826C8.06065 13.4749 7.37382 13.2807 6.86324 13.1147C6.23699 12.9112 5.73926 12.8035 5.7826 12.4578C5.80517 12.2777 6.05315 12.0936 6.52654 11.9053Z" fill="white"/>
<defs>
<linearGradient id="paint0_linear_603_319" x1="12" y1="2.01093" x2="12" y2="21.8625" gradientUnits="userSpaceOnUse">
<stop stop-color="#2AABEE"/>
<stop offset="1" stop-color="#229ED9"/>
</linearGradient>
</defs>
</svg>
