<svg width="24" height="25" viewBox="0 0 24 25" fill="none" xmlns="http://www.w3.org/2000/svg">
<path d="M12 22.0093C17.5228 22.0093 22 17.5322 22 12.0093C22 6.48649 17.5228 2.00934 12 2.00934C6.47715 2.00934 2 6.48649 2 12.0093C2 17.5322 6.47715 22.0093 12 22.0093Z" fill="#FF4500"/>
<path d="M18.6667 12.0079C18.6667 11.2009 18.0117 10.546 17.2047 10.546C16.807 10.546 16.4562 10.698 16.1989 10.9553C15.2047 10.2419 13.8246 9.77402 12.3041 9.71555L12.9708 6.59274L15.1345 7.04888C15.1579 7.59859 15.6141 8.04303 16.1755 8.04303C16.7486 8.04303 17.2164 7.57519 17.2164 7.0021C17.2164 6.429 16.7486 5.96116 16.1755 5.96116C15.7661 5.96116 15.4152 6.19508 15.2515 6.54595L12.8304 6.03133C12.7603 6.01964 12.6901 6.03133 12.6316 6.06642C12.5731 6.10151 12.538 6.15999 12.5146 6.23016L11.7778 9.71555C10.2222 9.76233 8.83043 10.2185 7.82459 10.9553C7.56728 10.7097 7.2047 10.546 6.81874 10.546C6.01172 10.546 5.35675 11.2009 5.35675 12.0079C5.35675 12.6044 5.70763 13.1074 6.22225 13.3413C6.19886 13.4816 6.18716 13.6337 6.18716 13.7857C6.18716 16.0313 8.79535 17.8442 12.0234 17.8442C15.2515 17.8442 17.8597 16.0313 17.8597 13.7857C17.8597 13.6337 17.848 13.4933 17.8246 13.353C18.3041 13.1191 18.6667 12.6044 18.6667 12.0079ZM8.66669 13.0489C8.66669 12.4758 9.13453 12.0079 9.70763 12.0079C10.2807 12.0079 10.7486 12.4758 10.7486 13.0489C10.7486 13.622 10.2807 14.0898 9.70763 14.0898C9.13453 14.0898 8.66669 13.622 8.66669 13.0489ZM14.4796 15.7974C13.7661 16.5109 12.4094 16.5577 12.0117 16.5577C11.6141 16.5577 10.2456 16.4992 9.54388 15.7974C9.43862 15.6922 9.43862 15.5167 9.54388 15.4115C9.64915 15.3062 9.82459 15.3062 9.92985 15.4115C10.3743 15.8559 11.3334 16.0196 12.0234 16.0196C12.7135 16.0196 13.6608 15.8559 14.117 15.4115C14.2222 15.3062 14.3977 15.3062 14.5029 15.4115C14.5848 15.5284 14.5848 15.6922 14.4796 15.7974ZM14.2924 14.0898C13.7193 14.0898 13.2515 13.622 13.2515 13.0489C13.2515 12.4758 13.7193 12.0079 14.2924 12.0079C14.8655 12.0079 15.3334 12.4758 15.3334 13.0489C15.3334 13.622 14.8655 14.0898 14.2924 14.0898Z" fill="white"/>
</svg>
