<svg width="24" height="25" viewBox="0 0 24 25" fill="none" xmlns="http://www.w3.org/2000/svg">
<path d="M22 5.92765C21.2645 6.25356 20.4744 6.47376 19.6438 6.5733C20.4911 6.06594 21.1412 5.26087 21.4477 4.30253C20.655 4.77289 19.7768 5.11465 18.8422 5.29786C18.0935 4.5016 17.0277 4.00305 15.8474 4.00305C13.582 4.00305 11.7446 5.84045 11.7446 8.10769C11.7446 8.42831 11.7816 8.74013 11.8503 9.04137C8.43883 8.86961 5.41672 7.23568 3.39258 4.75351C3.04025 5.36128 2.83766 6.06594 2.83766 6.81641C2.83766 8.23982 3.56258 9.49675 4.66273 10.2322C3.98978 10.2102 3.35735 10.0261 2.80419 9.71872V9.77157C2.80419 11.7596 4.21792 13.4182 6.09583 13.7952C5.75055 13.8885 5.38853 13.9379 5.01506 13.9379C4.75081 13.9379 4.49273 13.9132 4.24258 13.8656C4.76491 15.4952 6.27993 16.6825 8.07593 16.7142C6.67101 17.8153 4.90144 18.4715 2.97948 18.4715C2.64829 18.4715 2.3215 18.4521 2 18.4142C3.81626 19.5796 5.97252 20.2578 8.28909 20.2578C15.8378 20.2578 19.9644 14.0057 19.9644 8.58334C19.9644 8.40717 19.96 8.22925 19.9521 8.05308C20.7536 7.4735 21.4495 6.7521 21.9982 5.9303L22 5.92765Z" fill="white"/>
</svg>
