<svg width="110" height="24" viewBox="0 0 110 24" fill="none" xmlns="http://www.w3.org/2000/svg">
<g clip-path="url(#clip0_2208_4388)">
<path fill-rule="evenodd" clip-rule="evenodd" d="M31.3949 0.521809C32.894 0.924552 34.0798 2.11041 34.4826 3.6095C35.2209 6.3392 35.2433 12 35.2433 12C35.2433 12 35.2433 17.6831 34.5049 20.3905C34.1022 21.8896 32.9163 23.0754 31.4172 23.4781C28.7099 24.2165 17.8135 24.2165 17.8135 24.2165C17.8135 24.2165 6.91705 24.2165 4.20972 23.4781C2.71063 23.0754 1.52477 21.8896 1.12203 20.3905C0.383667 17.6608 0.383667 12 0.383667 12C0.383667 12 0.383667 6.3392 1.09965 3.63188C1.5024 2.13278 2.68825 0.946926 4.18735 0.544184C6.89468 -0.194178 17.7911 -0.216553 17.7911 -0.216553C17.7911 -0.216553 28.6875 -0.216553 31.3949 0.521809ZM14.323 6.7644L23.3623 12.0001L14.323 17.2357V6.7644Z" fill="white"/>
<path d="M50.9503 22.0014C50.2566 21.5316 49.7644 20.8156 49.4735 19.8311C49.1827 18.8466 49.0484 17.5489 49.0484 15.9155V13.7004C49.0484 12.0671 49.205 10.7246 49.5407 9.74014C49.8763 8.73329 50.3909 8.0173 51.1069 7.56981C51.8229 7.12232 52.7402 6.87619 53.8813 6.87619C55.0001 6.87619 55.9174 7.09994 56.5887 7.56981C57.2599 8.03967 57.7745 8.75566 58.0878 9.74014C58.401 10.7246 58.5576 12.0447 58.5576 13.6781V15.8932C58.5576 17.5265 58.401 18.8242 58.0878 19.8087C57.7745 20.7932 57.2823 21.5092 56.5887 21.979C55.8951 22.4265 54.9553 22.6727 53.7918 22.6727C52.5836 22.695 51.6439 22.4489 50.9503 22.0014ZM54.8211 19.6073C55.0224 19.1151 55.1119 18.2872 55.1119 17.1685V12.4027C55.1119 11.3064 55.0224 10.5009 54.8211 10.0086C54.6197 9.49402 54.2841 9.2479 53.8142 9.2479C53.3443 9.2479 53.0311 9.49402 52.8297 10.0086C52.6284 10.5233 52.5389 11.3064 52.5389 12.4027V17.1685C52.5389 18.2872 52.6284 19.1151 52.8074 19.6073C52.9864 20.0996 53.322 20.3457 53.8142 20.3457C54.2841 20.3457 54.6197 20.0996 54.8211 19.6073ZM103.866 16.7434L103.956 18.9585C104.023 19.4507 104.135 19.8087 104.314 20.0325C104.493 20.2562 104.784 20.3681 105.164 20.3681C105.679 20.3681 106.037 20.1667 106.216 19.764C106.417 19.3612 106.506 18.69 106.529 17.7726L109.505 17.9516C109.527 18.0859 109.527 18.2649 109.527 18.4886C109.527 19.8982 109.147 20.9498 108.363 21.6434C107.58 22.337 106.506 22.695 105.097 22.695C103.396 22.695 102.21 22.158 101.539 21.1064C100.868 20.0548 100.51 18.3991 100.51 16.184V13.4767C100.51 11.1945 100.868 9.5164 101.562 8.46479C102.278 7.41319 103.486 6.87619 105.186 6.87619C106.372 6.87619 107.267 7.09994 107.894 7.52506C108.52 7.95018 108.968 8.62141 109.236 9.53877C109.505 10.4561 109.616 11.7091 109.616 13.3201V15.9379H103.866V16.7434ZM104.314 9.5164C104.135 9.74014 104.023 10.0758 103.956 10.568C103.889 11.0602 103.866 11.7986 103.866 12.8055V13.9018H106.372V12.8055C106.372 11.821 106.35 11.0826 106.283 10.568C106.216 10.0534 106.104 9.69539 105.925 9.49402C105.746 9.29265 105.477 9.18078 105.119 9.18078C104.739 9.20315 104.47 9.31503 104.314 9.5164ZM42.5822 15.6694L38.6666 1.52867H42.0899L43.4548 7.9278C43.8128 9.5164 44.0589 10.8589 44.2379 11.9552H44.3274C44.4393 11.1497 44.7077 9.82964 45.1105 7.95018L46.5201 1.52867H49.9434L45.9831 15.647V22.4265H42.6045V15.6694H42.5822Z" fill="white"/>
<path d="M69.6554 7.16707V22.4489H66.9705L66.6796 20.5695H66.6125C65.8741 21.9791 64.7778 22.695 63.3234 22.695C62.3166 22.695 61.5558 22.3594 61.086 21.6882C60.5937 21.0169 60.37 19.9877 60.37 18.5781V7.16707H63.8157V18.3767C63.8157 19.048 63.8828 19.5402 64.0394 19.8311C64.196 20.122 64.4421 20.2562 64.7778 20.2562C65.0686 20.2562 65.3595 20.1667 65.628 19.9877C65.8965 19.8087 66.0979 19.5626 66.2321 19.2941V7.16707H69.6554Z" fill="white"/>
<path d="M87.309 7.16707V22.4489H84.624L84.3332 20.5695H84.266C83.5277 21.9791 82.4313 22.695 80.977 22.695C79.9701 22.695 79.2094 22.3594 78.7395 21.6882C78.2473 21.0169 78.0235 19.9877 78.0235 18.5781V7.16707H81.4692V18.3767C81.4692 19.048 81.5363 19.5402 81.693 19.8311C81.8496 20.122 82.0957 20.2562 82.4313 20.2562C82.7222 20.2562 83.0131 20.1667 83.2816 19.9877C83.5501 19.8087 83.7514 19.5626 83.8857 19.2941V7.16707H87.309Z" fill="white"/>
<path d="M79.008 4.30312H75.5847V22.4489H72.2285V4.30312H68.8052V1.52867H78.9856V4.30312H79.008ZM98.6753 9.6059C98.4739 8.64379 98.1383 7.95018 97.6684 7.50268C97.1986 7.07757 96.5721 6.85382 95.7442 6.85382C95.1177 6.85382 94.5136 7.03282 93.9766 7.39081C93.4173 7.74881 93.0145 8.21867 92.7013 8.80041H92.6789V0.745555H89.3675V22.4265H92.209L92.567 20.9722H92.6341C92.9026 21.4868 93.3054 21.8896 93.82 22.2028C94.3617 22.4996 94.97 22.6536 95.5876 22.6503C96.7511 22.6503 97.6013 22.1133 98.1607 21.0393C98.6977 19.9653 98.9885 18.2872 98.9885 16.0274V13.611C98.9885 11.9105 98.8767 10.568 98.6753 9.6059ZM95.5205 15.8484C95.5205 16.9671 95.4757 17.8398 95.3862 18.4662C95.2967 19.0927 95.1401 19.5402 94.9164 19.8087C94.6926 20.0772 94.4017 20.2115 94.0437 20.2115C93.7529 20.2115 93.5068 20.1443 93.2606 20.0101C93.0145 19.8758 92.8355 19.6745 92.6789 19.406V10.7246C92.7908 10.2995 92.9921 9.96389 93.283 9.6954C93.5739 9.4269 93.8648 9.29265 94.2004 9.29265C94.5584 9.29265 94.8269 9.4269 95.0059 9.6954C95.2072 9.96389 95.3191 10.4338 95.4086 11.0826C95.4757 11.7315 95.5205 12.6488 95.5205 13.8571V15.8484Z" fill="white"/>
</g>
<defs>
<clipPath id="clip0_2208_4388">
<rect width="110" height="24" fill="white"/>
</clipPath>
</defs>
</svg>
