<svg width="24" height="24" viewBox="0 0 24 24" fill="none" xmlns="http://www.w3.org/2000/svg">
<path d="M12.2064 5.62712C14.3975 5.62712 16.1737 4.59409 16.1737 3.31978C16.1737 2.04548 14.3975 1.01245 12.2064 1.01245C10.0154 1.01245 8.23921 2.04548 8.23921 3.31978C8.23921 4.59409 10.0154 5.62712 12.2064 5.62712Z" fill="#B5C1C9"/>
<path d="M12.2064 23.0125C14.3975 23.0125 16.1737 21.9794 16.1737 20.7051C16.1737 19.4308 14.3975 18.3978 12.2064 18.3978C10.0154 18.3978 8.23921 19.4308 8.23921 20.7051C8.23921 21.9794 10.0154 23.0125 12.2064 23.0125Z" fill="#B5C1C9"/>
<path d="M6.67783 8.82101C7.77335 6.92357 7.76624 4.86852 6.66195 4.23094C5.55766 3.59336 3.77435 4.61467 2.67883 6.51212C1.58331 8.40957 1.59042 10.4646 2.69471 11.1022C3.799 11.7398 5.58231 10.7185 6.67783 8.82101Z" fill="#B5C1C9"/>
<path d="M21.7323 17.5126C22.8279 15.6152 22.8214 13.5605 21.7178 12.9233C20.6143 12.2862 18.8316 13.3079 17.736 15.2053C16.6405 17.1028 16.647 19.1575 17.7506 19.7946C18.8541 20.4318 20.6368 19.4101 21.7323 17.5126Z" fill="#B5C1C9"/>
<path d="M6.6625 19.7941C7.7668 19.1565 7.77391 17.1014 6.67839 15.204C5.58286 13.3066 3.79956 12.2852 2.69526 12.9228C1.59097 13.5604 1.58386 15.6155 2.67938 17.5129C3.77491 19.4103 5.55821 20.4317 6.6625 19.7941Z" fill="#B5C1C9"/>
<path d="M21.7188 11.1027C22.8223 10.4656 22.8288 8.41085 21.7333 6.51341C20.6378 4.61596 18.8551 3.59429 17.7515 4.23144C16.648 4.8686 16.6415 6.92329 17.737 8.82074C18.8325 10.7182 20.6152 11.7399 21.7188 11.1027Z" fill="#B5C1C9"/>
</svg>
