<svg width="24" height="25" viewBox="0 0 24 25" fill="none" xmlns="http://www.w3.org/2000/svg">
<path d="M18.9556 5.70324C17.6518 5.10692 16.2671 4.67232 14.8218 4.42975C14.6399 4.74307 14.4377 5.16756 14.2962 5.5011C12.759 5.27874 11.2328 5.27874 9.71672 5.5011C9.57521 5.16756 9.36295 4.74307 9.19112 4.42975C7.73573 4.67232 6.35105 5.10692 5.05634 5.70324C2.4386 9.56414 1.73111 13.3341 2.08485 17.0535C3.82327 18.3168 5.50106 19.085 7.14953 19.5904C7.55382 19.0446 7.91768 18.4584 8.231 17.8419C7.63468 17.6195 7.06868 17.3466 6.5229 17.0231C6.6644 16.9221 6.8059 16.811 6.93729 16.6998C10.2322 18.2057 13.801 18.2057 17.0555 16.6998C17.197 16.811 17.3284 16.9221 17.4699 17.0231C16.9241 17.3466 16.3581 17.6195 15.7618 17.8419C16.0751 18.4584 16.439 19.0446 16.8432 19.5904C18.4907 19.085 20.1786 18.3168 21.9079 17.0535C22.3425 12.7479 21.2196 9.00829 18.9556 5.70324ZM8.68581 14.7592C7.6953 14.7592 6.88674 13.8597 6.88674 12.758C6.88674 11.6563 7.67509 10.7568 8.68581 10.7568C9.68639 10.7568 10.505 11.6563 10.4848 12.758C10.4848 13.8597 9.68639 14.7592 8.68581 14.7592ZM15.3272 14.7592C14.3367 14.7592 13.5271 13.8597 13.5271 12.758C13.5271 11.6563 14.3164 10.7568 15.3272 10.7568C16.3278 10.7568 17.1464 11.6563 17.1262 12.758C17.1262 13.8597 16.3379 14.7592 15.3272 14.7592Z" fill="#5865F2"/>
</svg>
