<svg width="16" height="16" viewBox="0 0 16 16" fill="none" xmlns="http://www.w3.org/2000/svg">
<path d="M15 4V2H6V4L15 4Z" fill="#F4F6F8"/>
<path d="M2.00004 3.70705L1.35359 4.3535L0.646484 3.64639L2.12941 2.16346C2.4507 1.84217 3.00004 2.06973 3.00004 2.52409V5.99994H4.00004V6.99994H1.00004V5.99994H2.00004V3.70705Z" fill="#F4F6F8"/>
<path d="M1.44434 9.4801C1.99511 8.82395 3.00065 8.81159 3.56738 9.45401C3.99903 9.9433 4.03563 10.6658 3.65563 11.1962L2.36337 13H3.99995V14H1.39203C0.984321 14 0.747186 13.5389 0.984763 13.2072L2.84272 10.6139C2.9514 10.4622 2.94094 10.2555 2.81748 10.1156C2.65539 9.93182 2.3678 9.93535 2.21027 10.123L1.77314 10.6438L1.00721 10.0009L1.44434 9.4801Z" fill="#F4F6F8"/>
<path d="M15 7V9L6 9V7L15 7Z" fill="#F4F6F8"/>
<path d="M15 14V12H6V14H15Z" fill="#F4F6F8"/>
</svg>
