<svg width="24" height="24" viewBox="0 0 24 24" fill="none" xmlns="http://www.w3.org/2000/svg">
<path fill-rule="evenodd" clip-rule="evenodd" d="M8 5C8 2.79086 9.79086 1 12 1C14.2091 1 16 2.79086 16 5V6H19.5C20.5159 6 21.3704 6.76157 21.4868 7.77075L22.9868 20.7708C23.0522 21.3373 22.8726 21.9049 22.4931 22.3307C22.1136 22.7565 21.5704 23 21 23H3.00001C2.42965 23 1.88643 22.7565 1.50694 22.3307C1.12746 21.9049 0.947816 21.3373 1.01319 20.7708L2.25597 10H4.26924L3.00001 21H21L19.5 8L2.48674 8L2.51319 7.77075C2.62964 6.76157 3.48413 6 4.50001 6H8V5ZM10 6H14V5C14 3.89543 13.1046 3 12 3C10.8954 3 10 3.89543 10 5V6Z" fill="#F4F6F8"/>
<path d="M10 11L15 14.5L10 18V11Z" fill="#F4F6F8"/>
</svg>
