<svg width="24" height="24" viewBox="0 0 24 24" fill="none" xmlns="http://www.w3.org/2000/svg">
<path fill-rule="evenodd" clip-rule="evenodd" d="M8 9C8 6.79086 9.79086 5 12 5C14.2091 5 16 6.79086 16 9C16 11.2091 14.2091 13 12 13C9.79086 13 8 11.2091 8 9ZM12 7C10.8954 7 10 7.89543 10 9C10 10.1046 10.8954 11 12 11C13.1046 11 14 10.1046 14 9C14 7.89543 13.1046 7 12 7Z" fill="#F4F6F8"/>
<path fill-rule="evenodd" clip-rule="evenodd" d="M3 1C1.89543 1 1 1.89543 1 3V21C1 22.1046 1.89543 23 3 23L7 23L7 20C7 18.3431 8.34314 17 10 17H14C15.6569 17 17 18.3431 17 20V21L9 21V23H21C22.1046 23 23 22.1046 23 21V3C23 1.89543 22.1046 1 21 1H3ZM19 21L21 21V3L3 3V21H5L5 20C5 17.2386 7.23858 15 10 15H14C16.7614 15 19 17.2386 19 20V21Z" fill="#F4F6F8"/>
</svg>
