<svg width="22" height="18" viewBox="0 0 22 18" fill="none" xmlns="http://www.w3.org/2000/svg">
<path fill-rule="evenodd" clip-rule="evenodd" d="M15 0C12.7909 0 11 1.79086 11 4C11 6.20914 12.7909 8 15 8C17.2091 8 19 6.20914 19 4C19 1.79086 17.2091 0 15 0ZM13 4C13 2.89543 13.8954 2 15 2C16.1046 2 17 2.89543 17 4C17 5.10457 16.1046 6 15 6C13.8954 6 13 5.10457 13 4Z" fill="#F4F6F8"/>
<path d="M5 2C3.89543 2 3 2.89543 3 4C3 5.10457 3.89543 6 5 6C6.10457 6 7 5.10457 7 4C7 2.89543 6.10457 2 5 2Z" fill="#F4F6F8"/>
<path d="M11.5 16H20V15C20 13.3431 18.6569 12 17 12H13C11.3431 12 10 13.3431 10 15L10 16.5H8L8 15C8 14.6575 8.03443 14.3231 8.10002 14H4V12H7.99103C7.88999 10.8787 6.94761 10 5.8 10L4 10C2.89543 10 2 10.8954 2 12L2 14H0V12C0 9.79086 1.79086 8 4 8H5.8C7.7429 8 9.37767 9.31924 9.85739 11.1108C10.7161 10.4161 11.8094 10 13 10H17C19.7614 10 22 12.2386 22 15V16C22 17.1046 21.1046 18 20 18H11.5V16Z" fill="#F4F6F8"/>
</svg>
