<svg width="24" height="24" viewBox="0 0 24 24" fill="none" xmlns="http://www.w3.org/2000/svg">
<g clip-path="url(#clip0_1641_4312)">
<path d="M11.061 2.04337C12.3684 1.9206 13.6873 2.05655 14.9422 2.44347C16.1971 2.83039 17.3635 3.4607 18.3749 4.2984C19.3862 5.13611 20.2226 6.16481 20.8364 7.32576C21.4502 8.48672 21.8293 9.75721 21.9521 11.0647C22.0748 12.3721 21.9389 13.691 21.552 14.9459C21.165 16.2008 20.5347 17.3673 19.697 18.3786C18.8593 19.3899 17.8306 20.2264 16.6697 20.8401C15.5292 21.4431 14.2831 21.8195 13 21.949V17.9161C13.4394 17.8418 13.8717 17.7184 14.2886 17.5464C15.5092 17.0427 16.5296 16.1504 17.1916 15.0079L15.4611 14.0053C15.0197 14.7669 14.3395 15.3618 13.5258 15.6976C12.712 16.0333 11.8102 16.0913 10.9602 15.8625C10.1102 15.6336 9.35935 15.1308 8.82416 14.4319C8.28896 13.7329 7.99928 12.877 8 11.9967C8.00073 11.1164 8.29183 10.2609 8.82817 9.56288C9.36452 8.86484 10.1162 8.36322 10.9666 8.13579C11.817 7.90836 12.7187 7.96781 13.5319 8.30493C14.345 8.64206 15.0243 9.23802 15.4644 10.0004L17.1965 9.00066C16.5365 7.85703 15.5176 6.96309 14.2978 6.45741C13.8781 6.2834 13.4426 6.15871 13 6.0839V3.99998H11V6.0839C10.8155 6.1151 10.6319 6.15501 10.4499 6.20369C9.17423 6.54484 8.04678 7.29726 7.24226 8.34432C6.43774 9.39138 6.00109 10.6746 6 11.995C5.99891 13.3155 6.43344 14.5994 7.23623 15.6478C8.03902 16.6962 9.16524 17.4505 10.4403 17.7937C10.6254 17.8436 10.8122 17.8843 11 17.9161L11.0001 23.9582C11.7032 24.0167 12.4119 24.0133 13.1177 23.947C14.6867 23.7997 16.2113 23.3448 17.6044 22.6082C18.9976 21.8717 20.232 20.868 21.2373 19.6544C22.2425 18.4408 22.9989 17.0411 23.4632 15.5352C23.9275 14.0293 24.0906 12.4467 23.9433 10.8777C23.796 9.30873 23.3411 7.78415 22.6045 6.391C21.868 4.99785 20.8643 3.76341 19.6507 2.75817C18.4371 1.75292 17.0374 0.996554 15.5315 0.532251C14.0255 0.0679485 12.4429 -0.0951964 10.874 0.0521308C9.30501 0.199458 7.78043 0.654373 6.38728 1.3909C4.99413 2.12743 3.75969 3.13115 2.75444 4.34474C1.7492 5.55834 0.99283 6.95806 0.528528 8.46397C0.0642254 9.96988 -0.0989197 11.5525 0.0484078 13.1215C0.195735 14.6904 0.650649 16.215 1.38718 17.6081C2.12371 19.0013 3.12742 20.2357 4.34102 21.241C5.55462 22.2462 6.95433 23.0026 8.46025 23.4669C8.63916 23.5221 8.81916 23.573 9.00009 23.6196L9.00009 21.5403C7.76396 21.1522 6.61487 20.5274 5.61683 19.7007C4.60549 18.863 3.76906 17.8343 3.15529 16.6734C2.54152 15.5124 2.16242 14.2419 2.03965 12.9345C1.91688 11.627 2.05283 10.3082 2.43975 9.05323C2.82667 7.79831 3.45697 6.63188 4.29468 5.62055C5.13238 4.60922 6.16108 3.77279 7.32204 3.15901C8.483 2.54524 9.75348 2.16614 11.061 2.04337Z" fill="#F4F6F8"/>
</g>
<defs>
<clipPath id="clip0_1641_4312">
<rect width="24" height="24" fill="white"/>
</clipPath>
</defs>
</svg>
