<svg width="24" height="24" viewBox="0 0 24 24" fill="none" xmlns="http://www.w3.org/2000/svg">
<path d="M17 12L9 7V17L17 12Z" fill="#F4F6F8"/>
<path fill-rule="evenodd" clip-rule="evenodd" d="M20.9154 4.8629L12 0L3.0846 4.8629C1.79955 5.56383 1 6.91071 1 8.37449V15.6254C1 17.0892 1.79954 18.4361 3.08458 19.137L12 24L20.9154 19.137C22.2005 18.4361 23 17.0892 23 15.6254V8.37449C23 6.91071 22.2004 5.56383 20.9154 4.8629ZM3 15.6254V8.37449C3 7.6426 3.39978 6.96916 4.0423 6.6187L12 2.27817L19.9577 6.6187C20.6002 6.96916 21 7.6426 21 8.37449V15.6254C21 16.3573 20.6002 17.0307 19.9577 17.3812L12 21.7218L4.04229 17.3812C3.39977 17.0307 3 16.3573 3 15.6254Z" fill="#F4F6F8"/>
</svg>
