<svg width="24" height="24" viewBox="0 0 24 24" fill="none" xmlns="http://www.w3.org/2000/svg">
<path d="M23.4982 3.81092C23.998 5.81538 24 10 24 10C24 10 24 14.1846 23.4982 16.1891C23.4779 16.2703 23.4547 16.3503 23.4288 16.4288L21.7325 14.7325C21.8305 14.0005 21.8978 13.1099 21.9396 12.2462C21.9698 11.6227 21.9849 11.0575 21.9925 10.6482C21.9963 10.4439 21.9982 10.2795 21.9991 10.1672C21.9996 10.111 21.9998 10.068 21.9999 10.0396L22 10.0082L22 10.0012V9.99981L22 9.99271L21.9999 9.9613C21.9998 9.9329 21.9995 9.88985 21.999 9.83371C21.998 9.72137 21.9961 9.5569 21.9922 9.35259C21.9845 8.94314 21.9692 8.37788 21.9389 7.75416C21.8756 6.45089 21.7545 5.08496 21.5578 4.29564L11.739 7.15936L16 10L10 14V7.66655V6L11.739 7.15936L21.5578 4.29564C21.4412 3.82993 21.1214 3.54516 20.8249 3.46013L20.8239 3.45983C20.5769 3.38885 19.9487 3.29757 18.966 3.22072C18.043 3.14854 16.9638 3.09934 15.9229 3.06619C14.8854 3.03315 13.9031 3.01657 13.179 3.00827C12.8174 3.00412 12.5212 3.00206 12.3161 3.00102C12.2135 3.00051 12.1337 3.00025 12.08 3.00013H11.9199C11.8662 3.00025 11.7864 3.00051 11.6839 3.00102C11.4787 3.00206 11.1825 3.00412 10.8209 3.00827C10.0969 3.01657 9.11453 3.03315 8.07705 3.06619C7.03615 3.09934 5.95694 3.14854 5.03392 3.22072C4.05127 3.29757 3.42304 3.38885 3.176 3.45984L3.175 3.46013C2.87841 3.54519 2.55868 3.82936 2.44216 4.29572C2.24489 5.08373 2.12346 6.45002 2.06039 7.75377C2.03023 8.37734 2.01508 8.94248 2.0075 9.35184C2.00372 9.55611 2.00184 9.72054 2.00091 9.83284C2.00045 9.88897 2.00022 9.93199 2.00011 9.96038L2.00001 9.99177L2 9.99981L2.00001 10.0082L2.00011 10.0396C2.00022 10.068 2.00045 10.111 2.00091 10.1672C2.00184 10.2795 2.00372 10.4439 2.0075 10.6482C2.01508 11.0575 2.03023 11.6227 2.06039 12.2462C2.12346 13.55 2.24466 14.9154 2.44194 15.7034C2.55846 16.1698 2.8784 16.4548 3.17491 16.5398L3.17603 16.5401C3.42306 16.6111 4.05127 16.7024 5.03393 16.7793C5.95694 16.8515 7.03615 16.9007 8.07706 16.9338C9.11453 16.9668 10.0969 16.9834 10.8209 16.9917C11.1825 16.9959 11.4787 16.9979 11.6839 16.999C11.7864 16.9995 11.8662 16.9997 11.9199 16.9999L18.4775 17L16.1846 14.7071L17.5988 13.2929L22.3059 18L17.5988 22.7071L16.1846 21.2929L18.4775 19H12C12 19 4.49456 19 2.62364 18.4623C1.59039 18.1661 0.778399 17.2961 0.501811 16.1891C0 14.1846 0 10 0 10C0 10 0 5.81538 0.501811 3.81092C0.778399 2.70391 1.59039 1.83396 2.62364 1.53763C4.49456 1 12 1 12 1C12 1 19.5055 1 21.3763 1.53763C22.4096 1.83396 23.2216 2.70391 23.4982 3.81092Z" fill="#F4F6F8"/>
</svg>
