<svg width="16" height="16" viewBox="0 0 16 16" fill="none" xmlns="http://www.w3.org/2000/svg">
<path d="M8.45455 3H7.36364C6.05824 3 5 4.05824 5 5.36364C5 6.26737 5.73263 7 6.63636 7H14V8L2 8V7L3.38811 7C3.13984 6.50815 3 5.95222 3 5.36364C3 2.95367 4.95367 1 7.36364 1H8.45455C10.7803 1 12.6981 2.74679 12.9676 5H10.9414C10.6917 3.8563 9.67313 3 8.45455 3Z" fill="#F4F6F8"/>
<path d="M8.6362 13H7.54529C6.3267 13 5.30811 12.1437 5.05841 11H3.03223C3.30169 13.2532 5.2195 15 7.54529 15H8.6362C11.0462 15 12.9998 13.0463 12.9998 10.6364C12.9998 10.0478 12.86 9.49185 12.6117 9H9.36347C10.2672 9 10.9998 9.73263 10.9998 10.6364C10.9998 11.9418 9.9416 13 8.6362 13Z" fill="#F4F6F8"/>
</svg>
