<svg width="36" height="36" viewBox="0 0 36 36" fill="none" xmlns="http://www.w3.org/2000/svg">
<path d="M0 18L18 18L18 36L1.57361e-06 36L0 18Z" fill="#62E933"/>
<g clip-path="url(#clip0_4782_70872)">
<path d="M0.00683594 18L2.00764 18C2.26703 9.28467 9.28488 2.26682 18.0002 2.00743L18.0002 0.00662534C8.18021 0.267185 0.267395 8.18001 0.00683594 18Z" fill="#62E933"/>
<path d="M18.0002 4.00846C10.3896 4.26636 4.26657 10.3894 4.00867 18L6.01003 18C6.26595 11.4941 11.4943 6.26574 18.0002 6.00982L18.0002 4.00846Z" fill="#62E933"/>
<path d="M18.0002 8C12.4774 8 8.00021 12.4772 8.00021 18L10.0002 18C10.0002 13.5817 13.5819 10 18.0002 10L18.0002 8Z" fill="#62E933"/>
<path d="M18.0002 12C14.6865 12 12.0002 14.6863 12.0002 18L14.0002 18C14.0002 15.7909 15.7911 14 18.0002 14L18.0002 12Z" fill="#62E933"/>
<path d="M18.0002 16C16.8956 16 16.0002 16.8954 16.0002 18L18.0002 18L18.0002 16Z" fill="#62E933"/>
</g>
<g clip-path="url(#clip1_4782_70872)">
<path d="M18 0.00665283V2.00746C26.7153 2.26685 33.7332 9.2847 33.9926 18H35.9934C35.7328 8.18003 27.82 0.267212 18 0.00665283Z" fill="#62E933"/>
<path d="M31.9915 18C31.7336 10.3894 25.6106 4.26638 18 4.00849V6.00984C24.5059 6.26577 29.7343 11.4941 29.9902 18H31.9915Z" fill="#62E933"/>
<path d="M28 18C28 12.4772 23.5228 8.00003 18 8.00003V10C22.4183 10 26 13.5817 26 18H28Z" fill="#62E933"/>
<path d="M24 18C24 14.6863 21.3137 12 18 12V14C20.2091 14 22 15.7909 22 18H24Z" fill="#62E933"/>
<path d="M20 18C20 16.8955 19.1046 16 18 16V18H20Z" fill="#62E933"/>
</g>
<path d="M18 36L18 18L36 18L36 36L18 36Z" fill="#62E933"/>
<defs>
<clipPath id="clip0_4782_70872">
<rect width="18" height="18" fill="white" transform="translate(0 18) rotate(-90)"/>
</clipPath>
<clipPath id="clip1_4782_70872">
<rect width="18" height="18" fill="white" transform="translate(18)"/>
</clipPath>
</defs>
</svg>
