<svg width="37" height="36" viewBox="0 0 37 36" fill="none" xmlns="http://www.w3.org/2000/svg">
    <g clip-path="url(#clip0_1532_4306)">
        <path d="M18 35.9934C8.18 35.7329 0.267166 27.82 0.00662231 18L18 18L18 35.9934Z" fill="#E7BE2D"/>
    </g>
    <path fill-rule="evenodd" clip-rule="evenodd" d="M18.0384 16.5901V18H16.6283L0.0383911 1.41008V0H1.44829L18.0384 16.5901ZM0.0383911 4.32V7.13362L10.9049 18H13.7184L0.0383911 4.32ZM0.0383911 12.7299V9.9L8.13839 18H5.30835L0.0383911 12.7299ZM0.0383911 18H2.55839L0.0383911 15.48V18ZM4.35839 0H7.17196L18.0384 10.8664V13.68L4.35839 0ZM12.7684 0H9.93839L18.0384 8.1V5.27008L12.7684 0ZM18.0384 2.52L15.5184 0H18.0384V2.52Z" fill="#E7BE2D"/>
    <g clip-path="url(#clip1_1532_4306)">
        <path d="M18 0.00657654C27.82 0.267135 35.7328 8.17997 35.9934 18L18 18L18 0.00657654Z" fill="#E7BE2D"/>
    </g>
    <path fill-rule="evenodd" clip-rule="evenodd" d="M36.0384 34.5901V36H34.6283L18.0384 19.4101V18H19.4483L36.0384 34.5901ZM18.0384 22.32V25.1336L28.9049 36H31.7184L18.0384 22.32ZM18.0384 30.7299V27.9L26.1384 36H23.3084L18.0384 30.7299ZM18.0384 36H20.5584L18.0384 33.48V36ZM22.3584 18H25.172L36.0384 28.8664V31.68L22.3584 18ZM30.7684 18H27.9384L36.0384 26.1V23.2701L30.7684 18ZM36.0384 20.52L33.5184 18H36.0384V20.52Z" fill="#E7BE2D"/>
    <defs>
        <clipPath id="clip0_1532_4306">
            <rect width="18" height="18" fill="white" transform="translate(18 36) rotate(180)"/>
        </clipPath>
        <clipPath id="clip1_1532_4306">
            <rect width="18" height="18" fill="white" transform="translate(18)"/>
        </clipPath>
    </defs>
</svg>
