<svg width="37" height="37" viewBox="0 0 37 37" fill="none" xmlns="http://www.w3.org/2000/svg">
<path fill-rule="evenodd" clip-rule="evenodd" d="M0.961913 19.4099L0.961912 18L2.37197 18L18.9619 34.5899L18.9619 36L17.552 36L0.961913 19.4099ZM18.9619 31.68L18.9619 28.8664L8.09536 18L5.28192 18L18.9619 31.68ZM18.9619 23.2701L18.9619 26.1L10.8619 18L13.692 18L18.9619 23.2701ZM18.9619 18L16.4419 18L18.9619 20.52L18.9619 18ZM14.6419 36L11.8283 36L0.961913 25.1336L0.961913 22.32L14.6419 36ZM6.23188 36L9.06191 36L0.961913 27.9L0.961914 30.7299L6.23188 36ZM0.961914 33.48L3.48192 36L0.961914 36L0.961914 33.48Z" fill="#AF33E9"/>
<g clip-path="url(#clip0_4782_70886)">
<path d="M1.00659 18C1.26715 8.18 9.17999 0.267165 19 0.00662231L19 18L1.00659 18Z" fill="#AF33E9"/>
</g>
<g clip-path="url(#clip1_4782_70886)">
<path d="M19 0.0065918C28.82 0.26715 36.7328 8.17999 36.9934 18L19 18L19 0.0065918Z" fill="#AF33E9"/>
</g>
<path fill-rule="evenodd" clip-rule="evenodd" d="M20.4099 36.0384L19 36.0384L19 34.6283L35.5899 18.0384L37 18.0384L37 19.4483L20.4099 36.0384ZM32.68 18.0384L29.8664 18.0384L19 28.9049L19 31.7184L32.68 18.0384ZM24.2701 18.0384L27.1 18.0384L19 26.1384L19 23.3084L24.2701 18.0384ZM19 18.0384L19 20.5584L21.52 18.0384L19 18.0384ZM37 22.3584L37 25.172L26.1336 36.0384L23.32 36.0384L37 22.3584ZM37 30.7684L37 27.9384L28.9 36.0384L31.7299 36.0384L37 30.7684ZM34.48 36.0384L37 33.5184L37 36.0384L34.48 36.0384Z" fill="#AF33E9"/>
<defs>
<clipPath id="clip0_4782_70886">
<rect width="18" height="18" fill="white" transform="translate(1 18) rotate(-90)"/>
</clipPath>
<clipPath id="clip1_4782_70886">
<rect width="18" height="18" fill="white" transform="translate(19)"/>
</clipPath>
</defs>
</svg>
