<svg width="36" height="36" viewBox="0 0 36 36" fill="none" xmlns="http://www.w3.org/2000/svg">
<path d="M0 18L18 18L18 36L1.57361e-06 36L0 18Z" fill="#33DEE9"/>
<g clip-path="url(#clip0_4782_70855)">
<path d="M18 2L1.81993e-06 2L1.90735e-06 0L18 0L18 2Z" fill="#33DEE9"/>
<path d="M18 18L1.12054e-06 18L1.20797e-06 16L18 16L18 18Z" fill="#33DEE9"/>
<path d="M1.29539e-06 14L18 14L18 12L1.38281e-06 12L1.29539e-06 14Z" fill="#33DEE9"/>
<path d="M18 6L1.64508e-06 6L1.7325e-06 4L18 4L18 6Z" fill="#33DEE9"/>
<path d="M1.47023e-06 10L18 10L18 8L1.55766e-06 8L1.47023e-06 10Z" fill="#33DEE9"/>
</g>
<path d="M36 18H18V0H36V18Z" fill="#33DEE9"/>
<path d="M36 18L36 20L34 20L34 18L36 18Z" fill="#33DEE9"/>
<path d="M26 24L26 22L28 22L28 24L26 24Z" fill="#33DEE9"/>
<path d="M26 26L28 26L28 28L26 28L26 26Z" fill="#33DEE9"/>
<path d="M24 26L26 26L26 24L24 24L24 22L22 22L22 24L24 24L24 26Z" fill="#33DEE9"/>
<path d="M24 28L22 28L22 26L24 26L24 28Z" fill="#33DEE9"/>
<path d="M24 30L24 28L26 28L26 30L24 30Z" fill="#33DEE9"/>
<path d="M28 30L28 32L26 32L26 30L28 30Z" fill="#33DEE9"/>
<path d="M30 30L30 32L32 32L32 30L30 30Z" fill="#33DEE9"/>
<path d="M30 30L28 30L28 28L30 28L30 30Z" fill="#33DEE9"/>
<path d="M24 30L22 30L22 32L24 32L24 30Z" fill="#33DEE9"/>
<path fill-rule="evenodd" clip-rule="evenodd" d="M34 22L34 20L32 20L32 18L30 18L30 20L28 20L28 18L26 18L26 20L24 20L24 18L22 18L22 20L20 20L20 18L18 18L18 20L20 20L20 22L18 22L18 24L20 24L20 26L18 26L18 28L20 28L20 30L18 30L18 32L20 32L20 34L18 34L18 36L20 36L20 34L22 34L22 36L24 36L24 34L26 34L26 36L28 36L28 34L30 34L30 36L32 36L32 34L34 34L34 36L36 36L36 34L34 34L34 32L36 32L36 30L34 30L34 28L36 28L36 26L34 26L34 24L36 24L36 22L34 22ZM32 22L34 22L34 24L32 24L32 22ZM30 22L32 22L32 20L30 20L30 22ZM30 24L32 24L32 26L30 26L30 24ZM28 24L30 24L30 22L28 22L28 20L26 20L26 22L24 22L24 20L22 20L22 22L20 22L20 24L22 24L22 26L20 26L20 28L22 28L22 30L20 30L20 32L22 32L22 34L24 34L24 32L26 32L26 34L28 34L28 32L30 32L30 34L32 34L32 32L34 32L34 30L32 30L32 28L34 28L34 26L32 26L32 28L30 28L30 26L28 26L28 24Z" fill="#33DEE9"/>
<defs>
<clipPath id="clip0_4782_70855">
<rect width="18" height="18" fill="white"/>
</clipPath>
</defs>
</svg>
