<svg width="16" height="16" viewBox="0 0 16 16" fill="none" xmlns="http://www.w3.org/2000/svg">
<path d="M2 4C2.55228 4 3 3.55229 3 3C3 2.44772 2.55228 2 2 2C1.44772 2 1 2.44772 1 3C1 3.55229 1.44772 4 2 4Z" fill="#F4F6F8"/>
<path d="M5 4L15 4V2H5V4Z" fill="#F4F6F8"/>
<path d="M15 9V7L5 7V9L15 9Z" fill="#F4F6F8"/>
<path d="M5 12H15V14H5V12Z" fill="#F4F6F8"/>
<path d="M3 8C3 8.55229 2.55228 9 2 9C1.44772 9 1 8.55229 1 8C1 7.44772 1.44772 7 2 7C2.55228 7 3 7.44772 3 8Z" fill="#F4F6F8"/>
<path d="M2 14C2.55228 14 3 13.5523 3 13C3 12.4477 2.55228 12 2 12C1.44772 12 1 12.4477 1 13C1 13.5523 1.44772 14 2 14Z" fill="#F4F6F8"/>
</svg>
