<svg width="288" height="88" viewBox="0 0 288 88" fill="none" xmlns="http://www.w3.org/2000/svg">
<g clip-path="url(#clip0_1315_10207)">
<path d="M8.24621 88H0L11.4552 42.1792C13.1555 35.3781 17.6635 29.8691 23.5564 26.7632C18.4533 47.1755 13.3493 67.5877 8.24621 88Z" fill="white"/>
<path d="M22.6754 88H14.4316L29.8337 26.392C31.3605 20.2846 35.7472 15.4935 41.3499 13.302L22.6754 88Z" fill="white"/>
<path d="M37.1065 88H28.8603L47.7988 12.2462C49.5981 5.04903 56.0647 0 63.4834 0C70.9021 0 77.3688 5.04903 79.1681 12.2462L98 88H89.8603L71.407 14.1865C70.498 10.5506 67.2312 8 63.4834 8C59.7357 8 56.4689 10.5506 55.5599 14.1865L37.1065 88Z" fill="white"/>
<path d="M69.2462 88H61L52.1454 52.5819L56.2685 36.0895L69.2462 88Z" fill="white"/>
<path d="M83.6753 88H75.4316L59.3613 23.7187L61.3805 15.6418C61.6217 14.677 62.4886 14.0001 63.4831 14.0001C64.4777 14.0001 65.3446 14.677 65.5858 15.6418L83.6753 88Z" fill="white"/>
<path d="M252.55 53.0319H261.35C261.42 53.2418 261.508 53.445 261.614 53.6391C261.875 54.1193 262.169 54.5809 262.494 55.0207C263.557 56.5393 265.111 57.6456 266.894 58.1534C268.16 58.5696 269.486 58.7748 270.819 58.7606C273.605 58.7606 275.635 58.3265 276.908 57.4582C277.498 57.1301 277.991 56.6523 278.337 56.0729C278.683 55.4935 278.87 54.8331 278.879 54.1583C278.879 52.9322 278.041 51.9642 276.363 51.2543C274.399 50.4594 272.358 49.8696 270.273 49.4944C267.855 49.0415 265.463 48.454 263.11 47.7344C260.782 47.0325 258.678 45.7306 257.012 43.9593C255.294 42.0613 254.391 39.565 254.495 37.0074C254.495 33.9451 255.894 31.2699 258.693 28.982C261.491 26.694 265.158 25.5442 269.692 25.5324C272.288 25.4919 274.869 25.9181 277.313 26.7908C279.198 27.4183 280.916 28.4654 282.338 29.8531C283.384 30.9558 284.316 32.1617 285.119 33.4523C285.746 34.402 286.221 35.4442 286.527 36.541L286.835 37.7642H278.457C278.39 37.5844 278.313 37.4082 278.228 37.2362C277.988 36.8231 277.72 36.4263 277.427 36.0482C276.998 35.466 276.485 34.9501 275.905 34.5171C275.132 33.9958 274.283 33.598 273.388 33.3379C272.193 32.963 270.945 32.7818 269.692 32.8011C267.907 32.6846 266.127 33.111 264.589 34.0243C264.059 34.3409 263.619 34.7877 263.311 35.3222C263.003 35.8566 262.837 36.461 262.829 37.0778C262.858 37.6251 263.038 38.1537 263.349 38.6054C263.659 39.0572 264.088 39.4146 264.589 39.6386C266.026 40.3959 267.588 40.8878 269.2 41.0905C271.178 41.4339 273.137 41.8804 275.069 42.4281C277.063 42.9881 279.023 43.6639 280.939 44.4521C282.759 45.216 284.329 46.4751 285.471 48.0864C286.689 49.871 287.306 51.9985 287.23 54.1583C287.23 57.423 285.77 60.2038 282.831 62.5269C279.891 64.8501 275.914 66.0117 270.836 66.0117C268.097 66.054 265.372 65.6009 262.793 64.6741C260.786 64.0013 258.953 62.8924 257.425 61.4269C256.296 60.2583 255.288 58.9788 254.416 57.6078C253.758 56.6198 253.257 55.5365 252.929 54.3959L252.55 53.0319Z" fill="white"/>
<path d="M164.97 32.9771V25.7172H169.546V17.3134H177.545V25.7172H189.355V32.9771H177.545V58.4966H189.733V65.7564H176.164C174.409 65.7564 172.725 65.0592 171.484 63.8182C170.243 62.5772 169.546 60.894 169.546 59.139V32.9771H164.97Z" fill="white"/>
<path d="M195.55 13.7565H203.549V65.7565H195.55C195.55 49.2365 195.55 30.2765 195.55 13.7565Z" fill="white"/>
<path d="M126.884 59.8958C123.434 56.1294 121.707 51.2397 121.701 45.2265C121.695 39.2132 123.434 34.3381 126.919 30.6011C128.566 28.7807 130.586 27.3363 132.84 26.366C135.095 25.3957 137.533 24.9223 139.987 24.978C142.276 24.9496 144.541 25.44 146.613 26.4124C148.219 27.0918 149.691 28.0512 150.96 29.246L152.166 30.7243H152.553V25.7524H160.552V65.7565H152.553V59.3766H152.166C152.014 59.5998 151.849 59.8143 151.673 60.019C151.207 60.5459 150.71 61.0454 150.186 61.5149C149.445 62.2147 148.634 62.8369 147.766 63.3717C145.396 64.7189 142.722 65.4425 139.996 65.4749C137.54 65.5332 135.099 65.0665 132.838 64.1059C130.577 63.1453 128.547 61.7129 126.884 59.9046V59.8958ZM132.252 35.7666C130.07 38.1133 128.978 41.2695 128.978 45.2353C128.978 49.201 130.07 52.3602 132.252 54.7127C134.521 56.9627 137.588 58.2251 140.783 58.2251C143.979 58.2251 147.045 56.9627 149.315 54.7127C151.509 52.3661 152.603 49.2069 152.597 45.2353C152.591 41.2636 151.497 38.1074 149.315 35.7666C147.048 33.5124 143.981 32.247 140.783 32.247C137.586 32.247 134.519 33.5124 132.252 35.7666Z" fill="white"/>
<path d="M213.882 59.8958C210.432 56.1295 208.705 51.2397 208.699 45.2265C208.693 39.2132 210.432 34.3381 213.917 30.6011C215.564 28.7807 217.584 27.3363 219.838 26.366C222.093 25.3957 224.531 24.9223 226.985 24.978C229.274 24.9496 231.539 25.44 233.611 26.4124C235.217 27.0918 236.689 28.0512 237.958 29.246L239.164 30.7243H239.551V25.7524H247.55V65.7565H239.551V59.3766H239.164C239.012 59.5998 238.847 59.8143 238.671 60.019C238.205 60.5459 237.708 61.0454 237.184 61.5149C236.443 62.2147 235.632 62.8369 234.764 63.3717C232.394 64.7189 229.72 65.4425 226.994 65.4749C224.538 65.5332 222.097 65.0665 219.836 64.1059C217.575 63.1453 215.545 61.7129 213.882 59.9046V59.8958ZM219.25 35.7666C217.068 38.1133 215.976 41.2695 215.976 45.2353C215.976 49.201 217.068 52.3602 219.25 54.7127C221.519 56.9627 224.586 58.2251 227.781 58.2251C230.977 58.2251 234.043 56.9627 236.313 54.7127C238.507 52.3661 239.601 49.2069 239.595 45.2353C239.589 41.2636 238.495 38.1074 236.313 35.7666C234.046 33.5124 230.978 32.247 227.781 32.247C224.584 32.247 221.517 33.5124 219.25 35.7666Z" fill="white"/>
</g>
<defs>
<clipPath id="clip0_1315_10207">
<rect width="288" height="88" fill="white"/>
</clipPath>
</defs>
</svg>
