<svg width="119" height="32" viewBox="0 0 119 32" fill="none" xmlns="http://www.w3.org/2000/svg">
<g clip-path="url(#clip0_1008_6538)">
<g clip-path="url(#clip1_1008_6538)">
<path fill-rule="evenodd" clip-rule="evenodd" d="M102.434 7.05827H99.5252V4.14917H102.434V7.05827ZM99.5252 9.38561V23.949H102.544L102.434 9.38561H99.5252ZM83.419 16.4706C83.419 18.6562 84.0472 20.4341 85.3032 21.805C86.5774 23.157 88.1659 23.8328 90.0686 23.8328C90.6039 23.8328 91.1303 23.7541 91.6478 23.597C92.1649 23.4395 92.5802 23.2635 92.8945 23.069C93.2084 22.8744 93.5038 22.6475 93.7809 22.3883C94.058 22.1288 94.2382 21.9483 94.3214 21.8463C94.4042 21.7445 94.4644 21.6658 94.5012 21.6104H94.6397V23.9307H97.5488V4.15064H94.6115L94.6397 11.1916H94.5012L94.058 10.6636C93.7438 10.3302 93.2174 9.98747 92.4788 9.63547C91.7399 9.28379 90.9364 9.10779 90.0686 9.10779C88.1659 9.10779 86.5822 9.78843 85.3169 11.15C84.0517 12.5113 83.419 14.2847 83.419 16.4706ZM86.0638 16.4706C86.0638 15.0255 86.4609 13.877 87.2551 13.0252C88.0494 12.173 89.0836 11.7471 90.3582 11.7471C91.6327 11.7471 92.6669 12.173 93.4612 13.0252C94.2554 13.877 94.6525 15.0255 94.6525 16.4706C94.6525 17.9151 94.2554 19.0636 93.4612 19.9154C92.6669 20.7675 91.6327 21.1935 90.3582 21.1935C89.0836 21.1935 88.0494 20.7675 87.2551 19.9154C86.4609 19.0636 86.0638 17.9151 86.0638 16.4706ZM58.0734 12.0249V9.38557H59.7358V6.32927H62.6449V9.38557H66.9389V12.0249H62.6449V21.2914H67.0775V23.9307H62.1428C60.8135 23.9307 59.7358 22.853 59.7358 21.524V12.0249H58.0734ZM47.5499 19.2979H44.3636L44.5025 19.7977C44.5764 20.1126 44.7563 20.5014 45.0427 20.9647C45.3291 21.4278 45.6936 21.8908 46.1371 22.3539C46.5803 22.8169 47.2312 23.2105 48.0903 23.5346C48.9492 23.8588 49.9233 24.0207 51.0132 24.0207C52.8602 24.0207 54.3146 23.5996 55.3767 22.7567C56.4388 21.9139 56.9696 20.8998 56.9696 19.7142C56.9696 18.8441 56.7527 18.1078 56.3185 17.5056C55.8845 16.9037 55.3351 16.4637 54.6701 16.1859C54.0052 15.9081 53.2942 15.6627 52.537 15.4496C51.7796 15.2365 51.0686 15.0745 50.4036 14.9635C49.7387 14.8521 49.1892 14.6717 48.7553 14.4214C48.3211 14.1715 48.1041 13.8611 48.1041 13.4909C48.1041 13.0461 48.3166 12.6758 48.7412 12.3792C49.1662 12.0832 49.7847 11.9351 50.5975 11.9351C51.0964 11.9351 51.5441 11.9997 51.9412 12.1293C52.3383 12.2589 52.6433 12.4029 52.8554 12.56C53.0679 12.7174 53.2526 12.9027 53.4097 13.1158C53.5665 13.3286 53.6638 13.4723 53.7006 13.5466C53.7374 13.6205 53.7652 13.6854 53.7837 13.7408H56.8311L56.7204 13.2963C56.6465 12.9814 56.4756 12.6064 56.2077 12.1712C55.9399 11.736 55.6029 11.3005 55.1965 10.8653C54.7901 10.4301 54.1809 10.0595 53.3681 9.75395C52.5553 9.44835 51.6318 9.29571 50.5975 9.29571C48.9351 9.29571 47.5963 9.71203 46.5803 10.5459C45.5643 11.3792 45.0564 12.352 45.0564 13.463C45.0564 14.5002 45.3614 15.343 45.9707 15.9917C46.5803 16.6397 47.3192 17.0982 48.1873 17.3667C49.0555 17.6352 49.9233 17.8531 50.7915 18.0195C51.6596 18.1862 52.3982 18.3993 53.0078 18.6585C53.6173 18.918 53.9223 19.27 53.9223 19.7142C53.9223 20.1958 53.6913 20.5942 53.2295 20.9091C52.7678 21.2239 52.0289 21.3814 51.0132 21.3814C50.4961 21.3814 50.0203 21.3075 49.5863 21.1593C49.1521 21.0108 48.8196 20.8444 48.5889 20.6588C48.3579 20.4739 48.155 20.2607 47.9793 20.0198C47.8039 19.7792 47.6932 19.6124 47.6468 19.52C47.6008 19.4275 47.5684 19.3532 47.5499 19.2979ZM104.097 16.4707C104.097 18.5634 104.798 20.3138 106.202 21.7215C107.606 23.1292 109.352 23.8328 111.438 23.8328C113.526 23.8328 115.271 23.1292 116.675 21.7215C118.079 20.3138 118.78 18.5634 118.78 16.4707C118.78 14.3776 118.079 12.6272 116.675 11.2192C115.271 9.81151 113.526 9.10783 111.438 9.10783C109.352 9.10783 107.606 9.81151 106.202 11.2192C104.798 12.6272 104.097 14.3776 104.097 16.4707ZM107.144 16.4707C107.144 15.0255 107.541 13.8771 108.336 13.0252C109.13 12.1731 110.164 11.7472 111.438 11.7472C112.713 11.7472 113.747 12.1731 114.542 13.0252C115.336 13.8771 115.733 15.0255 115.733 16.4707C115.733 17.9151 115.336 19.0636 114.542 19.9154C113.747 20.7676 112.713 21.1935 111.438 21.1935C110.164 21.1935 109.13 20.7676 108.336 19.9154C107.541 19.0636 107.144 17.9151 107.144 16.4707ZM78.9741 9.38965L78.9718 16.4706C78.9718 19.2792 77.2336 21.1831 75.0674 21.1934L75.0014 21.1935L74.9353 21.1934C72.7691 21.1831 71.031 19.2792 71.031 16.4706V9.38965H68.3862V16.4706C68.3862 20.6852 70.808 23.6792 74.6528 23.8271C75.7875 23.8271 76.4892 23.527 77.2289 23.069C77.5428 22.8744 77.8381 22.6476 78.1152 22.3884C78.3924 22.1288 78.5725 21.9484 78.6557 21.8463C78.7386 21.7445 78.7988 21.6658 78.8356 21.6104H78.9741L78.9741 23.949H81.9926L81.8832 9.3856L78.9741 9.38965Z" fill="white"/>
<path d="M2.99862 32H0L4.16552 15.3379C4.78381 12.8647 6.42308 10.8615 8.56596 9.73207C6.71029 17.1547 4.85429 24.5773 2.99862 32Z" fill="#4038FF"/>
<path d="M8.2456 32H5.24787L10.8486 9.59707C11.4038 7.37622 12.999 5.63399 15.0363 4.83709L8.2456 32Z" fill="#4038FF"/>
<path d="M13.4933 32H10.4947L17.3814 4.45317C18.0357 1.83601 20.3872 0 23.0849 0C25.7826 0 28.1341 1.83601 28.7884 4.45317L35.6364 32H32.6765L25.9662 5.15873C25.6356 3.8366 24.4477 2.90909 23.0849 2.90909C21.7221 2.90909 20.5341 3.8366 20.2036 5.15873L13.4933 32Z" fill="#4038FF"/>
<path d="M25.1804 32H22.1818L18.962 19.1207L20.4613 13.1235L25.1804 32Z" fill="#4038FF"/>
<path d="M30.4274 32H27.4297L21.5859 8.62497L22.3202 5.68794C22.4079 5.33709 22.7231 5.09095 23.0848 5.09095C23.4464 5.09095 23.7617 5.33709 23.8494 5.68794L30.4274 32Z" fill="#4038FF"/>
</g>
</g>
<defs>
<clipPath id="clip0_1008_6538">
<rect width="119" height="32" fill="white"/>
</clipPath>
<clipPath id="clip1_1008_6538">
<rect width="118.909" height="32" fill="white"/>
</clipPath>
</defs>
</svg>
