<svg width="98" height="88" viewBox="0 0 98 88" fill="none" xmlns="http://www.w3.org/2000/svg">
<path d="M8.24621 88H0L11.4552 42.1792C13.1555 35.3781 17.6635 29.8691 23.5564 26.7632C18.4533 47.1755 13.3493 67.5877 8.24621 88Z" fill="white"/>
<path d="M22.6754 88H14.4316L29.8337 26.392C31.3605 20.2846 35.7472 15.4935 41.3499 13.302L22.6754 88Z" fill="white"/>
<path d="M37.1065 88H28.8603L47.7988 12.2462C49.5981 5.04903 56.0647 0 63.4834 0C70.9021 0 77.3688 5.04903 79.1681 12.2462L98 88H89.8603L71.407 14.1865C70.498 10.5506 67.2312 8 63.4834 8C59.7357 8 56.4689 10.5506 55.5599 14.1865L37.1065 88Z" fill="white"/>
<path d="M69.2462 88H61L52.1454 52.5819L56.2685 36.0895L69.2462 88Z" fill="white"/>
<path d="M83.6753 88H75.4316L59.3613 23.7187L61.3805 15.6418C61.6217 14.677 62.4886 14.0001 63.4831 14.0001C64.4777 14.0001 65.3446 14.677 65.5858 15.6418L83.6753 88Z" fill="white"/>
</svg>
