<svg width="300" height="88" viewBox="0 0 300 88" fill="none" xmlns="http://www.w3.org/2000/svg">
<g clip-path="url(#clip0_1541_25177)">
<path d="M64 88H64.1314C67.8343 88 71.3297 86.2906 73.6032 83.3678L82.8483 71.4828C86.2101 67.1609 86.2201 61.1114 82.8725 56.7784L73 44H104L73.6029 4.66263C71.3306 1.72192 67.8239 0 64.1075 0H64L51.4593 16.1238L73 44H42L51.8725 56.7784C55.2201 61.1114 55.2101 67.1609 51.8483 71.4828L51.5007 71.9295L64 88Z" fill="white"/>
<path d="M64.125 0H33.869C30.1659 0 26.6703 1.70967 24.3968 4.63271L4.91153 29.6852C1.72826 33.778 0 38.815 0 44C0 49.185 1.72826 54.222 4.91153 58.3148L24.3968 83.3673C26.6703 86.2903 30.1659 88 33.869 88H64.13L64.0851 87.9744C60.6765 87.7515 57.5091 86.0831 55.3968 83.3673L35.9115 58.3148C32.7283 54.222 31 49.185 31 44C31 38.815 32.7283 33.778 35.9115 29.6852L55.3968 4.63271C57.4962 1.93348 60.6378 0.268921 64.0225 0.0298457C64.0588 0.027286 64.125 0.0423311 64.125 0Z" fill="white"/>
<path d="M172.224 13.75H164.225V65.75H172.224V13.75Z" fill="white"/>
<path fill-rule="evenodd" clip-rule="evenodd" d="M119.775 45.2265C119.781 51.2397 121.509 56.1294 124.958 59.8958V59.9046C126.621 61.7129 128.651 63.1453 130.913 64.1059C133.174 65.0665 135.614 65.5332 138.07 65.4749C140.796 65.4425 143.47 64.7189 145.84 63.3717C146.708 62.8369 147.519 62.2147 148.26 61.5149C148.784 61.0454 149.281 60.5459 149.747 60.019C149.924 59.8143 150.088 59.5998 150.24 59.3766H150.627V72.89H126.625V80.15H151.996C155.658 80.15 158.626 77.1816 158.626 73.52V25.7524H150.627V30.7243H150.24L149.035 29.246C147.765 28.0512 146.293 27.0918 144.687 26.4124C142.615 25.44 140.35 24.9496 138.061 24.978C135.607 24.9223 133.17 25.3957 130.915 26.366C128.66 27.3363 126.64 28.7807 124.993 30.6011C121.509 34.3381 119.769 39.2132 119.775 45.2265ZM127.053 45.2353C127.053 41.2695 128.144 38.1133 130.326 35.7666C132.593 33.5124 135.66 32.247 138.858 32.247C142.055 32.247 145.122 33.5124 147.389 35.7666C149.571 38.1074 150.665 41.2636 150.671 45.2353C150.677 49.2069 149.583 52.3661 147.389 54.7127C145.12 56.9627 142.053 58.2251 138.858 58.2251C135.662 58.2251 132.596 56.9627 130.326 54.7127C128.144 52.3602 127.053 49.201 127.053 45.2353Z" fill="white"/>
<path fill-rule="evenodd" clip-rule="evenodd" d="M222.632 53.0463C223.616 55.5297 225.09 57.7832 226.965 59.6683C229.787 62.4654 233.359 64.3589 237.237 65.1126C241.115 65.8664 245.126 65.4469 248.769 63.9066C252.413 62.3663 255.528 59.7734 257.725 56.4515C258.507 55.2706 259.16 54.0161 259.678 52.71H251.074C250.659 53.43 250.172 54.095 249.612 54.7051C247.37 56.9552 244.342 58.2176 241.186 58.2176C238.031 58.2176 235.002 56.9552 232.761 54.7051C231.109 52.9011 230.088 50.6227 229.699 47.87L260.942 47.87C261.06 46.9974 261.121 46.1148 261.126 45.2275C261.181 42.5405 260.707 39.8692 259.729 37.3704C258.752 34.8715 257.292 32.5953 255.435 30.6751C253.578 28.7549 251.361 27.2294 248.915 26.1879C246.468 25.1464 243.841 24.61 241.186 24.61C238.532 24.61 235.905 25.1464 233.458 26.1879C231.012 27.2294 228.795 28.7549 226.938 30.6751C225.081 32.5953 223.621 34.8715 222.644 37.3704C221.666 39.8692 221.192 42.5405 221.247 45.2275C221.178 47.9022 221.649 50.5629 222.632 53.0463ZM230.101 40.61C230.629 38.7252 231.515 37.1081 232.761 35.7587C235 33.5044 238.029 32.2391 241.186 32.2391C244.344 32.2391 247.373 33.5044 249.612 35.7587C250.852 37.1058 251.735 38.7229 252.262 40.61H230.101Z" fill="white"/>
<path fill-rule="evenodd" clip-rule="evenodd" d="M183.275 59.6683C181.4 57.7832 179.926 55.5297 178.942 53.0463C177.959 50.5629 177.488 47.9022 177.557 45.2275C177.502 42.5405 177.976 39.8692 178.954 37.3704C179.931 34.8715 181.391 32.5953 183.248 30.6751C185.105 28.7549 187.322 27.2294 189.768 26.1879C192.215 25.1464 194.842 24.61 197.496 24.61C200.151 24.61 202.778 25.1464 205.225 26.1879C207.671 27.2294 209.888 28.7549 211.745 30.6751C213.602 32.5953 215.062 34.8715 216.039 37.3704C217.017 39.8692 217.491 42.5405 217.436 45.2275C217.431 46.1148 217.37 46.9974 217.252 47.87L186.009 47.87C186.398 50.6227 187.419 52.9011 189.071 54.7051C191.312 56.9552 194.341 58.2176 197.496 58.2176C200.652 58.2176 203.68 56.9552 205.922 54.7051C206.482 54.095 206.969 53.43 207.384 52.71H215.988C215.47 54.0161 214.817 55.2706 214.035 56.4515C211.838 59.7734 208.723 62.3663 205.079 63.9066C201.436 65.4469 197.425 65.8664 193.547 65.1126C189.669 64.3589 186.097 62.4654 183.275 59.6683ZM189.071 35.7587C187.825 37.1081 186.939 38.7252 186.411 40.61H208.572C208.045 38.7229 207.162 37.1058 205.922 35.7587C203.683 33.5044 200.654 32.2391 197.496 32.2391C194.339 32.2391 191.31 33.5044 189.071 35.7587Z" fill="white"/>
<path d="M262 25.7468H270.386L278.94 57.7524H282.75L291.304 25.7468H299.69C298.447 30.269 297.204 34.7914 295.961 39.3139C293.54 48.1266 291.118 56.9392 288.69 65.75H273L262 25.7468Z" fill="white"/>
</g>
<defs>
<clipPath id="clip0_1541_25177">
<rect width="300" height="88" fill="white"/>
</clipPath>
</defs>
</svg>
