<svg width="104" height="88" viewBox="0 0 104 88" fill="none" xmlns="http://www.w3.org/2000/svg">
<g clip-path="url(#clip0_1541_25189)">
<path d="M64 88H64.1314C67.8343 88 71.3297 86.2906 73.6032 83.3678L82.8483 71.4828C86.2101 67.1609 86.2201 61.1114 82.8725 56.7784L73 44H104L73.6029 4.66263C71.3306 1.72192 67.8239 0 64.1075 0H64L51.4593 16.1238L73 44H42L51.8725 56.7784C55.2201 61.1114 55.2101 67.1609 51.8483 71.4828L51.5007 71.9295L64 88Z" fill="white"/>
<path d="M64.125 0H33.869C30.1659 0 26.6703 1.70967 24.3968 4.63271L4.91153 29.6852C1.72826 33.778 0 38.815 0 44C0 49.185 1.72826 54.222 4.91153 58.3148L24.3968 83.3673C26.6703 86.2903 30.1659 88 33.869 88H64.13L64.0851 87.9744C60.6765 87.7515 57.5091 86.0831 55.3968 83.3673L35.9115 58.3148C32.7283 54.222 31 49.185 31 44C31 38.815 32.7283 33.778 35.9115 29.6852L55.3968 4.63271C57.4962 1.93348 60.6378 0.268921 64.0225 0.0298457C64.0588 0.027286 64.125 0.0423311 64.125 0Z" fill="white"/>
</g>
<defs>
<clipPath id="clip0_1541_25189">
<rect width="104" height="88" fill="white"/>
</clipPath>
</defs>
</svg>
