<svg width="16" height="16" viewBox="0 0 16 16" fill="none" xmlns="http://www.w3.org/2000/svg">
<path d="M8 1H7V5H2V7C3.10457 7 4 7.89543 4 9V10H11.6C12.9255 10 14 8.92548 14 7.6V7C14 3.68629 11.3137 1 8 1Z" fill="#F4F6F8"/>
<path d="M6 15C7.10457 15 8 14.1046 8 13C8 11.8954 7.10457 11 6 11C4.89543 11 4 11.8954 4 13C4 14.1046 4.89543 15 6 15Z" fill="#F4F6F8"/>
<path d="M12 15C13.1046 15 14 14.1046 14 13C14 11.8954 13.1046 11 12 11C10.8954 11 10 11.8954 10 13C10 14.1046 10.8954 15 12 15Z" fill="#F4F6F8"/>
</svg>
