<svg width="16" height="16" viewBox="0 0 16 16" fill="none" xmlns="http://www.w3.org/2000/svg">
<path d="M9.77441 5.79248L11.2115 4.16758C12.3049 5.08477 13 6.46122 13 8.00002C13 10.7614 10.7615 13 8.00004 13C6.61933 13 5.36933 12.4404 4.46451 11.5356L3.05029 12.9498C4.31704 14.2165 6.06704 15 8.00004 15C11.866 15 15 11.866 15 8.00002C15 5.86487 14.0441 3.953 12.5368 2.66904L13.7494 1.29807L8.01654 0.232819L9.77441 5.79248Z" fill="#F4F6F8"/>
<path d="M3.73797 2.44666C3.2534 2.81903 2.81905 3.25338 2.44668 3.73794L4.03252 4.9566C4.29898 4.60986 4.60989 4.29895 4.95662 4.0325L3.73797 2.44666Z" fill="#F4F6F8"/>
<path d="M1.05911 7.08697C1.02008 7.38623 1 7.69101 1 7.99997C1 8.30894 1.02008 8.61372 1.05911 8.91298L3.04231 8.65429C3.01444 8.44058 3 8.22221 3 7.99997C3 7.77774 3.01444 7.55937 3.04231 7.34567L1.05911 7.08697Z" fill="#F4F6F8"/>
</svg>
