<svg width="16" height="16" viewBox="0 0 16 16" fill="none" xmlns="http://www.w3.org/2000/svg">
<path d="M12.8603 6.03029C12.7564 5.72904 12.7295 5.37443 12.8773 5.09215L13.6 3.7125L12.375 2.4875L10.9971 3.20924C10.7138 3.35768 10.3713 3.33399 10.0671 3.23494C10.0576 3.23185 10.0481 3.2288 10.0385 3.22578C9.75327 3.13555 9.51771 2.92813 9.42311 2.64432L8.875 1H7.125L6.56585 2.60755C6.47703 2.86291 6.28587 3.05153 6.03029 3.13968C5.72904 3.24357 5.37443 3.27054 5.09215 3.12268L3.7125 2.4L2.4 3.7125L3.12268 5.09215C3.27054 5.37443 3.24357 5.72904 3.13968 6.03029C3.05153 6.28587 2.86291 6.47703 2.60755 6.56585L1 7.125V8.875L2.56579 9.41962C2.84454 9.51658 3.0559 9.74834 3.17187 10.0197C3.20053 10.0868 3.22953 10.1536 3.25702 10.2218C3.33719 10.4208 3.30749 10.6425 3.20794 10.8326L2.4 12.375L3.625 13.6L5.00286 12.8783C5.28625 12.7298 5.62875 12.7535 5.93293 12.8526C5.94475 12.8564 5.95661 12.8602 5.96853 12.8639C6.25009 12.9524 6.48342 13.1555 6.58038 13.4342L7.125 15H8.875L9.41962 13.4342C9.51658 13.1555 9.74834 12.9441 10.0197 12.8281C10.0868 12.7995 10.1536 12.7705 10.2218 12.743C10.4208 12.6628 10.6425 12.6925 10.8326 12.7921L12.375 13.6L13.6 12.375L12.8783 10.9971C12.7298 10.7138 12.7535 10.3713 12.8526 10.0671C12.8564 10.0553 12.8602 10.0434 12.8639 10.0315C12.9524 9.74991 13.1555 9.51658 13.4342 9.41962L15 8.875V7.125L13.3924 6.56585C13.1371 6.47703 12.9485 6.28587 12.8603 6.03029ZM8 10.625C6.5125 10.625 5.375 9.4875 5.375 8C5.375 6.5125 6.5125 5.375 8 5.375C9.4875 5.375 10.625 6.5125 10.625 8C10.625 9.4875 9.4875 10.625 8 10.625Z" fill="#F4F6F8"/>
</svg>
