<svg width="24" height="24" viewBox="0 0 24 24" fill="none" xmlns="http://www.w3.org/2000/svg">
<path fill-rule="evenodd" clip-rule="evenodd" d="M12 4C7.58172 4 4 7.58172 4 12C4 16.4183 7.58172 20 12 20C16.4183 20 20 16.4183 20 12C20 7.58172 16.4183 4 12 4ZM2 12C2 6.47715 6.47715 2 12 2C17.5228 2 22 6.47715 22 12C22 17.5228 17.5228 22 12 22C6.47715 22 2 17.5228 2 12Z" fill="#B5C1C9"/>
<path fill-rule="evenodd" clip-rule="evenodd" d="M4.65186 18.7828C6.47887 20.7611 9.09472 22 11.9999 22C17.5228 22 21.9999 17.5228 21.9999 12C21.9999 6.47715 17.5228 2 11.9999 2V4C16.4182 4 19.9999 7.58172 19.9999 12C19.9999 16.4183 16.4182 20 11.9999 20C9.67576 20 7.58308 19.0089 6.12147 17.4263L4.65186 18.7828Z" fill="#4038FF"/>
</svg>
