<svg width="32" height="32" viewBox="0 0 32 32" fill="none" xmlns="http://www.w3.org/2000/svg">
<g clip-path="url(#clip0_603_277)">
<path fill-rule="evenodd" clip-rule="evenodd" d="M16 2C8.26801 2 2 8.26801 2 16C2 23.732 8.26801 30 16 30C23.732 30 30 23.732 30 16C30 8.26801 23.732 2 16 2ZM0 16C0 7.16344 7.16344 0 16 0C24.8366 0 32 7.16344 32 16C32 24.8366 24.8366 32 16 32C7.16344 32 0 24.8366 0 16Z" fill="#DAE2EB"/>
<path d="M6.25878 26.0554C8.77879 28.4971 12.2138 30 15.9999 30C23.7319 30 29.9999 23.732 29.9999 16C29.9999 8.26801 23.7319 2 15.9999 2V0C24.8365 0 31.9999 7.16344 31.9999 16C31.9999 24.8366 24.8365 32 15.9999 32C11.673 32 7.7472 30.2824 4.86719 27.4919L6.25878 26.0554Z" fill="#4038FF"/>
</g>
<defs>
<clipPath id="clip0_603_277">
<rect width="32" height="32" fill="white"/>
</clipPath>
</defs>
</svg>
