<svg width="24" height="24" viewBox="0 0 24 24" fill="none" xmlns="http://www.w3.org/2000/svg">
<path fill-rule="evenodd" clip-rule="evenodd" d="M1 4C1 2.89543 1.89543 2 3 2H13C14.1046 2 15 2.89543 15 4V8.25V17C15 18.6569 16.3431 20 18 20C19.6569 20 21 18.6569 21 17V9H23V17C23 19.7614 20.7614 22 18 22H6C3.23858 22 1 19.7614 1 17V4ZM6 20C4.34315 20 3 18.6569 3 17V4H13V8.25V17C13 18.1256 13.3719 19.1643 13.9996 20H6ZM19 7V6H17V7V11V17H19V11V7ZM5 8L11 8V6L5 6V8ZM11 12H5V10L11 10V12ZM5 16H7V14H5V16Z" fill="#F4F6F8"/>
</svg>
