<svg width="24" height="24" viewBox="0 0 24 24" fill="none" xmlns="http://www.w3.org/2000/svg">
<path fill-rule="evenodd" clip-rule="evenodd" d="M2 12C2 6.47715 6.47715 2 12 2C17.5228 2 22 6.47715 22 12C22 17.5228 17.5228 22 12 22C6.47715 22 2 17.5228 2 12ZM12 20C7.58172 20 4 16.4183 4 12C4 10.1513 4.62707 8.44908 5.6801 7.09441L16.9056 18.3199C15.5509 19.3729 13.8487 20 12 20ZM18.3198 16.9057C19.3729 15.551 20 13.8487 20 12C20 7.58172 16.4183 4 12 4C10.1513 4 8.449 4.6271 7.0943 5.68018L18.3198 16.9057Z" fill="#F4F6F8"/>
</svg>
