<svg width="24" height="24" viewBox="0 0 24 24" fill="none" xmlns="http://www.w3.org/2000/svg">
<path fill-rule="evenodd" clip-rule="evenodd" d="M12.5859 3.00011L11.4143 3.00011L9.6503 1.23608L9.08999 1.38944C8.19387 1.6347 7.34358 1.99031 6.55473 2.44053L6.05042 2.72836V5.222L5.22199 6.05043L2.72836 6.05043L2.44053 6.55474C1.9903 7.34358 1.6347 8.19387 1.38944 9.08998L1.23608 9.6503L3.00011 11.4143L3.00011 12.5859L1.23608 14.3499L1.38944 14.9102C1.6347 15.8064 1.99031 16.6567 2.44053 17.4455L2.72837 17.9498H5.222L6.05043 18.7782V21.2719L6.55474 21.5597C7.34358 22.0099 8.19387 22.3655 9.08998 22.6108L9.6503 22.7641L11.4143 21.0001L12.5859 21.0001L14.3499 22.7641L14.9102 22.6108C15.8064 22.3655 16.6567 22.0099 17.4455 21.5597L17.9498 21.2719V18.7782L18.7782 17.9498H21.2719L21.5597 17.4455C22.0099 16.6567 22.3655 15.8064 22.6108 14.9102L22.7641 14.3499L21.0001 12.5859L21.0001 11.4143L22.7641 9.6503L22.6108 9.08998C22.3655 8.19387 22.0099 7.34358 21.5597 6.55473L21.2719 6.05042L18.7782 6.05042L17.9498 5.22199V2.72836L17.4455 2.44053C16.6567 1.9903 15.8064 1.6347 14.9102 1.38944L14.3499 1.23608L12.5859 3.00011ZM12.0001 16C14.2092 16 16.0001 14.2091 16.0001 12C16.0001 9.79086 14.2092 8 12.0001 8C9.79092 8 8.00006 9.79086 8.00006 12C8.00006 14.2091 9.79092 16 12.0001 16Z" fill="#F4F6F8"/>
</svg>
