<svg width="24" height="24" viewBox="0 0 24 24" fill="none" xmlns="http://www.w3.org/2000/svg">
<path d="M14 11V9L6 9V11L14 11Z" fill="#F4F6F8"/>
<path fill-rule="evenodd" clip-rule="evenodd" d="M1 10C1 5.02944 5.02944 1 10 1C14.9706 1 19 5.02944 19 10C19 14.9706 14.9706 19 10 19C5.02944 19 1 14.9706 1 10ZM10 3C6.13401 3 3 6.13401 3 10C3 13.866 6.13401 17 10 17C13.866 17 17 13.866 17 10C17 6.13401 13.866 3 10 3Z" fill="#F4F6F8"/>
<path d="M18.7071 17.2929L22.7071 21.2929L21.2929 22.7072L17.2929 18.7072L18.7071 17.2929Z" fill="#F4F6F8"/>
</svg>
