<svg width="24" height="24" viewBox="0 0 24 24" fill="none" xmlns="http://www.w3.org/2000/svg">
<path fill-rule="evenodd" clip-rule="evenodd" d="M1 5C1 3.89543 1.89543 3 3 3H21C22.1046 3 23 3.89543 23 5V19C23 20.1046 22.1046 21 21 21H3C1.89543 21 1 20.1046 1 19V5ZM21 5H3V19H21V5ZM5 9C5 7.89543 5.89543 7 7 7H9C10.1046 7 11 7.89543 11 9V11H9V9H7V15H9V13H11V15C11 16.1046 10.1046 17 9 17H7C5.89543 17 5 16.1046 5 15V9ZM15 7C13.8954 7 13 7.89543 13 9V15C13 16.1046 13.8954 17 15 17H17C18.1046 17 19 16.1046 19 15V13H17V15H15V9H17V11H19V9C19 7.89543 18.1046 7 17 7H15Z" fill="#F4F6F8"/>
</svg>
