<svg width="24" height="24" viewBox="0 0 24 24" fill="none" xmlns="http://www.w3.org/2000/svg">
<path d="M10 6C13.3137 6 16 8.68629 16 12C16 15.3137 13.3137 18 10 18V20C14.0796 20 17.446 16.9463 17.9381 13H23V11H17.9381C17.446 7.05369 14.0796 4 10 4V6Z" fill="#F4F6F8"/>
<path fill-rule="evenodd" clip-rule="evenodd" d="M10 16C8.13616 16 6.57006 14.7252 6.12602 13H1V11H6.12602C6.57006 9.27477 8.13616 8 10 8C12.2091 8 14 9.79086 14 12C14 14.2091 12.2091 16 10 16ZM10 14C11.1046 14 12 13.1046 12 12C12 10.8954 11.1046 10 10 10C8.89543 10 8 10.8954 8 12C8 13.1046 8.89543 14 10 14Z" fill="#F4F6F8"/>
</svg>
