<svg width="24" height="24" viewBox="0 0 24 24" fill="none" xmlns="http://www.w3.org/2000/svg">
<path fill-rule="evenodd" clip-rule="evenodd" d="M12.7071 2.29292L12 1.58582L11.2929 2.29292L8.29289 5.29292L7.58579 6.00003L9 7.41424L9.70711 6.70714L11 5.41424L11 16H13L13 5.41424L14.2929 6.70714L15 7.41424L16.4142 6.00003L15.7071 5.29292L12.7071 2.29292ZM5 12C5 10.8955 5.89543 10 7 10H9V12H7V20H17V12H15V10H17C18.1046 10 19 10.8955 19 12V20C19 21.1046 18.1046 22 17 22H7C5.89543 22 5 21.1046 5 20V12Z" fill="#F4F6F8"/>
</svg>
