<svg width="16" height="16" viewBox="0 0 16 16" fill="none" xmlns="http://www.w3.org/2000/svg">
<path fill-rule="evenodd" clip-rule="evenodd" d="M12.4625 11.3767C12.076 11.6954 11.6417 11.9923 11.157 12.2428L3.53747 4.62326C3.92398 4.30458 4.35833 4.00767 4.84299 3.7572L12.4625 11.3767ZM6.98547 3.07125C7.30892 3.02492 7.64699 3 8 3C13 3 15 8 15 8C15 8 14.6409 8.89774 13.8466 9.93242L6.98547 3.07125ZM1 8C1 8 3 13 8 13C8.35301 13 8.69108 12.9751 9.01453 12.9287L2.15337 6.06758C1.3591 7.10226 1 8 1 8Z" fill="#F4F6F8"/>
<path d="M3 3L13 13" stroke="currentColor" stroke-width="2"/>
</svg>
