<svg width="16" height="16" viewBox="0 0 16 16" fill="none" xmlns="http://www.w3.org/2000/svg">
<path d="M7 7L3 3" stroke="#F4F6F8" stroke-width="2"/>
<path d="M8 13L7.70711 13.2929C7.25435 13.7456 6.64029 14 6 14V14C5.35971 14 4.74565 13.7456 4.29289 13.2929L2.70711 11.7071C2.25435 11.2544 2 10.6403 2 10V10C2 9.35971 2.25435 8.74565 2.7071 8.29289L3 8" stroke="#F4F6F8" stroke-width="2"/>
<path d="M8 3L8.29289 2.70711C8.74565 2.25435 9.35971 2 10 2V2C10.6403 2 11.2544 2.25435 11.7071 2.70711L13.2929 4.29289C13.7456 4.74565 14 5.35971 14 6V6C14 6.64029 13.7456 7.25435 13.2929 7.70711L13 8" stroke="#F4F6F8" stroke-width="2"/>
<path d="M13 13L9 9" stroke="#F4F6F8" stroke-width="2"/>
</svg>
