<svg width="48" height="48" viewBox="0 0 48 48" fill="none" xmlns="http://www.w3.org/2000/svg">
<path d="M5 5C3.89543 5 3 5.89543 3 7V33C3 34.1046 3.89543 35 5 35H25V33H5V7L35 7V23H37V7C37 5.89543 36.1046 5 35 5H5Z" fill="#F4F6F8"/>
<path d="M25 17.5L7 27V31H25V27C25 24.7909 26.7909 23 29 23L25 17.5Z" fill="#F4F6F8"/>
<path d="M45 27C45 25.8954 44.1046 25 43 25H29C27.8954 25 27 25.8954 27 27V41C27 42.1046 27.8954 43 29 43H37V34.4142L39 36.4142L40.4142 35L36 30.5858L31.5858 35L33 36.4142L35 34.4142V41H29V27H43V41H39V43H43C44.1046 43 45 42.1046 45 41V27Z" fill="#F4F6F8"/>
<path d="M12 17C13.6569 17 15 15.6569 15 14C15 12.3431 13.6569 11 12 11C10.3431 11 9 12.3431 9 14C9 15.6569 10.3431 17 12 17Z" fill="#F4F6F8"/>
</svg>
