<svg width="24" height="24" viewBox="0 0 24 24" fill="none" xmlns="http://www.w3.org/2000/svg">
<path fill-rule="evenodd" clip-rule="evenodd" d="M12.4695 1L12.7694 1.36124C13.6151 2.37991 14.5061 4.06826 14.8883 5.90047C15.2711 7.73542 15.1729 9.88469 13.7809 11.6247L12.2191 10.3753C13.1009 9.27306 13.245 7.81638 12.9305 6.30893C12.7118 5.26082 12.2856 4.27036 11.8317 3.50514C11.4601 5.12979 10.5272 6.40286 9.5786 7.42888C9.11779 7.9273 8.62545 8.39565 8.18543 8.81423C8.0492 8.94382 7.91798 9.06865 7.79426 9.18811C7.24097 9.72242 6.84191 10.1458 6.60351 10.5286L6.57207 10.5791L6.53488 10.6255C5.57405 11.8241 5 13.3436 5 15C5 17.5533 6.24628 19.7545 8.22425 20.9729C8.66339 20.8647 9.09635 20.419 9.45911 19.4113C9.8571 18.3058 10 16.93 10 16V15H11C11.021 15 11.0425 15 11.0645 15C11.815 14.999 13.1642 14.9974 14.2614 16.0177C15.2334 16.9216 15.8289 18.4438 15.9683 20.8497C17.8343 19.6095 19 17.4694 19 15C19 13.9358 18.7756 12.8209 18.368 11.8746C17.9556 10.917 17.3953 10.2194 16.7865 9.86304L17.7968 8.137C18.8963 8.78062 19.6902 9.88838 20.2049 11.0835C20.7244 12.2897 21 13.6749 21 15C21 18.3603 19.2753 21.3262 16.4852 22.8744L16.2589 23H14V22C14 19.0827 13.3939 17.9421 12.8995 17.4823C12.628 17.2298 12.3186 17.1088 11.9558 17.0513C11.8799 17.9925 11.6974 19.0985 11.3409 20.0887C10.8653 21.4097 9.88588 23 8 23H7.74114L7.5148 22.8744C4.72465 21.3262 3 18.3603 3 15C3 12.8933 3.7251 10.9532 4.93856 9.41953C5.32193 8.82193 5.87335 8.26279 6.40495 7.74943C6.55036 7.60901 6.69571 7.4707 6.84063 7.33281C7.27072 6.92356 7.69704 6.5179 8.11006 6.07116C9.19764 4.89481 10 3.62961 10 2.00002V1.00003L12.4695 1Z" fill="#F4F6F8"/>
</svg>
