<svg width="24" height="24" viewBox="0 0 24 24" fill="none" xmlns="http://www.w3.org/2000/svg">
<circle cx="12" cy="9" r="3" stroke="#F4F6F8" stroke-width="2"/>
<path d="M10 22L17 22C17.5523 22 18 21.5523 18 21L18 20C18 17.7909 16.2091 16 14 16L10 16C7.79086 16 6 17.7909 6 20L6 22" stroke="#F4F6F8" stroke-width="2" stroke-miterlimit="10" stroke-linecap="square"/>
<path d="M12 22H21C21.5523 22 22 21.5523 22 21V3C22 2.44772 21.5523 2 21 2H3C2.44772 2 2 2.44772 2 3V21C2 21.5523 2.44772 22 3 22H4.5" stroke="#F4F6F8" stroke-width="2" stroke-miterlimit="10" stroke-linecap="square"/>
</svg>
