<svg width="24" height="24" viewBox="0 0 24 24" fill="none" xmlns="http://www.w3.org/2000/svg">
<path fill-rule="evenodd" clip-rule="evenodd" d="M10.061 1.64686L9.65024 1.23608L9.08992 1.38944C8.19381 1.6347 7.34352 1.99031 6.55467 2.44053L6.05036 2.72836V3.30903V5.222L5.22193 6.05043H3.30897H2.7283L2.44047 6.55474C1.99024 7.34358 1.63464 8.19387 1.38938 9.08998L1.23602 9.6503L1.6468 10.0611L3.00005 11.4143L3.00005 12.5859L1.6468 13.9392L1.23602 14.3499L1.38938 14.9102C1.63464 15.8064 1.99025 16.6567 2.44047 17.4455L2.7283 17.9498H3.30897H5.22194L6.05037 18.7782V20.6912V21.2719L6.55468 21.5597C7.34352 22.0099 8.19381 22.3655 9.08992 22.6108L9.65024 22.7641L10.061 22.3534L11.4143 21.0001L12.5858 21.0001L13.9391 22.3534L14.3499 22.7641L14.9102 22.6108C15.8063 22.3655 16.6566 22.0099 17.4454 21.5597L17.9498 21.2719V20.6912V18.7782L18.7782 17.9498H20.6911H21.2718L21.5596 17.4455C22.0099 16.6567 22.3655 15.8064 22.6107 14.9102L22.7641 14.3499L22.3533 13.9392L21.0001 12.5859L21.0001 11.4143L22.3533 10.0611L22.7641 9.6503L22.6107 9.08998C22.3655 8.19387 22.0099 7.34358 21.5596 6.55473L21.2718 6.05042H20.6911H18.7782L17.9497 5.22199V3.30903V2.72836L17.4454 2.44053C16.6566 1.9903 15.8063 1.6347 14.9102 1.38944L14.3499 1.23608L13.9391 1.64686L12.5858 3.00011L11.4143 3.00011L10.061 1.64686ZM8.05036 5.63621V3.91058C8.38029 3.74916 8.72149 3.60737 9.07244 3.48671L10.2929 4.70722L10.5858 5.00011L11.0001 5.00011L13.0001 5.00011H13.4143L13.7072 4.70722L14.9277 3.48671C15.2786 3.60737 15.6198 3.74916 15.9497 3.91058V5.63621V6.05042L16.2426 6.34331L17.6569 7.75753L17.9497 8.05042H18.364L20.0896 8.05042C20.251 8.38035 20.3928 8.72155 20.5135 9.0725L19.293 10.293L19.0001 10.5859V11.0001L19.0001 13.0001V13.4143L19.293 13.7072L20.5135 14.9277C20.3928 15.2787 20.251 15.6199 20.0896 15.9498H18.364H17.9498L17.6569 16.2427L16.2426 17.6569L15.9498 17.9498V18.364V20.0897C15.6198 20.2511 15.2786 20.3929 14.9277 20.5135L13.7072 19.293L13.4143 19.0001L13.0001 19.0001L11.0001 19.0001H10.5858L10.2929 19.293L9.07244 20.5135C8.72149 20.3929 8.38029 20.2511 8.05037 20.0897V18.364V17.9498L7.75747 17.6569L6.34326 16.2427L6.05037 15.9498H5.63615H3.91052C3.7491 15.6199 3.60731 15.2787 3.48665 14.9277L4.70716 13.7072L5.00005 13.4143V13.0001L5.00005 11.0001V10.5859L4.70716 10.293L3.48665 9.0725C3.60731 8.72155 3.74909 8.38036 3.91052 8.05043L5.63615 8.05043H6.05036L6.34325 7.75753L7.75747 6.34332L8.05036 6.05043V5.63621ZM10 12C10 10.8954 10.8955 9.99996 12 9.99996C13.1046 9.99996 14 10.8954 14 12C14 13.1045 13.1046 14 12 14C10.8955 14 10 13.1045 10 12ZM12 7.99996C9.79088 7.99996 8.00002 9.79082 8.00002 12C8.00002 14.2091 9.79088 16 12 16C14.2092 16 16 14.2091 16 12C16 9.79082 14.2092 7.99996 12 7.99996Z" fill="#F4F6F8"/>
</svg>
