<svg width="24" height="24" viewBox="0 0 24 24" fill="none" xmlns="http://www.w3.org/2000/svg">
<path fill-rule="evenodd" clip-rule="evenodd" d="M17 3V7H21V9H17C15.8954 9 15 8.10457 15 7V3H17Z" fill="#F4F6F8"/>
<path fill-rule="evenodd" clip-rule="evenodd" d="M9 3V7C9 8.10457 8.10457 9 7 9H3V7H7V3H9Z" fill="#F4F6F8"/>
<path fill-rule="evenodd" clip-rule="evenodd" d="M7 21L7 17H3L3 15H7C8.10457 15 9 15.8954 9 17L9 21H7Z" fill="#F4F6F8"/>
<path fill-rule="evenodd" clip-rule="evenodd" d="M15 21L15 17C15 15.8954 15.8954 15 17 15H21V17H17L17 21H15Z" fill="#F4F6F8"/>
</svg>
