<svg width="24" height="24" viewBox="0 0 24 24" fill="none" xmlns="http://www.w3.org/2000/svg">
<path fill-rule="evenodd" clip-rule="evenodd" d="M12.5858 3.00011L11.4143 3.00011L9.65024 1.23608L9.08992 1.38944C8.19381 1.6347 7.34352 1.99031 6.55467 2.44053L6.05036 2.72836V5.222L5.22193 6.05043L2.7283 6.05043L2.44047 6.55474C1.99024 7.34358 1.63464 8.19387 1.38938 9.08998L1.23602 9.6503L3.00005 11.4143L3.00005 12.5859L1.23602 14.3499L1.38938 14.9102C1.63464 15.8064 1.99025 16.6567 2.44047 17.4455L2.7283 17.9498H5.22194L6.05037 18.7782V21.2719L6.55468 21.5597C7.34352 22.0099 8.19381 22.3655 9.08992 22.6108L9.65024 22.7641L11.4143 21.0001L12.5858 21.0001L14.3499 22.7641L14.9102 22.6108C15.8063 22.3655 16.6566 22.0099 17.4454 21.5597L17.9498 21.2719V18.7782L18.7782 17.9498H21.2718L21.5596 17.4455C22.0099 16.6567 22.3655 15.8064 22.6107 14.9102L22.7641 14.3499L21.0001 12.5859L21.0001 11.4143L22.7641 9.6503L22.6107 9.08998C22.3655 8.19387 22.0099 7.34358 21.5596 6.55473L21.2718 6.05042L18.7782 6.05042L17.9497 5.22199V2.72836L17.4454 2.44053C16.6566 1.9903 15.8063 1.6347 14.9102 1.38944L14.3499 1.23608L12.5858 3.00011ZM12 16C14.2091 16 16 14.2091 16 12C16 9.79086 14.2091 8 12 8C9.79086 8 8 9.79086 8 12C8 14.2091 9.79086 16 12 16Z" fill="#F4F6F8"/>
</svg>
