<svg width="24" height="24" viewBox="0 0 24 24" fill="none" xmlns="http://www.w3.org/2000/svg">
<path d="M10.2066 3.86402C10.9402 2.37768 13.0597 2.37768 13.7934 3.86402L15.754 7.83599L20.1385 8.47304C21.779 8.7114 22.434 10.7274 21.2468 11.8845L18.9818 14.0921L17.5859 12.6599L19.8509 10.4523L15.4664 9.81521C14.815 9.72057 14.2519 9.31147 13.9606 8.72124L12 4.74927L10.0394 8.72124C9.74803 9.31147 9.18492 9.72057 8.53354 9.81521L4.14891 10.4523L7.32158 13.545C7.79291 14.0044 8.008 14.6664 7.89676 15.3151L7.14796 19.6823L10.4199 17.9626L11.3504 19.7329L8.07846 21.4527C6.61125 22.2238 4.89661 20.978 5.17672 19.3443L5.92553 14.9771L2.75286 11.8844C1.56586 10.7273 2.22091 8.71141 3.86134 8.47306L8.24596 7.83599L10.2066 3.86402Z" fill="#F4F6F8"/>
<path d="M13 20H24V22H13V20Z" fill="#F4F6F8"/>
<path d="M24 16H13V18H24V16Z" fill="#F4F6F8"/>
</svg>
