<svg width="24" height="24" viewBox="0 0 24 24" fill="none" xmlns="http://www.w3.org/2000/svg">
<path fill-rule="evenodd" clip-rule="evenodd" d="M3 4.50375C3 4.10493 3.15843 3.72245 3.44044 3.44044C3.72245 3.15843 4.10493 3 4.50375 3H19.4963C19.6937 3 19.8893 3.0389 20.0717 3.11447C20.2542 3.19004 20.4199 3.3008 20.5596 3.44044C20.6992 3.58007 20.81 3.74585 20.8855 3.92829C20.9611 4.11073 21 4.30627 21 4.50375V19.4963C21 19.6937 20.9611 19.8893 20.8855 20.0717C20.81 20.2542 20.6992 20.4199 20.5596 20.5596C20.4199 20.6992 20.2542 20.81 20.0717 20.8855C19.8893 20.9611 19.6937 21 19.4963 21H4.50375C4.10493 21 3.72245 20.8416 3.44044 20.5596C3.15843 20.2776 3 19.8951 3 19.4963V4.50375Z" fill="#0A66C2"/>
<path fill-rule="evenodd" clip-rule="evenodd" d="M10.125 9.8625H12.5625V11.0872C12.9139 10.383 13.8142 9.75 15.1669 9.75C17.7596 9.75 18.375 11.1518 18.375 13.7239V18.4875H15.75V14.3096C15.75 12.8449 15.3986 12.0187 14.505 12.0187C13.2656 12.0187 12.75 12.9094 12.75 14.3096V18.4875H10.125V9.8625ZM5.625 18.375H8.25V9.75H5.625V18.375ZM8.625 6.9375C8.625 7.15911 8.58135 7.37854 8.49655 7.58328C8.41174 7.78802 8.28744 7.97404 8.13074 8.13074C7.97404 8.28744 7.78802 8.41174 7.58328 8.49655C7.37854 8.58135 7.15911 8.625 6.9375 8.625C6.71589 8.625 6.49646 8.58135 6.29172 8.49655C6.08698 8.41174 5.90096 8.28744 5.74426 8.13074C5.58756 7.97404 5.46326 7.78802 5.37845 7.58328C5.29365 7.37854 5.25 7.15911 5.25 6.9375C5.25 6.48995 5.42779 6.06072 5.74426 5.74426C6.06072 5.42779 6.48995 5.25 6.9375 5.25C7.38505 5.25 7.81427 5.42779 8.13074 5.74426C8.44721 6.06072 8.625 6.48995 8.625 6.9375Z" fill="white"/>
</svg>
