<svg width="24" height="24" viewBox="0 0 24 24" fill="none" xmlns="http://www.w3.org/2000/svg">
<path d="M3.3749 11.1393C8.74359 8.80022 12.3236 7.25817 14.1148 6.51313C19.2292 4.38588 20.2919 4.01636 20.9846 4.00402C21.1369 4.00147 21.4776 4.03923 21.6982 4.21827C21.8845 4.36945 21.9358 4.57367 21.9603 4.717C21.9848 4.86034 22.0154 5.18685 21.9911 5.44199C21.714 8.35402 20.5147 15.4208 19.9046 18.6823C19.6465 20.0624 19.1382 20.5251 18.6461 20.5704C17.5766 20.6688 16.7645 19.8636 15.7287 19.1846C14.1078 18.1221 13.1921 17.4607 11.6188 16.4239C9.80053 15.2257 10.9792 14.5672 12.0154 13.4909C12.2866 13.2092 16.9987 8.92323 17.0899 8.53442C17.1013 8.4858 17.1119 8.30454 17.0042 8.20883C16.8965 8.11312 16.7376 8.14585 16.6229 8.17188C16.4604 8.20877 13.871 9.92024 8.85486 13.3063C8.11988 13.811 7.45416 14.0569 6.8577 14.044C6.20015 14.0298 4.93528 13.6722 3.99498 13.3665C2.84166 12.9916 1.92503 12.7934 2.00485 12.1567C2.04642 11.8251 2.5031 11.486 3.3749 11.1393Z" fill="white"/>
</svg>
