<svg width="24" height="24" viewBox="0 0 24 24" fill="none" xmlns="http://www.w3.org/2000/svg">
<path fill-rule="evenodd" clip-rule="evenodd" d="M12.1554 21.9985C12.5458 21.9925 12.9309 21.9642 13.3093 21.9147C12.9309 21.9638 12.5459 21.9924 12.1554 21.9985ZM13.5624 21.8783V14.8911H15.8925L16.3355 11.9998H13.5624V10.1239C13.5624 9.33361 13.9491 8.56158 15.1922 8.56158H16.4536V6.10065C16.4536 6.10065 15.3089 5.90518 14.2149 5.90518C11.9311 5.90518 10.4377 7.28893 10.4377 9.79626V11.9998H7.89796V14.8911H10.4377V21.8783C5.65698 21.1283 2.00012 16.9911 2.00012 11.9998C2.00012 6.47707 6.47722 2 12 2C17.5228 2 21.9999 6.47707 21.9999 11.9998C21.9999 16.9911 18.343 21.1282 13.5624 21.8783Z" fill="white"/>
</svg>
