<svg width="24" height="24" viewBox="0 0 24 24" fill="none" xmlns="http://www.w3.org/2000/svg">
<path fill-rule="evenodd" clip-rule="evenodd" d="M19.0016 4.90805C17.1342 3.03112 14.6443 2 11.9929 2C6.53314 2 2.08553 6.44761 2.08078 11.9073C2.08078 13.656 2.53694 15.3571 3.40176 16.8634L2 22L7.2554 20.622C8.70467 21.4108 10.3345 21.8289 11.9929 21.8289H11.9976C17.4573 21.8289 21.9049 17.3813 21.9097 11.9168C21.9049 9.27014 20.8738 6.78023 19.0016 4.90805ZM11.9929 20.1516C10.5103 20.1516 9.06105 19.7524 7.79709 19.0017L7.49774 18.8211L4.38061 19.6384L5.21216 16.5973L5.01734 16.2837C4.19054 14.9722 3.75814 13.4564 3.75814 11.9026C3.75814 7.36945 7.45497 3.67261 11.9976 3.67261C14.1977 3.67261 16.2647 4.53267 17.8232 6.08648C19.377 7.64505 20.2323 9.71205 20.2323 11.9121C20.2276 16.4595 16.5307 20.1516 11.9929 20.1516ZM16.5117 13.9838C16.2647 13.8603 15.0482 13.2616 14.8201 13.1761C14.592 13.0953 14.4257 13.0525 14.2642 13.2996C14.0979 13.5467 13.6227 14.1074 13.4801 14.2689C13.3376 14.4353 13.1903 14.4543 12.9432 14.3307C12.6961 14.2072 11.8978 13.9458 10.9522 13.1C10.2157 12.4443 9.72154 11.6317 9.57424 11.3847C9.43168 11.1376 9.55998 11.0045 9.68353 10.881C9.79281 10.7717 9.93061 10.5911 10.0542 10.4486C10.1777 10.306 10.2205 10.2015 10.3012 10.0352C10.382 9.86885 10.344 9.7263 10.2822 9.60276C10.2205 9.47921 9.72629 8.25802 9.51722 7.76384C9.31764 7.27916 9.11332 7.34569 8.96126 7.34094C8.81871 7.33143 8.6524 7.33143 8.48609 7.33143C8.31978 7.33143 8.05369 7.3932 7.8256 7.64029C7.59752 7.88738 6.96079 8.4861 6.96079 9.70729C6.96079 10.9285 7.84936 12.1022 7.97291 12.2685C8.09645 12.4348 9.71679 14.9342 12.2019 16.0081C12.7911 16.2647 13.2521 16.4167 13.6132 16.5308C14.2072 16.7208 14.7441 16.6923 15.1718 16.6306C15.6469 16.5593 16.6353 16.0318 16.8444 15.4521C17.0487 14.8724 17.0487 14.3782 16.9869 14.2737C16.9251 14.1692 16.7588 14.1074 16.5117 13.9838Z" fill="white"/>
</svg>
