<svg width="24" height="24" viewBox="0 0 24 24" fill="none" xmlns="http://www.w3.org/2000/svg">
<path d="M6.10673 3.47205C5.51393 3.70258 5.0126 4.00996 4.51128 4.51128C4.00996 5.00894 3.70258 5.51393 3.47205 6.10307C3.24883 6.67392 3.0988 7.32893 3.05489 8.28766C3.01098 9.24639 3 9.55377 3 11.9982C3 14.4426 3.01098 14.7499 3.05489 15.7087C3.0988 16.6674 3.25249 17.3224 3.47205 17.8933C3.70258 18.4861 4.00996 18.9874 4.51128 19.4887C5.0126 19.99 5.51393 20.2974 6.10673 20.528C6.67758 20.7512 7.33259 20.9012 8.29132 20.9451C9.25005 20.989 9.55743 21 12.0018 21C14.4462 21 14.7536 20.989 15.7123 20.9451C16.6711 20.9012 17.3261 20.7475 17.8969 20.528C18.4897 20.2974 18.9911 19.99 19.4924 19.4887C19.9937 18.9874 20.3011 18.4861 20.5316 17.8933C20.7548 17.3224 20.9049 16.6674 20.9488 15.7087C20.9927 14.7499 21.0037 14.4426 21.0037 11.9982C21.0037 9.55377 20.9927 9.24639 20.9488 8.28766C20.9049 7.32893 20.7512 6.67392 20.5316 6.10307C20.3011 5.51393 19.9937 5.00894 19.496 4.51128C18.9947 4.00996 18.4934 3.70258 17.9006 3.47205C17.3297 3.24883 16.6747 3.0988 15.716 3.05489C14.7573 3.01098 14.4499 3 12.0055 3C9.56109 3 9.25371 3.01098 8.29498 3.05489C7.33259 3.09514 6.67758 3.24883 6.10673 3.47205ZM15.6392 4.67229C16.5174 4.71254 16.9931 4.85891 17.3114 4.98333C17.7323 5.148 18.0323 5.34194 18.347 5.65664C18.6617 5.97134 18.8557 6.2714 19.0203 6.69221C19.1447 7.01057 19.2911 7.48628 19.3314 8.3645C19.3753 9.31226 19.3826 9.59768 19.3826 12.0018C19.3826 14.406 19.3716 14.6914 19.3314 15.6392C19.2911 16.5174 19.1447 16.9931 19.0203 17.3114C18.8557 17.7323 18.6617 18.0323 18.347 18.347C18.0323 18.6617 17.7323 18.8557 17.3114 19.0203C16.9931 19.1447 16.5174 19.2911 15.6392 19.3314C14.6914 19.3753 14.406 19.3826 12.0018 19.3826C9.59768 19.3826 9.31226 19.3716 8.3645 19.3314C7.48628 19.2911 7.01057 19.1447 6.69221 19.0203C6.2714 18.8557 5.97134 18.6617 5.65664 18.347C5.34194 18.0323 5.148 17.7323 4.98333 17.3114C4.85891 16.9931 4.71254 16.5174 4.67229 15.6392C4.62838 14.6914 4.62106 14.406 4.62106 12.0018C4.62106 9.59768 4.63204 9.31226 4.67229 8.3645C4.71254 7.48628 4.85891 7.01057 4.98333 6.69221C5.148 6.2714 5.34194 5.97134 5.65664 5.65664C5.97134 5.34194 6.2714 5.148 6.69221 4.98333C7.01057 4.85891 7.48628 4.71254 8.3645 4.67229C9.31226 4.62838 9.59768 4.62106 12.0018 4.62106C14.406 4.62106 14.6914 4.62838 15.6392 4.67229Z" fill="white"/>
<path d="M7.38014 12.0021C7.38014 14.5563 9.45129 16.6238 12.0018 16.6238C14.5523 16.6238 16.6235 14.5527 16.6235 12.0021C16.6235 9.45162 14.556 7.38047 12.0018 7.38047C9.44763 7.38047 7.38014 9.44796 7.38014 12.0021ZM15.0024 12.0021C15.0024 13.6598 13.6595 15.0027 12.0018 15.0027C10.3442 15.0027 9.0012 13.6598 9.0012 12.0021C9.0012 10.3445 10.3442 9.00153 12.0018 9.00153C13.6595 9.00153 15.0024 10.3445 15.0024 12.0021Z" fill="white"/>
<path d="M16.8101 8.27734C17.4063 8.27734 17.8896 7.79403 17.8896 7.19785C17.8896 6.60166 17.4063 6.11836 16.8101 6.11836C16.2139 6.11836 15.7306 6.60166 15.7306 7.19785C15.7306 7.79403 16.2139 8.27734 16.8101 8.27734Z" fill="white"/>
</svg>
