<svg width="24" height="24" viewBox="0 0 24 24" fill="none" xmlns="http://www.w3.org/2000/svg">
<path fill-rule="evenodd" clip-rule="evenodd" d="M5.99997 11C5.99997 7.13401 9.13398 4 13 4C16.866 4 20 7.13401 20 11V11.3381C20 12.2443 19.7537 13.1335 19.2874 13.9106L17.9975 16.0604C17.3448 17.1483 17 18.3932 17 19.6619V20H19V19.6619C19 18.7557 19.2463 17.8665 19.7125 17.0894L21.0024 14.9396C21.6552 13.8517 22 12.6068 22 11.3381V11C22 6.02944 17.9705 2 13 2C8.02941 2 3.99997 6.02944 3.99997 11V12.6667L2.39997 14.8C1.41111 16.1185 2.35188 18 3.99997 18V20C3.99997 21.1046 4.8954 22 5.99997 22C10.6863 22 14.5361 18.4181 14.961 13.8428C16.1465 13.4421 17 12.3207 17 11C17 9.34315 15.6568 8 14 8C12.3431 8 11 9.34315 11 11C11 12.2887 11.8126 13.3877 12.9533 13.8124C12.5508 17.2957 9.59119 20 5.99997 20V17V16H4.99997H3.99997L5.79997 13.6L5.99997 13.3333V13V11ZM13 11C13 10.4477 13.4477 10 14 10C14.5523 10 15 10.4477 15 11C15 11.5523 14.5523 12 14 12C13.4477 12 13 11.5523 13 11Z" fill="#F4F6F8"/>
</svg>
