<svg width="24" height="24" viewBox="0 0 24 24" fill="none" xmlns="http://www.w3.org/2000/svg">
<path fill-rule="evenodd" clip-rule="evenodd" d="M15 2H13V6H15V2ZM14 10C12.8954 10 12 10.8954 12 12C12 13.1046 12.8954 14 14 14C15.1046 14 16 13.1046 16 12C16 10.8954 15.1046 10 14 10ZM10 12C10 9.79086 11.7909 8 14 8C15.4806 8 16.7733 8.8044 17.4649 10H20C21.1046 10 22 10.8954 22 12V18C22 19.1046 21.1046 20 20 20H18V22H16V20H15H13H8V22H6V20H4C2.89543 20 2 19.1046 2 18V12C2 10.8954 2.89543 10 4 10H8V12H4V18H13H15H20V12H18C18 14.2091 16.2091 16 14 16C11.7909 16 10 14.2091 10 12ZM8 14H6V16H8V14ZM6.22168 5.63574L7.63589 4.22153L10.4643 7.04996L9.05011 8.46417L6.22168 5.63574ZM21.7785 5.63589L20.3643 4.22168L17.5358 7.05011L18.95 8.46432L21.7785 5.63589Z" fill="#F4F6F8"/>
</svg>
