<svg width="16" height="16" viewBox="0 0 16 16" fill="none" xmlns="http://www.w3.org/2000/svg">
<path d="M6.70899 2.38887C6.94229 1.9439 7.14015 1.47955 7.3 0.99999L11.5 5.19999C11.0204 5.35984 10.5561 5.55771 10.1111 5.79101C9.70808 6.00232 9.32094 6.2427 8.95278 6.51024L14.2788 11.2444C14.7376 11.6523 15.0001 12.2369 15.0001 12.8508C15.0001 14.0378 14.0379 15 12.8509 15C12.237 15 11.6524 14.7375 11.2446 14.2786L6.51035 8.95265C6.24276 9.32084 6.00235 9.70803 5.79102 10.1111C5.55772 10.5561 5.35985 11.0204 5.2 11.5L1 7.29999C1.47956 7.14014 1.94391 6.94228 2.38888 6.70898C3.22534 6.27043 3.99334 5.70665 4.66525 5.03474L5.03476 4.66524C5.70666 3.99333 6.27044 3.22533 6.70899 2.38887Z" fill="#F4F6F8"/>
</svg>
