<svg width="16" height="16" viewBox="0 0 16 16" fill="none" xmlns="http://www.w3.org/2000/svg">
<path d="M8.00004 15C6.06704 15 4.31704 14.2165 3.05029 12.9497L4.46451 11.5355C5.36933 12.4404 6.61933 13 8.00004 13C10.7615 13 13 10.7614 13 8C13 5.23858 10.7615 3 8.00004 3V1C11.866 1 15 4.13401 15 8C15 11.866 11.866 15 8.00004 15Z" fill="#F4F6F8"/>
<path d="M2.44668 3.73794C2.81905 3.25337 3.2534 2.81903 3.73797 2.44666L4.95662 4.03249C4.60989 4.29895 4.29898 4.60986 4.03252 4.95659L2.44668 3.73794Z" fill="#F4F6F8"/>
<path d="M1 7.99997C1 7.691 1.02008 7.38623 1.05911 7.08697L3.04231 7.34566C3.01444 7.55937 3 7.77773 3 7.99997C3 8.22221 3.01444 8.44058 3.04231 8.65428L1.05911 8.91297C1.02008 8.61372 1 8.30894 1 7.99997Z" fill="#F4F6F8"/>
</svg>
