<svg width="16" height="16" viewBox="0 0 16 16" fill="none" xmlns="http://www.w3.org/2000/svg">
<path d="M8.04705 1L13.7673 6.54394C13.9161 6.68819 13.9997 6.88382 13.9997 7.08779C13.9997 7.29177 13.9161 7.48739 13.7673 7.63165L12.72 8.67L7.06 3H3.68164V1H8.04705Z" fill="#F4F6F8"/>
<path fill-rule="evenodd" clip-rule="evenodd" d="M6.23084 5L11.7748 10.5439C11.919 10.6882 12 10.8838 12 11.0878C12 11.2918 11.919 11.4874 11.7748 11.6316L8.63165 14.7748C8.48739 14.919 8.29177 15 8.08779 15C7.88382 15 7.68819 14.919 7.54394 14.7748L2 9.23084V5H6.23084ZM3.88036 7.94733C4.00686 8.03186 4.15559 8.07697 4.30773 8.07697C4.51175 8.07697 4.70741 7.99593 4.85167 7.85167C4.99593 7.70741 5.07697 7.51175 5.07697 7.30773C5.07697 7.15559 5.03186 7.00686 4.94733 6.88036C4.86281 6.75386 4.74267 6.65526 4.60211 6.59704C4.46155 6.53882 4.30688 6.52359 4.15766 6.55327C4.00844 6.58295 3.87137 6.65621 3.76379 6.76379C3.65621 6.87137 3.58295 7.00844 3.55327 7.15766C3.52359 7.30688 3.53882 7.46155 3.59704 7.60211C3.65526 7.74267 3.75386 7.86281 3.88036 7.94733Z" fill="#F4F6F8"/>
</svg>
