<svg width="16" height="16" viewBox="0 0 16 16" fill="none" xmlns="http://www.w3.org/2000/svg">
<path d="M13 6C13 5.62493 12.851 5.26522 12.5858 5L11 3.41421C10.7348 3.149 10.3751 3 10 3C9.62493 3 9.26522 3.149 9 3.41421L8.70711 3.70711L7.29289 2.2929L7.58579 2C8.22608 1.35971 9.09449 1 10 1C10.9055 1 11.7739 1.35971 12.4142 2L14 3.58579C14.6403 4.22608 15 5.09449 15 6C15 6.90551 14.6403 7.77392 14 8.41421L13.7071 8.70711L12.2929 7.2929L12.5858 7C12.851 6.73479 13 6.37507 13 6Z" fill="#F4F6F8"/>
<path d="M7.70711 6.29289L3.70711 2.29289L2.29289 3.70711L6.29289 7.70711L7.70711 6.29289Z" fill="#F4F6F8"/>
<path d="M3.41421 11C3.149 10.7348 3 10.3751 3 10C3 9.62493 3.149 9.26521 3.41421 9L3.70711 8.7071L2.29289 7.29289L2 7.58579C1.35971 8.22608 1 9.09449 1 10C1 10.9055 1.35971 11.7739 2 12.4142L3.58579 14C4.22608 14.6403 5.09449 15 6 15C6.90551 15 7.77392 14.6403 8.41421 14L8.70711 13.7071L7.29289 12.2929L7 12.5858C6.73478 12.851 6.37507 13 6 13C5.62493 13 5.26522 12.851 5 12.5858L3.41421 11Z" fill="#F4F6F8"/>
<path d="M13.7071 12.2929L9.70711 8.29289L8.29289 9.70711L12.2929 13.7071L13.7071 12.2929Z" fill="#F4F6F8"/>
</svg>
