<svg width="16" height="16" viewBox="0 0 16 16" fill="none" xmlns="http://www.w3.org/2000/svg">
<path fill-rule="evenodd" clip-rule="evenodd"
      d="M15 8C15 11.866 11.866 15 8 15C4.13401 15 1 11.866 1 8C1 4.13401 4.13401 1 8 1C11.866 1 15 4.13401 15 8ZM3 8C3 10.7614 5.23858 13 8 13C10.7614 13 13 10.7614 13 8H11C11 9.65685 9.65685 11 8 11C6.34315 11 5 9.65685 5 8H3ZM7 6C7 6.55228 6.55228 7 6 7C5.44772 7 5 6.55228 5 6C5 5.44772 5.44772 5 6 5C6.55228 5 7 5.44772 7 6ZM10 7C10.5523 7 11 6.55228 11 6C11 5.44772 10.5523 5 10 5C9.44771 5 9 5.44772 9 6C9 6.55228 9.44771 7 10 7Z"
      fill="#F4F6F8"/>
</svg>
