<svg width="16" height="16" viewBox="0 0 16 16" fill="none" xmlns="http://www.w3.org/2000/svg">
<path fill-rule="evenodd" clip-rule="evenodd" d="M8 1.00001C10.7614 1.00001 13 3.23859 13 6.00001V9.00001C13 9.55229 13.4477 10 14 10H14.5C14.7761 10 15 10.2239 15 10.5C15 10.7762 14.7761 11 14.5 11H8H1.5C1.22386 11 1 10.7762 1 10.5C1 10.2239 1.22386 10 1.5 10H2C2.55228 10 3 9.55229 3 9.00001V6.00001C3 3.23859 5.23858 1.00001 8 1.00001ZM8 15C6.34277 15 5 13.6567 5 12H11C11 13.6567 9.65723 15 8 15Z" fill="#F4F6F8"/>
</svg>
