<svg width="16" height="16" viewBox="0 0 16 16" fill="none" xmlns="http://www.w3.org/2000/svg">
<path fill-rule="evenodd" clip-rule="evenodd" d="M8 15C11.866 15 15 11.866 15 8C15 4.13401 11.866 1 8 1C4.13401 1 1 4.13401 1 8C1 11.866 4.13401 15 8 15ZM13 8C13 10.7614 10.7614 13 8 13C6.98092 13 6.03304 12.6951 5.24261 12.1716L12.1716 5.24261C12.6951 6.03304 13 6.98092 13 8ZM3.8284 10.7574L10.7574 3.8284C9.96696 3.30488 9.01908 3 8 3C5.23858 3 3 5.23858 3 8C3 9.01908 3.30488 9.96696 3.8284 10.7574Z" fill="#F4F6F8"/>
</svg>
