<svg width="16" height="16" viewBox="0 0 16 16" fill="none" xmlns="http://www.w3.org/2000/svg">
<path d="M13.4447 12.0305L14.7071 13.2929L13.2929 14.7071L1.29289 2.70711L2.70711 1.29289L4.4714 3.05719L5 2H7V5.58579L9 7.58579V6C10.1046 6 11 6.89543 11 8C11 8.44663 10.8536 8.85907 10.6062 9.19195L12.028 10.6138C12.6337 9.91273 13 8.99915 13 8C13 5.79086 11.2091 4 9 4V2C12.3137 2 15 4.68629 15 8C15 9.55147 14.4111 10.9654 13.4447 12.0305Z" fill="#F4F6F8"/>
<path d="M7 10.9142L2.08579 6H2C1.44772 6 1 6.44771 1 7V9C1 9.55228 1.44772 10 2 10H3L5 14H7V10.9142Z" fill="#F4F6F8"/>
</svg>
