<svg width="16" height="16" viewBox="0 0 16 16" fill="none" xmlns="http://www.w3.org/2000/svg">
<path fill-rule="evenodd" clip-rule="evenodd" d="M8.58579 2C9.22608 1.35971 10.0945 1 11 1C11.9055 1 12.7739 1.35971 13.4142 2L14 2.58579C14.6403 3.22608 15 4.09449 15 5C15 5.90551 14.6403 6.77392 14 7.41421L11.4142 10C10.7739 10.6403 9.90551 11 9 11C8.09449 11 7.22608 10.6403 6.58579 10L6.29289 9.70711L7.70711 8.29289L8 8.58579C8.26522 8.851 8.62493 9 9 9C9.37507 9 9.73478 8.851 10 8.58579L12.5858 6C12.851 5.73478 13 5.37507 13 5C13 4.62493 12.851 4.26522 12.5858 4L12 3.41421C11.7348 3.149 11.3751 3 11 3C10.6249 3 10.2652 3.149 10 3.41421L9.70711 3.70711C9.31658 4.09763 8.68342 4.09763 8.29289 3.70711C7.90237 3.31658 7.90237 2.68342 8.29289 2.29289L8.58579 2ZM4.58579 6C5.22608 5.35971 6.09449 5 7 5C7.90551 5 8.77392 5.35971 9.41421 6L9.70711 6.29289L8.29289 7.70711L8 7.41421C7.73478 7.149 7.37507 7 7 7C6.62493 7 6.26522 7.149 6 7.41421L3.41421 10C3.149 10.2652 3 10.6249 3 11C3 11.3751 3.149 11.7348 3.41421 12L4 12.5858C4.26522 12.851 4.62493 13 5 13C5.37507 13 5.73478 12.851 6 12.5858L6.29289 12.2929C6.68342 11.9024 7.31658 11.9024 7.70711 12.2929C8.09763 12.6834 8.09763 13.3166 7.70711 13.7071L7.41421 14C6.77392 14.6403 5.90551 15 5 15C4.09449 15 3.22608 14.6403 2.58579 14L2 13.4142C1.35971 12.7739 1 11.9055 1 11C1 10.0945 1.35971 9.22608 2 8.58579L4.58579 6Z" fill="#F4F6F8"/>
</svg>
