<svg width="16" height="16" viewBox="0 0 16 16" fill="none" xmlns="http://www.w3.org/2000/svg">
<path d="M13.1608 2.85444C12.9382 2.85444 12.7247 2.95213 12.5674 3.12602C12.41 3.29991 12.3215 3.53575 12.3215 3.78166V7.18148H11.7621V2.54537C11.7621 2.29945 11.6736 2.06361 11.5163 1.88972C11.3589 1.71584 11.1454 1.61815 10.9228 1.61815C10.7002 1.61815 10.4868 1.71584 10.3294 1.88972C10.172 2.06361 10.0836 2.29945 10.0836 2.54537V7.18148H9.5241V1.92722C9.5241 1.68131 9.43568 1.44546 9.2783 1.27158C9.12091 1.09769 8.90745 1 8.68487 1C8.46229 1 8.24883 1.09769 8.09144 1.27158C7.93405 1.44546 7.84563 1.68131 7.84563 1.92722V7.18148H7.28615V2.54537C7.28615 2.29945 7.19773 2.06361 7.04034 1.88972C6.88295 1.71584 6.66949 1.61815 6.44691 1.61815C6.22433 1.61815 6.01087 1.71584 5.85348 1.88972C5.6961 2.06361 5.60768 2.29945 5.60768 2.54537V7.50563V9.5L4.00002 8C3.50002 7.5 2.72636 7.54651 2.3 8C1.78685 8.54581 1.87173 9.38312 2.38488 9.92893L5.24516 12.9712C6.46645 14.2702 8.12288 15 9.85005 15C12.1405 15 13.9973 13.0251 13.9973 10.5889L14 3.78166C14 3.53575 13.9116 3.29991 13.7542 3.12602C13.5968 2.95213 13.3834 2.85444 13.1608 2.85444Z" fill="#F4F6F8"/>
</svg>
