<svg width="16" height="16" viewBox="0 0 16 16" fill="none" xmlns="http://www.w3.org/2000/svg">
<path fill-rule="evenodd" clip-rule="evenodd" d="M10.478 11.8922C9.49718 12.5907 8.2973 13.0014 7.00146 13.0014C3.68776 13.0014 1.00146 10.3152 1.00146 7.00145C1.00146 3.68774 3.68776 1.00145 7.00146 1.00145C10.3152 1.00145 13.0015 3.68774 13.0015 7.00145C13.0015 8.29728 12.5907 9.49717 11.8922 10.478L14.9986 13.5843L13.5844 14.9986L10.478 11.8922ZM11.0015 7.00145C11.0015 9.21059 9.2106 11.0014 7.00146 11.0014C4.79233 11.0014 3.00146 9.21059 3.00146 7.00145C3.00146 4.79231 4.79233 3.00145 7.00146 3.00145C9.2106 3.00145 11.0015 4.79231 11.0015 7.00145Z" fill="#F4F6F8"/>
</svg>
