<svg width="16" height="16" viewBox="0 0 16 16" fill="none" xmlns="http://www.w3.org/2000/svg">
<path d="M2 12.0001C2 13.1047 2.89543 14.0001 4 14.0001H12C13.1046 14.0001 14 13.1047 14 12.0001V11.0001H12V12.0001H4V11.0001H2V12.0001Z" fill="#F4F6F8"/>
<path d="M11.2929 3.87874L9.00001 6.17163V1.58585L7.00001 1.58585L7.00001 6.17163L4.70712 3.87874L3.29291 5.29295L8.00001 10.0001L12.7071 5.29295L11.2929 3.87874Z" fill="#F4F6F8"/>
<path d="M11.2929 3.87874L9.00001 6.17163V1.58585L7.00001 1.58585L7.00001 6.17163L4.70712 3.87874L3.29291 5.29295L8.00001 10.0001L12.7071 5.29295L11.2929 3.87874Z" fill="#F4F6F8"/>
</svg>
