<svg width="24" height="24" viewBox="0 0 24 24" fill="none" xmlns="http://www.w3.org/2000/svg">
<path d="M11 9H14V11H11V14H9V11H6V9H9V6H11V9Z" fill="#F4F6F8"/>
<path fill-rule="evenodd" clip-rule="evenodd" d="M10 1C5.02944 1 1 5.02944 1 10C1 14.9706 5.02944 19 10 19C14.9706 19 19 14.9706 19 10C19 5.02944 14.9706 1 10 1ZM3 10C3 6.13401 6.13401 3 10 3C13.866 3 17 6.13401 17 10C17 13.866 13.866 17 10 17C6.13401 17 3 13.866 3 10Z" fill="#F4F6F8"/>
<path d="M22.7071 21.2929L18.7071 17.2929L17.2929 18.7072L21.2929 22.7072L22.7071 21.2929Z" fill="#F4F6F8"/>
</svg>
