<svg width="24" height="24" viewBox="0 0 24 24" fill="none" xmlns="http://www.w3.org/2000/svg">
<path fill-rule="evenodd" clip-rule="evenodd" d="M10.0611 1.64686L9.6503 1.23608L9.08999 1.38944C8.19387 1.6347 7.34358 1.99031 6.55473 2.44053L6.05042 2.72836V3.30903V5.222L5.22199 6.05043H3.30903H2.72836L2.44053 6.55474C1.9903 7.34358 1.6347 8.19387 1.38944 9.08998L1.23608 9.6503L1.64686 10.0611L3.00011 11.4143L3.00011 12.5859L1.64686 13.9392L1.23608 14.3499L1.38944 14.9102C1.6347 15.8064 1.99031 16.6567 2.44053 17.4455L2.72837 17.9498H3.30903H5.222L6.05043 18.7782V20.6912V21.2719L6.55474 21.5597C7.34358 22.0099 8.19387 22.3655 9.08998 22.6108L9.6503 22.7641L10.0611 22.3534L11.4143 21.0001L12.5859 21.0001L13.9392 22.3534L14.3499 22.7641L14.9102 22.6108C15.8064 22.3655 16.6567 22.0099 17.4455 21.5597L17.9498 21.2719V20.6912V18.7782L18.7782 17.9498H20.6912H21.2719L21.5597 17.4455C22.0099 16.6567 22.3655 15.8064 22.6108 14.9102L22.7641 14.3499L22.3534 13.9392L21.0001 12.5859L21.0001 11.4143L22.3534 10.0611L22.7641 9.6503L22.6108 9.08998C22.3655 8.19387 22.0099 7.34358 21.5597 6.55473L21.2719 6.05042H20.6912H18.7782L17.9498 5.22199V3.30903V2.72836L17.4455 2.44053C16.6567 1.9903 15.8064 1.6347 14.9102 1.38944L14.3499 1.23608L13.9392 1.64686L12.5859 3.00011L11.4143 3.00011L10.0611 1.64686ZM8.05042 5.63621V3.91058C8.38035 3.74916 8.72155 3.60737 9.0725 3.48671L10.293 4.70722L10.5859 5.00011L11.0001 5.00011L13.0001 5.00011H13.4143L13.7072 4.70722L14.9277 3.48671C15.2787 3.60737 15.6199 3.74916 15.9498 3.91058V5.63621V6.05042L16.2427 6.34331L17.6569 7.75753L17.9498 8.05042H18.364L20.0897 8.05042C20.2511 8.38035 20.3929 8.72155 20.5135 9.0725L19.293 10.293L19.0001 10.5859V11.0001L19.0001 13.0001V13.4143L19.293 13.7072L20.5135 14.9277C20.3929 15.2787 20.2511 15.6199 20.0897 15.9498H18.364H17.9498L17.6569 16.2427L16.2427 17.6569L15.9498 17.9498V18.364V20.0897C15.6199 20.2511 15.2787 20.3929 14.9277 20.5135L13.7072 19.293L13.4143 19.0001L13.0001 19.0001L11.0001 19.0001H10.5859L10.293 19.293L9.0725 20.5135C8.72155 20.3929 8.38035 20.2511 8.05043 20.0897V18.364V17.9498L7.75753 17.6569L6.34332 16.2427L6.05043 15.9498H5.63621H3.91058C3.74916 15.6199 3.60737 15.2787 3.48671 14.9277L4.70722 13.7072L5.00011 13.4143V13.0001L5.00011 11.0001V10.5859L4.70722 10.293L3.48671 9.0725C3.60737 8.72155 3.74916 8.38036 3.91058 8.05043L5.63621 8.05043H6.05042L6.34332 7.75753L7.75753 6.34332L8.05042 6.05043V5.63621ZM10.0001 12C10.0001 10.8954 10.8955 9.99996 12.0001 9.99996C13.1047 9.99996 14.0001 10.8954 14.0001 12C14.0001 13.1045 13.1047 14 12.0001 14C10.8955 14 10.0001 13.1045 10.0001 12ZM12.0001 7.99996C9.79095 7.99996 8.00008 9.79082 8.00008 12C8.00008 14.2091 9.79095 16 12.0001 16C14.2092 16 16.0001 14.2091 16.0001 12C16.0001 9.79082 14.2092 7.99996 12.0001 7.99996Z" fill="#F4F6F8"/>
</svg>
