<svg width="48" height="48" viewBox="0 0 48 48" fill="none" xmlns="http://www.w3.org/2000/svg">
<path fill-rule="evenodd" clip-rule="evenodd" d="M8.00024 5C8.00024 4.44772 8.44796 4 9.00024 4H12.8002V6H10.0002V8.8H8.00024V5ZM14.7002 4H22.3001V6H14.7002V4ZM24.2001 4H28C28.2488 4 28.4886 4.09273 28.6727 4.26006L33.0727 8.26006L31.7274 9.73994L27.6134 6H24.2001V4ZM35.2727 10.2601L39.6727 14.2601C39.8812 14.4496 40 14.7183 40 15V18.7333H38V15.4424L33.9274 11.7399L35.2727 10.2601ZM8.00024 18.3V10.7H10.0002V18.3H8.00024ZM8.00024 27.8V20.2H10.0002V27.8H8.00024ZM40 20.6V28.0667H38V20.6H40ZM8.00024 37.3V29.7H10.0002V37.3H8.00024ZM40 29.9333V37.4H38V29.9333H40ZM8.00024 43V39.2H10.0002V42H13.0002V44H9.00024C8.44796 44 8.00024 43.5523 8.00024 43ZM40 39.2667V43C40 43.5523 39.5523 44 39 44H35.0001V42H38V39.2667H40ZM23.0001 44H15.0002V42H23.0001V44ZM33.0001 44H25.0001V42H33.0001V44Z" fill="#F4F6F8"/>
<path d="M28 15V5L39 15H28Z" fill="#F4F6F8"/>
<path fill-rule="evenodd" clip-rule="evenodd" d="M27.5955 4.08549C27.9575 3.92536 28.3798 3.99381 28.6727 4.26006L39.6727 14.2601C39.9784 14.538 40.0817 14.9753 39.9327 15.3606C39.7838 15.7459 39.4132 16 39 16H28C27.4477 16 27 15.5523 27 15V5C27 4.60419 27.2335 4.24562 27.5955 4.08549ZM29 7.26056V14H36.4134L29 7.26056Z" fill="#F4F6F8"/>
<path fill-rule="evenodd" clip-rule="evenodd" d="M21.9513 30.5371L28.2474 23.3415L29.7526 24.6585L22.0487 33.4629L18.2929 29.7071L19.7071 28.2929L21.9513 30.5371Z" fill="#F4F6F8"/>
</svg>
