<svg width="48" height="48" viewBox="0 0 48 48" fill="none" xmlns="http://www.w3.org/2000/svg">
<g filter="url(#filter0_i_911_327)">
<path fill-rule="evenodd" clip-rule="evenodd" d="M24 44C35.0457 44 44 35.0457 44 24C44 12.9543 35.0457 4 24 4C12.9543 4 4 12.9543 4 24C4 35.0457 12.9543 44 24 44ZM23.9922 32C19.5739 32 15.9922 28.4183 15.9922 24H9.99219C9.99219 31.732 16.2602 38 23.9922 38C31.7242 38 37.9922 31.732 37.9922 24H31.9922C31.9922 28.4183 28.4105 32 23.9922 32Z" fill="url(#paint0_linear_911_327)"/>
</g>
<defs>
<filter id="filter0_i_911_327" x="4" y="4" width="40" height="40.5" filterUnits="userSpaceOnUse" color-interpolation-filters="sRGB">
<feFlood flood-opacity="0" result="BackgroundImageFix"/>
<feBlend mode="normal" in="SourceGraphic" in2="BackgroundImageFix" result="shape"/>
<feColorMatrix in="SourceAlpha" type="matrix" values="0 0 0 0 0 0 0 0 0 0 0 0 0 0 0 0 0 0 127 0" result="hardAlpha"/>
<feOffset dy="0.5"/>
<feGaussianBlur stdDeviation="0.25"/>
<feComposite in2="hardAlpha" operator="arithmetic" k2="-1" k3="1"/>
<feColorMatrix type="matrix" values="0 0 0 0 0.623529 0 0 0 0 0.67451 0 0 0 0 1 0 0 0 1 0"/>
<feBlend mode="normal" in2="shape" result="effect1_innerShadow_911_327"/>
</filter>
<linearGradient id="paint0_linear_911_327" x1="24" y1="4" x2="24" y2="44" gradientUnits="userSpaceOnUse">
<stop stop-color="#7174FF"/>
<stop offset="1" stop-color="#2823A0"/>
</linearGradient>
</defs>
</svg>
