<svg width="16" height="16" viewBox="0 0 16 16" fill="none" xmlns="http://www.w3.org/2000/svg">
<g filter="url(#filter0_i_911_333)">
<path fill-rule="evenodd" clip-rule="evenodd" d="M15 8C15 11.866 11.866 15 8 15C4.13401 15 1 11.866 1 8C1 4.13401 4.13401 1 8 1C11.866 1 15 4.13401 15 8ZM3 8C3 10.7614 5.23858 13 8 13C10.7614 13 13 10.7614 13 8H11C11 9.65685 9.65685 11 8 11C6.34315 11 5 9.65685 5 8H3Z" fill="url(#paint0_linear_911_333)"/>
</g>
<defs>
<filter id="filter0_i_911_333" x="1" y="1" width="14" height="14.5" filterUnits="userSpaceOnUse" color-interpolation-filters="sRGB">
<feFlood flood-opacity="0" result="BackgroundImageFix"/>
<feBlend mode="normal" in="SourceGraphic" in2="BackgroundImageFix" result="shape"/>
<feColorMatrix in="SourceAlpha" type="matrix" values="0 0 0 0 0 0 0 0 0 0 0 0 0 0 0 0 0 0 127 0" result="hardAlpha"/>
<feOffset dy="0.5"/>
<feGaussianBlur stdDeviation="0.25"/>
<feComposite in2="hardAlpha" operator="arithmetic" k2="-1" k3="1"/>
<feColorMatrix type="matrix" values="0 0 0 0 0.70875 0 0 0 0 0.756 0 0 0 0 0.7875 0 0 0 1 0"/>
<feBlend mode="normal" in2="shape" result="effect1_innerShadow_911_333"/>
</filter>
<linearGradient id="paint0_linear_911_333" x1="8" y1="1" x2="8" y2="15" gradientUnits="userSpaceOnUse">
<stop stop-color="#7B8A95"/>
<stop offset="1" stop-color="#424E57"/>
</linearGradient>
</defs>
</svg>
