<svg width="32" height="32" viewBox="0 0 32 32" fill="none" xmlns="http://www.w3.org/2000/svg">
<path fill-rule="evenodd" clip-rule="evenodd" d="M30 16C30 23.732 23.732 30 16 30C8.26801 30 2 23.732 2 16C2 8.26801 8.26801 2 16 2C23.732 2 30 8.26801 30 16ZM6 16C6 21.5228 10.4772 26 16 26C21.5228 26 26 21.5228 26 16H22C22 19.3137 19.3137 22 16 22C12.6863 22 10 19.3137 10 16H6Z" fill="url(#paint0_linear_911_328)"/>
<defs>
<linearGradient id="paint0_linear_911_328" x1="16" y1="2" x2="16" y2="30" gradientUnits="userSpaceOnUse">
<stop stop-color="#7B8A95"/>
<stop offset="1" stop-color="#424E57"/>
</linearGradient>
</defs>
</svg>
