<svg width="24" height="24" viewBox="0 0 24 24" fill="none" xmlns="http://www.w3.org/2000/svg">
<path d="M12.006 2C7.82995 2 6.60861 2.00431 6.37121 2.024C5.51421 2.09524 4.98094 2.23017 4.39996 2.51943C3.95223 2.74176 3.59913 2.99947 3.25064 3.36073C2.61597 4.01956 2.23132 4.83009 2.09208 5.79355C2.02438 6.26128 2.00468 6.35668 2.00068 8.7458C1.99915 9.54218 2.00068 10.5903 2.00068 11.9961C2.00068 16.1687 2.0053 17.3888 2.0253 17.6258C2.09454 18.4597 2.22532 18.9844 2.50226 19.5583C3.03154 20.6568 4.0424 21.4815 5.23326 21.7892C5.64561 21.8954 6.10103 21.9538 6.6857 21.9815C6.93341 21.9923 9.45824 22 11.9846 22C14.511 22 17.0373 21.9969 17.2789 21.9846C17.9559 21.9528 18.349 21.9 18.7836 21.7877C19.9822 21.4784 20.9746 20.666 21.5146 19.5521C21.7862 18.9921 21.9239 18.4474 21.9862 17.657C21.9998 17.4847 22.0055 14.7372 22.0055 11.9935C22.0055 9.24923 21.9993 6.50684 21.9858 6.33452C21.9227 5.53138 21.785 4.99133 21.5046 4.42051C21.2746 3.95324 21.0192 3.60429 20.6484 3.24749C19.9867 2.61544 19.1774 2.23079 18.213 2.0917C17.7457 2.02416 17.6526 2.00415 15.2617 2H12.006Z" fill="url(#paint0_radial_603_392)"/>
<path d="M12.006 2C7.82995 2 6.60861 2.00431 6.37121 2.024C5.51421 2.09524 4.98094 2.23017 4.39996 2.51943C3.95223 2.74176 3.59913 2.99947 3.25064 3.36073C2.61597 4.01956 2.23132 4.83009 2.09208 5.79355C2.02438 6.26128 2.00468 6.35668 2.00068 8.7458C1.99915 9.54218 2.00068 10.5903 2.00068 11.9961C2.00068 16.1687 2.0053 17.3888 2.0253 17.6258C2.09454 18.4597 2.22532 18.9844 2.50226 19.5583C3.03154 20.6568 4.0424 21.4815 5.23326 21.7892C5.64561 21.8954 6.10103 21.9538 6.6857 21.9815C6.93341 21.9923 9.45824 22 11.9846 22C14.511 22 17.0373 21.9969 17.2789 21.9846C17.9559 21.9528 18.349 21.9 18.7836 21.7877C19.9822 21.4784 20.9746 20.666 21.5146 19.5521C21.7862 18.9921 21.9239 18.4474 21.9862 17.657C21.9998 17.4847 22.0055 14.7372 22.0055 11.9935C22.0055 9.24923 21.9993 6.50684 21.9858 6.33452C21.9227 5.53138 21.785 4.99133 21.5046 4.42051C21.2746 3.95324 21.0192 3.60429 20.6484 3.24749C19.9867 2.61544 19.1774 2.23079 18.213 2.0917C17.7457 2.02416 17.6526 2.00415 15.2617 2H12.006Z" fill="url(#paint1_radial_603_392)"/>
<path d="M12.0014 4.6156C9.99569 4.6156 9.74397 4.62437 8.95621 4.66022C8.16999 4.69622 7.63333 4.82069 7.16376 5.00333C6.67802 5.19196 6.26599 5.44429 5.85549 5.85494C5.44469 6.26543 5.19236 6.67747 5.00311 7.16305C4.82002 7.63278 4.69539 8.16959 4.66 8.95551C4.62477 9.74327 4.61554 9.99513 4.61554 12.0008C4.61554 14.0065 4.62446 14.2575 4.66016 15.0453C4.69632 15.8315 4.82079 16.3681 5.00326 16.8377C5.19205 17.3234 5.44438 17.7355 5.85503 18.146C6.26537 18.5568 6.67741 18.8097 7.16283 18.9984C7.63272 19.181 8.16953 19.3055 8.9556 19.3415C9.74336 19.3773 9.99492 19.3861 12.0005 19.3861C14.0063 19.3861 14.2573 19.3773 15.045 19.3415C15.8313 19.3055 16.3685 19.181 16.8384 18.9984C17.324 18.8097 17.7354 18.5568 18.1458 18.146C18.5566 17.7355 18.8089 17.3234 18.9981 16.8379C19.1797 16.3681 19.3043 15.8313 19.3412 15.0454C19.3766 14.2576 19.3859 14.0065 19.3859 12.0008C19.3859 9.99513 19.3766 9.74342 19.3412 8.95566C19.3043 8.16944 19.1797 7.63278 18.9981 7.1632C18.8089 6.67747 18.5566 6.26543 18.1458 5.85494C17.735 5.44413 17.3242 5.1918 16.838 5.00333C16.3671 4.82069 15.8302 4.69622 15.044 4.66022C14.2562 4.62437 14.0054 4.6156 11.9991 4.6156H12.0014ZM11.3389 5.94648C11.5355 5.94617 11.7549 5.94648 12.0014 5.94648C13.9733 5.94648 14.207 5.95356 14.9856 5.98895C15.7057 6.02187 16.0965 6.14219 16.3568 6.24328C16.7015 6.37713 16.9472 6.53715 17.2055 6.79563C17.464 7.05411 17.624 7.30029 17.7582 7.64493C17.8593 7.90496 17.9797 8.29576 18.0125 9.01582C18.0479 9.79435 18.0556 10.0282 18.0556 11.9991C18.0556 13.9701 18.0479 14.204 18.0125 14.9825C17.9796 15.7025 17.8593 16.0933 17.7582 16.3534C17.6243 16.698 17.464 16.9434 17.2055 17.2017C16.947 17.4602 16.7016 17.6202 16.3568 17.7541C16.0968 17.8556 15.7057 17.9757 14.9856 18.0086C14.2071 18.044 13.9733 18.0517 12.0014 18.0517C10.0294 18.0517 9.79567 18.044 9.01714 18.0086C8.29708 17.9753 7.90628 17.855 7.6458 17.7539C7.30115 17.6201 7.05498 17.4601 6.79649 17.2016C6.53801 16.9431 6.378 16.6975 6.24383 16.3527C6.14275 16.0927 6.02227 15.7019 5.9895 14.9819C5.95411 14.2033 5.94704 13.9695 5.94704 11.9973C5.94704 10.0251 5.95411 9.7925 5.9895 9.01397C6.02243 8.29391 6.14275 7.90311 6.24383 7.64278C6.37769 7.29814 6.53801 7.05196 6.79649 6.79348C7.05498 6.53499 7.30115 6.37498 7.6458 6.24082C7.90613 6.13927 8.29708 6.01926 9.01714 5.98618C9.69843 5.95541 9.96245 5.94617 11.3389 5.94464V5.94648ZM15.9436 7.17274C15.4543 7.17274 15.0573 7.56924 15.0573 8.05866C15.0573 8.54793 15.4543 8.94489 15.9436 8.94489C16.4328 8.94489 16.8298 8.54793 16.8298 8.05866C16.8298 7.56939 16.4328 7.17243 15.9436 7.17243V7.17274ZM12.0014 8.20821C9.90691 8.20821 8.20877 9.90636 8.20877 12.0008C8.20877 14.0953 9.90691 15.7927 12.0014 15.7927C14.0959 15.7927 15.7934 14.0953 15.7934 12.0008C15.7934 9.90636 14.0957 8.20821 12.0012 8.20821H12.0014ZM12.0014 9.53909C13.3609 9.53909 14.4631 10.6412 14.4631 12.0008C14.4631 13.3603 13.3609 14.4626 12.0014 14.4626C10.6417 14.4626 9.53965 13.3603 9.53965 12.0008C9.53965 10.6412 10.6417 9.53909 12.0014 9.53909Z" fill="white"/>
<defs>
<radialGradient id="paint0_radial_603_392" cx="0" cy="0" r="1" gradientUnits="userSpaceOnUse" gradientTransform="translate(7.31397 23.5404) rotate(-90) scale(19.8215 18.4406)">
<stop stop-color="#FFDD55"/>
<stop offset="0.1" stop-color="#FFDD55"/>
<stop offset="0.5" stop-color="#FF543E"/>
<stop offset="1" stop-color="#C837AB"/>
</radialGradient>
<radialGradient id="paint1_radial_603_392" cx="0" cy="0" r="1" gradientUnits="userSpaceOnUse" gradientTransform="translate(-1.35102 3.44077) rotate(78.6776) scale(8.86037 36.532)">
<stop stop-color="#3771C8"/>
<stop offset="0.128" stop-color="#3771C8"/>
<stop offset="1" stop-color="#6600FF" stop-opacity="0"/>
</radialGradient>
</defs>
</svg>
