<svg width="24" height="24" viewBox="0 0 24 24" fill="none" xmlns="http://www.w3.org/2000/svg">
<path fill-rule="evenodd" clip-rule="evenodd" d="M22 12C22 17.5228 17.5228 22 12 22C6.47715 22 2 17.5228 2 12C2 6.47715 6.47715 2 12 2C17.5228 2 22 6.47715 22 12ZM17.2046 10.5379C18.0117 10.5379 18.6666 11.1929 18.6666 11.9999C18.6666 12.5964 18.3041 13.111 17.8245 13.3449C17.8479 13.4853 17.8596 13.6256 17.8596 13.7777C17.8596 16.0233 15.2514 17.8362 12.0234 17.8362C8.79529 17.8362 6.1871 16.0233 6.1871 13.7777C6.1871 13.6256 6.19879 13.4736 6.22219 13.3332C5.70757 13.0993 5.35669 12.5964 5.35669 11.9999C5.35669 11.1929 6.01166 10.5379 6.81868 10.5379C7.20464 10.5379 7.56722 10.7017 7.82453 10.9473C8.83037 10.2104 10.2222 9.7543 11.7777 9.70751L12.5146 6.22213C12.538 6.15196 12.5731 6.09348 12.6315 6.05839C12.69 6.0233 12.7602 6.01161 12.8304 6.0233L15.2514 6.53792C15.4152 6.18704 15.766 5.95312 16.1754 5.95312C16.7485 5.95312 17.2163 6.42096 17.2163 6.99406C17.2163 7.56716 16.7485 8.035 16.1754 8.035C15.614 8.035 15.1579 7.59055 15.1345 7.04084L12.9707 6.5847L12.3041 9.70751C13.8245 9.76599 15.2046 10.2338 16.1988 10.9473C16.4561 10.69 16.807 10.5379 17.2046 10.5379ZM9.70757 11.9999C9.13447 11.9999 8.66663 12.4677 8.66663 13.0408C8.66663 13.6139 9.13447 14.0818 9.70757 14.0818C10.2807 14.0818 10.7485 13.6139 10.7485 13.0408C10.7485 12.4677 10.2807 11.9999 9.70757 11.9999ZM12.0117 16.5496C12.4093 16.5496 13.766 16.5028 14.4795 15.7894C14.5848 15.6841 14.5848 15.5204 14.5029 15.4034C14.3976 15.2982 14.2222 15.2982 14.1169 15.4034C13.6608 15.8479 12.7134 16.0116 12.0234 16.0116C11.3333 16.0116 10.3742 15.8479 9.92979 15.4034C9.82453 15.2982 9.64909 15.2982 9.54382 15.4034C9.43856 15.5087 9.43856 15.6841 9.54382 15.7894C10.2456 16.4911 11.614 16.5496 12.0117 16.5496ZM13.2514 13.0408C13.2514 13.6139 13.7193 14.0818 14.2924 14.0818C14.8655 14.0818 15.3333 13.6139 15.3333 13.0408C15.3333 12.4677 14.8655 11.9999 14.2924 11.9999C13.7193 11.9999 13.2514 12.4677 13.2514 13.0408Z" fill="white"/>
</svg>
