<svg width="24" height="24" viewBox="0 0 24 24" fill="none" xmlns="http://www.w3.org/2000/svg">
<path fill-rule="evenodd" clip-rule="evenodd" d="M14.76 3H9.24C4.2 3 3 4.2 3 9.24V14.76C3 19.8 4.2 21 9.24 21H14.76C19.8 21 21 19.8 21 14.76V9.24C21 4.2 19.8 3 14.76 3Z" fill="#2787F5"/>
<path fill-rule="evenodd" clip-rule="evenodd" d="M17.3438 8.71875C17.7407 8.71875 17.8241 8.9231 17.7407 9.20121C17.5739 9.96597 15.9748 12.2186 15.9748 12.2186C15.8357 12.441 15.7801 12.5523 15.9748 12.8026C16.0433 12.8986 16.1896 13.0419 16.357 13.2058C16.5291 13.3744 16.7235 13.5648 16.8786 13.7481C17.4424 14.3824 17.8673 14.9174 17.9856 15.2862C18.0938 15.6563 17.9063 15.8437 17.5313 15.8437H16.2188C15.8672 15.8437 15.6902 15.6468 15.3077 15.2213C15.1456 15.041 14.9465 14.8195 14.6816 14.5546C13.9029 13.8037 13.5692 13.7064 13.3745 13.7064C13.1103 13.7064 13.0313 13.7812 13.0313 14.1563V15.3333C13.0313 15.6562 12.9281 15.8437 12.0938 15.8437C10.7033 15.8437 9.17521 14.9996 8.09064 13.4422C6.46377 11.1618 6.0188 9.43758 6.0188 9.08994C6.0188 8.89528 6.0938 8.71875 6.4688 8.71875H7.7813C8.11674 8.71875 8.24292 8.86556 8.36872 9.22901C9.01064 11.0989 10.093 12.7331 10.5379 12.7331C10.7048 12.7331 10.7813 12.6562 10.7813 12.2325V10.2997C10.7512 9.74951 10.559 9.51158 10.4166 9.33535C10.3287 9.22652 10.2598 9.14121 10.2598 9.02044C10.2598 8.87364 10.3853 8.71875 10.5938 8.71875H12.6563C12.9344 8.71875 13.0313 8.86748 13.0313 9.20121V11.8014C13.0313 12.0795 13.152 12.1768 13.2355 12.1768C13.4023 12.1768 13.5414 12.0795 13.8473 11.7736C14.7928 10.7168 15.4603 9.08994 15.4603 9.08994C15.5437 8.89528 15.6976 8.71875 16.0313 8.71875H17.3438Z" fill="white"/>
</svg>
