<svg width="24" height="24" viewBox="0 0 24 24" fill="none" xmlns="http://www.w3.org/2000/svg">
<path d="M12 22C17.5228 22 22 17.5228 22 12C22 6.47715 17.5228 2 12 2C6.47715 2 2 6.47715 2 12C2 17.5228 6.47715 22 12 22Z" fill="url(#paint0_linear_603_326)"/>
<path d="M6.5266 11.894C9.4418 10.6239 11.3857 9.7866 12.3584 9.38204C15.1355 8.22694 15.7125 8.02629 16.0887 8.0196C16.1714 8.01821 16.3563 8.03871 16.4762 8.13593C16.5773 8.21802 16.6052 8.32891 16.6185 8.40674C16.6318 8.48457 16.6484 8.66187 16.6352 8.80041C16.4847 10.3816 15.8335 14.2189 15.5022 15.9899C15.3621 16.7393 15.0861 16.9905 14.8188 17.0151C14.2381 17.0686 13.7972 16.6314 13.2347 16.2627C12.3546 15.6857 11.8573 15.3266 11.003 14.7636C10.0157 14.113 10.6558 13.7554 11.2184 13.171C11.3657 13.018 13.9243 10.6907 13.9739 10.4796C13.98 10.4532 13.9858 10.3548 13.9273 10.3028C13.8689 10.2508 13.7826 10.2686 13.7203 10.2827C13.632 10.3028 12.226 11.2321 9.50222 13.0707C9.10313 13.3448 8.74164 13.4783 8.41776 13.4713C8.06071 13.4636 7.37388 13.2694 6.8633 13.1034C6.23705 12.8999 5.73932 12.7922 5.78266 12.4465C5.80524 12.2664 6.05321 12.0823 6.5266 11.894Z" fill="white"/>
<defs>
<linearGradient id="paint0_linear_603_326" x1="12" y1="2" x2="12" y2="21.8516" gradientUnits="userSpaceOnUse">
<stop stop-color="#2AABEE"/>
<stop offset="1" stop-color="#229ED9"/>
</linearGradient>
</defs>
</svg>
