<svg width="24" height="24" viewBox="0 0 24 24" fill="none" xmlns="http://www.w3.org/2000/svg">
<path d="M12.3446 5.61467C14.5357 5.61467 16.3119 4.58164 16.3119 3.30733C16.3119 2.03303 14.5357 1 12.3446 1C10.1536 1 8.37739 2.03303 8.37739 3.30733C8.37739 4.58164 10.1536 5.61467 12.3446 5.61467Z" fill="#B5C1C9"/>
<path d="M12.3446 23C14.5357 23 16.3119 21.967 16.3119 20.6927C16.3119 19.4184 14.5357 18.3853 12.3446 18.3853C10.1536 18.3853 8.37739 19.4184 8.37739 20.6927C8.37739 21.967 10.1536 23 12.3446 23Z" fill="#B5C1C9"/>
<path d="M6.81601 8.80856C7.91154 6.91112 7.90443 4.85607 6.80013 4.21849C5.69584 3.5809 3.91254 4.60222 2.81701 6.49967C1.72149 8.39711 1.7286 10.4522 2.83289 11.0897C3.93719 11.7273 5.72049 10.706 6.81601 8.80856Z" fill="#B5C1C9"/>
<path d="M21.8705 17.5002C22.9661 15.6027 22.9595 13.548 21.856 12.9109C20.7525 12.2737 18.9698 13.2954 17.8742 15.1929C16.7787 17.0903 16.7852 19.145 17.8888 19.7822C18.9923 20.4193 20.775 19.3976 21.8705 17.5002Z" fill="#B5C1C9"/>
<path d="M6.80069 19.7816C7.90498 19.144 7.91209 17.089 6.81657 15.1916C5.72105 13.2941 3.93774 12.2728 2.83345 12.9104C1.72915 13.548 1.72204 15.603 2.81757 17.5004C3.91309 19.3979 5.69639 20.4192 6.80069 19.7816Z" fill="#B5C1C9"/>
<path d="M21.8569 11.0903C22.9605 10.4531 22.967 8.3984 21.8715 6.50096C20.7759 4.60351 18.9932 3.58184 17.8897 4.21899C16.7861 4.85614 16.7796 6.91084 17.8752 8.80829C18.9707 10.7057 20.7534 11.7274 21.8569 11.0903Z" fill="#B5C1C9"/>
</svg>
