<svg width="24" height="24" viewBox="0 0 24 24" fill="none" xmlns="http://www.w3.org/2000/svg">
<path fill-rule="evenodd" clip-rule="evenodd" d="M2.625 11.9531C2.625 6.72787 6.71878 2.85938 12 2.85938C17.2812 2.85938 21.375 6.72787 21.375 11.9531C21.375 17.1784 17.2812 21.0469 12 21.0469C11.0514 21.0469 10.1413 20.9216 9.28622 20.6865C9.12 20.6408 8.94324 20.6537 8.7855 20.7233L6.92469 21.5447C6.43794 21.7596 5.88849 21.4134 5.87218 20.8815L5.82113 19.2139C5.81484 19.0084 5.72241 18.8164 5.56927 18.6793C3.74513 17.048 2.625 14.6863 2.625 11.9531ZM9.12426 10.2457L6.37035 14.6149C6.10607 15.0342 6.62147 15.5067 7.01629 15.207L9.97444 12.962C10.1745 12.8101 10.4511 12.8093 10.652 12.96L12.8424 14.6028C13.4996 15.0958 14.4377 14.9227 14.8758 14.2277L17.6297 9.85849C17.8939 9.43918 17.3785 8.96668 16.9837 9.2663L14.0256 11.5113C13.8254 11.6632 13.5489 11.664 13.348 11.5133L11.1577 9.87053C10.5004 9.37759 9.56231 9.55065 9.12426 10.2457Z" fill="white"/>
</svg>
