<svg width="24" height="24" viewBox="0 0 24 24" fill="none" xmlns="http://www.w3.org/2000/svg">
<path d="M2.31399 3.30776C2.50685 3.10284 2.75502 3 3 3H21C21.245 3 21.4931 3.10284 21.686 3.30776C21.8808 3.51474 22 3.80773 22 4.125V14.875C22 15.1923 21.8808 15.4853 21.686 15.6922C21.4931 15.8972 21.245 16 21 16H4V18H21C21.8159 18 22.5851 17.6551 23.1424 17.063C23.6978 16.4729 24 15.6849 24 14.875V4.125C24 3.3151 23.6978 2.52709 23.1424 1.93703C22.5851 1.34492 21.8159 1 21 1H3C2.18411 1 1.41487 1.34492 0.857586 1.93703C0.30224 2.52709 0 3.3151 0 4.125V23H2V4.125C2 3.80773 2.11919 3.51474 2.31399 3.30776Z" fill="#F4F6F8"/>
<path d="M7.11636 12.0909H8.47564V7H7.51273C7.51636 7.86036 7.54036 10.8131 7.54036 10.8131L5.34909 7H4V12.0909H4.95636C4.95636 9.44727 4.92145 8.24 4.92145 8.24L7.11636 12.0909Z" fill="#F4F6F8"/>
<path d="M12.7004 12.0909H9.79492V7H12.7004V7.88436H10.8647V9.00218H12.5731V9.88655H10.8647V11.1993H12.7004V12.0909Z" fill="#F4F6F8"/>
<path d="M17.4981 12.0909H18.7163L20 7H18.9476L18.3061 9.77818C18.2269 10.0967 18.1054 10.7345 18.0574 11.112C18.0145 10.7949 17.9003 10.1469 17.8261 9.85164L17.0909 7H16.0792C15.8029 8.04582 15.2116 10.44 15.1098 11.1127C15.0589 10.736 14.9774 10.2916 14.8647 9.77891L14.2196 7H13.1672L14.4545 12.0909H15.6691L16.3491 9.42327C16.4072 9.19273 16.5512 8.48873 16.5803 8.22546C16.5992 8.44218 16.7643 9.22764 16.8145 9.41673L17.4981 12.0909Z" fill="#F4F6F8"/>
</svg>
