<svg width="24" height="24" viewBox="0 0 24 24" fill="none" xmlns="http://www.w3.org/2000/svg">
<path fill-rule="evenodd" clip-rule="evenodd" d="M5 1H19V3H5V1ZM3 7H21V10H16C13.7909 10 12 11.7909 12 14C12 16.2091 13.7909 18 16 18H21V21H3V7ZM21 12H16C14.8954 12 14 12.8954 14 14C14 15.1046 14.8954 16 16 16H21V12ZM23 18V21C23 22.1046 22.1046 23 21 23H3C1.89543 23 1 22.1046 1 21V7C1 5.89543 1.89543 5 3 5H21C22.1046 5 23 5.89543 23 7V10V18ZM17 15C17.5523 15 18 14.5523 18 14C18 13.4477 17.5523 13 17 13C16.4477 13 16 13.4477 16 14C16 14.5523 16.4477 15 17 15Z" fill="#F4F6F8"/>
</svg>
