<svg width="24" height="24" viewBox="0 0 24 24" fill="none" xmlns="http://www.w3.org/2000/svg">
<g clip-path="url(#clip0_603_344)">
<path fill-rule="evenodd" clip-rule="evenodd" d="M12 8C9.79086 8 8 9.79086 8 12C8 14.2091 9.79086 16 12 16C14.2091 16 16 14.2091 16 12C16 9.79086 14.2091 8 12 8ZM10 12C10 10.8954 10.8954 10 12 10C13.1046 10 14 10.8954 14 12C14 13.1046 13.1046 14 12 14C10.8954 14 10 13.1046 10 12Z" fill="#F4F6F8"/>
<path fill-rule="evenodd" clip-rule="evenodd" d="M10.8828 0C9.87416 0 9.02338 0.751032 8.89824 1.75186L8.66177 3.64306C7.86263 3.96433 7.11382 4.39886 6.43839 4.93328L4.67609 4.18978C3.74678 3.79772 2.67095 4.15899 2.16662 5.03248L1.04936 6.96757C0.545074 7.841 0.770016 8.95325 1.57408 9.56208L3.09352 10.7126C2.96854 11.5663 2.96854 12.4337 3.09352 13.2874L1.57408 14.4379C0.770016 15.0467 0.545073 16.159 1.04936 17.0324L2.16662 18.9675C2.67095 19.841 3.74678 20.2023 4.67609 19.8102L6.43839 19.0667C7.11382 19.6011 7.86263 20.0357 8.66177 20.3569L8.89824 22.2481C9.02338 23.249 9.87416 24 10.8828 24H13.1173C14.1259 24 14.9767 23.249 15.1018 22.2481L15.3383 20.3569C16.1374 20.0357 16.8862 19.6011 17.5617 19.0667L19.324 19.8102C20.2533 20.2023 21.3291 19.841 21.8334 18.9675L22.9507 17.0324C23.455 16.159 23.23 15.0467 22.426 14.4379L20.9058 13.2869C20.9677 12.8616 20.9993 12.4321 21 12.0018V11.9982C20.9993 11.5679 20.9677 11.1384 20.9058 10.7131L22.426 9.56208C23.23 8.95325 23.455 7.841 22.9507 6.96757L21.8334 5.03248C21.3291 4.15899 20.2533 3.79771 19.324 4.18978L17.5617 4.93328C16.8862 4.39886 16.1374 3.96433 15.3383 3.64306L15.1018 1.75186C14.9767 0.751031 14.1259 0 13.1173 0H10.8828ZM2.7814 7.96759L3.89866 6.0325L6.81974 7.26487L7.29286 6.83106C8.03734 6.14842 8.92104 5.6354 9.88299 5.32736L10.4911 5.13264L10.8828 2L13.1173 2L13.509 5.13264L14.1171 5.32736C15.079 5.6354 15.9627 6.14842 16.7072 6.83106L17.1803 7.26487L20.1014 6.0325L21.2187 7.9676L18.6976 9.8765L18.8355 10.5022C18.9438 10.9941 18.999 11.4963 19 12C18.999 12.5037 18.9438 13.0059 18.8355 13.4978L18.6976 14.1235L21.2187 16.0324L20.1014 17.9675L17.1803 16.7351L16.7072 17.1689C15.9627 17.8516 15.079 18.3646 14.1171 18.6726L13.509 18.8674L13.1173 22H10.8828L10.4911 18.8674L9.88299 18.6726C8.92104 18.3646 8.03734 17.8516 7.29286 17.1689L6.81974 16.7351L3.89866 17.9675L2.7814 16.0324L5.30361 14.1226L5.16417 13.4958C4.94499 12.5107 4.94499 11.4893 5.16417 10.5042L5.30361 9.87738L2.7814 7.96759Z" fill="#F4F6F8"/>
</g>
<defs>
<clipPath id="clip0_603_344">
<rect width="24" height="24" fill="white"/>
</clipPath>
</defs>
</svg>
