<svg width="24" height="24" viewBox="0 0 24 24" fill="none" xmlns="http://www.w3.org/2000/svg">
<path d="M2.34222 21.6525L3.70186 16.6941C2.86516 15.2441 2.42304 13.5945 2.42304 11.9116C2.42304 6.63464 6.72064 2.3418 11.9928 2.3418C14.5552 2.3418 16.956 3.34013 18.7625 5.14665C20.569 6.95316 21.5626 9.35867 21.5626 11.9163C21.5626 17.1932 17.265 21.4861 11.9928 21.4861H11.9881C10.386 21.4861 8.81239 21.082 7.41472 20.3214L2.34222 21.6525Z" fill="url(#paint0_linear_603_427)"/>
<path d="M2 22L3.40718 16.8657C2.54195 15.3634 2.08082 13.6568 2.08557 11.9121C2.08557 6.44497 6.5353 2 12.0024 2C14.6551 2 17.1462 3.03161 19.0145 4.90468C20.8876 6.77775 21.9192 9.26884 21.9144 11.9168C21.9144 17.3839 17.4647 21.8289 11.9976 21.8289H11.9929C10.3337 21.8289 8.70311 21.4105 7.25315 20.6213L2 22ZM7.50036 18.8243L7.79986 19.005C9.06442 19.7561 10.5144 20.1507 11.9929 20.1555H11.9976C16.5377 20.1555 20.2363 16.4616 20.2363 11.9168C20.2363 9.71571 19.3806 7.64773 17.826 6.08842C16.2715 4.52912 14.1987 3.6734 11.9976 3.6734C7.45282 3.6734 3.75422 7.36725 3.75422 11.9121C3.75422 13.4666 4.18683 14.9831 5.01402 16.2952L5.20894 16.609L4.38174 19.642L7.50036 18.8243Z" fill="url(#paint1_linear_603_427)"/>
<path fill-rule="evenodd" clip-rule="evenodd" d="M9.52084 7.76139C9.33543 7.34779 9.14052 7.33828 8.96462 7.33353C8.822 7.32878 8.65561 7.32878 8.48922 7.32878C8.32283 7.32878 8.05661 7.39058 7.82842 7.63779C7.60023 7.88499 6.9632 8.48399 6.9632 9.70577C6.9632 10.9228 7.85219 12.1018 7.97579 12.2682C8.0994 12.4346 9.69198 15.016 12.2068 16.0095C14.2986 16.8367 14.7264 16.6704 15.1781 16.6276C15.6345 16.5848 16.6423 16.0286 16.8515 15.4486C17.0559 14.8686 17.0559 14.3742 16.9941 14.2696C16.9323 14.165 16.7659 14.1032 16.5187 13.9796C16.2715 13.856 15.0545 13.257 14.8263 13.1714C14.5981 13.0906 14.4317 13.0478 14.2701 13.295C14.1037 13.5422 13.6283 14.0984 13.4857 14.2648C13.343 14.4312 13.1957 14.4502 12.9485 14.3266C12.7013 14.203 11.9026 13.9416 10.9565 13.0954C10.2197 12.4393 9.72051 11.6264 9.57789 11.3792C9.43527 11.132 9.56362 10.9989 9.68723 10.8752C9.79657 10.7659 9.93443 10.5853 10.058 10.4426C10.1816 10.3 10.2244 10.1954 10.3052 10.029C10.3861 9.86265 10.348 9.72003 10.2862 9.59643C10.2197 9.47758 9.73952 8.25105 9.52084 7.76139Z" fill="white"/>
<defs>
<linearGradient id="paint0_linear_603_427" x1="11.9556" y1="21.6521" x2="11.9556" y2="2.34172" gradientUnits="userSpaceOnUse">
<stop stop-color="#20B038"/>
<stop offset="1" stop-color="#60D66A"/>
</linearGradient>
<linearGradient id="paint1_linear_603_427" x1="11.9557" y1="21.9987" x2="11.9557" y2="1.99584" gradientUnits="userSpaceOnUse">
<stop stop-color="#F9F9F9"/>
<stop offset="1" stop-color="white"/>
</linearGradient>
</defs>
</svg>
