<svg width="24" height="24" viewBox="0 0 24 24" fill="none" xmlns="http://www.w3.org/2000/svg">
<path fill-rule="evenodd" clip-rule="evenodd" d="M14.76 3H9.24C4.2 3 3 4.2 3 9.24V14.76C3 19.8 4.2 21 9.24 21H14.76C19.8 21 21 19.8 21 14.76V9.24C21 4.2 19.8 3 14.76 3ZM17.3438 8.71992C17.7407 8.71992 17.8241 8.92427 17.7407 9.20238C17.5738 9.96714 15.9747 12.2198 15.9747 12.2198C15.8357 12.4422 15.7801 12.5535 15.9747 12.8037C16.0433 12.8997 16.1896 13.043 16.3569 13.207C16.5291 13.3756 16.7235 13.566 16.8786 13.7493C17.4424 14.3836 17.8672 14.9186 17.9856 15.2874C18.0938 15.6574 17.9063 15.8449 17.5313 15.8449H16.2188C15.8672 15.8449 15.6902 15.648 15.3077 15.2225C15.1455 15.0421 14.9465 14.8207 14.6816 14.5558C13.9029 13.8049 13.5692 13.7076 13.3745 13.7076C13.1103 13.7076 13.0313 13.7824 13.0313 14.1574V15.3345C13.0313 15.6574 12.9281 15.8449 12.0938 15.8449C10.7033 15.8449 9.17518 15.0007 8.09061 13.4434C6.46373 11.163 6.01877 9.43875 6.01877 9.09111C6.01877 8.89645 6.09377 8.71992 6.46877 8.71992H7.78127C8.11671 8.71992 8.24289 8.86673 8.36869 9.23018C9.01061 11.1001 10.0929 12.7343 10.5379 12.7343C10.7047 12.7343 10.7813 12.6574 10.7813 12.2337V10.3009C10.7511 9.75068 10.559 9.51275 10.4166 9.33652C10.3287 9.22769 10.2598 9.14239 10.2598 9.02161C10.2598 8.87481 10.3852 8.71992 10.5938 8.71992H12.6563C12.9344 8.71992 13.0312 8.86865 13.0312 9.20238V11.8026C13.0312 12.0807 13.152 12.178 13.2354 12.178C13.4023 12.178 13.5414 12.0807 13.8473 11.7748C14.7928 10.718 15.4603 9.09111 15.4603 9.09111C15.5437 8.89645 15.6975 8.71992 16.0313 8.71992H17.3438Z" fill="white"/>
</svg>
