<svg width="64" height="64" fill="none" xmlns="http://www.w3.org/2000/svg"><path fill="#4038FF" d="M0 0h64v64H0z"/><path d="m36.254 13.02 3.49.007L39.7 29.36a15.6 15.6 0 0 1-3.966 10.362 18.39 18.39 0 0 0 .473-4.105l.047-22.597ZM25.032 41.5a9.344 9.344 0 0 1-7.143 3.454l1.05-3.47 6.093.016ZM27.167 35.249v.347a9.308 9.308 0 0 1-.548 3.126l-6.842-.019 1.046-3.473 6.344.019ZM42.524 13.036H46l-.027 10.09A15.6 15.6 0 0 1 42 33.49a18.39 18.39 0 0 0 .474-4.105l.049-16.348Z" fill="#fff"/><path d="m33.484 13-.06 22.605a15.658 15.658 0 0 1-15.686 15.6H16l1.048-3.473h.698a12.183 12.183 0 0 0 12.213-12.13L30.005 13h3.479Z" fill="#fff"/></svg>
