<svg width="16" height="16" viewBox="0 0 16 16" fill="none" xmlns="http://www.w3.org/2000/svg">
<g clip-path="url(#clip0)">
<mask id="mask0" mask-type="alpha" maskUnits="userSpaceOnUse" x="1" y="1" width="14" height="14">
<circle cx="8" cy="8" r="6" stroke="white" stroke-width="2" stroke-miterlimit="14.3356" stroke-linejoin="bevel" stroke-dasharray="2 4"/>
</mask>
<g mask="url(#mask0)">
<path d="M9 0H16V16H0L4 12L6 10H0V6L8 8L0 4V1H4L9 7L12 3.5L9 0Z" fill="#F4F6F8"/>
</g>
<mask id="mask1" mask-type="alpha" maskUnits="userSpaceOnUse" x="1" y="1" width="14" height="14">
<circle cx="8" cy="8" r="6" stroke="white" stroke-width="2"/>
</mask>
<g mask="url(#mask1)">
<path d="M12 2H16V16H0L4 12L8 8L12 2Z" fill="#F4F6F8"/>
</g>
<path d="M9.77441 5.79248L8.89548 3.01265L8.01654 0.232815L10.883 0.765439L13.7494 1.29806L9.77441 5.79248Z" fill="#F4F6F8"/>
</g>
<defs>
<clipPath id="clip0">
<rect width="16" height="16" fill="white"/>
</clipPath>
</defs>
</svg>
