<svg width="24" height="24" viewBox="0 0 24 24" fill="none" xmlns="http://www.w3.org/2000/svg">
<path fill-rule="evenodd" clip-rule="evenodd" d="M23 3.00001V1.71924L21.7575 2.02987L6.51493 5.84051C5.62459 6.06309 5 6.86306 5 7.78079V13.7192C5 15.0204 6.22278 15.9751 7.48507 15.6595L9.25692 15.2166C9.39335 15.5237 9.57987 15.8037 9.8061 16.0462L7.14251 20.4855L6.62801 21.343L8.343 22.372L8.85749 21.5145L11.5834 16.9713C11.7196 16.9902 11.8586 17 12 17C12.1414 17 12.2804 16.9902 12.4166 16.9713L15.1425 21.5145L15.657 22.372L17.372 21.343L16.8575 20.4855L14.1939 16.0462C14.694 15.5102 15 14.7909 15 14C15 13.9269 14.9974 13.8545 14.9923 13.7827L21.4851 12.1595C22.3754 11.9369 23 11.137 23 10.2192V3.00001ZM14.1686 11.9271L17 11.2192V10.5V5.28079L7 7.78079V13.7192L9.11015 13.1917C9.46303 11.9275 10.6232 11 12 11C12.8528 11 13.6224 11.3558 14.1686 11.9271ZM20.6801 4.48366L21 4.42508V10.2192L19 10.7192V10.5V4.79135L20.6801 4.48366ZM3 8.78078V14.7192L1 15.2192V9.28078L3 8.78078ZM11 14C11 13.4477 11.4477 13 12 13C12.5523 13 13 13.4477 13 14C13 14.5523 12.5523 15 12 15C11.4477 15 11 14.5523 11 14Z" fill="#F4F6F8"/>
</svg>
