<svg width="128" height="128" viewBox="0 0 128 128" fill="none" xmlns="http://www.w3.org/2000/svg">
<style>
		path {
			fill: #4038FF;
		}
		@media ( prefers-color-scheme: dark ) {
			path {
				fill: #fff;
			}
		}
	</style>
<g clip-path="url(#clip0_1334_10184)">
<path d="M10.7706 121.2H0L14.9619 61.2165C17.1827 52.3131 23.0707 45.1013 30.7675 41.0354C24.1023 67.7571 17.4358 94.4784 10.7706 121.2Z"/>
<path d="M29.6168 121.2H18.8495L38.9664 40.5495C40.9606 32.5544 46.6902 26.2823 54.008 23.4135L29.6168 121.2Z"/>
<path d="M48.4657 121.2H37.6951L62.4311 22.0314C64.7812 12.6096 73.2274 6 82.9171 6C92.6068 6 101.053 12.6096 103.403 22.0314L128 121.2H117.369L93.2662 24.5714C92.079 19.8118 87.8121 16.4727 82.9171 16.4727C78.0221 16.4727 73.7553 19.8118 72.568 24.5714L48.4657 121.2Z"/>
<path d="M90.444 121.2H79.6734L68.1083 74.8345L73.4936 53.2445L90.444 121.2Z"/>
<path d="M109.29 121.2H98.5229L77.5331 37.0499L80.1704 26.4766C80.4855 25.2135 81.6178 24.3274 82.9168 24.3274C84.2157 24.3274 85.348 25.2135 85.6631 26.4766L109.29 121.2Z"/>
</g>
<defs>
<clipPath id="clip0_1334_10184">
<rect width="128" height="115.2" fill="white" transform="translate(0 6)"/>
</clipPath>
</defs>
</svg>
