<svg width="512" height="512" viewBox="0 0 512 512" fill="none" xmlns="http://www.w3.org/2000/svg">
<style>
		path {
			fill: #000;
		}
		@media ( prefers-color-scheme: dark ) {
			path {
				fill: #fff;
			}
		}
	</style>
<g clip-path="url(#clip0_1575_26434)">
<path d="M315.077 472.615H315.724C333.953 472.615 351.162 464.2 362.354 449.811L407.868 391.3C424.419 370.023 424.468 340.241 407.988 318.909L359.385 256H512L362.353 62.3391C351.166 47.8617 333.902 39.3846 315.606 39.3846H315.077L253.338 118.763L359.385 256H206.769L255.372 318.909C271.853 340.241 271.804 370.023 255.253 391.3L253.542 393.499L315.077 472.615Z" fill="white"/>
<path d="M315.692 39.3846H166.74C148.509 39.3846 131.3 47.8015 120.107 62.1918L24.1798 185.527C8.50834 205.676 0 230.474 0 256C0 281.526 8.50834 306.324 24.1798 326.473L120.107 449.808C131.3 464.199 148.509 472.615 166.74 472.615H315.717L315.496 472.489C298.715 471.392 283.122 463.179 272.723 449.808L176.795 326.473C161.124 306.324 152.615 281.526 152.615 256C152.615 230.474 161.124 205.676 176.795 185.527L272.723 62.1918C283.058 48.9033 298.525 40.7085 315.188 39.5315C315.366 39.5189 315.692 39.593 315.692 39.3846Z" fill="white"/>
</g>
<defs>
<clipPath id="clip0_1575_26434">
<rect width="512" height="433.231" fill="white" transform="translate(0 39.3846)"/>
</clipPath>
</defs>
</svg>
