<?xml version="1.0" standalone="no"?>
<!DOCTYPE svg PUBLIC "-//W3C//DTD SVG 20010904//EN"
 "http://www.w3.org/TR/2001/REC-SVG-20010904/DTD/svg10.dtd">
<svg version="1.0" xmlns="http://www.w3.org/2000/svg"
 width="700.000000pt" height="700.000000pt" viewBox="0 0 700.000000 700.000000"
 preserveAspectRatio="xMidYMid meet">
<metadata>
Created by potrace 1.14, written by Peter Selinger 2001-2017
</metadata>
<g transform="translate(0.000000,700.000000) scale(0.100000,-0.100000)"
fill="#000000" stroke="none">
<path d="M4315 6650 c-241 -51 -422 -148 -590 -315 -50 -49 -117 -129 -149
-178 -117 -176 -109 -151 -473 -1607 -183 -734 -335 -1348 -338 -1364 -3 -16
-8 -32 -10 -36 -2 -3 -6 -17 -9 -31 -9 -44 -14 -64 -26 -109 -7 -25 -13 -52
-15 -60 -2 -8 -108 -431 -235 -940 -127 -509 -233 -933 -235 -943 -2 -9 -11
-45 -20 -80 -9 -34 -18 -70 -20 -80 -2 -10 -7 -27 -10 -37 -3 -10 -7 -27 -9
-37 -2 -11 -27 -113 -56 -229 -29 -115 -53 -213 -53 -219 -1 -6 103 -10 291
-11 l292 0 10 35 c9 36 228 910 236 943 2 10 6 27 9 39 2 11 7 29 10 39 3 10
7 27 10 37 2 10 15 65 30 123 14 58 28 112 30 120 2 8 22 89 45 180 23 91 43
174 46 185 2 11 79 317 169 680 91 363 168 667 169 675 11 48 277 1115 381
1530 31 124 58 232 60 240 2 8 27 107 55 220 28 113 56 223 61 245 20 82 80
187 143 251 114 117 241 173 404 179 165 6 306 -49 422 -165 83 -82 143 -187
165 -290 2 -8 8 -35 14 -60 7 -25 14 -56 17 -69 3 -14 7 -28 9 -31 2 -4 7 -20
9 -36 3 -16 247 -994 542 -2174 294 -1180 537 -2152 539 -2160 2 -8 11 -44 20
-80 9 -36 18 -72 20 -80 2 -8 11 -44 20 -80 9 -36 18 -73 20 -82 6 -31 77
-312 91 -364 l14 -50 288 0 c281 1 287 1 284 21 -2 11 -42 175 -89 365 -47
190 -87 352 -89 360 -2 8 -11 44 -19 80 -9 36 -18 72 -20 80 -2 8 -25 98 -50
200 -26 102 -49 196 -52 210 -3 14 -18 75 -34 135 -15 61 -30 121 -33 135 -3
14 -26 108 -51 210 -72 286 -286 1143 -290 1160 -2 8 -17 74 -35 145 -17 72
-33 137 -35 145 -2 8 -11 44 -20 80 -9 36 -18 72 -20 80 -2 8 -17 71 -35 140
-18 69 -33 132 -35 140 -2 8 -47 191 -100 405 -53 215 -98 397 -100 405 -2 8
-11 40 -19 72 -8 31 -17 67 -20 80 -2 12 -43 178 -91 368 -47 190 -88 353 -90
362 -101 462 -472 823 -927 902 -123 21 -314 19 -423 -4z"/>
<path d="M2849 5671 c-135 -67 -238 -141 -350 -251 -144 -142 -244 -293 -316
-476 -23 -56 -788 -3084 -838 -3314 -2 -8 -69 -278 -150 -600 -81 -322 -151
-601 -155 -621 l-7 -35 290 0 c247 1 291 3 298 16 5 8 79 299 164 645 85 347
159 644 164 660 5 17 86 341 180 720 94 380 182 733 196 785 34 128 255 1018
261 1050 3 14 12 48 20 75 12 42 279 1118 289 1165 2 8 15 61 30 118 15 57 25
105 23 107 -2 2 -46 -18 -99 -44z"/>
<path d="M4480 5659 c-47 -19 -80 -61 -99 -129 -18 -62 -129 -503 -137 -545
-2 -10 1 -37 7 -60 6 -22 13 -47 14 -55 4 -15 560 -2245 572 -2290 3 -14 7
-29 9 -35 1 -5 16 -66 34 -135 17 -69 33 -132 35 -140 2 -8 11 -44 20 -80 9
-36 19 -73 21 -83 2 -10 6 -27 9 -37 3 -10 7 -27 9 -37 2 -10 45 -182 96 -383
50 -201 93 -372 95 -380 2 -8 11 -44 20 -80 8 -36 18 -73 20 -83 2 -9 29 -119
61 -244 31 -125 57 -232 58 -237 2 -12 30 -121 52 -202 l14 -50 290 0 c230 0
290 2 290 13 0 7 -63 266 -141 575 -77 310 -142 570 -144 578 -2 8 -24 98 -49
200 -26 102 -48 192 -51 201 -2 9 -78 316 -170 683 -92 367 -168 675 -170 684
-2 10 -22 91 -45 182 -23 91 -43 172 -45 180 -2 8 -16 62 -30 120 -15 58 -28
113 -30 123 -3 10 -7 27 -10 37 -3 10 -8 27 -10 37 -2 10 -92 373 -201 807
-213 850 -206 831 -281 862 -37 16 -77 17 -113 3z"/>
<path d="M1596 4706 c-373 -231 -654 -598 -761 -995 -19 -69 -320 -1269 -330
-1316 -3 -11 -28 -110 -56 -220 -27 -110 -52 -208 -54 -219 -2 -10 -90 -361
-194 -780 -104 -418 -191 -770 -193 -781 -3 -20 3 -20 285 -21 191 0 290 3
296 10 4 6 92 351 195 766 166 668 271 1088 421 1690 24 96 58 234 75 305 17
72 35 144 41 160 5 17 61 242 125 500 63 259 119 484 125 500 10 35 56 220 63
258 2 14 14 60 25 102 12 41 21 77 21 80 0 10 -17 2 -84 -39z"/>
<path d="M4009 4058 c-1 -21 -2 -27 -147 -600 l-137 -548 62 -247 c34 -137 65
-260 67 -274 3 -14 28 -115 56 -223 27 -109 52 -208 54 -220 3 -11 23 -95 46
-186 23 -91 43 -172 45 -180 2 -8 14 -53 25 -100 12 -47 23 -92 25 -100 2 -8
11 -43 20 -77 9 -35 18 -73 21 -85 9 -43 14 -63 112 -453 l98 -390 292 -1
c231 0 292 2 292 12 0 7 -12 60 -26 116 -14 57 -28 110 -29 118 -2 8 -20 80
-40 160 -20 80 -38 152 -40 160 -2 8 -13 53 -25 100 -22 84 -26 100 -35 141
-2 11 -7 29 -10 39 -3 10 -8 27 -10 37 -2 10 -65 263 -140 563 -75 300 -138
552 -140 560 -2 8 -20 80 -40 160 -20 80 -38 152 -40 160 -2 8 -11 44 -20 80
-9 36 -18 70 -19 75 -1 6 -69 281 -151 612 -132 531 -163 640 -166 591z"/>
</g>
</svg>
