<svg width="24" height="24" viewBox="0 0 24 24" fill="none" xmlns="http://www.w3.org/2000/svg">
<path d="M12 22C17.5228 22 22 17.5228 22 12C22 6.47715 17.5228 2 12 2C6.47715 2 2 6.47715 2 12C2 17.5228 6.47715 22 12 22Z" fill="#FF4500"/>
<path d="M18.6667 11.9986C18.6667 11.1916 18.0117 10.5366 17.2047 10.5366C16.807 10.5366 16.4562 10.6887 16.1989 10.946C15.2047 10.2325 13.8246 9.76469 12.3041 9.70621L12.9708 6.5834L15.1345 7.03954C15.1579 7.58925 15.6141 8.03369 16.1755 8.03369C16.7486 8.03369 17.2164 7.56586 17.2164 6.99276C17.2164 6.41966 16.7486 5.95182 16.1755 5.95182C15.7661 5.95182 15.4152 6.18574 15.2515 6.53662L12.8304 6.022C12.7603 6.0103 12.6901 6.022 12.6316 6.05708C12.5731 6.09217 12.538 6.15065 12.5146 6.22083L11.7778 9.70621C10.2222 9.75299 8.83043 10.2091 7.82459 10.946C7.56728 10.7004 7.2047 10.5366 6.81874 10.5366C6.01172 10.5366 5.35675 11.1916 5.35675 11.9986C5.35675 12.5951 5.70763 13.098 6.22225 13.3319C6.19886 13.4723 6.18716 13.6243 6.18716 13.7764C6.18716 16.022 8.79535 17.8349 12.0234 17.8349C15.2515 17.8349 17.8597 16.022 17.8597 13.7764C17.8597 13.6243 17.848 13.484 17.8246 13.3436C18.3041 13.1097 18.6667 12.5951 18.6667 11.9986ZM8.66669 13.0395C8.66669 12.4664 9.13453 11.9986 9.70763 11.9986C10.2807 11.9986 10.7486 12.4664 10.7486 13.0395C10.7486 13.6126 10.2807 14.0805 9.70763 14.0805C9.13453 14.0805 8.66669 13.6126 8.66669 13.0395ZM14.4796 15.7881C13.7661 16.5015 12.4094 16.5483 12.0117 16.5483C11.6141 16.5483 10.2456 16.4898 9.54388 15.7881C9.43862 15.6828 9.43862 15.5074 9.54388 15.4021C9.64915 15.2969 9.82459 15.2969 9.92985 15.4021C10.3743 15.8466 11.3334 16.0103 12.0234 16.0103C12.7135 16.0103 13.6608 15.8466 14.117 15.4021C14.2222 15.2969 14.3977 15.2969 14.5029 15.4021C14.5848 15.5191 14.5848 15.6828 14.4796 15.7881ZM14.2924 14.0805C13.7193 14.0805 13.2515 13.6126 13.2515 13.0395C13.2515 12.4664 13.7193 11.9986 14.2924 11.9986C14.8655 11.9986 15.3334 12.4664 15.3334 13.0395C15.3334 13.6126 14.8655 14.0805 14.2924 14.0805Z" fill="white"/>
</svg>
