<svg width="24" height="21" viewBox="0 0 24 21" fill="none" xmlns="http://www.w3.org/2000/svg">
<path d="M3 3.95605C3 5.61291 4.34315 6.95605 6 6.95605C6 4.99311 6.94264 3.25032 8.39993 2.15567C7.85259 1.42722 6.98132 0.956055 6 0.956055C4.34315 0.956055 3 2.2992 3 3.95605Z" fill="#81858D"/>
<path d="M6 8.45605C6.0635 8.45605 6.12677 8.45704 6.18979 8.459C6.33738 9.0312 6.56725 9.57033 6.86606 10.063C4.52941 11.6887 3 14.3938 3 17.4561H1.5C0.671573 17.4561 0 16.7845 0 15.9561V14.4561C0 11.1423 2.68629 8.45605 6 8.45605Z" fill="#81858D"/>
<path d="M6 17.4561C6 15.197 7.24843 13.2296 9.093 12.2061C9.95418 12.6839 10.9453 12.9561 12 12.9561C13.0547 12.9561 14.0458 12.6839 14.907 12.2061C16.7516 13.2296 18 15.197 18 17.4561V18.9561C18 19.7845 17.3284 20.4561 16.5 20.4561H7.5C6.67157 20.4561 6 19.7845 6 18.9561V17.4561Z" fill="#81858D"/>
<path d="M21 17.4561C21 14.3938 19.4706 11.6887 17.1339 10.063C17.4327 9.57033 17.6626 9.0312 17.8102 8.459C17.8732 8.45704 17.9365 8.45605 18 8.45605C21.3137 8.45605 24 11.1423 24 14.4561V15.9561C24 16.7845 23.3284 17.4561 22.5 17.4561H21Z" fill="#81858D"/>
<path d="M21 3.95605C21 5.61291 19.6569 6.95605 18 6.95605C18 4.99311 17.0574 3.25032 15.6001 2.15567C16.1474 1.42722 17.0187 0.956055 18 0.956055C19.6569 0.956055 21 2.2992 21 3.95605Z" fill="#81858D"/>
<path d="M12 9.95605C13.6569 9.95605 15 8.61291 15 6.95605C15 5.2992 13.6569 3.95605 12 3.95605C10.3431 3.95605 9 5.2992 9 6.95605C9 8.61291 10.3431 9.95605 12 9.95605Z" fill="#81858D"/>
</svg>