<svg width="24" height="25" viewBox="0 0 24 25" fill="none" xmlns="http://www.w3.org/2000/svg">
<path fill-rule="evenodd" clip-rule="evenodd" d="M3 5.45605C3 4.62763 3.67157 3.95605 4.5 3.95605H19.5C20.3284 3.95605 21 4.62763 21 5.45605V6.95605H18V9.95605H21V15.9561H18V18.9561H21V20.4561C21 21.2845 20.3284 21.9561 19.5 21.9561H4.5C3.67157 21.9561 3 21.2845 3 20.4561V5.45605ZM6 6.95605H9V9.95605H6V6.95605ZM9 15.9561H6V18.9561H9V15.9561ZM12 6.95605H15V9.95605H12V6.95605ZM15 15.9561H12V18.9561H15V15.9561Z" fill="#81858D"/>
</svg>