<svg width="24" height="25" viewBox="0 0 24 25" fill="none" xmlns="http://www.w3.org/2000/svg">
<path fill-rule="evenodd" clip-rule="evenodd" d="M12 22.7061C17.3848 22.7061 21.75 18.3408 21.75 12.9561C21.75 7.57128 17.3848 3.20605 12 3.20605C6.61522 3.20605 2.25 7.57128 2.25 12.9561C2.25 18.3408 6.61522 22.7061 12 22.7061ZM14.9514 11.2051H17.625C17.5395 10.5283 17.3442 9.92754 17.039 9.40282C16.7379 8.87811 16.3472 8.43514 15.867 8.07393C15.3868 7.70891 14.8354 7.43134 14.2128 7.24123C13.5942 7.05111 12.9227 6.95605 12.1984 6.95605C11.0996 6.95605 10.1108 7.1918 9.23176 7.66328C8.35275 8.13096 7.65688 8.81157 7.14413 9.7051C6.63138 10.5986 6.375 11.6823 6.375 12.9561C6.375 14.226 6.62731 15.3078 7.13192 16.2013C7.6406 17.0948 8.33241 17.7773 9.20734 18.2488C10.0863 18.7203 11.0834 18.9561 12.1984 18.9561C13.0001 18.9561 13.7183 18.8439 14.3532 18.6196C14.9921 18.3914 15.5414 18.0834 16.0013 17.6956C16.4652 17.304 16.8335 16.861 17.1061 16.3667C17.3829 15.8686 17.5558 15.3515 17.625 14.8154L14.9514 14.804C14.8903 15.1158 14.7805 15.3933 14.6217 15.6367C14.4671 15.88 14.2718 16.0872 14.0357 16.2583C13.7997 16.4256 13.5291 16.553 13.2239 16.6405C12.9227 16.7279 12.5952 16.7716 12.2411 16.7716C11.6103 16.7716 11.0549 16.6272 10.5747 16.3382C10.0945 16.0492 9.72009 15.6215 9.45151 15.0549C9.18699 14.4884 9.05473 13.7888 9.05473 12.9561C9.05473 12.1462 9.18699 11.458 9.45151 10.8914C9.71602 10.3211 10.0884 9.88761 10.5686 9.59104C11.0488 9.29066 11.6124 9.14047 12.2594 9.14047C12.6175 9.14047 12.9492 9.18799 13.2544 9.28305C13.5637 9.37811 13.8363 9.51499 14.0724 9.6937C14.3084 9.87241 14.5017 10.0891 14.6523 10.3439C14.8028 10.5948 14.9025 10.8819 14.9514 11.2051Z" fill="#81858D"/>
</svg>