<svg width="16" height="22" viewBox="0 0 16 22" fill="none" xmlns="http://www.w3.org/2000/svg">
<path fill-rule="evenodd" clip-rule="evenodd" d="M8.20612 4.95868C7.31162 4.9359 6.43743 5.06205 5.67842 5.31114C4.91383 5.56207 4.34419 5.91137 3.98168 6.27032C3.62529 6.6232 3.51538 6.93324 3.50169 7.15356C3.48846 7.36647 3.55476 7.65092 3.83946 7.98823C3.90933 8.07102 4.1472 8.27667 4.61717 8.52864C5.05135 8.76142 5.59768 8.98771 6.19889 9.16371L10.536 10.1802L10.5478 10.1832C10.888 10.2688 11.6 10.4676 12.3072 10.7286C12.6599 10.8589 13.0414 11.0155 13.386 11.1938C13.6889 11.3505 14.1306 11.6067 14.4532 11.9889C15.1525 12.8175 15.5613 13.8404 15.4927 14.9446C15.4245 16.0414 14.8986 17.0118 14.1293 17.7736C13.366 18.5293 12.3598 19.0895 11.2571 19.4514C10.1489 19.8151 8.9304 19.9833 7.71763 19.9525C6.50535 19.9216 5.30554 19.6919 4.23533 19.2679C3.17121 18.8463 2.21683 18.2244 1.53188 17.4053C1.2466 17.0642 0.952371 16.6664 0.756078 16.1481C0.558565 15.6267 0.502183 15.0972 0.505537 14.5373L3.50548 14.5553C3.50339 14.9052 3.5413 15.032 3.56156 15.0855C3.58304 15.1422 3.63006 15.2379 3.83324 15.4808C4.12521 15.83 4.6231 16.1947 5.34029 16.4788C6.05138 16.7605 6.899 16.9306 7.794 16.9534C8.6885 16.9762 9.56269 16.8501 10.3217 16.601C11.0863 16.35 11.6559 16.0007 12.0184 15.6418C12.3748 15.2889 12.4847 14.9789 12.4984 14.7586C12.5111 14.555 12.4511 14.2862 12.1971 13.9682C12.1754 13.9536 12.1179 13.9155 12.0071 13.8581C11.8145 13.7584 11.5593 13.6505 11.2683 13.543C10.6959 13.3317 10.1 13.1645 9.82719 13.0954L5.43898 12.0669L5.4025 12.0564C4.59935 11.8247 3.842 11.517 3.19963 11.1726C2.58461 10.8429 1.96904 10.4234 1.5469 9.92322C0.847575 9.09466 0.438855 8.07174 0.507468 6.96751C0.57562 5.87068 1.10152 4.90032 1.87086 4.13854C2.63408 3.38283 3.64031 2.82259 4.74297 2.46072C5.85123 2.09701 7.06972 1.92877 8.28249 1.95965C9.49477 1.99052 10.6946 2.22022 11.7648 2.6442C12.8289 3.06577 13.7833 3.68771 14.4682 4.50677C14.7535 4.84791 15.0477 5.24575 15.244 5.76397C15.4416 6.28542 15.4979 6.81495 15.4946 7.37483L12.4946 7.35685C12.4967 7.00695 12.4588 6.88012 12.4386 6.82663C12.4171 6.76992 12.3701 6.67424 12.1669 6.43129C11.8749 6.08215 11.377 5.71743 10.6598 5.4333C9.94874 5.15159 9.10112 4.98147 8.20612 4.95868Z" fill="#81858D"/>
<path d="M6.50006 0.456055H9.50006V21.4561H6.50006V0.456055Z" fill="#81858D"/>
</svg>