<svg width="22" height="22" viewBox="0 0 22 22" fill="none" xmlns="http://www.w3.org/2000/svg">
<path d="M18.2905 8.00148C18.1346 7.54961 18.0942 7.01771 18.316 6.59429L19.4 4.5248L17.5625 2.6873L15.4957 3.76991C15.0706 3.99257 14.5569 3.95705 14.1006 3.80847C14.0864 3.80383 14.0721 3.79925 14.0578 3.79472C13.6299 3.65937 13.2766 3.34825 13.1347 2.92254L12.3125 0.456055H9.6875L8.84878 2.86738C8.71555 3.25041 8.42881 3.53335 8.04543 3.66557C7.59356 3.82141 7.06165 3.86186 6.63823 3.64007L4.56875 2.55605L2.6 4.5248L3.68401 6.59428C3.90581 7.01771 3.86536 7.54961 3.70951 8.00148C3.57729 8.38486 3.29436 8.6716 2.91133 8.80483L0.5 9.64355V12.2686L2.84869 13.0855C3.26681 13.2309 3.58386 13.5786 3.7578 13.9857C3.80079 14.0863 3.84429 14.1864 3.88553 14.2888C4.00579 14.5873 3.96124 14.9198 3.81191 15.2049L2.6 17.5186L4.4375 19.3561L6.50429 18.2734C6.92937 18.0508 7.44312 18.0863 7.8994 18.2349C7.91712 18.2407 7.93492 18.2464 7.95279 18.252C8.37514 18.3847 8.72513 18.6892 8.87057 19.1074L9.6875 21.4561H12.3125L13.1294 19.1074C13.2749 18.6892 13.6225 18.3722 14.0296 18.1983C14.1302 18.1553 14.2303 18.1118 14.3327 18.0705C14.6312 17.9503 14.9638 17.9948 15.2489 18.1441L17.5625 19.3561L19.4 17.5186L18.3174 15.4518C18.0947 15.0267 18.1303 14.5129 18.2788 14.0567C18.2846 14.0389 18.2903 14.0211 18.2959 14.0033C18.4286 13.5809 18.7332 13.2309 19.1513 13.0855L21.5 12.2686V9.64355L19.0887 8.80483C18.7056 8.6716 18.4227 8.38486 18.2905 8.00148ZM11 14.8936C8.76875 14.8936 7.0625 13.1873 7.0625 10.9561C7.0625 8.7248 8.76875 7.01855 11 7.01855C13.2312 7.01855 14.9375 8.7248 14.9375 10.9561C14.9375 13.1873 13.2312 14.8936 11 14.8936Z" fill="#81858D"/>
</svg>