<?xml version="1.0" encoding="UTF-8"?><svg id="_023_Q4" xmlns="http://www.w3.org/2000/svg" viewBox="0 0 24 22"><defs><style>.cls-1{fill:none;stroke:#81858d;stroke-linecap:round;stroke-miterlimit:10;stroke-width:.5px;}.cls-2{fill:#81858d;}</style></defs><g id="icon_4_js_discord_tip_bot"><g id="bot"><g><rect class="cls-2" x="22.44" y="8.56" width="1.11" height="6.63" rx=".55" ry=".55"/><rect class="cls-2" x=".44" y="8.56" width="1.11" height="6.63" rx=".55" ry=".55" transform="translate(2 23.74) rotate(-180)"/><g><path class="cls-2" d="M15.71,7.15c-.89,0-1.61,.72-1.61,1.59s.72,1.59,1.61,1.59,1.6-.72,1.6-1.59-.72-1.59-1.6-1.59Z"/><path class="cls-2" d="M16.82,6.35H7.18c-1.33,0-2.41,1.07-2.41,2.39s1.08,2.39,2.41,2.39h9.64c1.33,0,2.41-1.07,2.41-2.39s-1.08-2.39-2.41-2.39Zm-8.53,4.48c-1.16,0-2.1-.94-2.1-2.09s.94-2.09,2.1-2.09,2.11,.94,2.11,2.09-.94,2.09-2.11,2.09Zm7.42,0c-1.16,0-2.11-.94-2.11-2.09s.94-2.09,2.11-2.09,2.1,.94,2.1,2.09-.94,2.09-2.1,2.09Z"/><path class="cls-2" d="M8.29,7.15c-.88,0-1.6,.72-1.6,1.59s.72,1.59,1.6,1.59,1.61-.72,1.61-1.59-.72-1.59-1.61-1.59Z"/><path class="cls-2" d="M16.83,2.48H7.17c-2.75,0-5,2.23-5,4.96v9.59c0,2.73,2.25,4.96,5,4.96h9.66c2.75,0,5-2.23,5-4.96V7.44c0-2.73-2.25-4.96-5-4.96Zm-1.12,14.68h-7.05v-.99h7.05v.99Zm1.11-5.28H7.18c-1.74,0-3.16-1.41-3.16-3.13s1.42-3.14,3.16-3.14h9.64c1.74,0,3.16,1.41,3.16,3.14s-1.42,3.13-3.16,3.13Z"/></g><line class="cls-1" x1="23" y1="8.78" x2="23" y2="1.78"/><line class="cls-1" x1="1" y1="8.78" x2="1" y2="1.78"/><path class="cls-2" d="M1,.5h0c.09,0,.17,.02,.25,.07,.12,.07,.2,.17,.23,.3,.03,.13,.02,.26-.05,.37-.09,.15-.26,.25-.43,.25-.09,0-.17-.02-.25-.07-.12-.07-.2-.17-.23-.3-.03-.13-.02-.26,.05-.37,.09-.15,.26-.25,.43-.25M1,0C.66,0,.32,.18,.13,.5-.14,.97,.02,1.58,.5,1.85c.16,.09,.33,.13,.5,.13,.35,0,.68-.18,.87-.5,.28-.47,.11-1.08-.37-1.36C1.34,.04,1.17,0,1,0h0Z"/><path class="cls-2" d="M23,.5h0c.09,0,.17,.02,.25,.07,.12,.07,.2,.17,.23,.3,.03,.13,.02,.26-.05,.37-.09,.15-.26,.25-.43,.25-.09,0-.17-.02-.25-.07-.12-.07-.2-.17-.23-.3-.03-.13-.02-.26,.05-.37,.09-.15,.26-.25,.43-.25M23,0c-.35,0-.68,.18-.87,.5-.28,.47-.11,1.08,.37,1.36,.16,.09,.33,.13,.5,.13,.35,0,.68-.18,.87-.5,.28-.47,.11-1.08-.37-1.36C23.34,.04,23.17,0,23,0h0Z"/></g></g></g></svg>