<?xml version="1.0" encoding="UTF-8"?><svg id="_023_Q4" xmlns="http://www.w3.org/2000/svg" viewBox="0 0 23 23"><defs><style>.cls-1{fill:#81858d;}</style></defs><g id="icon_7_creator_ambassador_program"><g id="_лой_22"><g><g><path class="cls-1" d="M17.17,3.62c-.57,0-1.14,.22-1.57,.65-.42,.42-.65,.98-.65,1.57s.23,1.15,.65,1.57c.86,.86,2.27,.86,3.14,0,.42-.42,.65-.98,.65-1.57s-.23-1.15-.65-1.57c-.43-.43-1-.65-1.57-.65Z"/><path class="cls-1" d="M22.32,.68c-.93-.93-5.23-1.82-11.09,4.04-5.15,5.15-7.08,12.09-7.08,12.09l1.02,1.02,1.02,1.02s6.94-1.93,12.09-7.08C24.15,5.9,23.25,1.6,22.32,.68Zm-2.88,7.43c-.63,.63-1.45,.94-2.28,.94s-1.65-.31-2.27-.94-.94-1.42-.94-2.27,.33-1.67,.94-2.27c1.25-1.25,3.3-1.25,4.55,0,.61,.61,.94,1.42,.94,2.27s-.33,1.67-.94,2.27Z"/></g><g><path class="cls-1" d="M7.66,9.17s-1.61-.59-2.92-.77c0,0-2.69,3.2-4.74,9.53l.61,.61s1.96-3.74,3.96-6.2l1.19,.28"/><path class="cls-1" d="M13.83,15.34s.59,1.61,.77,2.92c0,0-3.2,2.69-9.53,4.74l-.61-.61s3.74-1.96,6.2-3.96l-.28-1.19"/></g><path class="cls-1" d="M2.77,18.31s-1.1,1.19-1.05,2.84c1.65,.05,2.84-1.05,2.84-1.05l-1.78-1.78Z"/></g></g></g></svg>