<?xml version="1.0" encoding="UTF-8"?><svg id="_023_Q4" xmlns="http://www.w3.org/2000/svg" viewBox="0 0 23 20"><defs><style>.cls-1{fill:#81858d;}</style></defs><g id="icon_6_bounties_program"><g id="_лой_19"><g><path class="cls-1" d="M13.98,15.92v.22c0,1.48,1.23,2.69,2.74,2.69h.5c.33,0,.6,.26,.6,.58h0c0,.32-.27,.58-.6,.58H5.77c-.33,0-.6-.26-.6-.58h0c0-.32,.27-.58,.6-.58h.5c1.51,0,2.74-1.2,2.74-2.69v-.22h4.97Z"/><g><path class="cls-1" d="M20.69,2.57H2.2c-.24,0-.43,.19-.43,.42V13.11c0,.23,.19,.42,.43,.42H20.69c.24,0,.43-.19,.43-.42V2.99c0-.23-.19-.42-.43-.42Z"/><path class="cls-1" d="M21,0H2C.9,0,0,.88,0,1.96V13.48c0,1.08,.9,1.96,2,1.96H21c1.1,0,2-.88,2-1.96V1.96c0-1.08-.9-1.96-2-1.96ZM11.25,.95h.5v.49h-.5v-.49Zm10.36,12.15c0,.5-.42,.91-.93,.91H2.2c-.51,0-.93-.41-.93-.91V2.99c0-.5,.42-.91,.93-.91H20.69c.51,0,.93,.41,.93,.91V13.11Z"/></g></g></g></g></svg>