<?xml version="1.0" encoding="UTF-8"?><svg id="_024_Q4" xmlns="http://www.w3.org/2000/svg" viewBox="0 0 23 24"><defs><style>.cls-1{fill:#81858d;}</style></defs><g id="icon_31_Joystream_SDK"><path class="cls-1" d="M22.94,13.45l-2.55-4.54c-.31-2.14-.94-3.39-.94-3.39C17.17,.1,11.91-.27,8.56,.11c-2.11,.24-4.15,1.04-5.68,2.51C-1.15,6.5,.03,11.89,.67,13.91c.16,.49,.42,.94,.72,1.36,2.77,3.85,2.11,8.73,2.11,8.73H14.78v-2.04c4.96,.6,5.59-2.6,5.66-3.16,0-.05,0-.1,0-.15v-3.27c3.17-1.1,2.49-1.93,2.49-1.93ZM6.29,7.44l-2.65,1.89,2.65,1.89v1.28l-3.62-2.6v-1.14l3.62-2.6v1.27Zm3.12,5.06h-.91l2.17-8.45h.91l-2.18,8.45Zm8.03-2.6l-3.62,2.6v-1.28l2.66-1.89-2.66-1.89v-1.27l3.62,2.6v1.14Z"/></g></svg>