<?xml version="1.0" encoding="UTF-8"?><svg id="_024_Q2" xmlns="http://www.w3.org/2000/svg" viewBox="0 0 22 17"><defs><style>.cls-1{fill:#81858d;}</style></defs><g id="icon_25_Pioneer_Working_Group_Management_Module"><g id="_лой_79"><g><g><rect class="cls-1" x="9.53" y="6.01" width="3.04" height=".78"/><polygon class="cls-1" points="11.64 7.94 11.12 7.38 12.05 6.4 11.12 5.42 11.64 4.87 13.1 6.4 11.64 7.94"/></g><g><rect class="cls-1" x="9.43" y="9.36" width="3.04" height=".78"/><polygon class="cls-1" points="10.36 11.29 8.9 9.75 10.36 8.22 10.88 8.77 9.95 9.75 10.88 10.73 10.36 11.29"/></g><g><path class="cls-1" d="M5.06,10.55h0c2.79,0,5.06,2.27,5.06,5.06v1.38H0v-1.38C0,12.82,2.27,10.55,5.06,10.55Z"/><path class="cls-1" d="M3.56,7.51c-.96-1.15-1.5-2.64-1.5-4.18v-.17C2.07,1.42,3.41,0,5.06,0h0c1.66,0,3,1.42,3,3.16v.17c0,1.54-.53,3.02-1.5,4.18h0c-.82,.91-2.19,.91-3,0h0Z"/></g><g><path class="cls-1" d="M16.94,10.55h0c2.79,0,5.06,2.27,5.06,5.06v1.38H11.87v-1.38c0-2.79,2.27-5.06,5.06-5.06Z"/><path class="cls-1" d="M15.43,7.51c-.96-1.15-1.5-2.64-1.5-4.18v-.17c0-1.75,1.34-3.16,3-3.16h0c1.66,0,3,1.42,3,3.16v.17c0,1.54-.53,3.02-1.5,4.18h0c-.82,.91-2.19,.91-3,0h0Z"/></g></g></g></g></svg>