<?xml version="1.0" encoding="UTF-8"?><svg id="_024_Q1" xmlns="http://www.w3.org/2000/svg" viewBox="0 0 23 20"><defs><style>.cls-1{fill:#81858d;}</style></defs><g id="icon_16_wallet_implementations"><g id="_лой_51"><g><path class="cls-1" d="M1.74,3.74c-.96,0-1.74,.77-1.74,1.72v12.81c0,.95,.78,1.72,1.74,1.72H20.58c.96,0,1.74-.77,1.74-1.72v-3.95h-2.33c-.66,0-1.28-.25-1.74-.71-.46-.47-.72-1.09-.72-1.74,0-1.35,1.1-2.45,2.45-2.45h2.33v-3.22H3.1v-.49h3.86l2.99-1.97H1.74Z"/><polygon class="cls-1" points="8.09 5.71 20.08 5.71 16.82 0 8.09 5.71"/><path class="cls-1" d="M20.03,12.14c.15,0,.27-.12,.27-.27s-.12-.27-.27-.27-.28,.12-.28,.27,.12,.27,.28,.27Z"/><path class="cls-1" d="M18.15,11.87c0,.49,.19,.95,.54,1.3,.34,.34,.8,.53,1.29,.53h3.02v-3.65h-3.02c-1.01,0-1.83,.82-1.83,1.83Zm2.7,0c0,.45-.37,.81-.82,.81s-.83-.36-.83-.81,.36-.81,.83-.81,.82,.37,.82,.81Z"/><path class="cls-1" d="M20.58,3.74h-.9l1.12,1.97h1.52v-.25c0-.95-.78-1.72-1.74-1.72Z"/></g></g></g></svg>