<?xml version="1.0" encoding="UTF-8"?><svg id="_023_Q4" xmlns="http://www.w3.org/2000/svg" viewBox="0 0 24 24"><defs><style>.cls-1{fill:#81858d;}</style></defs><g id="icon_10_content_delivery_improvements"><g id="_лой_31"><g><path class="cls-1" d="M13.51,15.6l7.87,7.94c.6,.61,1.57,.61,2.17,0s.6-1.59,0-2.2l-7.88-7.95"/><path class="cls-1" d="M12.81,10.75l-3.78-3.82c.31-.64,.49-1.36,.49-2.12C9.53,2.15,7.39,0,4.76,0V2.62c1.2,0,2.17,.98,2.17,2.19s-.97,2.19-2.17,2.19c-1.2,0-2.17-.98-2.17-2.19H0c0,2.66,2.13,4.81,4.76,4.81,.75,0,1.46-.18,2.1-.5l3.78,3.82"/><path class="cls-1" d="M23.61,3.66l-1.11-1.12-4.23,2.03,.34,1.48-7.45,7.52-.77,.12-6.93,7c-.6,.61-.6,1.59,0,2.2s1.57,.61,2.17,0l6.93-7,.12-.78,7.45-7.52,1.47,.35,2.01-4.27Z"/></g></g></g></svg>