<?xml version="1.0" encoding="UTF-8"?><svg id="_024_Q4" xmlns="http://www.w3.org/2000/svg" viewBox="0 0 24 24"><defs><style>.cls-1{fill:#81858d;}</style></defs><g id="icon_35_Metamask_Snap_Development"><path class="cls-1" d="M24,5.9l-1.28-5.9L14.41,3.55h-4.86L1.15,0,0,6.08l1.64,5.92-1.64,4.86,2.39,5.99,4.73-1.24,2.48,2.4h4.86l2.25-2.4,4.91,1.15,2.39-5.94-1.64-4.82,1.64-6.1ZM2.96,3.55l6.54,4.84-2.25,2.4-3.05,1.22-1.81-6.1,.57-2.35Zm4.24,15.7l-3.62,.75-1.19-3.24H7.2v2.48Zm2.3-7.25l1.19,2.42-3.49-1.21,2.3-1.21Zm0,7.25l1.19-2.48h2.48l1.19,2.48h-4.86Zm3.67-4.84l1.19-2.42,2.48,1.21-3.67,1.21Zm7.2,5.59l-3.54-.75v-2.48h4.77l-1.24,3.24Zm-.57-8.01l-3.05-1.22-2.39-2.4,6.59-4.84,.66,2.42-1.81,6.03Z"/></g></svg>