<?xml version="1.0" encoding="UTF-8"?><svg id="_024_Q1" xmlns="http://www.w3.org/2000/svg" viewBox="0 0 23 16"><defs><style>.cls-1{fill:#81858d;}</style></defs><g id="icon_12_js_project_overview_dashboard"><g id="_лой_39"><g><g><ellipse class="cls-1" cx="11.5" cy="9.27" rx="1.87" ry="1.89"/><path class="cls-1" d="M0,2.66V13.97c0,1.12,.9,2.03,2,2.03H21c1.1,0,2-.91,2-2.03V2.66H0Zm16.75,7.61l-1.1,.14c-.1,.37-.24,.72-.42,1.04l.68,.88-1.4,1.42-.87-.69c-.32,.19-.66,.33-1.02,.43l-.13,1.11h-1.98l-.13-1.11c-.36-.1-.7-.24-1.02-.43l-.87,.69-1.4-1.42,.68-.88c-.18-.32-.32-.67-.42-1.04l-1.1-.14v-2.01l1.1-.14c.1-.37,.24-.71,.42-1.04l-.68-.88,1.4-1.42,.87,.69c.32-.19,.66-.33,1.02-.43l.13-1.11h1.98l.13,1.11c.36,.1,.7,.24,1.02,.43l.87-.69,1.4,1.42-.68,.88c.18,.32,.32,.67,.42,1.04l1.1,.14v2.01Z"/></g><path class="cls-1" d="M21,0H2C.9,0,0,.91,0,2.03v.12H23v-.12c0-1.12-.9-2.03-2-2.03ZM2.2,1.49h-.5V.99h.5v.51Zm17.04,0h-.5V.99h.5v.51Zm1.29,0h-.5V.99h.5v.51Zm1.29,0h-.5V.99h.5v.51Z"/></g></g></g></svg>