<?xml version="1.0" encoding="UTF-8"?><svg id="_024_Q2" xmlns="http://www.w3.org/2000/svg" viewBox="0 0 23 22"><defs><style>.cls-1{fill:#81858d;}</style></defs><g id="icon_22_Non-video_Content_Uploads"><g id="_лой_70"><g><path class="cls-1" d="M5.75,0C2.57,0,0,2.63,0,5.87s2.57,5.87,5.75,5.87,5.75-2.63,5.75-5.87S8.93,0,5.75,0ZM3.69,8.98V2.76l5.28,3.11-5.28,3.11Z"/><path class="cls-1" d="M17.25,0c-3.18,0-5.75,2.63-5.75,5.87s2.57,5.87,5.75,5.87,5.75-2.63,5.75-5.87S20.43,0,17.25,0Zm2.79,7.57c0,.54-.57,.97-1.27,.97s-1.27-.44-1.27-.97,.57-.97,1.27-.97c.09,0,.17,.03,.26,.04V3.87l-3.18,.99v3.69c0,.54-.57,.97-1.27,.97s-1.27-.44-1.27-.97,.57-.97,1.27-.97c.09,0,.17,.03,.26,.04V3.87l5.2-1.65V7.57Z"/><path class="cls-1" d="M11.5,10.27c-3.18,0-5.75,2.63-5.75,5.87s2.57,5.87,5.75,5.87,5.75-2.63,5.75-5.87-2.57-5.87-5.75-5.87Zm1.15,8.8h-4.6v-1.17h4.6v1.17Zm2.3-2.35h-6.9v-1.17h6.9v1.17Zm0-2.35h-6.9v-1.17h6.9v1.17Z"/></g></g></g></svg>