<?xml version="1.0" encoding="UTF-8"?><svg id="_024_Q1" xmlns="http://www.w3.org/2000/svg" viewBox="0 0 23 22"><defs><style>.cls-1{fill:#81858d;}</style></defs><g id="icon_18_pioneer_forum___proposal_label_system"><g id="_лой_57"><path class="cls-1" d="M11.5,0C5.15,0,0,4.59,0,10.25c0,2.49,1,4.77,2.65,6.54l-1.23,4.98c-.04,.15,.11,.28,.26,.22l5.79-2.14c1.25,.42,2.61,.65,4.03,.65,6.35,0,11.5-4.59,11.5-10.25S17.85,0,11.5,0ZM5.91,11.66c-.83,0-1.5-.66-1.5-1.46s.67-1.46,1.5-1.46,1.5,.66,1.5,1.46-.67,1.46-1.5,1.46Zm5.56,0c-.83,0-1.5-.66-1.5-1.46s.67-1.46,1.5-1.46,1.5,.66,1.5,1.46-.67,1.46-1.5,1.46Zm5.56,0c-.83,0-1.5-.66-1.5-1.46s.67-1.46,1.5-1.46,1.5,.66,1.5,1.46-.67,1.46-1.5,1.46Z"/></g></g></svg>