<?xml version="1.0" encoding="UTF-8"?><svg id="_024_Q3" xmlns="http://www.w3.org/2000/svg" viewBox="0 0 24 24"><defs><style>.cls-1{fill:#81858d;}</style></defs><g id="icon_30_Staking_Nomination_Pools"><g><g><polygon class="cls-1" points="7.99 6.68 7.99 1.65 11.82 2.95 11.82 8.04 7.99 6.68"/><polygon class="cls-1" points="12.25 3 16.06 1.65 16.06 6.64 12.25 8.04 12.25 3"/><polygon class="cls-1" points="8.48 1.31 12.04 0 15.53 1.31 12.04 2.57 8.48 1.31"/></g><g><polygon class="cls-1" points="15.93 14.72 15.93 9.69 19.76 10.99 19.76 16.08 15.93 14.72"/><polygon class="cls-1" points="20.18 11.04 24 9.69 24 14.68 20.18 16.08 20.18 11.04"/><polygon class="cls-1" points="16.41 9.35 19.98 8.04 23.47 9.35 19.98 10.61 16.41 9.35"/></g><g><polygon class="cls-1" points="8.01 22.64 8.01 17.61 11.84 18.91 11.84 24 8.01 22.64"/><polygon class="cls-1" points="12.26 18.96 16.08 17.61 16.08 22.6 12.26 24 12.26 18.96"/><polygon class="cls-1" points="8.49 17.27 12.06 15.96 15.55 17.27 12.06 18.53 8.49 17.27"/></g><g><polygon class="cls-1" points="0 14.6 0 9.57 3.83 10.87 3.83 15.96 0 14.6"/><polygon class="cls-1" points="4.25 10.92 8.07 9.57 8.07 14.55 4.25 15.96 4.25 10.92"/><polygon class="cls-1" points=".48 9.23 4.05 7.92 7.54 9.23 4.05 10.49 .48 9.23"/></g><g><polygon class="cls-1" points="4.5 6.71 3.53 6.71 3.53 3.46 6.64 3.46 6.64 4.43 4.5 4.43 4.5 6.71"/><polygon class="cls-1" points="6.7 20.73 3.46 20.73 3.46 17.61 4.43 17.61 4.43 19.76 6.7 19.76 6.7 20.73"/><polygon class="cls-1" points="20.73 6.65 19.76 6.65 19.76 4.5 17.49 4.5 17.49 3.52 20.73 3.52 20.73 6.65"/><polygon class="cls-1" points="20.67 20.79 17.55 20.79 17.55 19.82 19.7 19.82 19.7 17.54 20.67 17.54 20.67 20.79"/><rect class="cls-1" x="11.56" y="10.01" width=".97" height="4.01"/><rect class="cls-1" x="9.92" y="11.53" width="4.23" height=".97"/></g></g></g></svg>