<?xml version="1.0" encoding="UTF-8"?><svg id="_024_Q1" xmlns="http://www.w3.org/2000/svg" viewBox="0 0 24 23"><defs><style>.cls-1{fill:#81858d;}</style></defs><g id="icon_13_subscan_block_explorer_improvements"><g id="_лой_42"><g><rect class="cls-1" x="21.59" y="8.98" width=".74" height="4.79"/><g><polygon class="cls-1" points="13.72 17.31 12.98 17.31 12.98 14.94 15.42 14.94 15.42 15.69 13.72 15.69 13.72 17.31"/><polygon class="cls-1" points="20.9 17.31 20.16 17.31 20.16 15.69 18.44 15.69 18.44 14.94 20.9 14.94 20.9 17.31"/><polygon class="cls-1" points="15.42 23 12.98 23 12.98 20.39 13.72 20.39 13.72 22.25 15.42 22.25 15.42 23"/><polygon class="cls-1" points="20.9 23 18.44 23 18.44 22.25 20.16 22.25 20.16 20 20.9 20 20.9 23"/><polygon class="cls-1" points="23.47 14.67 22.73 14.67 22.73 13.07 21.03 13.07 21.03 12.32 23.47 12.32 23.47 14.67"/><rect class="cls-1" x="22.73" y="17.75" width=".74" height="2.25"/><rect class="cls-1" x="15.92" y="12.32" width="2.09" height=".75"/><polygon class="cls-1" points="20.79 15.58 20.27 15.05 22.84 12.43 23.36 12.96 20.79 15.58"/><polygon class="cls-1" points="13.61 15.58 13.09 15.05 16.29 11.78 16.29 15.11 15.55 15.11 15.55 13.61 13.61 15.58"/><polygon class="cls-1" points="20.79 22.89 20.27 22.36 22.21 20.38 21.03 20.38 21.03 19.63 24 19.63 20.79 22.89"/><polygon class="cls-1" points="18.01 20.38 15.55 20.38 15.55 18.19 16.29 18.19 16.29 19.63 18.01 19.63 18.01 20.38"/><polygon class="cls-1" points="13.61 22.89 13.09 22.36 15.66 19.74 16.19 20.27 13.61 22.89"/></g><g><g><path class="cls-1" d="M20.84,10.68h-7.92V2.62h7.92V10.68Zm-7.18-.75h6.44V3.37h-6.44v6.56Z"/><polygon class="cls-1" points="23.41 7.69 22.67 7.69 22.67 .75 15.86 .75 15.86 0 23.41 0 23.41 7.69"/><polygon class="cls-1" points="20.73 3.26 20.2 2.73 22.78 .11 23.3 .64 20.73 3.26"/><polygon class="cls-1" points="20.73 10.57 20.2 10.04 22.78 7.42 23.3 7.95 20.73 10.57"/><polygon class="cls-1" points="13.55 3.26 13.02 2.73 15.6 .11 16.12 .64 13.55 3.26"/></g><polygon class="cls-1" points="23.04 8.06 15.49 8.06 15.49 .38 16.23 .38 16.23 7.31 23.04 7.31 23.04 8.06"/><polygon class="cls-1" points="13.55 10.57 13.02 10.04 15.6 7.42 16.12 7.95 13.55 10.57"/></g><g><g><g><path class="cls-1" d="M7.92,10.68H0V2.62H7.92V10.68Zm-7.18-.75H7.18V3.37H.74v6.56Z"/><polygon class="cls-1" points="10.49 7.69 9.75 7.69 9.75 .75 2.94 .75 2.94 0 10.49 0 10.49 7.69"/><polygon class="cls-1" points="7.81 3.26 7.29 2.73 9.86 .11 10.39 .64 7.81 3.26"/><polygon class="cls-1" points="7.81 10.57 7.29 10.04 9.86 7.42 10.39 7.95 7.81 10.57"/><polygon class="cls-1" points=".63 3.26 .11 2.73 2.68 .11 3.21 .64 .63 3.26"/></g><polygon class="cls-1" points=".63 10.57 .11 10.04 2.68 7.42 3.21 7.95 .63 10.57"/><polygon class="cls-1" points="10.12 8.06 2.57 8.06 2.57 .38 3.31 .38 3.31 7.31 10.12 7.31 10.12 8.06"/></g><rect class="cls-1" x="8.86" y="8.62" width="5.62" height=".75"/></g></g></g></g></svg>