<?xml version="1.0" encoding="UTF-8"?><svg id="_023_Q4" xmlns="http://www.w3.org/2000/svg" viewBox="0 0 22 23"><defs><style>.cls-1{fill:#81858d;}.cls-2{fill:none;stroke:#81858d;stroke-miterlimit:10;stroke-width:.5px;}</style></defs><g id="icon_1_staking_module"><g id="icon"><g><path class="cls-1" d="M21.25,.75V21.09H.75V.75H21.25M22,0H0V21.84H22V0h0Z"/><polyline class="cls-2" points="2.4 6.26 2.4 2.28 19.6 2.28 19.6 19.35 2.4 19.35 2.4 15.93"/><line class="cls-2" x1="2.4" y1="13.66" x2="2.4" y2="8.53"/><g><path class="cls-1" d="M11.07,3.43c-4.14,0-7.5,3.36-7.5,7.5s3.36,7.5,7.5,7.5,7.5-3.36,7.5-7.5-3.36-7.5-7.5-7.5Zm3.28,1.27l.48,.27-.27,.48-.48-.27,.27-.48Zm-3.55-.81h.55v.55h-.55v-.55Zm-3,.81l.27,.48-.48,.27-.27-.48,.48-.27Zm-2.68,2.47l.48,.27-.27,.48-.48-.27,.27-.48Zm-.53,4.03h-.55v-.55h.55v.55Zm.53,3.48l-.27-.48,.48-.27,.27,.48-.48,.27Zm2.68,2.47l-.48-.27,.27-.48,.48,.27-.27,.48Zm3.55,.81h-.55v-.55h.55v.55Zm3-.81l-.27-.48,.48-.27,.27,.48-.48,.27Zm-3.28-.17c-3.35,0-6.06-2.71-6.06-6.06s2.71-6.06,6.06-6.06,6.06,2.71,6.06,6.06-2.71,6.06-6.06,6.06Zm5.96-2.3l-.48-.27,.27-.48,.48,.27-.27,.48Zm-.2-6.76l-.27-.48,.48-.27,.27,.48-.48,.27Zm.73,3.28v-.55h.55v.55h-.55Z"/><circle class="cls-1" cx="11.07" cy="10.93" r="5.79"/></g><path class="cls-1" d="M6.49,21.79v.71H2.9v-.71h3.59m.5-.5H2.4v1.71H6.99v-1.71h0Z"/><path class="cls-1" d="M19.1,21.79v.71h-3.59v-.71h3.59m.5-.5h-4.59v1.71h4.59v-1.71h0Z"/><path class="cls-1" d="M2.41,6.76c.17,0,.33,.07,.45,.19,.12,.12,.19,.28,.19,.45,0,.35-.29,.64-.64,.64H.61v-1.28h1.8m0-.5H.11v2.28H2.41c.63,0,1.14-.51,1.14-1.14h0c0-.63-.51-1.14-1.14-1.14h0Z"/><path class="cls-1" d="M2.41,14.15c.17,0,.33,.07,.45,.19,.12,.12,.19,.28,.19,.45,0,.35-.29,.64-.64,.64H.61v-1.28h1.8m0-.5H.11v2.28H2.41c.63,0,1.14-.51,1.14-1.14h0c0-.63-.51-1.14-1.14-1.14h0Z"/></g></g></g></svg>