<?xml version="1.0" encoding="UTF-8"?><svg id="_024_Q1" xmlns="http://www.w3.org/2000/svg" viewBox="0 0 24 22"><defs><style>.cls-1{stroke-linejoin:bevel;}.cls-1,.cls-2{fill:none;stroke:#81858d;stroke-width:1.01px;}.cls-3{fill:#81858d;}.cls-2{stroke-miterlimit:10;}</style></defs><g id="icon_20_js_cli_improvements"><g id="_лой_63"><g><path class="cls-3" d="M20.34,0H3.66C2.44,0,1.45,.99,1.45,2.22v13.95c0,1.23,.99,2.22,2.21,2.22H20.34c1.22,0,2.21-.99,2.21-2.22V2.22c0-1.23-.99-2.22-2.21-2.22ZM11.75,1.13h.5v.59h-.5v-.59Zm9.11,14.52c0,.42-.34,.75-.75,.75H3.78c-.41,0-.75-.34-.75-.75V3.52c0-.42,.34-.75,.75-.75H20.11c.41,0,.75,.34,.75,.75V15.66Z"/><g><path class="cls-3" d="M9.74,20.45h4.52c.18,0,.32-.18,.32-.4v-.65h-5.17v.65c0,.22,.14,.4,.32,.4Z"/><path class="cls-3" d="M22.78,19.4h-7.69v.65c0,.5-.37,.9-.83,.9h-4.52c-.46,0-.83-.4-.83-.9v-.65H1.22c-.67,0-1.22,.55-1.22,1.22v.15c0,.68,.55,1.22,1.22,1.22H22.78c.67,0,1.22-.55,1.22-1.22v-.15c0-.68-.55-1.22-1.22-1.22Z"/></g><polyline class="cls-1" points="4.34 4.31 7.87 7.85 4.34 11.39"/><line class="cls-2" x1="9.58" y1="11.39" x2="15.49" y2="11.39"/></g></g></g></svg>