<?xml version="1.0" encoding="UTF-8"?><svg id="_024_Q3" xmlns="http://www.w3.org/2000/svg" viewBox="0 0 23 17"><defs><style>.cls-1{fill:#81858d;}</style></defs><g id="icon_29_NFT_Improvements_-_V1"><g><g><path class="cls-1" d="M18.22,4.74H4.78v7.52h13.45V4.74Zm-8.65,5.74h-1.15l-1.19-3.03h-.02v3.03h-.75v-3.96h1.14l1.19,3.02h.02v-3.02h.76v3.96Zm3.53-3.32h-1.79v.97h1.65v.64h-1.65v1.71h-.76v-3.96h2.55v.64Zm3.44,0h-1.16v3.32h-.76v-3.32h-1.16v-.64h3.09v.64Z"/><path class="cls-1" d="M18.35,3.64H4.65c-.54,0-.98,.43-.98,.97v7.77c0,.54,.44,.97,.98,.97h13.7c.54,0,.98-.43,.98-.97V4.61c0-.54-.44-.97-.98-.97Zm.13,8.87H4.52V4.49h13.96V12.51Z"/></g><g><path class="cls-1" d="M5.63,4.13c-.27,0-.49-.22-.49-.49V.73c0-.27,.22-.49,.49-.49s.49,.22,.49,.49V3.64c0,.27-.22,.49-.49,.49Z"/><path class="cls-1" d="M7.59,4.13c-.27,0-.49-.22-.49-.49V.73c0-.27,.22-.49,.49-.49s.49,.22,.49,.49V3.64c0,.27-.22,.49-.49,.49Z"/><path class="cls-1" d="M9.54,4.13c-.27,0-.49-.22-.49-.49V.73c0-.27,.22-.49,.49-.49s.49,.22,.49,.49V3.64c0,.27-.22,.49-.49,.49Z"/><path class="cls-1" d="M11.5,4.13c-.27,0-.49-.22-.49-.49V.73c0-.27,.22-.49,.49-.49s.49,.22,.49,.49V3.64c0,.27-.22,.49-.49,.49Z"/><path class="cls-1" d="M13.46,4.13c-.27,0-.49-.22-.49-.49V.73c0-.27,.22-.49,.49-.49s.49,.22,.49,.49V3.64c0,.27-.22,.49-.49,.49Z"/><path class="cls-1" d="M15.41,4.13c-.27,0-.49-.22-.49-.49V.73c0-.27,.22-.49,.49-.49s.49,.22,.49,.49V3.64c0,.27-.22,.49-.49,.49Z"/><path class="cls-1" d="M17.37,4.13c-.27,0-.49-.22-.49-.49V.73c0-.27,.22-.49,.49-.49s.49,.22,.49,.49V3.64c0,.27-.22,.49-.49,.49Z"/><g><circle class="cls-1" cx="5.63" cy=".73" r=".49"/><path class="cls-1" d="M5.63,1.46c-.4,0-.73-.33-.73-.73s.33-.73,.73-.73,.73,.33,.73,.73-.33,.73-.73,.73Zm0-.97c-.13,0-.24,.11-.24,.24s.11,.24,.24,.24,.24-.11,.24-.24-.11-.24-.24-.24Z"/></g><g><circle class="cls-1" cx="7.59" cy=".73" r=".49"/><path class="cls-1" d="M7.59,1.46c-.4,0-.73-.33-.73-.73s.33-.73,.73-.73,.73,.33,.73,.73-.33,.73-.73,.73Zm0-.97c-.13,0-.24,.11-.24,.24s.11,.24,.24,.24,.24-.11,.24-.24-.11-.24-.24-.24Z"/></g><g><circle class="cls-1" cx="9.54" cy=".73" r=".49"/><path class="cls-1" d="M9.54,1.46c-.4,0-.73-.33-.73-.73s.33-.73,.73-.73,.73,.33,.73,.73-.33,.73-.73,.73Zm0-.97c-.13,0-.24,.11-.24,.24s.11,.24,.24,.24,.24-.11,.24-.24-.11-.24-.24-.24Z"/></g><g><circle class="cls-1" cx="11.5" cy=".73" r=".49"/><path class="cls-1" d="M11.5,1.46c-.4,0-.73-.33-.73-.73s.33-.73,.73-.73,.73,.33,.73,.73-.33,.73-.73,.73Zm0-.97c-.13,0-.24,.11-.24,.24s.11,.24,.24,.24,.24-.11,.24-.24-.11-.24-.24-.24Z"/></g><g><circle class="cls-1" cx="13.46" cy=".73" r=".49"/><path class="cls-1" d="M13.46,1.46c-.4,0-.73-.33-.73-.73s.33-.73,.73-.73,.73,.33,.73,.73-.33,.73-.73,.73Zm0-.97c-.13,0-.24,.11-.24,.24s.11,.24,.24,.24,.24-.11,.24-.24-.11-.24-.24-.24Z"/></g><g><circle class="cls-1" cx="15.41" cy=".73" r=".49"/><path class="cls-1" d="M15.41,1.46c-.4,0-.73-.33-.73-.73s.33-.73,.73-.73,.73,.33,.73,.73-.33,.73-.73,.73Zm0-.97c-.13,0-.24,.11-.24,.24s.11,.24,.24,.24,.24-.11,.24-.24-.11-.24-.24-.24Z"/></g><g><circle class="cls-1" cx="17.37" cy=".73" r=".49"/><path class="cls-1" d="M17.37,1.46c-.4,0-.73-.33-.73-.73s.33-.73,.73-.73,.73,.33,.73,.73-.33,.73-.73,.73Zm0-.97c-.13,0-.24,.11-.24,.24s.11,.24,.24,.24,.24-.11,.24-.24-.11-.24-.24-.24Z"/></g></g><g><path class="cls-1" d="M5.63,16.76c-.27,0-.49-.22-.49-.49v-2.91c0-.27,.22-.49,.49-.49s.49,.22,.49,.49v2.91c0,.27-.22,.49-.49,.49Z"/><path class="cls-1" d="M7.59,16.76c-.27,0-.49-.22-.49-.49v-2.91c0-.27,.22-.49,.49-.49s.49,.22,.49,.49v2.91c0,.27-.22,.49-.49,.49Z"/><path class="cls-1" d="M9.54,16.76c-.27,0-.49-.22-.49-.49v-2.91c0-.27,.22-.49,.49-.49s.49,.22,.49,.49v2.91c0,.27-.22,.49-.49,.49Z"/><path class="cls-1" d="M11.5,16.76c-.27,0-.49-.22-.49-.49v-2.91c0-.27,.22-.49,.49-.49s.49,.22,.49,.49v2.91c0,.27-.22,.49-.49,.49Z"/><path class="cls-1" d="M13.46,16.76c-.27,0-.49-.22-.49-.49v-2.91c0-.27,.22-.49,.49-.49s.49,.22,.49,.49v2.91c0,.27-.22,.49-.49,.49Z"/><path class="cls-1" d="M15.41,16.76c-.27,0-.49-.22-.49-.49v-2.91c0-.27,.22-.49,.49-.49s.49,.22,.49,.49v2.91c0,.27-.22,.49-.49,.49Z"/><path class="cls-1" d="M17.37,16.76c-.27,0-.49-.22-.49-.49v-2.91c0-.27,.22-.49,.49-.49s.49,.22,.49,.49v2.91c0,.27-.22,.49-.49,.49Z"/><g><circle class="cls-1" cx="17.37" cy="16.27" r=".49"/><path class="cls-1" d="M17.37,17c-.4,0-.73-.33-.73-.73s.33-.73,.73-.73,.73,.33,.73,.73-.33,.73-.73,.73Zm0-.97c-.13,0-.24,.11-.24,.24s.11,.24,.24,.24,.24-.11,.24-.24-.11-.24-.24-.24Z"/></g><g><circle class="cls-1" cx="15.41" cy="16.27" r=".49"/><path class="cls-1" d="M15.41,17c-.4,0-.73-.33-.73-.73s.33-.73,.73-.73,.73,.33,.73,.73-.33,.73-.73,.73Zm0-.97c-.13,0-.24,.11-.24,.24s.11,.24,.24,.24,.24-.11,.24-.24-.11-.24-.24-.24Z"/></g><g><circle class="cls-1" cx="13.46" cy="16.27" r=".49"/><path class="cls-1" d="M13.46,17c-.4,0-.73-.33-.73-.73s.33-.73,.73-.73,.73,.33,.73,.73-.33,.73-.73,.73Zm0-.97c-.13,0-.24,.11-.24,.24s.11,.24,.24,.24,.24-.11,.24-.24-.11-.24-.24-.24Z"/></g><g><circle class="cls-1" cx="11.5" cy="16.27" r=".49"/><path class="cls-1" d="M11.5,17c-.4,0-.73-.33-.73-.73s.33-.73,.73-.73,.73,.33,.73,.73-.33,.73-.73,.73Zm0-.97c-.13,0-.24,.11-.24,.24s.11,.24,.24,.24,.24-.11,.24-.24-.11-.24-.24-.24Z"/></g><g><circle class="cls-1" cx="9.54" cy="16.27" r=".49"/><path class="cls-1" d="M9.54,17c-.4,0-.73-.33-.73-.73s.33-.73,.73-.73,.73,.33,.73,.73-.33,.73-.73,.73Zm0-.97c-.13,0-.24,.11-.24,.24s.11,.24,.24,.24,.24-.11,.24-.24-.11-.24-.24-.24Z"/></g><g><circle class="cls-1" cx="7.59" cy="16.27" r=".49"/><path class="cls-1" d="M7.59,17c-.4,0-.73-.33-.73-.73s.33-.73,.73-.73,.73,.33,.73,.73-.33,.73-.73,.73Zm0-.97c-.13,0-.24,.11-.24,.24s.11,.24,.24,.24,.24-.11,.24-.24-.11-.24-.24-.24Z"/></g><g><circle class="cls-1" cx="5.63" cy="16.27" r=".49"/><path class="cls-1" d="M5.63,17c-.4,0-.73-.33-.73-.73s.33-.73,.73-.73,.73,.33,.73,.73-.33,.73-.73,.73Zm0-.97c-.13,0-.24,.11-.24,.24s.11,.24,.24,.24,.24-.11,.24-.24-.11-.24-.24-.24Z"/></g></g><g><path class="cls-1" d="M22.27,6.07h-2.94c-.27,0-.49-.22-.49-.49s.22-.49,.49-.49h2.94c.27,0,.49,.22,.49,.49s-.22,.49-.49,.49Z"/><path class="cls-1" d="M22.27,8.01h-2.94c-.27,0-.49-.22-.49-.49s.22-.49,.49-.49h2.94c.27,0,.49,.22,.49,.49s-.22,.49-.49,.49Z"/><path class="cls-1" d="M22.27,9.96h-2.94c-.27,0-.49-.22-.49-.49s.22-.49,.49-.49h2.94c.27,0,.49,.22,.49,.49s-.22,.49-.49,.49Z"/><path class="cls-1" d="M22.27,11.9h-2.94c-.27,0-.49-.22-.49-.49s.22-.49,.49-.49h2.94c.27,0,.49,.22,.49,.49s-.22,.49-.49,.49Z"/><g><circle class="cls-1" cx="22.27" cy="5.59" r=".49"/><path class="cls-1" d="M22.27,6.31c-.4,0-.73-.33-.73-.73s.33-.73,.73-.73,.73,.33,.73,.73-.33,.73-.73,.73Zm0-.97c-.13,0-.24,.11-.24,.24s.11,.24,.24,.24,.24-.11,.24-.24-.11-.24-.24-.24Z"/></g><g><circle class="cls-1" cx="22.27" cy="7.53" r=".49"/><path class="cls-1" d="M22.27,8.26c-.4,0-.73-.33-.73-.73s.33-.73,.73-.73,.73,.33,.73,.73-.33,.73-.73,.73Zm0-.97c-.13,0-.24,.11-.24,.24s.11,.24,.24,.24,.24-.11,.24-.24-.11-.24-.24-.24Z"/></g><g><circle class="cls-1" cx="22.27" cy="9.47" r=".49"/><path class="cls-1" d="M22.27,10.2c-.4,0-.73-.33-.73-.73s.33-.73,.73-.73,.73,.33,.73,.73-.33,.73-.73,.73Zm0-.97c-.13,0-.24,.11-.24,.24s.11,.24,.24,.24,.24-.11,.24-.24-.11-.24-.24-.24Z"/></g><g><circle class="cls-1" cx="22.27" cy="11.41" r=".49"/><path class="cls-1" d="M22.27,12.14c-.4,0-.73-.33-.73-.73s.33-.73,.73-.73,.73,.33,.73,.73-.33,.73-.73,.73Zm0-.97c-.13,0-.24,.11-.24,.24s.11,.24,.24,.24,.24-.11,.24-.24-.11-.24-.24-.24Z"/></g></g><g><path class="cls-1" d="M3.67,6.07H.73c-.27,0-.49-.22-.49-.49s.22-.49,.49-.49H3.67c.27,0,.49,.22,.49,.49s-.22,.49-.49,.49Z"/><path class="cls-1" d="M3.67,8.01H.73c-.27,0-.49-.22-.49-.49s.22-.49,.49-.49H3.67c.27,0,.49,.22,.49,.49s-.22,.49-.49,.49Z"/><path class="cls-1" d="M3.67,9.96H.73c-.27,0-.49-.22-.49-.49s.22-.49,.49-.49H3.67c.27,0,.49,.22,.49,.49s-.22,.49-.49,.49Z"/><path class="cls-1" d="M3.67,11.9H.73c-.27,0-.49-.22-.49-.49s.22-.49,.49-.49H3.67c.27,0,.49,.22,.49,.49s-.22,.49-.49,.49Z"/><g><circle class="cls-1" cx=".73" cy="11.41" r=".49"/><path class="cls-1" d="M.73,12.14c-.4,0-.73-.33-.73-.73s.33-.73,.73-.73,.73,.33,.73,.73-.33,.73-.73,.73Zm0-.97c-.13,0-.24,.11-.24,.24s.11,.24,.24,.24,.24-.11,.24-.24-.11-.24-.24-.24Z"/></g><g><circle class="cls-1" cx=".73" cy="9.47" r=".49"/><path class="cls-1" d="M.73,10.2c-.4,0-.73-.33-.73-.73s.33-.73,.73-.73,.73,.33,.73,.73-.33,.73-.73,.73Zm0-.97c-.13,0-.24,.11-.24,.24s.11,.24,.24,.24,.24-.11,.24-.24-.11-.24-.24-.24Z"/></g><g><circle class="cls-1" cx=".73" cy="7.53" r=".49"/><path class="cls-1" d="M.73,8.26c-.4,0-.73-.33-.73-.73s.33-.73,.73-.73,.73,.33,.73,.73-.33,.73-.73,.73Zm0-.97c-.13,0-.24,.11-.24,.24s.11,.24,.24,.24,.24-.11,.24-.24-.11-.24-.24-.24Z"/></g><g><circle class="cls-1" cx=".73" cy="5.59" r=".49"/><path class="cls-1" d="M.73,6.31c-.4,0-.73-.33-.73-.73s.33-.73,.73-.73,.73,.33,.73,.73-.33,.73-.73,.73Zm0-.97c-.13,0-.24,.11-.24,.24s.11,.24,.24,.24,.24-.11,.24-.24-.11-.24-.24-.24Z"/></g></g></g></g></svg>