<?xml version="1.0" encoding="UTF-8"?><svg id="_024_Q4" xmlns="http://www.w3.org/2000/svg" viewBox="0 0 24 24"><defs><style>.cls-1{fill:#81858d;}</style></defs><g id="icon_32_Video_Communities___No-tech_App_creation"><g><g><path class="cls-1" d="M10.05,23.25c-.98,0-1.78-.8-1.78-1.78v-1.9h7.51v1.9c0,.98-.8,1.78-1.78,1.78h-3.96Z"/><g><path class="cls-1" d="M14.01,24h-3.96c-1.39,0-2.52-1.13-2.52-2.53v-2.2c0-.42,.11-.83,.32-1.19-2.01-1.37-3.23-3.62-3.23-6.07,0-4.08,3.32-7.39,7.39-7.39s7.37,3.32,7.37,7.39c0,2.43-1.2,4.67-3.17,6.04,.22,.37,.33,.79,.33,1.23v2.2c0,1.39-1.13,2.53-2.53,2.53ZM12,6.12c-3.25,0-5.89,2.64-5.89,5.89,0,2.19,1.23,4.19,3.22,5.21l1.04,.54-.92,.72c-.26,.21-.42,.51-.42,.8v2.2c0,.57,.46,1.03,1.02,1.03h3.96c.57,0,1.03-.46,1.03-1.03v-2.2c0-.42-.27-.68-.43-.79l-.99-.71,1.08-.56c1.96-1.01,3.18-3,3.18-5.19,0-3.25-2.63-5.89-5.87-5.89Z"/><rect class="cls-1" x="8.28" y="18.82" width="7.51" height="1.5"/></g></g><g><polygon class="cls-1" points="12.02 17.64 9.4 15.02 10.46 13.96 12.02 15.52 13.62 13.92 14.68 14.98 12.02 17.64"/><rect class="cls-1" x="11.29" y="16.58" width="1.5" height="3.4"/></g><g><rect class="cls-1" x="11.25" width="1.5" height="3.38"/><rect class="cls-1" x="3.96" y="3.02" width="1.5" height="3.38" transform="translate(-1.95 4.71) rotate(-44.99)"/><rect class="cls-1" y="11.25" width="3.38" height="1.5"/><rect class="cls-1" x="3.02" y="18.55" width="3.38" height="1.5" transform="translate(-12.26 8.98) rotate(-44.99)"/><rect class="cls-1" x="18.54" y="17.61" width="1.5" height="3.38" transform="translate(-7.99 19.28) rotate(-44.98)"/><rect class="cls-1" x="20.62" y="11.25" width="3.38" height="1.5"/><rect class="cls-1" x="17.6" y="3.96" width="3.38" height="1.5" transform="translate(2.32 15.02) rotate(-44.99)"/></g></g></g></svg>