<?xml version="1.0" encoding="UTF-8"?><svg id="_024_Q3" xmlns="http://www.w3.org/2000/svg" viewBox="0 0 13 23"><defs><style>.cls-1{fill:#81858d;}</style></defs><g id="icon_28_Smartphone_App_for_Atlas_Gleev"><g><path class="cls-1" d="M11.9,0H1.08C.48,0,0,.46,0,1.03V19.48c0,.57,.48,1.03,1.08,1.03H3.5c-.34-.43,0-1.67-.37-2.05h-.74s-.07,.02-.12,.04c.04-.02,.08-.03,.12-.04h-.61c-.39,0-.7-.3-.7-.67V1.69c0-.37,.32-.67,.7-.67H11.19c.39,0,.7,.3,.7,.67V14.41c.27,.1,.68,.09,1.08,.09V1.03c0-.57-.48-1.03-1.08-1.03ZM7.59,.64h-2.21c-.07,0-.13-.06-.13-.13s.06-.13,.13-.13h2.21c.07,0,.13,.06,.13,.13s-.06,.13-.13,.13Z"/><path class="cls-1" d="M12.37,14.82c-.34-.18-3.45-1.02-3.45-1.02h-.78l-.32-2.73s.12-1.42-.95-1.46-1.13,.84-1.13,.84v6.36c-.58-.08-1.05-.74-1.05-.74,0,0-.42-.77-1.35-.54-.93,.23-.67,1.15-.67,1.15,.53,1.89,1.94,3.37,2.48,3.89,.14,.13,.21,.31,.21,.49v1.44c.09,.4,.46,.5,.46,.5h5.76c.46-.15,.48-.5,.48-.5l-.02-1.62c0-.13,.05-.25,.13-.35,.7-.82,.81-1.56,.81-1.56,0,0,.03-2.16,0-3.01-.03-.86-.62-1.15-.62-1.15Z"/></g></g></svg>