<?xml version="1.0" encoding="UTF-8"?><svg id="_024_Q2" xmlns="http://www.w3.org/2000/svg" viewBox="0 0 22 22"><defs><style>.cls-1{fill:none;}.cls-2{fill:#81858d;}</style></defs><g id="icon_26_Joystream___Ethereum_Bridging_Solution"><g id="_лой_82"><g><g><polygon class="cls-1" points="7.03 16.11 9.4 14.86 7.03 11 4.6 14.86 7.03 16.11"/><polygon class="cls-1" points="4.6 15.46 7.03 19 9.4 15.33 7 16.61 4.6 15.46"/><path class="cls-1" d="M1,15c0,3.31,2.69,6,6,6s6-2.69,6-6c0-.09,0-.18-.01-.28-.08-.02-.17-.04-.25-.07,0,.11,.02,.23,.02,.34,0,3.17-2.58,5.75-5.75,5.75S1.25,18.17,1.25,15s2.58-5.75,5.75-5.75c.12,0,.24,.01,.36,.02-.02-.08-.04-.17-.07-.25-.1,0-.2-.01-.3-.01-3.31,0-6,2.69-6,6Z"/><path class="cls-2" d="M1.25,15c0,3.17,2.58,5.75,5.75,5.75s5.75-2.58,5.75-5.75c0-.11-.01-.23-.02-.34-2.58-.77-4.61-2.81-5.37-5.39-.12,0-.24-.02-.36-.02-3.17,0-5.75,2.58-5.75,5.75Zm5.78,4l-2.43-3.54,2.4,1.15,2.4-1.27-2.38,3.66Zm2.38-4.13l-2.38,1.25-2.43-1.25,2.43-3.86,2.38,3.86Z"/><path class="cls-2" d="M13,15c0,3.31-2.69,6-6,6S1,18.31,1,15s2.69-6,6-6c.1,0,.2,.01,.3,.01-.09-.33-.15-.67-.2-1.01-.03,0-.07,0-.1,0-3.87,0-7,3.13-7,7s3.13,7,7,7,7-3.13,7-7c0-.03,0-.05,0-.08-.34-.04-.68-.11-1.01-.2,0,.09,.01,.18,.01,.28Z"/></g><g><path class="cls-2" d="M15.17,5.75c-.09-.07-.19-.13-.31-.16s-.25-.05-.38-.05-.26,.02-.38,.05-.22,.09-.31,.16-.16,.16-.21,.26-.08,.22-.08,.36v1.26c0,.14,.03,.26,.08,.36s.12,.19,.21,.26,.19,.13,.31,.16,.24,.05,.38,.05,.26-.02,.38-.05,.22-.09,.31-.16c.09-.07,.16-.16,.21-.27s.08-.22,.08-.36v-1.26c0-.14-.03-.26-.08-.36s-.12-.19-.21-.26Z"/><g><path class="cls-2" d="M15,0c-3.87,0-7,3.13-7,7s3.13,7,7,7,7-3.13,7-7S18.87,0,15,0Zm0,13c-3.31,0-6-2.69-6-6S11.69,1,15,1s6,2.69,6,6-2.69,6-6,6Z"/><path class="cls-2" d="M15,1.25c-3.17,0-5.75,2.58-5.75,5.75s2.58,5.75,5.75,5.75,5.75-2.58,5.75-5.75S18.17,1.25,15,1.25Zm-3.17,7.79h-2.03v-.66h1.25v-3.42h.78v4.08Zm3.99-.45c-.32,.36-.76,.54-1.34,.54s-1.03-.18-1.34-.54c-.32-.36-.47-.89-.47-1.59s.16-1.23,.47-1.59,.76-.54,1.34-.54,1.03,.18,1.34,.54,.47,.89,.47,1.59-.16,1.23-.47,1.59Zm3.02-1.15v1.6h-.78v-1.6l-1.36-2.48h.88l.88,1.69,.88-1.69h.87l-1.36,2.48Z"/></g></g><rect class="cls-2" x="14" y="18" width="5" height="1"/><rect class="cls-2" x="3" y="3" width="5" height="1"/><polygon class="cls-2" points="19.5 20.62 18.79 19.91 20.21 18.5 18.79 17.09 19.5 16.38 21.27 18.15 21.27 18.85 19.5 20.62"/><polygon class="cls-2" points="2.5 5.62 .73 3.85 .73 3.15 2.5 1.38 3.21 2.09 1.79 3.5 3.21 4.91 2.5 5.62"/></g></g></g></svg>