<?xml version="1.0" encoding="UTF-8"?><svg id="_024_Q3" xmlns="http://www.w3.org/2000/svg" viewBox="0 0 22 24"><defs><style>.cls-1{fill:#81858d;}</style></defs><g id="icon_27_bounties_module"><g><g><path class="cls-1" d="M11.21,14.46c-.11-.09-.24-.16-.39-.21-.15-.05-.31-.07-.49-.07s-.33,.02-.48,.07c-.15,.05-.28,.11-.39,.21-.11,.09-.2,.2-.27,.33-.07,.13-.1,.28-.1,.46v1.6c0,.17,.03,.33,.1,.46,.07,.13,.16,.24,.27,.33,.11,.09,.24,.16,.39,.21,.15,.04,.31,.07,.48,.07s.34-.02,.49-.07c.15-.04,.28-.11,.39-.21,.11-.09,.2-.2,.27-.34s.1-.28,.1-.46v-1.6c0-.17-.03-.33-.1-.46-.07-.13-.15-.24-.27-.33Z"/><path class="cls-1" d="M21.64,15.71c-.44-1.56-1.27-2.98-2.33-4.19-1.15-1.32-2.89-2.88-4.99-3.39-.29-.07-.6,0-.87,.15-.86,.5-3.11,1.47-6.02,.23-.28-.12-.59-.13-.87,0C5.01,9.18-.07,11.88,.03,17.97c0,0-.88,5.24,6.45,5.85,7.33,.61,11.4-.5,11.4-.5,0,0,5.55-1.21,3.75-7.6Zm-14.67,2.93h-2.58v-.84h1.59v-4.34h.99v5.18Zm5.07-.57c-.4,.46-.97,.69-1.7,.69s-1.3-.23-1.7-.69c-.4-.46-.6-1.13-.6-2.02s.2-1.56,.6-2.02,.97-.69,1.7-.69,1.3,.23,1.7,.69c.4,.46,.6,1.13,.6,2.02s-.2,1.56-.6,2.02Zm3.84-1.46v2.03h-.99v-2.03l-1.73-3.15h1.12l1.11,2.15,1.11-2.15h1.1l-1.73,3.15Z"/></g><path class="cls-1" d="M13.23,6.81c.08-.1,.11-.23,.11-.37,0-.57,.11-2.36,1.21-4.38,0,0,.27-1.19-1.16-.84,0,0-.3,.14-.96,.5s-.98-.57-.98-.57c0,0-.42-1.33-1.39-1.14,0,0-.84,.05-1.15,1.12-.3,1.07-1.79,.9-1.79,.9,0,0-1.49-.26-1.69,.45-.16,.6,1.18,3.36,1.63,4.27,.1,.21,.26,.38,.47,.48,.45,.22,1.37,.56,2.8,.56,.11,0,.23,0,.34-.02,.53-.06,2-.27,2.54-.97Z"/></g></g></svg>