<?xml version="1.0" encoding="UTF-8"?><svg id="_023_Q4" xmlns="http://www.w3.org/2000/svg" viewBox="0 0 24 22"><defs><style>.cls-1{fill:#81858d;}</style></defs><g id="icon_3_content_marketing"><g id="_лой_10"><g><path class="cls-1" d="M24,8.1v1.86c0,.84-.66,1.51-1.48,1.51h-1.06c.04-.79,.06-1.59,.06-2.44s-.02-1.65-.06-2.43h1.06c.82-.01,1.48,.66,1.48,1.5Z"/><path class="cls-1" d="M12.07,6.51v-.07c6.15-.68,5.11-6.44,5.11-6.44h1.02c1.32,0,2.05,2.8,2.26,6.6,.04,.78,.06,1.58,.06,2.43s-.02,1.65-.06,2.43c-.21,3.81-.94,6.6-2.26,6.6h-1.02s1.04-5.77-5.12-6.45v-.07c-.33-.06-.65-.34-.88-.72-.27-.46-.44-1.09-.44-1.79,0-1.31,.59-2.39,1.33-2.52Z"/><path class="cls-1" d="M8.43,12.57l3.88,9.43h-.52c-2.31,0-4.4-1.42-5.3-3.59l-2.39-5.84h4.33Z"/><path class="cls-1" d="M10,11.55H2.47c-.68,0-1.3-.29-1.75-.73-.44-.46-.72-1.09-.72-1.79,0-1.4,1.11-2.53,2.47-2.53h7.35c.44,0,.86-.02,1.24-.06v.07c-.73,.13-1.32,1.21-1.32,2.52,0,.69,.17,1.33,.44,1.79,.23,.39,.55,.66,.89,.72v.07c-.34-.03-.69-.05-1.07-.06Z"/></g></g></g></svg>