<?xml version="1.0" encoding="UTF-8"?><svg id="_024_Q1" xmlns="http://www.w3.org/2000/svg" viewBox="0 0 20 23"><defs><style>.cls-1{fill:#81858d;}</style></defs><g id="icon_15_content_curator_tooling"><g id="_лой_48"><g><g><path class="cls-1" d="M8.83,5.79l1.64-.76c-.1-.34-.37-.57-.72-.57h-.01l-1.44,.64c.26,.15,.45,.39,.53,.69Z"/><path class="cls-1" d="M19.42,.15L10.33,4.2c.25,.14,.44,.37,.53,.65L19.97,.64c-.06-.27-.28-.47-.56-.49Z"/><path class="cls-1" d="M8.89,6.55c0,1.82,.57,3.61,1.62,5.12V5.49l-1.62,.75v.32Z"/><path class="cls-1" d="M5.78,10.35c.22-.05,.4-.15,.57-.27l-.89-.88-.9,.89c.35,.25,.78,.35,1.21,.27h0Z"/><path class="cls-1" d="M.47,5.41c-.29,.12-.47,.38-.47,.68v.46c0,1.82,.57,3.61,1.62,5.12V5.35H.76c-.11,0-.2,.02-.29,.07Z"/><path class="cls-1" d="M15.39,13.17c.51,.38,1.14,.54,1.77,.45,.63-.09,1.2-.41,1.58-.92,.39-.5,.55-1.12,.46-1.75-.14-.96-.83-1.71-1.77-1.95l-.41,.24,.86,1.64c.13,.29,.15,.6,.04,.89-.11,.28-.32,.51-.59,.63-.15,.07-.31,.1-.48,.1-.43,0-.85-.24-1.05-.66l-.72-1.48-.56,.32c-.08,.29-.1,.61-.05,.92,.09,.63,.42,1.18,.93,1.56Z"/><path class="cls-1" d="M3.7,4.03h5.94L18.37,.15h-4.95c-.08,0-.17,.02-.24,.05l-.09-.2h0l.07,.2h-.03L3.7,4.03Z"/><polygon class="cls-1" points="1.59 4.92 7.65 4.92 8.68 4.46 2.63 4.46 2.61 4.47 1.59 4.92"/><path class="cls-1" d="M6.96,8.53c-.04-.21-.15-.39-.27-.56l-.92,.92,.89,.89c.28-.36,.4-.8,.3-1.24Z"/><path class="cls-1" d="M2.81,12.82h6.94c.15,0,.3-.05,.42-.13,.13-.09,.22-.22,.28-.36-1.28-1.64-1.99-3.69-1.99-5.78v-.46c0-.41-.34-.75-.76-.75H2.05v6.72c0,.05,0,.1,.01,.15,.07,.35,.38,.6,.75,.6Zm1.23-5.34c.26-.28,.6-.46,.99-.54h0l.63-.14c1.08-.23,2.13,.45,2.37,1.5,.11,.51,.01,1.04-.27,1.48-.29,.44-.73,.74-1.25,.85l-.65,.14h0c-.14,.03-.27,.04-.41,.04-.51,0-1.01-.2-1.38-.56-.28-.25-.48-.59-.57-.99-.14-.65,.05-1.32,.53-1.79Z"/><path class="cls-1" d="M16.19,11.65c.17,.36,.59,.51,.95,.35,.17-.08,.3-.22,.37-.39,.07-.18,.06-.37-.02-.55l-.84-1.61-1.19,.69,.74,1.51Z"/><path class="cls-1" d="M20,1.1L10.95,5.29v6.79c0,.06-.01,.12-.02,.18l8.67-5.01h0s.07-.04,.1-.04c.17-.09,.31-.3,.31-.54V1.1Z"/><path class="cls-1" d="M4.25,9.78l.9-.9-.93-.93c-.26,.35-.37,.79-.28,1.22,.05,.23,.17,.43,.31,.6Z"/><path class="cls-1" d="M4.52,7.65l.94,.93,.93-.92c-.27-.21-.59-.33-.94-.33-.11,0-.22,.01-.33,.04-.23,.04-.43,.15-.6,.29Z"/><path class="cls-1" d="M6.87,7.49c.26,.26,.44,.59,.52,.95,.1,.45,.02,.91-.19,1.31,.07-.07,.15-.12,.2-.21,.22-.34,.3-.75,.21-1.15-.12-.53-.51-.93-1-1.11,.09,.07,.18,.13,.26,.21Z"/></g><path class="cls-1" d="M15.52,19.31v-1.71l-.96-.12c-.09-.31-.21-.61-.37-.88l.6-.75-1.22-1.21-.76,.59c-.28-.16-.58-.28-.89-.37l-.12-.95h-1.73l-.12,.95c-.32,.08-.62,.21-.89,.37l-.76-.59-1.22,1.21,.6,.75c-.16,.27-.28,.57-.37,.88l-.96,.12v1.71l.96,.12c.09,.31,.21,.61,.37,.88l-.6,.75,1.22,1.21,.76-.59c.28,.16,.58,.28,.89,.37l.12,.95h1.73l.12-.95c.32-.08,.62-.21,.89-.37l.76,.59,1.22-1.21-.6-.75c.16-.27,.28-.57,.37-.88l.96-.12Zm-4.6,.44c-.72,0-1.31-.58-1.31-1.29s.58-1.29,1.31-1.29,1.31,.58,1.31,1.29-.58,1.29-1.31,1.29Z"/></g></g></g></svg>