<?xml version="1.0" encoding="UTF-8"?><svg id="_024_Q1" xmlns="http://www.w3.org/2000/svg" viewBox="0 0 18 23"><defs><style>.cls-1{fill:#81858d;}</style></defs><g id="icon_14_pioneer_financials_page"><g id="_лой_45"><g><g><g><path class="cls-1" d="M8.66,17.93h.53c2.47,0,4.47,2,4.47,4.47v.16c0,.25-.2,.45-.45,.45H4.64c-.25,0-.45-.2-.45-.45v-.16c0-2.47,2-4.47,4.47-4.47Z"/><ellipse class="cls-1" cx="8.92" cy="14.71" rx="2.16" ry="2.1"/></g><g><path class="cls-1" d="M3.12,21.26H.32c-.18,0-.32-.14-.32-.31H0c0-1.71,1.43-3.1,3.18-3.1h0c.57,0,1.11,.15,1.57,.4"/><ellipse class="cls-1" cx="3.18" cy="15.68" rx="1.45" ry="1.42"/></g><g><path class="cls-1" d="M14.88,21.26h2.81c.18,0,.32-.14,.32-.31h0c0-1.71-1.43-3.1-3.18-3.1h0c-.57,0-1.11,.15-1.57,.4"/><ellipse class="cls-1" cx="14.82" cy="15.68" rx="1.45" ry="1.42"/></g></g><g><ellipse class="cls-1" cx="9" cy="5.85" rx="4.63" ry="4.51"/><path class="cls-1" d="M9,0C5.69,0,3,2.62,3,5.85s2.69,5.85,6,5.85,6-2.62,6-5.85S12.31,0,9,0Zm2.62,.99l.38,.21-.22,.37-.38-.21,.22-.37Zm-2.84-.63h.44v.43h-.44V.36Zm-2.4,.63l.22,.37-.38,.21-.22-.37,.38-.21Zm-2.14,1.93l.38,.21-.22,.37-.38-.21,.22-.37Zm-.42,3.14h-.44v-.43h.44v.43Zm.42,2.71l-.22-.37,.38-.21,.22,.37-.38,.21Zm2.14,1.93l-.38-.21,.22-.37,.38,.21-.22,.37Zm2.84,.63h-.44v-.43h.44v.43Zm2.4-.63l-.22-.37,.38-.21,.22,.37-.38,.21Zm-2.62-.13c-2.68,0-4.85-2.12-4.85-4.73S6.32,1.12,9,1.12s4.85,2.12,4.85,4.73-2.17,4.73-4.85,4.73Zm4.76-1.8l-.38-.21,.22-.37,.38,.21-.22,.37Zm-.16-5.27l-.22-.37,.38-.21,.22,.37-.38,.21Zm.59,2.56v-.43h.44v.43h-.44Z"/></g></g></g></g></svg>