<?xml version="1.0" encoding="UTF-8"?><svg id="_023_Q4" xmlns="http://www.w3.org/2000/svg" viewBox="0 0 23 18"><defs><style>.cls-1{fill:#81858d;}.cls-2{fill:none;stroke:#81858d;stroke-miterlimit:10;stroke-width:.76px;}</style></defs><g id="icon_8_mobile_design_for_pioneer"><g id="_лой_25"><path class="cls-1" d="M21,0H2C.9,0,0,.91,0,2.03V15.97c0,1.12,.9,2.03,2,2.03H21c1.1,0,2-.91,2-2.03V2.03c0-1.12-.9-2.03-2-2.03Zm-1.3,14c0,1.14-.91,2.06-2.03,2.06H4.04c-1.12,0-2.03-.92-2.03-2.06V4c0-1.14,.91-2.06,2.03-2.06h13.62c1.12,0,2.03,.92,2.03,2.06V14Zm2.06-4.62h-1v-.76h1v.76Z"/><g><polyline class="cls-2" points="4.07 13.22 8.97 8.07 11.6 10.76 13.36 8.81 17.64 13.23"/><rect class="cls-2" x="3.88" y="2.92" width="13.95" height="12.17" rx="2.55" ry="2.55"/><ellipse class="cls-2" cx="15.07" cy="5.84" rx="1.21" ry="1.22"/></g></g></g></svg>