<?xml version="1.0" encoding="UTF-8"?><svg id="_024_Q2" xmlns="http://www.w3.org/2000/svg" viewBox="0 0 23 23"><defs><style>.cls-1{fill:#81858d;}</style></defs><g id="icon_24_DAO_Creator_Channel_Payout_tooling_improvements"><g><g><path class="cls-1" d="M15.86,0c-2.62,0-4.74,2.12-4.74,4.73s2.12,4.73,4.74,4.73,4.74-2.12,4.74-4.73S18.47,0,15.86,0Zm0,8.78c-2.24,0-4.06-1.81-4.06-4.05S13.61,.68,15.86,.68s4.06,1.81,4.06,4.05-1.82,4.05-4.06,4.05Z"/><path class="cls-1" d="M15.97,3.88c-.06-.05-.13-.09-.21-.11s-.17-.04-.26-.04-.18,.01-.26,.04-.15,.06-.21,.11-.11,.11-.14,.18-.05,.15-.05,.24v.85c0,.09,.02,.17,.05,.24s.08,.13,.14,.18,.13,.09,.21,.11,.17,.04,.26,.04,.18-.01,.26-.04,.15-.06,.21-.11c.06-.05,.11-.11,.14-.18s.05-.15,.05-.24v-.85c0-.09-.02-.17-.05-.24s-.08-.13-.14-.18Z"/><path class="cls-1" d="M15.86,.84c-2.15,0-3.89,1.74-3.89,3.88s1.75,3.88,3.89,3.88,3.89-1.74,3.89-3.88-1.75-3.88-3.89-3.88Zm-2.15,5.26h-1.38v-.44h.85V3.35h.53v2.76Zm2.7-.3c-.21,.24-.52,.37-.91,.37s-.7-.12-.91-.37c-.21-.24-.32-.6-.32-1.07s.11-.83,.32-1.07c.21-.24,.52-.36,.91-.36s.69,.12,.91,.36,.32,.6,.32,1.07-.11,.83-.32,1.07Zm2.05-.77v1.08h-.53v-1.08l-.92-1.68h.6l.59,1.14,.59-1.14h.59l-.92,1.68Z"/></g><path class="cls-1" d="M0,23H7.05l1.56-2.61c.08-.13,.19-.23,.33-.3,.92-.44,4.57-2.2,4.81-2.2,0,0,3.45-1.4,4.43-2.72s4.82-7.44,4.82-7.44c0,0-1.87-1.34-3.21,.3-1.19,1.46-3.21,4.12-3.63,4.67-.05,.07-.12,.12-.2,.16-.79,.37-5.16,2.25-6.85-.6l1.59-1.24c.6-.47,1.11-1.05,1.45-1.74,.39-.78,.62-1.8,.01-2.72l-4.44,2.91c-.2,.13-.4,.27-.6,.41-.24,.18-.67,.47-1.12,.71,0,0-2.02,1.26-2.53,2.53s-.59,1.65-.59,1.65c0,0-1.65,5.21-2.88,8.22Z"/></g></g></svg>