<?xml version="1.0" encoding="UTF-8"?><svg id="_023_Q4" xmlns="http://www.w3.org/2000/svg" viewBox="0 0 23 23"><defs><style>.cls-1{fill:#81858d;}</style></defs><g id="icon_5_stablecoin_treasury"><g id="_лой_16"><g id="JOY"><g><path class="cls-1" d="M23,11.47v.28c-.27,6.29-5.42,11.24-11.67,11.24h-.19c4.86-.29,9.11-4.91,9.11-11.48S15.72,.02,10.66,.02v-.02h1.03c6.18,0,11.22,4.98,11.31,11.18v.29Z"/><g><path class="cls-1" d="M8.52,9.92c-.09-.03-.18-.04-.29-.04h-.06c-.12,0-.23,.03-.33,.07-.1,.04-.18,.1-.25,.17-.07,.08-.13,.16-.17,.27-.04,.11-.07,.23-.07,.37v1.62c0,.14,.02,.27,.07,.37,.04,.1,.1,.2,.17,.27,.07,.07,.15,.13,.24,.17,.1,.04,.21,.07,.34,.07,.13,0,.24,0,.34-.04,.1-.03,.18-.08,.26-.15,.08-.07,.14-.16,.18-.27s.07-.24,.07-.39v-1.71c0-.15-.02-.28-.07-.39s-.11-.19-.18-.26c-.07-.07-.16-.12-.26-.15Z"/><path class="cls-1" d="M9.67,.02c-.56,0-1.11,.06-1.67,.17C3.27,1.15,0,6.16,0,11.51s3.27,10.35,7.99,11.32c.72,.15,1.43,.2,2.15,.16,4.86-.29,9.11-4.91,9.11-11.48S14.73,.02,9.67,.02Zm-3.98,14.34l-2.35-.16v-1.27l1.12,.05v-4.11l1.23-.08v5.56Zm4.22-.44c-.39,.49-.91,.73-1.56,.73-.06,0-.13,0-.19,0-.7-.05-1.25-.35-1.62-.9-.35-.52-.52-1.23-.52-2.17s.17-1.65,.52-2.17c.37-.55,.92-.85,1.62-.9,.74-.05,1.33,.19,1.75,.73,.42,.53,.63,1.31,.63,2.34s-.21,1.81-.63,2.34Zm4.01-1.61v2.61l-1.59-.11v-2.52l-1.93-3.81,1.68-.11,1.04,2.13,1.1-2.28,1.91-.13-2.22,4.22Z"/></g></g></g></g></g></svg>