<?xml version="1.0" encoding="UTF-8"?><svg id="_024_Q2" xmlns="http://www.w3.org/2000/svg" viewBox="0 0 14 23"><defs><style>.cls-1{fill:#81858d;}</style></defs><g id="icon_21_dApp_Operator_Developer_Grants___Support"><g id="_лой_67"><g><path class="cls-1" d="M5.99,18.05H1.49c-.82,0-1.49-.64-1.49-1.42V1.42C0,.64,.67,0,1.49,0H12.51c.82,0,1.49,.64,1.49,1.42V11.91h-1.01V1.42c0-.24-.22-.43-.49-.43H1.49c-.27,0-.49,.19-.49,.43v15.21c0,.24,.22,.43,.49,.43H5.99v.99Z"/><rect class="cls-1" x="2.53" y="2.51" width="8.95" height="1.02"/><rect class="cls-1" x="2.53" y="5.08" width="8.95" height="1.02"/><rect class="cls-1" x="2.53" y="7.65" width="8.95" height="1.02"/><rect class="cls-1" x="2.53" y="10.22" width="6.06" height="1.02"/><rect class="cls-1" x="2.53" y="12.79" width="2.98" height="1.02"/><path class="cls-1" d="M10.29,18.78c-1.98,0-3.58-1.51-3.58-3.37s1.61-3.37,3.58-3.37,3.58,1.51,3.58,3.37-1.61,3.37-3.58,3.37Zm0-6c-1.56,0-2.83,1.18-2.83,2.63s1.27,2.63,2.83,2.63,2.83-1.18,2.83-2.63-1.27-2.63-2.83-2.63Z"/><polygon class="cls-1" points="12.37 23 10.29 21.43 8.21 23 8.21 18.23 8.96 18.23 8.96 21.5 10.29 20.5 11.62 21.5 11.62 18.23 12.37 18.23 12.37 23"/></g></g></g></svg>