<?xml version="1.0" encoding="UTF-8"?><svg id="_024_Q1" xmlns="http://www.w3.org/2000/svg" viewBox="0 0 23 20"><defs><style>.cls-1{fill:#81858d;}</style></defs><g id="icon_17_automated_thumbnail_generation"><g id="_лой_54"><g><g><polygon class="cls-1" points="12.54 20 9.12 15.8 9.63 15.4 13.04 19.6 12.54 20"/><polygon class="cls-1" points="6.21 20 5.71 19.6 9.12 15.4 9.63 15.8 6.21 20"/><path class="cls-1" d="M13.16,16.1H6.21c-1.33,0-2.41-1.07-2.41-2.39v-1.77H0v-1.29c0-1.32,1.08-2.39,2.41-2.39H13.16c1.33,0,2.41,1.07,2.41,2.39v3.06c0,1.32-1.08,2.39-2.41,2.39Z"/><path class="cls-1" d="M16.95,13.71v-3.06l4.49-1.09c.7-.23,1.56,.06,1.56,.54v4.16c0,.47-.86,.77-1.56,.54l-4.49-1.09Z"/></g><ellipse class="cls-1" cx="12.96" cy="3.4" rx="3.43" ry="3.4"/><ellipse class="cls-1" cx="4.32" cy="3.4" rx="3.43" ry="3.4"/></g></g></g></svg>