<?xml version="1.0" encoding="UTF-8"?><svg id="_024_Q4" xmlns="http://www.w3.org/2000/svg" viewBox="0 0 19 24"><defs><style>.cls-1{fill:#81858d;}</style></defs><g id="icon_33_Premium_Content_Gating_Features"><g><polygon class="cls-1" points="9.29 10.35 3 3.72 3.77 3.04 10.05 9.67 9.29 10.35"/><polygon class="cls-1" points="9.67 14.98 4.9 10.37 5.64 9.66 9.67 13.56 16.5 6.96 2.85 6.96 5.63 9.66 4.89 10.37 .36 5.96 19 5.96 9.67 14.98"/><polygon class="cls-1" points="14.08 10.51 5.27 10.51 5.26 9.51 14.08 9.51 14.08 10.51"/><rect class="cls-1" x="9.15" y="14.27" width="1.04" height="7.37"/><g><polygon class="cls-1" points="14.08 10.01 9.67 14.27 5.27 10.01 9.67 10.01 14.08 10.01"/><polygon class="cls-1" points="14.08 24 5.26 24 9.67 21.27 14.08 24"/><path class="cls-1" d="M4.52,2.18c0,.64-.28,1.21-.73,1.62-.39,.35-.93,.57-1.52,.57-1.25,0-2.27-.98-2.27-2.2S1.01,0,2.27,0s2.25,.98,2.25,2.18Z"/></g></g></g></svg>