<?xml version="1.0" encoding="UTF-8"?><svg id="_024_Q1" xmlns="http://www.w3.org/2000/svg" viewBox="0 0 22 24"><defs><style>.cls-1{fill:#81858d;}</style></defs><g id="icon_19_governance_tooling"><g id="_лой_60"><g><g><polygon class="cls-1" points="0 5.65 11 0 22 5.65 22 7.38 0 7.38 0 5.65"/><rect class="cls-1" x="1.83" y="19.87" width="18.33" height="1.85"/><path class="cls-1" d="M22,24H0v-.15c0-.94,.76-1.69,1.69-1.69H20.31c.94,0,1.69,.76,1.69,1.69v.15Z"/><rect class="cls-1" x="1.83" y="7.89" width="18.33" height="1.85"/><rect class="cls-1" x="1.83" y="10.15" width="1.83" height="9.23"/><rect class="cls-1" x="16.01" y="10.15" width="1.83" height="9.23"/><rect class="cls-1" x="4.21" y="10.15" width="1.83" height="9.23"/><rect class="cls-1" x="18.33" y="10.15" width="1.83" height="9.23"/></g><g><path class="cls-1" d="M11.54,16.06l3.15,3.17c.24,.24,.63,.24,.87,0s.24-.63,0-.88l-3.15-3.17"/><g><line class="cls-1" x1="7.78" y1="18.25" x2="8.43" y2="18.91"/><line class="cls-1" x1="10.68" y1="15.44" x2="11.22" y2="15.98"/><path class="cls-1" d="M15.58,11.48l-.44-.45-1.69,.81,.14,.59-2.98,3-.31,.05-2.77,2.79c-.24,.24-.24,.63,0,.88s.63,.24,.87,0l2.77-2.79,.05-.31,2.98-3,.59,.14,.8-1.7Z"/></g><path class="cls-1" d="M11.46,14.31l-1.51-1.52c.12-.26,.2-.54,.2-.84,0-1.06-.85-1.92-1.91-1.92v1.04c.48,0,.87,.39,.87,.87s-.39,.87-.87,.87c-.48,0-.87-.39-.87-.87h-1.04c0,1.06,.85,1.92,1.91,1.92,.3,0,.59-.07,.84-.2l1.51,1.52"/></g></g></g></g></svg>