<svg width="18" height="22" viewBox="0 0 18 22" fill="none" xmlns="http://www.w3.org/2000/svg">
<path fill-rule="evenodd" clip-rule="evenodd" d="M2.60025 3.37782C1.96294 3.45605 1.30863 3.45605 0 3.45605V8.96922C0 9.76973 0 10.17 0.0219468 10.5324C0.302192 15.1597 3.22274 19.2118 7.52401 20.9409C7.86085 21.0763 8.24057 21.2029 9 21.4561C9.75943 21.2029 10.1391 21.0763 10.476 20.9409C14.7773 19.2118 17.6978 15.1597 17.9781 10.5324C18 10.17 18 9.76973 18 8.96922V3.45605C16.6914 3.45605 16.0371 3.45605 15.3998 3.37782C14.2028 3.23088 13.0401 2.87885 11.9627 2.33716C11.389 2.04875 10.8446 1.6858 9.75578 0.959905L9 0.456055L8.24422 0.959904C7.15538 1.6858 6.61096 2.04875 6.03729 2.33716C4.95987 2.87885 3.79719 3.23088 2.60025 3.37782ZM12 7.95605C12 9.06648 11.3967 10.036 10.5 10.5547V16.9561H7.5V10.5547C6.6033 10.036 6 9.06648 6 7.95605C6 6.2992 7.34315 4.95605 9 4.95605C10.6569 4.95605 12 6.2992 12 7.95605Z" fill="#81858D"/>
</svg>