<svg width="24" height="25" viewBox="0 0 24 25" fill="none" xmlns="http://www.w3.org/2000/svg">
<path fill-rule="evenodd" clip-rule="evenodd" d="M15.7168 18.7944C14.2455 19.8421 12.4457 20.4583 10.502 20.4583C5.53139 20.4583 1.50195 16.4288 1.50195 11.4583C1.50195 6.48769 5.53139 2.45825 10.502 2.45825C15.4725 2.45825 19.502 6.48769 19.502 11.4583C19.502 13.402 18.8858 15.2018 17.8381 16.6731L22.4976 21.3326L20.3763 23.4539L15.7168 18.7944ZM16.502 11.4583C16.502 14.772 13.8157 17.4583 10.502 17.4583C7.18824 17.4583 4.50195 14.772 4.50195 11.4583C4.50195 8.14454 7.18824 5.45825 10.502 5.45825C13.8157 5.45825 16.502 8.14454 16.502 11.4583Z" fill="#81858D"/>
</svg>