<svg width="14" height="14" viewBox="0 0 14 14" fill="none" xmlns="http://www.w3.org/2000/svg">
<path d="M12.4447 11.0306L13.7071 12.293L12.2929 13.7072L0.292893 1.70718L1.70711 0.292969L3.4714 2.05727L4 1.00008H6V4.58586L8 6.58586V5.00008C9.10457 5.00008 10 5.89551 10 7.00008C10 7.44671 9.8536 7.85915 9.60616 8.19202L11.028 9.61385C11.6337 8.91281 12 7.99922 12 7.00008C12 4.79094 10.2091 3.00008 8 3.00008V1.00008C11.3137 1.00008 14 3.68637 14 7.00008C14 8.55155 13.4111 9.96549 12.4447 11.0306Z" fill="#F4F6F8"/>
<path d="M6 9.91429L1.08579 5.00008H1C0.447715 5.00008 0 5.44779 0 6.00008V8.00008C0 8.55236 0.447715 9.00008 1 9.00008H2L4 13.0001H6V9.91429Z" fill="#F4F6F8"/>
</svg>
