<svg width="16" height="16" viewBox="0 0 16 16" fill="none" xmlns="http://www.w3.org/2000/svg">
<path fill-rule="evenodd" clip-rule="evenodd" d="M9 4C11.2091 4 13 5.79086 13 8C13 9.64527 12.0067 11.0585 10.587 11.6728L12.0702 13.156C13.8248 12.109 15 10.1917 15 8C15 4.68629 12.3137 2 9 2V4Z" fill="#F4F6F8"/>
<path d="M9 9C9.55228 9 10 8.55228 10 8C10 7.44772 9.55228 7 9 7" stroke="#F4F6F8" stroke-width="2"/>
<path fill-rule="evenodd" clip-rule="evenodd" d="M3.63807 4.72386L7 8.08579V2H5L3.63807 4.72386ZM7 10.9142L2.08579 6H2C1.44772 6 1 6.44772 1 7V9C1 9.55228 1.44772 10 2 10H3L5 14H7V10.9142Z" fill="#F4F6F8"/>
<path d="M2 2L14 14" stroke="#F4F6F8" stroke-width="2"/>
</svg>
