<svg width="48" height="48" viewBox="0 0 48 48" fill="none" xmlns="http://www.w3.org/2000/svg">
<path d="M7 27L25 17.5L29 23C26.7909 23 25 24.7909 25 27V31H7V27Z" fill="#F4F6F8"/>
<path d="M25 34H5C4.44772 34 4 33.5523 4 33V7C4 6.44771 4.44772 6 5 6H35C35.5523 6 36 6.44772 36 7V23" stroke="#F4F6F8" stroke-width="2"/>
<path d="M36 42H29C28.4477 42 28 41.5523 28 41V27C28 26.4477 28.4477 26 29 26H43C43.5523 26 44 26.4477 44 27V41C44 41.5523 43.5523 42 43 42H40" stroke="#F4F6F8" stroke-width="2" stroke-miterlimit="10" stroke-linecap="square"/>
<path d="M36 42L36 32" stroke="#F4F6F8" stroke-width="2" stroke-miterlimit="10"/>
<path d="M33 35L36 32L39 35" stroke="#F4F6F8" stroke-width="2" stroke-miterlimit="10" stroke-linecap="square"/>
<circle cx="12" cy="14" r="3" fill="#F4F6F8"/>
</svg>
