<svg width="48" height="48" viewBox="0 0 48 48" fill="none" xmlns="http://www.w3.org/2000/svg">
<path fill-rule="evenodd" clip-rule="evenodd" d="M29.8406 7.42987L32.1113 12.8005L33.3914 11.0462C35.069 12.2624 36.4958 13.794 37.591 15.5569C38.7782 17.468 39.549 19.608 39.8532 21.8373C40.1573 24.0665 39.9878 26.3348 39.3559 28.4941C38.7239 30.6534 37.6437 32.6551 36.1857 34.3686C34.7277 36.0821 32.9247 37.4689 30.8944 38.4384C29.6637 39.0261 28.3661 39.4524 27.034 39.7097C26.6362 39.7865 26.2369 39.848 25.837 39.8942C25.3617 39.9492 24.8832 39.9828 24.4031 39.9949C23.8376 40.0092 23.2729 39.9934 22.7114 39.948C21.7489 39.8702 20.7953 39.7055 19.8625 39.4558C19.1759 39.272 18.5007 39.0422 17.8416 38.7673C17.385 38.5769 16.9384 38.3658 16.5031 38.1349C16.29 38.0219 16.079 37.9038 15.8704 37.7808C15.6828 37.6701 15.4978 37.5558 15.3155 37.438C14.2346 36.7395 13.2391 35.9112 12.352 34.9692L12.352 34.9693C11.7304 34.3092 11.1659 33.5973 10.6648 32.8415L8.99787 33.9467C9.59819 34.8521 10.2793 35.7014 11.0327 36.484L11.0327 36.484C11.788 37.2685 12.6111 37.981 13.491 38.6137L13.4909 38.6137C13.7654 38.8111 14.046 39.0011 14.3324 39.1835C14.5043 39.2929 14.6782 39.3996 14.8542 39.5034C15.2062 39.711 15.5641 39.906 15.9273 40.0883C16.0484 40.149 16.1701 40.2084 16.2923 40.2663L16.2923 40.2663C16.5491 40.3879 16.8089 40.5036 17.0718 40.6132C17.8133 40.9225 18.5729 41.181 19.3453 41.3878C20.3947 41.6687 21.4675 41.854 22.5503 41.9415C23.182 41.9926 23.8172 42.0103 24.4535 41.9943C24.9048 41.9829 25.3548 41.9546 25.8026 41.9095L25.8026 41.9095C25.9372 41.896 26.0717 41.8809 26.2061 41.8643C26.6094 41.8145 27.012 41.7509 27.4133 41.6734C28.9119 41.384 30.3716 40.9043 31.7562 40.2432C34.0403 39.1525 36.0687 37.5924 37.7089 35.6647C39.3492 33.737 40.5644 31.485 41.2754 29.0558C41.9863 26.6266 42.1769 24.0748 41.8348 21.5669C41.4927 19.059 40.6255 16.6515 39.2898 14.5015C38.0588 12.52 36.4554 10.7982 34.5703 9.43054L35.648 7.9536L29.8406 7.42987ZM14.9344 8.44957C15.4017 8.17713 15.8828 7.92494 16.3764 7.69416L17.2235 9.50592C16.7846 9.71108 16.357 9.93526 15.9416 10.1774L14.9344 8.44957ZM10.0162 12.6662C10.7002 11.8223 11.4593 11.042 12.284 10.3349L13.5858 11.8532C12.8527 12.4817 12.178 13.1754 11.5699 13.9256L10.0162 12.6662ZM7.48965 16.8301C7.70669 16.3303 7.9455 15.8424 8.20491 15.3677L9.95994 16.3268C9.72936 16.7488 9.51708 17.1824 9.32413 17.6267C9.13118 18.071 8.95922 18.5222 8.80831 18.9787L6.90936 18.351C7.07914 17.8374 7.2726 17.3299 7.48965 16.8301ZM6.01636 24.7675C5.97006 23.6822 6.02209 22.5948 6.17182 21.5188L8.15273 21.7944C8.01964 22.7509 7.97338 23.7175 8.01454 24.6823L6.01636 24.7675ZM6.88045 29.5606C6.71212 29.0424 6.56801 28.5187 6.44805 27.9912L8.39825 27.5477C8.50488 28.0166 8.63298 28.4821 8.78262 28.9428C8.93227 29.4035 9.10216 29.8554 9.2914 30.2975L7.45281 31.0846C7.23991 30.5873 7.04878 30.0789 6.88045 29.5606Z" fill="#F4F6F8"/>
</svg>
