<svg width="48" height="48" viewBox="0 0 48 48" fill="none" xmlns="http://www.w3.org/2000/svg">
<g id="Frame 369">
<g id="Group 368">
<g id="Group 367">
<g id="Rectangle 258">
<mask id="path-1-outside-1" maskUnits="userSpaceOnUse" x="7" y="2" width="34" height="44" fill="black">
<rect fill="white" x="7" y="2" width="34" height="44"/>
<path d="M9 44H39V14L29 4H9V44Z"/>
</mask>
<path d="M9 44H39V14L29 4H9V44Z" stroke="#7B8A95" stroke-width="4" stroke-linejoin="round" stroke-dasharray="8 2" mask="url(#path-1-outside-1)"/>
</g>
<g id="Vector 32">
<mask id="path-2-outside-2" maskUnits="userSpaceOnUse" x="27" y="2" width="14" height="14" fill="black">
<rect fill="white" x="27" y="2" width="14" height="14"/>
<path d="M29 14V4L39 14H29Z"/>
</mask>
<path d="M29 14V4L39 14H29Z" fill="#7B8A95"/>
<path d="M29 14V4L39 14H29Z" stroke="#7B8A95" stroke-width="4" stroke-linejoin="round" mask="url(#path-2-outside-2)"/>
</g>
</g>
<g id="Icon">
<path id="Vector 25" d="M19 35L24 30L29 35" stroke="#7B8A95" stroke-width="2"/>
<path id="Vector 26" d="M29 25L24 30L19 25" stroke="#7B8A95" stroke-width="2"/>
</g>
</g>
</g>
</svg>
