<svg width="24" height="24" viewBox="0 0 24 24" fill="none" xmlns="http://www.w3.org/2000/svg">
<path d="M10 19.313L7.61322 20.5675C6.87962 20.9531 6.0223 20.3301 6.16236 19.5133L6.91116 15.1461C6.96678 14.8217 6.85923 14.4908 6.62357 14.261L3.4509 11.1683C2.8574 10.5898 3.18492 9.58182 4.00514 9.46265L8.38977 8.82558C8.71546 8.77826 8.99701 8.57371 9.14269 8.27859L11.1033 4.30662C11.4701 3.56345 12.5299 3.56345 12.8967 4.30662L14.8573 8.27859C15.003 8.57371 15.2845 8.77826 15.6102 8.82558L19.9947 9.46262C20.8149 9.5818 21.1424 10.5898 20.5489 11.1684L19 12.678" stroke="#F4F6F8" stroke-width="2" stroke-miterlimit="10" stroke-linecap="square"/>
<path d="M23 21H14" stroke="#F4F6F8" stroke-width="2" stroke-miterlimit="10" stroke-linecap="square"/>
<path d="M23 17H14" stroke="#F4F6F8" stroke-width="2" stroke-miterlimit="10" stroke-linecap="square"/>
</svg>
