<svg width="24" height="24" viewBox="0 0 24 24" fill="none" xmlns="http://www.w3.org/2000/svg">
<path fill-rule="evenodd" clip-rule="evenodd" d="M16 3C13.7909 3 12 4.79086 12 7C12 9.20914 13.7909 11 16 11C18.2091 11 20 9.20914 20 7C20 4.79086 18.2091 3 16 3ZM14 7C14 5.89543 14.8954 5 16 5C17.1046 5 18 5.89543 18 7C18 8.10457 17.1046 9 16 9C14.8954 9 14 8.10457 14 7Z" fill="#F4F6F8"/>
<path d="M6 5C4.89543 5 4 5.89543 4 7C4 8.10457 4.89543 9 6 9C7.10457 9 8 8.10457 8 7C8 5.89543 7.10457 5 6 5Z" fill="#F4F6F8"/>
<path d="M12.5 19H21V18C21 16.3431 19.6569 15 18 15H14C12.3431 15 11 16.3431 11 18L11 19.5H9L9 18C9 17.6575 9.03443 17.3231 9.10002 17H5V15H8.99103C8.88999 13.8787 7.94761 13 6.8 13L5 13C3.89543 13 3 13.8954 3 15L3 17H1V15C1 12.7909 2.79086 11 5 11H6.8C8.7429 11 10.3777 12.3192 10.8574 14.1108C11.7161 13.4161 12.8094 13 14 13H18C20.7614 13 23 15.2386 23 18V19C23 20.1046 22.1046 21 21 21H12.5V19Z" fill="#F4F6F8"/>
</svg>
