<svg width="24" height="24" viewBox="0 0 24 24" fill="none" xmlns="http://www.w3.org/2000/svg">
<path d="M1 22V4.125C1 3.56141 1.21071 3.02091 1.58579 2.6224C1.96086 2.22388 2.46957 2 3 2H21C21.5304 2 22.0391 2.22388 22.4142 2.6224C22.7893 3.02091 23 3.56141 23 4.125V14.875C23 15.4386 22.7893 15.9791 22.4142 16.3776C22.0391 16.7761 21.5304 17 21 17H5" stroke="#F4F6F8" stroke-width="2" stroke-miterlimit="10" stroke-linecap="square"/>
<path d="M8.47564 12.0909H7.11636L4.92145 8.24C4.92145 8.24 4.95636 9.44727 4.95636 12.0909H4V7H5.34909L7.54036 10.8131C7.54036 10.8131 7.51636 7.86036 7.51273 7H8.47564V12.0909Z" fill="#F4F6F8"/>
<path d="M12.7004 12.0909H9.79492V7H12.7004V7.88436H10.8647V9.00218H12.5731V9.88655H10.8647V11.1993H12.7004V12.0909V12.0909Z" fill="#F4F6F8"/>
<path d="M18.7164 12.0909H17.4982L16.8146 9.41673C16.7644 9.22764 16.5993 8.44218 16.5804 8.22546C16.5513 8.48873 16.4073 9.19273 16.3491 9.42327L15.6691 12.0909H14.4546L13.1673 7H14.2197L14.8648 9.77891C14.9775 10.2916 15.0589 10.736 15.1098 11.1127C15.2117 10.44 15.8029 8.04582 16.0793 7H17.0909L17.8262 9.85164C17.9004 10.1469 18.0146 10.7949 18.0575 11.112C18.1055 10.7345 18.2269 10.0967 18.3062 9.77818L18.9477 7H20L18.7164 12.0909Z" fill="#F4F6F8"/>
</svg>
