<svg width="24" height="24" viewBox="0 0 24 24" fill="none" xmlns="http://www.w3.org/2000/svg">
<path d="M20 12C19.999 11.4239 19.936 10.8496 19.812 10.287L21.8223 8.76484C22.2243 8.46042 22.3368 7.9043 22.0846 7.46758L20.9674 5.53249C20.7152 5.09574 20.1773 4.91511 19.7127 5.11114L17.383 6.094C16.5319 5.31362 15.5217 4.72714 14.422 4.375L14.1095 1.87593C14.047 1.37552 13.6216 1 13.1172 1H10.8827C10.3784 1 9.95305 1.37552 9.89048 1.87593L9.578 4.375C8.47831 4.72714 7.46808 5.31362 6.617 6.094L4.28734 5.11114C3.82269 4.91511 3.28477 5.09574 3.03261 5.53249L1.91535 7.46758C1.6632 7.9043 1.77568 8.46042 2.17771 8.76484L4.188 10.287C3.937 11.4152 3.937 12.5848 4.188 13.713L2.17771 15.2352C1.77567 15.5396 1.6632 16.0957 1.91535 16.5324L3.03261 18.4675C3.28477 18.9043 3.82268 19.0849 4.28734 18.8889L6.617 17.906C7.46808 18.6864 8.47831 19.2729 9.578 19.625L9.89048 22.1241C9.95305 22.6245 10.3784 23 10.8827 23H13.1172C13.6216 23 14.047 22.6245 14.1095 22.1241L14.422 19.625C15.5217 19.2729 16.5319 18.6864 17.383 17.906L19.7127 18.8889C20.1773 19.0849 20.7152 18.9043 20.9674 18.4675L22.0846 16.5324C22.3368 16.0957 22.2243 15.5396 21.8223 15.2352L19.812 13.713C19.936 13.1504 19.999 12.5761 20 12Z" stroke="#F4F6F8" stroke-width="2" stroke-miterlimit="10" stroke-linecap="square"/>
<circle cx="12" cy="12" r="3" stroke="#F4F6F8" stroke-width="2"/>
</svg>
