<svg width="24" height="24" viewBox="0 0 24 24" fill="none" xmlns="http://www.w3.org/2000/svg">
<path fill-rule="evenodd" clip-rule="evenodd" d="M10 21.0015C10 22.1079 9.10266 23 8 23L3 23C1.89543 23 1 22.1046 1 21L0.999999 11.4454C0.999999 10.8784 1.24064 10.3381 1.66207 9.95877L12 0.654637L22.3379 9.95877C22.7594 10.3381 23 10.8784 23 11.4454L23 21C23 22.1046 22.1046 23 21 23L16 23C14.8954 23 14 22.1046 14 21L14 19L16 19L16 21L21 21L21 11.4454L12 3.34536L3 11.4454L3 21L8 21L8 16.9996C8 15.8944 8.896 15 10 15L16 15L16 17L10 17L10 21.0015Z" fill="#F4F6F8"/>
</svg>
