<svg width="24" height="24" viewBox="0 0 24 24" fill="none" xmlns="http://www.w3.org/2000/svg">
<path d="M15 20L15 21C15 21.5523 15.4477 22 16 22L21 22C21.5523 22 22 21.5523 22 21L22 11.4454C22 11.1619 21.8797 10.8917 21.669 10.7021L12 2L2.33103 10.7021C2.12032 10.8917 2 11.1619 2 11.4454L2 21C2 21.5523 2.44772 22 3 22L8 22C8.55228 22 9 21.5538 9 21.0015C9 19.8442 9 18.0931 9 16.9996C9 16.4473 9.44771 16 10 16L15 16" stroke="#F4F6F8" stroke-width="2" stroke-miterlimit="10" stroke-linecap="square"/>
</svg>
