<svg width="24" height="24" viewBox="0 0 24 24" fill="none" xmlns="http://www.w3.org/2000/svg">
<path fill-rule="evenodd" clip-rule="evenodd" d="M3 3C1.89543 3 1 3.89543 1 5V19C1 20.1046 1.89543 21 3 21H21C22.1046 21 23 20.1046 23 19V5C23 3.89543 22.1046 3 21 3H3ZM5 9C5 7.89543 5.89543 7 7 7H9C10.1046 7 11 7.89543 11 9V11H9V9H7V15H9V13H11V15C11 16.1046 10.1046 17 9 17H7C5.89543 17 5 16.1046 5 15V9ZM13 9C13 7.89543 13.8954 7 15 7H17C18.1046 7 19 7.89543 19 9V11H17V9H15V15H17V13H19V15C19 16.1046 18.1046 17 17 17H15C13.8954 17 13 16.1046 13 15V9Z" fill="#F4F6F8"/>
</svg>
