<svg width="24" height="24" viewBox="0 0 24 24" fill="none" xmlns="http://www.w3.org/2000/svg">
<path d="M15.3259 13.4973L12 10.1714V3.99991H10L8.14602 6.31738L3.92898 2.10034L2.51477 3.51456L20.5148 21.5146L21.929 20.1003L19.5705 17.7418C21.0689 16.2879 22 14.2527 22 11.9999C22 7.58163 18.4183 3.99991 14 3.99991V5.99991C17.3137 5.99991 20 8.6862 20 11.9999C20 13.7004 19.2926 15.2356 18.1561 16.3274L16.7414 14.9128C17.5162 14.1833 18 13.1481 18 11.9999C18 9.79077 16.2091 7.99991 14 7.99991V9.99991C15.1046 9.99991 16 10.8953 16 11.9999C16 12.5958 15.7394 13.1309 15.3259 13.4973Z" fill="#F4F6F8"/>
<path d="M5.17172 8.99991H3C2.44772 8.99991 2 9.44762 2 9.99991V13.9999C2 14.5522 2.44772 14.9999 3 14.9999H6L10 19.9999H12V15.8282L5.17172 8.99991Z" fill="#F4F6F8"/>
<path d="M14 17.9999C14.0566 17.9999 14.1131 17.9991 14.1694 17.9976L15.9359 19.7641C15.316 19.9181 14.6676 19.9999 14 19.9999V17.9999Z" fill="#F4F6F8"/>
</svg>
