<svg width="24" height="24" viewBox="0 0 24 24" fill="none" xmlns="http://www.w3.org/2000/svg">
<path d="M21.2218 20.8076L3.2218 2.80762" stroke="#F4F6F8" stroke-width="2" stroke-miterlimit="10"/>
<path fill-rule="evenodd" clip-rule="evenodd" d="M14.8988 15.8986C16.6751 15.4908 18 13.9001 18 12C18 9.79086 16.2091 8 14 8V10C15.1046 10 16 10.8954 16 12C16 13.1046 15.1046 14 14 14V14.9998L14.8988 15.8986Z" fill="#F4F6F8"/>
<path fill-rule="evenodd" clip-rule="evenodd" d="M5.17172 9H3C2.44772 9 2 9.44772 2 10V14C2 14.5523 2.44772 15 3 15H6L10 20H12V15.8283L5.17172 9ZM12 12.9998V4H10L6.88896 7.8888L12 12.9998Z" fill="#F4F6F8"/>
<path fill-rule="evenodd" clip-rule="evenodd" d="M14.1694 17.9977C14.1131 17.9992 14.0566 18 14 18V20C14.6676 20 15.316 19.9182 15.9359 19.7642L14.1694 17.9977ZM17.9555 18.9553C20.3712 17.5785 22 14.9795 22 12C22 7.58172 18.4183 4 14 4V6C17.3137 6 20 8.68629 20 12C20 14.4333 18.5516 16.5282 16.4698 17.4697L17.9555 18.9553Z" fill="#F4F6F8"/>
</svg>
