<svg width="144" height="144" viewBox="0 0 144 144" fill="none" xmlns="http://www.w3.org/2000/svg">
<g clip-path="url(#clip0)">
<path fill-rule="evenodd" clip-rule="evenodd" d="M143.999 143.999C143.998 143.999 143.996 144 143.995 144L143.745 128.003C135.025 128.139 128 135.254 128 144H143.995C143.995 144 143.993 144.001 143.993 144.001L143.989 144.001C143.989 144.001 143.989 144.001 143.989 144.001M143.989 144.001C143.989 144.001 143.991 144.001 143.995 144.001L143.995 144C143.996 144 143.995 144 143.995 144L143.999 143.999C143.998 144.001 143.997 144.003 143.996 144.005C143.996 144.007 143.995 144.008 143.995 144.008C143.995 144.008 143.995 144.008 143.995 144.008C143.996 144.007 143.998 144.004 144.001 144.001C144.003 143.999 144.006 143.997 144.007 143.996C144.007 143.996 144.007 143.995 144.007 143.996C144.007 143.996 144.007 143.996 144.005 143.997C144.003 143.997 144.002 143.998 144 143.999C144 143.994 144 143.992 144 143.992C144 143.992 144 143.992 144 143.994C144 143.995 143.999 143.997 143.999 143.999" fill="white"/>
<path fill-rule="evenodd" clip-rule="evenodd" d="M144 112C126.342 112 112 126.342 112 144H96C96 117.506 117.506 96 144 96V112Z" fill="white"/>
<path fill-rule="evenodd" clip-rule="evenodd" d="M144 80C108.681 80 80 108.681 80 144H64C64 99.8449 99.8449 64 144 64V80Z" fill="white"/>
<path fill-rule="evenodd" clip-rule="evenodd" d="M144 48C91.0203 48 48 91.0203 48 144H32C32 82.1837 82.1837 32 144 32V48Z" fill="white"/>
<path fill-rule="evenodd" clip-rule="evenodd" d="M144 16C73.3603 16 16 73.3603 16 144H0C0 64.5237 64.5237 0 144 0V16Z" fill="white"/>
</g>
<defs>
<clipPath id="clip0">
<rect width="144" height="144" fill="white"/>
</clipPath>
</defs>
</svg>
