<svg width="24" height="25" viewBox="0 0 24 25" fill="none" xmlns="http://www.w3.org/2000/svg">
<g filter="url(#filter0_d)">
<path fill-rule="evenodd" clip-rule="evenodd" d="M21.1924 19.7772L20.0909 18.6757C20.6382 18.3188 21 17.7012 21 16.9991V6.9991C21 5.89453 20.1045 4.9991 19 4.9991H6.41429L4.22183 2.80664L2.80762 4.22085L19.7782 21.1914L21.1924 19.7772ZM19 16.9991H18.4143L16.4143 14.9991H17V10.9991H12.4143L8.41429 6.9991H19V16.9991Z" fill="#F4F6F8"/>
<path d="M2.99995 16.9991V6.9991L4.99995 8.9991V16.9991H13L15 18.9991H4.99995C3.89538 18.9991 2.99995 18.1037 2.99995 16.9991Z" fill="#F4F6F8"/>
</g>
<defs>
<filter id="filter0_d" x="-2" y="-1" width="28" height="28" filterUnits="userSpaceOnUse" color-interpolation-filters="sRGB">
<feFlood flood-opacity="0" result="BackgroundImageFix"/>
<feColorMatrix in="SourceAlpha" type="matrix" values="0 0 0 0 0 0 0 0 0 0 0 0 0 0 0 0 0 0 127 0"/>
<feOffset dy="1"/>
<feGaussianBlur stdDeviation="1"/>
<feColorMatrix type="matrix" values="0 0 0 0 0 0 0 0 0 0 0 0 0 0 0 0 0 0 0.32 0"/>
<feBlend mode="normal" in2="BackgroundImageFix" result="effect1_dropShadow"/>
<feBlend mode="normal" in="SourceGraphic" in2="effect1_dropShadow" result="shape"/>
</filter>
</defs>
</svg>
