<svg width="24" height="24" viewBox="0 0 24 24" fill="none" xmlns="http://www.w3.org/2000/svg">
<path fill-rule="evenodd" clip-rule="evenodd" d="M3 3C1.89543 3 1 3.89543 1 5V11H3V5H21V19H11V21H21C22.1046 21 23 20.1046 23 19V5C23 3.89543 22.1046 3 21 3H3ZM1 15C4.31371 15 7 17.6863 7 21H9C9 16.5817 5.41828 13 1 13V15ZM3 21C3 19.8954 2.10457 19 1 19V17C3.20914 17 5 18.7909 5 21H3ZM5 11V11.8321C7.30688 12.84 9.15999 14.6932 10.1679 17H12.3172L12.3172 17H19V7H13H11H5V9.68286V11Z" fill="#F4F6F8"/>
</svg>
