<svg width="21" height="20" viewBox="0 0 21 20" fill="none" xmlns="http://www.w3.org/2000/svg">
<path fill-rule="evenodd" clip-rule="evenodd" d="M4.99997 9C4.99997 5.13401 8.13398 2 12 2C15.866 2 19 5.13401 19 9V9.3381C19 10.2443 18.7537 11.1335 18.2874 11.9106L16.9975 14.0604C16.3448 15.1483 16 16.3932 16 17.6619V18H18V17.6619C18 16.7557 18.2463 15.8665 18.7125 15.0894L20.0024 12.9396C20.6552 11.8517 21 10.6068 21 9.3381V9C21 4.02944 16.9705 0 12 0C7.02941 0 2.99997 4.02944 2.99997 9V10.6667L1.39997 12.8C0.411114 14.1185 1.35188 16 2.99997 16V18C2.99997 19.1046 3.8954 20 4.99997 20C9.68635 20 13.5361 16.4181 13.961 11.8428C15.1465 11.4421 16 10.3207 16 9C16 7.34315 14.6568 6 13 6C11.3431 6 9.99997 7.34315 9.99997 9C9.99997 10.2887 10.8126 11.3877 11.9533 11.8124C11.5508 15.2957 8.59119 18 4.99997 18V15V14H3.99997H2.99997L4.79997 11.6L4.99997 11.3333V11V9ZM12 9C12 8.44772 12.4477 8 13 8C13.5523 8 14 8.44772 14 9C14 9.55228 13.5523 10 13 10C12.4477 10 12 9.55228 12 9Z" fill="#F4F6F8"/>
</svg>
