<svg width="24" height="24" viewBox="0 0 24 24" fill="none" xmlns="http://www.w3.org/2000/svg">
<path fill-rule="evenodd" clip-rule="evenodd" d="M13.0001 13.0376V3.04741C13.0379 3.05129 13.0755 3.05541 13.113 3.05976C13.5472 3.28951 13.9582 3.72268 14.304 4.40378C14.7482 5.27875 15.0118 6.43337 15.0704 7.66497C15.1289 8.89178 14.981 10.1348 14.6557 11.1674C14.367 12.0837 13.9726 12.7288 13.5656 13.0923C13.3776 13.0701 13.189 13.0518 13.0001 13.0376ZM11.0001 3.06024V13.0376C10.8111 13.0518 10.6226 13.0701 10.4345 13.0923C10.0275 12.7288 9.63313 12.0837 9.34444 11.1674C9.01911 10.1349 8.87128 8.89182 8.92969 7.665C8.98833 6.4334 9.25185 5.27878 9.69605 4.40381C10.0326 3.74081 10.431 3.31277 10.8524 3.0786C10.9014 3.07209 10.9506 3.06596 11.0001 3.06024ZM7.43962 4.38938C6.51714 5.0509 5.82043 5.90448 5.38983 6.85147C4.45516 8.90705 4.69802 11.5725 6.90493 13.9777L7.78649 13.6838C7.92093 13.639 8.056 13.5964 8.19164 13.5559C7.80789 12.9902 7.52083 12.3393 7.312 11.6765C6.91858 10.4278 6.7539 8.98337 6.82047 7.58517C6.87284 6.48531 7.07013 5.37643 7.43962 4.38938ZM17.1797 7.58511C17.1258 6.45513 16.919 5.31562 16.5297 4.30849C17.4947 4.97887 18.2173 5.86081 18.6542 6.84372C19.5676 8.89887 19.307 11.5687 17.0952 13.9777L16.2137 13.6838C16.0792 13.639 15.9441 13.5963 15.8085 13.5559C16.1923 12.9902 16.4793 12.3393 16.6882 11.6765C17.0816 10.4278 17.2463 8.98331 17.1797 7.58511ZM8.84517 15.4484C9.30673 15.7086 9.80411 15.9579 10.2931 16.1844C10.8686 16.4511 11.3981 16.6708 11.7838 16.8238C11.8847 16.8639 11.9756 16.8993 12.0546 16.9297C12.1303 16.8993 12.217 16.8641 12.3131 16.8245C12.69 16.669 13.2076 16.4463 13.7704 16.1777C14.2408 15.9531 14.7195 15.7071 15.1654 15.4514C14.1376 15.1522 13.072 15 12.0001 15C10.9318 15 9.8697 15.1512 8.84517 15.4484ZM8.38203 21L8.82926 21.8945C9.16805 22.572 9.86057 23 10.6181 23H13.382C14.1396 23 14.8321 22.572 15.1709 21.8945L15.6181 21H8.38203ZM16.3846 19H7.61554C7.6158 18.3991 7.89246 17.8305 8.34655 17.4543C7.41502 16.9639 6.45015 16.3644 5.79303 15.7073C2.77778 12.6924 2.21456 9.00282 3.56921 6.02362C4.91233 3.06978 8.05756 0.999981 12.0622 1C16.0512 1.00018 19.1673 3.07382 20.4818 6.03146C21.8061 9.0111 21.2183 12.6959 18.2072 15.7072C17.5527 16.3616 16.588 16.9667 15.6631 17.4622C16.1116 17.8385 16.3844 18.4033 16.3846 19Z" fill="#F4F6F8"/>
</svg>
