<svg width="20" height="22" viewBox="0 0 20 22" fill="none" xmlns="http://www.w3.org/2000/svg">
<path fill-rule="evenodd" clip-rule="evenodd" d="M8 4C8 3.44772 7.55228 3 7 3C6.44772 3 6 3.44772 6 4V5V6C6 6.55228 6.44772 7 7 7C7.55228 7 8 6.55228 8 6V4ZM11 7C10.4477 7 10 6.55228 10 6V4V3C10 2.44772 10.4477 2 11 2C11.5523 2 12 2.44772 12 3V3.81818V4V5.66667V6C12 6.55228 11.5523 7 11 7ZM13.4929 1.33044C12.9544 0.528074 12.0389 0 11 0C9.93774 0 9.00443 0.552095 8.47137 1.38499C8.03664 1.13986 7.53465 1 7 1C5.93774 1 5.00444 1.55209 4.47137 2.38499C4.03664 2.13986 3.53465 2 3 2C1.34315 2 0 3.34315 0 5V6V13C0 17.9706 4.02944 22 9 22H11V20H9C5.13401 20 2 16.866 2 13V8.82929C2.31278 8.93985 2.64936 9 3 9C3.76836 9 4.46924 8.71115 5 8.2361C5.53075 8.71115 6.23164 9 7 9C7.46236 9 7.90029 8.8954 8.29142 8.70859C8.1046 9.09971 8 9.53764 8 10C8 11.6569 9.34315 13 11 13H13.8088C13.9043 13 13.9352 13.0277 13.9473 13.0392C13.9702 13.0608 13.999 13.1057 14.0089 13.1728C14.0187 13.2399 14.004 13.2913 13.9883 13.3186C13.98 13.3331 13.9584 13.3685 13.8669 13.3959L12.6971 13.7468C11.6898 14.049 11 14.9762 11 16.0278V18H13V16.0278C13 15.8594 13.1105 15.7109 13.2718 15.6625L14.4416 15.3115C16.8714 14.5826 16.3456 11 13.8088 11H11C10.4477 11 10 10.5523 10 10C10 9.44771 10.4477 9 11 9H11.5H13H15H15.5H17C17.5523 9 18 9.44771 18 10V13C18 16.171 15.8915 18.8496 13 19.7101V21.777C17.008 20.8675 20 17.2832 20 13V10C20 8.69378 19.1652 7.58254 18 7.17071V6V4C18 2.34315 16.6569 1 15 1H14.8182C14.3391 1 13.8879 1.11955 13.4929 1.33044ZM2 5V6C2 6.55228 2.44772 7 3 7C3.55228 7 4 6.55228 4 6V5C4 4.44772 3.55228 4 3 4C2.44772 4 2 4.44772 2 5ZM16 4C16 3.44772 15.5523 3 15 3C14.4477 3 14 3.44772 14 4V5.66667V6C14 6.55205 14.4473 6.99962 14.9993 7L15.0007 7C15.5527 6.99962 16 6.55205 16 6V4Z" fill="#F4F6F8"/>
</svg>
