<svg width="24" height="24" viewBox="0 0 24 24" fill="none" xmlns="http://www.w3.org/2000/svg">
<path fill-rule="evenodd" clip-rule="evenodd" d="M13.4999 7.66895C14.2354 7.2435 15.0893 7 16 7C16.9108 7 17.7647 7.24351 18.5001 7.66897C17.5613 8.85997 17 10.3646 17 11.9996C17 13.6348 17.5615 15.1397 18.5006 16.3307C17.765 16.7564 16.911 17 16 17C15.089 17 14.2349 16.7564 13.4994 16.3307C14.4385 15.1396 15 13.6347 15 11.9995C15 10.3646 14.4387 8.85994 13.4999 7.66895ZM12.0003 8.99915C11.3722 9.83496 11 10.874 11 12C11 13.1257 11.372 14.1646 11.9999 15.0003C12.6285 14.1641 13 13.1256 13 11.9995C13 10.8736 12.6286 9.83525 12.0003 8.99915ZM19 11.9996C19 10.8737 19.3714 9.8353 19.9998 8.99919C20.6278 9.83499 21 10.874 21 12C21 13.1258 20.6279 14.1646 20.0001 15.0004C19.3715 14.1642 19 13.1256 19 11.9996ZM16 5C12.134 5 9 8.13401 9 12C9 15.866 12.134 19 16 19C19.866 19 23 15.866 23 12C23 8.13401 19.866 5 16 5ZM8 7H4V9H8V7ZM4 17V15H8V17H4ZM7 13V11H1V13H7Z" fill="#F4F6F8"/>
</svg>
