<svg width="24" height="24" viewBox="0 0 24 24" fill="none" xmlns="http://www.w3.org/2000/svg">
<path fill-rule="evenodd" clip-rule="evenodd" d="M7.54708 6.72528C7.66974 6.29598 8.06212 6 8.5086 6H15.5585C15.9889 6 16.3711 6.27543 16.5072 6.68377L17.0513 8.31623L17.2792 9H18H20.5V7H18.7208L18.4045 6.05132C17.9962 4.82629 16.8498 4 15.5585 4H8.5086C7.16916 4 5.992 4.88793 5.62403 6.17584L4.2457 11H3C1.89543 11 1 11.8954 1 13V17C1 18.6569 2.34315 20 4 20H4.92963C5.93269 20 6.86939 19.4987 7.42578 18.6641L8.53518 17H15.4648L16.5742 18.6641C17.1306 19.4987 18.0673 20 19.0704 20H20C21.6569 20 23 18.6569 23 17V13C23 11.8954 22.1046 11 21 11H6.32573L7.54708 6.72528ZM3 13V17C3 17.5523 3.44772 18 4 18H4.92963C5.26399 18 5.57622 17.8329 5.76168 17.5547L6.87108 15.8906C7.24201 15.3342 7.86648 15 8.53518 15H15.4648C16.1335 15 16.758 15.3342 17.1289 15.8906L18.2383 17.5547C18.4238 17.8329 18.736 18 19.0704 18H20C20.5523 18 21 17.5523 21 17V13H5.7543H5H3Z" fill="#F4F6F8"/>
</svg>
