<svg width="18" height="20" viewBox="0 0 18 20" fill="none" xmlns="http://www.w3.org/2000/svg">
<path fill-rule="evenodd" clip-rule="evenodd" d="M18 2.2198C18 0.957701 16.8453 0.011118 15.6078 0.258634L7.60777 1.85863C6.67314 2.04556 6 2.86603 6 3.81961V3.84496V3.87039V3.8959V3.92149V3.94716V3.97291V3.99874V4.02464V4.05063V4.07669V4.10282V4.12904V4.15532V4.18169V4.20813V4.23464V4.26123V4.28788V4.31462V4.34142V4.3683V4.39524V4.42226V4.44935V4.4765V4.50373V4.53103V4.55839V4.58582V4.61332V4.64088V4.66851V4.69621V4.72397V4.7518V4.77969V4.80764V4.83566V4.86374V4.89188V4.92008V4.94835V4.97667V5.00506V5.0335V5.06201V5.09057V5.11919V5.14787V5.17661V5.2054V5.23425V5.26316V5.29212V5.32113V5.3502V5.37932V5.4085V5.43773V5.46701V5.49634V5.52573V5.55516V5.58465V5.61418V5.64376V5.6734V5.70308V5.73281V5.76258V5.79241V5.82228V5.85219V5.88215V5.91216V5.9422V5.9723V6.00243V6.03261V6.06283V6.0931V6.1234V6.15375V6.18413V6.21456V6.24502V6.27553V6.30607V6.33665V6.36726V6.39792V6.42861V6.45934V6.4901V6.52089V6.55172V6.58259V6.61348V6.64441V6.67538V6.70637V6.7374V6.76846V6.79954V6.83066V6.86181V6.89298V6.92418V6.95542V6.98668V7.01796V7.04927V7.08061V7.11197V7.14336V7.17478V7.20621V7.23767V7.26916V7.30066V7.33219V7.36374V7.39531V7.4269V7.45851V7.49014V7.52178V7.55345V7.58513V7.61684V7.64856V7.68029V7.71204V7.74381V7.77559V7.80739V7.8392V7.87102V7.90286V7.93471V7.96657V7.99844V8.03032V8.06222V8.09412V8.12603V8.15796V8.18989V8.22183V8.25377V8.28573V8.31769V8.34965V8.38162V8.4136V8.44558V8.47756V8.50955V8.54154V8.57354V8.60553V8.63753V8.66953V8.70153V8.73353V8.76552V8.79752V8.82952V8.86151V8.8935V8.92549V8.95748V8.98946V9.02143V9.05341V9.08537V9.11733V9.14929V9.18123V9.21317V9.24511V9.27703V9.30894V9.34085V9.37274V9.40463V9.4365V9.46836V9.50021V9.53205V9.56388V9.59569V9.62749V9.65927V9.69104V9.72279V9.75453V9.78625V9.81796V9.84964V9.88131V9.91296V9.94459V9.9762V10.0078V10.0394V10.0709V10.1025V10.134V10.1654V10.1969V10.2283V10.2598V10.2912V10.3225V10.3539V10.3852V10.4165V10.4477V10.479V10.5102V10.5413V10.5725V10.6036V10.6347V10.6658V10.6968V10.7278V10.7588V10.7897V10.8206V10.8515V10.8823V10.9131V10.9439V10.9746V11.0053V11.036V11.0666V11.0972V11.1277V11.1582V11.1887V11.2191V11.2495V11.2799V11.3102V11.3404V11.3707V11.4008V11.431V11.4611V11.4911V11.5211V11.5511V11.581V11.6109V11.6407V11.6705V11.7002V11.7299V11.7596V11.7892V11.8187V11.8482V11.8776V11.907V11.9364V11.9657V11.9949V12.0241V12.0532V12.0823V12.1113V12.1403V12.1692V12.198V12.2268V12.2556V12.2843V12.3129V12.3415V12.37V12.3984V12.4268V12.4551V12.4834V12.5116V12.5351C5.41165 12.1948 4.72857 12 4 12C1.79086 12 0 13.7909 0 16C0 18.2091 1.79086 20 4 20C6.09235 20 7.80947 18.3935 7.98519 16.3467H8V16.3447V16.3425V16.3402V16.3377V16.335V16.3321V16.3291V16.3259V16.3226V16.3191V16.3154V16.3115V16.3075V16.3033V16.2989V16.2944V16.2897V16.2849V16.2798V16.2747V16.2693V16.2638V16.2581V16.2523V16.2463V16.2402V16.2338V16.2274V16.2207V16.214V16.207V16.1999V16.1926V16.1852V16.1776V16.1699V16.162V16.154V16.1458V16.1374V16.1289V16.1203V16.1115V16.1025V16.0934V16.0841V16.0747V16.0652V16.0555V16.0456V16.0356V16.0255V16.0152V16.0047V16V15.9941V15.9834V15.9725V15.9615V15.9503V15.939V15.9275V15.9159V15.9042V15.8923V15.8803V15.8681V15.8558V15.8433V15.8307V15.818V15.8052V15.7922V15.779V15.7657V15.7523V15.7388V15.7251V15.7113V15.6973V15.6832V15.669V15.6547V15.6402V15.6256V15.6108V15.596V15.5809V15.5658V15.5505V15.5352V15.5196V15.504V15.4882V15.4723V15.4563V15.4401V15.4238V15.4074V15.3909V15.3742V15.3575V15.3406V15.3235V15.3064V15.2891V15.2717V15.2542V15.2366V15.2188V15.201V15.183V15.1649V15.1467V15.1283V15.1099V15.0913V15.0726V15.0538V15.0349V15.0159V14.9968V14.9775V14.9581V14.9387V14.9191V14.8994V14.8796V14.8597V14.8396V14.8195V14.7993V14.7789V14.7584V14.7379V14.7172V14.6964V14.6755V14.6545V14.6334V14.6122V14.5909V14.5695V14.548V14.5264V14.5047V14.4829V14.461V14.439V14.4169V14.3947V14.3724V14.35V14.3274V14.3048V14.2822V14.2594V14.2365V14.2135V14.1904V14.1672V14.144V14.1206V14.0972V14.0736V14.05V14.0263V14.0024V13.9785V13.9546V13.9305V13.9063V13.882V13.8577V13.8333V13.8087V13.7841V13.7594V13.7347V13.7098V13.6848V13.6598V13.6347V13.6095V13.5842V13.5589V13.5334V13.5079V13.4823V13.4566V13.4309V13.405V13.3791V13.3531V13.3271V13.3009V13.2747V13.2484V13.222V13.1956V13.1691V13.1425V13.1158V13.0891V13.0622V13.0354V13.0084V12.9814V12.9543V12.9271V12.8999V12.8726V12.8452V12.8178V12.7903V12.7627V12.7351V12.7074V12.6796V12.6518V12.6239V12.5959V12.5679V12.5398V12.5116V12.4834V12.4551V12.4268V12.3984V12.37V12.3415V12.3129V12.2843V12.2556V12.2268V12.198V12.1692V12.1403V12.1113V12.0823V12.0532V12.0241V11.9949V11.9657V11.9364V11.907V11.8776V11.8482V11.8187V11.7892V11.7596V11.7299V11.7002V11.6705V11.6407V11.6109V11.581V11.5511V11.5211V11.4911V11.4611V11.431V11.4008V11.3707V11.3404V11.3102V11.2799V11.2495V11.2191V11.1887V11.1582V11.1277V11.0972V11.0666V11.036V11.0053V10.9746V10.9439V10.9131V10.8823V10.8515V10.8206V10.7897V10.7588V10.7278V10.6968V10.6658V10.6347V10.6036V10.5725V10.5413V10.5102V10.479V10.4477V10.4165V10.3852V10.3539V10.3225V10.2912V10.2598V10.2283V10.1969V10.1654V10.134V10.1025V10.0709V10.0394V10.0078V9.9762V9.94459V9.91296V9.88131V9.84964V9.81796V9.78625V9.75453V9.72279V9.69104V9.65927V9.62749V9.59569V9.56388V9.53205V9.50021V9.46836V9.4365V9.40463V9.37274V9.34085V9.30894V9.27703V9.24511V9.21317V9.18123V9.14929V9.11733V9.08537V9.05341V9.02143V8.98946V8.95748V8.92549V8.8935V8.86151V8.82952V8.79752V8.76552V8.73353V8.70153V8.66953V8.63753V8.60553V8.57354V8.54154V8.50955V8.47756V8.44558V8.4136V8.38162V8.34965V8.31769V8.28573V8.25377V8.22183V8.18989V8.15796V8.12603V8.09412V8.06222V8.03032V7.99844V7.96657V7.93471V7.90286V7.87102V7.8392V7.8198L14 6.6198V4.58019L8 5.78019V5.76258V5.73281V5.70308V5.6734V5.64376V5.61418V5.58465V5.55516V5.52573V5.49634V5.46701V5.43773V5.4085V5.37932V5.3502V5.32113V5.29212V5.26316V5.23425V5.2054V5.17661V5.14787V5.11919V5.09057V5.06201V5.0335V5.00506V4.97667V4.94835V4.92008V4.89188V4.86374V4.83566V4.80764V4.77969V4.7518V4.72397V4.69621V4.66851V4.64088V4.61332V4.58582V4.55839V4.53103V4.50373V4.4765V4.44935V4.42226V4.39524V4.3683V4.34142V4.31462V4.28788V4.26123V4.23464V4.20813V4.18169V4.15532V4.12904V4.10282V4.07669V4.05063V4.02464V3.99874V3.97291V3.94716V3.92149V3.8959V3.87039V3.84496V3.8198L16 2.2198L16 4L16 4.21912V6.2198L16 7V8.49999V10.5351C15.4117 10.1948 14.7286 9.99999 14 9.99999C11.7909 9.99999 10 11.7909 10 14C10 16.2091 11.7909 18 14 18C16.2091 18 18 16.2091 18 14V8.49999V6.2198V2.2198ZM16 14C16 12.8954 15.1046 12 14 12C12.8954 12 12 12.8954 12 14C12 15.1046 12.8954 16 14 16C15.1046 16 16 15.1046 16 14ZM6 16C6 14.8954 5.10457 14 4 14C2.89543 14 2 14.8954 2 16C2 17.1046 2.89543 18 4 18C5.10457 18 6 17.1046 6 16Z" fill="#F4F6F8"/>
</svg>
