<svg width="22" height="16" viewBox="0 0 22 16" fill="none" xmlns="http://www.w3.org/2000/svg">
<path fill-rule="evenodd" clip-rule="evenodd" d="M13.5352 6.00001L9.83205 0.445312L8.16795 1.55471L11.8711 7.10941C12.242 7.66581 12.8665 8.00001 13.5352 8.00001H17C18.3062 8.00001 19.4175 8.83482 19.8293 10L2 10V7.47035C3.64638 8.62894 6.16104 8.16233 7.10867 6.07754L7.14391 6.00001H8V4.00001H6.78306C6.21853 4.00001 5.7061 4.32997 5.4725 4.8439L5.28794 5.24993C4.78035 6.36664 3.19577 6.37122 2.68173 5.25746C2.05016 3.88906 0 4.33934 0 5.84647V14C0 15.1046 0.895431 16 2 16H20C21.1046 16 22 15.1046 22 14V11C22 8.23859 19.7614 6.00001 17 6.00001H13.5352ZM2 12L2 14H20V12L2 12Z" fill="#F4F6F8"/>
</svg>
