<svg width="20" height="20" viewBox="0 0 20 20" fill="none" xmlns="http://www.w3.org/2000/svg">
<path fill-rule="evenodd" clip-rule="evenodd" d="M13 0H11V4H13V0ZM12 8C10.8954 8 10 8.89543 10 10C10 11.1046 10.8954 12 12 12C13.1046 12 14 11.1046 14 10C14 8.89543 13.1046 8 12 8ZM8 10C8 7.79086 9.79086 6 12 6C13.4806 6 14.7733 6.8044 15.4649 8H18C19.1046 8 20 8.89543 20 10V16C20 17.1046 19.1046 18 18 18H16V20H14V18H13H11H6V20H4V18H2C0.895432 18 0 17.1046 0 16V10C0 8.89543 0.895431 8 2 8H6V10H2V16H11H13H18V10H16C16 12.2091 14.2091 14 12 14C9.79086 14 8 12.2091 8 10ZM6 12H4V14H6V12ZM4.22168 3.63574L5.63589 2.22153L8.46432 5.04996L7.05011 6.46417L4.22168 3.63574ZM19.7785 3.63589L18.3643 2.22168L15.5358 5.05011L16.95 6.46432L19.7785 3.63589Z" fill="#F4F6F8"/>
</svg>
