<svg width="24" height="24" viewBox="0 0 24 24" fill="none" xmlns="http://www.w3.org/2000/svg">
<path fill-rule="evenodd" clip-rule="evenodd" d="M10 5C10 4.44772 9.55228 4 9 4C8.44772 4 8 4.44772 8 5V6V7C8 7.55228 8.44772 8 9 8C9.55228 8 10 7.55228 10 7V5ZM13 8C12.4477 8 12 7.55228 12 7V5V4C12 3.44772 12.4477 3 13 3C13.5523 3 14 3.44772 14 4V4.81818V5V6.66667V7C14 7.55228 13.5523 8 13 8ZM15.4929 2.33044C14.9544 1.52807 14.0389 1 13 1C11.9377 1 11.0044 1.5521 10.4714 2.38499C10.0366 2.13986 9.53465 2 9 2C7.93774 2 7.00444 2.55209 6.47137 3.38499C6.03664 3.13986 5.53465 3 5 3C3.34315 3 2 4.34315 2 6V7V14C2 18.9706 6.02944 23 11 23H13V21H11C7.13401 21 4 17.866 4 14V9.82929C4.31278 9.93985 4.64936 10 5 10C5.76836 10 6.46924 9.71115 7 9.2361C7.53075 9.71115 8.23164 10 9 10C9.46236 10 9.90029 9.8954 10.2914 9.70859C10.1046 10.0997 10 10.5376 10 11C10 12.6569 11.3431 14 13 14H15.8088C15.9043 14 15.9352 14.0277 15.9473 14.0392C15.9702 14.0608 15.999 14.1057 16.0089 14.1728C16.0187 14.2399 16.004 14.2913 15.9883 14.3186C15.98 14.3331 15.9584 14.3685 15.8669 14.3959L14.6971 14.7468C13.6898 15.049 13 15.9762 13 17.0278V19H15V17.0278C15 16.8594 15.1105 16.7109 15.2718 16.6625L16.4416 16.3115C18.8714 15.5826 18.3456 12 15.8088 12H13C12.4477 12 12 11.5523 12 11C12 10.4477 12.4477 10 13 10H13.5H15H17H17.5H19C19.5523 10 20 10.4477 20 11V14C20 17.171 17.8915 19.8496 15 20.7101V22.777C19.008 21.8675 22 18.2832 22 14V11C22 9.69378 21.1652 8.58254 20 8.17071V7V5C20 3.34315 18.6569 2 17 2H16.8182C16.3391 2 15.8879 2.11955 15.4929 2.33044ZM4 6V7C4 7.55228 4.44772 8 5 8C5.55228 8 6 7.55228 6 7V6C6 5.44772 5.55228 5 5 5C4.44772 5 4 5.44772 4 6ZM18 5C18 4.44772 17.5523 4 17 4C16.4477 4 16 4.44772 16 5V6.66667V7C16 7.55205 16.4473 7.99962 16.9993 8L17.0007 8C17.5527 7.99962 18 7.55205 18 7V5Z" fill="#F4F6F8"/>
</svg>
