<svg width="22" height="20" viewBox="0 0 22 20" fill="none" xmlns="http://www.w3.org/2000/svg">
<path fill-rule="evenodd" clip-rule="evenodd" d="M2 7.47703V9.92298L0 9.12298V6.00001C-2.95028e-07 5.59111 0.248958 5.22339 0.628617 5.07153L10.6286 1.07153L11 0.922974L11.3714 1.07153L21.3714 5.07153C21.7511 5.2234 22 5.59111 22 6.00001C22 6.40892 21.751 6.77662 21.3714 6.92849L18 8.27705V14.2455C18 15.4722 17.2531 16.5754 16.1142 17.031L11.3714 18.9281L11 19.0766L10.6286 18.9281L5.88584 17.031C4.74686 16.5754 4.00001 15.4722 4.00001 14.2455V10.677L6.00001 11.477L6.00001 14.2455C6.00001 14.6544 6.24896 15.0221 6.62862 15.174L11 16.9226L15.3714 15.174C15.751 15.0221 16 14.6544 16 14.2455V9.07705L11.3714 10.9285L11 11.077L10.6286 10.9285L2 7.47703ZM11 3.07704L18.3074 6.00001L11 8.92297L3.69259 6L11 3.07704Z" fill="#F4F6F8"/>
</svg>
