<svg width="22" height="22" viewBox="0 0 22 22" fill="none" xmlns="http://www.w3.org/2000/svg">
<path fill-rule="evenodd" clip-rule="evenodd" d="M15.6247 1.21913L14.5985 0.398193L14.0809 1.60608L11.3406 8H5C3.34315 8 2 6.65685 2 5H0C0 6.8527 1.00766 8.47003 2.50482 9.33387C2.18595 9.81046 2 10.3835 2 11V21V22H3H4V20V19V11C4 10.4477 4.44772 10 5 10H12H12.6594L12.9191 9.39392L15.4015 3.60181L16.8753 4.78087L17.1492 5H17.5H19.8673C19.5874 5.90869 18.8843 6.65113 17.9487 6.96301L17.6838 7.05132L17.0859 7.25061L17.0077 7.87597L16.0077 15.876L16 15.9377V16V19V20H18H20V18H18V16.0623L18.9159 8.73544C20.7719 7.96631 22 6.14929 22 4.11696V4V3H21H17.8508L15.6247 1.21913ZM6 19V20V22H7H8V21V18.7122L9.48879 15.3624L12 16.618V21V22H13H14V20V19V16V15.382L13.4472 15.1056L9.44721 13.1056L8.51121 12.6376L8.08619 13.5939L6.08619 18.0939L6 18.2878V18.5V19Z" fill="#F4F6F8"/>
</svg>
