<svg width="22" height="20" viewBox="0 0 22 20" fill="none" xmlns="http://www.w3.org/2000/svg">
<path fill-rule="evenodd" clip-rule="evenodd" d="M0 2C0 0.895431 0.89543 0 2 0H12C13.1046 0 14 0.89543 14 2V6.25V15C14 16.6569 15.3431 18 17 18C18.6569 18 20 16.6569 20 15V7H22V15C22 17.7614 19.7614 20 17 20H5C2.23858 20 0 17.7614 0 15V2ZM5 18C3.34315 18 2 16.6569 2 15V2H12V6.25V15C12 16.1256 12.3719 17.1643 12.9996 18H5ZM18 5V4H16V5V9V15H18V9V5ZM4 6L10 6V4L4 4V6ZM10 10H4V8L10 8V10ZM4 14H6V12H4V14Z" fill="#F4F6F8"/>
</svg>
