<svg width="22" height="14" viewBox="0 0 22 14" fill="none" xmlns="http://www.w3.org/2000/svg">
<path fill-rule="evenodd" clip-rule="evenodd" d="M12.4999 2.66895C13.2354 2.2435 14.0893 2 15 2C15.9108 2 16.7647 2.24351 17.5001 2.66897C16.5613 3.85997 16 5.36463 16 6.99956C16 8.63476 16.5615 10.1397 17.5006 11.3307C16.765 11.7564 15.911 12 15 12C14.089 12 13.2349 11.7564 12.4994 11.3307C13.4385 10.1396 14 8.6347 14 6.99947C14 5.36457 13.4387 3.85994 12.4999 2.66895ZM11.0003 3.99915C10.3722 4.83496 10 5.87401 10 7C10 8.12575 10.372 9.1646 10.9999 10.0003C11.6285 9.16412 12 8.12556 12 6.99947C12 5.87361 11.6286 4.83525 11.0003 3.99915ZM18 6.99956C18 5.87368 18.3714 4.8353 18.9998 3.99919C19.6278 4.83499 20 5.87403 20 7C20 8.12577 19.6279 9.16464 19.0001 10.0004C18.3715 9.16418 18 8.12563 18 6.99956ZM15 0C11.134 0 8 3.13401 8 7C8 10.866 11.134 14 15 14C18.866 14 22 10.866 22 7C22 3.13401 18.866 0 15 0ZM7 2H3V4H7V2ZM3 12V10H7V12H3ZM6 8V6H0V8H6Z" fill="#F4F6F8"/>
</svg>
