<svg width="24" height="24" viewBox="0 0 24 24" fill="none" xmlns="http://www.w3.org/2000/svg">
<path fill-rule="evenodd" clip-rule="evenodd" d="M14.5352 9.00001L10.8321 3.44531L9.16795 4.55471L12.8711 10.1094C13.242 10.6658 13.8665 11 14.5352 11H18C19.3062 11 20.4175 11.8348 20.8293 13L3 13V10.4703C4.64638 11.6289 7.16104 11.1623 8.10867 9.07754L8.14391 9.00001H9V7.00001H7.78306C7.21853 7.00001 6.7061 7.32997 6.4725 7.8439L6.28794 8.24993C5.78035 9.36664 4.19577 9.37122 3.68173 8.25746C3.05016 6.88906 1 7.33934 1 8.84647V17C1 18.1046 1.89543 19 3 19H21C22.1046 19 23 18.1046 23 17V14C23 11.2386 20.7614 9.00001 18 9.00001H14.5352ZM3 15L3 17H21V15L3 15Z" fill="#F4F6F8"/>
</svg>
