<svg width="20" height="22" viewBox="0 0 20 22" fill="none" xmlns="http://www.w3.org/2000/svg">
<path fill-rule="evenodd" clip-rule="evenodd" d="M11.0001 12.0376V2.04741C11.0379 2.05129 11.0755 2.05541 11.113 2.05976C11.5472 2.28951 11.9582 2.72268 12.304 3.40378C12.7482 4.27875 13.0118 5.43337 13.0704 6.66497C13.1289 7.89178 12.981 9.13481 12.6557 10.1674C12.367 11.0837 11.9726 11.7288 11.5656 12.0923C11.3776 12.0701 11.189 12.0518 11.0001 12.0376ZM9.00008 2.06024V12.0376C8.81113 12.0518 8.62257 12.0701 8.43453 12.0923C8.02748 11.7288 7.63313 11.0837 7.34444 10.1674C7.01911 9.13486 6.87128 7.89182 6.92969 6.665C6.98833 5.4334 7.25185 4.27878 7.69605 3.40381C8.03263 2.74081 8.43101 2.31277 8.8524 2.0786C8.90138 2.07209 8.95061 2.06596 9.00008 2.06024ZM5.43962 3.38938C4.51714 4.0509 3.82043 4.90448 3.38983 5.85147C2.45516 7.90705 2.69802 10.5725 4.90493 12.9777L5.78649 12.6838C5.92093 12.639 6.056 12.5964 6.19164 12.5559C5.80789 11.9902 5.52083 11.3393 5.312 10.6765C4.91858 9.42784 4.7539 7.98337 4.82047 6.58517C4.87284 5.48531 5.07013 4.37643 5.43962 3.38938ZM15.1797 6.58511C15.1258 5.45513 14.919 4.31562 14.5297 3.30849C15.4947 3.97887 16.2173 4.86081 16.6542 5.84372C17.5676 7.89887 17.307 10.5687 15.0952 12.9777L14.2137 12.6838C14.0792 12.639 13.9441 12.5963 13.8085 12.5559C14.1923 11.9902 14.4793 11.3393 14.6882 10.6765C15.0816 9.42778 15.2463 7.98331 15.1797 6.58511ZM6.84517 14.4484C7.30673 14.7086 7.80411 14.9579 8.2931 15.1844C8.86863 15.4511 9.39811 15.6708 9.7838 15.8238C9.88474 15.8639 9.97559 15.8993 10.0546 15.9297C10.1303 15.8993 10.217 15.8641 10.3131 15.8245C10.69 15.669 11.2076 15.4463 11.7704 15.1777C12.2408 14.9531 12.7195 14.7071 13.1654 14.4514C12.1376 14.1522 11.072 14 10.0001 14C8.93183 14 7.8697 14.1512 6.84517 14.4484ZM6.38203 20L6.82926 20.8945C7.16805 21.572 7.86057 22 8.61812 22H11.382C12.1396 22 12.8321 21.572 13.1709 20.8945L13.6181 20H6.38203ZM14.3846 18H5.61554C5.6158 17.3991 5.89246 16.8305 6.34655 16.4543C5.41502 15.9639 4.45015 15.3644 3.79303 14.7073C0.777783 11.6924 0.214563 8.00282 1.56921 5.02362C2.91233 2.06978 6.05756 -1.90923e-05 10.0622 1.32104e-10C14.0512 0.000178071 17.1673 2.07382 18.4818 5.03146C19.8061 8.0111 19.2183 11.6959 16.2072 14.7072C15.5527 15.3616 14.588 15.9667 13.6631 16.4622C14.1116 16.8385 14.3844 17.4033 14.3846 18Z" fill="#F4F6F8"/>
</svg>
