<svg width="22" height="16" viewBox="0 0 22 16" fill="none" xmlns="http://www.w3.org/2000/svg">
<path fill-rule="evenodd" clip-rule="evenodd" d="M6.54708 2.72528C6.66974 2.29598 7.06212 2 7.5086 2H14.5585C14.9889 2 15.3711 2.27543 15.5072 2.68377L16.0513 4.31623L16.2792 5H17H19.5V3H17.7208L17.4045 2.05132C16.9962 0.82629 15.8498 0 14.5585 0H7.5086C6.16916 0 4.992 0.887933 4.62403 2.17584L3.2457 7H2C0.895431 7 0 7.89543 0 9V13C0 14.6569 1.34315 16 3 16H3.92963C4.93269 16 5.86939 15.4987 6.42578 14.6641L7.53518 13H14.4648L15.5742 14.6641C16.1306 15.4987 17.0673 16 18.0704 16H19C20.6569 16 22 14.6569 22 13V9C22 7.89543 21.1046 7 20 7H5.32573L6.54708 2.72528ZM2 9V13C2 13.5523 2.44772 14 3 14H3.92963C4.26399 14 4.57622 13.8329 4.76168 13.5547L5.87108 11.8906C6.24201 11.3342 6.86648 11 7.53518 11H14.4648C15.1335 11 15.758 11.3342 16.1289 11.8906L17.2383 13.5547C17.4238 13.8329 17.736 14 18.0704 14H19C19.5523 14 20 13.5523 20 13V9H4.7543H4H2Z" fill="#F4F6F8"/>
</svg>
