<svg width="24" height="24" viewBox="0 0 24 24" fill="none" xmlns="http://www.w3.org/2000/svg">
<path fill-rule="evenodd" clip-rule="evenodd" d="M10.9999 3H12.9999V5H10.9999V3ZM4.49924 9.57573C4.71038 8.09779 5.97614 7 7.46909 7H7.5857L9.2928 8.70711L9.5857 9H9.99991H13.9999H14.4141L14.707 8.70711L16.4141 7H16.5307C18.0237 7 19.2894 8.09779 19.5006 9.57574L20.6236 17.4369C20.7415 18.2619 20.1013 19 19.268 19C18.8101 19 18.3825 18.7712 18.1286 18.3902L16.832 16.4453L16.5351 16H15.9999H11.9999H7.99991H7.46473L7.16786 16.4453L5.87125 18.3902C5.61728 18.7712 5.18971 19 4.73185 19C3.8985 19 3.25836 18.2619 3.37621 17.4369L4.49924 9.57573ZM7.46909 5C4.98084 5 2.87124 6.82964 2.51934 9.29289L1.39631 17.1541C1.10634 19.1839 2.6814 21 4.73185 21C5.85841 21 6.91045 20.437 7.53535 19.4996L8.53509 18H11.9999H15.4647L16.4645 19.4996C17.0894 20.437 18.1414 21 19.268 21C21.3184 21 22.8935 19.1839 22.6035 17.1541L21.4805 9.29289C21.1286 6.82965 19.019 5 16.5307 5H15.9999H15.5857L15.2928 5.29289L13.5857 7H10.4141L8.70702 5.29289L8.41412 5H7.99991H7.46909ZM7.99991 10H5.99991V12H7.99991V10ZM17.9999 10H15.9999V12H17.9999V10Z" fill="#F4F6F8"/>
</svg>
