<svg width="24" height="24" viewBox="0 0 24 24" fill="none" xmlns="http://www.w3.org/2000/svg">
<path fill-rule="evenodd" clip-rule="evenodd" d="M15 20V22H17V20C17 18.8954 16.1046 18 15 18H9C7.89543 18 7 18.8954 7 20V22H9V20H15ZM5 18H3L3 6L11 6L21 6L21 18L19 18V20H21C22.1046 20 23 19.1046 23 18L23 6C23 4.89543 22.1046 4 21 4H11H3C1.89543 4 1 4.89543 1 6V18C1 19.1046 1.89543 20 3 20H5V18ZM10 12C10 10.8954 10.8954 10 12 10C13.1046 10 14 10.8954 14 12C14 13.1046 13.1046 14 12 14C10.8954 14 10 13.1046 10 12ZM12 8C9.79086 8 8 9.79086 8 12C8 14.2091 9.79086 16 12 16C14.2091 16 16 14.2091 16 12C16 9.79086 14.2091 8 12 8Z" fill="#F4F6F8"/>
</svg>
