<svg width="22" height="18" viewBox="0 0 22 18" fill="none" xmlns="http://www.w3.org/2000/svg">
<path fill-rule="evenodd" clip-rule="evenodd" d="M9.99991 0H11.9999V2H9.99991V0ZM3.49924 6.57573C3.71038 5.09779 4.97614 4 6.46909 4H6.5857L8.2928 5.70711L8.5857 6H8.99991H12.9999H13.4141L13.707 5.70711L15.4141 4H15.5307C17.0237 4 18.2894 5.09779 18.5006 6.57574L19.6236 14.4369C19.7415 15.2619 19.1013 16 18.268 16C17.8101 16 17.3825 15.7712 17.1286 15.3902L15.832 13.4453L15.5351 13H14.9999H10.9999H6.99991H6.46473L6.16786 13.4453L4.87125 15.3902C4.61728 15.7712 4.18971 16 3.73185 16C2.8985 16 2.25836 15.2619 2.37621 14.4369L3.49924 6.57573ZM6.46909 2C3.98084 2 1.87124 3.82964 1.51934 6.29289L0.396314 14.1541C0.106337 16.1839 1.6814 18 3.73185 18C4.85841 18 5.91045 17.437 6.53535 16.4996L7.53509 15H10.9999H14.4647L15.4645 16.4996C16.0894 17.437 17.1414 18 18.268 18C20.3184 18 21.8935 16.1839 21.6035 14.1541L20.4805 6.29289C20.1286 3.82965 18.019 2 15.5307 2H14.9999H14.5857L14.2928 2.29289L12.5857 4H9.41412L7.70702 2.29289L7.41412 2H6.99991H6.46909ZM6.99991 7H4.99991V9H6.99991V7ZM16.9999 7H14.9999V9H16.9999V7Z" fill="#F4F6F8"/>
</svg>
