<svg width="24" height="24" viewBox="0 0 24 24" fill="none" xmlns="http://www.w3.org/2000/svg">
<path fill-rule="evenodd" clip-rule="evenodd" d="M3 9.47703V11.923L1 11.123V8.00001C1 7.59111 1.24896 7.22339 1.62862 7.07153L11.6286 3.07153L12 2.92297L12.3714 3.07153L22.3714 7.07153C22.7511 7.2234 23 7.59111 23 8.00001C23 8.40892 22.751 8.77662 22.3714 8.92849L19 10.277V16.2455C19 17.4722 18.2531 18.5754 17.1142 19.031L12.3714 20.9281L12 21.0766L11.6286 20.9281L6.88584 19.031C5.74686 18.5754 5.00001 17.4722 5.00001 16.2455V12.677L7.00001 13.477L7.00001 16.2455C7.00001 16.6544 7.24896 17.0221 7.62862 17.174L12 18.9226L16.3714 17.174C16.751 17.0221 17 16.6544 17 16.2455V11.077L12.3714 12.9285L12 13.077L11.6286 12.9285L3 9.47703ZM12 5.07704L19.3074 8.00001L12 10.923L4.69259 8L12 5.07704Z" fill="#F4F6F8"/>
</svg>
