<svg width="24" height="24" viewBox="0 0 24 24" fill="none" xmlns="http://www.w3.org/2000/svg">
<path fill-rule="evenodd" clip-rule="evenodd" d="M16.6247 2.21913L15.5985 1.39819L15.0809 2.60608L12.3406 9H6C4.34315 9 3 7.65685 3 6H1C1 7.8527 2.00766 9.47003 3.50482 10.3339C3.18595 10.8105 3 11.3835 3 12V22V23H4H5V21V20V12C5 11.4477 5.44772 11 6 11H13H13.6594L13.9191 10.3939L16.4015 4.60181L17.8753 5.78087L18.1492 6H18.5H20.8673C20.5874 6.90869 19.8843 7.65113 18.9487 7.96301L18.6838 8.05132L18.0859 8.25061L18.0077 8.87597L17.0077 16.876L17 16.9377V17V20V21H19H21V19H19V17.0623L19.9159 9.73544C21.7719 8.96631 23 7.14929 23 5.11696V5V4H22H18.8508L16.6247 2.21913ZM7 20V21V23H8H9V22V19.7122L10.4888 16.3624L13 17.618V22V23H14H15V21V20V17V16.382L14.4472 16.1056L10.4472 14.1056L9.51121 13.6376L9.08619 14.5939L7.08619 19.0939L7 19.2878V19.5V20Z" fill="#F4F6F8"/>
</svg>
