<svg width="24" height="24" viewBox="0 0 24 24" fill="none" xmlns="http://www.w3.org/2000/svg">
<path fill-rule="evenodd" clip-rule="evenodd" d="M20 4.2198C20 2.9577 18.8453 2.01112 17.6078 2.25863L9.60777 3.85863C8.67314 4.04556 8 4.86603 8 5.81961V5.84496V5.87039V5.8959V5.92149V5.94716V5.97291V5.99874V6.02464V6.05063V6.07669V6.10282V6.12904V6.15532V6.18169V6.20813V6.23464V6.26123V6.28788V6.31462V6.34142V6.3683V6.39524V6.42226V6.44935V6.4765V6.50373V6.53103V6.55839V6.58582V6.61332V6.64088V6.66851V6.69621V6.72397V6.7518V6.77969V6.80764V6.83566V6.86374V6.89188V6.92008V6.94835V6.97667V7.00506V7.0335V7.06201V7.09057V7.11919V7.14787V7.17661V7.2054V7.23425V7.26316V7.29212V7.32113V7.3502V7.37932V7.4085V7.43773V7.46701V7.49634V7.52573V7.55516V7.58465V7.61418V7.64376V7.6734V7.70308V7.73281V7.76258V7.79241V7.82228V7.85219V7.88215V7.91216V7.9422V7.9723V8.00243V8.03261V8.06283V8.0931V8.1234V8.15375V8.18413V8.21456V8.24502V8.27553V8.30607V8.33665V8.36726V8.39792V8.42861V8.45934V8.4901V8.52089V8.55172V8.58259V8.61348V8.64441V8.67538V8.70637V8.7374V8.76846V8.79954V8.83066V8.86181V8.89298V8.92418V8.95542V8.98668V9.01796V9.04927V9.08061V9.11197V9.14336V9.17478V9.20621V9.23767V9.26916V9.30066V9.33219V9.36374V9.39531V9.4269V9.45851V9.49014V9.52178V9.55345V9.58513V9.61684V9.64856V9.68029V9.71204V9.74381V9.77559V9.80739V9.8392V9.87102V9.90286V9.93471V9.96657V9.99844V10.0303V10.0622V10.0941V10.126V10.158V10.1899V10.2218V10.2538V10.2857V10.3177V10.3497V10.3816V10.4136V10.4456V10.4776V10.5096V10.5415V10.5735V10.6055V10.6375V10.6695V10.7015V10.7335V10.7655V10.7975V10.8295V10.8615V10.8935V10.9255V10.9575V10.9895V11.0214V11.0534V11.0854V11.1173V11.1493V11.1812V11.2132V11.2451V11.277V11.3089V11.3408V11.3727V11.4046V11.4365V11.4684V11.5002V11.5321V11.5639V11.5957V11.6275V11.6593V11.691V11.7228V11.7545V11.7863V11.818V11.8496V11.8813V11.913V11.9446V11.9762V12.0078V12.0394V12.0709V12.1025V12.134V12.1654V12.1969V12.2283V12.2598V12.2912V12.3225V12.3539V12.3852V12.4165V12.4477V12.479V12.5102V12.5413V12.5725V12.6036V12.6347V12.6658V12.6968V12.7278V12.7588V12.7897V12.8206V12.8515V12.8823V12.9131V12.9439V12.9746V13.0053V13.036V13.0666V13.0972V13.1277V13.1582V13.1887V13.2191V13.2495V13.2799V13.3102V13.3404V13.3707V13.4008V13.431V13.4611V13.4911V13.5211V13.5511V13.581V13.6109V13.6407V13.6705V13.7002V13.7299V13.7596V13.7892V13.8187V13.8482V13.8776V13.907V13.9364V13.9657V13.9949V14.0241V14.0532V14.0823V14.1113V14.1403V14.1692V14.198V14.2268V14.2556V14.2843V14.3129V14.3415V14.37V14.3984V14.4268V14.4551V14.4834V14.5116V14.5351C7.41165 14.1948 6.72857 14 6 14C3.79086 14 2 15.7909 2 18C2 20.2091 3.79086 22 6 22C8.09235 22 9.80947 20.3935 9.98519 18.3467H10V18.3447V18.3425V18.3402V18.3377V18.335V18.3321V18.3291V18.3259V18.3226V18.3191V18.3154V18.3115V18.3075V18.3033V18.2989V18.2944V18.2897V18.2849V18.2798V18.2747V18.2693V18.2638V18.2581V18.2523V18.2463V18.2402V18.2338V18.2274V18.2207V18.214V18.207V18.1999V18.1926V18.1852V18.1776V18.1699V18.162V18.154V18.1458V18.1374V18.1289V18.1203V18.1115V18.1025V18.0934V18.0841V18.0747V18.0652V18.0555V18.0456V18.0356V18.0255V18.0152V18.0047V18V17.9941V17.9834V17.9725V17.9615V17.9503V17.939V17.9275V17.9159V17.9042V17.8923V17.8803V17.8681V17.8558V17.8433V17.8307V17.818V17.8052V17.7922V17.779V17.7657V17.7523V17.7388V17.7251V17.7113V17.6973V17.6832V17.669V17.6547V17.6402V17.6256V17.6108V17.596V17.5809V17.5658V17.5505V17.5352V17.5196V17.504V17.4882V17.4723V17.4563V17.4401V17.4238V17.4074V17.3909V17.3742V17.3575V17.3406V17.3235V17.3064V17.2891V17.2717V17.2542V17.2366V17.2188V17.201V17.183V17.1649V17.1467V17.1283V17.1099V17.0913V17.0726V17.0538V17.0349V17.0159V16.9968V16.9775V16.9581V16.9387V16.9191V16.8994V16.8796V16.8597V16.8396V16.8195V16.7993V16.7789V16.7584V16.7379V16.7172V16.6964V16.6755V16.6545V16.6334V16.6122V16.5909V16.5695V16.548V16.5264V16.5047V16.4829V16.461V16.439V16.4169V16.3947V16.3724V16.35V16.3274V16.3048V16.2822V16.2594V16.2365V16.2135V16.1904V16.1672V16.144V16.1206V16.0972V16.0736V16.05V16.0263V16.0024V15.9785V15.9546V15.9305V15.9063V15.882V15.8577V15.8333V15.8087V15.7841V15.7594V15.7347V15.7098V15.6848V15.6598V15.6347V15.6095V15.5842V15.5589V15.5334V15.5079V15.4823V15.4566V15.4309V15.405V15.3791V15.3531V15.3271V15.3009V15.2747V15.2484V15.222V15.1956V15.1691V15.1425V15.1158V15.0891V15.0622V15.0354V15.0084V14.9814V14.9543V14.9271V14.8999V14.8726V14.8452V14.8178V14.7903V14.7627V14.7351V14.7074V14.6796V14.6518V14.6239V14.5959V14.5679V14.5398V14.5116V14.4834V14.4551V14.4268V14.3984V14.37V14.3415V14.3129V14.2843V14.2556V14.2268V14.198V14.1692V14.1403V14.1113V14.0823V14.0532V14.0241V13.9949V13.9657V13.9364V13.907V13.8776V13.8482V13.8187V13.7892V13.7596V13.7299V13.7002V13.6705V13.6407V13.6109V13.581V13.5511V13.5211V13.4911V13.4611V13.431V13.4008V13.3707V13.3404V13.3102V13.2799V13.2495V13.2191V13.1887V13.1582V13.1277V13.0972V13.0666V13.036V13.0053V12.9746V12.9439V12.9131V12.8823V12.8515V12.8206V12.7897V12.7588V12.7278V12.6968V12.6658V12.6347V12.6036V12.5725V12.5413V12.5102V12.479V12.4477V12.4165V12.3852V12.3539V12.3225V12.2912V12.2598V12.2283V12.1969V12.1654V12.134V12.1025V12.0709V12.0394V12.0078V11.9762V11.9446V11.913V11.8813V11.8496V11.818V11.7863V11.7545V11.7228V11.691V11.6593V11.6275V11.5957V11.5639V11.5321V11.5002V11.4684V11.4365V11.4046V11.3727V11.3408V11.3089V11.277V11.2451V11.2132V11.1812V11.1493V11.1173V11.0854V11.0534V11.0214V10.9895V10.9575V10.9255V10.8935V10.8615V10.8295V10.7975V10.7655V10.7335V10.7015V10.6695V10.6375V10.6055V10.5735V10.5415V10.5096V10.4776V10.4456V10.4136V10.3816V10.3497V10.3177V10.2857V10.2538V10.2218V10.1899V10.158V10.126V10.0941V10.0622V10.0303V9.99844V9.96657V9.93471V9.90286V9.87102V9.8392V9.8198L16 8.6198V6.58019L10 7.78019V7.76258V7.73281V7.70308V7.6734V7.64376V7.61418V7.58465V7.55516V7.52573V7.49634V7.46701V7.43773V7.4085V7.37932V7.3502V7.32113V7.29212V7.26316V7.23425V7.2054V7.17661V7.14787V7.11919V7.09057V7.06201V7.0335V7.00506V6.97667V6.94835V6.92008V6.89188V6.86374V6.83566V6.80764V6.77969V6.7518V6.72397V6.69621V6.66851V6.64088V6.61332V6.58582V6.55839V6.53103V6.50373V6.4765V6.44935V6.42226V6.39524V6.3683V6.34142V6.31462V6.28788V6.26123V6.23464V6.20813V6.18169V6.15532V6.12904V6.10282V6.07669V6.05063V6.02464V5.99874V5.97291V5.94716V5.92149V5.8959V5.87039V5.84496V5.8198L18 4.2198L18 6L18 6.21912V8.2198L18 9V10.5V12.5351C17.4117 12.1948 16.7286 12 16 12C13.7909 12 12 13.7909 12 16C12 18.2091 13.7909 20 16 20C18.2091 20 20 18.2091 20 16V10.5V8.2198V4.2198ZM18 16C18 14.8954 17.1046 14 16 14C14.8954 14 14 14.8954 14 16C14 17.1046 14.8954 18 16 18C17.1046 18 18 17.1046 18 16ZM8 18C8 16.8954 7.10457 16 6 16C4.89543 16 4 16.8954 4 18C4 19.1046 4.89543 20 6 20C7.10457 20 8 19.1046 8 18Z" fill="#F4F6F8"/>
</svg>
