<svg width="22" height="18" viewBox="0 0 22 18" fill="none" xmlns="http://www.w3.org/2000/svg">
<path fill-rule="evenodd" clip-rule="evenodd" d="M14 16V18H16V16C16 14.8954 15.1046 14 14 14H8C6.89543 14 6 14.8954 6 16V18H8V16H14ZM4 14H2L2 2L10 2L20 2L20 14L18 14V16H20C21.1046 16 22 15.1046 22 14L22 2C22 0.895431 21.1046 0 20 0H10H2C0.895428 0 0 0.895433 0 2V14C0 15.1046 0.895429 16 2 16H4V14ZM9 8C9 6.89543 9.89543 6 11 6C12.1046 6 13 6.89543 13 8C13 9.10457 12.1046 10 11 10C9.89543 10 9 9.10457 9 8ZM11 4C8.79086 4 7 5.79086 7 8C7 10.2091 8.79086 12 11 12C13.2091 12 15 10.2091 15 8C15 5.79086 13.2091 4 11 4Z" fill="#F4F6F8"/>
</svg>
