<svg width="289" height="288" viewBox="0 0 289 288" fill="none" xmlns="http://www.w3.org/2000/svg">
<g clip-path="url(#clip0_1110_4102)">
<path d="M0.153568 152L72.1536 152L72.1536 144L0.153568 144L0.153568 152Z" fill="#BBD9F6" fill-opacity="0.13"/>
<path d="M0.153568 216L72.1536 216L72.1536 208L0.153568 208L0.153568 216Z" fill="#BBD9F6" fill-opacity="0.13"/>
<path d="M72.1536 200L0.153568 200L0.153568 192L72.1536 192L72.1536 200Z" fill="#BBD9F6" fill-opacity="0.13"/>
<path d="M0.153568 168L72.1536 168L72.1536 160L0.153568 160L0.153568 168Z" fill="#BBD9F6" fill-opacity="0.13"/>
<path d="M72.1536 184L0.153568 184L0.153568 176L72.1536 176L72.1536 184Z" fill="#BBD9F6" fill-opacity="0.13"/>
</g>
<path d="M144.154 72H136.154V80H144.154V72Z" fill="#BBD9F6" fill-opacity="0.13"/>
<path d="M120.154 112H128.154V104H120.154V112Z" fill="#BBD9F6" fill-opacity="0.13"/>
<path d="M112.154 112V104H104.154V112H112.154Z" fill="#BBD9F6" fill-opacity="0.13"/>
<path d="M112.154 120V112H120.154V120H128.154V128H120.154V120H112.154Z" fill="#BBD9F6" fill-opacity="0.13"/>
<path d="M104.154 120V128H112.154V120H104.154Z" fill="#BBD9F6" fill-opacity="0.13"/>
<path d="M96.1536 120H104.154V112H96.1536V120Z" fill="#BBD9F6" fill-opacity="0.13"/>
<path d="M96.1536 104H88.1536V112H96.1536V104Z" fill="#BBD9F6" fill-opacity="0.13"/>
<path d="M96.1536 96H88.1536V88H96.1536V96Z" fill="#BBD9F6" fill-opacity="0.13"/>
<path d="M96.1536 96V104H104.154V96H96.1536Z" fill="#BBD9F6" fill-opacity="0.13"/>
<path d="M96.1536 120V128H88.1536V120H96.1536Z" fill="#BBD9F6" fill-opacity="0.13"/>
<path fill-rule="evenodd" clip-rule="evenodd" d="M128.154 80H136.154V88H144.154V96H136.154V104H144.154V112H136.154V120H144.154V128H136.154V136H144.154V144H136.154V136H128.154V144H120.154V136H112.154V144H104.154V136H96.1536V144H88.1536V136H80.1536V144H72.1536V136H80.1536V128H72.1536V120H80.1536V112H72.1536V104H80.1536V96H72.1536V88H80.1536V80H72.1536V72H80.1536V80H88.1536V72H96.1536V80H104.154V72H112.154V80H120.154V72H128.154V80ZM128.154 88V80H120.154V88H128.154ZM128.154 96V88H136.154V96H128.154ZM120.154 96V88H112.154V96H120.154ZM120.154 104V96H128.154V104H136.154V112H128.154V120H136.154V128H128.154V136H120.154V128H112.154V136H104.154V128H96.1536V136H88.1536V128H80.1536V120H88.1536V112H80.1536V104H88.1536V96H80.1536V88H88.1536V80H96.1536V88H104.154V80H112.154V88H104.154V96H112.154V104H120.154Z" fill="#BBD9F6" fill-opacity="0.13"/>
<path fill-rule="evenodd" clip-rule="evenodd" d="M0 66.3603V72H5.64022L72 5.64032V0H66.3604L0 66.3603ZM72 17.28V28.5345L28.5338 72H17.28L72 17.28ZM72 50.9197V39.6L39.6 72H50.9202L72 50.9197ZM72 72H61.92L72 61.92V72ZM54.72 0H43.4657L0 43.4655V54.72L54.72 0ZM21.0799 0H32.4L0 32.4V21.0803L21.0799 0ZM0 10.08L10.08 0H0V10.08Z" fill="#BBD9F6" fill-opacity="0.13"/>
<g clip-path="url(#clip1_1110_4102)">
<path d="M144.154 216.027V224.03C109.292 225.067 81.2208 253.139 80.1833 288H72.1801C73.2223 248.72 104.874 217.069 144.154 216.027Z" fill="#BBD9F6" fill-opacity="0.13"/>
<path d="M88.1874 288C89.219 257.558 113.711 233.066 144.154 232.034V240.039C118.13 241.063 97.2165 261.976 96.1928 288H88.1874Z" fill="#BBD9F6" fill-opacity="0.13"/>
<path d="M104.154 288C104.154 265.909 122.062 248 144.154 248V256C126.48 256 112.154 270.327 112.154 288H104.154Z" fill="#BBD9F6" fill-opacity="0.13"/>
<path d="M120.154 288C120.154 274.745 130.899 264 144.154 264V272C135.317 272 128.154 279.164 128.154 288H120.154Z" fill="#BBD9F6" fill-opacity="0.13"/>
<path d="M136.154 288C136.154 283.582 139.735 280 144.154 280V288H136.154Z" fill="#BBD9F6" fill-opacity="0.13"/>
</g>
<g clip-path="url(#clip2_1110_4102)">
<path d="M288.127 288C287.085 248.72 255.434 217.069 216.154 216.026L216.154 288L288.127 288Z" fill="#BBD9F6" fill-opacity="0.13"/>
</g>
<defs>
<clipPath id="clip0_1110_4102">
<rect width="72" height="72" fill="white" transform="matrix(-1 0 0 1 72.1536 144)"/>
</clipPath>
<clipPath id="clip1_1110_4102">
<rect width="72" height="72" fill="white" transform="matrix(-1 0 0 1 144.154 216)"/>
</clipPath>
<clipPath id="clip2_1110_4102">
<rect width="72" height="72" fill="white" transform="matrix(-4.37114e-08 -1 -1 4.37114e-08 288.154 288)"/>
</clipPath>
</defs>
</svg>
