<svg width="512" height="512" viewBox="0 0 512 512" fill="none" xmlns="http://www.w3.org/2000/svg">
<path d="M67 80L452 76V314L512 395L498 433L15 430L0 394L63 314L67 80Z" fill="black"/>
<path d="M79 108C79 102.399 79 99.5992 80.0899 97.4601C81.0487 95.5785 82.5785 94.0487 84.4601 93.0899C86.5992 92 89.3995 92 95 92H418C423.601 92 426.401 92 428.54 93.0899C430.422 94.0487 431.951 95.5785 432.91 97.4601C434 99.5992 434 102.399 434 108V320H79V108Z" fill="black"/>
<path d="M79 92H434V313L79 308V92Z" fill="#B5C1C9"/>
<path d="M25 388L490 390L434 320H79L25 388Z" fill="#B5C1C9"/>
<path d="M25 399L490 395L482 414H31L25 399Z" fill="#B5C1C9"/>
<path d="M481.031 414L489 395L229 397L481.031 414Z" fill="white"/>
<path d="M110 309H403L408 325L103 328L110 309Z" fill="black"/>
<path d="M116 314H396L400 320L113 321L116 314Z" fill="#DAE2EB"/>
<path d="M318 314H396L400 320L318 314Z" fill="white"/>
<rect x="87" y="104" width="339" height="192" fill="black"/>
<path d="M96 111L416 112V289L101 285L96 111Z" fill="#DAE2EB"/>
<path d="M336 111.5L416 112V289L352 288L367.5 247L328 197.5L336 111.5Z" fill="white"/>
<path d="M190.234 366.106C190.51 365.348 190.648 364.968 190.891 364.688C191.106 364.441 191.378 364.25 191.684 364.133C192.03 364 192.434 364 193.241 364H321.556C322.431 364 322.869 364 323.235 364.151C323.559 364.285 323.841 364.501 324.055 364.778C324.298 365.091 324.413 365.514 324.643 366.358L328.898 381.958C329.272 383.332 329.46 384.019 329.301 384.562C329.162 385.038 328.851 385.444 328.429 385.704C327.947 386 327.235 386 325.81 386H187.569C186.032 386 185.263 386 184.766 385.677C184.332 385.395 184.023 384.955 183.907 384.45C183.773 383.873 184.036 383.151 184.561 381.706L190.234 366.106Z" fill="black"/>
<path d="M194.316 373.28C194.561 372.462 194.684 372.053 194.927 371.75C195.141 371.482 195.421 371.274 195.739 371.146C196.099 371 196.527 371 197.381 371H316.377C317.311 371 317.778 371 318.161 371.167C318.499 371.315 318.789 371.553 319 371.855C319.24 372.198 319.331 372.656 319.514 373.572L320.234 377.172C320.497 378.484 320.628 379.14 320.45 379.654C320.295 380.104 319.983 380.484 319.572 380.725C319.104 381 318.435 381 317.097 381H196.301C194.843 381 194.114 381 193.628 380.696C193.202 380.43 192.892 380.013 192.759 379.528C192.608 378.975 192.817 378.277 193.236 376.88L194.316 373.28Z" fill="#DAE2EB"/>
<path d="M316.156 372.305C317.162 372.197 317.665 372.143 318.085 372.288C318.456 372.415 318.781 372.648 319.02 372.959C319.291 373.311 319.401 373.805 319.621 374.792L320.135 377.106C320.431 378.437 320.578 379.103 320.406 379.626C320.255 380.084 319.944 380.472 319.53 380.719C319.057 381 318.375 381 317.011 381H235L316.156 372.305Z" fill="white"/>
<path d="M79.56 333.92C80.088 333.216 80.352 332.864 80.6866 332.61C80.9829 332.385 81.3185 332.217 81.6762 332.115C82.08 332 82.52 332 83.4 332H434.53C435.434 332 435.887 332 436.3 332.121C436.666 332.228 437.008 332.405 437.308 332.64C437.647 332.906 437.91 333.274 438.436 334.01L455.193 357.47C455.777 358.288 456.069 358.696 456.056 359.037C456.045 359.334 455.903 359.61 455.668 359.792C455.398 360 454.896 360 453.891 360H63.2C62.1701 360 61.6551 360 61.3835 359.787C61.1472 359.602 61.0065 359.321 61.0002 359.021C60.993 358.676 61.302 358.264 61.92 357.44L79.56 333.92Z" fill="black"/>
<path d="M83.5829 339.204C84.1005 338.399 84.3594 337.997 84.7061 337.705C85.013 337.446 85.3685 337.252 85.7518 337.134C86.1847 337 86.6633 337 87.6206 337H429.53C430.434 337 430.887 337 431.3 337.121C431.666 337.228 432.008 337.405 432.308 337.64C432.647 337.906 432.91 338.274 433.436 339.01L440.193 348.47C440.777 349.288 441.069 349.696 441.056 350.037C441.045 350.334 440.903 350.61 440.668 350.792C440.398 351 439.896 351 438.891 351H78.9307C77.9761 351 77.4988 351 77.2324 350.801C77.0002 350.627 76.8549 350.361 76.8342 350.071C76.8105 349.739 77.0686 349.338 77.5848 348.535L83.5829 339.204Z" fill="#DAE2EB"/>
<circle cx="256" cy="99" r="4" fill="black"/>
<circle cx="256.5" cy="98.5" r="2.5" fill="#DAE2EB"/>
<path d="M255.164 140C221.597 140 194.386 167.211 194.386 200.778C194.386 234.345 221.597 261.557 255.164 261.557C288.731 261.557 315.942 234.345 315.942 200.778C315.942 167.211 288.731 140 255.164 140Z" fill="black"/>
<path fill-rule="evenodd" clip-rule="evenodd" d="M294.426 272.96C325.479 268.596 322.294 231.906 317.929 200.854C313.565 169.801 285.276 151.164 254.223 155.529C223.171 159.893 195.959 192.445 200.323 223.498C204.688 254.55 263.373 277.324 294.426 272.96Z" fill="black"/>
<path fill-rule="evenodd" clip-rule="evenodd" d="M255.647 256.027C224.5 255.33 199.543 230.707 199.904 201.03C200.264 171.353 225.806 147.86 256.952 148.557C288.099 149.254 313.056 173.877 312.696 203.554C312.335 233.231 286.793 256.724 255.647 256.027Z" fill="#B5C1C9"/>
<path fill-rule="evenodd" clip-rule="evenodd" d="M199.906 204.538C200.353 233.231 225.455 255.945 255.974 255.271C286.492 254.597 310.869 230.791 310.422 202.098C310.391 200.113 310.242 198.158 309.982 196.236C309.963 224.566 285.758 247.932 255.527 248.599C227.12 249.227 203.405 229.589 199.9 203.728C199.9 203.997 199.9 204.267 199.906 204.538Z" fill="white"/>
<path fill-rule="evenodd" clip-rule="evenodd" d="M302.095 197.421C301.716 175.349 280.396 157.877 254.476 158.395C228.557 158.914 207.853 177.226 208.232 199.298C208.259 200.824 208.385 202.329 208.606 203.807C208.622 182.015 229.18 164.041 254.855 163.527C278.982 163.045 299.124 178.151 302.101 198.044C302.101 197.837 302.101 197.629 302.095 197.421Z" fill="white"/>
<path fill-rule="evenodd" clip-rule="evenodd" d="M255.647 153.993C278.805 153.993 298.247 169.582 303.493 190.569C296.784 171.852 278.488 158.417 256.989 158.417C229.835 158.417 207.856 179.85 207.896 206.289C207.902 210.18 208.385 213.963 209.29 217.585C207.526 212.661 206.563 207.371 206.554 201.865C206.514 175.426 228.494 153.993 255.647 153.993Z" fill="black"/>
<path fill-rule="evenodd" clip-rule="evenodd" d="M276.925 204.741L243.485 223.889C241.684 224.964 239.429 223.539 238.435 220.707C238.203 220.047 238.057 219.345 238.006 218.64L236.995 178.133C237.07 175.104 239.257 172.703 241.842 172.77C242.442 172.786 243.027 172.937 243.564 173.217L278.728 194.575C280.355 195.774 280.606 199.002 279.356 201.784C278.756 203.147 277.882 204.214 276.925 204.741Z" fill="white"/>
<path fill-rule="evenodd" clip-rule="evenodd" d="M274.905 208.195L243.207 226.182C241.495 227.192 239.358 225.849 238.42 223.182C238.201 222.561 238.063 221.9 238.016 221.236L236.995 183.112C237.053 180.262 239.087 178.004 241.505 178.069C242.066 178.084 242.614 178.227 243.118 178.491L276.467 198.627C278.034 199.757 278.326 202.796 277.178 205.413C276.628 206.696 275.809 207.7 274.905 208.195Z" fill="black"/>
<path fill-rule="evenodd" clip-rule="evenodd" d="M241.915 189.311V215.274C241.915 217.782 243.949 219.816 246.457 219.816C247.25 219.816 248.028 219.609 248.715 219.215L271.374 206.233C273.551 204.986 274.304 202.211 273.057 200.034C272.656 199.333 272.075 198.752 271.374 198.351L248.715 185.369C246.539 184.122 243.763 184.876 242.516 187.053C242.122 187.74 241.915 188.518 241.915 189.311Z" fill="white"/>
<path d="M50 65L64 16L78 65L120 80L78 95L64 144L50 95L8 80L50 65Z" fill="black"/>
<path d="M56 72L64 32L72 72L104 80L72 88L64 128L56 88L24 80L56 72Z" fill="#B5C1C9"/>
<path d="M61 81.5L64 39L69 75L100 80L61 81.5Z" fill="white"/>
</svg>
