<svg width="72" height="72" viewBox="0 0 72 72" fill="none" xmlns="http://www.w3.org/2000/svg">
<g clip-path="url(#clip0_2659_1145)">
<path d="M0 0.0265045V8.02973C34.8613 9.06728 62.9327 37.1387 63.9703 72H71.9735C70.9313 32.72 39.28 1.06874 0 0.0265045Z" fill="#BBD9F6" fill-opacity="0.13"/>
<path d="M55.9662 72C54.9346 41.5574 30.4426 17.0654 0 16.0338V24.0393C26.0236 25.063 46.937 45.9764 47.9607 72H55.9662Z" fill="#BBD9F6" fill-opacity="0.13"/>
<path d="M40 72C40 49.9086 22.0914 32 0 32V40C17.6731 40 32 54.3269 32 72H40Z" fill="#BBD9F6" fill-opacity="0.13"/>
<path d="M24 72C24 58.7452 13.2548 48 0 48V56C8.83656 56 16 63.1634 16 72H24Z" fill="#BBD9F6" fill-opacity="0.13"/>
<path d="M8 72C8 67.5817 4.41827 64 0 64V72H8Z" fill="#BBD9F6" fill-opacity="0.13"/>
</g>
<defs>
<clipPath id="clip0_2659_1145">
<rect width="72" height="72" fill="white"/>
</clipPath>
</defs>
</svg>
