<svg width="256" height="96" viewBox="0 0 256 96" fill="none" xmlns="http://www.w3.org/2000/svg">
<rect x="8" y="8" width="43" height="8" fill="#424E57"/>
<rect x="8" y="18" width="34" height="4" fill="#424E57"/>
<rect x="85.6666" y="13" width="33" height="4" fill="#424E57"/>
<circle cx="75.6666" cy="15" r="6" fill="#424E57"/>
<rect x="153.333" y="13" width="33" height="4" fill="#424E57"/>
<rect x="205" y="8" width="43" height="8" fill="#424E57"/>
<rect x="214" y="18" width="34" height="4" fill="#424E57"/>
<rect x="8" y="30" width="43" height="8" fill="#343D44"/>
<rect x="8" y="40" width="34" height="4" fill="#343D44"/>
<rect x="85.6666" y="35" width="33" height="4" fill="#343D44"/>
<circle cx="75.6666" cy="37" r="6" fill="#343D44"/>
<rect x="153.333" y="35" width="33" height="4" fill="#343D44"/>
<rect x="205" y="30" width="43" height="8" fill="#343D44"/>
<rect x="214" y="40" width="34" height="4" fill="#343D44"/>
<rect x="8" y="52" width="43" height="8" fill="#272D33"/>
<rect x="8" y="62" width="34" height="4" fill="#272D33"/>
<rect x="85.6666" y="57" width="33" height="4" fill="#272D33"/>
<circle cx="75.6666" cy="59" r="6" fill="#272D33"/>
<rect x="153.333" y="57" width="33" height="4" fill="#272D33"/>
<rect x="205" y="52" width="43" height="8" fill="#272D33"/>
<rect x="214" y="62" width="34" height="4" fill="#272D33"/>
<rect x="8" y="74" width="43" height="8" fill="#181C20"/>
<rect x="8" y="84" width="34" height="4" fill="#181C20"/>
<rect x="85.6666" y="79" width="33" height="4" fill="#181C20"/>
<circle cx="75.6666" cy="81" r="6" fill="#181C20"/>
<rect x="153.333" y="79" width="33" height="4" fill="#181C20"/>
<rect x="205" y="74" width="43" height="8" fill="#181C20"/>
<rect x="214" y="84" width="34" height="4" fill="#181C20"/>
</svg>
