<svg width="256" height="256" viewBox="0 0 256 256" fill="none" xmlns="http://www.w3.org/2000/svg">
<path d="M120.804 9.4135C136.783 -0.573944 154.625 -3.40073 170.202 4.7787C171.641 5.52425 173.498 6.1689 175.812 6.97203L175.929 7.01268C178.159 7.78675 180.769 8.69932 183.091 9.91987C198.652 18.0836 207.587 35.7504 210.352 56.0994C213.133 76.558 209.826 100.477 200.119 122.411C190.96 143.124 177.263 160.254 161.543 170.588C155.399 174.79 148.291 177.348 140.889 178.02L140.88 178.021L140.87 178.022C136.851 178.367 132.804 178.042 128.892 177.06C118.355 175.83 109.928 174.025 103.798 171.538C97.1983 168.881 90.7899 164.065 84.54 157.365L84.4845 157.305L84.4315 157.243C75.0059 146.254 70.0891 130.595 69.4664 113.367C68.8422 96.0946 72.5136 76.94 80.616 58.6008L80.6175 58.5975C90.3064 36.7236 104.83 19.3977 120.804 9.4135Z" fill="black"/>
<path fill-rule="evenodd" clip-rule="evenodd" d="M131.18 163.926C140.001 163.457 161.721 149.329 175.155 126.488C187.614 105.296 192.262 75.9124 189.994 59.936C187.321 41.1306 183.915 29.6234 168.438 19.201C172.111 19.6349 176.198 21.6742 179.509 23.4185C203.083 35.6981 207.55 78.5332 190.399 116.995C181.967 135.956 169.705 150.726 156.573 159.37C144.985 167.006 140.656 166.199 137.604 165.444C133.957 164.62 131.818 164.099 131.18 163.926Z" fill="#DAE2EB"/>
<path fill-rule="evenodd" clip-rule="evenodd" d="M175.647 109.775C192.409 71.591 187.089 30.6391 163.756 18.2814C140.424 5.92382 107.917 26.8554 91.1464 65.0217C74.3757 103.188 79.7043 144.157 103.037 156.515C126.369 168.873 158.876 147.958 175.647 109.775Z" fill="#DAE2EB"/>
<path fill-rule="evenodd" clip-rule="evenodd" d="M175.647 109.775C192.409 71.591 187.089 30.6391 163.756 18.2814C140.424 5.92382 107.917 26.8554 91.1464 65.0217C74.3757 103.188 79.7043 144.157 103.037 156.515C126.369 168.873 158.876 147.958 175.647 109.775Z" fill="#DAE2EB"/>
<path fill-rule="evenodd" clip-rule="evenodd" d="M153.168 24.8678C134.147 22.6896 112.004 41.3562 100.709 70.7837C87.8441 104.29 93.9316 139.02 114.306 148.349C115.422 148.864 116.575 149.293 117.755 149.633C115.072 149.335 112.452 148.608 109.995 147.481C89.6203 138.143 83.5329 103.422 96.4062 69.9158C108.564 38.2668 133.285 19.0275 153.159 24.8678H153.168Z" fill="white"/>
<path fill-rule="evenodd" clip-rule="evenodd" d="M109.029 158.493C130.646 162.19 157.177 141.788 171.973 108.265C188.848 70.0809 184.131 29.2938 161.428 17.1878C160.19 16.5167 158.904 15.9366 157.583 15.4522C160.621 15.9746 163.558 16.9793 166.283 18.4288C188.986 30.5781 193.711 71.3131 176.828 109.549C160.885 145.632 131.37 166.512 109.012 158.502L109.029 158.493Z" fill="white"/>
<path d="M137.639 142.508C148.374 134.256 157.979 120.562 163.877 103.457C175.552 69.5429 168.231 35.0215 147.494 26.3607C144.073 24.9293 140.385 24.2546 136.682 24.3821C143.692 22.6465 150.598 23.2279 156.772 26.595C176.604 37.4166 181.338 72.7712 167.283 105.566C160.006 122.523 149.176 135.47 137.604 142.526L137.639 142.508Z" fill="black"/>
<path d="M94.7377 111.534C97.9014 110.743 101.116 109.925 104.373 109.125C104.688 109.047 104.773 108.899 104.841 108.404C106.962 93.1647 109.085 77.9257 111.211 62.6867L111.305 62.0172C111.449 62.0172 111.492 62.1998 111.56 62.3041L129.419 91.4837C129.674 91.9097 129.674 91.9097 130.074 91.3011C139.951 76.4853 150.156 61.1564 160.69 45.3146C160.827 45.1146 160.946 44.8973 161.073 44.6886H161.167L161.073 45.3494L154.031 95.9267C153.912 96.7962 153.853 96.6831 154.423 96.5353L166.763 93.4661C165.541 97.0496 164.122 100.559 162.51 103.978C162.068 104.934 161.583 105.873 161.141 106.83C161.041 107.147 160.786 107.387 160.469 107.465C154.766 108.74 149.184 110.006 143.724 111.264C143.358 111.342 143.282 111.264 143.358 110.673C144.793 100.431 146.21 90.1911 147.61 79.9545L147.721 79.1371C147.534 79.4067 147.415 79.5893 147.287 79.7632C140.557 89.7158 133.972 99.4539 127.531 108.977C127.259 109.395 127.14 109.421 126.961 109.117C122.93 102.265 118.961 95.5644 115.055 89.0144C114.99 88.897 114.933 88.7749 114.885 88.6492L114.791 88.7188L114.706 89.3274L110.701 118.02C110.607 118.707 110.607 118.707 110.182 118.803C105.544 119.852 101.008 120.886 96.5747 121.907C96.328 121.959 96.209 121.907 96.1324 121.541C95.3961 118.316 94.9295 115.032 94.7377 111.725C94.7334 111.661 94.7334 111.597 94.7377 111.534Z" fill="#DAE2EB"/>
<path d="M230.296 148.109C225.621 143.728 219.604 141.896 212.813 142.398L212.768 142.401L211.942 142.481L211.906 142.485C206.138 143.15 202.146 145.934 199.489 147.787L199.387 147.859L198.91 148.182C197.543 148.967 196.094 149.59 194.591 150.04L194.513 150.063L194.437 150.089C193.454 150.429 192.395 150.803 191.31 151.232C187.928 152.556 184.655 154.028 181.552 155.423L180.777 155.772L180.771 155.775C175.766 158.034 171.184 160.092 166.684 161.56C164.686 159.642 162.33 158.127 159.742 157.111C154.082 154.795 147.872 154.158 140.942 154.957L140.91 154.961L140.877 154.965C137.219 155.449 133.588 156.122 129.997 156.983L126.808 157.674L126.796 157.676C124.638 158.13 122.574 158.546 120.661 158.776L120.631 158.779L120.602 158.783C119.398 158.947 118.18 158.966 116.973 158.842C115.982 158.689 115.005 158.448 114.055 158.12L114.007 158.103L113.694 158.005L113.687 158.003C106.824 155.862 101.463 154.072 98.5803 153.107L96.4314 152.388L96.3903 152.376C91.2028 150.766 85.7386 150.284 80.3543 150.962C69.3906 152.232 59.7822 157.448 53.7728 161.523C52.0181 162.64 49.2845 164.542 46.6409 166.816C44.1176 168.988 41.3114 171.804 39.7231 174.833C39.2964 175.478 38.494 176.66 37.9339 177.465C35.1611 179.998 30.2207 185.457 22.3649 194.474L20.5002 196.614L54.0431 252.52L54.0503 252.531C55.3892 254.728 57.7982 256.067 60.3971 255.997C62.9954 255.928 65.3282 254.462 66.5493 252.2L67.0182 251.332V251.295C70.2843 245.419 73.3576 240.908 76.2052 237.697C79.2133 234.304 81.6955 232.675 83.5923 232.134C84.2191 231.98 84.8539 231.862 85.4937 231.781L85.5624 231.772L85.6307 231.761C86.4184 231.633 87.3481 231.516 88.2841 231.41C95.8952 230.668 103.548 230.474 111.186 230.831L111.211 230.832L111.235 230.833C112.747 230.884 114.298 230.979 115.986 231.094C120.566 231.51 125.174 231.509 129.754 231.09L129.771 231.088L129.788 231.087C134.263 230.638 138.606 229.309 142.578 227.178L142.62 227.155L142.661 227.132C145.533 225.499 148.315 223.708 150.995 221.768L151.036 221.74C153.29 220.175 155.222 218.835 157.153 217.768L157.158 217.765C161.561 215.325 166.092 213.191 171.048 210.858L171.053 210.856L172.708 210.082L172.727 210.073C188.819 202.342 204.124 193.022 218.421 182.248C218.799 181.993 219.19 181.732 219.591 181.463L219.594 181.462C222.327 179.635 225.532 177.492 228.267 174.947C231.502 171.935 234.407 168.079 235.438 162.941C236.667 156.963 234.195 151.761 230.296 148.109Z" fill="black"/>
<path d="M217.238 154.982C214.812 152.681 211.747 152.11 208.588 152.347C205.251 152.593 203.072 154.314 200.424 156.168C197.776 158.021 194.218 158.961 191.127 160.199C180.809 164.319 170.797 170.204 159.866 172.321C159.168 172.462 158.708 172.435 158.427 171.557C157.547 168.899 155.537 166.802 152.97 165.865C144.746 162.448 135.858 165.233 127.6 166.981C123.428 167.859 118.908 168.816 114.634 168.254C112.952 168.004 111.297 167.595 109.688 167.033C100.817 164.223 94.5167 162.018 93.095 161.587C74.5697 155.588 52.5114 174.956 51.5154 178.277C51.4558 178.47 48.5442 182.818 48.3654 182.95C46.867 184.127 42.3379 189.151 36.5913 195.783L45.4453 210.715C52.0202 221.937 65.9714 225.863 77.1578 219.64C78.4758 218.885 79.8762 218.296 81.3294 217.883C82.3633 217.609 83.4124 217.401 84.4709 217.259C93.2312 215.951 102.094 215.968 110.922 216.249C119.18 216.504 127.889 218.252 135.5 214.036C140.319 211.401 144.559 207.659 149.394 204.936C154.443 202.099 159.679 199.665 164.889 197.153C171.7 193.912 178.51 190.6 184.742 186.296C188.871 183.45 192.779 180.271 196.823 177.284C201.275 173.973 225.147 162.466 217.238 154.982Z" fill="#DAE2EB"/>
<path d="M217.008 156.644C214.585 154.406 211.524 153.85 208.37 154.081C205.037 154.32 202.86 155.995 200.216 157.797C197.571 159.6 194.017 160.514 190.931 161.718C180.626 165.725 170.627 171.448 159.709 173.507C159.012 173.644 158.553 173.618 158.272 172.764C157.393 170.178 155.386 168.139 152.822 167.228C144.609 163.905 135.732 166.613 127.484 168.313C123.318 169.167 118.803 170.098 114.535 169.552C112.855 169.308 111.202 168.911 109.595 168.364C100.735 165.631 94.4431 163.486 93.0232 163.068C74.5215 157.233 52.4912 176.07 51.4964 179.299C51.4369 179.487 48.529 183.715 48.3504 183.844C46.854 184.988 42.3306 189.875 36.5913 196.324L45.6891 211.308C52.1341 210.599 56.8786 210.334 54.974 207.097C47.9933 195.137 59.2253 184.031 59.4123 183.92C72.0047 176.821 73.9178 164.409 92.4195 170.252C96.3466 170.948 100.224 171.905 104.026 173.114C105.565 173.592 114.807 174.011 116.779 173.789C120.257 173.396 124.976 171.824 129.151 170.961C137.39 169.253 147.542 165.323 156.767 172.072C159.02 173.712 157.907 174.934 158.808 177.659C159.089 178.513 159.548 178.513 160.245 178.41C171.162 176.343 181.161 170.628 191.466 166.613C194.553 165.409 198.048 164.537 200.751 162.692C203.455 160.847 205.572 159.215 208.905 158.976C212.06 158.745 215.121 159.301 217.535 161.539C217.748 161.735 217.935 161.923 218.105 162.103C219.347 159.916 219.006 158.498 217.008 156.644Z" fill="white"/>
<path d="M159.729 171.682C162.702 169.681 167.324 168.839 168.819 170.652C170.485 172.653 167.845 177.325 167.52 177.918C163.497 185.064 156.415 184.334 144.924 191.171C132.896 198.334 132.614 201.838 126.984 201.761C120.952 201.684 119.218 197.63 106.293 194.151C102.021 193 99.0395 192.597 99.0734 192.081C99.1591 190.965 115.049 195.517 131.153 188.474C138.278 185.373 141.208 181.998 147.923 180.151C151.186 179.249 155.21 177.214 157.166 174.139C157.819 173.131 158.696 172.29 159.729 171.682Z" fill="black"/>
</svg>
