<svg width="495" height="485" fill="none" xmlns="http://www.w3.org/2000/svg"><path d="M494.268 239.97h-79.893v-79.894h79.893v79.894zM94.893 159.814H15V79.921h79.893v79.893zM334.893 319.658H255v-79.893h79.893v79.893z" fill="#191D22"/><path d="M334.247 319.658h8.882v-8.882h-8.882v8.882zM343.618 310.752h8.882v-8.882h-8.882v8.882zM352.993 319.658h8.882v-8.882h-8.882v8.882zM334.247 301.846h8.882v-8.883h-8.882v8.883zM352.993 301.846h8.882v-8.883h-8.882v8.883zM360.497 310.752h8.882v-8.882h-8.882v8.882zM343.618 292.939h8.882v-8.882h-8.882v8.882zM334.247 284.033h8.882v-8.882h-8.882v8.882zM352.993 284.033h8.882v-8.882h-8.882v8.882zM360.497 292.939h8.882v-8.882h-8.882v8.882zM343.618 275.127h8.882v-8.882h-8.882v8.882zM334.247 266.688h8.882v-8.882h-8.882v8.882zM352.993 266.688h8.882v-8.882h-8.882v8.882z" fill="#191D22"/><path d="M360.497 275.127h8.882v-8.882h-8.882v8.882zM343.618 257.782h8.882V248.9h-8.882v8.882zM334.247 248.876h8.882v-8.882h-8.882v8.882zM352.993 248.876h8.882v-8.882h-8.882v8.882zM360.497 257.782h8.882V248.9h-8.882v8.882zM369.868 319.658h8.882v-8.882h-8.882v8.882zM379.243 310.752h8.882v-8.882h-8.882v8.882zM388.618 319.658h8.882v-8.882h-8.882v8.882zM369.868 301.846h8.882v-8.883h-8.882v8.883zM388.618 301.846h8.882v-8.883h-8.882v8.883zM396.121 310.752h8.883v-8.882h-8.883v8.882zM379.243 292.939h8.882v-8.882h-8.882v8.882zM369.868 284.033h8.882v-8.882h-8.882v8.882zM388.618 284.033h8.882v-8.882h-8.882v8.882zM396.121 292.939h8.883v-8.882h-8.883v8.882zM379.243 275.127h8.882v-8.882h-8.882v8.882zM369.868 266.688h8.882v-8.882h-8.882v8.882zM388.618 266.688h8.882v-8.882h-8.882v8.882z" fill="#191D22"/><path d="M396.121 275.127h8.883v-8.882h-8.883v8.882zM379.243 257.782h8.882V248.9h-8.882v8.882zM369.868 248.876h8.882v-8.882h-8.882v8.882zM388.618 248.876h8.882v-8.882h-8.882v8.882zM405.493 319.658h8.882v-8.882h-8.882v8.882zM405.493 301.846h8.882v-8.883h-8.882v8.883zM405.493 284.033h8.882v-8.882h-8.882v8.882zM405.493 266.688h8.882v-8.882h-8.882v8.882zM405.493 248.876h8.882v-8.882h-8.882v8.882zM396.121 257.782h8.883V248.9h-8.883v8.882zM442.002 319.658h-8.877v-79.893h8.877v79.893zM458.877 319.658H450v-79.893h8.877v79.893zM475.756 319.658h-8.877v-79.893h8.877v79.893zM494.502 319.658h-8.877v-79.893h8.877v79.893zM423.257 319.658h-8.882v-79.893h8.882v79.893zM494.268 461.689h-79.893v-8.877h79.893v8.877zM494.268 479.502h-79.893v-8.877h79.893v8.877zM494.268 443.877h-79.893V435h79.893v8.877zM494.268 426.064h-79.893v-8.877h79.893v8.877zM494.268 408.252h-79.893v-8.877h79.893v8.877zM316.381 80.126h-8.877V.233h8.877v79.893zM299.502 80.126h-8.877V.233h8.877v79.893zM280.756 80.126h-8.877V.233h8.877v79.893zM263.878 80.126H255V.233h8.878v79.893zM335.132 80.126h-8.882V.233h8.882v79.893z" fill="#191D22"/><path d="M334.482 62.315h79.893v-8.878h-79.893v8.878zM334.482 44.502h79.893v-8.877h-79.893v8.877zM334.482 26.69h79.893v-8.878h-79.893v8.877zM413.647 8.877h-79.893V0h79.893v8.877zM334.482 80.126h79.893v-8.882h-79.893v8.882zM397.007 479.502h-8.882v-79.893h8.882v79.893zM413.886 479.502h-8.882v-79.893h8.882v79.893zM378.261 479.502h-8.882v-79.893h8.882v79.893zM342.636 479.502h-8.882v-79.893h8.882v79.893zM361.382 479.502H352.5v-79.893h8.882v79.893z" fill="#191D22"/><path fill-rule="evenodd" clip-rule="evenodd" d="M333.754 80.39v8.877a8.877 8.877 0 008.877-8.877h-8.877zm0 17.754v8.877c14.708 0 26.631-11.923 26.631-26.631h-8.877c0 9.805-7.949 17.754-17.754 17.754zm0 26.631v-8.877c19.611 0 35.508-15.897 35.508-35.508h8.877c0 24.513-19.872 44.385-44.385 44.385zm0 8.877v8.877c34.319 0 62.139-27.821 62.139-62.14h-8.877c0 29.417-23.846 53.263-53.262 53.263zm0 17.754v8.877c44.124 0 79.893-35.769 79.893-79.893h-8.877c0 39.221-31.795 71.016-71.016 71.016zM334.893 399.813v-8.877a8.878 8.878 0 00-8.877 8.877h8.877zm0-17.754v-8.877c-14.708 0-26.631 11.924-26.631 26.631h8.877c0-9.805 7.949-17.754 17.754-17.754zm0-26.631v8.877c-19.61 0-35.508 15.898-35.508 35.508h-8.877c0-24.513 19.872-44.385 44.385-44.385zm0-8.877v-8.877c-34.318 0-62.139 27.821-62.139 62.139h8.877c0-29.415 23.847-53.262 53.262-53.262zm0-17.754v-8.877c-44.123 0-79.893 35.77-79.893 79.893h8.877c0-39.221 31.795-71.016 71.016-71.016zM414.375 399.813h8.877a8.877 8.877 0 00-8.877-8.877v8.877zm17.754 0h8.877c0-14.707-11.923-26.631-26.631-26.631v8.877c9.805 0 17.754 7.949 17.754 17.754zm26.631 0h-8.877c0-19.61-15.897-35.508-35.508-35.508v-8.877c24.513 0 44.385 19.872 44.385 44.385zm8.877 0h8.877c0-34.318-27.82-62.139-62.139-62.139v8.877c29.416 0 53.262 23.847 53.262 53.262zm17.754 0h8.877c0-44.123-35.769-79.893-79.893-79.893v8.877c39.221 0 71.016 31.795 71.016 71.016zM95.625 80.126h8.877a8.877 8.877 0 00-8.877-8.877v8.877zm17.754 0h8.877c0-14.708-11.923-26.631-26.631-26.631v8.877c9.805 0 17.754 7.949 17.754 17.754zm26.631 0h-8.877c0-19.61-15.897-35.508-35.508-35.508V35.74c24.513 0 44.385 19.871 44.385 44.385zm8.877 0h8.877c0-34.319-27.82-62.14-62.139-62.14v8.878c29.416 0 53.262 23.846 53.262 53.262zm17.754 0h8.877c0-44.124-35.769-79.893-79.893-79.893V9.11c39.221 0 71.016 31.794 71.016 71.016zM254.272.233h-8.877a8.877 8.877 0 008.877 8.877V.233zm-17.754 0h-8.877c0 14.707 11.923 26.63 26.631 26.63v-8.876c-9.805 0-17.754-7.95-17.754-17.754zm-26.631 0h8.877c0 19.61 15.898 35.508 35.508 35.508v8.877c-24.513 0-44.385-19.872-44.385-44.385zm-8.877 0h-8.877c0 34.318 27.821 62.139 62.139 62.139v-8.877c-29.416 0-53.262-23.847-53.262-53.262zm-17.754 0h-8.877c0 44.123 35.77 79.893 79.893 79.893v-8.877c-39.221 0-71.016-31.795-71.016-71.016z" fill="#191D22"/><path d="M414.375 80h79.893v79.893c-44.123 0-79.893-35.77-79.893-79.894zM334.893 79.921v79.893H255c0-44.123 35.77-79.893 79.893-79.893zM334.893 170.906l-10.83-10.83h10.83v10.83zm0 12.561v12.561l-35.952-35.952h12.561l23.391 23.391zm0 25.122v12.561l-61.074-61.074h12.561l48.513 48.513zM255 239.97v-10.831l10.83 10.831H255zm35.952 0h-12.561L255 216.578v-12.56l35.952 35.952zm25.122 0h-12.561L255 191.457v-12.561l61.074 61.074zm-54.816-79.894H255v6.258l73.635 73.636h6.258v-6.259l-73.635-73.635z" fill="#191D22"/><path fill="url(#paint0_linear)" d="M0 1h495v484H0z"/><defs><linearGradient id="paint0_linear" x1="359" y1="358" x2="365" y2="1" gradientUnits="userSpaceOnUse"><stop/><stop offset="1" stop-opacity="0"/></linearGradient></defs></svg>
