<svg width="380" height="506" xmlns="http://www.w3.org/2000/svg"><g fill="#181C20" fill-rule="evenodd"><path d="M158.782 477.213h-4.674v4.674h4.674v4.686h-4.674v4.686h4.674v4.675h4.686v4.686h-4.686v-4.675h-4.674v4.675h4.674v4.688h-4.686v-4.686h-4.675v-4.674h-4.686v4.674h-4.686v-4.674h-4.674v4.674h4.674v4.686h-4.686v-4.686h-4.674v4.686H126v-4.686h4.686v-4.674H126v-4.687h4.686v-4.686H126v-4.686h4.686v-4.686h4.675v-4.674h4.686v4.674h4.686v-4.674h4.686v4.674h4.675v-4.674h4.686v4.674h4.686v4.686h-4.686v-4.676h.002zm-28.096-.012v-4.675H126v4.687h4.686v-.012zm14.047 23.421v4.686h4.686v-4.686h-4.686zm14.049-9.36v-4.687h4.686v4.686h-4.686zm-23.421 4.674h-4.675v-4.675h4.675v4.675zm.011-23.41v-4.686h4.675v4.686h4.686v-4.686h4.686v4.686h4.686v-4.686h4.675v4.686h4.686v-4.686h-4.686v-4.686h-4.686v4.686h-4.675v-4.686h-4.686v4.686h-4.686v-4.686h-4.686v4.686h-4.675v-4.686H126v4.686h4.686v4.686h4.686zm18.722 9.361v4.686h-4.675v-4.686h4.675zm-9.361 0v-4.674h4.686v4.674h-4.686zm-4.686 0h4.686v4.686h-4.686v-4.686zm0 0h-4.675v-4.674h4.675v4.674zm0 9.374h-4.675v-4.686h4.675v4.686zm4.686 0v4.675h-4.686v-4.675h4.686zm4.688 0h-4.686v-4.686h4.686v4.686zm0 0h4.675v4.675h-4.675v-4.675zm-14.06-4.686v-4.686h-4.675v4.686h4.675zm32.793 14.047h-4.686v4.686h4.686v-4.686zm-4.686-9.36h4.686v4.686h-4.686v-4.687zm4.686-9.375h-4.686v4.686h4.686v-4.686zm-4.686-9.36h4.686v4.686h-4.686v-4.687zm0-9.373h4.686v4.686h-4.686v-4.686zM346.606 14.059h4.674v4.674h-4.674v4.686h4.674v4.686h-4.674v4.674h-4.686v4.687h4.686V32.79h4.674v4.675h-4.674v4.688h4.686v-4.686h4.674v-4.674h4.686v4.674h4.687v-4.674h4.674v4.674h-4.674v4.686h4.686v-4.686h4.674v4.686h4.689v-4.686h-4.686v-4.674h4.686v-4.687h-4.686v-4.686h4.686v-4.686h-4.686V14.05h-4.675V9.375h-4.686v4.674h-4.686V9.375h-4.686v4.674h-4.675V9.375h-4.686v4.674h-4.686v4.686h4.686V14.06h-.002zm28.096-.012V9.372h4.686v4.687h-4.686v-.012zm-14.047 23.421v4.686h-4.686v-4.686h4.686zm-14.05-9.36V23.42h-4.685v4.686h4.686zm23.422 4.674h4.675v-4.675h-4.675v4.675zm-.011-23.41V4.686h-4.675v4.686h-4.686V4.686h-4.686v4.686h-4.686V4.686h-4.675v4.686h-4.686V4.686h4.686V0h4.686v4.686h4.675V0h4.686v4.686h4.686V0h4.686v4.686h4.675V0h4.686v4.686h-4.686v4.686h-4.686zm-18.722 9.361v4.686h4.675v-4.686h-4.675zm9.361 0v-4.674h-4.686v4.674h4.686zm4.686 0h-4.686v4.686h4.686v-4.686zm0 0h4.675v-4.674h-4.675v4.674zm0 9.374h4.675v-4.686h-4.675v4.686zm-4.686 0v4.675h4.686v-4.675h-4.686zm-4.689 0h4.686v-4.686h-4.686v4.686zm0 0h-4.674v4.675h4.674v-4.675zm14.061-4.686v-4.686h4.675v4.686h-4.675zm-32.793 14.047h4.686v4.686h-4.686v-4.686zm4.686-9.36h-4.686v4.686h4.686v-4.687zm-4.686-9.375h4.686v4.686h-4.686v-4.686zm4.686-9.36h-4.686v4.686h4.686V9.372zm0-9.373h-4.686v4.686h4.686V0zM375.085 463.154h4.686V421h-4.686v42.154zm-4.682 0h-4.684V421h4.684v42.154zm-9.367 0h-4.684V421h4.684v42.154zm-14.052 0h4.684V421h-4.684v42.154zm-4.683 0h-4.684V421h4.684v42.154zM210.068 341.217v-4.686h42.155v4.686h-42.155zm0 4.682v4.683h42.155V345.9h-42.155zm0 9.367v4.684h42.155v-4.684h-42.155zm0 14.052v-4.684h42.155v4.684h-42.155zm0 4.683v4.684h42.155v-4.684h-42.155zM252.925 88.713v-4.686h42.154v4.686h-42.154zm0 4.682v4.684h42.154v-4.684h-42.154zm0 9.368v4.683h42.154v-4.683h-42.154zm0 14.051v-4.684h42.154v4.684h-42.154zm0 4.684v4.684h42.154v-4.684h-42.154zM42.154 130.865v-4.683C18.874 126.182 0 145.055 0 168.336h4.684c0-20.696 16.775-37.47 37.47-37.47zm0 9.368v-4.684c-18.107 0-32.786 14.68-32.786 32.787h4.683c0-15.52 12.583-28.103 28.103-28.103zm0 4.684v4.684c-10.347 0-18.735 8.388-18.735 18.735h-4.684c0-12.935 10.485-23.42 23.42-23.42zm0 14.051v-4.683c-7.761 0-14.051 6.29-14.051 14.05h4.684a9.368 9.368 0 019.367-9.367zm0 9.368v-4.684a4.683 4.683 0 00-4.684 4.684h4.684z"/><path d="M84 379.107h42.154v42.154c-23.28 0-42.154-18.873-42.154-42.154z" fill-rule="nonzero"/><path d="M121.355 84.027h4.686V41.873h-4.686v42.154zm-14.054 0h-4.686V41.873h4.686v42.154zm-14.054 0h4.687V41.873h-4.687v42.154zm-9.36 0h4.686V41.873h-4.686v42.154zm32.782 0h-4.686V41.873h4.686v42.154z"/></g></svg>
