<svg xmlns="http://www.w3.org/2000/svg" fill="none" viewBox="0 0 520 408">
  <defs/>
  <ellipse cx="287" cy="231.7" fill="#000" rx="189.6" ry="189.1" transform="rotate(-15 287 231.7)"/>
  <ellipse cx="287" cy="231.7" fill="#C4C3C6" rx="166.4" ry="165.8" transform="rotate(-15 287 231.7)"/>
  <path fill="#fff" fill-rule="evenodd" d="M129.3 284.9A166.6 166.6 0 01244.1 71.5 166.6 166.6 0 01450 199a166.5 166.5 0 00-201-108.7 166.5 166.5 0 00-119.8 194.7z" clip-rule="evenodd"/>
  <path fill="#000" fill-rule="evenodd" d="M269.4 418a166 166 0 01-143.9-193.6A165.3 165.3 0 01326.7 91.8a165.3 165.3 0 00-182.1 135.8 166 166 0 00125 190.2z" clip-rule="evenodd"/>
  <path fill="#000" fill-rule="evenodd" d="M229.8 404.7c-47.8-45-70.2-194.9-25-246.8C251 104.7 329.9 97.6 381 142.2c10.3 9 18.7 19.4 25.2 30.7a119 119 0 00-16.8-18c-51.2-44.5-142.6 10.8-120.7 81 32.4 103.8-23.8 137 15.7 168.2l-54.7.6z" clip-rule="evenodd"/>
  <path fill="#fff" fill-rule="evenodd" d="M406 169.2A131.6 131.6 0 01360.5 356a133.7 133.7 0 01-187.7-58.4 133.8 133.8 0 00178 41.2 131.8 131.8 0 0055-169.6z" clip-rule="evenodd"/>
  <path fill="#000" d="M317.7 140.4l-69.3 18.5 6.3 23.6 42.3-11.3 26 97c2 7.8-1 15.8-7.4 20.8L294 306.3l14.1 23.6 29.4-23c7.7-5.7 13.3-14 15-23.1 1.1-5.4.7-11-.6-16.1l-34.2-127.3z"/>
  <path fill="#C4C3C6" d="M306.1 150l-65.3 17.5 6 22.7 40-10.7 24.9 93a19 19 0 01-7 20l-14.3 10.4 13.4 22.7 21.7-15.8a35.6 35.6 0 0013.4-37.6L306 150z"/>
  <path fill="#fff" d="M292.1 305.8l-4.3-7 15.2-10.5a18.6 18.6 0 007.6-19.7l-24.4-91-41.9 11.2-2.2-8.5 49-13.1 26.5 99c1 4 1.3 8.4.2 12.6a31 31 0 01-13 18.4l-12.7 8.6z"/>
  <path fill="#000" d="M230 168.8c62.2 54 54 160.6-14.1 238.6a223.2 223.2 0 01-115.5 72.1A107.5 107.5 0 0123.5 469s-38.3-16.4-57.8-30.6c-20.3-14.8-37.9-42.8-37.9-42.8-33-57.8-18-143.1 39-208.5 68-78 172.8-101 235-47.1 7.9 6.8 19.2 21 28.2 28.8z"/>
  <path fill="#C4C3C6" fill-rule="evenodd" d="M31.8 448.6c22 5.9 82.9-7.8 127.4-46.9 41.4-36.3 67.4-96.5 69.7-133 2.6-43-23.6-92.7-33.3-105.5 8.9 3.9 15.1 14.5 22.6 21 52.3 45.1 44.9 138.6-16.5 208.8-30.3 34.6-68 57.1-104.7 65.6-32.5 7.5-42.8 2.4-50.1-1.6-12.9-7.1-15-8.4-15-8.4z" clip-rule="evenodd"/>
  <ellipse cx="76.2" cy="283.8" fill="#D8D8D8" rx="155.3" ry="140.5" transform="rotate(-15 76.2 283.8)"/>
  <ellipse cx="76.2" cy="283.8" fill="#C4C3C6" rx="155.3" ry="140.5" transform="rotate(-15 76.2 283.8)"/>
  <path fill="#fff" fill-rule="evenodd" d="M-19.3 421c52.8 26 129 3.3 181.7-58 60.1-69.9 67-163.3 15.3-208.6a94.2 94.2 0 00-8.9-7 94.2 94.2 0 0120.6 13.8C241 206.6 234.2 300 174 369.8c-56.8 66-140.8 87.4-193.4 51.3z" clip-rule="evenodd"/>
  <path fill="#fff" fill-rule="evenodd" d="M155.6 163.7c-46.8-20.3-111.5 2.9-154 58.5-48.7 63.3-50.2 144.8-3.5 182 2.6 2 5.3 3.9 8 5.6a81.7 81.7 0 01-18.4-11C-59 361.5-57.4 280-8.9 216.7c46-59.9 117.4-82.1 164.5-53z" clip-rule="evenodd"/>
  <path fill="#000" fill-rule="evenodd" d="M57.7 406.5a166.3 166.3 0 0084.6-64.2c45.7-64.7 44.3-145.8-3.1-181.2-8-6-16.8-10.2-26-13a84.9 84.9 0 0149 20.9c44.3 39.4 38.8 120.3-12.3 180.6-26.5 31.2-60 50.7-92.2 57z" clip-rule="evenodd"/>
  <path fill="#000" d="M140 219.6l-8.5-12.8-68.5-8-13.1 8.5L51 219l31.6 9.7-39.2 70.8c-13 23.4 0 0 0 0s-7 17-16.3 19.4c-9.3 2.5-19.5 1.9-19.5 1.9-4 7.2 25.9 14.6 16.6 13.3l-21-4-9.5 12.8 3.8 14.4 31.6 6.8c10.8 2 21.8.1 30.1-5.6 5.1-3.3 9.1-8 11.8-13l69-126z"/>
  <path fill="#C4C3C6" d="M132 206.4l-76.9-20.8-12 20.2 46.5 14.6-51.3 91c-4.1 7.2-12.8 10.8-22 9.5l-21-4-5.7 27.2 31.6 6.8c10.8 2 21.8.1 30.1-5.6 5-3.2 9.1-8 11.8-13l69-125.9z"/>
  <path fill="#fff" d="M-2 346.8l.8-4 28.3 5.3c12.3 1.7 24-3.1 29.4-12.8l68.8-121.9L63 194l2.7-4.6 70 18.7-69.5 125.7c-2.8 5-6.8 9.8-12 13a41 41 0 01-30.2 5.6l-26-5.5z"/>
</svg>
