<svg viewBox="0 0 648 486" fill="none" xmlns="http://www.w3.org/2000/svg"><path fill-rule="evenodd" clip-rule="evenodd" d="M258.209 251.991h-5.993v-5.988h5.993V240h-5.993v-6.003h5.993v-5.988h6.008v-6.003h-6.008v5.988h-5.993v-5.988h5.993V216h-6.008v6.003h-5.993v5.988H240.2v-5.988h-6.008v5.988h-5.993v-5.988h5.993V216h-6.008v6.003h-5.993V216h-6.011v6.003h6.008v5.988h-6.008v6.003h6.008v6.003h-6.008V246h6.008v6.003h5.993v5.988h6.008v-5.988h6.008v5.988h6.008v-5.988h5.993v5.988h6.008v-5.988h6.008V246h-6.008v5.991h.003zm-36.021.015v5.988h-6.008v-6.003h6.008v.015zm18.009-30.003V216h6.008v6.003h-6.008zm18.012 11.991v6.003h6.008v-6.003h-6.008zm-30.028-5.988h-5.993v5.988h5.993v-5.988zm.015 29.988v6.003h5.993v-6.003h6.008v6.003h6.008v-6.003h6.008v6.003h5.993v-6.003h6.008v6.003h-6.008V270h-6.008v-6.003h-5.993V270h-6.008v-6.003h-6.008V270h-6.008v-6.003h-5.993V270h-6.008v-6.003h6.008v-6.003h6.008zm24.002-11.991V240h-5.993v6.003h5.993zm-12.001 0v5.988h6.008v-5.988h-6.008zm-6.008 0h6.008V240h-6.008v6.003zm0 0h-5.993v5.988h5.993v-5.988zm0-12.009h-5.993v6.003h5.993v-6.003zm6.008 0v-5.988h-6.008v5.988h6.008zm6.011 0H240.2v6.003h6.008v-6.003zm0 0h5.993v-5.988h-5.993v5.988zm-18.027 6.003V246h-5.993v-6.003h5.993zm42.044-17.994h-6.008V216h6.008v6.003zm-6.008 11.991h6.008v-6.003h-6.008v6.003zm6.008 12.009h-6.008V240h6.008v6.003zm-6.008 11.991h6.008v-6.003h-6.008v6.003zm0 12.006h6.008v-6.003h-6.008V270z" fill="#131519"/><path fill-rule="evenodd" clip-rule="evenodd" d="M528.436 251.991h-5.994v-5.988h5.994V240h-5.994v-6.003h5.994v-5.988h6.007v-6.003h-6.007v5.988h-5.994v-5.988h5.994V216h-6.008v6.003h-5.993v5.988h-6.008v-5.988h-6.008v5.988h-5.993v-5.988h5.993V216h-6.009v6.003h-5.992V216h-6.012v6.003h6.008v5.988h-6.008v6.003h6.008v6.003h-6.008V246h6.008v6.003h5.993v5.988h6.008v-5.988h6.008v5.988h6.009v-5.988h5.993v5.988h6.008v-5.988h6.008V246h-6.008v5.991h.003zm-36.022.015v5.988h-6.008v-6.003h6.008v.015zm18.009-30.003V216h6.009v6.003h-6.009zm18.013 11.991v6.003h6.007v-6.003h-6.007zm-30.029-5.988h-5.993v5.988h5.993v-5.988zm.015 29.988v6.003h5.993v-6.003h6.008v6.003h6.009v-6.003h6.008v6.003h5.993v-6.003h6.008v6.003h-6.008V270h-6.008v-6.003h-5.993V270h-6.009v-6.003h-6.008V270h-6.008v-6.003h-5.993V270h-6.008v-6.003h6.008v-6.003h6.008zm24.003-11.991V240h-5.993v6.003h5.993zm-12.002 0v5.988h6.009v-5.988h-6.009zm-6.008 0h6.008V240h-6.008v6.003zm0 0h-5.993v5.988h5.993v-5.988zm0-12.009h-5.993v6.003h5.993v-6.003zm6.008 0v-5.988h-6.008v5.988h6.008zm6.012 0h-6.008v6.003h6.008v-6.003zm0 0h5.993v-5.988h-5.993v5.988zm-18.028 6.003V246h-5.993v-6.003h5.993zm42.044-17.994h-6.008V216h6.008v6.003zm-6.008 11.991h6.008v-6.003h-6.008v6.003zm6.008 12.009h-6.008V240h6.008v6.003zm-6.008 11.991h6.008v-6.003h-6.008v6.003zm0 12.006h6.008v-6.003h-6.008V270z" fill="#4038FF"/><path fill-rule="evenodd" clip-rule="evenodd" d="M150.119 35.99h-5.993v-5.987h5.993V24h-5.993v-6.003h5.993V12.01h6.008V6.006h-6.008v5.988h-5.993V6.006h5.993V0h-6.008v6.003h-5.993v5.988h-6.008V6.003h-6.008v5.988h-5.993V6.003h5.993V0h-6.008v6.003h-5.993V0h-6.011v6.003h6.008v5.988h-6.008v6.003h6.008v6.003h-6.008V30h6.008v6.003h5.993v5.988h6.008v-5.988h6.008v5.988h6.008v-5.988h5.993v5.988h6.008v-5.988h6.008V30h-6.008v5.99h.003zm-36.021.016v5.988h-6.008v-6.003h6.008v.015zm18.009-30.003V0h6.008v6.003h-6.008zm18.012 11.991v6.003h6.008v-6.003h-6.008zm-30.028-5.988h-5.993v5.988h5.993v-5.988zm.015 29.988v6.003h5.993v-6.003h6.008v6.003h6.008v-6.003h6.008v6.003h5.993v-6.003h6.008v6.003h-6.008V54h-6.008v-6.003h-5.993V54h-6.008v-6.003h-6.008V54h-6.008v-6.003h-5.993V54h-6.008v-6.003h6.008v-6.003h6.008zm24.002-11.991V24h-5.993v6.003h5.993zm-12.001 0v5.988h6.008v-5.988h-6.008zm-6.008 0h6.008V24h-6.008v6.003zm0 0h-5.993v5.988h5.993v-5.988zm0-12.009h-5.993v6.003h5.993v-6.003zm6.008 0v-5.988h-6.008v5.988h6.008zm6.011 0h-6.008v6.003h6.008v-6.003zm0 0h5.993v-5.988h-5.993v5.988zm-18.027 6.003V30h-5.993v-6.003h5.993zm42.044-17.994h-6.008V0h6.008v6.003zm-6.008 11.991h6.008v-6.003h-6.008v6.003zm6.008 12.009h-6.008V24h6.008v6.003zm-6.008 11.991h6.008v-6.003h-6.008v6.003zm0 12.006h6.008v-6.003h-6.008V54zM318.26 270h6.008v54h-6.008v-54zm-6.002 0h-6.005v54h6.005v-54zm-12.01 0h-6.005v54h6.005v-54zm-18.015 0h6.005v54h-6.005v-54zm-6.005 0h-6.005v54h6.005v-54z" fill="#131519"/><path d="M328.503 378h-4.233v4.23L374.081 432h4.234v-4.23L328.503 378zm37.081 54h-8.497l-32.817-32.79v-8.49L365.584 432zm-16.994 0h-8.497l-15.823-15.81v-8.49l24.32 24.3zm-24.32 0v-7.32l7.325 7.32h-7.325zm54.045-21.21v8.49L336.999 378h8.498l32.818 32.79zm0-16.98v8.49L353.994 378h8.497l15.824 15.81zm0-8.49l-7.327-7.32h7.327v7.32z" fill="#4038FF"/><path fill-rule="evenodd" clip-rule="evenodd" d="M324.811 155.997V162h-54.045v-6.003h54.045zm0-5.997v-6h-54.045v6h54.045zm0-12v-6h-54.045v6h54.045zm0-18v6h-54.045v-6h54.045zm0-6v-6h-54.045v6h54.045zM270.225 479.997V486H216.18v-6.003h54.045zm0-5.997v-6H216.18v6h54.045zm0-12v-6H216.18v6h54.045zm0-18v6H216.18v-6h54.045zm0-6v-6H216.18v6h54.045zM486.408 317.997V324h-54.045v-6.003h54.045zm0-5.997v-6h-54.045v6h54.045zm0-12v-6h-54.045v6h54.045zm0-18v6h-54.045v-6h54.045zm0-6v-6h-54.045v6h54.045zM270.225 330.003V324H216.18v6.003h54.045zm0 18.003v6.003H216.18v-6.003h54.045zm0 18.003v-6.003H216.18v6.003h54.045zm0 11.991v-6.003H216.18V378h54.045zm0-41.994v6.003H216.18v-6.003h54.045zM641.993 378h6.005c0-29.823-24.197-54-54.045-54v6c26.533 0 48.04 21.489 48.04 48zm-12.01 0h6.005c0-23.196-18.819-42-42.035-42v6c19.898 0 36.03 16.119 36.03 36zm-6.005 0h-6.005c0-13.254-10.755-24-24.02-24v-6c16.583 0 30.025 13.431 30.025 30zm-18.015 0h6.005c0-9.942-8.065-18-18.015-18v6c6.633 0 12.01 5.373 12.01 12zm-12.01 0h6.005a6 6 0 00-6.005-6v6zM168.138 162h-6.005c0 29.823 24.197 54 54.045 54v-6c-26.533 0-48.04-21.489-48.04-48zm12.01 0h-6.005c0 23.196 18.82 42 42.035 42v-6c-19.898 0-36.03-16.119-36.03-36zm6.005 0h6.005c0 13.254 10.755 24 24.02 24v6c-16.583 0-30.025-13.431-30.025-30zm18.015 0h-6.005c0 9.942 8.065 18 18.015 18v-6c-6.633 0-12.01-5.373-12.01-12zm12.01 0h-6.005a6 6 0 006.005 6v-6zM540.451 426v6c29.848 0 54.045-24.177 54.045-54h-6.005c0 26.511-21.507 48-48.04 48zm0-12v6c23.215 0 42.035-18.804 42.035-42h-6.005c0 19.881-16.132 36-36.03 36zm0-6v-6c13.265 0 24.02-10.746 24.02-24h6.005c0 16.569-13.442 30-30.025 30zm0-18v6c9.95 0 18.015-8.058 18.015-18h-6.005c0 6.627-5.378 12-12.01 12zm0-12v6a6 6 0 006.005-6h-6.005z" fill="#131519"/><path d="M162.133 216v54h-54.045c0-29.823 24.197-54 54.045-54z" fill="#4038FF"/><path d="M54.043 270h54.045v54c-29.848 0-54.045-24.177-54.045-54zM432.901 54v54h-54.046c0-29.823 24.198-54 54.046-54z" fill="#131519"/><path fill-rule="evenodd" clip-rule="evenodd" d="M168.141 54h-6.008v54h6.008V54zm18.018 0h6.008v54h-6.008V54zm18.018 0h-6.008v54h6.008V54zm12.001 0h-6.008v54h6.008V54zm-42.029 0h6.008v54h-6.008V54z" fill="#4038FF"/><path fill-rule="evenodd" clip-rule="evenodd" d="M6.008 162H0v54h6.008v-54zm18.018 0h6.008v54h-6.008v-54zm18.018 0h-6.008v54h6.008v-54zm12.001 0h-6.008v54h6.008v-54zm-42.03 0h6.009v54h-6.008v-54z" fill="#131519"/><path fill-rule="evenodd" clip-rule="evenodd" d="M437.161 250.581c11.569-3.812 41.946 4.299 50.24 8.132 12.521 5.786 26.29 13.179 31.195 27.749 3.277 9.734-.334 20.693-2.172 29.731-1.032 5.068-2.008 9.867-2.055 14.547.465-.025.94-.071 1.228-.098 15.991-1.545 32.576 8.279 40.331 23.888 2.724 5.483.745 8.865-.232 10.064a6.585 6.585 0 01-3.022 2.097c-1.228.423-2.416.461-3.416.443-15.903-.294-30.098-3.14-43.394-8.706-14.389-6.02-25.26-14.28-32.311-24.549-7.132-10.386-9.943-23.181-7.908-34.116-4.296.549-8.665 1.848-13.198 3.195-8.213 2.441-16.706 4.965-25.895 3.3-8.174-1.479-15.337-6.043-22.563-10.991-15.773-10.797-33.783-23.775-47.921-41.224-3.015-3.723-5.935-7.887-6.866-13.113-1.073-6.018.907-11.52 2.354-15.539 3.737-10.383 8.921-21.467 19.037-24.944a19.132 19.132 0 012.436-.661c3.777-.767 7.58-.309 10.934.095 3.225.388 6.271.756 8.562-.032.283-.097.557-.212.814-.344 1.878-.952 3.394-3.015 4.909-5.554 9.481 7.338 22.451 26.214 38.913 56.63z" fill="#000" stroke="#000" stroke-width="2.637"/><path fill-rule="evenodd" clip-rule="evenodd" d="M374.177 205.09c-9.558 1.928-14.398 12.76-17.856 22.402-1.433 3.995-2.878 8.25-2.103 12.578.705 3.927 3.141 7.315 5.633 10.391 13.152 16.233 29.89 28.614 46.75 40.171 6.436 4.412 13.153 8.832 20.559 10.181 15.555 2.835 30.141-8.408 45.775-6.602-5.421 11.183-2.591 25.934 4.745 36.611 7.337 10.681 18.456 17.779 29.887 22.575 13.52 5.673 27.384 8.086 41.562 8.363.97.02 2.061-.016 2.679-.777.837-1.029.302-2.685-.329-3.953-6.689-13.447-21.339-22.138-35.1-20.823-2.238.214-4.983.43-6.337-1.589-.673-1.005-.763-2.293-.774-3.496-.105-14.044 7.326-27.915 2.786-41.365-4.201-12.447-16.835-19.096-28.205-24.363-9.271-4.294-19.526-8.673-28.831-5.615-5.949 1.957-10.551 6.691-15.552 10.539-11.12 8.557-28.084 12.336-38.752 1.858-9.618-9.448-9.192-25.874-4.064-37.978.666-1.569 1.551-3.247 3.117-3.694 2.169-.617 4.259 1.385 6.207 2.773 5.623 4.006-24.743-29.61-31.797-28.187z" fill="#000"/><path fill-rule="evenodd" clip-rule="evenodd" d="M508.064 284.978c.311.597.753 1.099.641 1.823l-.022-.118c4.335 13.748-.058 26.681-1.329 39.868-.415 4.318-1.255 8.149.665 12.617 1.024 2.387 6.656 9.87 5.732 10.934-.19.22-9.016-2.183-12.12-3.371-20.553-7.864-24.715-19.508-24.715-19.508-6.613-12.276-2.461-21.625-1.028-23.158 6.766-7.236 29.968-8.97 30.893-10.026.69-.787-5.386-8.52-13.873-11.394-2.812-1.19-4.784.67-6.281 2.112-7.535 7.261-10.08 7.126-19.538 8.879-6.02 1.114-20.097-22.286-15.271-29.244 4.188-6.04 4.781-5.181 11.099-3.777 4.061.903 14.985 2.867 24.46 7.688 10.238 5.208 18.969 13.376 20.687 16.675z" fill="#C4C3C6"/><path fill-rule="evenodd" clip-rule="evenodd" d="M498.225 292.214c5.583-1.914 10.992 4.097 11.459 16.797.468 12.699 4.545-9.281 3.929-11.061-1.387-4.011-5.379-24.208-15.417-20.767-10.038 3.442-17.05 9.483-15.663 13.495 1.387 4.011 5.654 4.978 15.692 1.536z" fill="#000"/><path fill-rule="evenodd" clip-rule="evenodd" d="M496.172 285.095c-14.289 2.822-19.083 7.016-27.769 8.727-5.529 1.087 6.194-30.212 10.825-29.356 2.976.55 14.772 2.894 22.583 8.111 7.81 5.216 7.907 9.073 10.732 15.282-6.889-3.513-13.012-3.427-16.371-2.764z" fill="#fff"/><path fill-rule="evenodd" clip-rule="evenodd" d="M542.174 360.614c-10.932.266-19.914-11.307-25.092-18.624-1.83-2.585-.474-4.114 2.659-3.666 11.624 1.669 24.015 7.333 30.443 18.845.707 1.268-5.952 3.396-8.01 3.445z" fill="#C4C3C6"/><path fill-rule="evenodd" clip-rule="evenodd" d="M394.134 237.236l-.504.974c-.081.25-.176.461-.244.751l.748-1.725z" fill="#D796A0"/><path fill-rule="evenodd" clip-rule="evenodd" d="M412.879 220.747c-2.614-5.188-8.384-11.836-14.997-13.244-3.707-.789-4.617.72-13.614-.03-2.335-.193-3.303-.152-5.433-.359-8.814-.86-14.486 3.117-18.045 11.274-2.204 5.049-5.015 9.768-6.467 15.224-1.356 5.291.538 9.637 3.693 13.942 7.609 10.377 46.44 41.421 62.394 51.282 3.943 2.438 7.3 1.439 7.499 1.003 1.162-2.547-1.646-3.224-3.011-4.494-9.055-8.412-18.676-16.069-27.509-24.794-3.502-3.458-5.667-7.076-6.728-10.851-.769-2.738-.001-7.377 1.344-16.608.695-4.773 1.251-7.607 2.325-10.88a41.764 41.764 0 012.991-6.898s2.494-4.588 6.096-6.767c.786-.476 1.558-.783 2.039-.428.141.104.457.412.469 1.54.019 1.916-.988 3.274-1.14 3.815-1.18 4.182-.822 7.512.866 9.695 1.887 2.441 5.001 2.627 8.822 2.816 3.214.158 7.45-.349 7.519-1.512.034-.59-1.013-1.142-1.535-1.454-4.231-2.53-5.479-8.106-7.578-12.272z" fill="#C4C3C6"/><path fill-rule="evenodd" clip-rule="evenodd" d="M400.703 215.787c-7.103-1.097-14.154 22.341-14.854 27.114-.949 6.464-24.672 9.009-27.852 4.672-3.151-4.301-5.04-8.644-3.678-13.935 1.458-5.457 4.275-10.178 6.486-15.228 3.569-8.16 9.246-12.142 18.062-11.292 2.129.204 3.097.162 5.433.352 8.998.74 9.91-.769 13.617.016l.103.022c2.652 3.027 3.684 3.433 5.088 7.453l-2.405.826z" fill="#fff"/><path fill-rule="evenodd" clip-rule="evenodd" d="M206.648 259.337c-11.605-4.989-40.634 1.272-48.431 4.71-11.771 5.191-24.633 12-28.267 27.179-2.427 10.14 1.972 22.136 4.486 31.938 1.41 5.497 2.745 10.702 3.163 15.705-.456-.063-.924-.15-1.207-.201-15.744-2.917-31.163 6.266-37.499 22.329-2.225 5.643-.022 9.413 1.027 10.771.85 1.104 1.901 1.939 3.119 2.481 1.234.548 2.397.684 3.372.743 15.512.946 29.152-.971 41.698-5.865 13.577-5.293 23.54-13.257 29.611-23.67 6.141-10.533 7.87-23.982 5.013-35.826 4.24.926 8.611 2.661 13.146 4.458 8.216 3.259 16.714 6.629 25.558 5.578 7.866-.934 14.501-5.242 21.166-9.957 14.55-10.286 31.111-22.727 43.535-40.251 2.649-3.739 5.17-7.957 5.665-13.467.569-6.345-1.803-12.381-3.536-16.79-4.476-11.389-10.421-23.643-20.579-28.159a20.081 20.081 0 00-2.432-.9c-3.75-1.118-7.428-.93-10.673-.764-3.119.16-6.066.311-8.366-.711a6.923 6.923 0 01-.823-.433c-1.91-1.166-3.555-3.49-5.236-6.323-8.678 7.089-19.848 26.231-33.51 57.425z" fill="#000" stroke="#000" stroke-width="10"/><path fill-rule="evenodd" clip-rule="evenodd" d="M264.558 215.724c9.489 2.817 15.078 14.774 19.223 25.35 1.717 4.382 3.467 9.043 3.054 13.606-.376 4.14-2.487 7.567-4.677 10.656-11.557 16.303-26.923 28.206-42.474 39.219-5.936 4.205-12.147 8.395-19.273 9.249-14.97 1.798-30.112-11.37-45.241-10.679 6.185 12.378 4.594 27.915-1.724 38.742-6.318 10.831-16.616 17.535-27.401 21.754-12.756 4.99-26.106 6.47-39.935 5.643-.945-.055-2.013-.18-2.678-1.042-.899-1.165-.508-2.892.007-4.197 5.465-13.838 19.085-21.964 32.632-19.469 2.203.405 4.902.853 6.064-1.196.578-1.021.564-2.389.478-3.674-1.014-14.997-9.376-30.407-6.009-44.418 3.114-12.966 14.926-19.07 25.615-23.797 8.715-3.854 18.384-7.72 27.716-3.716 5.968 2.561 10.839 7.984 16.03 12.492 11.543 10.024 28.414 15.405 38.003 5.054 8.644-9.332 6.922-26.917.95-40.256-.775-1.729-1.772-3.592-3.337-4.194-2.169-.831-4.051 1.143-5.843 2.471-5.175 3.835 21.815-29.677 28.82-27.598z" fill="#000"/><path fill-rule="evenodd" clip-rule="evenodd" d="M140.113 290.474c-.257.615-.649 1.116-.482 1.898l.013-.125c-3.142 14.347 2.177 28.513 4.467 42.703.749 4.647 1.874 8.806.354 13.429-.811 2.469-5.718 10.019-4.731 11.229.203.249 8.634-1.62 11.571-2.643 19.453-6.774 22.592-18.885 22.592-18.885 5.485-12.593.686-22.912-.836-24.663-7.185-8.267-29.987-11.958-30.975-13.159-.736-.896 4.584-8.677 12.646-11.076 2.652-1.048 4.727 1.095 6.304 2.755 7.937 8.355 10.412 8.412 19.791 11.034 37.209 12.497 51.467 12.995 54.479 5.267 2.399-6.156-39.551-31.838-41.887-35.304-4.571-6.785-5.081-5.915-11.142-4.915-3.895.644-14.41 1.877-23.282 6.277-9.587 4.754-17.466 12.79-18.882 16.178z" fill="#C4C3C6"/><path fill-rule="evenodd" clip-rule="evenodd" d="M150.298 298.987c-5.607-2.487-10.412 3.507-9.86 17.039.553 13.532-5.177-10.276-4.717-12.129 1.036-4.176 3.331-25.44 13.41-20.968 10.078 4.472 17.409 11.483 16.373 15.659-1.036 4.176-5.127 4.871-15.206.399z" fill="#000"/><path fill-rule="evenodd" clip-rule="evenodd" d="M151.741 291.543c14.182 4.146 19.198 9.007 27.819 11.523 5.487 1.6-8.452-32.771-12.908-32.224-2.863.353-14.2 1.923-21.415 6.878s-7.003 9.068-9.269 15.479c6.45-3.208 12.438-2.631 15.773-1.656z" fill="#fff"/><path fill-rule="evenodd" clip-rule="evenodd" d="M112.812 368.588c10.7 1.15 18.554-10.503 23.031-17.911 1.581-2.617.136-4.358-2.89-4.128-11.221.863-22.876 5.933-28.24 17.724-.59 1.299 6.084 4.1 8.099 4.315z" fill="#C4C3C6"/><path fill-rule="evenodd" clip-rule="evenodd" d="M247.619 248.489l.569 1.08c.1.274.209.506.298.822l-.867-1.902z" fill="#D796A0"/><path fill-rule="evenodd" clip-rule="evenodd" d="M239.502 225.048c6.851-.61 15.602 24.992 16.665 30.147 1.442 6.982 24.817 11.58 27.578 7.197 2.737-4.345 4.237-8.836 2.486-14.597-1.858-5.946-4.986-11.214-7.546-16.785-4.135-9-9.998-13.705-18.542-13.495-2.063.05-3.013-.072-5.279-.054-8.731.078-9.742-1.606-13.3-1.062l-.099.016c-2.35 3.024-3.326 3.376-4.378 7.56l2.415 1.073z" fill="#fff"/><path fill-rule="evenodd" clip-rule="evenodd" d="M408.384 410.7c-21.712-1.556-38.782-16.693-38.126-33.808.656-17.115 18.789-29.728 40.501-28.172 21.712 1.557 38.781 16.693 38.125 33.808-.656 17.115-18.788 29.728-40.5 28.172z" fill="#000"/><path fill-rule="evenodd" clip-rule="evenodd" d="M408.144 399.574c-19.856-1.299-35.405-15.385-34.73-31.46.674-16.076 17.318-28.055 37.174-26.756 19.856 1.3 35.405 15.385 34.731 31.461-.675 16.076-17.319 28.055-37.175 26.755z" fill="#C4C3C6"/><path fill-rule="evenodd" clip-rule="evenodd" d="M256.754 333.367c-31.119-33.775-36.506-62.451-46.498-86.377-27.919-66.855 8.184-19.557-25.263-101.045-18.357-44.724 45.324-79.245 107.681-66.005 21.179 4.497 51.643-1.88 73.419 12.224 42.338 27.422 69.561 64.324 62.788 96.155-.915 4.3 25.493 24.848 22.841 55.411-4.191 48.298-19.613 88.854-7.611 115.393 9.436 20.865 7.231 29.406-7.453 39.185-37.005-24.767-59.665-4.354-96.959 5.534-37.294 9.888-51.825-36.701-82.945-70.475z" fill="#000"/><path fill-rule="evenodd" clip-rule="evenodd" d="M266.466 98.254c-19.435-2.173-85.558 16.727-61.085 64.805 24.473 48.077-1.524 20.668 23.369 80.261 8.909 21.327 13.034 18.054 45.318 61.976 32.283 43.923 19.35 85.418 63.959 79.951 19.043-2.334 40.572-9.086 60.703-9.369 20.132-.283 37.52 11.165 40.139 7.951 8.927-10.956-18.232-42.629-13.483-56.226 10.669-30.542 12.674-64.142 14.449-84.607 2.364-27.243-21.181-45.561-20.366-49.394 4.614-21.68-12.384-47.697-37.5-69.671-8.242-7.21-29.158-10.826-46.286-17.048-57.288-2.471-49.781-6.456-69.217-8.629z" fill="#C4C3C6"/><path fill-rule="evenodd" clip-rule="evenodd" d="M386.632 261.833c-1.339-.087-1.918-14.273-4.427-12.171-4.157 3.481-8.206 2.621-10.846 2.897-1.429.149-2.843 9.775-4.329 10.016-13.912 2.256-26.318 8.905-31.43 24.049-3.523 10.434-13.878 53.338-19.421 56.753 11.548.464 15.612 4.193 51.979-10.358 18.988-7.597 3.332-11.988 7.406-18.577 8.737-14.129 18.6-27.611 23.263-32.32 1.825-1.843 11.371 46.522 13.29 28.329 1.918-18.193 1.936-46.818-25.485-48.618z" fill="#fff"/><path fill-rule="evenodd" clip-rule="evenodd" d="M382.948 269.39c-25.218 1.182-35.98 3.348-45.422 20.716-5.539 10.188-15.225 49.61-21.143 51.966 30.158-1.529 43.615-22.797 64.933-25.77 21.318-2.974 26.428 7.326 36.557 12.339-7.209-8.206-4.422-32.571-9.448-43.579-5.026-11.009-13.518-16.232-25.477-15.672zM293.369 301.246c-10.546-3.156-9.332 7.101-.837 23.262 3.526 6.708 3.933 13.846 4.468 18.631 11.539-23.438 25.505-52.776 27.525-58.723-9.563 11.744-20.61 19.987-31.156 16.83z" fill="#000"/><path fill-rule="evenodd" clip-rule="evenodd" d="M260.76 253.851c13.96 58.211 23.627 93.53 29.001 105.958 3.346 7.738 11.348-8.621 10.034-37.571-.872-19.197-6.749-36.371-17.632-51.522l-21.403-16.865zM209.851 192.919c-13.809-16.484-14.4-35.451-10.277-42.71 5.072 13.77 6.531 18.16 16.877 28.652 10.345 10.492 17.515 12.222 28.29 17.154-7.975 2.631-32.009.343-34.89-3.096zM379.929 266.662c-9.649-.725-2.85-15.732 2.63-20.41 2.969 6.074 7.019 21.135-2.63 20.41zM327.592 279.122c7.01-24.928 11.833-32.926 18.535-27.965-8.132 7.942-12.044 20.803-18.535 27.965zM430.712 284.215c-8.612.601-9.998-19.178-27.207-21.851 5.602 4.964 13.944 14.575 18.847 26.049 5.288 12.375 6.882 26.769 5.533 35.601-.023-1.934 9.513-11.226 10.459-13.227 1.612-3.412 4.306-17.489 2.757-15.552-1.02 1.276-6.309 3.907-7.404 4.131-.109-3.843 5.628-15.752-2.985-15.151zM376.265 242.115c-3.974-12.005-20.493 2.351-24.097 9.72 9 2.014 28.071 2.285 24.097-9.72z" fill="#000"/><path fill-rule="evenodd" clip-rule="evenodd" d="M397.834 240.656c-2.991-9.046-14.35 1.657-17.069 8.214 5.998 1.151 20.059.831 17.069-8.214z" fill="#000"/><path fill-rule="evenodd" clip-rule="evenodd" d="M392.622 208.488c-12.754-11.09 2.491-5.658 13.074-13.83-17.736.226-24.165-1.3-30.573-4.433-6.408-3.133-19.49-19.248-23.418-27.235 1.919 17.235 7.817 24.268 20.349 38.658 10.576 12.146 22.681 14.46 29.104 22.069 10.93 20.381-3.065 23.726-11.658 25.131 12.99-.587 19.939-4.738 21.866-7.54 1.458-2.118 5.232-6.76.751-14.03-4.152-6.738-16.403-16.102-19.495-18.79z" fill="#000"/><path fill-rule="evenodd" clip-rule="evenodd" d="M287.477 231.397c-12.058.353-26.43.142-37.713-8.084-11.283-8.227-1.941-20.591 4.678-25.788 12.221-9.597 20.491 5.802 50.903 1.878 28.569-3.687 8.182 31.231-17.868 31.994zM301.072 109.924c15.629 2.21 40.94 13.912 58.31 19.548 56.073 18.195 16.943-13.577-6.549-21.845-18.335-6.454-45.508-8.565-67.978-7.733-.321 3.451 6.818 3.701 16.217 10.03z" fill="#fff"/><path fill-rule="evenodd" clip-rule="evenodd" d="M300.732 111.729c-3.916-18.562-59.898-21.436-81.753 3.639-6.971 7.999-10.341 16.277-16.096 33.8 7.904-3.961-5.154 2.365 26.912-13.282 32.066-15.646 70.109-9.43 70.937-24.157zM413.339 196.807c-6.613-2.892-16.239-1.733-23.321 2.861-4.154 2.694-7.647 8.617 21.392 17.109 1.823.534 8.501 3.718 12.327 3.188 8.15-1.018.668-18.32-10.398-23.158zM363.823 206.675c-1.365 2.683-2.936 5.412 4.656 9.27 7.593 3.858 10.437 4.462 17.1 1.784 1.919-1.454-.275-6.331-6.983-10.488-13.377-8.292-25.486-42.908-29.393-42.171-3.835.724-6.675 15.401 10.798 33.702.289.303 5.186 5.221 3.822 7.903zM390.405 341.811c-13 1.227-28.019 8.252-42.247 21.739-14.229 13.488 17.472 9.361 42.742 4.576 25.27-4.785 26.409 8.363 32.018 4.371 12.043-8.338-10.761-32.739-32.513-30.686z" fill="#fff"/><path fill-rule="evenodd" clip-rule="evenodd" d="M392.282 333.094c5.226 1.077 15.869 6.71 25.887 19.349-8.446-8.482-35.229-12.64-52.447-2.34 6.821-11.9 17.816-18.811 26.56-17.009z" fill="#000"/><path fill-rule="evenodd" clip-rule="evenodd" d="M261.202 178.314c13.066-3.605 22.935-6.891 29.608-9.856 11.363-5.05 14.713-12.053 22.858-17.794 5.43-3.827 8.257-.87 8.481 8.871-3.186 25.546-10.159 39.96-20.92 43.244-9.947 3.035-28.696-3.442-41.687-21.437-.643-.891-.09-1.9 1.66-3.028z" fill="#fff"/><path fill-rule="evenodd" clip-rule="evenodd" d="M299.746 195.312c-16.045 4.896-32.671-2.327-38.539-16.248 9.729.544 20.355-.697 31.067-3.965 11.716-3.576 21.988-9.105 30.112-15.734 3.562 15.114-6.247 30.944-22.64 35.947z" fill="#000"/><path fill-rule="evenodd" clip-rule="evenodd" d="M381.118 174.911c-10.283-.543-19.775-3.415-27.756-7.956.723 16.235 11.54 29.379 25.456 30.114 13.586.717 26.764-11.608 29.67-16.597 2.907-4.989-.014-17.091-10.324-16.614-6.982-.726-14.764-2.367-22.772-4.953-8.861-2.861-19.201-17.45-23.721-9.647-4.52 7.803 7.395 14.441 19.751 18.43 6.492 2.096 16.192 7.566 9.696 7.223z" fill="#fff"/><path fill-rule="evenodd" clip-rule="evenodd" d="M381.715 191.252c10.473.548 24.751-11.763 22.949-19.313-1.303-5.458-16.545-5.26-21.668-5.527-12.209-.638-23.511-3.686-33.077-8.465 4.057 21.308 14.656 32.41 31.796 33.305zM308.948 189.93c-8.039 2.641-17.902 4.492-29.588 5.554 5.745 1.265 9.714 1.923 11.909 1.975 24.821.587 36.677 3.908 38.413 13.944 1.085 8.944-21.272 24.44-13.004 31.752 8.269 7.312 28.361 8.181 30.035 8.387-5.899-6.22-8.788-13.372-5.813-20.454 2.975-7.082 5.167-11.37 14.92-12.921-.533.663-9.724-4.033-14.83-12.521-5.768-9.585-4.916-20.352-11.349-23.507-6.433-3.156-8.634 3.83-20.693 7.791z" fill="#000"/><path fill-rule="evenodd" clip-rule="evenodd" d="M343.949 235.087c2.499-14.144 13.544-15.423 16.992-18.047-9.27 1.905-17.614 2.688-22.272 9.34-4.943 7.058-7.111 18.194 8.45 23.85-1.39-3.162-4.669-6.656-3.17-15.143z" fill="#fff"/><path fill-rule="evenodd" clip-rule="evenodd" d="M308.639 152.503c11.538-11.093 8.669-18.781 3.978-20.421-4.69-1.641-4.71 10.716-12.372 17.524-7.78 6.849-12.42 7.916-19.3 10.958 5.185 2.479 15.553 3.203 27.694-8.061zM366.688 154.976c-13.14-7.341-17.594-21.63-12.705-23.238 4.889-1.608 9.035 11.745 18.222 16.259 9.207 4.445 13.876 3.772 21.57 4.479-4.714 4.621-13.85 9.524-27.087 2.5z" fill="#000"/></svg>
