<svg width="640" height="716" viewBox="0 0 640 716" fill="none" xmlns="http://www.w3.org/2000/svg">
<g >
<path fill-rule="evenodd" clip-rule="evenodd" d="M255.021 309.15H249.102V303.206H255.021V297.246H249.102V291.287H255.021V285.343H260.955V279.384H255.021V285.328H249.102V279.384H255.021V273.422H249.087V279.381H243.168V285.325H237.234V279.381H231.301V285.325H225.382V279.381H231.301V273.422H225.366V279.381H219.448V273.422H213.511V279.381H219.445V285.325H213.511V291.285H219.445V297.244H213.511V303.203H219.445V309.147V309.162H225.364V315.106H231.297V309.162H237.231V315.106H243.165V309.162H249.084V315.106H255.018V309.162H260.952V303.203H255.018V309.15H255.021ZM219.445 309.165V315.109H213.511V309.15H219.445V309.165ZM237.231 279.381V273.422H243.165V279.381H237.231ZM255.021 291.285V297.244H260.955V291.285H255.021ZM225.364 285.34H219.445V291.285H225.364V285.34ZM225.378 315.109V321.068H231.297V315.109H237.231V321.068H243.165V315.109H249.099V321.068H255.018V315.109H260.952V321.068H255.018V327.027H249.084V321.068H243.165V327.027H237.231V321.068H231.297V327.027H225.364V321.068H219.445V327.027H213.511V321.068H219.445V315.109H225.378ZM249.084 303.206V297.246H243.165V303.206H249.084ZM237.231 303.206V309.15H243.165V303.206H237.231ZM231.297 303.206H237.231V297.246H231.297V303.206ZM231.297 303.206H225.378V309.15H231.297V303.206ZM231.297 291.285H225.378V297.244H231.297V291.285ZM237.231 291.285V285.34H231.297V291.285H237.231ZM243.168 291.285H237.234V297.244H243.168V291.285ZM243.168 291.285H249.087V285.34H243.168V291.285ZM225.364 297.244V303.203H219.445V297.244H225.364ZM266.889 279.381H260.955V273.422H266.889V279.381ZM260.955 291.285H266.889V285.325H260.955V291.285ZM266.889 303.206H260.955V297.246H266.889V303.206ZM260.955 315.109H266.889V309.15H260.955V315.109ZM260.955 327.027H266.889V321.068H260.955V327.027Z" fill="#131519"/>
<path fill-rule="evenodd" clip-rule="evenodd" d="M560.887 281.728H554.968V275.784H560.887V269.825H554.968V263.866H560.887V257.921H566.821V251.962H560.887V257.907H554.968V251.962H560.887V246H554.954V251.959H549.034V257.903H543.101V251.959H537.167V257.903H531.248V251.959H537.167V246H531.233V251.959H525.314V246H519.377V251.959H525.311V257.903H519.377V263.863H525.311V269.822H519.377V275.781H525.311V281.725V281.74H531.23V287.684H537.164V281.74H543.097V287.684H549.032V281.74H554.951V287.684H560.884V281.74H566.818V275.781H560.884V281.728H560.887ZM525.311 281.743V287.687H519.377V281.728H525.311V281.743ZM543.097 251.959V246H549.032V251.959H543.097ZM560.887 263.863V269.822H566.821V263.863H560.887ZM531.23 257.918H525.311V263.863H531.23V257.918ZM531.245 287.687V293.646H537.164V287.687H543.097V293.646H549.032V287.687H554.965V293.646H560.884V287.687H566.818V293.646H560.884V299.605H554.951V293.646H549.032V299.605H543.097V293.646H537.164V299.605H531.23V293.646H525.311V299.605H519.377V293.646H525.311V287.687H531.245ZM554.951 275.784V269.825H549.032V275.784H554.951ZM543.097 275.784V281.728H549.032V275.784H543.097ZM537.164 275.784H543.097V269.825H537.164V275.784ZM537.164 275.784H531.245V281.728H537.164V275.784ZM537.164 263.863H531.245V269.822H537.164V263.863ZM543.097 263.863V257.918H537.164V263.863H543.097ZM549.034 263.863H543.101V269.822H549.034V263.863ZM549.034 263.863H554.954V257.918H549.034V263.863ZM531.23 269.822V275.781H525.311V269.822H531.23ZM572.755 251.959H566.821V246H572.755V251.959ZM566.821 263.863H572.755V257.903H566.821V263.863ZM572.755 275.784H566.821V269.825H572.755V275.784ZM566.821 287.687H572.755V281.728H566.821V287.687ZM566.821 299.605H572.755V293.646H566.821V299.605Z" fill="#181C20"/>
<path fill-rule="evenodd" clip-rule="evenodd" d="M148.265 94.728H142.346V88.7837H148.265V82.8247H142.346V76.8657H148.265V70.9214H154.199V64.9624H148.265V70.9067H142.346V64.9624H148.265V59.0001H142.331V64.9591H136.412V70.9033H130.479V64.9591H124.545V70.9033H118.626V64.9591H124.545V59.0001H118.611V64.9591H112.692V59.0001H106.755V64.9591H112.689V70.9033H106.755V76.8628H112.689V82.8219H106.755V88.7809H112.689V94.7251V94.7399H118.608V100.684H124.542V94.7399H130.475V100.684H136.41V94.7399H142.329V100.684H148.262V94.7399H154.196V88.7809H148.262V94.728H148.265ZM112.689 94.7427V100.687H106.755V94.728H112.689V94.7427ZM130.475 64.9591V59.0001H136.41V64.9591H130.475ZM148.265 76.8628V82.8219H154.199V76.8628H148.265ZM118.608 70.9181H112.689V76.8628H118.608V70.9181ZM118.622 100.687V106.646H124.542V100.687H130.475V106.646H136.41V100.687H142.343V106.646H148.262V100.687H154.196V106.646H148.262V112.606H142.329V106.646H136.41V112.606H130.475V106.646H124.542V112.606H118.608V106.646H112.689V112.606H106.755V106.646H112.689V100.687H118.622ZM142.329 88.7837V82.8247H136.41V88.7837H142.329ZM130.475 88.7837V94.728H136.41V88.7837H130.475ZM124.542 88.7837H130.475V82.8247H124.542V88.7837ZM124.542 88.7837H118.622V94.728H124.542V88.7837ZM124.542 76.8628H118.622V82.8219H124.542V76.8628ZM130.475 76.8628V70.9181H124.542V76.8628H130.475ZM136.412 76.8628H130.479V82.8219H136.412V76.8628ZM136.412 76.8628H142.331V70.9181H136.412V76.8628ZM118.608 82.8219V88.7809H112.689V82.8219H118.608ZM160.133 64.9591H154.199V59.0001H160.133V64.9591ZM154.199 76.8628H160.133V70.9033H154.199V76.8628ZM160.133 88.7837H154.199V82.8247H160.133V88.7837ZM154.199 100.687H160.133V94.728H154.199V100.687ZM154.199 112.606H160.133V106.646H154.199V112.606Z" fill="#4038FF"/>
<path fill-rule="evenodd" clip-rule="evenodd" d="M314.331 327.027H320.265V380.633H314.331V327.027ZM308.403 327.027H302.472V380.633H308.403V327.027ZM296.541 327.027H290.61V380.633H296.541V327.027ZM278.749 327.027H284.68V380.633H278.749V327.027ZM272.818 327.027H266.887V380.633H272.818V327.027Z" fill="#131519"/>
<path fill-rule="evenodd" clip-rule="evenodd" d="M320.802 213.857V219.816H267.424V213.857H320.802ZM320.802 207.904V201.948H267.424V207.904H320.802ZM320.802 195.992V190.036H267.424V195.992H320.802ZM320.802 178.123V184.079H267.424V178.123H320.802ZM320.802 172.167V166.211H267.424V172.167H320.802Z" fill="#131519"/>
<path fill-rule="evenodd" clip-rule="evenodd" d="M519.378 347.252V353.211H466V347.252H519.378ZM519.378 341.299V335.342H466V341.299H519.378ZM519.378 329.386V323.43H466V329.386H519.378ZM519.378 311.518V317.474H466V311.518H519.378ZM519.378 305.562V299.605H466V305.562H519.378Z" fill="#131519"/>
<path fill-rule="evenodd" clip-rule="evenodd" d="M605.447 165.605H611.378C611.378 136 587.479 112 558 112V117.956C584.205 117.956 605.447 139.288 605.447 165.605ZM593.585 165.605H599.516C599.516 142.579 580.929 123.912 558 123.912V129.869C577.652 129.869 593.585 145.87 593.585 165.605ZM587.655 165.605H581.724C581.724 152.449 571.101 141.781 558 141.781V135.825C574.378 135.825 587.655 149.157 587.655 165.605ZM569.862 165.605H575.793C575.793 155.736 567.827 147.737 558 147.737V153.693C564.551 153.693 569.862 159.027 569.862 165.605ZM558 165.605H563.931C563.931 162.315 561.277 159.649 558 159.649V165.605Z" fill="#2F2FF4"/>
<path d="M53.376 113H106.754V166.605C77.2745 166.605 53.376 142.605 53.376 113Z" fill="#131519"/>
<path d="M427.557 112.606V166.211H374.179C374.179 136.606 398.077 112.606 427.557 112.606Z" fill="#131519"/>
<path fill-rule="evenodd" clip-rule="evenodd" d="M5.93427 219.816H0.000488281V273.422H5.93427V219.816ZM23.7299 219.816H29.6637V273.422H23.7299V219.816ZM41.5256 219.816H35.5918V273.422H41.5256V219.816ZM53.3784 219.816H47.4446V273.422H53.3784V219.816ZM11.8681 219.816H17.8018V273.422H11.8681V219.816Z" fill="#131519"/>
<g opacity="0.5">
<path d="M608.168 662.833C606.597 662.152 605.126 661.533 603.723 660.931C600.83 659.702 598.321 658.638 595.822 657.503C586.114 653.043 577.926 649.239 570.232 645.6L572.75 644.489C573.738 644.051 574.726 643.589 575.901 643.096L583.802 639.637L569.323 633.705L565.264 632.062C562.084 630.786 558.795 629.464 555.694 628.071C554.707 627.616 553.652 627.261 552.553 627.014L550.864 626.232L546.973 624.393L545.718 623.806C547.457 623.023 549.205 622.288 551.002 621.497L554.874 619.799L563.22 616.152L549.136 610.932C543.072 608.694 537.284 606.581 531.615 604.515L533.086 603.983C538.353 602.078 543.402 599.816 548.178 597.222L548.523 597.034L559.881 598.599L568.079 599.71L578.597 601.158C579.072 601.221 579.516 601.26 579.941 601.283C584.83 601.526 586.676 599.155 587.269 598.059L588.148 596.392C589.353 594.131 590.489 591.994 591.783 589.842C592.285 589.08 592.535 588.229 592.509 587.37C592.483 586.51 592.182 585.67 591.635 584.928C589.768 582.431 586.084 582.134 584.513 582.009C581.007 581.735 577.511 581.453 574.005 581.164C574.187 580.428 574.435 579.704 574.746 578.996L575.19 577.994L574.904 576.922C574.785 576.484 574.667 575.991 574.568 575.419L574.499 575.036L574.331 574.668C573.537 572.847 573.036 570.954 572.839 569.034L572.77 568.345L572.405 567.695C571.966 566.916 571.586 566.116 571.269 565.301L570.281 562.507L567.723 562.351C567.783 560.206 565.313 558.25 564.069 557.272L563.22 556.606L563.723 556.52C569.649 555.347 575.802 554.345 581.748 553.39C584 553.022 586.252 552.654 588.504 552.271C590.479 551.942 592.454 551.629 594.43 551.324L599.032 550.588L603.081 545.478L599.368 543.185C598.588 542.708 597.827 542.215 597.057 541.73C594.948 540.315 592.728 539.008 590.41 537.817C587.653 536.513 584.379 536.074 581.234 536.588C575.654 537.676 570.064 538.936 564.672 540.126C562.528 540.603 560.385 541.088 558.252 541.55C555.615 542.129 552.978 542.7 550.113 543.311L548.138 543.749L540.672 541.401L542.341 540.963C543.314 540.871 544.273 540.703 545.205 540.462C548.257 539.679 551.467 538.991 554.578 538.302L558.528 537.418L578.212 532.981L564.385 528.677L561.422 527.737C559.121 527.002 557.136 526.376 555.032 525.804L555.081 525.311L543.467 522.126L556.879 517.885L549.965 513.596L549.689 513.416C549.121 513.008 548.474 512.676 547.773 512.43C546.252 511.914 544.751 511.413 543.289 510.959L541.481 510.372L541.827 510.247L538.953 509.519L538.834 509.48C536.855 508.698 534.732 508.169 532.543 507.915L527.723 506.694C526.884 506.483 526.311 506.334 525.748 506.201L513.205 503.251C505.304 501.383 497.402 499.513 489.501 497.64L486.597 496.935C479.773 495.261 477.61 494.94 473.136 498.461C472.652 498.845 472.069 499.307 471.358 499.823C471.212 499.913 471.061 499.996 470.904 500.074L470.518 500.285C469.676 500.726 468.957 501.298 468.405 501.967C467.112 502.075 465.864 502.406 464.751 502.938L462.884 503.853L461.985 503.728L457.047 503.079C453.472 502.617 450.133 502.171 446.933 501.647C445.422 501.364 443.855 501.316 442.321 501.506C440.772 500.729 439.048 500.198 437.244 499.941C436.79 499.854 436.355 499.761 435.921 499.667L434.667 499.408C435.654 498.626 436.642 497.843 437.807 496.951L446.202 490.409L417.373 486.089L415.783 486.942H415.714C414.829 486.528 413.865 486.232 412.859 486.066L409.59 485.518C405.392 484.806 401.047 484.078 396.839 483.295C392.296 482.45 388.938 483.42 386.963 486.191C384.523 489.571 382.094 492.913 379.615 496.302H378.321C374.084 496.302 369.936 496.356 365.876 496.411C365.946 496.137 366.005 495.863 366.054 495.629C366.104 495.394 366.202 494.963 366.301 494.596L367.536 490.049L357.659 489.376C353.649 489.094 349.857 488.828 346.015 488.593C344.513 488.523 340.464 488.898 339.18 491.504C338.538 492.827 338.074 494.142 337.59 495.535C337.531 495.715 337.472 495.902 337.402 496.082L336.474 496.02C333.995 495.863 331.427 495.691 328.899 495.566L306.904 495.973C306.907 495.737 306.93 495.502 306.973 495.269C307.176 494.362 307.116 493.43 306.796 492.544C306.476 491.659 305.904 490.843 305.126 490.158C303.249 488.499 300.306 487.678 296.869 487.811L290.351 488.092C280.83 488.507 270.993 488.93 261.313 489.384C259.101 489.485 256.839 489.595 255.141 490.401C253.275 489.766 251.219 489.565 249.215 489.822C244.839 490.252 240.326 490.604 235.97 490.98L232.592 491.277C231.969 491.326 231.353 491.426 230.755 491.575C230.197 491.042 229.586 490.545 228.928 490.088C228.781 489.944 228.646 489.792 228.523 489.634C228.046 489.037 227.501 488.477 226.894 487.959C226.078 487.314 225.178 486.739 224.207 486.246C223.96 486.12 223.723 485.987 223.506 485.862L221.817 484.876L193.501 487.701L201.837 494.65C202.953 495.582 203.97 496.427 204.968 497.272C204.385 497.35 203.822 497.436 203.318 497.522L201.975 497.695C199.309 498.062 195.664 498.555 194.825 501.451C193.985 504.346 196.918 506.326 198.864 507.641C199.763 508.259 200.681 508.877 201.59 509.488L193.402 510.568C192.296 509.736 191.077 509.004 189.768 508.384C189.024 508.041 188.323 507.643 187.674 507.195C187.16 506.827 186.173 506.146 185.185 505.52C184.197 504.894 183.536 504.44 183.081 504.127C180.426 502.41 177.656 500.806 174.785 499.322C173.692 498.742 172.463 498.343 171.17 498.148C170.609 497.466 169.896 496.87 169.067 496.388L168.672 496.153C168.542 496.088 168.417 496.017 168.296 495.942C167.565 495.37 166.993 494.885 166.518 494.478C161.946 490.628 159.605 490.863 152.918 492.17L150.025 492.725C142.176 494.202 134.321 495.673 126.459 497.139L113.955 499.487L107.16 500.856C105.009 500.995 102.903 501.419 100.928 502.108L100.76 502.155L98.2715 502.664L98.5678 502.789L96.4839 503.36C94.9958 503.762 93.5077 504.179 92.0197 504.612C91.3656 504.813 90.7582 505.099 90.2221 505.458L89.9357 505.63L83.1604 509.504L96.7802 514.426L85.1752 517.04V517.541H84.9579C82.8542 518.002 80.869 518.534 78.5777 519.153L75.6147 519.935L62.1036 523.535L85.9258 530.101C89.0172 530.938 92.2073 531.815 95.2394 532.73C96.1978 533.027 97.19 533.25 98.2024 533.395L99.5357 533.818L96.6518 534.601C95.437 534.241 94.2221 533.818 92.9777 533.427L91.0024 532.769L85.2542 534.569C81.7678 535.649 78.1332 536.776 74.5678 538.013L74.153 538.153L73.7876 538.365C71.4073 539.687 69.116 541.065 66.874 542.426C65.1357 543.467 63.2197 544.524 61.0172 545.643L60.3851 545.963L59.0616 547.286C58.0542 548.288 57.0501 549.295 56.0493 550.307L55.8221 550.557C54.716 551.911 53.7678 553.171 52.9184 554.407C52.553 554.947 52.0888 555.542 51.5357 556.2C50.084 556.261 48.703 556.716 47.6242 557.488C46.5453 558.26 45.8342 559.303 45.6098 560.441L45.2048 562.288C44.6715 564.698 44.1283 567.187 43.4666 569.605C43.3946 569.863 43.3385 570.125 43.2987 570.388C40.3858 570.252 37.4844 569.99 34.6073 569.605L32.632 569.315L30.5974 570.442L29.8369 570.865L28.1481 571.835L27.9308 573.549C27.7431 574.989 27.516 576.233 27.2295 577.376C26.7456 579.317 26.3407 581.289 25.995 583.456V583.769C25.8962 585.452 25.8073 587.127 25.7283 588.809L25.6197 591L26.0246 591.783C26.9338 593.57 27.7056 595.4 28.3357 597.261C29.1258 599.609 29.9456 602.035 30.9135 604.406L31.1802 605.071L31.7135 605.642C33.995 608.045 36.4641 610.267 38.8444 612.419C39.6937 613.202 40.553 613.984 41.3925 614.767L43.7629 616.95L45.0765 616.575L44.5629 617.764L47.8123 619.564C48.6715 620.042 49.511 620.527 50.3505 621.012C52.6401 622.38 55.0276 623.642 57.5011 624.792C59.1112 625.48 60.8903 625.883 62.716 625.973C64.127 626.06 65.545 625.905 66.874 625.52C71.8123 623.994 76.7505 622.311 81.4814 620.675L84.8197 619.533L88.1974 621.098L91.9802 622.867L96.7308 625.074L95.032 625.817L91.0024 627.593L89.1456 628.376C88.0646 628.584 87.0222 628.902 86.0444 629.323C82.8444 630.661 79.4666 631.929 76.1678 633.15C74.7851 633.671 73.4057 634.193 72.0295 634.715L57.669 640.193L65.8863 644.004C66.9925 644.513 68.0098 644.998 68.9678 645.452L70.9431 646.406C62.9431 649.928 54.3999 653.637 44.2073 657.988C41.669 659.076 39.111 660.086 36.1481 661.252L31.5555 663.075L23.7036 666.205L31.7036 669.923C33.7481 670.877 35.7332 671.785 37.6295 672.662C41.6295 674.485 45.4123 676.214 49.0073 678.038L29.6394 687.695L36.1974 691.138C38.1398 692.147 40.4239 692.663 42.7456 692.617C43.3667 692.616 43.987 692.582 44.6024 692.515H44.8493C47.7629 693.611 50.5974 694.863 52.7505 695.888C55.3843 697.114 58.018 698.353 60.6518 699.605C64.3851 701.366 68.2369 703.182 72.0888 704.927C73.3338 705.452 74.7227 705.727 76.1332 705.727C77.5438 705.727 78.9327 705.452 80.1777 704.927C83.785 703.316 87.2557 701.52 90.5678 699.551C96.7999 695.693 102.943 691.725 108.879 687.953L115.664 683.602L116.089 683.336L117.807 683.923C126.038 686.756 134.268 689.596 142.499 692.445C143.634 692.836 144.612 693.228 145.462 693.494L145.896 693.65C144.859 694.433 143.822 695.215 142.805 695.998C140.02 698.119 137.402 700.114 138.459 703.041C139.516 705.968 143.081 706.782 145.699 707.416C154.973 709.638 164.464 711.853 173.58 713.989L180.197 715.554C181.004 715.746 181.836 715.864 182.676 715.906C184.956 716.005 187.214 715.517 189.115 714.516C191.016 713.515 192.457 712.053 193.225 710.35C193.979 708.892 194.943 707.508 196.099 706.226L197.234 704.958L218.113 709.27L219.565 708.042C220.314 708.436 221.133 708.74 221.995 708.942L225.353 709.724C229.699 710.749 234.242 711.814 238.528 712.956C239.448 713.205 240.404 713.36 241.373 713.418C244.168 713.551 247.486 712.721 249.393 708.722C252.188 702.869 254.983 697.086 257.827 691.209H258.923C263.585 691.052 268.118 690.841 272.573 690.606C272.545 690.654 272.522 690.704 272.504 690.755C272.013 692.152 271.682 693.583 271.516 695.027C271.417 695.607 271.318 696.225 271.19 696.882L270.351 701.194L275.921 701.625L280 701.945C284.158 702.274 288.089 702.587 292.099 702.806H292.148C294.933 702.939 298.439 701.476 299.249 699.05C299.921 697.031 300.405 695.043 300.968 692.742C301.155 691.96 301.353 691.177 301.57 690.316L302.331 690.371C304.918 690.559 307.585 690.747 310.232 690.88L311.289 690.935L311.417 691.263L314.074 691.068H314.755V690.982L333.136 689.651C333.348 691.047 333.348 692.458 333.136 693.854C332.872 695.062 332.969 696.303 333.418 697.477C333.868 698.651 334.657 699.726 335.723 700.615C337.306 701.864 339.418 702.603 341.649 702.689C342.325 702.721 343.003 702.703 343.674 702.634L350.509 701.977C360.385 701.006 370.696 700.005 380.8 698.972C382.983 698.745 385.393 698.494 387.16 697.406C388.193 697.813 389.318 698.049 390.469 698.103C391.514 698.146 392.562 698.07 393.58 697.876C398.133 697.039 402.834 696.311 407.407 695.575L410.943 695.02C411.318 694.962 411.688 694.883 412.049 694.785C412.502 695.457 413.014 696.103 413.58 696.718C413.879 697.102 414.124 697.512 414.311 697.939C414.697 698.749 415.163 699.534 415.704 700.286C416.445 701.196 417.305 702.041 418.272 702.806C418.518 703.017 418.765 703.221 418.993 703.432L421.086 705.334L441.995 701.421L442.765 702.344C443.819 703.606 444.681 704.961 445.333 706.383C446.018 708.077 447.322 709.572 449.081 710.678C450.839 711.784 452.972 712.452 455.21 712.596C456.38 712.648 457.554 712.553 458.686 712.314L465.225 710.921C474.469 708.957 484.039 706.923 493.402 704.872C496.148 704.277 499.546 703.534 500.316 700.732C501.086 697.931 498.509 695.747 495.97 693.689C494.983 692.907 494.054 692.124 493.086 691.342L494.212 690.966C495.091 690.676 496.089 690.34 497.244 689.972C505.481 687.311 513.732 684.661 521.995 682.021L535.091 677.827C535.704 677.631 536.306 677.42 537.185 677.107L542.123 675.401C544.01 675.221 546.074 674.438 548.849 673.092C550.074 672.497 551.595 671.762 553.521 670.909C555.062 670.228 556.642 669.492 558.222 668.725C558.43 668.629 558.629 668.519 558.815 668.397L558.953 668.467C560.672 669.367 562.41 670.251 564.138 671.136C568.089 673.123 571.753 675.001 575.299 677.099C577.426 678.442 580.006 679.259 582.716 679.446C585.346 679.533 587.943 678.963 590.143 677.819C594.094 675.925 598.183 674.164 602.548 672.286C604.523 671.449 606.499 670.588 608.602 669.672L616.296 666.307L608.168 662.833Z" fill="black" stroke="black" stroke-width="16.7901" stroke-linejoin="round"/>
<path d="M209.529 520.232C212.779 521.954 215.455 523.519 218.507 524.865C219.347 525.241 221.352 525.076 222.705 524.951C228.473 524.38 234.171 523.668 239.959 523.143C245.747 522.619 251.574 522.251 257.352 521.876C259.327 521.743 260.314 521.39 258.843 520.311C258.472 520.055 258.123 519.78 257.796 519.489C253.589 515.388 255.682 515.709 246.043 516.656C234.968 517.752 223.887 518.834 212.798 519.904C211.998 519.951 211.208 520.044 209.529 520.232Z" fill="#C4C3C6"/>
<path d="M81.5015 522.087L87.4274 523.722C91.9015 524.959 96.4348 526.148 100.83 527.471C102.993 528.128 104.613 528.253 106.41 527.471C108.121 526.799 109.875 526.198 111.664 525.671C105.353 523.636 99.5854 521.758 93.7484 519.935C92.7683 519.663 91.7139 519.607 90.6965 519.77C87.862 520.35 85.2249 521.093 81.5015 522.087Z" fill="white"/>
<path d="M486.954 619.572C485.107 620.354 483.26 621.137 481.442 621.998C481.362 622.037 481.276 622.068 481.186 622.092L462.124 626.787C461.826 626.859 461.507 626.852 461.215 626.767C460.923 626.682 460.673 626.524 460.504 626.317C456.83 621.943 451.497 618.813 447.665 614.274C447.131 613.632 446.825 612.012 447.724 611.816C449.057 611.511 450.43 610.423 451.605 610.149C462.865 607.544 466.667 605.391 477.926 602.785C478.509 602.652 485.107 599.992 485.679 600.078C488.218 600.461 492.593 601.643 497.857 604.977C499.833 606.198 506.331 607.786 510.46 609.672C510.698 609.776 510.894 609.932 511.023 610.122C511.151 610.312 511.208 610.528 511.186 610.743C511.165 610.958 511.065 611.163 510.899 611.334C510.733 611.505 510.509 611.634 510.252 611.707C503.744 613.319 489.917 618.5 487.023 619.533L486.954 619.572Z" fill="white"/>
<path d="M378.558 665.986L338.993 669.562C340.109 675.768 341.245 681.645 342.183 687.561C342.474 689.362 342.474 691.184 342.183 692.984C341.738 695.708 343.566 697.461 346.914 697.132C359.279 695.927 371.605 694.737 384 693.47C389.195 692.938 389.422 692.562 387.575 688.649C385.975 685.284 384.247 681.95 382.637 678.601C382.278 677.834 381.981 677.05 381.748 676.253C380.632 672.794 379.595 669.374 378.558 665.986Z" fill="#C4C3C6"/>
<path d="M371.704 646.961C378.36 661.619 384.81 675.744 391.16 689.885C392.099 691.983 393.323 692.953 396.237 692.413C402.025 691.341 407.881 690.457 413.728 689.533C415.862 689.189 415.96 688.156 415.16 686.802C413.491 683.985 411.783 681.191 410.094 678.382C405.659 671.01 401.294 663.607 396.77 656.266C394.795 653.136 392.642 650.006 390.351 647.016C390.013 646.611 389.568 646.269 389.046 646.015C388.524 645.76 387.937 645.6 387.328 645.545C382.42 645.842 377.551 646.406 371.704 646.961Z" fill="#C4C3C6"/>
<path d="M268.368 665.148C261.701 678.93 255.232 692.202 248.872 705.506C247.884 707.478 246.738 708.331 243.933 707.595C238.412 706.132 232.822 704.856 227.252 703.526C225.208 703.041 225.138 702.023 225.938 700.771C227.588 698.149 229.287 695.551 230.966 692.945C235.361 686.09 239.687 679.203 244.171 672.387C246.096 669.46 248.24 666.62 250.501 663.857C250.837 663.482 251.281 663.176 251.796 662.965C252.312 662.754 252.884 662.644 253.464 662.644C258.166 663.278 262.817 664.178 268.368 665.148Z" fill="#C4C3C6"/>
<path d="M319.437 668.639C328.73 667.856 337.056 667.121 345.372 666.377C346.755 666.252 348.108 665.955 349.491 665.782C354.429 665.172 354.893 664.648 353.886 660.563C352.049 653.199 350.123 645.843 348.286 638.471C347.683 636.045 346.261 634.996 342.962 635.239C336.256 635.724 329.491 635.826 322.765 636.24C321.777 636.303 320.167 637.109 320.128 637.68C319.792 642.008 319.743 646.359 319.654 650.702C319.654 652.541 319.753 654.396 319.723 656.235C319.664 660.117 319.545 663.99 319.437 668.639Z" fill="white"/>
<path d="M316.762 663.998C306.036 664.233 295.725 664.483 285.423 664.663C282.372 664.718 279.3 664.585 276.238 664.475C273.562 664.382 270.826 664.475 269.868 666.823C267.389 672.833 265.177 678.906 262.589 685.652C271.735 685.354 280.367 684.83 288.989 684.314C297.344 683.821 305.927 684.94 314.381 685.339C315.201 677.81 315.942 671.159 316.762 663.998Z" fill="#C4C3C6"/>
<path d="M317.117 642.837L295.152 643.033C294.164 643.033 293.108 643.072 292.09 643.033C283.596 642.657 283.024 643.299 281.641 650.358C281.009 653.605 279.004 656.618 277.69 659.749C277.295 660.656 277.038 661.596 276.574 662.926C280.574 662.801 283.972 662.691 287.369 662.605C296.258 662.37 305.147 662.222 313.977 661.822C314.61 661.687 315.186 661.421 315.649 661.053C316.112 660.685 316.445 660.227 316.614 659.725C316.94 654.177 316.969 648.574 317.117 642.837Z" fill="white"/>
<path d="M405.036 639.887L397.461 629.714L349.984 635.192C350.972 638.854 351.96 642.689 353.145 647.032L404.444 641.045L405.036 639.887Z" fill="white"/>
<path d="M251.3 636.913L261.107 624.494C281.7 627.194 295.902 626.059 315.181 626.435C316.85 626.435 318.144 627.828 318.016 629.369C317.7 632.985 318.441 636.945 317.127 640.983C295.902 640.2 272.485 641.765 251.892 638.259L251.3 636.913Z" fill="white"/>
<path d="M560.562 662.738C553.53 658.911 546.735 655.249 540.058 651.563C535.456 649.043 530.814 646.555 526.33 643.902C524.295 642.697 522.508 642.391 520.335 643.284C518.162 644.176 515.95 644.81 513.836 645.686C510.547 647.048 510.448 648.816 513.648 650.859C520.829 655.515 527.93 660.25 535.327 664.671C547.001 671.636 542.774 671.198 554.942 665.798C556.483 665.117 557.994 664.413 559.495 663.685C559.801 663.576 559.999 663.286 560.562 662.738Z" fill="#C4C3C6"/>
<path d="M321.184 634.824C345.718 633.095 370.35 631.545 394.577 627.937C394.419 623.766 391.881 621.794 387.407 622.193C367.081 623.993 346.758 625.793 326.439 627.593C320.009 628.156 319.347 628.931 321.184 634.824Z" fill="#C4C3C6"/>
<path d="M552.583 627.922C548.197 625.871 544.81 624.228 541.363 622.678C538.321 621.317 535.15 620.151 532.148 618.766C529.699 617.607 527.743 617.365 525.185 618.726C521.57 620.667 517.402 621.951 513.58 623.665C512.858 624.023 512.258 624.518 511.835 625.104C511.412 625.691 511.179 626.351 511.155 627.026C511.132 627.701 511.319 628.371 511.701 628.975C512.083 629.579 512.647 630.099 513.343 630.489C517.639 633.008 522.034 635.427 526.479 637.759C526.938 637.992 527.457 638.142 527.999 638.197C528.54 638.253 529.09 638.213 529.61 638.079C537.007 634.902 544.286 631.608 552.583 627.922Z" fill="#C4C3C6"/>
<path d="M524.712 639.418C520.545 637.125 517.345 635.293 514.036 633.564C511.122 632.046 508.001 630.739 505.147 629.166C502.806 627.875 500.742 627.601 497.503 629.166C492.91 631.341 487.932 632.781 483.192 634.722C479.31 636.287 478.016 640.388 480.772 642.368C484.722 645.185 488.782 647.846 492.94 650.491C493.42 650.754 493.972 650.924 494.55 650.985C495.129 651.046 495.718 650.998 496.268 650.843C505.404 647.275 514.431 643.573 524.712 639.418Z" fill="#C4C3C6"/>
<path d="M472.472 637.649C468.522 635.505 468.067 633.368 464.927 631.741C462.171 630.309 462.803 629.643 460.107 628.172C457.904 626.975 455.86 626.568 452.482 627.39C447.712 628.61 442.606 629.229 437.667 630.254C433.648 631.083 431.978 634.073 434.536 635.833C438.191 638.353 441.993 640.795 445.894 643.174C446.863 643.683 448.033 643.892 449.183 643.761C458.635 641.969 461.825 639.825 472.472 637.649Z" fill="#C4C3C6"/>
<path d="M393.599 621.372C397.895 627.264 401.886 632.938 406.221 638.44C406.853 639.222 409.263 639.723 410.616 639.527C418.014 638.447 425.332 637.109 433.046 635.802L421.816 625.3C420.878 624.431 419.594 623.735 419.002 622.71C416.414 618.406 412.335 618.116 407.397 619.126C403.041 620.018 398.557 620.581 393.599 621.372Z" fill="white"/>
<path d="M443.902 644.997C440.583 642.297 437.857 639.809 434.736 637.704C433.867 637.117 431.773 637.445 430.371 637.704C424.326 638.807 418.371 640.153 412.307 641.194C406.243 642.235 400.218 643.002 394.144 643.831C392.04 644.121 391.033 644.723 392.524 646.461C392.913 646.876 393.269 647.31 393.591 647.76C397.798 654.341 395.635 653.879 405.709 652.025C417.294 649.896 428.889 647.807 440.484 645.694C441.314 645.522 442.193 645.357 443.902 644.997Z" fill="#C4C3C6"/>
<path d="M540.739 671.268C536.788 668.733 533.43 666.354 529.727 664.452C528.739 663.92 526.418 664.593 524.877 665.086C518.299 667.199 511.85 669.578 505.243 671.62C498.635 673.663 492.028 675.408 485.391 677.224C483.09 677.857 482.043 678.671 483.89 680.401C484.372 680.809 484.817 681.243 485.223 681.7C490.665 688.446 488.186 688.242 499.169 684.697C511.781 680.628 524.413 676.605 537.025 672.552C537.934 672.262 538.823 671.933 540.739 671.268Z" fill="white"/>
<path d="M525.255 616.762C521.936 614.062 518.42 613.358 515.378 611.981C514.391 611.535 465.008 629.275 465.008 629.275L474.055 636.491C474.055 636.491 523.497 617.122 525.255 616.762Z" fill="white"/>
<path d="M524.76 641.843C530.963 645.255 536.612 648.386 542.262 651.453C542.577 651.622 542.934 651.734 543.309 651.783C543.684 651.831 544.068 651.815 544.434 651.735C550.894 649.387 557.274 646.907 563.713 644.473C563.713 644.105 563.713 643.729 563.713 643.354C560.81 641.922 557.916 640.466 554.992 639.058C553.876 638.525 552.484 638.275 551.575 637.586C546.064 633.392 540.987 634.041 535.536 637.359C532.484 639.183 528.731 640.224 524.76 641.843Z" fill="white"/>
<path d="M528.04 604.39C525.699 603.607 523.339 602.88 520.998 602.089C514.213 599.788 507.349 597.621 500.692 595.093C497.729 593.958 495.418 594.037 492.909 595.437C490.993 596.517 488.889 597.378 486.272 598.622C490.074 600.188 493.274 601.463 496.455 602.77C502.558 605.29 508.593 607.919 514.786 610.251C515.558 610.472 516.379 610.564 517.198 610.522C518.017 610.48 518.816 610.306 519.546 610.009C522.637 608.671 525.472 606.925 528.376 605.313L528.04 604.39Z" fill="white"/>
<path d="M376.939 663.701C374.648 658.137 372.781 653.41 370.717 648.746C370.489 648.374 370.152 648.05 369.735 647.801C369.317 647.552 368.832 647.385 368.317 647.314C363.636 647.572 358.984 648.096 353.789 648.519C354.243 650.765 354.638 652.753 355.053 654.78C355.527 657.127 356.169 659.42 356.475 661.752C356.742 663.81 357.295 664.969 360.426 664.663C365.69 664.116 371.003 664.014 376.939 663.701Z" fill="white"/>
<path d="M519.505 612.075C526.775 615.307 532.977 618.092 539.258 620.792C539.645 620.963 540.072 621.068 540.512 621.1C540.953 621.132 541.397 621.092 541.816 620.98C546.439 619.071 550.982 617.067 556.355 614.72C548.138 611.691 540.76 608.952 533.352 606.284C533.008 606.164 532.637 606.102 532.261 606.102C531.885 606.102 531.514 606.164 531.17 606.284C527.446 607.997 523.831 609.883 519.505 612.075Z" fill="white"/>
<path d="M337.819 684.024C337.553 681.301 337.316 679.062 337.108 676.824C336.901 674.586 336.733 672.387 336.506 669.609C331.627 669.758 326.451 669.75 321.345 670.141C318.768 670.337 317.256 674.962 318.066 678.202C318.402 679.579 317.859 681.05 318.007 682.467C318.226 683.466 318.577 684.444 319.054 685.386L337.819 684.024Z" fill="white"/>
<path d="M417.351 684.016C426.112 682.255 433.964 680.69 441.786 679.094C443.09 678.828 444.265 678.413 445.529 678.108C450.043 677.004 450.24 676.472 446.862 672.872C440.769 666.377 434.586 659.905 428.492 653.41C426.517 651.266 424.462 650.475 421.332 651.062C414.951 652.244 408.295 653.089 401.855 654.192C400.867 654.349 399.791 655.265 400.077 655.758C402.25 659.725 404.729 663.693 407.159 667.653C408.196 669.327 409.401 670.994 410.438 672.669C412.63 676.245 414.764 679.782 417.351 684.016Z" fill="white"/>
<path d="M477.826 675.58C478.25 675.968 478.808 676.249 479.431 676.388C480.055 676.527 480.716 676.518 481.333 676.363C487.97 674.469 491.654 672.45 498.123 670.744C499.318 670.439 500.394 670.039 501.55 669.703C505.688 668.513 505.856 668.138 502.676 665.907C496.957 661.916 492.799 656.618 487.091 652.604C485.204 651.289 481.658 652.259 478.784 652.956C472.937 654.38 466.834 655.593 460.928 656.978C460.068 657.182 459.051 657.925 459.318 658.262C461.392 660.852 462.893 661.103 465.244 663.654C466.231 664.734 468.918 667.433 469.905 668.513C472.384 670.979 475.029 673.338 477.826 675.58Z" fill="#C4C3C6"/>
<path d="M485.648 648.425L472.236 640.044L428.305 650.295L438.31 660.711L485.767 649.599L485.648 648.425Z" fill="#C4C3C6"/>
<path d="M471.565 673.178C466.074 668.365 461.482 664.28 456.751 660.265C455.87 659.635 454.737 659.269 453.551 659.232C449.047 660.015 444.711 660.938 439.822 661.932L444.682 667.457C446.509 669.515 448.494 671.55 450.143 673.639C451.605 675.478 452.83 676.472 455.793 675.838C460.652 674.798 465.896 674.117 471.565 673.178Z" fill="#C4C3C6"/>
<path d="M526.37 662.23C519.931 657.698 514.518 653.848 508.988 650.084C508.015 649.507 506.811 649.229 505.6 649.301C501.313 650.561 497.215 652.017 492.573 653.574C494.726 655.499 496.622 657.213 498.499 658.919C500.731 660.915 503.111 662.832 505.185 664.906C507.012 666.706 508.425 667.629 511.22 666.659C515.891 665.086 520.909 663.81 526.37 662.23Z" fill="white"/>
<path d="M444.535 695.974C442.678 693.532 441.147 691.521 439.646 689.502C438.145 687.483 436.683 685.511 434.856 683.014C430.105 683.688 424.979 684.251 420.12 685.174C417.68 685.636 418.866 690.003 421.542 692.867C422.678 694.08 422.994 695.481 423.952 696.78C424.775 697.685 425.69 698.536 426.688 699.323L444.535 695.974Z" fill="#C4C3C6"/>
<path d="M416.289 617.764C421.227 622.459 425.286 626.85 430.175 630.481C431.489 631.459 434.698 629.761 437.326 629.182C438.145 629.002 454.323 625.997 454.343 625.065C454.343 621.7 446.086 616.661 444.615 614.109C443.874 612.842 438.057 613.507 435.202 614.031C429.197 615.15 423.232 616.387 416.289 617.764Z" fill="white"/>
<path d="M278.932 650.131C272.917 649.841 267.475 649.544 262.033 649.348C261.648 649.409 261.286 649.538 260.975 649.727C260.663 649.916 260.41 650.158 260.235 650.436C258.586 653.097 257.124 655.836 255.504 658.505C254.517 660.156 255.435 661.032 257.371 661.15C262.461 661.473 267.554 661.679 272.65 661.768C273.09 661.693 273.5 661.534 273.844 661.305C274.188 661.076 274.456 660.783 274.625 660.453C276.146 657.143 277.45 653.754 278.932 650.131Z" fill="white"/>
<path d="M577.362 638.009L571.298 635.52C566.685 633.634 562.004 631.834 557.47 629.8C555.238 628.798 553.52 628.649 551.643 630.035C549.883 631.171 548.032 632.216 546.103 633.165C552.601 636.295 558.527 639.206 564.542 641.992C565.027 642.193 565.559 642.312 566.104 642.342C566.65 642.372 567.198 642.311 567.712 642.164C570.666 641.045 573.451 639.715 577.362 638.009Z" fill="#C4C3C6"/>
<path d="M300.868 687.483C294.596 687.733 289.184 687.851 283.811 688.266C282.823 688.344 281.747 689.572 281.391 690.472C280.831 692.308 280.432 694.173 280.196 696.052C285.796 696.483 291.06 696.936 296.256 697.234C296.723 697.225 297.179 697.123 297.583 696.937C297.987 696.751 298.326 696.487 298.567 696.17C299.436 693.564 299.969 690.911 300.868 687.483Z" fill="white"/>
<path d="M163.853 622.365C165.661 623.187 167.478 624.017 169.266 624.893L169.523 624.995L188.426 630.074C188.725 630.148 189.047 630.145 189.343 630.065C189.64 629.985 189.896 629.832 190.076 629.628C194.026 625.331 199.498 622.311 203.537 617.85C204.11 617.216 204.525 615.604 203.606 615.385C202.283 615.064 200.96 613.945 199.784 613.648C188.614 610.815 184.9 608.592 173.73 605.767C173.137 605.618 166.658 602.825 166.076 602.903C163.508 603.232 159.093 604.327 153.611 607.598C151.636 608.78 144.96 610.236 140.772 612.059C140.527 612.155 140.324 612.306 140.185 612.492C140.046 612.678 139.978 612.892 139.99 613.108C140.001 613.324 140.091 613.533 140.249 613.709C140.408 613.886 140.627 614.022 140.881 614.101C147.281 615.784 160.91 621.262 163.774 622.326L163.853 622.365Z" fill="white"/>
<path d="M87.813 664.076C95.0624 660.391 102.015 656.861 108.949 653.316C113.699 650.882 118.48 648.495 123.122 645.929C125.215 644.763 127.072 644.497 129.166 645.428C131.26 646.359 133.492 647.04 135.576 647.955C138.806 649.388 138.815 651.086 135.507 653.136C128.07 657.652 120.692 662.245 113.057 666.51C100.998 673.24 105.265 672.88 93.3043 667.246C91.8031 666.531 90.315 665.798 88.8401 665.047C88.4493 664.758 88.1044 664.432 87.813 664.076Z" fill="white"/>
<path d="M97.5508 629.401C102.045 627.436 105.531 625.864 109.067 624.384C112.188 623.085 115.427 621.982 118.519 620.628C121.037 619.525 123.013 619.321 125.511 620.738C129.047 622.741 133.166 624.111 136.909 625.903C139.98 627.374 139.931 631.021 136.82 632.727C132.385 635.16 127.852 637.485 123.269 639.731C122.799 639.955 122.272 640.095 121.725 640.139C121.179 640.184 120.627 640.133 120.109 639.989C112.85 636.686 105.699 633.251 97.5508 629.401Z" fill="#C4C3C6"/>
<path d="M123.507 641.546C127.862 639.378 131.201 637.633 134.667 636.013C137.709 634.573 141.008 633.36 143.991 631.874C146.42 630.653 148.662 630.434 152.336 632.038C157.551 634.3 163.122 635.857 168.475 637.892C172.85 639.551 174.628 643.636 171.793 645.522C167.744 648.214 163.536 650.788 159.22 653.269C158.681 653.524 158.077 653.68 157.452 653.728C156.827 653.775 156.196 653.712 155.606 653.543C145.334 649.802 135.112 645.913 123.507 641.546Z" fill="white"/>
<path d="M177.5 640.717C181.56 638.651 182.133 636.522 185.402 634.957C188.246 633.58 187.644 632.907 190.419 631.49C192.691 630.34 194.765 629.972 198.103 630.903C202.844 632.21 207.98 632.938 212.819 634.034C216.77 634.949 218.34 637.946 215.683 639.676C211.891 642.118 207.95 644.481 203.92 646.782C202.925 647.273 201.738 647.459 200.582 647.306C191.179 645.31 188.078 643.104 177.5 640.717Z" fill="white"/>
<path d="M260.722 623.907C255.082 630.387 249.789 636.632 244.199 642.689C243.379 643.565 240.84 644.074 239.517 643.831C232.278 642.524 225.166 640.928 217.65 639.355C222.52 635.254 226.915 631.529 231.32 627.859C232.455 626.904 233.907 626.114 234.727 625.026C238.292 620.276 242.48 620.018 247.25 621.215C251.468 622.264 255.882 622.952 260.722 623.907Z" fill="white"/>
<path d="M205.826 648.652C209.292 646.023 212.147 643.589 215.386 641.546C216.285 640.983 218.349 641.351 219.771 641.632C225.776 642.853 231.692 644.324 237.727 645.475C243.761 646.625 249.786 647.525 255.831 648.48C257.934 648.809 258.912 649.427 257.342 651.133C256.928 651.54 256.548 651.969 256.206 652.416C251.653 658.912 253.845 658.489 243.821 656.439C232.295 654.091 220.749 651.743 209.253 649.395C208.394 649.231 207.574 649.028 205.826 648.652Z" fill="#C4C3C6"/>
<path d="M107.299 672.966C111.437 670.509 114.884 668.193 118.696 666.369C119.753 665.861 122.005 666.58 123.526 667.105C130.025 669.343 136.365 671.847 142.924 674.023C149.482 676.198 156 678.076 162.578 680.017C164.859 680.698 165.867 681.528 163.931 683.218C163.424 683.618 162.956 684.047 162.528 684.501C156.731 691.122 159.21 690.973 148.375 687.217C135.911 682.897 123.44 678.598 110.963 674.32C110.064 674.007 109.185 673.694 107.299 672.966Z" fill="white"/>
<path d="M125.532 618.797C128.998 616.16 132.564 615.526 135.685 614.203C136.672 613.781 185.423 632.5 185.423 632.5L175.981 639.543C175.981 639.543 127.28 619.188 125.532 618.797Z" fill="white"/>
<path d="M124.79 643.87C118.4 647.165 112.603 650.178 106.756 653.128C106.431 653.289 106.067 653.394 105.687 653.436C105.308 653.477 104.921 653.455 104.553 653.371C98.1829 650.874 91.8816 648.292 85.5508 645.733C85.5508 645.357 85.6199 644.95 85.6495 644.606C88.6125 643.229 91.5755 641.836 94.6174 640.49C95.7631 639.973 97.1755 639.754 98.1236 639.081C103.862 635.004 108.929 635.755 114.242 639.175C117.166 641.053 120.889 642.172 124.79 643.87Z" fill="#C4C3C6"/>
<path d="M123.348 606.393C125.738 605.673 128.148 604.977 130.529 604.233C137.442 602.066 144.455 600.039 151.269 597.644C154.321 596.572 156.613 596.697 159.062 598.145C160.929 599.256 163.013 600.164 165.561 601.455C161.669 602.926 158.4 604.155 155.141 605.407C148.889 607.755 142.706 610.306 136.375 612.521C135.593 612.725 134.766 612.8 133.945 612.74C133.125 612.681 132.328 612.489 131.605 612.176C128.563 610.776 125.837 608.976 122.983 607.34L123.348 606.393Z" fill="white"/>
<path d="M131.536 614.219C124.079 617.302 117.709 619.963 111.309 622.538C110.915 622.698 110.484 622.793 110.042 622.816C109.601 622.839 109.158 622.789 108.741 622.671C104.188 620.667 99.7335 618.546 94.4595 616.089C102.855 613.233 110.39 610.611 117.966 608.115C118.311 607.994 118.685 607.932 119.062 607.932C119.439 607.932 119.813 607.994 120.158 608.115C123.773 609.993 127.299 611.942 131.536 614.219Z" fill="#C4C3C6"/>
<path d="M230.559 688.156C221.848 686.223 214.045 684.502 206.273 682.756C204.969 682.467 203.813 682.021 202.559 681.692C198.075 680.503 197.907 679.97 201.482 676.433C207.912 670.063 214.44 663.716 220.88 657.346C223.003 655.241 225.068 654.49 228.189 655.132C234.529 656.438 241.176 657.417 247.586 658.661C248.515 658.841 249.561 659.78 249.295 660.297C246.915 664.209 244.238 668.122 241.591 672.035C240.475 673.694 239.181 675.33 238.055 676.981C235.675 680.479 233.364 683.977 230.559 688.156Z" fill="white"/>
<path d="M170.263 678.523C169.814 678.896 169.24 679.159 168.608 679.281C167.976 679.403 167.313 679.379 166.697 679.211C160.129 677.177 156.525 675.064 150.075 673.256C148.89 672.927 147.833 672.473 146.688 672.145C142.589 670.877 142.441 670.478 145.7 668.334C151.626 664.421 156.06 659.24 162.006 655.366C163.981 654.091 167.478 655.132 170.332 655.891C176.13 657.456 182.184 658.763 188.06 660.258C188.91 660.477 189.897 661.244 189.611 661.58C187.399 664.116 185.888 664.343 183.438 666.847C182.401 667.911 179.567 670.548 178.5 671.605C175.91 674.024 173.16 676.333 170.263 678.523Z" fill="white"/>
<path d="M166.635 651C170.773 648.488 172.976 645.936 176.857 643.518C177.084 643.383 177.349 643.293 177.629 643.256C177.91 643.219 178.197 643.237 178.467 643.307L218.536 653.535C218.83 653.605 219.097 653.731 219.314 653.902C219.532 654.072 219.694 654.283 219.785 654.514C219.877 654.746 219.896 654.992 219.84 655.23C219.784 655.469 219.655 655.693 219.465 655.883L211.366 663.709C211.141 663.923 210.84 664.079 210.502 664.156C210.163 664.233 209.804 664.227 209.47 664.139C194.527 660.328 181.628 657.229 167.267 653.567C167.027 653.506 166.805 653.409 166.613 653.28C166.422 653.151 166.264 652.993 166.15 652.815C166.036 652.637 165.968 652.443 165.949 652.245C165.931 652.046 165.963 651.846 166.043 651.657C166.152 651.396 166.359 651.167 166.635 651Z" fill="#C4C3C6"/>
<path d="M176.662 676.245C182.41 671.55 187.23 667.559 192.207 663.638C193.124 663.027 194.278 662.684 195.476 662.668C199.951 663.513 204.257 664.554 209.126 665.641C207.269 667.598 205.63 669.327 203.97 671.065C201.995 673.084 199.951 675.079 198.183 677.13C196.622 678.945 195.348 679.916 192.405 679.227C187.546 678.084 182.341 677.294 176.662 676.245Z" fill="#C4C3C6"/>
<path d="M122.19 664.209C128.877 659.819 134.477 656.071 140.235 652.424C141.236 651.869 142.458 651.622 143.672 651.727C147.919 653.066 151.958 654.607 156.511 656.251C154.26 658.137 152.265 659.811 150.26 661.478C147.919 663.427 145.43 665.329 143.257 667.324C141.331 669.085 139.869 669.985 137.104 668.96C132.551 667.261 127.573 665.869 122.19 664.209Z" fill="#C4C3C6"/>
<path d="M202.678 699.574C204.653 697.163 206.302 695.184 207.912 693.204C209.522 691.224 211.063 689.291 213.028 686.81C217.769 687.593 222.905 688.242 227.725 689.26C230.154 689.776 228.712 694.119 225.917 696.921C224.722 698.11 224.337 699.503 223.3 700.755C222.433 701.644 221.475 702.473 220.436 703.236L202.678 699.574Z" fill="white"/>
<path d="M234.895 621.958C229.67 626.552 225.414 630.864 220.327 634.401C218.954 635.348 215.823 633.619 213.206 632.954C212.396 632.758 196.298 629.432 196.327 628.501C196.446 625.136 205.028 620.268 206.628 617.764C207.438 616.512 213.256 617.287 216.09 617.866C222.065 619.086 227.991 620.479 234.895 621.958Z" fill="white"/>
<path d="M72.168 638.987L78.3803 636.64C83.1013 634.84 87.8914 633.141 92.5235 631.162C94.8149 630.207 96.4741 630.089 98.3606 631.514C100.082 632.671 101.893 633.743 103.783 634.722C97.0964 637.719 91.0025 640.513 84.8297 643.174C84.336 643.365 83.7979 643.473 83.249 643.492C82.7002 643.511 82.1523 643.44 81.6396 643.284C78.7359 642.157 76.0099 640.771 72.168 638.987Z" fill="white"/>
<path d="M245.146 644.966C246.526 643.22 248.029 641.537 249.65 639.926C250.105 639.519 251.625 639.644 252.702 639.762C257.206 640.224 261.709 640.857 266.203 641.327C270.697 641.796 275.092 642.008 279.566 642.305C281.107 642.407 281.966 642.751 281.374 643.925C281.214 644.21 281.079 644.502 280.969 644.802C280.267 647.274 280.04 647.775 279.309 648.456C278.085 649.56 246.144 645.936 245.146 644.966Z" fill="#C4C3C6"/>
<path d="M168.78 535.023C170.528 534.577 172.286 534.115 174.015 533.637L174.262 533.583L192.464 531.055C192.738 531.014 193.02 531.021 193.29 531.077C193.56 531.132 193.811 531.234 194.025 531.376C197.649 534.115 202.854 536.134 206.627 538.982C207.151 539.382 207.476 540.383 206.627 540.485C205.353 540.641 204.059 541.268 202.933 541.432C192.188 542.825 188.583 544.077 177.827 545.462C177.264 545.54 171.002 547.027 170.449 546.98C166.3 546.438 162.295 545.351 158.597 543.764C156.701 542.981 150.39 541.886 146.38 540.634C145.343 540.313 145.442 539.546 146.528 539.389C152.741 538.521 165.906 535.602 168.662 535.03L168.78 535.023Z" fill="#C4C3C6"/>
<path d="M271.792 508.572L309.718 507.101C308.503 503.282 307.268 499.658 306.231 496.035C305.92 494.943 305.883 493.813 306.123 492.709C306.488 491.05 304.691 489.947 301.481 490.088C289.629 490.596 277.777 491.097 265.925 491.653C260.987 491.888 260.73 492.114 262.607 494.54C264.217 496.63 265.955 498.704 267.594 500.801C267.957 501.268 268.265 501.76 268.513 502.272C269.649 504.362 270.725 506.482 271.792 508.572Z" fill="#C4C3C6"/>
<path d="M278.822 520.31C272.086 511.217 265.558 502.452 259.128 493.703C258.14 492.404 256.975 491.786 254.19 492.067C248.649 492.615 243.049 493.053 237.459 493.515C235.415 493.687 235.345 494.298 236.145 495.159C237.815 496.912 239.533 498.657 241.212 500.41C245.647 505.003 250.012 509.613 254.536 514.191C256.511 516.163 258.644 518.104 260.916 519.974C261.742 520.544 262.785 520.88 263.879 520.929C268.56 520.843 273.232 520.584 278.822 520.31Z" fill="white"/>
<path d="M377.631 511.092C383.715 502.773 389.612 494.76 395.409 486.73C396.268 485.541 397.384 485.04 400.081 485.541C405.414 486.535 410.817 487.419 416.199 488.335C418.175 488.671 418.263 489.297 417.533 490.048C416.002 491.614 414.431 493.179 412.891 494.744C408.831 498.86 404.831 503 400.683 507.085C398.834 508.88 396.855 510.589 394.757 512.203C393.964 512.692 392.975 512.936 391.972 512.892C387.498 512.422 383.014 511.78 377.631 511.092Z" fill="#C4C3C6"/>
<path d="M328.524 508.024C319.635 508.353 311.635 508.634 303.665 508.94C302.342 508.987 301.048 509.143 299.714 509.221C295.013 509.511 294.549 509.824 295.616 512.352C297.591 516.898 299.566 521.437 301.542 525.976C302.184 527.479 303.566 528.144 306.737 528.058C313.166 527.878 319.665 527.94 326.114 527.807C327.053 527.807 328.584 527.322 328.613 526.978C328.84 524.333 328.781 521.672 328.761 519.011C328.761 517.884 328.574 516.75 328.554 515.623C328.505 513.267 328.524 510.865 328.524 508.024Z" fill="#C4C3C6"/>
<path d="M331.23 510.92C341.522 510.974 351.418 511.006 361.314 511.084C364.277 511.084 367.191 511.248 370.134 511.366C372.712 511.475 375.339 511.467 376.198 510.067C378.431 506.435 380.416 502.75 382.747 498.665C373.966 498.665 365.719 498.845 357.423 499.001C349.403 499.158 341.137 498.32 333.008 497.913C332.376 502.483 331.823 506.545 331.23 510.92Z" fill="#C4C3C6"/>
<path d="M331.37 523.863L352.457 524.145C353.445 524.145 354.432 524.145 355.42 524.208C363.588 524.591 364.121 524.208 365.296 519.911C365.83 517.932 367.686 516.116 368.911 514.214C369.257 513.667 369.484 513.095 369.899 512.289H359.499C350.985 512.289 342.452 512.203 333.958 512.289C332.97 512.289 331.509 513.072 331.479 513.526C331.262 516.922 331.37 520.357 331.37 523.863Z" fill="white"/>
<path d="M246.983 524.075L254.538 530.421L299.971 527.909L296.662 520.6L247.526 523.339C247.338 523.582 247.161 523.824 246.983 524.075Z" fill="#C4C3C6"/>
<path d="M394.728 528.519L385.602 534.89C365.76 532.972 352.14 533.262 333.612 532.597C332.002 532.534 330.728 531.814 330.816 530.969C331.034 529.059 330.234 526.931 331.399 524.818C351.804 525.718 374.253 525.428 394.125 527.792L394.728 528.519Z" fill="#C4C3C6"/>
<path d="M141.147 554.869V554.994C142.134 555.174 143.181 555.377 144.179 555.604C148.432 554.045 152.783 552.661 157.216 551.457C157.482 551.386 157.601 551.175 157.966 550.901C154.095 550.009 150.312 549.164 146.569 548.287C141.265 547.035 135.942 545.791 130.697 544.461C129.626 544.117 128.474 543.958 127.319 543.996C126.164 544.034 125.033 544.267 124.001 544.68C121.344 545.744 118.272 546.542 115.438 547.497C114.458 547.862 113.502 548.267 112.574 548.71V549.367L141.147 554.869Z" fill="#C4C3C6"/>
<path d="M97.0562 507.226C103.901 509.707 110.468 512.07 117.017 514.449C121.491 516.077 126.014 517.681 130.389 519.387C131.257 519.778 132.216 520.024 133.209 520.109C134.201 520.194 135.205 520.116 136.157 519.88C138.133 519.387 140.325 519.019 142.34 518.526C145.471 517.744 145.52 516.687 142.399 515.396C135.397 512.414 128.464 509.378 121.254 506.545C109.876 502.069 113.945 502.413 102.38 505.496C100.918 505.888 99.4759 506.279 98.0537 506.709C97.699 506.853 97.3646 507.026 97.0562 507.226Z" fill="#C4C3C6"/>
<path d="M105.551 528.715C109.808 530.054 113.097 531.118 116.415 532.127C119.378 533.019 122.44 533.794 125.364 534.71C126.399 535.114 127.532 535.336 128.686 535.362C129.84 535.388 130.988 535.216 132.05 534.859C135.477 533.739 139.448 533.027 143.072 532.041C146.035 531.259 146.035 529.005 143.151 527.87C138.964 526.253 134.684 524.688 130.312 523.175C129.359 522.864 128.314 522.775 127.299 522.917C120.356 524.724 113.433 526.61 105.551 528.715Z" fill="#C4C3C6"/>
<path d="M132.068 522.181C136.127 523.66 139.248 524.841 142.468 525.961C145.302 526.947 148.325 527.8 151.11 528.817C152.243 529.269 153.489 529.517 154.757 529.544C156.025 529.571 157.286 529.376 158.448 528.973C162.804 527.721 167.564 526.931 172.068 525.843C175.752 524.943 176.898 522.47 174.201 521.21C170.359 519.41 166.389 517.681 162.349 516.006C161.341 515.655 160.219 515.559 159.139 515.732C150.418 517.728 141.816 519.825 132.068 522.181Z" fill="#C4C3C6"/>
<path d="M182.262 524.223C186.094 525.608 186.598 526.923 189.639 527.979C192.326 528.911 191.733 529.302 194.36 530.249C196.649 531.105 199.239 531.315 201.699 530.844C206.262 530.186 211.151 529.897 215.832 529.365C219.674 528.926 221.215 527.126 218.716 526C215.141 524.395 211.427 522.83 207.635 521.304C206.631 520.967 205.541 520.824 204.454 520.889C195.447 521.821 192.435 523.081 182.262 524.223Z" fill="#C4C3C6"/>
<path d="M258.409 535.618C254.133 531.932 250.172 528.387 245.876 524.936C245.244 524.435 242.913 524.098 241.629 524.192C234.557 524.716 227.555 525.405 220.177 526.062C224.128 528.41 227.654 530.57 231.209 532.699C232.206 533.16 233.133 533.709 233.975 534.334C236.562 537.018 240.483 537.269 245.204 536.744C249.372 536.275 253.659 536.009 258.409 535.618Z" fill="#C4C3C6"/>
<path d="M115.892 502.389C119.793 504.009 123.032 505.52 126.637 506.764C127.625 507.108 129.808 506.764 131.279 506.459C137.541 505.285 143.684 503.947 149.985 502.82C156.287 501.693 162.588 500.746 168.919 499.744C171.121 499.4 172.099 498.962 170.282 497.835C169.825 497.577 169.387 497.3 168.968 497.005C163.595 492.78 165.956 492.952 155.506 494.916C143.487 497.185 131.457 499.416 119.427 501.67C118.568 501.834 117.719 502.014 115.892 502.389Z" fill="#C4C3C6"/>
<path d="M132.068 536.048C135.317 537.762 138.715 538.255 141.668 539.178C142.656 539.468 189.648 529.506 189.648 529.506L180.759 524.92C180.759 524.92 133.737 535.852 132.068 536.048Z" fill="#C4C3C6"/>
<path d="M131.941 520.702C125.906 518.495 120.435 516.476 114.904 514.496C114.244 514.274 113.52 514.198 112.81 514.277C106.657 515.615 100.573 517 94.4595 518.377L94.5286 519.066C97.3533 519.997 100.168 520.936 103.003 521.876C104.138 522.129 105.247 522.451 106.321 522.838C111.714 525.507 116.573 525.186 121.738 523.276C124.583 522.189 128.168 521.617 131.941 520.702Z" fill="#C4C3C6"/>
<path d="M129.67 543.568C131.951 544.085 134.233 544.586 136.494 545.133C143.062 546.699 149.709 548.115 156.168 549.782C157.356 550.16 158.626 550.349 159.906 550.337C161.185 550.325 162.449 550.112 163.625 549.711C165.443 549.093 167.438 548.6 169.926 547.888L160.05 545.157C154.124 543.506 148.277 541.784 142.272 540.242C140.77 539.945 139.195 539.969 137.709 540.313C134.746 541.095 132.109 542.089 129.344 543.005L129.67 543.568Z" fill="#C4C3C6"/>
<path d="M273.411 510.004C275.732 513.455 277.638 516.374 279.742 519.277C280.349 519.801 281.179 520.128 282.073 520.193C286.567 520.115 291.021 519.903 295.999 519.723C295.515 518.338 295.09 517.11 294.646 515.881C294.132 514.449 293.461 513.025 293.115 511.585C292.809 510.325 292.246 509.597 289.214 509.73C284.167 509.949 279.1 509.918 273.411 510.004Z" fill="#C4C3C6"/>
<path d="M137.689 539.022C130.628 536.909 124.613 535.109 118.549 533.325C117.762 533.097 116.912 533.043 116.089 533.168C111.694 534.248 107.378 535.414 102.272 536.744C110.232 538.748 117.383 540.556 124.563 542.332C125.244 542.493 125.965 542.512 126.657 542.387C130.163 541.369 133.581 540.282 137.689 539.022Z" fill="#C4C3C6"/>
<path d="M310.497 498.265C310.823 499.94 311.109 501.318 311.356 502.695C311.603 504.072 311.82 505.418 312.106 507.116C316.788 507.116 321.756 507.218 326.655 507.069C329.124 506.999 330.467 504.19 329.618 502.194C329.252 501.341 329.746 500.449 329.618 499.58C329.367 498.942 329.008 498.334 328.551 497.772L310.497 498.265Z" fill="white"/>
<path d="M234.115 496.833C225.74 497.749 218.234 498.571 210.757 499.4C209.513 499.541 208.397 499.776 207.182 499.94C202.876 500.527 202.698 500.856 206.026 503.125C212.031 507.21 218.125 511.287 224.13 515.372C225.051 516.04 226.155 516.528 227.354 516.8C228.554 517.071 229.817 517.119 231.044 516.938C237.137 516.327 243.518 515.936 249.671 515.372C250.57 515.294 251.646 514.754 251.34 514.426C249.167 511.96 246.688 509.488 244.258 507.015C243.221 505.974 242.026 504.933 240.989 503.884C238.826 501.67 236.693 499.471 234.115 496.833Z" fill="#C4C3C6"/>
<path d="M176.225 500.895C175.226 500.375 174.01 500.187 172.837 500.371C166.506 501.411 163.01 502.593 156.798 503.501C155.662 503.665 154.645 503.892 153.529 504.08C149.578 504.729 149.44 504.972 152.541 506.381C158.131 508.932 162.23 512.25 167.83 514.793C169.677 515.631 173.055 515.106 175.8 514.731C181.381 513.948 187.218 513.33 192.847 512.594C193.667 512.485 194.635 512.046 194.368 511.812C192.314 510.192 190.872 510.004 188.59 508.4C187.603 507.727 184.976 506.052 183.998 505.348C182.279 504.174 178.902 502.311 176.225 500.895Z" fill="#C4C3C6"/>
<path d="M169.353 517.376L182.44 522.76L224.395 517.282L214.519 510.724L169.205 516.656L169.353 517.376Z" fill="white"/>
<path d="M129.915 508.188C136.206 511.076 141.48 513.533 146.892 515.936C147.914 516.315 149.034 516.497 150.161 516.468C154.26 515.771 158.152 514.958 162.576 514.12L156.759 510.708C154.557 509.448 152.226 508.212 150.191 506.921C148.394 505.786 147.011 505.191 144.344 505.739C139.9 506.639 135.119 507.32 129.915 508.188Z" fill="white"/>
<path d="M207.723 489.008C209.56 490.573 211.081 491.801 212.572 493.061C214.063 494.321 215.535 495.558 217.323 497.123C221.866 496.794 226.794 496.544 231.416 496.066C233.757 495.824 232.523 493.132 229.876 491.332C228.76 490.549 228.424 489.704 227.466 488.906C226.623 488.318 225.725 487.782 224.779 487.302L207.723 489.008Z" fill="white"/>
<path d="M236.701 537.417C231.813 534.451 227.813 531.689 223.062 529.373C221.778 528.754 218.736 529.733 216.218 530.038C215.437 530.139 199.971 531.681 199.98 532.252C199.98 534.311 208.099 537.55 209.58 539.123C210.311 539.906 215.892 539.616 218.618 539.35C224.366 538.779 230.064 538.13 236.701 537.417Z" fill="#C4C3C6"/>
<path d="M367.863 520.091C373.651 520.381 378.886 520.663 384.11 520.874C384.434 520.863 384.752 520.802 385.045 520.693C385.338 520.584 385.601 520.43 385.819 520.24C387.34 518.675 388.673 516.992 390.165 515.388C391.093 514.394 390.165 513.823 388.318 513.729C383.379 513.44 378.52 513.228 373.631 513.072C373.263 513.086 372.902 513.163 372.575 513.298C372.248 513.434 371.961 513.623 371.735 513.854C370.372 515.85 369.197 517.9 367.863 520.091Z" fill="white"/>
<path d="M345.919 496.833C351.934 496.833 357.129 496.833 362.275 496.661C362.755 496.594 363.209 496.441 363.604 496.215C364 495.989 364.325 495.694 364.556 495.354C365.037 494.253 365.368 493.115 365.544 491.958C360.161 491.59 355.134 491.222 350.097 490.948C349.336 490.901 348.052 491.238 347.904 491.551C347.144 493.124 346.67 494.752 345.919 496.833Z" fill="white"/>
<path d="M479.051 539.186C477.293 538.654 475.535 538.114 473.797 537.543L473.55 537.48L455.268 534.021C455 533.967 454.72 533.96 454.449 534.002C454.177 534.044 453.92 534.133 453.698 534.264C450.053 536.823 444.809 538.576 441.046 541.236C440.513 541.604 440.177 542.59 441.046 542.739C442.32 542.966 443.614 543.67 444.75 543.874C455.545 545.814 459.169 547.239 469.964 549.172C470.527 549.273 476.829 551.104 477.382 551.065C481.493 550.737 485.502 549.85 489.234 548.444C491.14 547.755 497.48 546.98 501.51 545.947C502.547 545.673 502.448 544.899 501.352 544.695C495.12 543.506 481.895 539.922 479.13 539.217L479.051 539.186Z" fill="#C4C3C6"/>
<path d="M551.1 515.028C544.187 517.157 537.629 519.191 531.061 521.234C526.557 522.642 522.014 524.02 517.619 525.507C516.721 525.854 515.743 526.05 514.745 526.082C513.747 526.115 512.751 525.983 511.821 525.694C509.797 525.1 507.634 524.63 505.619 524.035C502.478 523.096 502.419 522.032 505.56 520.858C512.592 518.237 519.555 515.552 526.804 513.079C538.231 509.167 534.142 509.323 545.757 512.993C547.219 513.458 548.667 513.932 550.103 514.418C550.459 514.596 550.793 514.8 551.1 515.028Z" fill="white"/>
<path d="M542.579 536.087C538.303 537.206 534.994 538.106 531.626 538.951C528.663 539.687 525.572 540.305 522.648 541.072C521.576 541.425 520.42 541.59 519.26 541.558C518.099 541.525 516.961 541.296 515.922 540.884C512.485 539.593 508.495 538.677 504.851 537.511C501.888 536.557 501.829 534.326 504.772 533.34C508.979 531.924 513.275 530.586 517.611 529.294C518.587 529.036 519.634 529 520.634 529.193C527.705 531.345 534.658 533.614 542.579 536.087Z" fill="#C4C3C6"/>
<path d="M517.352 528.175C513.224 529.427 510.053 530.429 506.774 531.36C503.871 532.19 500.74 532.871 497.885 533.708C495.574 534.405 493.431 534.491 489.856 533.458C484.799 531.971 479.406 530.914 474.221 529.545C469.974 528.449 468.177 525.914 470.853 524.81C474.675 523.245 478.666 521.735 482.705 520.295C483.824 519.995 485.028 519.96 486.172 520.193C496.196 522.729 506.103 525.295 517.352 528.175Z" fill="#C4C3C6"/>
<path d="M465.512 527.706C461.661 528.895 461.167 530.186 458.105 531.086C455.399 531.869 456.001 532.299 453.354 533.113C451.005 533.859 448.402 533.939 445.987 533.34C441.414 532.448 436.495 531.916 431.794 531.141C427.932 530.507 426.391 528.637 428.9 527.635C432.485 526.203 436.219 524.834 440.031 523.495C441.052 523.204 442.147 523.115 443.221 523.237C452.268 524.646 455.3 526.054 465.512 527.706Z" fill="white"/>
<path d="M389.028 535.25C393.315 531.783 397.305 528.433 401.621 525.201C402.243 524.732 404.584 524.513 405.878 524.669C412.989 525.554 420.021 526.594 427.428 527.635C423.478 529.803 419.922 531.759 416.347 533.708C415.343 534.106 414.404 534.6 413.552 535.179C410.954 537.738 407.013 537.785 402.273 537.018C398.105 536.361 393.799 535.884 389.028 535.25Z" fill="#C4C3C6"/>
<path d="M438.121 522.345C434.852 523.91 432.195 525.327 429.104 526.516C428.254 526.853 426.249 526.587 424.886 526.391C419.089 525.53 413.37 524.521 407.553 523.707C401.736 522.893 395.918 522.235 390.081 521.539C388.057 521.296 387.118 520.905 388.58 519.888C388.956 519.647 389.309 519.386 389.637 519.105C393.864 515.192 391.76 515.435 401.439 516.867C412.56 518.526 423.694 520.169 434.842 521.797C435.642 521.93 436.432 522.071 438.121 522.345Z" fill="white"/>
<path d="M532.177 509.229C528.227 510.661 525.007 512.015 521.392 513.064C520.405 513.353 518.202 512.876 516.731 512.532C510.439 511.037 504.266 509.401 497.965 507.938C491.664 506.474 485.284 505.222 478.913 503.876C476.711 503.422 475.723 502.89 477.55 501.896C478.008 501.657 478.446 501.395 478.864 501.114C484.266 497.162 481.896 497.201 492.395 499.705C504.464 502.575 516.543 505.444 528.632 508.314C529.501 508.572 530.35 508.767 532.177 509.229Z" fill="#C4C3C6"/>
<path d="M515.939 542.074C512.68 543.639 509.272 543.952 506.3 544.695C505.312 544.938 458.102 532.589 458.102 532.589L466.991 528.457C466.991 528.457 514.29 541.8 515.939 542.074Z" fill="white"/>
<path d="M516.069 526.735C522.123 524.834 527.624 523.089 533.175 521.39C533.85 521.199 534.578 521.161 535.279 521.281C541.452 522.932 547.575 524.622 553.708 526.305L553.639 526.994C550.805 527.776 547.98 528.559 545.126 529.341C543.993 529.537 542.881 529.799 541.797 530.124C536.375 532.519 531.496 531.971 526.311 529.78C523.457 528.59 519.852 527.847 516.069 526.735Z" fill="#C4C3C6"/>
<path d="M518.34 549.719C516.058 550.119 513.767 550.502 511.495 550.917C504.888 552.114 498.211 553.264 491.742 554.571C489.266 555.209 486.571 555.046 484.246 554.117C482.429 553.405 480.424 552.811 477.925 551.973L487.801 549.751C493.727 548.397 499.653 546.973 505.658 545.736C507.195 545.511 508.779 545.611 510.251 546.026C513.214 546.941 515.871 548.092 518.656 549.156L518.34 549.719Z" fill="#C4C3C6"/>
<path d="M510.338 544.766C517.429 543.013 523.474 541.495 529.567 540.07C530.376 539.899 531.228 539.899 532.037 540.07C536.451 541.377 540.777 542.762 545.864 544.359C537.874 545.924 530.693 547.403 523.484 548.812C522.786 548.946 522.057 548.93 521.37 548.765C517.844 547.497 514.407 546.237 510.338 544.766Z" fill="white"/>
<path d="M413.433 497.686L436.89 501.435C438.144 501.638 439.26 501.936 440.485 502.163C444.811 502.945 444.989 503.297 441.64 505.395C435.606 509.182 429.492 512.946 423.458 516.734C422.506 517.361 421.381 517.799 420.173 518.013C418.966 518.226 417.712 518.209 416.514 517.963C410.391 517.047 403.991 516.327 397.808 515.451C396.909 515.318 395.833 514.731 396.119 514.418C398.312 512.07 400.801 509.722 403.24 507.374C404.277 506.381 405.482 505.395 406.529 504.409C408.692 502.311 410.835 500.198 413.433 497.686Z" fill="white"/>
<path d="M471.575 504.659C472.609 504.193 473.832 504.066 474.982 504.307C481.343 505.668 484.859 507.03 491.091 508.22C492.237 508.447 493.254 508.728 494.37 509.002C498.321 509.855 498.488 510.098 495.358 511.35C489.738 513.612 485.619 516.726 480 518.988C478.143 519.731 474.745 519.035 471.99 518.518C466.39 517.47 460.523 516.546 454.864 515.521C454.044 515.372 453.066 514.887 453.343 514.684C455.407 513.173 456.849 513.056 459.15 511.553C460.138 510.927 462.775 509.362 463.753 508.728C466.27 507.267 468.881 505.908 471.575 504.659Z" fill="#C4C3C6"/>
<path d="M475.664 521.594C471.713 523.049 469.738 524.575 466.025 525.984C465.539 526.149 464.998 526.185 464.484 526.086L425.748 519.09C424.543 518.878 424.049 518.119 424.76 517.65L432.365 513.001C432.629 512.864 432.926 512.772 433.238 512.732C433.549 512.691 433.868 512.703 434.173 512.766C448.612 515.372 461.076 517.509 474.963 520.005C475.951 520.185 476.504 520.741 476.178 521.202C476.061 521.372 475.882 521.508 475.664 521.594Z" fill="#C4C3C6"/>
<path d="M465.481 505.966C460.069 508.736 455.536 511.092 450.844 513.4C449.875 513.778 448.803 513.961 447.723 513.932C443.407 513.338 439.249 512.626 434.548 511.866C436.286 510.7 437.817 509.667 439.368 508.642C441.205 507.437 443.18 506.224 444.79 505.027C446.242 503.947 447.437 503.376 450.281 503.853C455.032 504.659 459.97 505.215 465.481 505.966Z" fill="white"/>
<path d="M518.096 514.324C511.785 516.89 506.481 519.082 501.039 521.218C499.999 521.547 498.874 521.67 497.76 521.578C493.642 520.678 489.731 519.661 485.286 518.573L491.163 515.49C493.375 514.339 495.716 513.22 497.76 512.031C499.568 510.99 500.95 510.466 503.637 511.146C508.061 512.265 512.871 513.189 518.096 514.324Z" fill="white"/>
<path d="M439.94 491.207C438.093 492.646 436.563 493.828 435.071 495.01C433.58 496.192 432.108 497.358 430.301 498.837C425.728 498.273 420.78 497.772 416.128 497.068C413.777 496.708 415.032 494.071 417.679 492.373C418.805 491.668 419.14 490.807 420.108 490.072C420.955 489.526 421.856 489.037 422.805 488.608L439.94 491.207Z" fill="#C4C3C6"/>
<path d="M410.833 538.145C415.771 535.43 419.722 532.863 424.532 530.797C425.816 530.241 428.877 531.376 431.396 531.806C432.186 531.947 447.722 534.271 447.712 534.843C447.712 536.901 439.554 539.726 438.073 541.228C437.332 542.011 431.732 541.401 428.986 540.994C423.218 540.141 417.5 539.202 410.833 538.145Z" fill="#C4C3C6"/>
<path d="M566.724 530.679L560.798 532.01C556.305 533.027 551.742 533.982 547.337 535.085C545.164 535.633 543.534 535.672 541.727 534.764C540.011 534.008 538.247 533.321 536.443 532.706C542.793 530.985 548.581 529.388 554.448 527.87C555.45 527.655 556.507 527.655 557.51 527.87C560.334 528.613 562.991 529.513 566.724 530.679Z" fill="white"/>
<path d="M400.444 523.871C399.118 524.941 397.71 525.944 396.227 526.876C395.802 527.119 394.321 527.009 393.264 526.923C388.928 526.555 384.583 526.086 380.257 525.741C375.931 525.397 371.684 525.162 367.417 524.896C365.926 524.81 365.096 524.583 365.63 523.871C365.781 523.706 365.907 523.528 366.005 523.339C366.617 521.844 366.825 521.539 367.516 521.14C368.691 520.459 399.457 523.261 400.444 523.871Z" fill="white"/>
<path d="M152.318 595.437C151.33 594.889 147.192 593.465 146.392 592.964C138.274 588.003 136.516 586.704 131.982 581.453C131.765 581.194 130.145 577.235 129.177 575.489C127.686 575.489 126.214 575.489 124.703 575.489C117.967 575.411 110.649 575.411 103.765 574.566L102.955 575.02C103.193 575.93 103.365 576.849 103.469 577.775C103.617 579.074 103.834 580.349 104.101 581.633C104.575 583.041 105.055 584.445 105.543 585.843C106.787 587.103 107.972 588.41 109.079 589.756C110.313 591.321 111.548 592.886 112.871 594.373C117.108 597.19 121.76 599.655 126.066 602.449C126.866 602.966 127.646 603.498 128.427 604.014C128.569 603.986 128.708 603.946 128.842 603.897C135.577 601.33 142.817 600.117 149.809 597.448C150.767 597.12 152.96 595.829 152.318 595.437Z" fill="white"/>
<path d="M60.6419 607.896C65.2938 606.769 69.9753 605.806 74.7753 605C77.9861 604.06 81.3291 603.432 84.7308 603.13L85.8864 602.762C86.0247 602.3 86.1531 601.831 86.321 601.369C75.9802 594.999 70.6765 585.381 69.037 576.084C69.037 575.904 69.037 575.732 68.9679 575.552C67.9222 574.742 66.9331 573.888 66.0049 572.993H64.5531C55.9308 572.993 46.5185 573.048 38.1037 571.858C37.6889 572.085 37.274 572.328 36.8395 572.555C36.6617 573.948 36.4247 575.341 36.079 576.726C35.595 578.682 35.2098 580.639 34.8938 582.556C34.7753 584.685 34.6765 586.798 34.5679 588.918C35.553 590.857 36.3907 592.84 37.0765 594.858C37.8666 597.206 38.6469 599.553 39.5654 601.799C42.5284 604.93 45.8271 607.723 49.0173 610.666C52.3692 609.695 55.7809 608.859 59.2395 608.162L60.6419 607.896Z" fill="#C4C3C6"/>
<path d="M104.068 537.934C107.574 538.967 111.228 539.875 115.09 540.759C117.625 541.624 120.276 542.256 122.991 542.645L123.821 542.958C123.643 543.248 123.455 543.537 123.307 543.827C111.347 546.44 100.301 551.192 91.0209 557.717L90.6159 558.03C89.1147 558.437 87.653 558.883 86.211 559.345L84.9172 559.228C77.0159 558.594 68.5023 557.811 60.0381 557.889C59.8011 557.717 59.5838 557.545 59.3369 557.373C60.0537 556.546 60.7132 555.69 61.3122 554.806C62.1419 553.593 63.0604 552.396 64.0283 551.206C65.3023 549.915 66.5962 548.639 67.8801 547.356C69.9838 546.284 72.0381 545.173 74.0233 543.975C76.2752 542.622 78.5073 541.276 80.8283 539.984C85.5394 538.341 90.3986 536.901 95.2184 535.375C97.7358 536.242 100.307 537.007 102.922 537.668L104.068 537.934Z" fill="white"/>
<path d="M120.621 551.699C118.162 553.867 115.584 555.972 113.184 558.171C112.414 559.267 111.713 560.394 111.071 561.536C110.304 563.941 109.695 566.375 109.244 568.83C109.352 568.83 109.609 573.744 109.718 573.768C115.644 575.145 124.533 573.768 129.53 574.746C130.409 574.918 129.955 571.31 130.518 570.442C132.098 568.047 129.935 568.509 131.505 566.138C132.177 565.136 133.816 562.937 134.468 561.935C135.861 559.815 139.703 558.805 141.382 556.285C134.044 554.642 127.278 553.178 120.621 551.699Z" fill="#C4C3C6"/>
<path d="M126.865 603.905C119.26 606.432 112.771 609.007 105.828 610.619C103.961 611.05 101.68 608.483 99.3588 607.105C98.6378 606.675 81.4823 596.439 81.986 595.617C83.8131 592.604 100.88 594.107 103.774 592.338C105.225 591.454 107.339 592.956 109.917 594.365C115.339 597.323 120.643 600.391 126.865 603.905Z" fill="#C4C3C6"/>
<path d="M106.892 591.352C105.734 589.805 104.784 588.165 104.058 586.461C102.172 582.799 101.199 578.882 101.193 574.926C101.104 574.816 101.016 574.707 100.917 574.597C100.298 574.157 99.4859 573.927 98.6551 573.956C91.4847 574.034 84.265 574.206 77.0749 574.308C75.0995 574.308 73.1242 574.308 71.1489 574.308C71.3858 575.969 71.3858 577.647 71.1489 579.308C71.4452 579.927 71.7119 580.553 71.9588 581.187C73.3784 583.435 74.4941 585.796 75.2872 588.23C76.0209 589.221 76.6805 590.245 77.2625 591.297C87.139 591.352 97.0156 591.368 106.892 591.391V591.352Z" fill="white"/>
<path d="M119.476 551.449C107.743 560.613 109.718 563.61 109.718 563.61C109.718 563.61 95.8907 561.051 90.2314 559.971C97.6389 553.789 108.167 548.913 108.73 549.015C112.631 549.978 114.883 550.22 119.476 551.449Z" fill="#C4C3C6"/>
<path d="M107.113 572.555C89.5524 572.046 72.624 571.545 55.6759 571.091C53.1672 571.029 51.9524 570.598 52.387 569.041C53.2463 565.911 53.8784 562.828 54.5598 559.721C54.8166 558.586 56.0216 558.336 57.6512 558.476C61.0487 558.774 64.4364 559.087 67.824 559.392C76.7129 560.175 85.671 560.957 94.55 561.802C98.3722 562.162 102.115 562.663 105.789 563.227C106.678 563.368 107.765 564.009 107.765 564.455C107.706 566.975 107.38 569.526 107.113 572.555Z" fill="#C4C3C6"/>
<path d="M54.8449 613.812C57.4128 613.139 59.9807 612.489 62.5387 611.793C69.9659 609.774 77.4622 607.88 84.7609 605.626C88.0301 604.617 90.4893 604.781 93.1165 606.284C95.0918 607.434 97.3338 608.381 100.03 609.727C95.9115 611.089 92.4054 612.278 88.9091 613.436C82.2128 615.698 75.5856 618.085 68.7906 620.166C67.0806 620.545 65.2523 620.388 63.6844 619.728C60.4251 618.273 57.5017 616.418 54.4399 614.72L54.8449 613.812Z" fill="#C4C3C6"/>
<path d="M492.562 556.309C493.431 556.856 497.5 558.406 498.221 558.915C505.559 563.915 507.11 565.238 510.567 570.254C510.734 570.504 511.455 574.214 512.048 575.857L516.759 576.147C523.831 576.624 531.574 577.055 538.596 578.236L539.584 577.868C539.561 577.019 539.607 576.17 539.722 575.325C539.89 574.136 539.979 572.977 540.008 571.78C539.86 570.465 539.692 569.158 539.534 567.867C538.518 566.645 537.598 565.375 536.779 564.064C535.86 562.569 534.952 561.082 533.925 559.634C530.152 556.809 525.885 554.29 522.013 551.488C521.292 550.971 520.611 550.439 519.91 549.923C519.752 549.938 519.597 549.965 519.446 550.001C511.712 551.942 503.791 552.615 495.742 554.626C494.537 554.892 491.949 555.933 492.562 556.309Z" fill="#C4C3C6"/>
<path d="M515.133 598.074C518.263 596.251 521.493 594.482 524.565 592.596C525.641 591.642 526.668 590.663 527.626 589.654C529.013 587.53 530.256 585.348 531.35 583.119C531.251 583.119 532.179 578.62 532.071 578.588C526.145 576.984 516.417 577.696 511.429 576.522C510.55 576.311 510.145 579.653 509.325 580.38C507.083 582.47 509.473 582.18 507.221 584.246C506.234 585.123 503.992 587.024 503.054 587.901C501.078 589.756 496.762 590.436 494.333 592.596C501.76 594.6 508.476 596.353 515.133 598.074Z" fill="white"/>
<path d="M521.442 550.134C530.084 548.28 537.551 546.323 545.265 545.267C547.339 544.977 549.107 547.458 551.191 548.859C551.852 549.289 567.398 559.635 566.667 560.355C564 562.992 546.381 560.613 542.894 562.045C541.156 562.765 539.289 561.262 536.968 559.838C531.961 556.817 527.131 553.703 521.442 550.134Z" fill="#C4C3C6"/>
<path d="M539.386 562.765C540.22 564.238 540.815 565.79 541.154 567.382C542.241 570.888 542.301 574.544 541.332 578.072L541.54 578.393C542.138 578.847 542.933 579.101 543.762 579.105C551.347 579.465 558.991 579.739 566.586 580.075C568.68 580.161 570.764 580.279 572.828 580.404C573.005 578.852 573.43 577.324 574.093 575.857C573.935 575.27 573.806 574.683 573.698 574.096C572.761 571.952 572.171 569.722 571.94 567.46C571.401 566.512 570.942 565.537 570.567 564.541C560.196 563.9 549.826 563.305 539.367 562.694C539.377 562.726 539.377 562.741 539.386 562.765Z" fill="#C4C3C6"/>
<path d="M516.266 598.372C530.893 590.726 529.55 587.87 529.55 587.87C529.55 587.87 543.515 591 549.194 592.346C539.861 597.542 527.555 601.353 526.992 601.197C523.179 600.133 520.809 599.765 516.266 598.372Z" fill="white"/>
<path d="M534.518 579.872C552.899 581.382 570.607 582.846 588.355 584.27C590.983 584.481 592.158 584.935 591.318 586.336C589.639 589.122 588.207 591.908 586.716 594.694C586.173 595.719 584.839 595.875 583.16 595.648C579.644 595.179 576.158 594.686 572.662 594.208C563.466 592.949 554.242 591.728 545.096 590.421C541.145 589.865 537.333 589.192 533.61 588.457C532.701 588.277 531.763 587.674 531.881 587.22C532.513 584.927 533.491 582.626 534.518 579.872Z" fill="#C4C3C6"/>
<path d="M513.792 578.986C514.161 551.072 427.664 527.723 320.595 526.835C213.526 525.946 126.431 547.855 126.062 575.768C125.693 603.682 212.19 627.031 319.259 627.919C426.328 628.808 513.424 606.899 513.792 578.986Z" fill="#343D44" fill-opacity="0.16"/>
<mask id="empty-videos-mask0" mask-type="alpha" maskUnits="userSpaceOnUse" x="34" y="502" width="572" height="150">
<path fill-rule="evenodd" clip-rule="evenodd" d="M320.913 502.862C478.765 504.172 606.289 538.595 605.745 579.749C605.201 620.902 476.795 653.202 318.943 651.892C161.09 650.582 33.5667 616.159 34.1106 575.005C34.6545 533.852 163.06 501.552 320.913 502.862ZM320.596 526.835C427.664 527.723 514.162 551.072 513.793 578.986C513.424 606.899 426.328 628.808 319.26 627.919C212.191 627.031 125.693 603.682 126.062 575.768C126.431 547.854 213.527 525.946 320.596 526.835Z" fill="black"/>
</mask>
<g mask="url(#empty-videos-mask0)">
<path d="M168.779 535.023C170.527 534.577 172.285 534.115 174.014 533.638L174.261 533.583L192.463 531.055C192.737 531.014 193.019 531.021 193.289 531.077C193.559 531.132 193.81 531.235 194.024 531.376C197.648 534.115 202.853 536.134 206.626 538.983C207.15 539.382 207.475 540.383 206.626 540.485C205.352 540.642 204.058 541.268 202.932 541.432C192.187 542.825 188.582 544.077 177.826 545.462C177.263 545.541 171.001 547.028 170.448 546.981C166.299 546.439 162.294 545.351 158.596 543.764C156.7 542.982 150.389 541.886 146.379 540.634C145.342 540.313 145.441 539.546 146.527 539.39C152.74 538.521 165.905 535.602 168.661 535.031L168.779 535.023Z" fill="white"/>
<path d="M328.524 508.024C319.635 508.353 311.635 508.635 303.665 508.94C302.341 508.987 301.047 509.143 299.714 509.221C295.013 509.511 294.549 509.824 295.615 512.352C297.591 516.898 299.566 521.437 301.541 525.976C302.183 527.479 303.566 528.144 306.736 528.058C313.166 527.878 319.665 527.941 326.114 527.807C327.052 527.807 328.583 527.322 328.613 526.978C328.84 524.333 328.781 521.672 328.761 519.011C328.761 517.885 328.573 516.75 328.553 515.623C328.504 513.267 328.524 510.865 328.524 508.024Z" fill="white"/>
<path d="M246.982 524.075L254.538 530.421L299.97 527.909L296.661 520.6L247.526 523.339C247.338 523.582 247.16 523.824 246.982 524.075Z" fill="white"/>
<path d="M394.723 528.52L385.597 534.89C365.755 532.972 352.136 533.262 333.607 532.597C331.997 532.534 330.723 531.814 330.812 530.969C331.029 529.06 330.229 526.931 331.395 524.818C351.8 525.718 374.249 525.428 394.121 527.792L394.723 528.52Z" fill="white"/>
<path d="M141.146 554.869V554.994C142.133 555.174 143.18 555.377 144.178 555.604C148.431 554.045 152.782 552.661 157.215 551.457C157.481 551.386 157.6 551.175 157.965 550.901C154.094 550.009 150.311 549.164 146.568 548.287C141.264 547.035 135.941 545.791 130.696 544.461C129.625 544.117 128.473 543.958 127.318 543.996C126.163 544.034 125.032 544.267 124 544.68C121.343 545.744 118.272 546.542 115.437 547.497C114.457 547.862 113.501 548.267 112.573 548.71V549.367L141.146 554.869Z" fill="white"/>
<path d="M258.41 535.618C254.133 531.932 250.173 528.387 245.876 524.936C245.244 524.435 242.914 524.098 241.63 524.192C234.558 524.717 227.556 525.405 220.178 526.063C224.128 528.41 227.654 530.57 231.21 532.699C232.206 533.16 233.134 533.709 233.975 534.334C236.563 537.018 240.484 537.269 245.205 536.745C249.373 536.275 253.659 536.009 258.41 535.618Z" fill="white"/>
<path d="M129.669 543.569C131.951 544.085 134.232 544.586 136.494 545.134C143.062 546.699 149.709 548.115 156.168 549.782C157.355 550.16 158.625 550.349 159.905 550.337C161.185 550.325 162.449 550.112 163.625 549.712C165.442 549.093 167.437 548.6 169.926 547.888L160.049 545.157C154.124 543.506 148.277 541.784 142.272 540.243C140.77 539.945 139.195 539.969 137.709 540.313C134.746 541.096 132.109 542.089 129.343 543.005L129.669 543.569Z" fill="white"/>
<path d="M236.701 537.417C231.812 534.451 227.812 531.689 223.061 529.373C221.778 528.754 218.736 529.733 216.217 530.038C215.437 530.14 199.97 531.681 199.98 532.252C199.98 534.311 208.099 537.55 209.58 539.123C210.311 539.906 215.891 539.616 218.617 539.35C224.365 538.779 230.064 538.13 236.701 537.417Z" fill="white"/>
<path d="M479.051 539.186C477.293 538.654 475.535 538.114 473.797 537.543L473.55 537.48L455.268 534.021C455 533.967 454.72 533.961 454.449 534.002C454.177 534.044 453.92 534.134 453.698 534.264C450.053 536.823 444.809 538.576 441.046 541.237C440.513 541.604 440.177 542.59 441.046 542.739C442.32 542.966 443.614 543.67 444.75 543.874C455.545 545.815 459.169 547.239 469.964 549.172C470.527 549.274 476.829 551.105 477.382 551.066C481.493 550.737 485.502 549.85 489.234 548.444C491.14 547.755 497.48 546.981 501.51 545.948C502.547 545.674 502.448 544.899 501.352 544.696C495.12 543.506 481.895 539.922 479.13 539.218L479.051 539.186Z" fill="white"/>
<path d="M389.027 535.25C393.314 531.783 397.304 528.434 401.62 525.202C402.242 524.732 404.583 524.513 405.877 524.669C412.988 525.554 420.02 526.595 427.427 527.635C423.477 529.803 419.921 531.76 416.346 533.708C415.342 534.106 414.403 534.6 413.551 535.179C410.953 537.738 407.012 537.785 402.272 537.018C398.104 536.361 393.798 535.884 389.027 535.25Z" fill="white"/>
<path d="M518.339 549.72C516.057 550.119 513.766 550.502 511.494 550.917C504.887 552.114 498.21 553.265 491.741 554.572C489.265 555.209 486.57 555.046 484.245 554.118C482.428 553.406 480.423 552.811 477.924 551.973L487.8 549.751C493.726 548.397 499.652 546.973 505.657 545.736C507.194 545.511 508.778 545.611 510.25 546.026C513.213 546.941 515.87 548.092 518.655 549.156L518.339 549.72Z" fill="white"/>
<path d="M410.832 538.145C415.77 535.43 419.721 532.863 424.531 530.797C425.815 530.241 428.876 531.376 431.395 531.807C432.185 531.947 447.721 534.272 447.711 534.843C447.711 536.901 439.553 539.726 438.072 541.229C437.331 542.011 431.731 541.401 428.985 540.994C423.217 540.141 417.499 539.202 410.832 538.145Z" fill="white"/>
<path d="M120.621 551.699C118.162 553.867 115.584 555.972 113.184 558.171C112.414 559.267 111.712 560.394 111.07 561.536C110.304 563.941 109.694 566.376 109.243 568.83C109.352 568.83 109.609 573.745 109.717 573.768C115.643 575.145 124.532 573.768 129.53 574.746C130.409 574.918 129.954 571.311 130.517 570.442C132.097 568.047 129.935 568.509 131.505 566.138C132.176 565.136 133.816 562.937 134.468 561.936C135.86 559.815 139.702 558.805 141.381 556.285C134.043 554.642 127.278 553.179 120.621 551.699Z" fill="white"/>
<path d="M492.561 556.309C493.43 556.857 497.499 558.406 498.22 558.915C505.559 563.915 507.109 565.238 510.566 570.254C510.734 570.505 511.455 574.214 512.048 575.857L516.759 576.147C523.83 576.624 531.573 577.055 538.596 578.237L539.583 577.869C539.56 577.019 539.606 576.17 539.722 575.325C539.889 574.136 539.978 572.978 540.008 571.78C539.86 570.466 539.692 569.159 539.534 567.867C538.518 566.646 537.598 565.375 536.778 564.064C535.86 562.569 534.951 561.083 533.924 559.635C530.151 556.81 525.885 554.29 522.013 551.488C521.292 550.972 520.61 550.44 519.909 549.923C519.752 549.939 519.597 549.965 519.445 550.001C511.712 551.942 503.791 552.615 495.741 554.626C494.536 554.892 491.949 555.933 492.561 556.309Z" fill="white"/>
</g>
<path d="M253.534 530.959C253.425 529.837 254.275 528.852 255.4 528.794L297.184 526.669C298.313 526.612 299.259 527.512 299.259 528.642V533.69C299.259 534.722 298.466 535.579 297.438 535.66L256.253 538.871C255.18 538.954 254.238 538.164 254.133 537.093L253.534 530.959Z" fill="#C4C4C4"/>
<path d="M391.819 530.267C391.969 529.115 391.097 528.083 389.935 528.039L332.914 525.863C331.795 525.821 330.864 526.717 330.864 527.837V532.876C330.864 533.922 331.679 534.787 332.724 534.848L388.945 538.135C389.979 538.196 390.885 537.446 391.019 536.418L391.819 530.267Z" fill="white"/>
<path d="M301.727 526.954C301.727 525.874 302.594 524.994 303.674 524.979L326.884 524.646C327.986 524.63 328.888 525.519 328.888 526.621V537.825C328.888 538.916 328.003 539.8 326.912 539.8H303.702C302.611 539.8 301.727 538.916 301.727 537.825V526.954Z" fill="white"/>
<path d="M301.234 544.463C301.234 543.383 302.102 542.503 303.182 542.488L326.886 542.163C327.987 542.148 328.888 543.037 328.888 544.138V554.954C328.888 556.045 328.004 556.929 326.913 556.929H303.209C302.118 556.929 301.234 556.045 301.234 554.954V544.463Z" fill="#C4C4C4"/>
<path d="M273.58 541.643C273.58 540.601 274.389 539.738 275.429 539.672L295.676 538.377C296.814 538.304 297.777 539.208 297.777 540.348V551.154C297.777 552.208 296.95 553.076 295.897 553.127L275.65 554.104C274.523 554.158 273.58 553.259 273.58 552.131V541.643Z" fill="#C4C4C4"/>
<path d="M465.186 562.261C465.186 561.399 464.626 560.636 463.803 560.377L448.001 555.402C446.728 555.001 445.432 555.952 445.432 557.286V567.911C445.432 568.786 446.008 569.557 446.848 569.805L462.65 574.477C463.916 574.851 465.186 573.902 465.186 572.582V562.261Z" fill="#C4C4C4"/>
<path d="M254.815 542.785C254.815 541.753 255.608 540.896 256.636 540.815L267.501 539.966C268.649 539.877 269.63 540.784 269.63 541.936V552.036C269.63 553.047 268.866 553.895 267.861 554.001L256.997 555.142C255.831 555.265 254.815 554.351 254.815 553.178V542.785Z" fill="#C4C4C4"/>
<path d="M230.124 547.732C230.124 546.717 230.892 545.868 231.902 545.766L234.865 545.468C236.028 545.351 237.038 546.265 237.038 547.434V551.933C237.038 552.921 236.307 553.758 235.327 553.89L232.364 554.29C231.179 554.451 230.124 553.529 230.124 552.333V547.732Z" fill="#C4C4C4"/>
<path d="M254.815 559.193C254.815 558.136 255.648 557.266 256.705 557.22L297.198 555.461C298.322 555.413 299.259 556.31 299.259 557.435V566.003C299.259 567.054 298.436 567.921 297.386 567.975L256.892 570.058C255.762 570.116 254.815 569.216 254.815 568.086V559.193Z" fill="#C4C4C4"/>
<path d="M402.963 550.886C402.963 549.855 402.17 548.997 401.142 548.917L396.203 548.531C395.055 548.441 394.074 549.349 394.074 550.5V554.995C394.074 556.006 394.837 556.854 395.843 556.959L400.781 557.478C401.947 557.601 402.963 556.687 402.963 555.514V550.886Z" fill="#C4C4C4"/>
<path d="M444.444 539.742C444.444 538.415 445.726 537.466 446.995 537.852L480.082 547.938C480.913 548.191 481.481 548.958 481.481 549.827V560.853C481.481 562.188 480.184 563.138 478.912 562.737L445.825 552.304C445.003 552.044 444.444 551.282 444.444 550.42V539.742Z" fill="#C4C4C4"/>
<path d="M394.074 531.514C394.074 530.32 395.125 529.399 396.309 529.556L413.099 531.786C414.081 531.916 414.814 532.754 414.814 533.744V544.986C414.814 546.165 413.789 547.081 412.618 546.949L395.828 545.058C394.829 544.946 394.074 544.101 394.074 543.095V531.514Z" fill="white"/>
<path d="M354.568 540.373C354.568 539.223 355.546 538.316 356.692 538.403L388.297 540.785C389.327 540.863 390.124 541.721 390.124 542.755V564.964C390.124 566.097 389.172 566.998 388.04 566.936L356.435 565.195C355.388 565.138 354.568 564.272 354.568 563.223V540.373Z" fill="#C4C4C4"/>
<path d="M330.864 538.79C330.864 537.65 331.827 536.747 332.965 536.819L349.755 537.884C350.795 537.95 351.605 538.813 351.605 539.855V543.166C351.605 544.298 350.655 545.199 349.524 545.138L332.734 544.235C331.685 544.179 330.864 543.313 330.864 542.263V538.79Z" fill="#C4C4C4"/>
<path d="M332.838 548.939C332.838 547.789 333.817 546.882 334.964 546.969L349.778 548.097C350.808 548.175 351.604 549.034 351.604 550.066V572.787C351.604 573.907 350.674 574.802 349.555 574.761L334.741 574.213C333.679 574.174 332.838 573.302 332.838 572.239V548.939Z" fill="#C4C4C4"/>
<path d="M327.746 559.654C328.837 559.654 329.722 560.539 329.722 561.629L329.722 572.934C329.722 574.046 328.803 574.939 327.691 574.908L313.161 574.5C312.106 574.471 311.261 573.618 311.241 572.563L311.039 561.666C311.018 560.561 311.908 559.654 313.014 559.654L327.746 559.654Z" fill="#C4C4C4"/>
<path d="M250.864 528.819C250.864 527.625 249.812 526.703 248.628 526.861L231.838 529.091C230.856 529.221 230.123 530.059 230.123 531.049V542.291C230.123 543.47 231.148 544.386 232.319 544.254L249.11 542.363C250.109 542.251 250.864 541.406 250.864 540.4V528.819Z" fill="white"/>
<path d="M228.147 531.611C228.147 531.005 227.606 530.541 227.007 530.635L205.279 534.033C204.798 534.108 204.444 534.522 204.444 535.009V553.466C204.444 554.063 204.969 554.524 205.561 554.445L227.29 551.564C227.781 551.499 228.147 551.08 228.147 550.585V531.611Z" fill="#C4C4C4"/>
<path d="M201.975 535.999C201.975 535.358 201.374 534.887 200.751 535.04L165.69 543.656C165.248 543.764 164.938 544.16 164.938 544.615V549.836C164.938 550.475 165.535 550.946 166.156 550.797L201.218 542.37C201.662 542.264 201.975 541.867 201.975 541.41V535.999Z" fill="white"/>
<path d="M482.963 551.922C482.963 550.563 484.304 549.61 485.588 550.057L489.538 551.432C490.332 551.708 490.864 552.457 490.864 553.298V564.408C490.864 565.728 489.595 566.676 488.33 566.303L484.379 565.137C483.539 564.889 482.963 564.118 482.963 563.242V551.922Z" fill="white"/>
<path d="M163.95 546.372C163.95 545.042 162.662 544.092 161.391 544.485L156.453 546.013C155.625 546.269 155.061 547.034 155.061 547.9V559.04C155.061 560.335 156.286 561.279 157.538 560.951L162.476 559.655C163.345 559.428 163.95 558.643 163.95 557.745V546.372Z" fill="white"/>
<path d="M153.579 548.754L144.369 552.925C143.663 553.245 143.209 553.949 143.209 554.725V565.338C143.209 566.824 144.788 567.778 146.103 567.087L152.523 563.713C153.172 563.372 153.579 562.698 153.579 561.964V548.754Z" fill="white"/>
<path d="M181.728 549.922L167.41 553.593C166.537 553.817 165.926 554.605 165.926 555.507V564.402C165.926 565.724 167.198 566.672 168.464 566.295L180.316 562.769C181.154 562.52 181.728 561.75 181.728 560.876V549.922Z" fill="#C4C4C4"/>
<path d="M492.838 556.587C492.838 555.038 494.539 554.092 495.855 554.908L513.182 565.662C513.443 565.824 513.662 566.044 513.823 566.306L516.673 570.94C517.761 572.709 515.799 580.463 514.527 582.104C513.457 583.483 512.472 584.963 511.706 586.184C510.937 587.409 509.142 587.522 508.273 586.366C504.824 581.776 497.435 572.178 493.851 569.294C493.263 568.821 492.838 568.133 492.838 567.378V556.587Z" fill="#C4C4C4"/>
<path d="M141.243 555.761C141.243 554.448 137.577 554.56 136.798 555.372L128.996 565.705C128.906 565.799 128.828 565.908 128.762 566.031C128.685 566.175 128.616 566.323 128.524 566.457L125.572 570.794C125.481 570.928 125.403 571.068 125.383 571.23C125.154 573.074 126.878 581.017 128.226 583.689C128.562 584.353 129.203 584.153 129.572 583.507C132.053 579.165 137.977 570.968 140.67 569.092C141.034 568.838 141.243 568.328 141.243 567.783V555.761Z" fill="#C4C4C4"/>
<path d="M417.777 534.431C417.777 533.182 418.922 532.247 420.146 532.496L440.887 536.715C441.807 536.902 442.468 537.711 442.468 538.65V562.37C442.468 563.595 441.365 564.525 440.157 564.316L419.416 560.74C418.469 560.576 417.777 559.754 417.777 558.793V534.431Z" fill="#C4C4C4"/>
<path d="M202.468 547.045C202.468 545.746 201.237 544.801 199.982 545.137L185.167 549.102C184.304 549.333 183.703 550.116 183.703 551.01V562.35C183.703 563.441 184.587 564.326 185.678 564.326H200.493C201.584 564.326 202.468 563.441 202.468 562.35V547.045Z" fill="#C4C4C4"/>
<path d="M251.852 546.643C251.852 545.478 250.85 544.566 249.691 544.676L241.296 545.47C240.281 545.566 239.506 546.418 239.506 547.437V571.277C239.506 572.393 240.431 573.288 241.546 573.251L249.941 572.977C251.007 572.942 251.852 572.068 251.852 571.003V546.643Z" fill="#C4C4C4"/>
</g>
<ellipse cx="318" cy="585.5" rx="318" ry="125.5" transform="rotate(180 318 585.5)" fill="url(#paint0_linear)"/>
<rect width="640" height="381" fill="url(#paint1_linear)"/>
</g>
<defs>
<linearGradient id="paint0_linear" x1="318" y1="460" x2="318" y2="711" gradientUnits="userSpaceOnUse">
<stop/>
<stop offset="1" stop-opacity="0"/>
</linearGradient>
<linearGradient id="paint1_linear" x1="320" y1="0" x2="320" y2="381" gradientUnits="userSpaceOnUse">
<stop/>
<stop offset="1" stop-opacity="0"/>
</linearGradient>
<clipPath id="clip0">
<rect width="640" height="715.919" fill="white"/>
</clipPath>
</defs>
</svg>
