<svg width="640" height="480" viewBox="0 0 640 480" fill="none" xmlns="http://www.w3.org/2000/svg">
<g >
<path fill-rule="evenodd" clip-rule="evenodd" d="M315.987 201.557H310.57V196.14H315.987V190.71H310.57V185.28H315.987V179.864H321.417V174.434H315.987V179.85H310.57V174.434H315.987V169H310.557V174.431H305.14V179.847H299.71V174.431H294.28V179.847H288.863V174.431H294.28V169H288.849V174.431H283.433V169H278V174.431H283.43V179.847H278V185.278H283.43V190.708H278V196.138H283.43V201.554V201.568H288.847V206.985H294.277V201.568H299.707V206.985H305.138V201.568H310.554V206.985H315.984V201.568H321.415V196.138H315.984V201.557H315.987ZM283.43 201.57V206.987H278V201.557H283.43V201.57ZM299.709 174.431V169.001H305.139V174.431H299.709ZM315.986 185.277V190.708H321.416V185.277H315.986ZM288.847 179.86H283.43V185.277H288.847V179.86ZM288.862 206.987V212.417H294.279V206.987H299.709V212.417H305.139V206.987H310.569V212.417H315.986V206.987H321.416V212.417H315.986V217.847H310.556V212.417H305.139V217.847H299.709V212.417H294.279V217.847H288.848V212.417H283.432V217.847H278.002V212.417H283.432V206.987H288.862ZM310.555 196.14V190.71H305.139V196.14H310.555ZM299.709 196.14V201.557H305.139V196.14H299.709ZM294.278 196.14H299.708V190.71H294.278V196.14ZM294.277 196.14H288.861V201.557H294.277V196.14ZM294.277 185.277H288.861V190.708H294.277V185.277ZM299.708 185.277V179.86H294.278V185.277H299.708ZM305.142 185.277H299.712V190.708H305.142V185.277ZM305.142 185.277H310.559V179.86H305.142V185.277ZM288.847 190.708V196.138H283.43V190.708H288.847ZM326.847 174.431H321.416V169.001H326.847V174.431ZM321.416 185.277H326.847V179.847H321.416V185.277ZM326.847 196.14H321.416V190.71H326.847V196.14ZM321.416 206.987H326.847V201.557H321.416V206.987ZM321.416 217.848H326.847V212.418H321.416V217.848Z" fill="#4038FF"/>
<path fill-rule="evenodd" clip-rule="evenodd" d="M502.987 182.557H497.57V177.14H502.987V171.71H497.57V166.28H502.987V160.864H508.417V155.434H502.987V160.85H497.57V155.434H502.987V150H497.557V155.431H492.14V160.847H486.71V155.431H481.28V160.847H475.863V155.431H481.28V150H475.849V155.431H470.433V150H465V155.431H470.43V160.847H465V166.278H470.43V171.708H465V177.138H470.43V182.554V182.568H475.847V187.985H481.277V182.568H486.707V187.985H492.138V182.568H497.554V187.985H502.984V182.568H508.415V177.138H502.984V182.557H502.987ZM470.43 182.57V187.987H465V182.557H470.43V182.57ZM486.709 155.431V150.001H492.139V155.431H486.709ZM502.986 166.277V171.708H508.416V166.277H502.986ZM475.847 160.86H470.43V166.277H475.847V160.86ZM475.862 187.987V193.417H481.279V187.987H486.709V193.417H492.14V187.987H497.57V193.417H502.986V187.987H508.416V193.417H502.986V198.847H497.556V193.417H492.14V198.847H486.709V193.417H481.279V198.847H475.849V193.417H470.432V198.847H465.002V193.417H470.432V187.987H475.862ZM497.555 177.14V171.71H492.139V177.14H497.555ZM486.709 177.14V182.557H492.139V177.14H486.709ZM481.278 177.14H486.708V171.71H481.278V177.14ZM481.277 177.14H475.861V182.557H481.277V177.14ZM481.277 166.277H475.861V171.708H481.277V166.277ZM486.708 166.277V160.86H481.278V166.277H486.708ZM492.142 166.277H486.712V171.708H492.142V166.277ZM492.142 166.277H497.559V160.86H492.142V166.277ZM475.847 171.708V177.138H470.43V171.708H475.847ZM513.847 155.431H508.416V150.001H513.847V155.431ZM508.416 166.277H513.847V160.847H508.416V166.277ZM513.847 177.14H508.416V171.71H513.847V177.14ZM508.416 187.987H513.847V182.557H508.416V187.987ZM508.416 198.848H513.847V193.418H508.416V198.848Z" fill="#4038FF"/>
<path fill-rule="evenodd" clip-rule="evenodd" d="M153.681 18.556H148.264V13.1394H153.681V7.70931H148.264V2.27923H153.681V-3.13739H159.111V-8.56746H153.681V-3.15084H148.264V-8.56746H153.681V-14.0006H148.251V-8.5705H142.834V-3.15388H137.404V-8.5705H131.974V-3.15388H126.557V-8.5705H131.974V-14.0006H126.543V-8.5705H121.127V-14.0006H115.694V-8.5705H121.124V-3.15388H115.694V2.27663H121.124V7.7067H115.694V13.1368H121.124V18.5534V18.5669H126.541V23.9835H131.971V18.5669H137.401V23.9835H142.831V18.5669H148.248V23.9835H153.678V18.5669H159.108V13.1368H153.678V18.556H153.681ZM121.124 18.569V23.986H115.694V18.5555H121.124V18.569ZM137.402 -8.5704V-14.0005H142.833V-8.5704H137.402ZM153.681 2.27646V7.70653H159.111V2.27646H153.681ZM126.541 -3.14082H121.124V2.27623H126.541V-3.14082ZM126.554 23.9865V29.4166H131.971V23.9865H137.401V29.4166H142.832V23.9865H148.262V29.4166H153.679V23.9865H159.109V29.4166H153.679V34.8467H148.248V29.4166H142.832V34.8467H137.401V29.4166H131.971V34.8467H126.541V29.4166H121.124V34.8467H115.694V29.4166H121.124V23.9865H126.554ZM148.249 13.1394V7.7093H142.833V13.1394H148.249ZM137.402 13.1391V18.5557H142.833V13.1391H137.402ZM131.972 13.1394H137.402V7.7093H131.972V13.1394ZM131.972 13.1391H126.555V18.5557H131.972V13.1391ZM131.972 2.27646H126.555V7.70653H131.972V2.27646ZM137.402 2.27623V-3.14082H131.972V2.27623H137.402ZM142.832 2.27646H137.402V7.70653H142.832V2.27646ZM142.833 2.27623H148.249V-3.14082H142.833V2.27623ZM126.541 7.70676V13.1368H121.124V7.70676H126.541ZM164.541 -8.5704H159.111V-14.0005H164.541V-8.5704ZM159.111 2.27623H164.541V-3.15428H159.111V2.27623ZM164.541 13.1394H159.111V7.7093H164.541V13.1394ZM159.111 23.986H164.541V18.5555H159.111V23.986ZM159.111 34.8466H164.541V29.4165H159.111V34.8466Z" fill="#1F242C"/>
<path fill-rule="evenodd" clip-rule="evenodd" d="M326.847 103.417V108.847H278V103.417H326.847ZM326.848 97.9913V92.5639H278.001V97.9913H326.848ZM326.848 87.1371V81.7096H278.001V87.1371H326.848ZM326.848 70.8541V76.2815H278.001V70.8541H326.848ZM326.848 65.4273V59.9998H278.001V65.4273H326.848Z" fill="#1F242C"/>
<path fill-rule="evenodd" clip-rule="evenodd" d="M263.849 468.418V473.848H215.002V468.418H263.849ZM263.847 462.992V457.565H215V462.992H263.847ZM263.847 452.138V446.71H215V452.138H263.847ZM263.847 435.855V441.282H215V435.855H263.847ZM263.847 430.428V425H215V430.428H263.847Z" fill="#4038FF"/>
<path fill-rule="evenodd" clip-rule="evenodd" d="M530.847 359.418V364.848H482V359.418H530.847ZM530.848 353.992V348.565H482.001V353.992H530.848ZM530.848 343.138V337.71H482.001V343.138H530.848ZM530.848 326.855V332.282H482.001V326.855H530.848ZM530.848 321.428V316H482.001V321.428H530.848Z" fill="#1F242C"/>
<path fill-rule="evenodd" clip-rule="evenodd" d="M139.847 349.431V344H91V349.431H139.847ZM139.847 365.715V371.146H91V365.715H139.847ZM139.847 382.001V376.571H91V382.001H139.847ZM139.849 392.848V387.417H91.0016V392.848H139.849ZM139.847 354.861V360.291H91V354.861H139.847Z" fill="#1F242C"/>
<path fill-rule="evenodd" clip-rule="evenodd" d="M598.251 327.93H603.678C603.678 300.953 581.808 279.082 554.831 279.082V284.51C578.812 284.51 598.251 303.949 598.251 327.93ZM587.396 327.93H592.823C592.823 306.947 575.814 289.937 554.831 289.937V295.365C572.815 295.365 587.396 309.946 587.396 327.93ZM581.969 327.93H576.541C576.541 315.941 566.82 306.22 554.831 306.22V300.792C569.819 300.792 581.969 312.942 581.969 327.93ZM565.686 327.93H571.114C571.114 318.937 563.824 311.647 554.831 311.647V317.075C560.826 317.075 565.686 321.935 565.686 327.93ZM554.831 327.93H560.259C560.259 324.931 557.83 322.502 554.831 322.502V327.93Z" fill="#1F242C"/>
<path fill-rule="evenodd" clip-rule="evenodd" d="M121.428 135H116C116 161.978 137.87 183.848 164.847 183.848V178.42C140.866 178.42 121.428 158.982 121.428 135ZM132.282 135H126.854C126.854 155.982 143.864 172.992 164.847 172.992V167.565C146.863 167.565 132.282 152.984 132.282 135ZM137.712 135.001H143.139C143.139 146.99 152.86 156.71 164.849 156.71V162.138C149.861 162.138 137.712 149.989 137.712 135.001ZM153.993 135H148.566C148.566 143.994 155.855 151.282 164.848 151.282V145.855C158.853 145.855 153.993 140.995 153.993 135ZM164.848 135.001H159.42C159.42 137.999 161.849 140.428 164.848 140.428V135.001Z" fill="white"/>
<path d="M66.8472 230.235H115.694V279.082C88.7172 279.082 66.8472 257.212 66.8472 230.235Z" fill="#1F242C"/>
<path d="M442.847 35V83.8472H394C394 56.87 415.87 35 442.847 35Z" fill="#1F242C"/>
<path fill-rule="evenodd" clip-rule="evenodd" d="M169.972 34.847H164.542V83.6942H169.972V34.847ZM186.256 34.8471H191.687V83.6943H186.256V34.8471ZM202.541 34.8471H197.111V83.6943H202.541V34.8471ZM213.388 34.8471H207.958V83.6943H213.388V34.8471ZM175.402 34.8471H180.832V83.6943H175.402V34.8471Z" fill="#4038FF"/>
<path fill-rule="evenodd" clip-rule="evenodd" d="M23.4301 132.54H18V181.388H23.4301V132.54ZM39.7155 132.54H45.1456V181.388H39.7155V132.54ZM55.9999 132.54H50.5698V181.388H55.9999V132.54ZM66.8478 132.54H61.4177V181.388H66.8478V132.54ZM28.8612 132.54H34.2914V181.388H28.8612V132.54Z" fill="#1F242C"/>
<path fill-rule="evenodd" clip-rule="evenodd" d="M414.696 425.624H409.266V474.472H414.696V425.624ZM430.982 425.624H436.412V474.472H430.982V425.624ZM447.267 425.624H441.836V474.472H447.267V425.624ZM458.114 425.624H452.684V474.472H458.114V425.624ZM420.128 425.624H425.558V474.472H420.128V425.624Z" fill="#4038FF"/>
<path fill-rule="evenodd" clip-rule="evenodd" d="M364.805 170.738C367.58 169.183 375.768 169.752 378.085 170.323C381.582 171.185 385.479 172.397 387.463 175.893C388.788 178.228 388.41 181.222 388.39 183.634C388.379 184.986 388.368 186.267 388.59 187.47C388.707 187.441 388.827 187.405 388.899 187.384C392.92 186.191 397.66 187.887 400.426 191.508C401.398 192.78 401.059 193.746 400.869 194.103C400.715 194.392 400.489 194.624 400.199 194.792C399.905 194.962 399.603 195.031 399.346 195.076C395.256 195.792 391.477 195.769 387.792 195.002C383.804 194.173 380.606 192.594 378.287 190.309C375.941 187.998 374.583 184.853 374.558 181.945C373.485 182.3 372.43 182.851 371.336 183.422C369.353 184.458 367.303 185.529 364.865 185.56C362.697 185.587 360.634 184.772 358.535 183.862C353.955 181.876 348.692 179.441 344.198 175.666C343.24 174.86 342.284 173.937 341.785 172.641C341.209 171.15 341.442 169.639 341.613 168.535C342.052 165.683 342.827 162.579 345.246 161.183C345.435 161.074 345.634 160.975 345.837 160.892C346.767 160.507 347.764 160.435 348.644 160.372C349.489 160.311 350.288 160.253 350.836 159.937C350.904 159.898 350.968 159.855 351.027 159.808C351.461 159.47 351.747 158.865 352.008 158.138C356.201 160.255 364.805 170.738 364.805 170.738Z" fill="black" stroke="black" stroke-width="1.37573"/>
<path fill-rule="evenodd" clip-rule="evenodd" d="M346.395 162.197C344.042 163.167 343.343 166.189 342.938 168.837C342.77 169.934 342.612 171.098 343.026 172.171C343.403 173.144 344.196 173.892 344.988 174.558C349.169 178.07 354.075 180.415 358.973 182.542C360.842 183.354 362.784 184.154 364.749 184.131C368.876 184.084 372.052 180.472 376.149 180.156C375.318 183.297 376.779 186.943 379.191 189.319C381.604 191.695 384.808 192.964 387.977 193.626C391.724 194.409 395.397 194.338 399.044 193.703C399.293 193.659 399.571 193.596 399.692 193.37C399.855 193.064 399.635 192.665 399.41 192.371C397.025 189.252 392.837 187.751 389.377 188.774C388.814 188.94 388.121 189.132 387.674 188.682C387.451 188.457 387.364 188.131 387.301 187.823C386.573 184.223 387.785 180.291 385.95 177.065C384.253 174.079 380.684 173.001 377.507 172.215C374.917 171.574 372.071 170.961 369.84 172.21C368.413 173.008 367.47 174.453 366.38 175.69C363.958 178.44 359.799 180.255 356.543 178.097C353.607 176.151 352.896 171.912 353.606 168.55C353.699 168.114 353.842 167.639 354.221 167.446C354.746 167.18 355.381 167.59 355.95 167.849C357.59 168.597 348.132 161.48 346.395 162.197Z" fill="black"/>
<path fill-rule="evenodd" clip-rule="evenodd" d="M384.69 176.036C384.799 176.174 384.938 176.281 384.945 176.472L384.934 176.443C386.73 179.757 386.25 183.295 386.583 186.744C386.692 187.873 386.667 188.898 387.382 189.95C387.764 190.512 389.581 192.152 389.397 192.471C389.359 192.537 386.978 192.36 386.123 192.21C380.464 191.214 378.817 188.433 378.817 188.433C376.509 185.611 377.107 183.004 377.397 182.539C378.77 180.344 384.629 178.743 384.813 178.426C384.951 178.19 383.008 176.507 380.69 176.192C379.91 176.027 379.497 176.602 379.186 177.047C377.617 179.286 376.959 179.379 374.622 180.3C373.135 180.886 368.361 175.579 369.25 173.553C370.022 171.794 370.216 171.984 371.906 172.03C372.991 172.06 375.889 172.02 378.557 172.786C381.44 173.613 384.085 175.275 384.69 176.036Z" fill="#C4C3C6"/>
<ellipse cx="382.994" cy="179.53" rx="3.56982" ry="4.94274" transform="rotate(-30 382.994 179.53)" fill="black"/>
<path fill-rule="evenodd" clip-rule="evenodd" d="M381.65 176.658C378.13 178.094 377.111 179.41 374.97 180.281C373.608 180.836 375.05 172.217 376.279 172.206C377.069 172.199 380.209 172.213 382.471 173.163C384.732 174.113 384.949 175.099 385.983 176.552C384.043 175.993 382.478 176.32 381.65 176.658Z" fill="white"/>
<path fill-rule="evenodd" clip-rule="evenodd" d="M397.205 193.755C394.417 194.368 391.537 191.844 389.845 190.224C389.248 189.651 389.519 189.191 390.344 189.15C393.406 189 396.864 189.837 399.085 192.472C399.33 192.762 397.73 193.64 397.205 193.755Z" fill="#C4C3C6"/>
<path fill-rule="evenodd" clip-rule="evenodd" d="M353.114 169.455C353.087 169.547 353.061 169.639 353.034 169.73C353.025 169.799 353.011 169.858 353.009 169.935L353.114 169.455Z" fill="#D796A0"/>
<path fill-rule="evenodd" clip-rule="evenodd" d="M357.095 164.288C356.167 163.086 354.356 161.667 352.592 161.635C351.602 161.617 351.445 162.049 349.102 162.305C348.494 162.372 348.248 162.431 347.692 162.484C345.39 162.702 344.135 164.005 343.63 166.277C343.317 167.682 342.832 169.034 342.733 170.507C342.649 171.933 343.351 172.954 344.375 173.902C346.842 176.187 358.342 182.223 362.922 183.96C364.054 184.389 364.864 183.965 364.893 183.843C365.064 183.132 364.311 183.098 363.898 182.84C361.158 181.131 358.31 179.645 355.611 177.845C354.542 177.132 353.806 176.311 353.346 175.394C353.012 174.73 352.978 173.5 352.862 171.064C352.801 169.804 352.803 169.049 352.914 168.155C352.944 167.913 353.045 167.159 353.337 166.235C353.337 166.235 353.747 164.933 354.561 164.194C354.739 164.033 354.921 163.915 355.062 163.983C355.103 164.002 355.2 164.066 355.259 164.355C355.36 164.846 355.169 165.244 355.157 165.391C355.064 166.523 355.322 167.36 355.863 167.837C356.468 168.369 357.276 168.262 358.264 168.12C359.096 168.001 360.156 167.66 360.116 167.357C360.095 167.204 359.799 167.115 359.65 167.061C358.439 166.622 357.841 165.253 357.095 164.288Z" fill="#C4C3C6"/>
<path fill-rule="evenodd" clip-rule="evenodd" d="M353.726 163.621C351.851 163.693 351.214 170.062 351.273 171.322C351.352 173.029 345.4 174.863 344.369 173.908C343.347 172.961 342.646 171.94 342.731 170.514C342.833 169.041 343.319 167.688 343.633 166.282C344.141 164.009 345.397 162.704 347.698 162.483C348.254 162.43 348.5 162.371 349.108 162.303C351.451 162.045 351.609 161.612 352.598 161.629C352.607 161.629 352.616 161.629 352.625 161.63C353.456 162.275 353.741 162.327 354.301 163.289L353.726 163.621Z" fill="white"/>
<path fill-rule="evenodd" clip-rule="evenodd" d="M328.095 225.006C340.615 221.25 334.672 210.773 336.153 209.179C338.388 206.772 341.081 204.201 344.749 204.164C347.2 204.14 349.422 205.764 351.339 206.845C352.413 207.452 353.431 208.026 354.49 208.381C354.518 208.274 354.543 208.163 354.558 208.096C355.385 204.364 358.836 201.336 362.951 200.73C364.396 200.518 365.018 201.215 365.218 201.524C365.381 201.775 365.467 202.057 365.472 202.362C365.477 202.671 365.399 202.943 365.321 203.168C364.083 206.744 362.392 209.746 360.149 212.345C357.723 215.157 355.047 217.008 352.197 217.848C349.314 218.696 346.202 218.39 343.87 217.124C343.678 218.137 343.651 219.221 343.623 220.346C343.603 221.16 348.108 220.319 348.629 221.25C349.411 222.647 346.257 225.834 345.624 227.009C344.686 228.749 341.52 231.248 339.864 232.518C336.252 235.292 330.424 238.139 325.422 240.052C324.355 240.46 323.195 240.814 321.94 240.64C320.495 240.44 319.391 239.586 318.586 238.963C316.504 237.353 314.369 233.861 314.325 231.316C314.321 231.117 314.331 230.915 314.354 230.716C314.458 229.805 314.842 228.979 315.181 228.249C315.506 227.549 315.814 226.886 315.804 226.31C315.803 226.239 315.797 226.168 315.786 226.101C315.708 225.606 315.351 225.111 314.886 224.581C318.432 222.174 328.095 225.006 328.095 225.006Z" fill="black" stroke="black" stroke-width="1.37573"/>
<path fill-rule="evenodd" clip-rule="evenodd" d="M315.672 230.838C315.408 233.144 317.51 235.04 319.444 236.535C320.245 237.155 321.105 237.796 322.143 237.941C323.086 238.071 324.034 237.77 324.914 237.433C329.563 235.655 333.6 232.78 337.46 229.817C338.933 228.686 340.429 227.492 341.278 225.915C343.063 222.603 341.583 218.47 343.14 215.064C345.28 217.118 348.834 217.567 351.795 216.695C354.757 215.823 357.183 213.831 359.11 211.597C361.39 208.955 362.955 205.995 364.058 202.806C364.134 202.588 364.206 202.338 364.079 202.142C363.907 201.876 363.492 201.875 363.158 201.924C359.616 202.445 356.569 205.12 355.857 208.332C355.741 208.855 355.589 209.492 355.031 209.649C354.754 209.727 354.455 209.653 354.181 209.566C350.987 208.552 348.386 205.845 345.001 205.879C341.869 205.911 339.433 208.28 337.403 210.465C335.748 212.246 334.002 214.244 334.013 216.577C334.021 218.068 334.757 219.46 335.263 220.876C336.388 224.026 336 228.146 332.84 229.787C329.991 231.266 326.295 229.956 323.925 227.901C323.618 227.634 323.303 227.31 323.316 226.922C323.335 226.385 323.943 226.06 324.401 225.722C325.722 224.745 315.867 229.136 315.672 230.838Z" fill="black"/>
<path fill-rule="evenodd" clip-rule="evenodd" d="M343.623 206.429C343.782 206.402 343.928 206.339 344.084 206.418L344.055 206.414C347.493 206.449 350.105 208.399 353.003 209.661C353.952 210.074 354.76 210.547 355.915 210.443C356.531 210.387 358.643 209.665 358.816 209.953C358.852 210.012 357.659 211.832 357.162 212.447C353.869 216.519 350.922 216.601 350.922 216.601C347.651 217.192 345.835 215.561 345.592 215.123C344.447 213.057 345.756 207.676 345.585 207.389C345.457 207.174 343.256 207.978 341.981 209.687C341.505 210.236 341.782 210.82 342 211.265C343.094 213.508 342.7 214.618 342.403 216.889C342.214 218.334 336.049 219.248 334.824 217.641C333.761 216.247 334 216.176 334.782 214.849C335.285 213.997 336.532 211.669 338.321 209.88C340.255 207.947 342.749 206.574 343.623 206.429Z" fill="#C4C3C6"/>
<ellipse cx="345.66" cy="209.328" rx="3.25541" ry="4.50749" transform="rotate(-91 345.66 209.328)" fill="black"/>
<path fill-rule="evenodd" clip-rule="evenodd" d="M342.749 209.532C342.263 213.268 342.897 214.772 342.6 217.043C342.411 218.488 335.694 213.184 336.286 212.11C336.666 211.419 338.215 208.696 340.14 207.176C342.065 205.656 343.02 205.931 344.777 205.715C343.347 207.139 342.863 208.654 342.749 209.532Z" fill="white"/>
<path fill-rule="evenodd" clip-rule="evenodd" d="M363.287 204.295C362.545 206.79 359.26 207.968 357.22 208.6C356.499 208.823 356.252 208.403 356.584 207.727C357.815 205.219 360.01 202.832 363.093 202.227C363.433 202.161 363.427 203.826 363.287 204.295Z" fill="#C4C3C6"/>
<path fill-rule="evenodd" clip-rule="evenodd" d="M324.591 228.839C324.593 228.841 324.595 228.842 324.598 228.844C324.599 228.845 324.601 228.846 324.603 228.846L324.591 228.839Z" fill="#D796A0"/>
<path fill-rule="evenodd" clip-rule="evenodd" d="M322.065 221.478C320.696 221.686 318.764 222.502 317.959 223.895C317.508 224.676 317.784 224.993 316.953 226.974C316.738 227.489 316.676 227.711 316.473 228.178C315.631 230.11 316.117 234.442 317.707 235.851C318.69 236.723 319.555 237.708 320.686 238.44C321.787 239.137 322.912 239.03 324.12 238.634C327.033 237.678 336.926 232.683 340.335 229.8C341.177 229.087 341.197 228.253 341.113 228.176C340.62 227.725 336.359 227.259 331.851 226.257C331.392 226.155 329.347 227.259 327.594 228.01C325.841 228.761 323.968 227.009 323.305 226.524C323.125 226.393 322.568 225.979 321.959 225.338C321.959 225.338 321.101 224.434 320.871 223.458C320.821 223.245 320.808 223.047 320.924 222.964C320.958 222.94 321.051 222.891 321.308 222.972C321.744 223.109 321.978 223.438 322.089 223.512C322.952 224.088 323.734 224.253 324.353 224.032C325.045 223.785 325.316 224.847 325.639 223.996C325.911 223.28 326.107 222.284 325.848 222.182C325.716 222.131 325.515 220.574 325.405 220.669C324.521 221.44 323.164 221.311 322.065 221.478Z" fill="#C4C3C6"/>
<path fill-rule="evenodd" clip-rule="evenodd" d="M333.145 227.624C333.145 227.624 326.842 230.474 325.885 231.113C325.352 231.468 323.71 235.691 323.71 235.691C323.71 235.691 323.842 231.38 323.194 228.396C322.818 226.665 323.21 226.798 324.148 227.226C324.828 227.537 325.645 228.118 327.378 227.703C331.507 226.716 333.9 224.146 334.35 224.927C334.354 224.935 335.258 226.239 335.262 226.246C335.266 226.254 338.307 228.296 337.818 229.186L333.145 227.624Z" fill="white"/>
<ellipse rx="10.2671" ry="8.13853" transform="matrix(-0.999848 0.0174524 0.0174524 0.999848 363.331 224.149)" fill="black"/>
<ellipse rx="9.39061" ry="7.6377" transform="matrix(-0.999848 0.0174524 0.0174524 0.999848 363.235 221.733)" fill="#C4C3C6"/>
<ellipse rx="41.1348" ry="41.5594" transform="matrix(-0.981627 -0.190809 -0.190809 0.981627 338.935 188.304)" fill="black"/>
<path fill-rule="evenodd" clip-rule="evenodd" d="M324.695 151.204C319.613 150.724 302.441 155.967 309.048 168.427C315.655 180.887 308.744 173.839 315.514 189.308C317.936 194.844 318.998 193.969 327.624 205.307C336.251 216.645 333.065 227.555 344.683 225.922C349.642 225.225 355.23 223.361 360.484 223.195C365.737 223.03 370.327 225.944 370.996 225.092C373.276 222.186 366.043 214.028 367.22 210.451C369.866 202.416 370.236 193.621 370.606 188.261C371.098 181.127 364.869 176.445 365.065 175.439C366.17 169.748 361.615 163.023 354.959 157.392C352.775 155.544 347.299 154.693 342.8 153.144C327.837 152.759 329.778 151.683 324.695 151.204Z" fill="#C4C3C6"/>
<path fill-rule="evenodd" clip-rule="evenodd" d="M356.813 193.428C356.463 193.411 356.247 189.704 355.602 190.265C354.533 191.195 353.472 190.988 352.784 191.072C352.412 191.118 352.087 193.641 351.7 193.711C348.079 194.364 344.872 196.16 343.606 200.143C342.735 202.887 340.228 214.153 338.796 215.071C341.813 215.14 342.89 216.096 352.316 212.126C357.237 210.053 353.131 208.976 354.164 207.235C356.38 203.5 358.893 199.93 360.088 198.677C360.556 198.187 363.268 210.791 363.686 206.025C364.104 201.259 363.978 193.773 356.813 193.428Z" fill="white"/>
<path fill-rule="evenodd" clip-rule="evenodd" d="M355.885 195.421C349.308 195.845 346.509 196.461 344.124 201.045C342.725 203.734 340.377 214.087 338.843 214.729C346.707 214.193 350.123 208.57 355.673 207.695C361.224 206.821 362.604 209.491 365.271 210.755C363.352 208.642 363.968 202.259 362.606 199.403C361.244 196.547 359.004 195.22 355.885 195.421Z" fill="black"/>
<path fill-rule="evenodd" clip-rule="evenodd" d="M332.644 204.16C329.877 203.383 330.24 206.059 332.531 210.246C333.482 211.984 333.621 213.849 333.783 215.098C336.687 208.917 340.199 201.181 340.699 199.617C338.256 202.732 335.411 204.937 332.644 204.16Z" fill="black"/>
<path fill-rule="evenodd" clip-rule="evenodd" d="M323.917 191.916C323.917 191.916 329.781 214.652 331.97 219.49C332.878 221.498 334.892 217.184 334.417 209.62C333.944 202.097 329.58 196.228 329.58 196.228L323.917 191.916Z" fill="black"/>
<path fill-rule="evenodd" clip-rule="evenodd" d="M310.349 176.215C306.67 171.967 306.429 167.011 307.472 165.094C308.859 168.671 309.259 169.812 312.008 172.509C314.756 175.205 316.635 175.625 319.47 176.865C317.4 177.59 311.117 177.101 310.349 176.215Z" fill="black"/>
<path fill-rule="evenodd" clip-rule="evenodd" d="M355.077 194.723C352.555 194.578 354.261 190.623 355.67 189.374C356.473 190.949 357.599 194.869 355.077 194.723Z" fill="black"/>
<path fill-rule="evenodd" clip-rule="evenodd" d="M341.474 198.219C343.19 191.669 344.412 189.555 346.184 190.822C344.098 192.936 343.136 196.317 341.474 198.219Z" fill="black"/>
<path fill-rule="evenodd" clip-rule="evenodd" d="M368.412 199.081C366.167 199.278 365.715 194.112 361.211 193.491C362.696 194.764 364.917 197.239 366.249 200.217C367.686 203.429 368.168 207.185 367.856 209.501C367.841 208.995 370.288 206.522 370.525 205.994C370.93 205.095 371.57 201.402 371.174 201.915C370.913 202.254 369.545 202.966 369.26 203.029C369.214 202.025 370.657 198.885 368.412 199.081Z" fill="black"/>
<path fill-rule="evenodd" clip-rule="evenodd" d="M354.007 188.321C352.915 185.2 348.669 189.029 347.762 190.973C350.12 191.458 355.099 191.442 354.007 188.321Z" fill="black"/>
<path fill-rule="evenodd" clip-rule="evenodd" d="M359.634 187.841C358.812 185.489 355.896 188.34 355.217 190.067C356.787 190.34 360.456 190.192 359.634 187.841Z" fill="black"/>
<path fill-rule="evenodd" clip-rule="evenodd" d="M358.127 179.453C354.747 176.611 358.751 177.962 361.476 175.777C356.848 175.917 355.163 175.547 353.476 174.757C351.789 173.967 348.301 169.813 347.24 167.742C347.819 172.24 349.391 174.053 352.727 177.758C355.543 180.886 358.713 181.436 360.424 183.396C363.37 188.676 359.732 189.614 357.496 190.021C360.884 189.808 362.678 188.691 363.169 187.95C363.539 187.389 364.503 186.158 363.301 184.277C362.186 182.535 358.946 180.142 358.127 179.453Z" fill="black"/>
<path fill-rule="evenodd" clip-rule="evenodd" d="M330.785 185.923C327.64 186.07 323.888 186.08 320.905 183.981C317.923 181.881 320.305 178.605 322.009 177.216C325.155 174.651 327.383 178.64 335.303 177.475C342.743 176.381 337.581 185.605 330.785 185.923Z" fill="white"/>
<path fill-rule="evenodd" clip-rule="evenodd" d="M333.781 154.098C337.87 154.605 344.53 157.549 349.089 158.944C363.807 163.446 353.449 155.317 347.28 153.262C342.465 151.658 335.363 151.229 329.502 151.549C329.434 152.453 331.299 152.486 333.781 154.098Z" fill="white"/>
<path fill-rule="evenodd" clip-rule="evenodd" d="M333.701 154.572C332.594 149.736 317.969 149.24 312.38 155.896C310.597 158.019 309.755 160.199 308.333 164.807C310.378 163.736 306.998 165.45 315.296 161.212C323.594 156.974 333.552 158.427 333.701 154.572Z" fill="white"/>
<path fill-rule="evenodd" clip-rule="evenodd" d="M363.478 176.305C361.739 175.579 359.232 175.926 357.404 177.159C356.332 177.883 355.448 179.448 363.066 181.536C363.544 181.667 365.302 182.469 366.298 182.313C368.42 182.01 366.388 177.52 363.478 176.305Z" fill="white"/>
<path fill-rule="evenodd" clip-rule="evenodd" d="M350.6 179.111C350.256 179.819 349.858 180.54 351.858 181.514C353.857 182.488 354.602 182.633 356.329 181.902C356.823 181.514 356.228 180.248 354.458 179.192C350.929 177.085 347.611 168.088 346.594 168.299C345.597 168.505 344.922 172.356 349.566 177.062C349.643 177.14 350.944 178.404 350.6 179.111Z" fill="white"/>
<path fill-rule="evenodd" clip-rule="evenodd" d="M358.155 214.326C354.767 214.706 350.88 216.611 347.227 220.203C343.575 223.794 351.83 222.571 358.404 221.204C364.978 219.838 365.335 223.271 366.781 222.201C369.886 219.966 363.823 213.69 358.155 214.326Z" fill="white"/>
<path fill-rule="evenodd" clip-rule="evenodd" d="M358.606 212.038C359.975 212.295 362.779 213.72 365.451 216.979C363.208 214.799 356.198 213.834 351.752 216.606C353.478 213.463 356.316 211.606 358.606 212.038Z" fill="black"/>
<path fill-rule="evenodd" clip-rule="evenodd" d="M323.685 172.162C323.685 172.162 328.776 170.659 331.368 169.45C334.311 168.078 335.153 166.231 337.253 164.693C339.352 163.155 339.507 166.974 339.507 166.974C339.507 166.974 338.434 177.016 334.244 178.377C331.662 179.216 326.738 177.608 323.266 172.962C323.008 172.617 323.685 172.162 323.685 172.162Z" fill="white"/>
<path fill-rule="evenodd" clip-rule="evenodd" d="M339.5 167.122C340.372 170.947 337.935 174.981 333.786 176.329C329.726 177.648 325.481 175.924 323.854 172.47C323.774 172.467 323.695 172.464 323.615 172.461C325.256 176.09 329.664 177.892 333.851 176.532C338.13 175.142 340.653 170.945 339.683 166.968C339.622 167.019 339.561 167.071 339.5 167.122ZM339.444 166.891C339.504 166.841 339.564 166.79 339.623 166.739C339.595 166.639 339.565 166.54 339.533 166.441C338.192 162.314 333.473 160.165 329.005 161.616C324.537 163.068 321.983 167.581 323.324 171.707C323.383 171.89 323.449 172.069 323.521 172.244C323.6 172.247 323.678 172.251 323.757 172.253C323.671 172.055 323.594 171.851 323.526 171.642C322.227 167.642 324.699 163.239 329.071 161.819C333.443 160.398 338.031 162.507 339.33 166.506C339.372 166.634 339.41 166.763 339.444 166.891Z" fill="black"/>
<path fill-rule="evenodd" clip-rule="evenodd" d="M354.968 170.725C352.282 170.63 349.791 169.922 347.688 168.771C347.951 173.013 350.834 176.401 354.469 176.529C358.018 176.655 361.402 173.372 362.137 172.054C362.873 170.736 362.056 167.585 359.367 167.757C357.541 167.599 355.503 167.205 353.401 166.566C351.075 165.858 348.31 162.09 347.166 164.151C346.021 166.212 349.162 167.894 352.405 168.88C354.109 169.399 356.666 170.785 354.968 170.725Z" fill="white"/>
<path fill-rule="evenodd" clip-rule="evenodd" d="M355.198 174.996C357.934 175.091 361.604 171.807 361.099 169.841C360.734 168.42 356.757 168.541 355.419 168.494C352.229 168.383 349.266 167.638 346.747 166.432C346.747 166.432 348.481 174.761 355.198 174.996Z" fill="black"/>
<path fill-rule="evenodd" clip-rule="evenodd" d="M336.203 174.982C333.073 176.073 328.505 176.569 328.505 176.569C328.505 176.569 330.763 177.026 331.623 177.032C338.104 177.072 341.213 177.886 341.712 180.503C342.036 182.837 336.272 186.99 338.463 188.865C340.654 190.739 345.902 190.875 346.34 190.921C344.772 189.321 343.986 187.464 344.73 185.599C345.474 183.734 346.026 182.602 348.565 182.152C348.429 182.328 346.009 181.142 344.637 178.946C343.088 176.466 343.261 173.647 341.568 172.851C339.874 172.055 339.332 173.892 336.203 174.982Z" fill="black"/>
<path fill-rule="evenodd" clip-rule="evenodd" d="M345.543 186.63C346.131 182.92 349.008 182.536 349.896 181.834C347.485 182.374 345.311 182.617 344.125 184.378C342.867 186.246 342.353 189.168 346.44 190.575C346.063 189.755 345.191 188.856 345.543 186.63Z" fill="white"/>
<path fill-rule="evenodd" clip-rule="evenodd" d="M335.949 165.196C338.91 162.243 338.126 160.246 336.894 159.838C335.662 159.431 335.713 162.662 333.745 164.477C331.745 166.303 330.539 166.604 328.757 167.43C330.122 168.055 332.831 168.197 335.949 165.196Z" fill="black"/>
<path fill-rule="evenodd" clip-rule="evenodd" d="M351.113 165.578C347.65 163.719 346.422 160.003 347.691 159.56C348.959 159.117 350.102 162.59 352.521 163.728C354.944 164.849 356.16 164.651 358.171 164.801C356.962 166.031 354.6 167.355 351.113 165.578Z" fill="black"/>
<path fill-rule="evenodd" clip-rule="evenodd" d="M229.237 245.549C232.994 246.004 236.434 245.8 239.752 244.923C243.344 243.976 246.181 242.382 248.184 240.188C250.211 237.969 251.3 235.038 251.185 232.387C252.178 232.658 253.165 233.11 254.188 233.577C256.042 234.425 257.959 235.302 260.18 235.212C262.155 235.132 263.995 234.29 265.863 233.359C269.939 231.328 274.616 228.856 278.529 225.199C279.363 224.419 280.19 223.531 280.583 222.326C281.037 220.94 280.754 219.574 280.546 218.576C280.012 215.999 279.16 213.209 276.892 212.053C276.714 211.963 276.528 211.883 276.34 211.817C275.476 211.511 274.564 211.494 273.76 211.478C272.988 211.464 272.257 211.45 271.744 211.188C271.68 211.156 271.62 211.12 271.564 211.08C271.048 210.72 270.726 209.966 270.386 209.091L270.146 208.472C268.074 203.122 271.409 208.184 267.224 204.34C266.78 203.933 272.516 206.996 272.461 206.882C272.498 206.846 266.664 203.5 266.755 203.427C267.494 202.837 268.373 202.362 269.303 201.859C270.918 200.986 266.058 189.708 268.383 187.644C268.384 187.679 268.385 187.714 268.385 187.747C268.388 187.867 268.391 187.985 268.396 188.102C268.521 190.952 270.011 193.13 271.453 195.236C272.01 196.05 272.536 196.819 272.984 197.62C273.318 198.22 273.612 198.849 273.923 199.515C274.442 200.626 274.979 201.775 275.733 202.813C276.901 204.424 278.464 205.673 280.802 206.864C281.804 207.375 282.857 207.83 283.875 208.269C284.871 208.699 285.9 209.144 286.859 209.632C287.656 210.038 288.332 210.438 288.927 210.854C289.238 211.072 289.542 211.304 289.863 211.55C290.552 212.078 291.265 212.623 292.092 213.044L292.171 213.084C295.574 214.771 303.64 220.813 307.32 219.708C311.536 218.442 310.287 220.415 314.229 218.275C316.953 216.796 317.512 216.672 318.682 213.103C319.027 212.052 318.772 211.399 318.48 211.028C318.762 210.674 310.397 202.776 306.972 206.347L301.452 207.327C300.993 207.806 297.561 205.085 297.077 205.299C295.797 205.867 293.025 205.113 291.068 204.116C290.844 204.002 290.637 203.887 290.455 203.777C290.378 203.73 290.298 203.653 290.276 203.631C290.185 203.53 290.144 203.41 290.128 203.365C290.088 203.249 285.651 191.662 280.711 184.679C278.823 182.011 276.628 178.698 270.361 178.067C264.094 177.436 259.795 178.354 256.845 182.276C255.634 183.887 255.632 186.671 255.565 188.394C255.289 195.437 255.723 205.706 259.351 214.636C259.967 216.15 260.791 217.86 262.237 219.055C262.561 219.324 262.916 219.557 263.292 219.749C264.823 220.529 266.513 220.553 267.928 219.816C268.018 219.769 268.11 219.718 268.203 219.666C268.263 219.633 268.335 219.592 268.406 219.555C268.412 219.575 268.417 219.597 268.424 219.621C269.079 222.077 268.832 225.427 266.742 226.977C264.794 228.421 262.419 227.474 261.489 227C260.663 226.579 259.88 226.002 259.223 225.329C258.982 225.083 258.748 224.825 258.514 224.568C257.692 223.665 258.473 222.164 257.298 221.566L257.234 221.533C254.635 220.251 249.508 221.336 247.426 221.968C244.283 222.922 240.792 224.215 239.151 227.496C238.054 229.688 238.54 232.397 238.672 234.594C238.746 235.826 238.816 236.992 238.671 238.099C238.562 238.078 238.452 238.052 238.385 238.036C234.668 237.143 230.433 238.917 228.085 242.35C227.261 243.556 227.614 244.42 227.805 244.736C227.958 244.992 228.175 245.193 228.447 245.331C228.722 245.472 229.001 245.52 229.237 245.549Z" fill="black" stroke="black" stroke-width="1.37573"/>
<path fill-rule="evenodd" clip-rule="evenodd" d="M289.362 204.573C289.362 204.573 289.541 204.771 289.783 204.918C291.544 205.986 295.394 207.421 297.483 206.495C298.197 206.178 298.774 205.583 299.331 205.003C300.207 204.09 301.084 203.176 301.961 202.262C304.887 199.212 307.357 210.271 303.22 211.513C299.89 212.513 295.886 213.448 292.761 211.899C291.635 211.341 290.692 210.475 289.661 209.753C285.499 206.842 279.763 206.153 276.733 201.976C275.622 200.443 274.991 198.569 274.06 196.901C272.423 193.969 269.783 191.441 269.629 187.948C269.604 187.378 269.643 186.775 269.405 186.28C269.167 185.784 268.51 185.479 268.068 185.845C267.87 186.009 267.764 186.262 267.647 186.495C266.28 189.225 262.927 189.942 260.58 191.815C260.309 192.031 260.039 192.28 259.911 192.608C259.587 193.438 260.293 194.2 260.897 194.754C265.041 198.561 267.136 204.241 269.238 209.658C269.609 210.614 270.021 211.615 270.83 212.181C272.234 213.164 274.257 212.483 275.872 213.054C278.061 213.828 278.843 216.549 279.34 218.942C279.545 219.934 279.745 220.988 279.419 221.985C279.124 222.889 278.437 223.609 277.749 224.253C274.113 227.651 269.759 230.02 265.404 232.19C263.742 233.018 262.013 233.839 260.223 233.911C256.463 234.064 253.398 230.922 249.654 230.828C250.562 233.651 249.408 237.043 247.326 239.322C245.244 241.602 242.389 242.909 239.537 243.662C236.163 244.553 232.816 244.662 229.466 244.255C229.237 244.228 228.981 244.183 228.861 243.982C228.697 243.712 228.878 243.338 229.069 243.059C231.089 240.104 234.829 238.538 238.028 239.307C238.549 239.432 239.188 239.574 239.574 239.142C239.766 238.927 239.83 238.626 239.872 238.342C240.361 235.026 239.068 231.501 240.583 228.474C241.984 225.673 245.181 224.522 248.035 223.655C250.361 222.949 252.923 222.256 255.014 223.288C256.352 223.948 257.28 225.22 258.331 226.296C260.668 228.688 264.541 230.145 267.401 228.024C269.98 226.112 270.423 222.216 269.614 219.185C269.509 218.792 269.356 218.366 269.002 218.208C268.511 217.99 267.953 218.394 267.448 218.657C265.99 219.417 264.241 219.002 263.041 218.009C261.842 217.017 261.098 215.542 260.492 214.051C257.352 206.323 256.463 196.94 256.798 188.353C256.859 186.793 257.01 185.115 257.962 183.849C260.334 180.695 264.737 180.38 268.092 180.32C270.841 180.272 272.243 179.77 273.597 180.144C274.642 180.433 276.676 181.229 279.702 185.506C284.355 192.083 288.708 203.152 288.962 203.881C288.99 203.962 289.094 204.276 289.362 204.573Z" fill="black"/>
<path fill-rule="evenodd" clip-rule="evenodd" d="M279.776 187.602C277.436 184.431 276.773 183.246 276.09 182.488C274.283 180.482 266.584 179.954 265.635 180.333C264.811 180.663 264.696 181.147 265.238 181.796C265.502 182.113 265.839 184.674 265.839 184.674C265.839 184.674 269.684 189.25 271.849 190.055C275.378 191.368 280.382 188.423 279.776 187.602Z" fill="#C4C3C6"/>
<path fill-rule="evenodd" clip-rule="evenodd" d="M266.544 185.642C267.586 184.93 268.653 184.466 269.691 184.175C273.766 183.035 277.4 184.567 277.356 184.289C277.356 184.289 275.393 179.961 270.16 179.229C264.927 178.496 259.919 179.74 259.289 181.76C259.206 182.027 261.366 180.73 266.544 185.642Z" fill="white"/>
<path fill-rule="evenodd" clip-rule="evenodd" d="M317.31 213.183C317.569 213.215 313.444 210.064 310.872 209.228C309.692 208.844 308.439 208.767 307.222 208.931C305.38 209.18 303.512 209.365 301.728 210.099C299.978 210.818 299.51 212.675 300.841 213.848C301.814 214.706 303.129 215.052 304.216 215.738C304.688 215.867 305.159 215.996 305.631 216.125C312.383 217.611 313.198 217.277 315.493 217.097C316.526 217.017 317.351 216.316 317.479 216.2C317.648 216.044 317.914 215.954 317.917 215.701C317.919 215.404 317.618 215.398 317.415 215.382C316.169 215.283 312.251 214.953 312.365 214.651C311.503 214.45 307.51 213.68 306.633 213.539C306.322 213.433 312.038 213.547 312.394 213.659C312.953 213.724 315.271 213.604 316.506 213.44C317.23 213.344 317.1 213.157 317.31 213.183Z" fill="#C4C3C6"/>
<path fill-rule="evenodd" clip-rule="evenodd" d="M310.758 209.223C309.573 208.853 308.312 208.788 307.084 208.963C305.593 209.175 304.085 209.346 302.615 209.792C303.372 210.504 307.88 210.503 310.863 211.421C312.812 212.021 315.471 213.503 315.727 213.531C316.242 213.477 317.587 213.258 317.317 212.837C316.625 211.758 312.615 209.803 310.758 209.223Z" fill="white"/>
<path fill-rule="evenodd" clip-rule="evenodd" d="M302.18 212.283C303.519 213.111 304.714 214.058 306.337 214.648C307.082 214.918 307.937 215.019 308.816 214.982C309.882 214.937 310.953 214.915 312.05 214.736C311.665 214.293 308.563 214.064 306.686 213.391C305.46 212.951 303.914 211.972 303.743 211.943C302.445 211.959 302.76 212.044 302.653 211.965C302.38 211.764 302.048 211.801 301.701 211.972C301.911 212.028 302.019 212.184 302.18 212.283Z" fill="white"/>
<path fill-rule="evenodd" clip-rule="evenodd" d="M240.472 237.324C240.428 238.358 240.499 239.292 239.899 240.284C239.579 240.814 238.004 242.395 238.187 242.677C238.224 242.735 240.383 242.461 241.154 242.283C246.258 241.109 247.623 238.496 247.623 238.496C249.587 235.815 249.636 233.814 250.008 232.082C249.258 231.773 247.079 230.927 245.619 230.263C245.116 230.138 240.208 228.636 240.502 233.102C240.507 233.175 240.53 235.995 240.472 237.324ZM247.563 229.057C248.743 230.174 249.848 230.372 251.616 230.966C252.998 231.429 256.522 226.288 255.615 224.483C254.827 222.917 254.659 223.1 253.124 223.221C252.137 223.3 249.498 223.4 247.106 224.224C245.891 224.643 244.733 225.226 243.794 225.803C243.946 225.829 244.103 225.882 244.262 225.963C246.067 226.883 247.359 228.133 247.563 229.057Z" fill="#C4C3C6"/>
<path fill-rule="evenodd" clip-rule="evenodd" d="M245.193 228.319C245.285 228.351 248.323 229.706 248.417 229.712C250.166 229.835 252.649 223.366 251.369 223.392C250.527 223.41 246.388 223.785 244.051 224.815C241.715 225.845 241.559 226.847 240.569 228.347C241.642 228.016 242.622 227.939 243.441 227.987C244.167 228.03 244.767 228.171 245.193 228.319Z" fill="white"/>
<path fill-rule="evenodd" clip-rule="evenodd" d="M247.901 236.711C247.901 236.711 241.177 236.651 240.749 239.138C240.321 241.626 238.422 242.504 238.488 242.642C238.499 242.665 240.178 242.597 241.467 242.343C246.701 241.315 247.916 236.57 247.901 236.711Z" fill="white"/>
<path fill-rule="evenodd" clip-rule="evenodd" d="M265.804 191.173L262.287 187.224C262.287 187.224 260.245 184.842 258.366 184.013C257.664 186.139 257.155 194.52 257.891 201.471C258.416 206.426 260.042 211.048 260.553 210.378C261.358 209.32 262.034 202.894 266.085 196.657C266.531 195.97 265.804 191.173 265.804 191.173Z" fill="#C4C3C6"/>
<path fill-rule="evenodd" clip-rule="evenodd" d="M231.142 244.216C233.709 244.642 236.208 242.206 237.67 240.65C238.187 240.1 237.918 239.693 237.165 239.695C234.371 239.702 231.263 240.629 229.368 243.135C229.159 243.411 230.658 244.135 231.142 244.216Z" fill="#C4C3C6"/>
<path fill-rule="evenodd" clip-rule="evenodd" d="M270.165 220.196C270.165 220.199 270.166 220.201 270.166 220.204C270.166 220.206 270.166 220.207 270.166 220.209L270.165 220.196Z" fill="#D796A0"/>
<path fill-rule="evenodd" clip-rule="evenodd" d="M266.232 215.466C267.02 214.327 268.599 212.948 270.204 212.835C271.104 212.772 271.268 213.159 273.413 213.281C273.97 213.313 274.197 213.355 274.705 213.377C276.811 213.467 278.016 214.595 278.585 216.641C278.937 217.908 279.444 219.117 279.606 220.454C279.75 221.75 279.16 222.714 278.275 223.626C276.139 225.825 265.962 231.869 261.876 233.668C260.866 234.113 260.109 233.765 260.076 233.656C259.886 233.015 260.57 232.949 260.934 232.694C263.346 231.007 265.866 229.518 268.236 227.75C269.176 227.049 269.805 226.267 270.18 225.41C270.452 224.789 270.424 223.667 270.412 221.44C270.407 220.289 270.369 219.601 270.224 218.792C270.185 218.573 270.057 217.891 269.748 217.062C269.748 217.062 269.311 215.895 268.535 215.261C268.365 215.122 268.193 215.024 268.068 215.091C268.032 215.111 267.947 215.174 267.907 215.44C267.839 215.892 268.032 216.246 268.049 216.379C268.189 217.407 267.995 218.182 267.525 218.642C266.999 219.156 266.259 219.096 265.353 219.013C264.59 218.944 263.609 218.683 263.631 218.406C263.642 218.265 263.907 218.17 264.041 218.113C265.121 217.656 265.6 216.38 266.232 215.466Z" fill="#C4C3C6"/>
<path fill-rule="evenodd" clip-rule="evenodd" d="M269.271 214.705C270.981 214.68 271.861 220.452 271.867 221.603C271.876 223.162 277.381 224.546 278.275 223.626C279.16 222.714 279.75 221.75 279.606 220.454C279.444 219.117 278.937 217.908 278.585 216.641C278.016 214.595 276.811 213.467 274.705 213.377C274.197 213.355 273.97 213.313 273.413 213.281C271.268 213.159 271.104 212.772 270.204 212.835C270.196 212.836 270.187 212.836 270.179 212.837C269.453 213.465 269.196 213.526 268.732 214.43L269.271 214.705Z" fill="white"/>
<path fill-rule="evenodd" clip-rule="evenodd" d="M290.687 204.456C290.18 204.699 287.667 206.797 287.689 207.627C287.723 208.905 290.564 209.007 291.057 208.945C291.336 209.407 290.401 209.611 290.752 210.042C291.071 210.435 291.526 210.21 291.885 210.014C292.626 209.608 293.366 209.182 294.054 208.679C294.693 208.212 295.264 207.634 296.096 206.902C294.91 206.729 291.799 203.924 290.687 204.456Z" fill="#C4C3C6"/>
<path fill-rule="evenodd" clip-rule="evenodd" d="M290.952 204.391C290.467 204.909 290.1 205.417 290.108 205.737C290.142 207.015 292.983 207.116 293.476 207.054C293.614 207.282 293.456 207.448 293.303 207.608C293.146 207.773 292.993 207.933 293.171 208.151C293.49 208.544 293.945 208.319 294.304 208.123C294.706 207.904 295.107 207.678 295.5 207.437C295.685 207.268 295.882 207.09 296.096 206.902C295.615 206.832 294.817 206.328 293.964 205.79C292.864 205.096 291.672 204.344 290.952 204.391Z" fill="white"/>
<path fill-rule="evenodd" clip-rule="evenodd" d="M297.24 212.412C297.863 212.002 298.912 212.106 298.939 210.871C298.222 210.767 298.087 211.808 297.279 211.605C297.464 211.014 298.482 210.105 297.031 209.836C296.659 209.767 296.804 209.133 297.172 208.756C297.578 208.339 297.937 207.871 298.211 207.282C297.286 207.999 297.653 207.062 296.729 207.781C296.012 208.339 294.003 210.549 293.293 211.119C293.112 211.264 293.352 211.479 293.527 211.579C294.9 211.35 295.961 212.29 297.24 212.412Z" fill="#C4C3C6"/>
<ellipse cx="261.187" cy="251.482" rx="10.7751" ry="8.26374" transform="rotate(14 261.187 251.482)" fill="black"/>
<ellipse cx="261.625" cy="249.294" rx="9.85525" ry="7.51249" transform="rotate(22 261.625 249.294)" fill="#C4C3C6"/>
<ellipse cx="291.994" cy="219.471" rx="40.5924" ry="41.5019" transform="rotate(2 291.994 219.471)" fill="black"/>
<path fill-rule="evenodd" clip-rule="evenodd" d="M315.973 187.907C315.973 187.907 337.151 197.987 327.449 209.189C317.746 220.391 332.578 212.556 321.998 226.802C318.212 231.9 318.045 226.82 304.405 236.499C290.765 246.179 291.038 259.37 278.903 257.383C275.564 256.836 268.398 254.216 262.864 251.208C257.329 248.2 253.537 251.952 253.055 250.921C251.411 247.407 260.736 240.759 260.378 236.817C259.574 227.963 261.275 218.868 262.164 213.291C263.348 205.868 270.825 202.543 270.863 201.466C271.078 195.378 277.327 189.564 285.465 185.368C288.135 183.991 293.935 184.413 298.902 183.888C314.295 187.026 315.973 187.907 315.973 187.907Z" fill="#C4C3C6"/>
<path fill-rule="evenodd" clip-rule="evenodd" d="M279.113 247.376C275.055 246.685 270.445 243.782 269.939 243.052C275.092 243.001 287.489 236.084 290.854 235.815C282.006 239.66 283.17 248.067 279.113 247.376Z" fill="black"/>
<path fill-rule="evenodd" clip-rule="evenodd" d="M268.352 243.013C271.868 244.837 275.991 245.35 280.387 241.898C282.489 240.248 294.047 234.197 295.858 234.166C287.891 230.458 287.615 237.337 271.377 232.909C270.573 232.689 268.475 234.746 265.93 235.317C265.251 235.469 267.84 227.738 265.558 228.959C263.276 230.179 261.541 239.48 268.352 243.013Z" fill="white"/>
<path fill-rule="evenodd" clip-rule="evenodd" d="M266.49 230.517C269.3 232.205 278.652 233.004 282.923 233.484C285.428 233.765 293.952 233.795 295.57 234.381C289.653 230.631 290.273 233.536 277.24 226.85C276.422 226.431 275.49 226.3 273.481 226.366C273.21 226.374 272.894 225.301 271.829 224.901C269.206 223.915 265.922 224.537 264.246 223.899C263.189 223.497 264.465 225.273 264.918 226.133C265.749 227.706 266.839 229.292 266.522 229.692C265.671 230.768 264.229 229.16 266.49 230.517Z" fill="white"/>
<path fill-rule="evenodd" clip-rule="evenodd" d="M268.317 239.719C271.542 241.847 275.573 241.355 279.977 239.416C282.56 238.279 294.285 233.94 296.103 234.195C287.991 231.088 289.048 234.424 278.592 230.766C277.818 230.496 273.478 228.548 273.078 226.627C272.757 227.465 272.735 228.262 273.146 228.673C271.492 228.542 270.676 228.632 268.106 227.28C265.536 225.929 265.425 224.857 263.31 222.861C264.303 225.081 264.282 229.045 264.099 231.159C263.787 234.757 263.643 236.635 268.317 239.719Z" fill="black"/>
<path fill-rule="evenodd" clip-rule="evenodd" d="M296.472 233.2C295.887 231.066 293.972 230.79 292.492 230.635C293.755 231.921 294.177 232.318 294.363 233.796C294.549 235.274 293.925 235.938 293.304 237.087C294.963 236.528 297.058 235.334 296.472 233.2Z" fill="black"/>
<path fill-rule="evenodd" clip-rule="evenodd" d="M317.555 213.146C321.558 213.517 322.011 215.321 330.6 206.475C333.08 203.92 332.009 208.91 329.512 215.007C326.734 221.79 320.569 232.061 317.419 234.596C315.279 236.318 293.119 244.837 308.726 232.338C324.333 219.84 318.021 216.536 317.555 213.146Z" fill="black"/>
<path fill-rule="evenodd" clip-rule="evenodd" d="M276.264 221.933C274.322 220.457 273.19 224.421 273.472 226.219C275.013 225.57 278.205 223.409 276.264 221.933Z" fill="black"/>
<path fill-rule="evenodd" clip-rule="evenodd" d="M276.924 219.57C278.873 216.518 282.506 221.647 283.004 223.94C280.341 223.873 274.976 222.622 276.924 219.57Z" fill="black"/>
<path fill-rule="evenodd" clip-rule="evenodd" d="M271.255 217.88C272.652 215.665 274.959 219.271 275.245 221.2C273.574 221.11 269.857 220.094 271.255 217.88Z" fill="black"/>
<path fill-rule="evenodd" clip-rule="evenodd" d="M267.864 217.244C268.19 218.118 269.761 219.685 273.175 220.702C270.87 219.709 268.413 217.393 270.993 213.645C267.722 213.955 267.319 215.78 267.864 217.244Z" fill="black"/>
<path fill-rule="evenodd" clip-rule="evenodd" d="M270.257 217.52C270.206 217.507 270.156 217.489 270.106 217.468C269.395 217.163 269.047 216.191 269.329 215.297C269.604 214.425 270.377 213.949 271.075 214.208C270.848 214.565 270.652 214.985 270.504 215.452C270.277 216.173 270.201 216.894 270.257 217.52Z" fill="white"/>
<path fill-rule="evenodd" clip-rule="evenodd" d="M300.166 211.801C303.395 212.506 307.202 213.515 309.654 216.457C312.106 219.399 308.8 222.078 306.695 223.025C302.808 224.775 301.634 220.12 293.289 219.151C285.45 218.241 293.191 210.278 300.166 211.801Z" fill="white"/>
<path fill-rule="evenodd" clip-rule="evenodd" d="M310.181 185.607C312.649 181.848 290.305 179.884 282.686 183.907C278.133 186.312 275.061 190.106 277.78 191.676C280.389 193.183 297.916 183.452 299.588 185.403C299.62 185.44 299.419 185.759 298.985 186.359C298.78 186.643 298.212 187.401 298.212 187.401C298.212 187.401 295.665 190.846 295.993 193.987C296.897 193.369 305.613 187.413 310.181 185.607Z" fill="black"/>
<path fill-rule="evenodd" clip-rule="evenodd" d="M296.242 191.314C296.023 189.22 294.072 188.043 292.316 188.264C290.285 188.52 288.174 188.899 286.026 189.446C273.092 192.739 283.271 185.206 288.721 183.652C292.974 182.439 298.92 182.656 303.714 183.532C303.618 184.474 298.473 187.373 296.242 191.314Z" fill="white"/>
<path fill-rule="evenodd" clip-rule="evenodd" d="M327.097 195.73C329.901 192.734 312.756 182.425 303.742 187.149C299.856 189.186 289.595 197.81 301.156 193.573C312.716 189.337 325.298 199.522 327.097 195.73Z" fill="white"/>
<path fill-rule="evenodd" clip-rule="evenodd" d="M270.559 205.283C272.509 204.95 274.991 205.897 276.568 207.592C277.493 208.586 278.028 210.397 269.743 210.738C269.223 210.76 267.237 211.166 266.255 210.771C264.156 209.96 267.296 205.841 270.559 205.283Z" fill="white"/>
<path fill-rule="evenodd" clip-rule="evenodd" d="M282.152 212.019C282.445 212.838 283.131 214.317 281.597 214.712C280.063 215.107 277.892 215.003 275.886 213.81C273.88 212.618 274.947 211.772 277.345 211.126C280.03 210.404 286.936 203.412 286.936 203.412C286.936 203.412 290.365 198.286 291.328 197.391C292.543 196.261 290.483 206.467 283.824 210.16C283.714 210.222 281.859 211.2 282.152 212.019Z" fill="white"/>
<path fill-rule="evenodd" clip-rule="evenodd" d="M264.518 244.07C267.453 245.103 270.497 247.655 272.961 251.73C275.424 255.805 268.337 253.012 262.781 250.424C257.224 247.835 256.15 250.959 255.097 249.674C252.823 246.971 259.608 242.343 264.518 244.07Z" fill="white"/>
<path fill-rule="evenodd" clip-rule="evenodd" d="M294.647 251.621C295.938 250.862 296.636 249.104 296.777 247.432C296.859 246.451 296.645 243.954 297.051 243.421C295.639 244.944 294.678 247.174 292.536 248.48C290.339 249.818 286.964 250.214 285.854 250.321C287.921 251.961 292.487 252.892 294.647 251.621Z" fill="black"/>
<path fill-rule="evenodd" clip-rule="evenodd" d="M260.218 233.492C260.297 232.634 255.476 241.66 255.108 242.818C254.892 243.497 255.085 245.702 254.685 246.062C257.634 242.01 261.124 241.276 262.876 241.188C261.509 239.993 259.947 236.426 260.218 233.492Z" fill="black"/>
<path fill-rule="evenodd" clip-rule="evenodd" d="M294.191 208.315C295.566 203.784 300.073 201.046 304.469 202.142C308.835 203.231 311.522 207.709 310.665 212.321C310.732 212.372 310.798 212.423 310.864 212.474C311.804 207.717 309.05 203.054 304.523 201.925C299.965 200.789 295.311 203.66 293.944 208.359C294.026 208.344 294.108 208.329 294.191 208.315ZM294.121 208.554C294.04 208.569 293.958 208.584 293.877 208.6C293.866 208.642 293.855 208.685 293.845 208.728C292.619 213.644 295.404 218.582 300.08 219.748C304.756 220.914 309.533 217.861 310.759 212.945C310.778 212.869 310.796 212.793 310.813 212.717C310.748 212.666 310.683 212.616 310.617 212.565C310.594 212.674 310.569 212.782 310.542 212.891C309.343 217.698 304.679 220.664 300.134 219.531C295.588 218.398 292.863 213.589 294.062 208.782C294.081 208.706 294.1 208.63 294.121 208.554Z" fill="white"/>
<path fill-rule="evenodd" clip-rule="evenodd" d="M293.624 208.642C293.798 208.334 294.082 208.063 294.466 207.834C295.005 207.511 295.734 207.276 296.605 207.141C298.346 206.871 300.633 207.002 303.052 207.605C305.47 208.208 307.552 209.166 308.962 210.222C309.667 210.75 310.2 211.3 310.525 211.838C310.708 212.141 310.824 212.438 310.869 212.724C310.948 212.758 311.028 212.792 311.106 212.826C311.075 212.461 310.939 212.09 310.717 211.722C310.372 211.152 309.816 210.582 309.096 210.043C307.656 208.965 305.546 207.997 303.106 207.388C300.665 206.78 298.347 206.644 296.57 206.92C295.682 207.058 294.923 207.3 294.351 207.642C293.906 207.908 293.57 208.237 293.378 208.628C293.46 208.632 293.541 208.637 293.624 208.642ZM293.521 208.86C293.443 208.856 293.365 208.851 293.288 208.848C293.273 208.891 293.26 208.935 293.249 208.98C293.112 209.529 293.249 210.108 293.594 210.679C293.939 211.249 294.495 211.819 295.215 212.358C296.654 213.436 298.765 214.404 301.205 215.012C303.645 215.621 305.963 215.757 307.74 215.481C308.629 215.343 309.387 215.101 309.959 214.759C310.532 214.417 310.924 213.97 311.061 213.421C311.09 213.306 311.107 213.189 311.112 213.072C311.038 213.04 310.964 213.008 310.89 212.976C310.891 213.109 310.876 213.24 310.844 213.367C310.726 213.841 310.383 214.245 309.845 214.567C309.305 214.889 308.577 215.124 307.706 215.26C305.965 215.53 303.677 215.398 301.259 214.795C298.84 214.192 296.759 213.235 295.349 212.179C294.643 211.65 294.11 211.101 293.785 210.563C293.461 210.026 293.348 209.508 293.466 209.034C293.481 208.975 293.499 208.917 293.521 208.86Z" fill="white"/>
<path fill-rule="evenodd" clip-rule="evenodd" d="M271.487 204.104C271.762 203.385 272.502 202.81 273.561 202.456C274.772 202.051 276.372 201.947 278.073 202.247C279.773 202.547 281.242 203.192 282.241 203.986C283.067 204.642 283.558 205.388 283.62 206.117C283.697 206.147 283.773 206.178 283.849 206.209C283.824 205.357 283.267 204.516 282.38 203.811C281.346 202.989 279.842 202.332 278.112 202.027C276.382 201.722 274.743 201.825 273.491 202.243C272.361 202.621 271.523 203.265 271.245 204.118C271.325 204.113 271.406 204.108 271.487 204.104ZM271.417 204.332C271.339 204.336 271.262 204.341 271.185 204.346C271.182 204.362 271.179 204.377 271.176 204.392C271.002 205.382 271.586 206.384 272.616 207.203C273.65 208.025 275.154 208.682 276.884 208.987C278.614 209.292 280.253 209.189 281.506 208.77C282.753 208.353 283.645 207.612 283.82 206.622C283.83 206.564 283.837 206.506 283.843 206.448C283.77 206.418 283.698 206.389 283.624 206.359C283.621 206.434 283.613 206.509 283.599 206.583C283.446 207.454 282.65 208.152 281.435 208.558C280.224 208.963 278.624 209.067 276.923 208.767C275.223 208.467 273.755 207.822 272.755 207.028C271.752 206.23 271.243 205.302 271.397 204.431C271.403 204.398 271.409 204.365 271.417 204.332Z" fill="white"/>
<path fill-rule="evenodd" clip-rule="evenodd" d="M273.551 201.474C275.268 197.725 278.997 195.652 282.307 196.727C285.537 197.777 287.328 201.489 286.654 205.425C286.72 205.483 286.785 205.542 286.849 205.601C287.601 201.534 285.781 197.621 282.376 196.515C278.887 195.381 275.013 197.609 273.289 201.513C273.376 201.499 273.463 201.486 273.551 201.474ZM273.445 201.714C273.358 201.727 273.271 201.741 273.185 201.756C273.085 202 272.992 202.251 272.909 202.507C271.444 207.017 273.271 211.693 277.046 212.919C280.82 214.145 285.047 211.437 286.512 206.927C286.628 206.57 286.723 206.213 286.799 205.857C286.735 205.797 286.671 205.739 286.607 205.681C286.529 206.072 286.427 206.465 286.3 206.858C284.859 211.29 280.736 213.883 277.115 212.706C273.494 211.53 271.682 207.008 273.122 202.576C273.218 202.28 273.326 201.993 273.445 201.714Z" fill="white"/>
<path fill-rule="evenodd" clip-rule="evenodd" d="M282.64 198.44C285.244 199.286 287.585 203.584 286.447 205.233C285.624 206.425 281.926 204.954 280.653 204.54C277.617 203.553 274.58 203.231 271.805 203.488C271.805 203.488 276.248 196.362 282.64 198.44Z" fill="black"/>
<path fill-rule="evenodd" clip-rule="evenodd" d="M293.825 208.29C295.089 204.775 299.418 202.819 303.863 203.927C308.212 205.012 311.086 208.633 310.709 212.252C310.779 212.296 310.849 212.34 310.919 212.385C311.384 208.594 308.387 204.825 303.918 203.71C299.351 202.572 294.841 204.602 293.579 208.318C293.66 208.308 293.743 208.299 293.825 208.29ZM293.746 208.524C293.665 208.533 293.585 208.542 293.504 208.552C293.477 208.643 293.452 208.736 293.428 208.829C292.421 212.868 295.515 217.083 300.287 218.273C305.058 219.463 309.769 217.193 310.776 213.154C310.82 212.979 310.856 212.804 310.884 212.629C310.816 212.585 310.747 212.541 310.678 212.497C310.649 212.698 310.609 212.9 310.559 213.1C309.591 216.985 305.03 219.225 300.341 218.056C295.651 216.887 292.677 212.767 293.645 208.883C293.675 208.762 293.709 208.642 293.746 208.524Z" fill="black"/>
<path fill-rule="evenodd" clip-rule="evenodd" d="M272.732 205.215C277.432 206.451 279.242 206.47 281.154 206.059C283.066 205.648 284.927 205.452 286.502 203.582C287.001 205.312 285.498 206.302 281.21 209.31C276.922 212.317 272.982 211.502 270.903 214.368C270.914 214.024 271.16 211.883 275.288 209.771C279.416 207.658 275.002 208.096 272.732 205.215Z" fill="black"/>
<path fill-rule="evenodd" clip-rule="evenodd" d="M298.763 210.367C304.031 212.722 306.259 213.81 306.259 213.81C306.259 213.81 293.742 210.368 291.824 214.721C290.941 217.034 294.673 219.268 294.673 219.268C294.673 219.268 298.907 224.378 292.731 223.442C286.554 222.507 285.086 224.354 284.627 224.298C286.609 223.03 287.15 220.93 286.83 218.844C286.51 216.758 285.585 215.877 283.095 214.817C283.193 215.029 287.279 214.361 289.201 212.436C291.371 210.261 294.625 206.079 294.9 206.276C295.133 206.444 293.496 208.012 298.763 210.367Z" fill="black"/>
<path fill-rule="evenodd" clip-rule="evenodd" d="M286.458 220.574C286.72 216.827 284.003 215.805 283.296 214.922C285.523 215.991 287.587 216.716 288.346 218.698C289.152 220.801 288.996 223.764 284.697 224.217C285.249 223.502 286.301 222.823 286.458 220.574Z" fill="white"/>
<path fill-rule="evenodd" clip-rule="evenodd" d="M306.906 198.934C302.717 198.277 300.949 199.888 299.686 201.165C302.817 200.721 303.806 200.555 306.561 201.212C309.316 201.868 310.082 202.816 311.714 204.032C311.825 202.19 311.095 199.59 306.906 198.934Z" fill="black"/>
<path fill-rule="evenodd" clip-rule="evenodd" d="M286.465 194.208C283.492 192.472 281.424 193.415 279.891 194.201C282.516 194.669 283.356 194.794 285.214 196.135C287.072 197.476 287.259 198.528 288.003 200.057C288.884 198.452 289.438 195.944 286.465 194.208Z" fill="black"/>
<path fill-rule="evenodd" clip-rule="evenodd" d="M315.464 228.808C312.823 231.209 308.133 234.614 303.928 236.301C307.52 232.147 307.317 231.156 312.709 226.674C318.102 222.192 315.276 217.425 318.454 216.393C320.498 221.466 319.881 224.79 315.464 228.808Z" fill="white"/>
<circle cx="314" cy="238" r="332" fill="url(#empty_uploads_paint0_radial)"/>
</g>
<defs>
<radialGradient id="empty_uploads_paint0_radial" cx="0" cy="0" r="1" gradientUnits="userSpaceOnUse" gradientTransform="translate(314 238) rotate(90) scale(332)">
<stop stop-opacity="0"/>
<stop offset="0.4375" stop-opacity="0.65"/>
<stop offset="1"/>
</radialGradient>
<clipPath>
<rect width="640" height="480" fill="white"/>
</clipPath>
</defs>
</svg>
