<svg  width="204" height="32" fill="none" xmlns="http://www.w3.org/2000/svg" viewBox="0 0 204 32"><path d="M122.78 12.97c-.79.84-1.18 1.99-1.18 3.42 0 1.44.4 2.59 1.18 3.43a4.03 4.03 0 003.1 1.28c1.26 0 2.29-.43 3.08-1.28.79-.84 1.19-1.99 1.19-3.43 0-1.43-.4-2.58-1.2-3.42a4.03 4.03 0 00-3.08-1.28c-1.27 0-2.3.43-3.09 1.28zM38 7.03h2.9v-2.9H38v2.9zm96.76 16.79V9.34h2.9v1.94h.13l.14-.24a4.56 4.56 0 011.23-1.22 5.29 5.29 0 012.77-.76c.66 0 1.27.1 1.83.28.56.19 1 .4 1.32.67.33.25.6.5.82.76.22.25.36.46.44.65l.14.27h.13l.16-.29a5.72 5.72 0 011.42-1.41 5.97 5.97 0 013.25-.93c1.62 0 2.9.52 3.83 1.55.94 1.04 1.41 2.5 1.41 4.4v8.81h-2.9v-8.67c0-2.3-1-3.46-3.03-3.46-1 0-1.84.38-2.54 1.14a4.07 4.07 0 00-1.04 2.87v8.12h-2.9v-8.67c0-2.3-1.01-3.46-3.03-3.46-1 0-1.84.38-2.54 1.14a4.07 4.07 0 00-1.05 2.87v8.12h-2.9zm-13.92-2.12a7.55 7.55 0 01-1.88-5.3c0-2.18.63-3.95 1.9-5.3a6.18 6.18 0 014.72-2.03c.87 0 1.67.17 2.4.52.74.35 1.26.7 1.57 1.02l.44.53h.14v-1.8h2.9v14.48h-2.9v-2.3H130a6.83 6.83 0 01-1.6 1.45c-.3.19-.72.36-1.24.52a6.25 6.25 0 01-6.31-1.78zm-13.63-6.69h8.28a3.93 3.93 0 00-1.31-2.34 4.06 4.06 0 00-2.83-.98c-1 0-1.88.3-2.66.9a3.9 3.9 0 00-1.48 2.42zm-1.35 6.61a7.21 7.21 0 01-2.06-5.23c0-2.06.69-3.8 2.08-5.2a6.87 6.87 0 015.09-2.12c2 0 3.7.7 5.08 2.11a7.14 7.14 0 012.09 5.21v.97h-11.45c.2 1.15.7 2.05 1.5 2.73.78.67 1.71 1 2.78 1 .86 0 1.62-.16 2.28-.48a3.6 3.6 0 001.36-.98l.36-.47H118c-.04.13-.1.3-.2.5-.09.2-.32.56-.7 1.09-.38.53-.8.99-1.28 1.38a7.86 7.86 0 01-4.85 1.59c-2 0-3.7-.7-5.1-2.1zm-7.61-9.65l-.03 11.85h-2.9l.03-12.38c0-1.16.94-2.1 2.1-2.1h6.45v2.63h-5.65zm-13.52 0V9.34h1.66V6.3h2.9v3.04h4.27v2.63h-4.27v9.22h4.4v2.63h-4.9a2.4 2.4 0 01-2.4-2.4v-9.45h-1.66zM71.1 19.2h3.17l.1.22a4.46 4.46 0 00.93 1.13 4.37 4.37 0 002.41.72c1.02 0 1.75-.15 2.21-.47.46-.31.7-.7.7-1.19 0-.44-.31-.79-.92-1.05-.6-.26-1.34-.47-2.2-.63-.87-.17-1.73-.39-2.6-.65a5 5 0 01-2.2-1.37 3.53 3.53 0 01-.91-2.52c0-1.1.5-2.07 1.51-2.9a6.1 6.1 0 014-1.25 7.8 7.8 0 012.76.46c.81.3 1.42.67 1.82 1.1.4.44.74.87 1 1.3.27.44.44.81.52 1.13l.1.44h-3.03a1.57 1.57 0 00-.08-.2 3.81 3.81 0 00-.84-.98c-.21-.15-.51-.3-.9-.43a4.3 4.3 0 00-1.35-.19c-.8 0-1.42.15-1.84.44-.43.3-.64.67-.64 1.1 0 .38.22.69.65.93.43.25.98.43 1.64.54a20.1 20.1 0 014.25 1.22 3.66 3.66 0 012.29 3.51c0 1.18-.53 2.2-1.59 3.03-1.06.84-2.5 1.26-4.34 1.26a8.2 8.2 0 01-2.91-.48 5.2 5.2 0 01-1.95-1.18c-.44-.46-.8-.92-1.09-1.38a4.16 4.16 0 01-.53-1.16l-.14-.5zM57.44 9.34h3.03l3.1 11.58h1.38l3.38-11.58h3.03l-5.89 19.7h-3.03l1.64-5.22h-1c-1 0-1.86-.66-2.12-1.61L57.44 9.34zm-10.67 3.63c-.8.84-1.2 1.99-1.2 3.42 0 1.44.4 2.59 1.2 3.43a4.03 4.03 0 003.08 1.28c1.27 0 2.3-.43 3.1-1.28.78-.84 1.18-1.99 1.18-3.43 0-1.43-.4-2.58-1.19-3.42a4.03 4.03 0 00-3.09-1.28c-1.26 0-2.3.43-3.08 1.28zm-2.13 8.65a7.1 7.1 0 01-2.1-5.23c0-2.08.7-3.82 2.1-5.22a7.07 7.07 0 015.21-2.1c2.08 0 3.82.7 5.22 2.1a7.1 7.1 0 012.1 5.22 7.1 7.1 0 01-2.1 5.23 7.06 7.06 0 01-5.22 2.1c-2.07 0-3.81-.7-5.2-2.1zm-10.99 7.41v-2.62H38V9.34h2.9v17.3a2.4 2.4 0 01-2.4 2.4h-4.85z" fill="#fff"/><path d="M16.9 0h2.9v13.6c0 3.31-1.24 6.34-3.28 8.64.25-1.1.39-2.25.39-3.43V0zM7.48 23.71a7.79 7.79 0 01-5.95 2.9l.87-2.9h5.08zM9.2 18.5v.3c0 .91-.15 1.79-.44 2.6h-5.7l.86-2.9h5.29zM22.1 0H25v8.4c0 3.31-1.24 6.33-3.28 8.64.25-1.1.39-2.25.39-3.43V0z" fill="#4038FF"/><path d="M14.48 0v18.82c0 7.2-5.85 13.03-13.03 13.03H0l.86-2.9h.59c5.56 0 10.13-4.51 10.13-10.13V0h2.9z" fill="#4038FF"/><path d="M164.7 13.74h1.26c.02.48.19.83.5 1.07.33.23.71.35 1.15.35.42 0 .78-.1 1.1-.28a.9.9 0 00.46-.81.9.9 0 00-.28-.7c-.19-.17-.52-.3-1-.4l-1.18-.23a2.58 2.58 0 01-1.36-.68 1.87 1.87 0 01-.47-1.34c0-.28.06-.54.19-.78.12-.25.3-.47.54-.65.23-.19.5-.33.82-.43a3.56 3.56 0 012.05-.03c.33.09.62.22.87.4a2.25 2.25 0 01.85 1.75h-1.26c-.02-.46-.16-.8-.44-.99-.28-.2-.6-.3-.99-.3s-.72.1-1 .29a.86.86 0 00-.4.73c0 .28.08.5.24.65.16.15.42.27.77.34l1.2.25c.72.15 1.24.4 1.59.73.34.34.52.8.52 1.37 0 .3-.07.58-.2.84a1.9 1.9 0 01-.59.67 3.66 3.66 0 01-2.04.62c-.4 0-.78-.06-1.13-.17-.35-.1-.65-.25-.92-.45-.26-.2-.46-.46-.61-.76-.15-.3-.23-.65-.24-1.06zm6.76-3.8V8.86h1.2V6.48h1.25v2.38h1.64v1.08h-1.64v4.98h1.64V16h-2.89V9.94h-1.2zm5.64 3.68V8.86h1.26v4.62c0 .51.1.92.3 1.23.2.3.57.45 1.1.45.54 0 .96-.2 1.27-.6.31-.4.47-.9.47-1.53V8.86h1.26V16h-1.26v-1.18c-.2.42-.46.75-.79 1-.32.23-.76.35-1.3.35a2.9 2.9 0 01-.92-.14 1.8 1.8 0 01-.73-.45c-.2-.2-.37-.47-.48-.79a3.53 3.53 0 01-.18-1.17zm7.49-1.19c0-.51.05-1 .17-1.45.12-.46.3-.86.52-1.2a2.53 2.53 0 012.13-1.1 2.4 2.4 0 012.28 1.33V6.5h1.27V16h-1.27v-1.16a2.5 2.5 0 01-.9.99c-.37.23-.82.34-1.35.34-.48 0-.9-.1-1.26-.3-.36-.19-.65-.46-.89-.8a3.64 3.64 0 01-.53-1.18 6.01 6.01 0 01-.17-1.46zm1.32 1.1a1.54 1.54 0 00.53 1.18 1.97 1.97 0 001.3.45c.63 0 1.11-.2 1.45-.6.34-.4.5-.91.5-1.53v-1.2c0-.62-.16-1.12-.5-1.52-.34-.41-.82-.61-1.45-.61a2.08 2.08 0 00-1.3.45c-.16.14-.3.31-.39.51-.1.2-.14.42-.14.66v2.22zm7.2-5.73V6.48h1.31V7.8h-1.31zm.02 8.2V8.86h1.26V16h-1.25zm3.07-3.57c0-.54.06-1.04.2-1.5.13-.47.32-.86.59-1.18.27-.33.6-.59 1-.78.4-.18.88-.28 1.42-.28.54 0 1.01.1 1.41.28.4.19.74.45 1 .78.27.32.46.71.6 1.18.13.46.2.96.2 1.5 0 .55-.07 1.06-.2 1.51-.14.46-.33.85-.6 1.18-.26.33-.6.58-1 .77-.4.19-.88.28-1.41.28-.54 0-1.02-.1-1.42-.28-.4-.19-.73-.44-1-.77a3.33 3.33 0 01-.6-1.18c-.13-.45-.19-.96-.19-1.5zm1.33 1.1a1.46 1.46 0 00.56 1.18 2.03 2.03 0 001.32.45 2.03 2.03 0 001.31-.44 1.58 1.58 0 00.56-1.18v-2.22a1.58 1.58 0 00-.56-1.18 2.1 2.1 0 00-2.04-.33c-.22.09-.42.2-.6.34-.16.14-.3.31-.4.51-.1.2-.15.42-.15.66v2.22z" fill="#7B8A95"/></svg>
