<svg xmlns="http://www.w3.org/2000/svg" fill="none" width='552' height='427' viewBox="0 0 522 427">
  <defs/>
  <path fill="#fff" fill-rule="evenodd" d="M125 221h-3.3l-.3-79.8 2.7-6.5.8 86.3zM155.7 133.1h-4.3l-.4-7.2 3.6-6.7 1.1 14zM189.8 117.2h-4.4l-.4-6.2 3.6-6.8 1.2 13zM226.2 101.2H222l-.4-8.4 3.6-6.7 1.1 15.1z" clip-rule="evenodd"/>
  <path fill="#C4C3C6" d="M484 341l-440 1V82.4h27.5v21.8H94V37h39v23.5h82V37h63.3v23.5h29.9V40a3 3 0 013-3h83.3v45.4l46.8-1V58H484V341z"/>
  <path fill="#fff" fill-rule="evenodd" d="M127.4 37l6 .1.2 14.2-5 9.2-1.2-23.5zM477.5 58h6.5v42.5l-6.5 1.5V58zM315.8 83h-3.9l17.5.4v20l-.2-.5c.2 2-116.6-.8-117.3-.2l-20 2-.2-2 15.4-.3c6.7-.1 8.4.8 15.1.7 2.8 0 3.9 1 3.9-1.4V89c0-2.4-1.2-3.4-4-3.3-12.8.1-29.6.6-42.4 1-12.8.2-15-2.9-15-3 4.3-.2 27.2-.3 31.5-.4 3.2 0 4.3-1 4.3-3.8l-.1-12.1c0-2.6-1.2-3.5-4-3.5-5 .1-8.6-1.5-8.6-2.4h.5l33.6-.8c3 0 9.1-.6 12.3-.6h40.1s1.8-13 0-17.1c-1.5-3.2-9.7-4.8-9.7-4.8h13.7V64l-3.5-.2h-15.3c-2.8 0-4 1-4 3.4V80c0 2.7 60.3 3.2 60.3 3.2zm-80.6 3c-2.7 0-3.7 1-3.8 3.5v11.2c0 2.7 1.1 3.7 4 3.7 6.2 0 12.3-1 18.5-1l19 .1c2.6 0 3.7 0 3.7-2.5V89.6l-3.6-3.5-37.8-.2zm51.2-.9c-3 0-4 .9-4 3.6V100c0 2.6 1 2.5 4 2.5 6 0 12.1 1 18.2 1l17.4.2 3.8-3.2.2-11.7c0-2.5-1-3.4-4-3.4l-35.6-.3zm-38-20.2h-.1l-40.3.6c-3 .1-4 1-4 3.5v11.6l4.8 2.1H248.4c3 0 4 0 4-2.6V68.4c0-2.5-1-3.4-3.7-3.5h-.2z" clip-rule="evenodd"/>
  <path fill="#000" fill-rule="evenodd" d="M319 79.6h-3.9c6.4 0 13.8.3 20.1.4l-.6 19.5v.5c.2 2 1.3 2.6 4.2 2.6l18.2.2h3.7v1.5s-149.9-.6-150.5 0h-20l-.3-2c5.2 0 10.3-.2 15.4-.3l20.2-.3c2.7-.1 3.8-1 3.8-3.5V85.6c0-2.4-1.2-3.3-4-3.3l-60.1 1-1.6-2.4c0-.2 31.6-.8 35.9-.9 3.2 0 4.2-1 4.2-3.8V64c-.1-2.5-1.2-3.5-4.1-3.4-5 0-6.8-.3-11.8-.2v-2.2h.5l36.9-.8c3 0 4-1 4-3.5V28.1c0-.9-.1-1.6-.4-2.1h4.4v27.1c0 2.7 1 3.7 4.2 3.7h40.1l3.3-3v6.6h-18.1c-2.8 0-4 1-4 3.4v12.6c0 2.8 1 3.7 4.2 3.7l40 .1c1.3 0 2.2-.2 3-.6H319zm-80.6 3c-2.7 0-3.7 1-3.7 3.5v11.2c0 2.7 1 3.6 4 3.6H257l19 .2c2.6 0 3.7-1 3.7-3.6l.1-11.3-3.7-3.5-37.8-.2zm51.2-.9c-3 0-4 .9-4 3.6v11.3c0 2.6 1 3.5 4 3.5h18.3l19 .2 3.8-3.2.1-11.7c0-2.5-1-3.4-3.9-3.4a4520 4520 0 00-37.3-.3zm-37.9-20.2h-.2l-40.3.6c-2.9 0-4 1-4 3.5V77l4.6 3.8 19.6-.4 20-.2c3.2 0 4.2-1 4.3-3.6V65c0-2.5-1-3.4-3.8-3.5h-.2zM494.3 190c-1.8-1.8-7-3.1-11.1-2.1-4.2 1-8.4 3.2-10.6 6.7-2 2.2-2.1 4.6-.4 7-.5 2.4-.6 4.4-.5 6.7-.6 2 1 3.3 2 4.4 1.3 1.3 1.2 2.3.6 3.7-1.2 1.3-2.3.3-3.5 1.5l-1 .6c-2.1.6-5.2.3-7.3.7-5.7 1-6.4 7.5-9.6 11-2.5 2.9.4 7.3.9 10.4.6 3.7.5 7.5-.3 11.2-.7 3-1.9 6-1.8 9.1 0 3.3 1.5 6.5 1.4 9.7-.2 6.2-8.2 13.6-4 19.6.6.9 1.4 1.5 1.7 2.5.2.9.2 1.8 0 2.7-1.2 5.4-2.5 10.8-2.8 16.3-.3 5.6 1.7 11.3.7 16.9l-.1.8c-1 4.7-2.6 9.3-2.8 14.2-.3 4 11.7 15.1 28 21 16.3 5.8 34.5 1.5 35.1 1.6 11.2 1.6 4-41.2 9.8-75.8 4.3-25.7 2.5-51-3.3-61.2-1.2-4-5.2-5.7-9.1-7.3-4-1.5-6-3.4-9.7-5.5 0-1.8-2.4.2-2-1.6l.1-.1c1.7-.1 1.6-1.4 2-2.4-.7-2 2.4-6.8 2.7-8.7.7-4.3-1.8-10.6-5.1-13.7z" clip-rule="evenodd"/>
  <path fill="#C4C3C6" d="M484.4 258.7c.2 6.6-1.4 12.4-3.8 18.5A186.9 186.9 0 01467 227c-.2-1.2 0-2.9 1.3-3.1a176.4 176.4 0 0010 38.6c.7.7 1.4 0 1.1-.8a292.9 292.9 0 01-7.6-32.3 48 48 0 01-.5-7.1c2.3-1.3 5.8-3.2 7.5-2 .6 5.8 2.5 11.6 3 17.6 0 1.2.3 2.4.6 3.6l.7 1.5c.4 5.2 1.2 10.4 1.4 15.7zM499.6 261.3c-3.8-2-6.3-5.7-9.3-8.8-1.1-1.1-3-1-1.4.7l3.3 3.3 6.6 6.3c.3.2.5.4.6.7a59 59 0 00.2 11.5c.2 1.8.4 3.7-.2 5.4.2-.4-2.6-3.6-3-4.1l-4.9-7.5c-1.7-2.8-4.4-5.5-4.9-8.8-.2-1.8.1-3.6 0-5.3a38 38 0 00-.6-5.5 15 15 0 01-.5-3.4c0-.2 0-.4.2-.5.3-.4 1-.1 1.3.1 3.5 2.4 7.2 4.4 11.2 5.8.7.3 1.6.7 1.9 1.4v1.1c0 2.6-.2 5.1-.5 7.6z"/>
  <path fill="#C4C3C6" d="M459.1 233c-.2 9.5 1.8 19.6 4.2 28.8a180.7 180.7 0 0031.6 61.8c1 1.3 3 3.5 5.1 2.4-.3.2-8.1-11.1-8.8-12.1a150.6 150.6 0 01-24.7-51.2c-2.4-9.8-3.4-19.8-4-29.9-.1-2.1.4-5 2.6-5.3-1.7 18.2 7.2 35.6 15.3 52.2 5.8 12.3 11.5 24.8 18.5 36.5.8 1.5 1.8 3 3.2 4l-7-13a474.4 474.4 0 01-13.8-28.3l1-.1c.3.2 1.5.2 1.6-.1 1.8-4 3-8.1 3.7-12.3a260.8 260.8 0 009.7 14.4c.8 1 2.8 2.9 3 4 2.6 10.6 5 21.3 6 32.1.5 6.8.2 13.5.2 20.3 0 2.6-.1 5.3-.4 8-2.8-3-5.6-6.1-8.3-9.3a146.2 146.2 0 01-27.5-47c1 4.5 7.6 23.8 13.8 33.8 6.4 10.3 14 18.6 17.2 22.2 1 1 1.8 2.1 2.5 3.3 1.7 3.6 1.4 5.8 0 9.5a90.6 90.6 0 01-27-32.3 150.4 150.4 0 01-13-39.4c-3.6-17.5-5.1-35.2-4.7-53z"/>
  <path fill="#fff" d="M464.6 235a144.6 144.6 0 005.3 32.5l1.7 5.3a136.5 136.5 0 0020.1 36.6c1.6 2.2 3.4 3.6 4.1 6.2a24 24 0 003.7 8.3l-8.3-11.3a136.6 136.6 0 01-23.3-47c-2.3-9-3.3-18.2-3.8-27.5-.1-1.1 0-2.3.5-3.3v.1zM477 228.1a163 163 0 013.4 31.6c0 7.2-.4 2.1-1.1.8l-.5-.8v-.1c-2.8-9.3-4.7-18.7-6.5-28.2-.4-2.3-.6-4.7-.6-7l.7-.4c0 1.3 4.4 2.8 4.6 4.1z"/>
  <path fill="#fff" d="M458.9 236v-.4 1.2c-.4 6.8.2 13.7 1 20.5 1.9 18 4.5 36 10.7 53a94 94 0 0031.3 44.2c.8 1.2 1.5 1.2.8 4a98.8 98.8 0 01-32.6-44.8c-6.3-17-8.8-35-10.8-53a96.7 96.7 0 01-.4-24.8z"/>
  <path fill="#fff" fill-rule="evenodd" d="M476 199.2a6 6 0 00-.6 1.2l-.1.8c-.1.7.2 1.4.8 1.8a1.4 1.4 0 001.9-.4l.1-.4c0-.3.1-.5.3-.7l.6-.4.7-.5.1-.3.4-.5h.5l.2.1c.5.1.8-.1 1.2-.4l.8-.4c.6-.1 1.2.2 1.7.5l.7.3c.3.2.6.2 1 .3l1 .3c.7.3.9.9 1 1.5.2.5.4 1 .8 1.3l.3.2c.2.1.5.2.5.5v.5c-.4 1-.9 1.8-1.4 2.6a41 41 0 00-10.6.5 1 1 0 00-1 0c-.4.2-.5.7-.3 1.2l.1.2v.4c0 .2 0 .4.2.5-.2 1 0 2 .8 2.7 2.1 2.8 8 3.6 10.1.4l.5-.8a10 10 0 011.3-1.8c.5-.5 1-1 1.1-1.8 0-.4.2-.8.4-1.2l.2-.2.4-.4v-.5-.3l.5-.7.2-.2c1.4-1.4.3-3.8-.4-5.6a20.6 20.6 0 01-.6-1.4c-.3-.9-.8-2.3-1.7-2.6a2 2 0 00-.6-.1c-.6 0-1-.4-1.4-.7a3 3 0 00-1.3-.6l-.5-.1c0-.2-.2-.3-.3-.5-.3-.4-.6-.3-1-.2l-.4.1H483c-.4.2-.7.5-1 .9a1 1 0 00-1 0l-1 .8-.5.1h-.4l-.7.6c-.8.7-1.3 1.7-1.8 2.6l-.5.8zm7.1 10.1l1 .1 2.3-.3a5 5 0 01-5.3 1.9l-2-.7v-.3l.4-.3c1-.7 2.4-.5 3.6-.4z" clip-rule="evenodd"/>
  <path fill="#fff" d="M508.1 279.4c1.5 2.2 1.2 6.9 1.4 9.5.1 1.1 1 6-.3 6.8-.8.4-2.5-5.8-2.7-6.3-.4-1.5-1-3.1-.8-4.7.3-1.7 1.1-4 2.4-5.3zM453.7 282.2c.3-1.1.5-2.3 1.3-3.2 1-1 2.1-1.8 3.4-2.3l.3-.3.2.2c.7 1 .7 3.1.8 4.2 0 .6.7 2.9-.1 3.6-.5.5-1.7-2.1-1.8-2.3l-.6-1.2-1.2 2c-.4.8-1.8 4.1-3 4.1-.7 0 .6-4.4.7-4.8zM486.2 220v-.8c0-.2.3-.5.5-.6l1.7-1.7c-.3 3.5 1.8 6 5 6.8 3.5 1 7 2 9.5 4.4 2 2 5.3 3.8 6 6.5.3 1.6 2.6 9.6 2.9 16.5.3 10.5-1.6 21-1.7 22.2-.3 1.9-1.7 3.8-3.1.2-1.2-2.9-.5-3.4-.5-6.3v-11c-.4-7.6-.4-18.1-6.5-23.5.6 1.8.8 3.6.9 5.5a84.8 84.8 0 01-.5 9c-.3.3-.7.5-1.1.5-.9 0-1.7-.3-2.5-.7-.7-.4-1.2-1.4-1.8-2l-3.5-4.7c-2-2.8-7.8-10.6-3.8-13.7.5-.4 1-.9 1.2-1.4.5-1.7-2-3-2.7-5.2z"/>
  <path fill="#000" fill-rule="evenodd" d="M455.5 292l-1.2-2.8-1.5-3.9a43.5 43.5 0 01-2.7-8.7c-.6-1.3-1-2.6-1.3-4l-1-3.2c-1.2-3.6-2.3-7.1-3.8-10.6a419.3 419.3 0 01-8.2-21.4c-1.5-4.1-3.3-8.1-5.1-12.2-1.5-3.3-3-6.6-4.2-10-1.7-4.2-3.6-8.3-5.5-12.5-1.8-4-3.6-8-5.2-12-.6-1.6-1.4-2.2-3.1-2h-.2c-2.4.2-3.7.3-4.5 1-.8.6-1.2 1.7-2 4-.8 2.5-1.2 4.7.2 7.2s2.7 5.1 3.6 8.1h-4.4l-9.6-.2-6.6-.2-9.6-.2c-1 0-1.4-.2-1.8-1.1-1.4-3.4-2.7-6.8-3.9-10.3l-2.6-7c-.4-1-.9-1.6-2-1.6l-1.1.1h-2.4c-2.3 0-3.5 1-4 3.2 0 .5-.2.9-.3 1.3l-.3.8c-1 3.4-1.2 6.6.3 10.1 2.9 6.8 5.3 13.7 7.7 20.7 1.2 3.5 2.5 7 3.9 10.4 1.8 4.7 3.7 9.4 5.1 14.2 1 3.5 2.3 7 3.4 10.4l1.9 5.4a31.6 31.6 0 01.8 3l.5 1.3a230.7 230.7 0 013.6 10.5l1 3.2 1.2 3.5c.7 2.6 1.5 5.2 2.5 7.7 4.2 11 7.5 22.2 10.8 33.4l1.7 5.7 4 14.1a931 931 0 005.5 18.7c.8 2.5 1.2 2.6 3.9 2.3 3.1-.4 5-1.9 5.8-5v-.3c2.2-3.2 1.6-6.5.7-10-1-4.1-2.3-8.2-3.6-12.2l-.8-2.5c-.4-1.1-.2-1.5 1-1.6 9-.7 17.9-2.1 26.8-3.6h.4c3.8-.7 3.9-.6 5.2 3.2a269 269 0 015.7 19.5c1.1 4.4 3.4 5.5 7.7 3.5.6-.3.8-.8 1.1-1.3a76 76 0 003.2-7.9c.4-1.3.3-2.5-.1-3.8l-14-45-.2-.8-.4-1.5-.1-.6-.7-2.5a10 10 0 01-1.2-4zm-72.3-70.6a121 121 0 003.7-.1c3.5-.1 7 0 10.5.2 5.2.2 10.3.4 15.5-.1 1-.1 1.8.2 2.2 1.2l4.4 10.3c.4.9.2 1.2-.8 1.2H412l-7.9.5a207.6 207.6 0 01-14.5.6c-.6 0-1.3.2-1.7-.8l-3.4-9.4-1.3-3.6zm10.2 27l-.4.2 1.4 4.5c1 3.2 2 6.4 3.2 9.5.4 1 1 1.1 1.8 1l10.7-.7c4.9-.3 9.8-.6 14.6-1.3l5.1-.5c1 0 1.2-.4.8-1.4l-5.3-12c-.3-.6-.7-.7-1.3-.6-5.1.4-10.2.5-15.4.6a212.5 212.5 0 00-15.2.8zm41.5 26c.2-.1.6 0 .8.7l1.5 3.8c1.2 3.2 2.4 6.4 3.1 9.8.3 1.2 0 1.4-1.1 1.5a211 211 0 00-16.1 2.1c-4.6.8-9 1.5-13.7 1.8h-.4c-.6.1-1.2.2-1.5-.7l-4.3-14.7c-.4-1.1-.3-1.6 1.1-1.7a627.1 627.1 0 0025.7-2.2l4.9-.5zM412.3 307c-.3 0-.7 0-.8.4l.2.5.2.8 1.3 4 3.2 10.3c.2 1 .6 1 1.5.9L430 322c6.1-1 12.2-2 18.4-2.5 1-.1 1.4-.3 1-1.4l-4.2-14.6c-.2-.7-.6-.7-1-.6h-.2c-3.5.5-7 .8-10.6 1.2-7 .7-14 1.4-20.9 2.9h-.3z" clip-rule="evenodd"/>
  <path fill="#000" d="M454.3 289.2l2.3-.9-2.3 1zm1.2 2.8l2.2-.9.1.3v.2l-2.3.4zm-1.2-2.8l-2.2.9 2.2-1zm-1.5-3.9l-2.3.9 2.3-.9zm-2.7-8.7l2.2-1.2.1.4.1.4-2.4.4zm-1.3-4l2.3-.7v.2l-2.3.6zm-1-3.2l2.3-.8-2.4.8zm-3.8-10.6l-2.2 1 2.2-1zm-7.5-19.5l-2.3.8 2.3-.8zm-.7-1.9l-2.3.9 2.3-.9zm-5.1-12.2l2.2-1-2.2 1zm0 0l-2.2 1 2.2-1zm-4.2-10l2.2-.9-2.2 1zm-5.5-12.5l2.2-1-2.2 1zm-5.2-12l-2.3.8 2.3-.9zm-3.1-2l-.2-2.4.2 2.4zm-.2 0l.2 2.4-.2-2.4zm-4.5 1l-1.4-2 1.4 2zm-2 4l2.3.8-2.3-.8zm0 0l2.3.9-2.3-.8zm.2 7.2l-2.1 1.2 2.1-1.2zm3.6 8.1l2.3-.6 1 3.1h-3.4V209zm-4.4 0v2.4-2.4zm-9.6-.2v2.4-2.4zm-6.6-.2l-.1 2.5v-2.5zm0 0v-2.4 2.4zm-9.6-.2v2.4-2.4zm-1.8-1.1l2.3-1-2.3 1zM374 197l2.3-.8-2.3.8zm0 0l-2.3.8 2.3-.8zm-2.6-7l2.3-1-2.3 1zm-2-1.6l.2 2.4-.1-2.4zm-1.1.1l.2 2.4-.2-2.4zm-2.4 0l-.1 2.5.1-2.4zm-4 3.2l-2.3-.4 2.4.4zm-.3 1.3l-2.3-.7 2.3.7zm-.3.8l2.4.7-2.4-.7zm.3 10.1l2.2-1-2.2 1zm7.7 20.7l2.3-.8-2.3.8zm3.9 10.4l2.2-.9-2.2.9zm5.1 14.2l-2.3.8 2.3-.8zm3.4 10.4l2.3-.8-2.3.8zm0 0l-2.2.8 2.3-.8zm1.9 5.4l2.3-.8-2.3.8zm.6 2l-2.4.6 2.4-.6zm.2 1l-2.3.8v-.2l2.3-.6zm.5 1.3l-2.3.8 2.3-.8zm0 0l2.3-.8-2.3.8zm0 0l2.3-.8-2.3.8zm0 0l2.3-.8-2.3.8zm0 0l-2.3.8 2.3-.8zm0 0l2.3-.8-2.3.8zm0 0l2.3-.8-2.3.8zm1 3l2.3-.8-2.3.7zm2.6 7.5l2.3-.8-2.3.8zm1 3.2l2.4-.8-2.3.8zm1.2 3.5l2.3-.7-2.3.7zm0 0l-2.4.7 2.4-.7zm2.5 7.7l-2.3 1 2.3-1zm10.8 33.4l2.3-.7-2.3.7zm0 0l-2.3.7 2.3-.7zm1.7 5.7l-2.4.7 2.4-.7zm4 14.1l-2.3.7 2.4-.7zm0 0l2.4-.7-2.3.7zm0 0l2.4-.7-2.3.7zm0 0l2.4-.7-2.3.7zm5.5 18.7l2.3-.8-2.3.8zm3.9 2.3l.3 2.4-.3-2.4zm5.8-5l2.3.5-2.3-.5zm0 0l-2.4-.5 2.4.5zm0-.3l-2-1.4 2 1.4zm.7-10l2.4-.6-2.4.6zM422 341l2.3-.8-2.3.8zm0 0l-2.3.8 2.3-.8zm-.8-2.5l-2.3.7 2.3-.7zm1-1.6l.2 2.4-.2-2.4zm26.8-3.6l.4 2.4-.4-2.4zm0 0l-.5-2.4.5 2.4zm.4 0l-.4-2.5.4 2.4zm5.2 3.2l-2.3.8 2.3-.8zm5.7 19.5l-2.3.6 2.3-.6zm7.7 3.5l1 2.2-1-2.2zm1.1-1.3l-2.2-1.1 2.2 1zm3.2-7.9l-2.3-.8 2.3.8zm-.1-3.8l-2.3.7 2.3-.7zm-14-45l-2.3.7 2.3-.7zm0 0l2.3-.8-2.3.8zm0 0l-2.3.7 2.3-.7zm0 0l-2.3.7 2.3-.7zm-.2-.8l-2.3.7 2.3-.7zm-.4-1.5l2.4-.5-2.4.5zm0 0l-2.3.6 2.3-.6zm-.1-.6l2.3-.7v.1l-2.3.6zm-.7-2.5l2-1.4.2.4.1.3-2.3.7zm-72.2-74.6l-.2-2.5.2 2.5zm-1.3 0l-2.3.9-1-3.1 3.2-.2.1 2.4zm3.7-.1l-.1-2.5v2.5zm10.5.2v2.4-2.4zm15.5-.1l.2 2.4-.2-2.4zm2.2 1.2l-2.3 1 2.3-1zm4.4 10.3l-2.2 1 2.2-1zm-.8 1.2v-2.5 2.5zm-6.7 0l.1 2.5v-2.4zm-7.9.5l-.1-2.4.1 2.4zm0 0l.2 2.4-.2-2.4zm-14 .5v2.4-2.4zm-.5 0l.3 2.5-.3-2.4zm-1.7-.7l2.3-.8-2.3.8zm-3.4-9.4l-2.2.9 2.2-.9zm0 0l2.3-.8-2.3.8zm0 0l-2.2.9 2.2-.9zm8.5 23.6l-2.3.7-.9-2.6 2.7-.5.5 2.4zm.4-.1l.5 2.3-.5-2.3zm1 4.6l2.3-.8v.1l-2.3.7zm0 0l2.3-.7-2.3.7zm0 0l-2.3.7v-.1l2.3-.6zm3.2 9.5l-2.3.9 2.3-.9zm1.8 1l-.3-2.4.3 2.4zm10.7-.7l.2 2.4-.2-2.4zm0 0l.2 2.4-.2-2.4zm0 0l-.1-2.4.1 2.4zm0 0l.2 2.4h-.1v-2.4zm14.6-1.3l-.3-2.4.3 2.4zm5.1-.5l.2 2.4-.2-2.4zm.8-1.4l-2.2 1 2.2-1zm-5.3-12l2.2-1-2.2 1zm-1.3-.6l.2 2.4-.2-2.4zm-15.4.6v2.5-2.5zm-14.5.6l.2 2.5-.2-2.5zm41.6 26.8l-2.3.8 2.3-.8zm-.8-.8l.4 2.4h-.2l-.2-2.4zm2.3 4.6l2.2-.8-2.2.8zm3.1 9.8l-2.3.5 2.3-.5zm-1.1 1.5l-.3-2.4.3 2.4zm-10.6 1.3l.3 2.4-.3-2.4zm-5.5.8l.4 2.4h-.1l-.3-2.4zm0 0l-.4-2.4.4 2.4zm-13.7 1.8l.2 2.4-.2-2.4zm-.4 0l.4 2.5-.4-2.4zm-1.5-.7l-2.3.7 2.3-.7zm-4.3-14.7l2.3-.7-2.3.7zm1.1-1.7l.2 2.4-.2-2.4zm15.3-1.2l.2 2.4-.2-2.4zm10.4-1l-.2-2.4.2 2.4zm0 0l.3 2.4-.3-2.4zm-18.5 32.6l-2.3.7-.1-.6v-.5l2.4.4zm.8-.4l.1 2.4-.1-2.4zm-.6.9l2.3-.6-2.3.6zm.2.8l2.3-.7-2.3.7zm1.3 4l-2.3.8 2.3-.7zm3.2 10.3l-2.4.7 2.4-.7zm1.5.9l-.3-2.4.3 2.4zM430 322l.4 2.4-.4-2.4zm18.4-2.5l.2 2.4-.2-2.4zm1-1.4l2.4-.7-2.3.7zm-4.2-14.6l-2.3.7 2.3-.7zm-1-.6l.3 2.4-.4-2.4zm-.2 0l.3 2.4-.3-2.4zm-10.6 1.2l-.2-2.4.2 2.4zm-20.9 2.9l.5 2.3-.5-2.3zm44-18.7l1.1 2.8-4.5 1.8-1.1-2.8 4.5-1.8zm0 0l-4.5 1.8 4.5-1.8zm-1.6-3.9l1.6 3.9-4.5 1.8-1.6-3.9 4.5-1.8zm-2.5-8.2c.5 2.7 1.4 5.4 2.5 8.2l-4.5 1.8a46 46 0 01-2.8-9.2l4.8-.8zm-1.3-4c.3 1.3.6 2.3 1 3.2l-4.2 2.3a18 18 0 01-1.6-4.5l4.8-1zm-1.1-3.6l1 3.3-4.6 1.5a395 395 0 01-1-3.3l4.6-1.5zm-3.9-10.7c1.5 3.5 2.7 7.2 3.9 10.7l-4.7 1.5a120 120 0 00-3.6-10.3l4.4-2zm-7.5-19.5c2.4 6.6 4.8 13.1 7.5 19.5l-4.4 1.9c-2.8-6.5-5.2-13.1-7.6-19.7l4.5-1.7zm-.6-1.8l.6 1.8-4.5 1.7-.7-1.8 4.6-1.7zm-5.2-12.4c1.8 4 3.6 8.2 5.2 12.4l-4.6 1.7c-1.5-4-3.2-8-5-12.1l4.4-2zm0 0l-4.4 2 4.4-2zm-4.2-9.9c1.3 3.4 2.8 6.6 4.2 10l-4.4 1.9c-1.5-3.3-3-6.7-4.3-10l4.5-1.9zm-5.5-12.6c2 4.2 3.8 8.3 5.5 12.6l-4.5 1.8a249 249 0 00-5.4-12.4l4.4-2zm-5.2-12c1.6 4 3.4 8 5.2 12l-4.4 2c-1.8-4-3.6-8-5.3-12.2l4.5-1.8zm-5.5-3.4c1-.1 2.3 0 3.4.7s1.7 1.8 2.1 2.7l-4.5 1.8-.2-.4h-.4l-.4-4.8zm-.2 0h.2l.4 4.8h-.2l-.4-4.8zm-5.7 1.4a6 6 0 012.6-1l3-.4.5 4.8-2.6.3-.6.1-3-3.8zm-2.9 5.3l1.1-3a6 6 0 011.8-2.3l3 3.8-.4.6-.9 2.4-4.6-1.5zm0 0l4.6 1.5-4.6-1.5zm.4 9c-1.9-3.3-1.3-6.3-.4-9l4.6 1.6c-.7 2.1-.9 3.5 0 5.1l-4.2 2.4zm3.3 7.7a37 37 0 00-3.3-7.6l4.2-2.4a42 42 0 013.8 8.7l-4.7 1.3zm-2-3.1h4.4v4.9l-4.4-.1v-4.8zm-9.6-.2l9.6.2v4.8c-3.3 0-6.5 0-9.7-.2l.1-4.8zm-6.6-.2l6.6.2v4.8l-6.7-.1.1-4.9zm0 0l-.1 4.9.1-4.9zm-9.6-.2l9.6.2-.1 4.9-9.5-.3V206zm.5.3c0 .1 0 .1 0 0a1.1 1.1 0 00-.6-.3h.1v4.8c-.6 0-1.5 0-2.4-.6a4.2 4.2 0 01-1.6-2l4.5-1.9zm-3.9-10c1.2 3.4 2.4 6.8 3.9 10l-4.5 2c-1.5-3.5-2.8-7-4-10.5l4.6-1.6zm0 0l-4.6 1.5 4.6-1.6zm-2.6-7.3c1 2.4 1.8 4.9 2.6 7.2l-4.6 1.6-2.5-7 4.5-1.8zm-4.3-3c1 0 2 .2 2.8 1 .8.6 1.2 1.4 1.5 2l-4.5 1.8-.2-.3.1.1a1 1 0 00.4.2s.1 0 0 0l-.1-4.8zm-1.3 0h1.3l.2 4.8-1.1.1-.4-4.8zm-2 .2l2-.1.4 4.8c-.8 0-1.8.2-2.7.1l.3-4.8zm-6.5 5c.3-1.3.8-2.8 2-3.8 1.4-1 3-1.3 4.5-1.2l-.3 4.8-1 .1s-.3.3-.5 1l-4.7-.8zm-.3 1l.3-1 4.7 1c0 .6-.3 1.2-.4 1.6l-4.6-1.5zm-.3 1l.3-1 4.6 1.6-.2.7-4.7-1.3zm.4 11.7c-1.9-4.3-1.4-8-.4-11.7l4.7 1.3c-1 3-1.1 5.6.1 8.5l-4.4 1.9zm7.6 20.5c-2.4-7-4.8-13.9-7.6-20.5l4.4-2c3 7 5.4 14 7.8 21l-4.6 1.5zm4 10.5c-1.4-3.5-2.8-7-4-10.5l4.6-1.6 3.8 10.3-4.5 1.8zm5 14c-1.4-4.7-3.2-9.3-5-14l4.4-1.8c1.9 4.7 3.7 9.5 5.3 14.4l-4.7 1.5zm3.5 10.5l-3.5-10.4 4.7-1.5c1 3.5 2.2 6.9 3.3 10.3l-4.5 1.6zm0 0l4.5-1.6-4.5 1.6zm1.8 5.3l-1.8-5.3 4.5-1.6 1.9 5.4-4.6 1.5zm.5 2l-.5-2 4.6-1.5.6 2.2-4.7 1.2zm.3 1l-.3-1 4.7-1.3.3 1-4.7 1.2zm.5 1.4l-.5-1.3 4.6-1.6.5 1.3-4.6 1.6zm0 0l4.6-1.6-4.6 1.6zm0 0l4.6-1.6-4.6 1.6zm0 0l4.6-1.6-4.6 1.6zm0 0l4.6-1.6-4.6 1.6zm0 0l4.6-1.6-4.6 1.6zm0 0l4.6-1.6-4.6 1.6zm1 3l-1-3 4.6-1.6 1 3-4.6 1.5zm2.6 7.4l-2.6-7.5 4.6-1.5 2.6 7.5-4.6 1.5zm1 3.3l-1-3.3 4.6-1.5 1 3.2-4.5 1.6zm1.1 3.4l-1-3.5 4.6-1.4 1 3.5-4.6 1.4zm0 0l4.7-1.3-4.7 1.3zm2.6 8c-1-2.7-1.8-5.4-2.6-8l4.7-1.3 2.4 7.5-4.5 1.7zm10.8 33.1a443.3 443.3 0 00-10.8-33.2l4.5-1.7c4.3 11 7.6 22.3 11 33.5l-4.7 1.4zm0 0l4.6-1.4-4.6 1.4zm1.6 5.7l-1.6-5.7 4.6-1.4 1.7 5.7-4.6 1.4zm4.1 14l-4-14 4.6-1.4 4 14.1-4.6 1.4zm0 0l4.7-1.3-4.7 1.4zm0 0l4.7-1.3-4.7 1.4zm0 0l4.7-1.3-4.7 1.4zm5.5 18.8c-2-6.3-3.7-12.5-5.5-18.7l4.7-1.4c1.8 6.3 3.5 12.5 5.4 18.6l-4.6 1.5zm6.5 4l-2 .1c-.6 0-1.4 0-2.2-.5a4.2 4.2 0 01-1.6-1.7l-.7-2 4.6-1.4.4 1c0 .2 0 0-.3-.1-.2-.2-.3-.1 0-.1l1.2-.1.6 4.8zm7.8-6.9c-.4 2-1.3 3.7-2.8 4.9a9.4 9.4 0 01-5 2l-.6-4.8c1.3-.2 2-.5 2.5-1 .5-.3 1-1 1.2-2l4.7 1zm0 0l-4.7-1 4.7 1zm-.2.5l.2-.5s0-.1 0 0l-4.7-1v-.4l.5-.8 4 2.7zm1-11.9c.8 3.4 1.8 7.7-1 11.9l-4-2.7c1.4-2.2 1.1-4.5.3-8l4.7-1.2zm-3.7-12.4c1.3 4 2.7 8.2 3.7 12.4l-4.7 1.2c-1-4-2.3-8-3.6-12l4.6-1.6zm0 0l-4.6 1.6 4.6-1.6zm-.8-2.5l.8 2.5-4.6 1.6-.8-2.6 4.6-1.5zm-1.1 1.6c-.2 0-.2 0 0 0 0 0 .5-.3.8-.7l.2-1v.1l-4.5 1.5c-.2-.3-.3-.7-.3-1.2s0-1.2.4-2c.4-.7 1-1 1.6-1.2a5 5 0 011.4-.3l.4 4.8zm27-3.6c-9 1.5-17.9 3-27 3.6l-.4-4.8c8.9-.7 17.7-2.1 26.6-3.6l.8 4.8zm0 0l-.9-4.8.9 4.8zm.4 0h-.4l-.8-4.8h.4l.8 4.7zm2.5 1.6l-.7-2c-.2-.4-.2-.2 0 0 .3.1.5 0 .1 0l-2 .3-.7-4.8 2.5-.3c.8 0 1.8 0 2.7.6 1 .6 1.5 1.5 1.8 2.2l.9 2.4-4.6 1.6zm5.7 19.3c-1.6-6.5-3.6-13-5.7-19.3l4.6-1.6c2.1 6.5 4.1 13 5.8 19.7l-4.7 1.2zm11 5c-2.3 1.1-4.8 1.8-7 .7-2.3-1-3.4-3.3-4-5.7l4.7-1.2c.5 2 1 2.4 1.3 2.5.2.1 1 .3 3-.6l2 4.4zm2.3-2.4c-.3.6-.9 1.8-2.3 2.5l-2-4.4h-.2v.1l.1-.3 4.4 2.1zm3.3-8c-1 2.6-2 5.4-3.3 8l-4.4-2.1c1.2-2.4 2.1-5 3-7.6l4.7 1.6zm-.1-5.5c.5 1.6.8 3.4 0 5.4l-4.5-1.6c.2-.6.2-1.3-.1-2.3l4.6-1.5zm-14-45l14 45-4.6 1.5-14-45 4.6-1.4zm0 0l-4.6 1.5 4.6-1.4zm0 0l-4.6 1.5 4.6-1.5zm0 0l-4.6 1.5 4.6-1.4zm-.2-.7l.2.8-4.6 1.4-.2-.8 4.6-1.4zm-.3-1.3l.3 1.3-4.6 1.4-.4-1.6 4.7-1zm0 0l-4.7 1 4.7-1zm-.2-.7l.2.7-4.7 1-.2-.6 4.7-1zm-.7-2.6l.7 2.5-4.7 1.3-.6-2.5 4.6-1.3zm-1.1-3.7c.2 1.5.4 2.3.8 3l-4 2.7c-1.1-1.7-1.4-3.6-1.6-4.9l4.8-.8zm-73.3-67.8h-1.3l-.2-4.8h1.2l.3 4.8zm2.3-.1h-2.3l-.3-4.8h2.5l.1 4.8zm10.4.2c-3.5-.2-7-.3-10.4-.2v-4.9l10.6.2-.2 4.9zm15.8 0c-5.3.4-10.6.2-15.8 0l.2-4.9c5.2.3 10.2.5 15.2 0l.4 4.8zm-.3-.4a.9.9 0 00.5.3h-.2l-.4-4.8c.7 0 1.7 0 2.6.4 1 .5 1.7 1.4 2 2.3l-4.5 1.8zm4.5 10.4l-4.5-10.4 4.5-1.8 4.4 10.3-4.4 1.9zm1.4-2.3c.2 0 .1 0 0 0a2 2 0 00-1.1 1 2 2 0 00-.3 1.2c0 .2 0 .2 0 0l4.4-1.8.4 1.1a3 3 0 01-.4 2 3 3 0 01-1.8 1.3h-1.2v-4.8zm-6.8.1h6.8v4.8h-6.6l-.2-4.8zm-8 .5l8-.5.2 4.9-7.8.4-.3-4.8zm0 0l.4 4.8-.3-4.8zm-13.8.5c4.6 0 9.2-.2 13.9-.5l.3 4.8c-4.7.3-9.4.6-14.2.5v-4.8zm-.9 0h1l-.1 4.8a1.3 1.3 0 00-.2 0l-.7-4.7zm1 .9s0-.2-.2-.3a1.5 1.5 0 00-1-.5h.2l.7 4.8c-.2 0-1 .2-2 0-1-.4-1.9-1.3-2.2-2.4l4.5-1.6zm-3.4-9.4l3.4 9.4-4.5 1.6-3.4-9.3 4.5-1.7zm0 0l-4.5 1.7 4.5-1.7zm0 0l-4.5 1.7 4.5-1.7zm-1.3-3.6l1.3 3.6-4.5 1.7-1.4-3.6 4.6-1.7zm7 25.6l.4-.1 1 4.7-.5.1-.9-4.7zm-.4 7.6l-1.4-4.5 4.6-1.5 1.4 4.5-4.6 1.5zm0-.1l4.6-1.3-4.6 1.3zm0 0l4.6-1.3-4.6 1.3zm3.2 9.8c-1.2-3.2-2.2-6.5-3.2-9.7l4.6-1.5c1 3.3 2 6.4 3.2 9.4l-4.6 1.8zm4.3 2.5c-.5.1-1.5.1-2.4-.3a4 4 0 01-1.9-2.2l4.6-1.8c0 .1 0 0 0 0a1.3 1.3 0 00-.9-.5h.1l.5 4.8zm10.7-.7l-10.7.7-.5-4.8c3.7-.4 7.3-.6 10.9-.7l.3 4.8zm0 0l-.3-4.8.3 4.8zm0 0l-.3-4.8.3 4.8zm-.1 0l-.1-4.9v4.9zM425 264c-5 .8-10 1-14.8 1.3l-.3-4.8c4.9-.3 9.7-.6 14.4-1.3l.7 4.8zm5-.5l-5 .5-.7-4.8 5.2-.5.4 4.8zm2.7-4.7l.4 1.2a3 3 0 01-.3 2 3 3 0 01-1.6 1.3l-1.3.2-.4-4.8c.2 0 .1 0 0 0-.2.1-.7.3-1 .9-.3.5-.2 1-.2 1.1 0 .2 0 .2 0 0l4.4-2zm-5.3-12.1l5.3 12-4.4 2-5.3-12 4.4-2zm-3.7-2a4 4 0 011.8.2c1 .3 1.6 1 1.9 1.8l-4.4 2 .2.3.5.4c.4.1.6 0 .4 0l-.4-4.8zm-15.2.6c5.1 0 10.2-.2 15.2-.7l.4 4.9c-5.2.5-10.4.6-15.5.7l-.1-4.9zm-14.7.6c4.9-.4 9.8-.5 14.7-.6v4.9c-4.8 0-9.6.1-14.3.6l-.4-4.9zm-1 .2l1-.2.4 4.9h-.1-.3l-1-4.7zm40.5 29.8l.5.5c.3.2.8.4 1.4.3l-.8-4.8c1.8-.3 3 1 3.5 2.4l-4.6 1.6zm1.5 3.9l-1.5-4 4.6-1.5 1.4 3.8-4.5 1.7zm3 9.4c-.7-3.1-1.8-6.2-3-9.4l4.5-1.7c1.2 3.2 2.5 6.5 3.3 10l-4.7 1.1zm1-1.4h.3c-.1 0-.5.1-.8.5-.3.4-.4.8-.4 1 0 .1 0 .2 0 0l4.7-1.2c.1.6.5 2.1-.6 3.3-.5.6-1.1 1-1.5 1a6 6 0 01-1.2.3l-.5-4.9zm-10.7 1.3c3.6-.6 7.2-1 10.7-1.3l.5 4.8-10.5 1.3-.7-4.8zm-5.5.8l5.5-.8.7 4.8-5.4.8-.8-4.8zm0 0l.7 4.8-.7-4.8zm-13.4 1.8c4.4-.3 8.8-1 13.4-1.8l.8 4.8c-4.6.8-9.2 1.5-14 1.8l-.2-4.8zm-.7 0h.7l.3 4.8h-.2l-.8-4.7zm1.3 1l-.2-.3c-.2-.3-.5-.4-.8-.5l-.4-.1h.1l.8 4.8c-.2 0-1 .2-2-.1a3.4 3.4 0 01-2.2-2.4l4.7-1.4zm-4.4-14.7l4.4 14.7-4.7 1.4-4.3-14.7 4.6-1.4zm-1 1.4h-.1c.2 0 .6-.3.8-.8.3-.4.2-.8.2-.8l.1.2-4.6 1.4-.3-1.2c0-.5 0-1.2.4-2 .8-1.4 2.5-1.6 3.2-1.6l.3 4.8zm15.3-1.2l-15.3 1.2-.3-4.8 15.2-1.2.4 4.8zm10.5-1l-10.5 1-.4-4.8 10.4-1 .5 4.8zm0 0l-.5-4.8.5 4.8zm4.8-.5l-4.8.5-.5-4.8 4.9-.5.4 4.8zm-26 30.3a3 3 0 011.8-2.2c.6-.2 1.2-.2 1.3-.2l.2 4.8.4-.1a2 2 0 001.1-1.4l-4.7-.9zm.2 1.5l-.1-.4 4.7-1.3.1.5-4.7 1.2zm.3 1l-.3-1 4.7-1.2.2.7-4.6 1.4zm1.3 4l-1.3-4 4.6-1.5 1.3 4-4.6 1.5zm3.1 10.2l-3.1-10.2 4.6-1.5 3.2 10.3-4.7 1.4zm4.2 2.6c-.4 0-1.4.2-2.4-.3a3.6 3.6 0 01-1.8-2.3l4.7-1.4c0 .1 0 0 0 0a1.7 1.7 0 00-1.3-.8h.2l.6 4.8zm12.3-2c-4 .8-8.2 1.4-12.3 2l-.6-4.8 12-1.9.9 4.8zm18.2-2.4c-6 .5-12 1.5-18.2 2.5l-.8-4.8c6-1 12.3-2 18.6-2.6l.4 4.9zm3.2-4.5l.2 1.4a3 3 0 01-2.3 2.9l-1 .2-.5-4.9h.2s-.4.1-.7.5c-.4.5-.5 1-.5 1.2 0 .2 0 .3 0 0l4.6-1.3zm-4.3-14.6l4.3 14.6-4.6 1.4a892 892 0 01-4.3-14.6l4.6-1.4zm-3.7-2.3s1-.2 1.8.1c1.2.4 1.7 1.4 2 2.2l-4.7 1.4.2.4a1.9 1.9 0 001.4.7s.1 0 0 0l-.7-4.8zm-.1 0l.8 4.8h-.2l-.6-4.8zm-10.5 1.2l10.5-1.2.6 4.8c-3.5.5-7.1.8-10.6 1.2l-.5-4.8zm-21.2 2.9c7-1.5 14.2-2.2 21.2-3l.5 4.9c-7 .7-14 1.4-20.7 2.8l-1-4.7zm0 0h0l1 4.7-.7.1-.2-4.8z"/>
  <path fill="#C4C3C6" fill-rule="evenodd" d="M418.3 364.7l2.5-6s-20.7-67.8-34-106.8c-13.1-39-21.7-57.9-21.7-57.9l-2 6.6 27.3 75.4" clip-rule="evenodd"/>
  <path fill="#fff" fill-rule="evenodd" d="M412 192.3l4.2 10.7 11.9 28.1a762.6 762.6 0 0121 56.4c3 9.2 5.3 18.6 8.1 28l10.1 32.5c.4 1.3 2.3 1.9 3.3 1 .6-.4.1-1 0-1.4l-5.3-16.9-10-32.8c-2-6.6-4.6-13-6.7-19.6a618 618 0 00-21-55.4c-4-9.1-7.4-18.4-12-27.2-.3-.6-.5-1.1-.6-1.7-.6-1.9-.6-1.9-3-1.7zM368.3 191.5c-1.5-.2-2 0-1.3 1.7l16.6 43.8c4.8 12.1 9.1 24.5 12.6 37 3.3 12 8 23.5 11.6 35.5 2.5 8.2 4.6 16.6 7.3 24.9 2.6 7.4 4.8 15 6.3 22.7.3 1.5 1.1 1 2 1 1.4 0 .7-.9.6-1.5-1.2-7-3.7-13.7-5.9-20.4-5.4-17-10-34.2-15.4-51.2-7.9-25-16.6-49.7-26-74.2-2.3-6-4.3-12-6.9-17.8-.3-.7-.4-1.6-1.5-1.5z" clip-rule="evenodd"/>
  <path fill="#fff" fill-rule="evenodd" d="M439.4 266.7c-1-2.9-1-2.8-4-2.7-7.3.2-14.4 1.5-21.6 1.5-4.8 0-9.6.6-14.3.8.1 2 1 2.5 3.1 2.5 9-.3 18.1-1 27.2-1.7 3-.3 6.2-.3 9.6-.4zM456 320.8c-7.6.7-15.4 1.4-23.2 2.9-4.3.9-8.7 1.2-13 2-.5 0-1.8-.4-1.6 1 .2 1.3 1 1.1 1.9 1 11.7-1 23.4-3.2 35.1-4.1l1.2-.1c.5-.2 1.7.4 1.4-.8-.2-.8 0-2-1.8-1.9zM447 292l-16.5 1.9c-7 .9-13.9 2.4-21 2.8-.3 0-1.4-.4-1.1.8.2.8.2 1.6 1.6 1.5l22-2.8c5-.7 10.2-.6 15.3-1.5.5 0 1.6.5 1.4-.7-.2-.8-.2-2-1.7-2zM428 238.9c-.2-1.7-1-2.2-2.7-2l-34.7 1.4-1.8.1c0 2 .8 2.6 2.7 2.4l35.3-1.7 1.2-.2z" clip-rule="evenodd"/>
  <path fill="#C4C3C6" fill-rule="evenodd" d="M463.6 355c1.1-2.8 2-5.4 1-8.5-1.9-5.9-3.4-12-5-18.1-1.6 2-2.4 3.8-1.6 6.5 2 6.6 3.7 13.3 5.6 20.2z" clip-rule="evenodd"/>
  <path fill="#fff" fill-rule="evenodd" d="M382.8 212.9c6.3.8 12.7.5 19.2.5 4.8 0 9.6.6 14.3.3.6 0 1.7.4 1.7-.5 0-1-1-1.2-2-1.2-8.1.1-16.3-.2-24.5-.5l-9-.3c-.6 0-1.7-.6-1.8.3 0 1 .7 1.6 2.1 1.4z" clip-rule="evenodd"/>
  <path fill="#C4C3C6" fill-rule="evenodd" d="M447.3 289.3l-5.9-19.4c-1.4 2-2.2 3.7-1.3 6.2 1.3 3.9 2.8 7.8 3.6 11.9.5 2.2 2.2.5 3.6 1.3zM419 216.5c-1.2 2.2-2.3 4-.9 6.7 1.6 3 2.5 6.5 3.7 9.8.4 1 2.5 1.7 3.4 1 .4-.3 0-.7 0-1l-6.2-16.5zM430.6 242.8c-1.9 2.6-2.2 5-.7 7.7a66 66 0 013.9 9.7c.6 1.8 1.7 1 2.5.8 1-.1.2-1 0-1.5l-5.7-16.7zM449.4 298.8c-1.7 2.5-1.6 5-.6 7.7 1.3 3.6 2.2 7.3 3 11 .4 2 1.5 1.3 2.4 1.1 1.3-.2.3-1.1.1-1.6-2-5.9-3-12.2-5-18.2zM415.7 209.1c-2.4-5-3.8-10.5-6-15.7-1.5 2.7-1.7 5.2-.3 8 1 1.7 1.8 3.7 2.4 5.7.6 2.1 1.6 2.9 4 2zM470.3 351.5c-3.3.3-4.3 1.7-5 6.6 3.9-.8 3.1-4.3 5-6.6zM423.5 360.3c-2.8.2-2.8.2-3.8 4.4 2.4 0 2.4-.1 3.8-4.4z" clip-rule="evenodd"/>
  <path fill="#C4C3C6" stroke="#000" stroke-width="8.3" d="M319 202.3a60.6 60.6 0 10-117.1-31.4 60.6 60.6 0 00117 31.4z"/>
  <path fill="#000" d="M265.3 254.7c35-4.9 59.2-37.7 54.2-73.3a64.5 64.5 0 00-72.3-55.5c-34.9 4.9-59.1 37.7-54.1 73.3a64.5 64.5 0 0072.2 55.5z"/>
  <path fill="#C4C3C6" d="M261.6 245.6a58.8 58.8 0 0060.2-57.4c0-31.7-27-57.3-60.2-57.3a58.8 58.8 0 00-60.2 57.3c0 31.7 27 57.4 60.2 57.4z"/>
  <path fill="#fff" fill-rule="evenodd" d="M268.6 245c29.6-.5 53-26.4 52.4-57.8-.7-31.5-25.3-56.7-55-56.2-2 0-4 .2-6 .5 29.3 0 53.4 25 54 56.1a55.4 55.4 0 01-46.3 57.4h.9z" clip-rule="evenodd"/>
  <path fill="#000" fill-rule="evenodd" d="M205 189a52.3 52.3 0 0139-51 52.5 52.5 0 00-34.3 49.6 51.7 51.7 0 0063.2 51c-5.3 1.8-11 2.9-16.8 2.9A51.7 51.7 0 01205 189z" clip-rule="evenodd"/>
  <path fill="#fff" fill-rule="evenodd" d="M281.7 191.3l-34 19.3c-2 1.1-4.2-.3-5.2-3.2a8 8 0 01-.5-2l-1-41c0-3 2.3-5.5 5-5.4a4 4 0 011.7.5l35.9 21.5c1.6 1.2 1.9 4.5.6 7.3a6.2 6.2 0 01-2.5 3z" clip-rule="evenodd"/>
  <path fill="#000" fill-rule="evenodd" d="M281.5 194.5l-33.8 19.2c-1.9 1.1-4.1-.3-5.1-3.2a8 8 0 01-.5-2l-1-40.7c0-3 2.2-5.5 4.7-5.4a4 4 0 011.8.4l35.6 21.5c1.6 1.2 2 4.5.7 7.3a6 6 0 01-2.4 3z" clip-rule="evenodd"/>
  <path fill="#fff" fill-rule="evenodd" d="M253.5 170.2a4.8 4.8 0 00-7.2 4.2V202c0 3.7 4 6 7.2 4.2l24.2-13.9a4.8 4.8 0 000-8.4l-24.2-13.8zM94.4 131.3c-.2 0 .2 31.2.9 70v1l.6 32.2c3.5 20.7 6.7 19.8 8-13.7.9-24 2.2-10 3.5 5.2 1 10.9 2 22.2 3 20.5L108.6 131l-14.2.3zm15.2-.1l1 114.7c1.1-1.5 2.3-1.5 3.4-1.5h1.2L113.5 131h-3.9zm5.9 113l-1-113 3.9-.1.3 35.4.7 69-.6 2.4c-1 3.9-2.2 5.6-3.3 6.4z" clip-rule="evenodd"/>
  <path fill="#000" fill-rule="evenodd" d="M53.3 239c-3.8-3.9-19-4.6-23.7 3.1-2.1 2.4-2 13.3-1.9 15.9-.6 2.2 2 5.5 3.2 6.7 1.3 1.4 1.3 2.6.6 4-1.2 1.6-2 2.4-2 2.4-2.2.6-3 1.4-5.3 1.8-6 1.1-8.9 6.1-12.3 10.1-2.7 3.1-.6 7-.1 10.4.7 4 .5 8.3-.3 12.3-.7 3.4-.3 57.1-2 61.8-4.5 12-12.7 33-7.7 37.2 4 3.3 11 3.1 22.7 2.1 4.3-.4 19-14.6 23.7-12.9 4 1.5 16.6 8 21.5 8.6 15.9 1.7 28.8-9 31.2-14 2.3-4.5 1-6.2-2.6-8-1.5-.9-5.2 1.2-6.4-1.7-2-4.6 3 1.4 4-6.4 1.2-8.7.8-38-.4-46.2-.5-4-24-8-23.7-11.8.5-4-.3-3 .1-5.6.2-1.4 6.2 3.4 9.3 5.4 2.9 1.9 5.4 4.2 10.1-1.5 3.6-4.4 13.2-10.2 18.6-17.9 2.8-4 9.9-5.8 11-9 1.2-2.7-6.7-10.1-7.2-11.2-1-2.3-9.2 3-10.5 4.8-1.4 1.9-2.6 5.4-3.3 6.1-3 2.8-15.6 9.3-15.6 9.3S73 284.2 72.1 283c-1.2-4.4-5.6-6.3-9.8-8-4.3-1.7-5.6-3.8-9.6-6.1 0-2 2.3-3 2.7-4.9l.2-.1c1.7-.1 1.7-1.6 2-2.7-.7-2.2 1.7-3.3 2-5.4.7-4.8-2.7-13.4-6.3-16.7z" clip-rule="evenodd"/>
  <path fill="#C4C3C6" d="M21 322.3l1.8 38.8 7.7-6.1-9.5-32.7z"/>
  <path fill="#fff" fill-rule="evenodd" d="M42.8 268.5c-3.4-5.4-4.4-10.1-4.4-10.1s-.1 3.4.1 6a25.2 25.2 0 01-3-7.3c0 1.4-.3 1.9-.1 4.1-1-1.8-1.5-3.9-1.7-4.6-.6 1.3-.4 1.5-.6 2.6-.6-5 1.2-8.6 5.1-11 1-.4 3-1.6 4.8-2.7.1-.1-6.5 5-.2 23z" clip-rule="evenodd"/>
  <path fill="#C4C3C6" fill-rule="evenodd" d="M47.4 341.7c-12.9-32.4-18.7-60-18.8-62.9.2-.2 5.9-2.6 5.9-2.6s3.6 11.5 9.7 18.6c6 7.1 16.4 12 16.4 12l-.7 9.6-19-14.1s17.2 15.6 20 17.9c.4.2-1 11.1-1 11.1l-6.4-7.8A602.5 602.5 0 0041.7 309c2.7 4.4 14.4 25.2 14.4 25.2l-3 2.4v.2l-.4.2c-1 .8-3.4 2.8.9 1.1 7.5-3 20-10 21.3-11 7.3-4.8 17-2.4 17 9.7 0 8.3-1.3 20.3-2.1 27.6l-.6 6.2c.1 1.2-2.5 1.6-6.4-1-.6-.5-1.3 0-2 .7-1 .8-2.1 1.7-3.5 1.3v-18.1-3.8c0-2.4-2.4-3.2-4.2-2.4-5 2.4-9.8 4.8-14.6 7.5l-10.3-2.4-5-10.6c-7.7-15.3-17.6-47-18-59.6 0-1.5.4-3.6 1.5-3.7.5 6.6 5.4 30.8 20.7 63.2zm-27-56.4c0-2.3.4-5.4 2.8-5.8-1.3 15.2 11 47.9 17 63.8 2 5 3.2 8.2 3.2 8.9 0 5.2-3.2 4-3.2 4s-8.8-17.3-11.7-25.5a233 233 0 01-3.7-12.5 181.7 181.7 0 01-4.3-32.9z" clip-rule="evenodd"/>
  <path fill="#fff" d="M19.1 285.9c.9 32.3 15.1 60.8 20.2 69.5 1.5 2.5 2.8.2.6-3.5-5.2-8.7-20.8-53-19-70.6 0 0-1.9 3.3-1.8 4.6zM34.4 277.8l-5 2c0 .9.2 1.7.4 2.4 2.4 10.3 10.3 38.5 10 30.7a177.5 177.5 0 00-5.4-35zM60.6 322.3l.2-2-19-16.6 18.8 18.6zM83.4 334.5c-5.4 2.2-25.1 4.8-25.1 4.8s17.8-9.6 23-10.6c5.4-1 6.5 4 2.1 5.8z"/>
  <path fill="#C4C3C6" d="M45.8 379.6l-7-19 7.7-2.9 9.8 2.5s0 9-1.6 13-8.9 6.4-8.9 6.4z"/>
  <path fill="#fff" d="M36.1 368.3l3.7 10.3-14.4 9 10.7-19.3zM79.4 364.7l9-1.9-.2-14.9-8.8 16.8zM93.8 388.6s-10 4.6-14.5 5.6-4 1.4-10.6-1.4c-1-.5-1.3 2.8 2.7 4.2 2.6.9 5.2.9 7.9 0 6.3-1.7 11-3.5 14-5.3 4.1-2.4 5.5-2.8 4.4-7.3l-4 4.2z"/>
  <path fill="#fff" d="M78.6 377.5c-.7.5-1.9 1.6-1.2 5.6.7 3.8.8 7.4-.2 7.6-3.2.6-2.3 2-7 0-.8-.3-1 2 1.9 2.9 1.9.6 3.8.6 5.7 0a44 44 0 0010-3.6c3-1.6.3-2 .3-2-2 .8-5-2-5-2.3.1-1.4.7-2.7-.6-5-.2-.3-.6-.9-.8-1.7-1.6-1.2-2.7-1.8-3.1-1.5z"/>
  <path fill="#fff" fill-rule="evenodd" d="M33 255.7V252c0-7.4 2.9-10.8 10.3-10.8s11.3 5.5 11.3 13c0 3-3 7.8-9.2 14.6 1-1.4 1.9-3 2.6-4.6-1.2 1.4-1.5 1.8-2 2.1l-1 .7c.5-.5 1.7-3.8 3-8.1a22.6 22.6 0 01-3.3 4.6l-1.3 1.7c1-1.8 1-2.2 1-3 0-.6 0-1.5.5-3.8l-1.2 2.1c-.8 1.3-1.3 2.1-2 4.4a33.6 33.6 0 00-3.8-4.7l-1.6-1.8c-2.3-2.8-3-2.6-3.3-2.8zm13.6 32.6c-3.1-5.3-1.6-15.3-.8-17 3.2.9 10 3.5 16.2 8.1 4.8 3.7 9.8 8.9 15.7 14.9a870 870 0 005 5.2c9.7-5.1 11.6-6.3 16.4-9.6 4.9-3.2 8.1 2.5 4 5.7-4 3.2-6 4.8-10.4 8-4.5 3.3-7.3 5.7-7.3 5.7l-4.8-4-16.2-13.7s-3.2-2.5-3.2.8l.1 6.9v.8c0 .2-10.7-5-14.7-11.8z" clip-rule="evenodd"/>
  <path fill="#000" fill-rule="evenodd" stroke="#000" stroke-linecap="round" stroke-linejoin="round" stroke-width=".6" d="M123 242.3l.4 22c0 3-2.4 5.5-5.5 5.5l-5.5.1.2 9.6c0 2.3-1.8 4.2-4 4.2a4.1 4.1 0 01-4.3-4l-.2-9.6h-5c-3 .1-5.5-2.3-5.6-5.3l-.4-22 30-.5z" clip-rule="evenodd"/>
  <path fill="#C4C3C6" d="M120.6 256.8l-24.5.5c-.2 0-.3 1-.3 2.4 0 1.3.2 2.4.4 2.4l24.5-.4c.1 0 .2-1 .2-2.4s-.2-2.5-.3-2.5zM111.2 280.5l-.3-15.6c0-.1-1.1-.2-2.4-.2-1.4 0-2.5.2-2.5.3 0 0 2.7 10.6 2.7 14.6s2.5 1 2.5 1z"/>
  <path fill="#fff" d="M110.8 280.5l-.2-9.8s-1.5 1.1-1.8 2.2c-.7 2.3-.5 5.8-.5 7.3 0 2.2 2.5.4 2.5.3z"/>
  <path fill="#C4C3C6" d="M116.7 244.8l.2 6.6-2.1-6.6h-3.6v3.4l-1-3.3-14.3.3a25 25 0 00-.2 5.2c0 3 .2 5.3.4 5.3l24.4-.5c.2 0 .3-2.2.2-5v-.2a25 25 0 00-.3-5.3h-3.7z"/>
  <path fill="#fff" fill-rule="evenodd" d="M120.8 249c0-2.4-.2-4.3-.3-4.3h-3.7l.1 6.8c1.5-.7 2.8-1.5 4-2.4zm-25 3.1a100.4 100.4 0 010-7l14.5-.2 1 3.4v-3.4h3.6l2 6.6a26.9 26.9 0 01-10.9 2.4c-3.7 0-7.3-.6-10.3-1.8z" clip-rule="evenodd"/>
  <path fill="#fff" d="M111 277.9c-1.8.3-2.8 1.3-3.5 1.8-.4.3-1 1.7-2 4.2.3 0 .2.1-.1.3.1 2.4 1 4.7 2.4 6.5 3.4-1.2 6.2-2 7.9-3.2 1.8-1.3 1.5-3 0-3.2-1 .4-.1-1.4-.1-1.7 0-1-.8-.6-1.8-.7-.5 0 1-1.4.3-1.7-.4-.2-1-.3-1.4-.7-.2-.2 1.3-1 .7-1.4-.6-.4-1.5-.4-2.5-.2z"/>
  <path fill="#fff" fill-rule="evenodd" d="M23.3 374.5c1.4 1.5 1 3.5-.3 8.3-.7 2.4-2 3.7-2.8 6.7-.8 3 .8 4.2.2 6.6-1.3 4.8-5.1 7.9-8.6 7-3.4-1-5.2-5.6-4-10.4.5-1.4 4.7-12.4 7.7-17.5 2-3.5 6.4-2.1 7.8-.7z" clip-rule="evenodd"/>
  <path fill="#000" fill-rule="evenodd" d="M16.7 392.9a91 91 0 01-9.2-3.9 89 89 0 0119.3 7c-2.9-.7-6.4-1.8-10-3.1zM14.3 387c-3.2-1-6-2.3-8.3-3.4a81.4 81.4 0 0117.2 6.2c-2.5-.6-5.6-1.5-9-2.7zM13 382.3L7.4 380a53.6 53.6 0 0111.4 4 54 54 0 01-6-1.7z" clip-rule="evenodd"/>
  <path fill="#000" d="M120.6 416.2c0 2-1.3 6-7.7 8.3-4 1.3-8.7 2-13.4 2-7.3 0-15-1.7-18.7-5.3a7 7 0 01-2.3-5l-6-38.3c0-9.3 14.3-13.6 27-13.6 6.7 0 13 1 17.8 3 8 3.3 9.3 7.9 9.3 10.6l-6 38.3z"/>
  <path fill="#C4C3C6" fill-rule="evenodd" d="M121.8 379.7a14.8 14.8 0 01-6.9 4.7 47.3 47.3 0 01-15 2.3c-8.2 0-16.8-2-21-6.1l-.8-1v.5l4.9 32.1c0 1.7.8 3.1 1.9 4.2 3 3 9.1 4.4 15 4.4 3.8 0 7.6-.5 10.8-1.6 5.1-2 6.2-5.3 6.2-7l4.9-32.1v-.4z" clip-rule="evenodd"/>
  <path fill="#fff" d="M116.8 386.1v5.6c0 14-2.9 22.4-4.3 24.3a50 50 0 01-4.4-27.1 31.8 31.8 0 008.6-2.7l.1-.1z"/>
  <path fill="#000" d="M81 380.7a198.4 198.4 0 005.3 22 124.1 124.1 0 00-3-20.3 4.5 4.5 0 01-2.2-1.7zM84.8 380.7a48.7 48.7 0 003.1 10.9 31.6 31.6 0 00-1-10.3 3.7 3.7 0 01-2-.6z"/>
  <path fill="#000" d="M78.4 383.7c.7.4 2 14.8 7.3 25.5s13.8 11.5 12.5 13.3c-.7-.8-14.3-2.1-15.6-8.6-.6-2.7-3.3-11.7-4.2-18-.6-3.9 0-12.2 0-12.2z"/>
  <path fill="#fff" d="M99.5 374a32 32 0 00-17.3 3.6c1.3 1.2 7.3 3.6 17.3 3.6s16-2.4 17.4-3.6c-1.3-1.2-7.3-3.6-17.4-3.6z"/>
  <path fill="#000" d="M384.4 42.3s16.7-9.7 19.7-8c3 1.8 3.6 8-3.9 17.2a63 63 0 01-22.2 15 8.5 8.5 0 01-9 5.1c-9.2-1.2-16.2-2.3-21.2-3-2.4-.5-13.3-1.4-15.7-2.8-2.6-1.6-8-4.6-8.8-7.6-.5-1.8 0-5 .1-6.3 0 0 7.4-1.7 10-2 2.4-.4-1.6-6.3 2-5.4 3.6 1 9.5 10.1 9.5 10.1l27.3.3 12.2-12.6z"/>
  <path fill="#fff" d="M369.7 60s1.2 3.3.1 4.8c-1.1 1.6-5.4 3.7-7.5 3.1-6.3-1.6 4.3-3-2.1-6.3-4-2.3 9.4-1.6 9.4-1.6h.1z"/>
  <path fill="#000" d="M380.7 83.5c-.1-3.7-.8-7-.1-10.5.9-4.4 1-8.9.3-13.3-.5-3.6-2.7-7.7 0-11 3.6-4.2 6.5-9.7 12.9-10.8 2.4-.5 2.6-2 5-2.7l1.1-.7c1.4-1.5 3.7-.2 5-1.8.8-1.6 2.7-3 1.3-4.6-1.2-1.3-3-2.8-2.3-5.1-.1-2.7-2-5-1.6-7.9a6.4 6.4 0 01.5-8.3c3-5.2 15.6-8.6 19.6-4.6a20.7 20.7 0 015.9 15.8c-.3 2.2-2.8 3.4-2 5.8-.4 1.2-.3 2.7-2.2 2.8l-.1.2c-.5 2 .1 4.1.2 6.2 4.2 2.5 8.4 3.7 13 5.5 4.5 2 9.3 4 10.3 9.4 1.4 7.4 1.6 17.6 2.4 25.2l-1.5 30.7c.2 2-21.9 1.8-32.7 0-20-3.4-35-17.9-35-20.3z"/>
  <path fill="#fff" d="M388.5 45.6c-2.1 3.5-2.8 10.3-5 11.7-2.3 1.4-3.6 3.5-7.3 5 0 0-1.9-2.5 2.2-8.7 4-6 10.1-8 10.1-8z"/>
  <path fill="#C4C3C6" fill-rule="evenodd" d="M401 39.8c0 2.7.1 5.4.5 8l.7 3.8c2 10.2 4.8 25.6 7 34l6.5-3.6c-.2-2-1.5-10.3-3-19.2a636 636 0 01-3.9-25.4c-1.8-1.2-5.5 1-7.9 2.4zm-3.2 1.8c-1.3.2-1.5 2.1-1.4 3.6l.1 1c.6 5.5 2.8 25.8 6.9 37.4l2.8-.2a296.4 296.4 0 01-8.4-41.8z" clip-rule="evenodd"/>
  <path fill="#C4C3C6" d="M433 75.7s-12.6-9.7-17.3-16.3c-4.7-6.6-6.6-18.2-6.6-18.2s1.5 19.4 3.7 24.8c2.2 5.3 8.3 14.3 8.3 14.3l11.9-4.6z"/>
  <path fill="#fff" fill-rule="evenodd" d="M397.2 55.8c1.5 9.3 3.5 18.5 6.1 27.5l1.8-.1a218.7 218.7 0 01-8.6-40.3c-.6.7-.7 2.1-.6 3.3l1.3 9.6zm-3.3-4.4c-1.2 10-1 30.9-1 31.3h5.3L394 51.4z" clip-rule="evenodd"/>
  <path fill="#fff" d="M406.2 38.3l3 45.1-8.6-43.5 5.6-1.6zM425 17l.2-1.5c.1-1.5 0-3.1-.3-4.7-.5-2.4-1.6-4.8-4-5.8h-1c-2.6-3-9.7-1.3-12.4 1.5-1 .8-1.4 2-1.4 3.1a1 1 0 00-.3.6v.5l-.1.3a1 1 0 00.2 1.4c.3.3.7.3 1 .1 1.1-.5 3.3.5 4.3.8 2.1.7 5.2-.4 7.4-.5.4 0 .8 0 1.2.2 1 .4 1.2 1.8 1.5 2.9a7 7 0 003.3 4.4l.5-3.4z"/>
  <path fill="#fff" fill-rule="evenodd" d="M409.8 22.7c1.2.2 2.5-.5 2.8-1.8.4-1.3-.2-2.6-1.4-3l-1.4 4.8zM440.6 50.5a13 13 0 01-16.9 4.7c-6.1-3-9-10-6.6-16.2l23.5 11.5z" clip-rule="evenodd"/>
  <path fill="#000" d="M432.8 62.3s7.5-17.7 11-18.2c3.3-.4 7.6 4.2 7.2 16-.4 11.9-8.7 25.4-8.7 25.4 1 3.7-.7 7.6-4.2 9.5-8 4.5-14.3 8-18.7 10.3-2.2 1.1-11.5 7-14.2 7.2-3 .3-9.1 1.2-11.7-.7-1.4-1.1-2.9-4-3.6-5.1l8.5-8c1.7-1.7-1.8-7.4 1.6-8.9 3.4-1.4 8.7 6.1 8.7 6.1l22-16.1 2.1-17.5z"/>
  <path fill="#fff" d="M431.4 86.8l3.4 3.6a5 5 0 01-2.8 4.8 98 98 0 01-19.1 7.2c-4.6 1-7.4.9-8.6-.2l27.1-15.3v-.1zM403.1 98.1c-.8.1-1.4 0-1.6-.4-.6-1-.9-2.2-1-3.5.1-.9.5-1.4 1-1.7l3.3 4.6-1.7 1zM338.8 55.7c-.7.1-1.4 0-1.6-.4-.6-1-.9-2.2-1-3.5.2-.9.5-1.4 1-1.7l3.3 4.6-1.7 1z"/>
  <path fill="#fff" d="M407 99c2 1 4 4.8 4.2 6.7-2.4 1.1-4.4 2.2-6 2.6l-.2.2c-1.1.5-2.3.8-3.6 1-.9 0-1.4 0-1.7-.3l3-1.5a1 1 0 01-.2-.6l-1.7.4c-3.7.4-6 .1-7-1 0 0 7.4-6.3 8-6.6 1.2-1 3.2-1.8 5.2-.9zM438.3 62.2l6.1-2c.5 4.2.3 8-.7 11.4-.1.7-2.4 1.2-2.7 2-1 2.6-.5 5.9-2.6 9.5 0 0-2.2 1.5-2.8-6.1-.6-7.6 2.7-14.8 2.7-14.8z"/>
</svg>
