<svg xmlns="http://www.w3.org/2000/svg" fill="none" width='678' height='546' viewBox="0 0 678 546">
  <defs/>
  <path fill="#131519" fill-rule="evenodd" d="M356 363.7h-5.9v-6h6v-5.9h-6v-6h6V340h5.9v-6h-6v6h-5.9v-6h6V328h-6v6h-6v5.9h-5.9v-6h-5.9v6h-6v-6h6V328h-6v6h-5.9v-6h-5.9v6h6v5.9h-6v6h6v6h-6v5.9h6v6h5.9v5.9h5.9v-6h6v6h5.9v-6h5.9v6h6v-6h5.9v-6h-6v6zm-35.6 0v6h-5.9v-6h6zm17.8-29.7v-6h6v6h-6zm17.8 11.9v6h6v-6h-6zm-29.6-6h-6v6h6v-6zm0 29.8v6h5.9v-6h6v6h5.9v-6h5.9v6h6v-6h5.9v6h-6v6h-6v-6h-5.8v6h-6v-6h-5.9v6h-6v-6h-5.9v6h-5.9v-6h6v-6h5.9zm23.7-12v-5.9h-6v6h6zm-11.9 0v6h6v-6h-6zm-5.9 0h6v-5.9h-6v6zm0 0h-6v6h6v-6zm0-11.8h-6v6h6v-6zm6 0v-6h-6v6h6zm5.9 0h-6v6h6v-6zm0 0h5.9v-6h-6v6zm-17.8 6v5.9h-6v-6h6zm41.5-18h-6V328h6v6zm-6 12h6v-6h-6v6zm6 11.9h-6v-6h6v6zm-6 11.9h6v-6h-6v6zm0 12h6v-6h-6v6z" clip-rule="evenodd"/>
  <path fill="#181C20" fill-rule="evenodd" d="M661.9 310.7h-6v-6h6v-5.9h-6v-6h6V287h6v-6h-6v6h-6v-6h6V275h-6v6H650v5.9h-5.9v-6h-6v6h-5.9v-6h6V275h-6v6h-5.9v-6h-6v6h6v5.9h-6v6h6v6h-6v5.9h6v6h6v5.9h5.9v-6h5.9v6h6v-6h5.9v6h5.9v-6h6v-6h-6v6zm-35.6 0v6h-6v-6h6zm17.8-29.7v-6h6v6h-6zm17.8 11.9v6h6v-6h-6zm-29.7-6h-5.9v6h6v-6zm0 29.8v6h6v-6h5.9v6h6v-6h5.9v6h5.9v-6h6v6h-6v6h-6v-6H650v6h-5.9v-6h-6v6h-5.9v-6h-5.9v6h-6v-6h6v-6h6zm23.8-12v-5.9h-6v6h6zm-11.9 0v6h6v-6h-6zm-6 0h6v-5.9h-6v6zm0 0h-5.9v6h6v-6zm0-11.8h-5.9v6h6v-6zm6 0v-6h-6v6h6zm6 0h-6v6h6v-6zm0 0h5.9v-6h-6v6zm-17.9 6v5.9h-5.9v-6h6zm41.6-18h-6V275h6v6zm-6 12h6v-6h-6v6zm6 11.9h-6v-6h6v6zm-6 11.9h6v-6h-6v6zm0 12h6v-6h-6v6zM41.5 217.7h-6v-6h6v-5.9h-6v-6h6V194h6v-6h-6v6h-6v-6h6V182h-6v6h-5.8v5.9h-6v-6h-6v6H12v-6h5.9V182h-6v6H6v-6H0v6h6v5.9H0v6h6v6H0v5.9h6v6h5.9v5.9h5.9v-6h6v6h5.9v-6h5.9v6h6v-6h5.8v-6h-5.9v6zm-35.6 0v6H0v-6h6zM23.7 188v-6h6v6h-6zm17.8 11.9v6h6v-6h-6zm-29.6-6h-6v6h6v-6zm0 29.8v6h5.9v-6h6v6h5.9v-6h5.9v6h6v-6h5.8v6h-5.9v6h-6v-6h-5.8v6h-6v-6h-6v6H12v-6h-6v6H0v-6h6v-6h5.9zm23.7-12v-5.9h-6v6h6zm-11.9 0v6h6v-6h-6zm-6 0h6v-5.9h-6v6zm0 0H12v6h5.9v-6zm0-11.8H12v6h5.9v-6zm6 0v-6h-6v6h6zm6 0h-6v6h6v-6zm0 0h5.9v-6h-6v6zm-17.8 6v5.9h-6v-6h6zm41.5-18h-6V182h6v6zm-6 12h6v-6h-6v6zm6 11.9h-6v-6h6v6zm-6 11.9h6v-6h-6v6zm0 12h6v-6h-6v6z" clip-rule="evenodd"/>
  <path fill="#4038FF" fill-rule="evenodd" d="M271.5 527.7h-6v-6h6v-5.9h-6v-6h6V504h6v-6h-6v6h-6v-6h6V492h-6v6h-5.8v5.9h-6v-6h-6v6H242v-6h5.9V492h-6v6H236v-6H230v6h6v5.9h-6v6h6v6h-6v5.9h6v6h5.9v5.9h5.9v-6h6v6h5.9v-6h5.9v6h6v-6h5.8v-6h-5.9v6zm-35.6 0v6H230v-6h6zm17.8-29.7v-6h6v6h-6zm17.8 11.9v6h6v-6h-6zm-29.6-6h-6v6h6v-6zm0 29.8v6h5.9v-6h6v6h5.9v-6h5.9v6h6v-6h5.8v6h-5.9v5.9h-6v-6h-5.8v6h-6v-6h-6v6H242v-6h-6v6H230v-6h6v-6h5.9zm23.7-12v-5.9h-6v6h6zm-11.9 0v6h6v-6h-6zm-6 0h6v-5.9h-6v6zm0 0H242v6h5.9v-6zm0-11.8H242v6h5.9v-6zm6 0v-6h-6v6h6zm6 0h-6v6h6v-6zm0 0h5.9v-6h-6v6zm-17.8 6v5.9h-6v-6h6zm41.5-18h-6V492h6v6zm-6 12h6v-6h-6v6zm6 11.9h-6v-6h6v6zm-6 11.9h6v-6h-6v6zm0 11.9h6v-6h-6v6z" clip-rule="evenodd"/>
  <path fill="#131519" fill-rule="evenodd" d="M415.3 381.6h6v53.6h-6v-53.6zm-5.9 0h-6v53.6h6v-53.6zm-11.9 0h-5.9v53.6h6v-53.6zm-17.8 0h6v53.6h-6v-53.6zm-5.9 0h-6v53.6h6v-53.6zM421.8 283.6v6h-53.4v-6h53.4zm0-6v-5.9h-53.4v6h53.4zm0-11.8v-6h-53.4v6h53.4zm0-17.9v6h-53.4v-6h53.4zm0-6V236h-53.4v6h53.4zM620.4 376.3v6H567v-6h53.4zm0-6v-6H567v6h53.4zm0-12v-5.9H567v6h53.4zm0-17.8v6H567v-6h53.4zm0-6v-5.9H567v6h53.4z" clip-rule="evenodd"/>
  <path fill="#2F2FF4" fill-rule="evenodd" d="M671.4 53.6h6A53.5 53.5 0 00624 0v6a47.5 47.5 0 0147.4 47.6zm-11.8 0h6c0-23-18.7-41.7-41.6-41.7v6c19.7 0 35.6 16 35.6 35.7zm-6 0h-5.9A23.8 23.8 0 00624 29.8v-6a29.7 29.7 0 0129.7 29.8zm-17.7 0h5.9c0-9.9-8-17.9-17.8-17.9v6c6.6 0 11.9 5.3 11.9 11.9zm-11.9 0h6a6 6 0 00-6-6v6z" clip-rule="evenodd"/>
  <path fill="#131519" d="M230 182h53.4v53.6c-29.5 0-53.4-24-53.4-53.6zM508 438h53.4v53.6c-29.5 0-53.4-24-53.4-53.6z"/>
  <path fill="#131519" fill-rule="evenodd" d="M107 273.8h-6v53.6h6v-53.6zm17.7 0h6v53.6h-6v-53.6zm17.8 0h-6v53.6h6v-53.6zm11.9 0h-6v53.6h6v-53.6zm-41.5 0h5.9v53.6h-6v-53.6zM256 50h-6v53.6h6V50zm17.7 0h6v53.6h-6V50zm17.8 0h-6v53.6h6V50zm11.9 0h-6v53.6h6V50zm-41.5 0h5.9v53.6h-6V50z" clip-rule="evenodd"/>
</svg>
