<svg xmlns="http://www.w3.org/2000/svg" fill="none" viewBox="0 0 1007 704">
  <defs/>
  <path fill="#131519" fill-rule="evenodd" d="M364.7 520.9h-8.5v-8.5h8.5v-8.6h-8.5v-8.5h8.5v-8.5h8.5v-8.6h-8.5v8.6h-8.5v-8.6h8.5v-8.5h-8.5v8.5h-8.5v8.6h-8.5v-8.6h-8.5v8.6h-8.5v-8.6h8.5v-8.5h-8.5v8.5h-8.5v-8.5h-8.5v8.5h8.5v8.6h-8.5v8.5h8.5v8.5h-8.5v8.6h8.5v8.5h8.5v8.5h8.5v-8.5h8.5v8.5h8.5v-8.5h8.5v8.5h8.5v-8.5h8.5v-8.5h-8.5v8.5zm-51 0v8.5h-8.5V521h8.5zm25.5-42.7v-8.5h8.5v8.5h-8.5zm25.5 17v8.6h8.5v-8.5h-8.5zm-42.5-8.4h-8.5v8.5h8.5v-8.5zm0 42.6v8.5h8.5v-8.5h8.5v8.5h8.5v-8.5h8.5v8.5h8.5v-8.5h8.5v8.5h-8.5v8.6h-8.5v-8.6h-8.5v8.6h-8.5v-8.6h-8.5v8.6h-8.5v-8.6h-8.5v8.6h-8.5v-8.6h8.5v-8.5h8.5zm34-17v-8.6h-8.5v8.6h8.5zm-17 0v8.5h8.5v-8.5h-8.5zm-8.5 0h8.5v-8.6h-8.5v8.6zm0 0h-8.5v8.5h8.5v-8.5zm0-17.1h-8.5v8.5h8.5v-8.5zm8.5 0v-8.5h-8.5v8.5h8.5zm8.5 0h-8.5v8.5h8.5v-8.5zm0 0h8.5v-8.5h-8.5v8.5zm-25.5 8.5v8.6h-8.5v-8.6h8.5zm59.5-25.6h-8.5v-8.5h8.5v8.5zm-8.5 17h8.5v-8.4h-8.5v8.5zm8.5 17.2h-8.5v-8.6h8.5v8.6zm-8.5 17h8.5V521h-8.5v8.5zm0 17h8.5V538h-8.5v8.6z" clip-rule="evenodd"/>
  <path fill="#181C20" fill-rule="evenodd" d="M802.7 445h-8.5v-8.5h8.5v-8.6h-8.5v-8.5h8.5v-8.5h8.5v-8.5h-8.5v8.5h-8.5v-8.5h8.5v-8.6h-8.5v8.5h-8.5v8.6h-8.5v-8.6h-8.5v8.6h-8.5v-8.6h8.5v-8.5h-8.5v8.5h-8.5v-8.5h-8.5v8.5h8.5v8.6h-8.5v8.5h8.5v8.5h-8.5v8.6h8.5v8.5h8.5v8.5h8.5V445h8.5v8.5h8.5V445h8.5v8.5h8.5V445h8.5v-8.5h-8.5v8.5zm-51 0v8.5h-8.5V445h8.5zm25.5-42.7v-8.5h8.5v8.5h-8.5zm25.5 17v8.6h8.5v-8.5h-8.5zm-42.5-8.4h-8.5v8.5h8.5v-8.5zm0 42.6v8.5h8.5v-8.5h8.5v8.5h8.5v-8.5h8.5v8.5h8.5v-8.5h8.5v8.5h-8.5v8.6h-8.5V462h-8.5v8.6h-8.5V462h-8.5v8.6h-8.5V462h-8.5v8.6h-8.5V462h8.5v-8.5h8.5zm34-17v-8.6h-8.5v8.6h8.5zm-17 0v8.5h8.5v-8.5h-8.5zm-8.5 0h8.5v-8.6h-8.5v8.6zm0 0h-8.5v8.5h8.5v-8.5zm0-17.1h-8.5v8.5h8.5v-8.5zm8.5 0v-8.5h-8.5v8.5h8.5zm8.5 0h-8.5v8.5h8.5v-8.5zm0 0h8.5v-8.5h-8.5v8.5zm-25.5 8.5v8.6h-8.5v-8.6h8.5zm59.5-25.6h-8.5v-8.5h8.5v8.5zm-8.5 17h8.5V411h-8.5v8.5zm8.5 17.2h-8.5v-8.6h8.5v8.6zm-8.5 17h8.5V445h-8.5v8.5zm0 17h8.5V462h-8.5v8.6zM59.7 172.5h-8.4V164h8.4v-8.5h-8.4v-8.6h8.4v-8.5h8.5V130h-8.5v8.5h-8.4V130h8.4v-8.5h-8.5v8.5h-8.4v8.5h-8.5V130h-8.5v8.5h-8.5V130h8.5v-8.5h-8.5v8.5H8.8v-8.5H.3v8.5h8.5v8.5H.3v8.5h8.5v8.6H.3v8.5h8.5v8.5h8.5v8.6h8.5v-8.6h8.5v8.6h8.5v-8.6h8.4v8.6h8.5v-8.6h8.5V164h-8.5v8.5zm-50.9 0v8.6H.3v-8.6h8.5zM34.3 130v-8.5h8.5v8.5h-8.5zm25.4 17v8.6h8.5v-8.6h-8.5zm-42.4-8.5H8.8v8.5h8.5v-8.5zm0 42.7v8.5h8.5V181h8.5v8.5h8.5V181h8.5v8.5h8.4V181h8.5v8.5h-8.5v8.5h-8.5v-8.5h-8.4v8.5h-8.5v-8.5h-8.5v8.5h-8.5v-8.5H8.8v8.5H.3v-8.5h8.5V181h8.5zm34-17v-8.6h-8.5v8.5h8.4zm-17 0v8.4h8.5V164h-8.5zm-8.5 0h8.5v-8.6h-8.5v8.5zm0 0h-8.5v8.4h8.5V164zm0-17.2h-8.5v8.6h8.5v-8.6zm8.5 0v-8.5h-8.5v8.5h8.5zm8.5 0h-8.5v8.6h8.5v-8.6zm0 0h8.4v-8.5h-8.4v8.5zm-25.5 8.6v8.5H8.8v-8.5h8.5zm59.4-25.6h-8.5v-8.5h8.5v8.5zm-8.5 17h8.5v-8.5h-8.5v8.5zm8.5 17.1h-8.5v-8.5h8.5v8.5zm-8.5 17h8.5v-8.5h-8.5v8.6zm0 17.1h8.5v-8.5h-8.5v8.5zM960 607.6h-8.4V599h8.5v-8.6h-8.5V582h8.5v-8.5h8.5V565H960v8.5h-8.5V565h8.5v-8.6h-8.5v8.6H943v8.5h-8.5V565H926v8.5h-8.5V565h8.5v-8.6h-8.5v8.6H909v-8.6h-8.5v8.6h8.5v8.5h-8.5v8.5h8.5v8.5h-8.5v8.6h8.5v8.5h8.5v8.5h8.5v-8.5h8.5v8.5h8.5v-8.5h8.5v8.5h8.5v-8.5h8.5v-8.5H960v8.5zm-50.9 0v8.5h-8.5v-8.5h8.5zm25.5-42.6v-8.6h8.5v8.6h-8.5zm25.5 17v8.5h8.5V582H960zm-42.5-8.5H909v8.5h8.5v-8.5zm0 42.6v8.5h8.5v-8.5h8.5v8.5h8.5v-8.5h8.5v8.5h8.5v-8.5h8.5v8.5H960v8.6h-8.5v-8.6H943v8.6h-8.5v-8.6H926v8.6h-8.5v-8.6H909v8.6h-8.5v-8.6h8.5v-8.5h8.5zm34-17v-8.6H943v8.6h8.5zm-17 0v8.5h8.5V599h-8.5zm-8.5 0h8.5v-8.6H926v8.6zm0 0h-8.5v8.5h8.5V599zm0-17.1h-8.5v8.5h8.5V582zm8.5 0v-8.5H926v8.5h8.5zm8.5 0h-8.5v8.5h8.5V582zm0 0h8.5v-8.5H943v8.5zm-25.5 8.5v8.6H909v-8.6h8.5zM977 565h-8.5v-8.6h8.5v8.6zm-8.5 17h8.5v-8.5h-8.5v8.5zm8.5 17h-8.5v-8.5h8.5v8.6zm-8.5 17.1h8.5v-8.5h-8.5v8.5zm0 17h8.5v-8.5h-8.5v8.6z" clip-rule="evenodd"/>
  <path fill="#4038FF" fill-rule="evenodd" d="M156.3 658h-8.5v-8.5h8.5v-8.6h-8.5v-8.5h8.5v-8.5h8.5v-8.5h-8.5v8.5h-8.5v-8.5h8.5v-8.6h-8.5v8.5h-8.5v8.6h-8.5v-8.6h-8.5v8.6h-8.5v-8.6h8.5v-8.5h-8.5v8.5h-8.5v-8.5h-8.5v8.5h8.5v8.6h-8.5v8.5h8.5v8.5h-8.5v8.6h8.5v8.5h8.5v8.5h8.5V658h8.5v8.5h8.5V658h8.5v8.5h8.5V658h8.5v-8.5h-8.5v8.5zm-51 0v8.5h-8.5V658h8.5zm25.5-42.7v-8.5h8.5v8.5h-8.5zm25.5 17v8.6h8.5v-8.5h-8.5zm-42.5-8.4h-8.5v8.5h8.5v-8.5zm0 42.6v8.5h8.5v-8.5h8.5v8.5h8.5v-8.5h8.5v8.5h8.5v-8.5h8.5v8.5h-8.5v8.6h-8.5V675h-8.5v8.6h-8.5V675h-8.5v8.6h-8.5V675h-8.5v8.6h-8.5V675h8.5v-8.5h8.5zm34-17v-8.6h-8.5v8.6h8.5zm-17 0v8.5h8.5v-8.5h-8.5zm-8.5 0h8.5v-8.6h-8.5v8.6zm0 0h-8.5v8.5h8.5v-8.5zm0-17.1h-8.5v8.5h8.5v-8.5zm8.5 0v-8.5h-8.5v8.5h8.5zm8.5 0h-8.5v8.5h8.5v-8.5zm0 0h8.5v-8.5h-8.5v8.5zm-25.5 8.5v8.6h-8.5v-8.6h8.5zm59.5-25.6h-8.5v-8.5h8.5v8.5zm-8.5 17h8.5V624h-8.5v8.5zm8.5 17.2h-8.5v-8.6h8.5v8.6zm-8.5 17h8.5V658h-8.5v8.5zm0 17h8.5V675h-8.5v8.6z" clip-rule="evenodd"/>
  <path fill="#131519" fill-rule="evenodd" d="M449.6 546.5h8.5v76.7h-8.5v-76.7zm-8.5 0h-8.5v76.7h8.5v-76.7zm-17 0h-8.5v76.7h8.5v-76.7zm-25.5 0h8.5v76.7h-8.5v-76.7zm-8.5 0h-8.4v76.7h8.4v-76.7zM998.5 228h8.5v76.7h-8.5V228zm-8.5 0h-8.5v76.7h8.5V228zm-17 0h-8.5v76.7h8.5V228zm-25.5 0h8.5v76.7h-8.5V228zm-8.4 0h-8.5v76.7h8.5V228zM458.9 406.2v8.5h-76.5v-8.5H459zm0-8.5V389h-76.5v8.6H459zm0-17V372h-76.5v8.5H459zm0-25.7v8.6h-76.5V355H459zm0-8.5V338h-76.5v8.5H459zM743.2 538.8v8.5h-76.4v-8.5h76.4zm0-8.5v-8.5h-76.4v8.5h76.4zm0-17v-8.6h-76.4v8.5h76.4zm0-25.7v8.6h-76.4v-8.6h76.4zm0-8.5v-8.5h-76.4v8.5h76.4z" clip-rule="evenodd"/>
  <path fill="#2F2FF4" fill-rule="evenodd" d="M816.4 76.8h8.5A76.6 76.6 0 00748.4 0v8.5a68 68 0 0168 68.3zm-17 0h8.5c0-33-26.6-59.7-59.5-59.7v8.5a51 51 0 0151 51.2zm-8.5 0h-8.5a34 34 0 00-34-34.2v-8.5c23.5 0 42.5 19.1 42.5 42.7zm-25.5 0h8.5a25.5 25.5 0 00-25.5-25.6v8.5a17 17 0 0117 17zm-17 0h8.5c0-4.7-3.8-8.6-8.5-8.6v8.6z" clip-rule="evenodd"/>
  <path fill="#131519" d="M184.2 260.6h76.4v76.8a76.6 76.6 0 01-76.4-76.8zM582.3 627.2h76.4V704a76.6 76.6 0 01-76.4-76.8zM884.2 13.5h76.4v76.8a76.6 76.6 0 01-76.4-76.8z"/>
  <path fill="#131519" fill-rule="evenodd" d="M18.4 516.6H10v76.8h8.5v-76.8zm25.5 0h8.5v76.8H44v-76.8zm25.5 0H61v76.8h8.5v-76.8zm17 0h-8.5v76.8h8.5v-76.8zm-59.5 0h8.5v76.8H27v-76.8zM221.3 71.6h-8.5v76.8h8.5V71.6zm25.5 0h8.5v76.8h-8.5V71.6zm25.5 0h-8.5v76.8h8.5V71.6zm17 0h-8.5v76.8h8.5V71.6zm-59.5 0h8.5v76.8h-8.5V71.6z" clip-rule="evenodd"/>
  <path fill="#C4C3C6" d="M824.3 560l-630 1.4V189.5h39.3v31.3h32.2v-96.2h55.9v33.7H439v-33.7h90.8v33.7h42.8v-29c0-2.6 2.1-4.7 4.7-4.7h118.9v65l67-1.5v-33.3h61.1V560z"/>
  <path fill="#fff" fill-rule="evenodd" d="M313.7 124.6l8.5.1.4 20.4-7.3 13-1.6-33.5zM815 154.7h9.3v60.8l-9.2 2.2v-63zM583.5 190.5l-5.6-.1 25 .6v28.7l-.2-.7c.3 2.9-167-1.2-168-.3l-28.6 2.9-.4-2.9 22-.4c9.7-.2 12.1 1.1 21.7 1 4-.2 5.5 1.3 5.6-2.1l-.1-18c0-3.5-1.6-4.8-5.6-4.8-18.3.3-42.4 1-60.7 1.4-18.4.4-21.4-4-21.5-4.3l45.1-.4c4.6-.1 6.1-1.5 6.1-5.5l-.1-17.4c0-3.6-1.7-5-5.8-5-7.1.2-12.2-2.1-12.3-3.4h.8c19.2-.4 29-.8 48.1-1 4.2-.1 13-1 17.5-1H495l29 .1s2.6-18.7 0-24.6c-2-4.6-13.8-7-13.8-7h19.6v37l-5-.3h-21.9c-4 0-5.6 1.4-5.7 4.9v18c0 4 86.4 4.6 86.4 4.6zM468 194.7c-4 0-5.4 1.4-5.5 5.1v16c0 3.9 1.6 5.2 5.7 5.3 8.8 0 17.7-1.5 26.5-1.4l27.1.1c3.9 0 5.4 0 5.4-3.6l.1-16.3-5.2-5-54.2-.3zm73.2-1.2c-4.3 0-5.6 1.2-5.7 5.1v16.2c0 3.8 1.3 3.6 5.7 3.6 8.7 0 17.4 1.5 26.1 1.5l24.9.2 5.5-4.6.2-16.7c0-3.6-1.4-4.8-5.5-4.9l-51.2-.4zm-54.2-29h-.3l-57.7 1c-4.2 0-5.8 1.5-5.8 5V187l7 3c9.3-.1 18.4.2 27.7 0 9.6-.1 19.3.2 29 0 4.3 0 5.7 0 5.7-3.6v-16.9c0-3.5-1.4-4.9-5.4-5h-.2z" clip-rule="evenodd"/>
  <path fill="#000" fill-rule="evenodd" d="M588 185.6l-5.5-.1 28.8.7-1 27.9v.7c.4 2.8 2 3.7 6.2 3.7l26 .3h5.3v2.2s-214.7-1-215.6 0h-28.6l-.4-2.9 22-.4 28.9-.5c4-.1 5.5-1.5 5.5-5v-18c-.1-3.4-1.7-4.7-5.7-4.7-18.3.3-67.8 1-86.2 1.4l-2.3-3.5c0-.2 45.3-1 51.5-1.2 4.5-.1 6-1.5 6-5.5v-17.4c-.1-3.6-1.7-5-5.9-5-7.1.2-9.7-.4-16.9-.2v-3.2h.8c19.2-.4 33.7-.8 52.8-1 4.2-.1 5.7-1.5 5.7-5.1v-37c0-1.2-.2-2.2-.5-3h6.2v38.7c0 4 1.6 5.5 6 5.5h57.5l4.8-4.3v9.4h-26c-4 0-5.6 1.4-5.7 4.9v18c0 4 1.5 5.3 6 5.3l57.2.1c2 0 3.3-.2 4.2-.8h19zm-115.3 4.1c-3.9 0-5.4 1.5-5.4 5.2v16c0 3.9 1.5 5.2 5.6 5.2l26.5.1 27.1.2c3.9 0 5.4-1.5 5.5-5.1V195l-5.2-5-54.1-.3zm73.3-1.1c-4.4 0-5.7 1.2-5.7 5l-.1 16.3c0 3.8 1.4 5 5.7 5l26.2.1 27.1.2 5.5-4.6.3-16.7c0-3.6-1.5-4.8-5.6-5l-53.4-.3zm-54.3-29h-.3l-57.7 1c-4.2 0-5.8 1.5-5.8 5l.1 16.5 6.6 5.3 28-.5 28.7-.4c4.5 0 6-1.4 6-5v-16.9c0-3.5-1.4-4.9-5.3-5h-.3zM839 343.6c-2.6-2.6-9.8-4.4-15.8-3a24 24 0 00-15.1 9.6c-2.9 3.2-3.1 6.7-.7 10.2-.6 3.4-1 6.2-.7 9.5-.8 2.8 1.3 4.7 2.9 6.3 1.8 1.8 1.8 3.3.9 5.3-1.7 2-3.3.4-5 2.1l-1.5 1c-3 .7-7.4.4-10.5 1-8.1 1.3-9.2 10.6-13.7 15.7-3.5 4.1.5 10.4 1.2 14.8.9 5.4.7 10.8-.4 16.1-1 4.4-2.6 8.7-2.5 13 0 4.7 2.2 9.3 2 14-.4 8.7-11.8 19.4-5.7 28 .8 1.2 2 2.2 2.4 3.5.3 1.3.3 2.7 0 4-1.7 7.7-3.7 15.4-4 23.3-.5 8 2.4 16.2 1 24.2l-.2 1.1c-1.3 6.8-3.7 13.4-4 20.3-.4 5.8 16.8 21.7 40.1 30 23.4 8.4 49.4 2.2 50.3 2.4 16 2.4 5.7-59 14-108.6 6.2-36.8 3.5-73-4.8-87.5-1.6-5.8-7.4-8.3-13-10.5-5.7-2.2-8.5-4.9-13.8-8 0-2.5-3.5.3-3-2.2l.3-.2c2.3-.1 2.2-2 2.7-3.4-1-3 3.5-9.7 4-12.4 1-6.2-2.6-15.2-7.4-19.6z" clip-rule="evenodd"/>
  <path fill="#C4C3C6" d="M824.9 442c.2 9.5-2 17.8-5.4 26.6a267.6 267.6 0 01-19.7-71.9c-.2-1.8 0-4.2 2-4.5a252.6 252.6 0 0014.2 55.3c1 1 2 0 1.7-1.2a419.2 419.2 0 01-11-46.2c-.5-3.4-.7-6.8-.7-10.2 3.3-1.8 8.3-4.5 10.8-3 .8 8.5 3.5 16.8 4.3 25.4a14.3 14.3 0 001.8 7.3c.5 7.5 1.7 15 2 22.4zM846.6 445.8c-5.4-2.8-9-8.2-13.3-12.6-1.6-1.6-4.2-1.4-2 1l4.8 4.7 9.4 9c.4.3.7.6.9 1 .2.6.3 1.3.2 1.9-.4 4.9-.4 9.8 0 14.6.3 2.6.7 5.4-.2 7.8.2-.7-3.7-5.2-4.2-6-2.4-3.5-4.8-7-7-10.6-2.5-4-6.4-8-7.1-12.7-.4-2.5.1-5.1 0-7.6-.1-2.7-.5-5.3-1-8-.4-1.5-.6-3-.6-4.7 0-.2 0-.5.2-.7.5-.6 1.4-.2 2 .2 5 3.4 10.3 6.2 16 8.3 1 .4 2.2.9 2.6 2 .2.5.3 1 .2 1.6-.2 3.6-.4 7.2-.9 10.8z"/>
  <path fill="#C4C3C6" d="M788.7 405.3c-.3 13.6 2.6 28 6 41.2a258.8 258.8 0 0045.2 88.4c1.5 2 4.4 5.1 7.3 3.6-.4.2-11.6-16-12.6-17.4-4.2-6-8.3-12.1-12-18.4a215.8 215.8 0 01-23.3-55c-3.4-14-5-28.3-5.7-42.7-.2-3 .4-7.1 3.7-7.6-2.4 26 10.3 51 21.8 74.7 8.4 17.6 16.5 35.5 26.5 52.3 1.3 2.1 2.6 4.2 4.6 5.7-3.3-6.3-6.5-12.5-9.9-18.6a672 672 0 01-19.8-40.5c.4 0 .9 0 1.3-.2.5.4 2.2.4 2.4-.1a71 71 0 005.2-17.6 376.4 376.4 0 0014 20.6c1.1 1.5 4 4.1 4.3 5.8 3.7 15.2 7 30.4 8.4 46 .9 9.6.5 19.3.4 29 0 3.7-.2 7.5-.5 11.3-4.1-4.2-8.1-8.6-11.9-13.1a209.4 209.4 0 01-39.3-67.3c1.3 6.4 10.8 34 19.6 48.2 9.2 14.9 20 26.7 24.7 31.9 1.4 1.4 2.6 3 3.6 4.8 2.5 5 2 8.3 0 13.6a129.7 129.7 0 01-38.7-46.3c-9.1-17.8-14.9-37-18.7-56.5-5-25-7.2-50.4-6.6-75.8z"/>
  <path fill="#fff" d="M796.6 408a206.8 206.8 0 007.5 46.7l2.5 7.6a195.5 195.5 0 0017.4 35.6c3.6 5.7 7.4 11.3 11.4 16.8 2.2 3 4.8 5.2 5.9 8.9 1.2 4.3 2.5 8 5.3 11.8l-12-16.1c-4-5.5-7.8-11.1-11.3-16.9a195.6 195.6 0 01-22-50.5 207 207 0 01-5.5-39.3c-.1-1.6.1-3.3.8-4.8v.2zM814.3 398.3c3.1 14.9 4.8 30 5 45.2 0 10.3-.7 3-1.7 1.2l-.7-1.2v-.2a455 455 0 01-9.4-40.3c-.5-3.3-.7-6.7-.7-10l1-.6c0 1.9 6.1 4 6.5 5.9z"/>
  <path fill="#fff" d="M788.4 409.4v-.4 1.6c-.6 9.8.3 19.7 1.3 29.4 2.8 25.8 6.5 51.6 15.4 76 9 24.4 23.5 47.5 44.9 63.2 1.2 1.8 2.1 1.7 1.2 5.8a141.5 141.5 0 01-46.8-64.1c-9-24.4-12.6-50.3-15.4-76a138.5 138.5 0 01-.6-35.5z"/>
  <path fill="#fff" fill-rule="evenodd" d="M812.8 357l-.8 1.5-.2 1.2c-.1 1 .3 2 1.2 2.7a2 2 0 002.7-.6l.2-.7c0-.3.1-.7.4-1 .2-.3.6-.4.9-.6.3-.1.7-.3.9-.6l.2-.5c.2-.3.3-.6.5-.7l.8.1.3.1c.7.1 1.2-.2 1.7-.6l1.2-.5c.9-.2 1.7.2 2.4.6l1 .5 1.3.4c.5 0 1 .2 1.5.4 1 .5 1.3 1.3 1.5 2.1.3.7.5 1.4 1.2 2l.3.2c.4.2.7.4.8.7l-.1.8c-.6 1.3-1.2 2.6-2 3.7a58.5 58.5 0 00-10.2.3c-1.8.4-4.3.8-5 .4-.4-.3-.9-.3-1.3 0-.6.3-.8 1-.4 1.6l.1.3v.7c0 .2 0 .5.2.7-.3 1.4.2 2.8 1.2 3.9 3 4 11.4 5.1 14.5.6l.7-1.2 1-1.7.9-.9c.7-.8 1.4-1.5 1.6-2.5 0-.6.2-1.2.5-1.8l.3-.3.5-.5.1-.7v-.6c.1-.3.4-.6.7-.9l.3-.3c1.9-2 .4-5.4-.7-8a29 29 0 01-.7-1.9v-.1c-.5-1.3-1.2-3.2-2.5-3.8a3 3 0 00-1 0c-.7-.2-1.3-.6-1.9-1-.6-.5-1.1-.9-1.8-1-.3 0-.5 0-.7-.2a2 2 0 01-.4-.5c-.5-.7-1-.5-1.4-.3a2 2 0 01-.6.1h-2c-.5.2-1 .7-1.3 1.2-.5-.3-1.2-.3-1.6.1-.5.4-1 .8-1.5 1-.2.2-.4.2-.5.2-.2 0-.4 0-.6.2-.4.1-.7.4-1 .7-1.2 1-2 2.4-2.7 3.7l-.7 1.2zm10.3 14.3l1.3.2a15 15 0 003.3-.5 7.1 7.1 0 01-7.5 2.7l-3-1 .2-.4.5-.4c1.5-1 3.4-.8 5.2-.6z" clip-rule="evenodd"/>
  <path fill="#fff" d="M858.9 471.7c2.1 3.1 1.7 9.9 2 13.6 0 1.6 1.3 8.6-.5 9.7-1 .6-3.6-8.3-3.8-9-.6-2.2-1.6-4.5-1.2-6.6.4-2.6 1.6-6 3.5-7.7zM781 475.7c.4-1.6.6-3.3 1.8-4.5 1.3-1.5 3-2.6 5-3.3l.2-.4.3.2c1 1.3 1 4.4 1.2 6 .1.9 1 4.1-.2 5.2-.6.7-2.4-3-2.6-3.4l-.7-1.6-1.8 2.9c-.6 1-2.6 5.8-4.3 5.9-1 0 .9-6.5 1-7zM827.5 386.7v-1.2c0-.3.3-.7.6-.9l2.5-2.4c-.4 5 2.6 8.6 7.3 9.8 4.8 1.3 9.9 2.7 13.4 6.2 3 2.9 7.7 5.4 8.6 9.4.5 2.2 3.8 13.7 4.2 23.6.4 15-2.2 30-2.5 31.8-.3 2.6-2.3 5.4-4.4.2-1.7-4-.7-4.9-.6-9 .2-5.3.1-10.6-.1-15.8-.5-10.8-.5-25.8-9.2-33.6.7 2.5 1.1 5.2 1.2 8 .1 3.7 0 7.5-.3 11.2 0 .6-.1 1-.4 1.5a2 2 0 01-1.6.7c-1.3 0-2.5-.3-3.5-.9-1.1-.6-1.8-2-2.6-3a80.7 80.7 0 01-5-6.6c-2.8-4-11.1-15.2-5.4-19.6.7-.6 1.3-1.3 1.6-2 .8-2.5-3-4.4-3.8-7.4z"/>
  <path fill="#000" fill-rule="evenodd" d="M783.5 489.8l-1.6-4-2.3-5.6c-1.6-4.1-3-8.2-3.8-12.6-1-1.7-1.4-3.6-1.9-5.5l-1.5-4.7a176 176 0 00-5.4-15.2c-3.9-9.2-7.3-18.6-10.8-28l-1-2.6c-2.1-6-4.7-11.7-7.2-17.5-2.1-4.7-4.2-9.5-6-14.3-2.5-6-5.1-12-7.8-17.9-2.7-5.7-5.3-11.5-7.6-17.3-.8-2.2-2-3-4.4-2.8h-.3c-3.5.3-5.2.5-6.4 1.4-1.1.9-1.7 2.5-2.8 5.8v.1c-1.3 3.5-1.8 6.6.2 10.2 2 3.6 3.8 7.3 5 11.6h-6.1l-13.8-.3-9.5-.2-13.7-.4c-1.3 0-2-.3-2.5-1.6-2.1-4.8-3.9-9.7-5.6-14.7l-3.7-10.1c-.6-1.5-1.3-2.2-2.8-2.2l-1.8.1c-1 .1-2.2.2-3.3.1-3.4-.2-5 1.4-5.7 4.6l-.5 1.8-.4 1.1c-1.4 5-1.8 9.5.4 14.5 4.1 9.7 7.6 19.7 11 29.6 1.7 5 3.7 10 5.6 15a288 288 0 017.4 20.3c1.5 5 3.2 10 4.9 14.8l2.6 7.7.8 3 .4 1.4.6 1.8a310.7 310.7 0 015.2 15l1.6 4.6 1.5 5.1c1.1 3.8 2.2 7.5 3.6 11 6 15.7 10.8 31.8 15.5 47.9l2.4 8 5.9 20.3c2.5 9 5 17.8 7.8 26.7 1 3.6 1.7 3.8 5.5 3.4 4.5-.6 7.3-2.7 8.3-7.2l.1-.5c3.1-4.6 2.2-9.3 1-14.2-1.4-6-3.3-11.7-5.2-17.5l-1.2-3.6c-.5-1.6-.3-2.2 1.5-2.3 12.9-1 25.6-3 38.3-5.1l.6-.1c5.5-1 5.6-.9 7.4 4.6 3 9.2 6 18.5 8.3 28 1.6 6.2 4.8 7.8 11 5 .8-.5 1.2-1.2 1.5-2 1.8-3.6 3.2-7.4 4.6-11.2.7-1.8.4-3.6-.1-5.5l-20-64.4-.4-1.2-.5-2-.2-1-1-3.6a14.2 14.2 0 01-1.7-5.6zM680 388.7a219.3 219.3 0 005.2-.3l15.1.3c7.4.4 14.8.7 22.2 0 1.5-.2 2.5.2 3.1 1.7 2 5 4.2 9.8 6.3 14.8.6 1.2.3 1.6-1 1.6l-9.7.1-11.3.6c-6.7.4-13.3.9-20 .8a5 5 0 00-.8 0c-.9.2-1.8.3-2.3-1l-4.9-13.4-1.9-5.2zm14.6 38.7l-.6.1a215.4 215.4 0 006.6 20.1c.5 1.4 1.3 1.7 2.5 1.5 5.2-.5 10.3-.8 15.4-1 7-.4 14-.8 21-1.8 2.4-.4 4.8-.6 7.2-.8 1.5 0 1.7-.6 1.2-2l-7.7-17.2c-.4-.9-1-1-1.8-1-7.3.8-14.7 1-22 1a303.5 303.5 0 00-21.8 1.1zm59.4 37c.3 0 .9.2 1.2 1.1l2 5.5c1.8 4.6 3.5 9.2 4.6 14 .4 1.7 0 2-1.7 2.2-5 .5-10.1 1-15.1 1.8l-8 1.2c-6.4 1-12.9 2.2-19.5 2.6h-.6c-.8.2-1.7.3-2-1l-6.3-21.1c-.5-1.6-.4-2.3 1.6-2.5a893 893 0 0036.8-3l7-.8zm-32.4 46.8c-.4 0-1 0-1 .7l.1.6.3 1.2 1.9 5.8 4.6 14.6c.4 1.4.9 1.5 2.1 1.3 5.9-.8 11.7-1.7 17.5-2.7a320 320 0 0126.4-3.6c1.5-.2 2-.4 1.5-2l-6-20.9c-.4-1-1-1-1.6-.8h-.2L752 507c-10 1-20.1 2-30 4.2h-.5z" clip-rule="evenodd"/>
  <path fill="#000" d="M780.4 485.8l3.2-1.3-3.2 1.3zm1.6 4l3.2-1.3.2.4v.3l-3.4.6zm-1.6-4l-3.2 1.2 3.2-1.3zm-2.2-5.6l-3.2 1.2 3.2-1.2zm-3.8-12.6l3-1.6.3.5v.6l-3.3.5zm-2-5.5l3.4-1.1V461.3l-3.3.8zm-1.4-4.7l3.3-1-3.3 1zm-5.4-15.2l-3.2 1.4 3.2-1.4zm-10.8-28l-3.2 1.2 3.2-1.2zm-1-2.6l-3.2 1.2 3.2-1.2zm-7.2-17.5l3.1-1.4-3.1 1.4zm0 0l-3.2 1.4 3.2-1.4zm-6.1-14.3l3.2-1.2-3.2 1.2zm-7.8-17.9l3.2-1.4-3.2 1.4zm-7.5-17.3l-3.2 1.3 3.2-1.3zm-4.5-2.8l-.3-3.5.3 3.5zm-.2 0l.3 3.5-.3-3.5zm-6.4 1.4l-2.1-2.8 2.1 2.8zm-2.9 5.8l3.3 1.2-3.3-1.2zm0 .1l3.3 1.1-3.3-1zm.3 10.2l-3 1.7 3-1.7zm5 11.6l3.4-1 1.3 4.6h-4.7v-3.6zm-6.2 0v3.4-3.4zm-13.7-.3l-.1 3.5v-3.5zm-9.5-.2l-.1 3.4v-3.4zm0 0v-3.5 3.5zm-13.7-.4v3.5-3.5zm-2.5-1.6l3.1-1.4-3.1 1.4zm-5.7-14.7l3.3-1.1-3.3 1.1zm0 0L662 355l3.2-1.2zm-3.7-10.1l3.3-1.3-3.3 1.3zm-2.8-2.2l.2 3.5-.2-3.5zm-1.7.1l.3 3.5-.3-3.5zm-3.3.1l-.3 3.5.3-3.5zm-5.7 4.6l-3.4-.7 3.4.7zm-.6 1.8l-3.2-1 3.2 1zm-.3 1.1l3.3 1-3.3-1zm.3 14.5l3.2-1.3-3.2 1.3zm11 29.6l3.4-1-3.3 1zm5.7 15l3.2-1.4-3.2 1.3zm7.3 20.3l-3.3 1 3.3-1zm5 14.8l3.2-1-3.3 1zm0 0l-3.4 1.2 3.3-1.2zm2.5 7.7l3.3-1-3.3 1zm.9 3l-3.4.9 3.4-1zm.3 1.4l-3.2 1.1-.1-.2 3.3-1zm.7 1.9l-3.2 1.1 3.2-1.1zm0 0l3.3-1.2-3.3 1.2zm0 0l3.3-1.2-3.3 1.2zm0 0l3.3-1.2-3.3 1.2zm0 0l-3.2 1.1 3.2-1.1zm0 0l3.3-1.2-3.3 1.2zm0 0l3.3-1.2-3.3 1.2zm1.5 4.2l3.3-1.2-3.3 1.2zm3.7 10.7l3.2-1.1-3.3 1.1zm1.5 4.6l3.3-1-3.3 1zm1.6 5.1l3.3-1-3.3 1zm0 0l-3.3 1 3.3-1zm3.6 11l-3.3 1.3 3.3-1.2zm15.5 47.9l3.3-1-3.3 1zm0 0l-3.4 1 3.4-1zm2.4 8l-3.3 1 3.3-1zm5.8 20.3l-3.3 1 3.3-1zm0 0l3.3-1-3.3 1zm0 0l3.3-1-3.3 1zm0 0l3.3-1-3.3 1zm7.8 26.7l3.3-1-3.3 1zm5.6 3.4l.4 3.4-.4-3.4zm8.2-7.2l3.4.8-3.4-.8zm0 0l-3.3-.7 3.4.7zm.2-.5l-2.9-2 3 2zm1-14.2l3.3-.8-3.3.8zm-5.3-17.5l3.3-1.1-3.3 1zm0 0l-3.3 1 3.3-1zm-1.1-3.6l-3.3 1 3.3-1zm1.4-2.3l.3 3.5-.3-3.5zm38.4-5.1l.6 3.4-.6-3.4zm0 0l-.6-3.5.6 3.5zm.5-.1l-.5-3.5.5 3.5zm7.5 4.6l-3.3 1.1 3.3-1zm8.3 28l-3.4.8 3.4-.9zm10.9 5l1.5 3-1.5-3zm1.6-2l-3.1-1.5 3.1 1.6zm4.6-11.2l-3.3-1.2 3.3 1.2zm-.2-5.5l-3.3 1 3.3-1zm-20-64.4l-3.3 1 3.3-1zm0 0l3.3-1-3.3 1zm0 0l-3.3 1 3.3-1zm0 0l-3.3 1 3.3-1zm-.3-1.2l-3.3 1 3.3-1zm-.5-2l3.4-.8-3.4.8zm0 0l-3.4.7 3.4-.7zm-.2-1l3.3-.9v.1l-3.3.8zm-1-3.6l3-1.9.2.5.1.5-3.3 1zM680.3 388.6l-.1-3.5.1 3.5zm-1.7 0l-3.3 1.3-1.6-4.5 4.7-.2.2 3.5zm5.2-.2l-.1-3.4v3.4zm15.1.3l-.1 3.5.1-3.5zm22.2 0l.3 3.4-.3-3.5zm3.1 1.7l-3.2 1.3 3.2-1.3zm6.3 14.8l-3.2 1.3 3.2-1.3zm-1 1.6v-3.5 3.5zm-9.7.1l.1 3.5-.1-3.5zm-11.3.6l-.2-3.4.2 3.4zm0 0l.2 3.5-.2-3.5zm-20 .8v3.5-3.5zm-.8 0l.5 3.5-.5-3.4zm-2.4-1l3.3-1.2-3.3 1.2zm-4.8-13.4l-3.3 1.2 3.3-1.2zm0 0l3.2-1.2-3.2 1.2zm0 0l-3.3 1.2 3.3-1.2zm12 33.6l-3.3 1.1-1.2-3.7 3.8-.8.7 3.4zm.6 0l.8 3.3-.8-3.4zm1.5 6.5l3.3-1-3.3 1zm0 0l3.3-1-3.3 1zm0 0l-3.3 1v-.1l3.3-1zm4.6 13.7l-3.3 1.2 3.3-1.2zm2.5 1.4l-.3-3.4.3 3.4zm15.4-1l.2 3.4-.2-3.5zm0 0l.2 3.4-.2-3.5zm0 0l-.2-3.5h.1l.1 3.4zm0 0l.2 3.4h-.1l-.1-3.5zm20.9-1.8l-.5-3.5.5 3.5zm7.3-.8l.3 3.5-.3-3.5zm1.1-2l-3.1 1.5 3.1-1.4zm-7.6-17.2l3.2-1.4-3.2 1.4zm-1.8-1l.3 3.5-.3-3.4zm-22 1v3.5-3.4zm-20.9 1l.3 3.4-.3-3.5zm59.7 38.2l-3.3 1.2 3.3-1.2zm-1.2-1l.6 3.3H752.9l-.3-3.4zm3.2 6.5l3.3-1.2-3.3 1.2zm4.6 14l-3.4.8 3.4-.8zm-1.7 2.2l-.4-3.4.4 3.4zm-15.2 1.8l.5 3.4-.5-3.4zm-7.9 1.2l.6 3.5h-.1l-.5-3.5zm0 0l-.5-3.4.5 3.4zm-19.5 2.6l.2 3.4-.2-3.4zm-.6 0l.5 3.5-.5-3.5zm-2.1-1l-3.3.9 3.3-1zm-6.2-21.1l3.3-1-3.3 1zm1.6-2.5l.2 3.5-.2-3.5zm21.9-1.7l.3 3.5-.3-3.5zm15-1.4l-.4-3.4.3 3.4zm0 0l.3 3.5-.4-3.5zM719 512l-3.3.8-.2-.7.1-.7 3.4.6zm1.1-.7l.2 3.5-.2-3.5zm-.9 1.3l3.4-.8-3.4.8zm.3 1.2l3.3-1-3.3 1zm1.9 5.8l-3.4 1 3.4-1zM726 534l-3.3 1 3.3-1zm2.2 1.3l-.4-3.4.4 3.4zm17.5-2.7l.5 3.4-.5-3.4zm26.4-3.6l.3 3.4-.3-3.4zm1.5-2l3.3-1-3.3 1zm-6.1-20.9l-3.4 1 3.4-1zm-1.6-.8l.5 3.4-.5-3.4zm-.1 0l.4 3.4-.4-3.4zm-15.2 1.6l-.3-3.4.3 3.4zm-30 4.2l.8 3.4-.8-3.4zm63-26.7l1.6 4-6.4 2.6-1.6-4 6.4-2.6zm0 0l-6.4 2.6 6.4-2.7zm-2.2-5.6l2.2 5.5-6.4 2.6-2.2-5.6 6.4-2.5zm-3.6-11.8c.7 4 2 7.8 3.6 11.8l-6.5 2.5a65.9 65.9 0 01-4-13.2l6.9-1.1zm-2-5.8c.5 2 1 3.4 1.6 4.7l-6.1 3.3a25.8 25.8 0 01-2.2-6.4l6.8-1.6zm-1.5-5l1.5 4.7-6.6 2.2-1.5-4.8 6.6-2zm-5.5-15.4c2.2 5 3.8 10.3 5.5 15.4l-6.6 2.1c-1.7-5.1-3.3-10-5.3-14.8l6.4-2.7zM758.1 413c3.4 9.3 6.8 18.7 10.7 27.8l-6.4 2.7c-4-9.3-7.4-18.8-10.8-28.2l6.5-2.3zm-1-2.7l1 2.7-6.5 2.3-1-2.6 6.5-2.4zm-7.4-17.7c2.6 5.8 5.2 11.7 7.4 17.7l-6.5 2.4c-2.1-5.8-4.7-11.5-7.2-17.3l6.3-2.8zm0 0l-6.3 2.8 6.3-2.8zm-6-14.1l6 14.1-6.3 2.8c-2.1-4.7-4.2-9.5-6.1-14.4l6.4-2.5zm-7.8-18.1c2.7 5.9 5.4 11.9 7.8 18l-6.4 2.6c-2.4-6-5-11.8-7.7-17.7l6.3-3zm-7.5-17.2c2.3 5.8 4.9 11.4 7.5 17.2l-6.3 2.9c-2.6-5.8-5.3-11.6-7.6-17.5l6.4-2.6zm-8-5c1.6 0 3.4 0 5 1s2.5 2.6 3 4L722 346c-.3-.8-.5-.8-.3-.7.2.2.1 0-.7 0l-.6-6.9zm-.2 0h.2l.6 7h-.2l-.6-7zm-8.2 2.1c1.2-1 2.5-1.3 3.8-1.6l4.4-.4.6 6.9c-1.8.1-3 .2-3.8.4l-.8.2-4.2-5.5zm-4 7.5l1.5-4.2a8.5 8.5 0 012.5-3.3l4.2 5.5-.4.7-1.3 3.6-6.6-2.3zm0 0l6.5 2.3-6.6-2.2zm.4 13c-2.6-4.8-1.8-9-.5-13l6.6 2.3c-1 3.1-1.3 5.1 0 7.4l-6 3.4zm4.8 11c-1.2-4-2.8-7.5-4.8-11l6.1-3.3c2 3.7 4 7.7 5.4 12.4l-6.7 2zm-2.8-4.5h6.2v7h-6.3v-7zm-13.8-.3l13.8.3-.1 7-13.8-.3.1-7zm-9.4-.2l9.4.2-.1 7c-3.2 0-6.4-.2-9.5-.3l.2-6.9zm0 0l-.3 7 .3-7zm-13.8-.3l13.8.3-.2 7-13.7-.4.1-7zm.6.4c.1.2.1.2 0 .1l-.4-.4-.4-.1h.2v7c-1-.1-2.2-.2-3.4-1a6 6 0 01-2.3-2.8l6.3-2.8zm-5.5-14.4c1.8 5 3.5 9.8 5.5 14.4l-6.3 2.8c-2.2-5-4-10-5.7-14.9l6.5-2.3zm0 0l-6.5 2.3 6.5-2.3zm-3.7-10.3l3.7 10.3-6.5 2.3c-1.2-3.4-2.4-6.8-3.7-10l6.5-2.6zm-6.2-4.3c1.4 0 2.9.2 4.1 1.3 1.1.9 1.7 2.1 2 3l-6.4 2.6-.2-.5.2.2a1.4 1.4 0 00.5.3c.1 0 .2 0 0 0l-.2-7zm-1.9 0h1.9l.3 6.9-1.6.1-.6-7zm-2.8.2l2.8-.1.6 7h-3.9l.5-7zm-9.3 7.3c.4-2 1.2-4 3-5.5s4-2 6.3-1.8l-.5 7c-1-.2-1.4 0-1.4.1 0 0-.4.4-.6 1.5l-6.8-1.3zm-.4 1.4l.4-1.4 6.8 1.3-.7 2.3-6.5-2.2zm-.5 1.3l.5-1.3 6.5 2.2-.3 1-6.7-1.9zm.6 16.8c-2.7-6-2-11.5-.6-16.8l6.7 1.9c-1.2 4.5-1.5 8.1.2 12.2l-6.3 2.7zm11 29.4c-3.5-10-7-19.9-11-29.4l6.3-2.7c4.3 9.8 7.8 19.9 11.2 29.8l-6.6 2.3zm5.5 15l-5.6-15 6.6-2.3c1.7 5 3.6 9.8 5.5 14.7l-6.5 2.6zm7.3 20.1c-2-6.8-4.6-13.4-7.3-20.1l6.5-2.6c2.6 6.8 5.3 13.6 7.4 20.7l-6.6 2zm5 15c-1.8-5-3.5-10-5-15l6.6-2a448 448 0 004.9 14.7l-6.6 2.3zm0 0l6.5-2.3-6.6 2.3zm2.5 7.6a859 859 0 00-2.6-7.6l6.6-2.3 2.6 7.7-6.6 2.2zm.8 2.8l-.8-2.8 6.6-2.2 1 3.2-6.8 1.8zm.4 1.4l-.4-1.4 6.7-1.8.4 1.4-6.7 1.8zm.7 2.1l-.6-1.9 6.5-2.3.7 1.9-6.6 2.3zm0 0l6.6-2.3-6.5 2.3zm0 0l6.6-2.3-6.5 2.3zm0 0l6.6-2.3-6.6 2.3zm0 0l6.6-2.3-6.6 2.3zm0 0l6.6-2.3-6.5 2.3zm0 0l6.6-2.3-6.5 2.3zm1.5 4.2l-1.4-4.2 6.5-2.3 1.5 4.2-6.6 2.3zm3.7 10.7l-3.7-10.7 6.6-2.3 3.6 10.8-6.5 2.2zm1.5 4.7l-1.5-4.7 6.5-2.2 1.6 4.6-6.6 2.3zm1.6 5l-1.6-5.1 6.6-2.1 1.6 5.1-6.6 2zm0 0l6.6-2-6.7 2zm3.6 11.2c-1.4-3.7-2.5-7.6-3.6-11.3l6.6-2c1.1 3.8 2.2 7.4 3.5 10.8l-6.5 2.5zm15.4 47.6a634 634 0 00-15.4-47.6l6.5-2.5c6 15.8 10.9 32 15.6 48l-6.7 2zm0 0l6.7-2-6.7 2zm2.5 8l-2.5-8 6.7-2 2.4 8.1-6.6 2zM713 570l-5.8-20.1 6.6-2 5.9 20.2-6.7 2zm0 0l6.6-1.9-6.6 2zm0 0l6.6-1.9-6.6 2zm0 0l6.6-1.9-6.6 2zm7.8 26.8c-2.7-8.9-5.3-17.8-7.8-26.8l6.7-1.9c2.5 9 5 17.9 7.7 26.7l-6.6 2zm9.3 5.8l-2.8.2c-.9 0-2-.2-3.1-.8a6 6 0 01-2.3-2.5c-.5-.8-.8-1.7-1.1-2.7l6.6-2 .6 1.5-.4-.3c-.3-.2-.5-.2-.2-.2l1.9-.1.8 6.9zm11.2-9.8c-.6 2.8-1.9 5.2-4 7-2 1.7-4.5 2.5-7.2 2.8l-.8-6.9c1.8-.2 2.9-.7 3.6-1.3.7-.6 1.3-1.5 1.7-3.1l6.7 1.5zm0-.1l-6.7-1.4 6.8 1.4zm-.3.7l.3-.7s0-.2 0 0l-6.7-1.5.1-.5c0-.2.2-.7.5-1.1l5.8 3.8zm1.4-17c1.2 5 2.6 11-1.4 17l-5.8-3.8c2.2-3.2 1.7-6.5.5-11.5l6.7-1.6zm-5.3-17.7c2 5.7 3.9 11.7 5.3 17.8l-6.7 1.6c-1.4-5.8-3.3-11.4-5.2-17.2l6.6-2.2zm0 0l-6.6 2.2 6.6-2.2zm-1.1-3.6l1.1 3.6-6.6 2.2-1.1-3.6 6.6-2.2zm-1.6 2.3c-.3 0-.3 0 0 0 .1-.1.7-.4 1.1-1.1.4-.7.4-1.2.4-1.4v.2l-6.5 2.2c-.2-.5-.4-1.2-.4-1.8 0-.7 0-1.8.6-2.8.6-1 1.5-1.6 2.3-1.9l2-.4.5 7zm38.6-5.2a425.3 425.3 0 01-38.6 5.2l-.5-7c12.7-.9 25.3-3 38-5l1.1 6.8zm0 0l-1.1-6.9 1.2 6.9zm.6-.1h-.6l-1-6.8h.5l1.1 6.8zm3.6 2.3l-1-2.8c-.3-.6-.3-.3.1 0 .4.2.7 0 .1.1l-2.8.4-1.1-6.9c1.3-.2 2.6-.4 3.7-.4 1 0 2.5 0 3.8.9 1.4.8 2 2 2.5 3s.9 2.2 1.3 3.6l-6.6 2.1zm8.2 27.7c-2.3-9.3-5.2-18.5-8.2-27.7l6.6-2.1c3 9.2 6 18.5 8.3 28l-6.7 1.8zm15.8 7.3c-3.3 1.5-6.9 2.4-10.1 1-3.3-1.6-4.8-4.9-5.7-8.3l6.7-1.7c.7 2.9 1.6 3.5 1.9 3.6.3.2 1.4.4 4.2-.9l3 6.3zm3.2-3.5a7 7 0 01-3.2 3.5l-3-6.3-.2.1.2-.4 6.2 3.1zm4.7-11.6c-1.3 3.8-2.8 7.8-4.7 11.6l-6.2-3c1.7-3.5 3-7.1 4.4-11l6.5 2.4zm0-7.7c.6 2.2 1 4.9 0 7.7l-6.5-2.4c.3-.8.3-1.8-.2-3.3l6.6-2zm-20-64.4c6.6 21.4 13.2 42.9 20 64.4l-6.7 2-20-64.4 6.7-2zm0 0l-6.7 2 6.7-2zm0 0l-6.7 2 6.6-2zm0 0l-6.7 2 6.7-2zm-.4-1.2l.4 1.1-6.7 2.1-.3-1.1 6.6-2.1zm-.4-1.7l.4 1.7-6.6 2-.6-2.3 6.8-1.4zm0 0l-6.8 1.4 6.8-1.5zm-.3-1l.3 1-6.8 1.4-.2-.9 6.7-1.6zm-1-3.8l1 3.6-6.7 1.8-1-3.6 6.7-1.8zm-1.6-5.3c.3 2 .6 3.3 1.2 4.3l-5.8 3.8c-1.6-2.4-2-5-2.3-7l6.9-1zm-105-97.1h-1.8l-.3-6.9h1.8l.3 6.9zm3.4-.2c-1.1 0-2.2 0-3.4.2l-.3-7 3.5-.1.2 7zm14.9.3c-5.1-.2-10-.4-15-.3l-.1-7c5.2 0 10.3.2 15.3.4l-.2 7zm22.6-.1c-7.7.7-15.3.4-22.6.1l.2-7c7.5.4 14.6.7 21.8 0l.6 6.9zm-.4-.4c0-.1 0-.1 0 0l.4.3h.3l-.3.1-.6-7c1 0 2.4 0 3.7.7 1.5.7 2.4 2 3 3.2l-6.5 2.7zm6.3 14.8l-6.3-14.8 6.4-2.7c2 5 4.2 9.9 6.3 14.8l-6.4 2.7zm2.1-3.2c.3 0 .2 0 0 0-.3.1-1 .4-1.6 1.3-.6.8-.5 1.6-.5 1.8 0 .3.1.3 0 .1l6.4-2.7.5 1.6c0 .7.1 1.8-.6 3a4.2 4.2 0 01-2.4 1.7l-1.8.2v-7zm-9.7.2c3.2-.2 6.5-.2 9.7-.2v7l-9.5.1-.2-7zm-11.4.6c3.7-.2 7.5-.5 11.4-.6l.2 7c-3.7 0-7.4.3-11.2.5l-.4-7zm0 0l.4 7-.4-7zm-19.8.7c6.5 0 13-.3 19.8-.7l.4 7c-6.7.3-13.5.7-20.3.7v-7zm-1.3.1h1.3v6.9h-.2-.1l-1-6.9zm1.4 1.2s0-.2-.3-.5a2.2 2.2 0 00-1.3-.6h-.1.3l1 6.8c-.3 0-1.5.3-2.8 0a5 5 0 01-3.3-3.3l6.5-2.4zm-4.9-13.4l5 13.4-6.6 2.4a1909 1909 0 00-4.9-13.4l6.5-2.4zm0 0l-6.5 2.4 6.5-2.4zm0 0l-6.5 2.4 6.5-2.5zm-1.9-5.2l2 5.2-6.6 2.3-1.9-5.1 6.5-2.4zm10 36.6h.6l1.5 6.7-.7.1-1.4-6.8zm-.5 11l-2-6.5 6.5-2.1 2 6.4-6.5 2.1zm0-.2l6.6-1.8-6.7 1.8zm0 0l6.6-1.8-6.7 1.8zm4.6 14c-1.8-4.6-3.2-9.3-4.6-13.9l6.6-2c1.4 4.6 2.8 9 4.5 13.4l-6.5 2.5zm6.2 3.7a6 6 0 01-3.5-.6c-1.5-.7-2.2-2-2.7-3.1l6.5-2.5c0 .1 0 0 0 0a1.8 1.8 0 00-1.2-.7h.2l.7 6.9zm15.2-1c-5.2.2-10.2.5-15.2 1l-.7-7c5.2-.5 10.4-.7 15.5-1l.4 7zm0 0l-.4-7 .4 7zm0 0l-.4-7 .4 7zm-.1 0l-.2-7 .2 7zm21.3-1.9c-7.1 1-14.3 1.4-21.2 1.8l-.4-7c7-.3 13.8-.7 20.6-1.7l1 6.9zm7-.7l-7 .7-1-6.9c2.5-.3 5.1-.6 7.5-.7l.6 6.9zm4-6.9c.3.5.5 1.1.6 1.8.1.7.1 1.7-.4 2.8-.6 1-1.5 1.6-2.3 1.9-.6.3-1.3.3-1.8.4l-.6-7c.2 0 .1 0 0 .1-.4.1-1 .5-1.4 1.2-.4.7-.4 1.4-.3 1.6 0 .2 0 .3 0 0l6.3-2.8zM742 425l7.6 17.2-6.3 2.9-7.7-17.3 6.4-2.8zm-5.4-3c.6 0 1.6-.1 2.7.3 1.3.6 2.2 1.6 2.7 2.7l-6.4 2.8.4.5.7.5c.5.2.9.1.6.1l-.7-6.9zm-21.7 1c7.4-.1 14.6-.3 21.7-1l.7 7c-7.5.7-15 .8-22.3 1l-.1-7zm-21.1.9c7-.6 14.1-.8 21-1l.2 7c-7 .2-13.8.3-20.6.9l-.6-7zm-1.4.2l1.4-.2.6 6.9h-.1l-.4.1-1.5-6.8zm58 42.7l.7.7c.5.3 1.2.6 2 .4L752 461c2.6-.4 4.4 1.5 5 3.4l-6.5 2.3zm2.1 5.6l-2-5.6 6.5-2.3 2 5.4-6.5 2.5zm4.5 13.5c-1-4.5-2.7-9-4.5-13.5l6.5-2.5c1.8 4.6 3.6 9.4 4.7 14.4l-6.7 1.6zm1.3-2h.4c-.1 0-.6.1-1 .7-.6.5-.7 1.1-.7 1.4v-.1l6.7-1.6c.2.8.7 3-.8 4.8-.7.8-1.6 1.2-2.2 1.4l-1.7.3-.7-7zm-15.3 1.8a308 308 0 0115.3-1.8l.7 6.9c-5 .5-10 1-15 1.7l-1-6.8zm-8 1.2l8-1.2 1 6.8-7.8 1.3-1.1-6.9zm.1 0l1 6.9-1-6.9zm-19.2 2.5a196 196 0 0019.2-2.5l1 6.9c-6.4 1-13 2.1-19.8 2.5l-.4-6.9zm-1 .1l1-.1.4 7h-.3l-1-6.9zm1.8 1.4s0-.2-.3-.5c-.2-.4-.6-.6-1-.7l-.7-.2h.3l1 6.9c-.2 0-1.5.3-2.8-.1-1.8-.6-2.7-2.1-3.1-3.5l6.6-2zm-6.2-21.1l6.2 21-6.6 2-6.3-21 6.7-2zm-1.5 2h-.1c.2-.1.8-.4 1.2-1.1.3-.6.3-1.2.3-1.2v.3l-6.6 2c-.1-.5-.3-1-.3-1.7s0-1.7.5-2.8c1.2-2.1 3.6-2.4 4.6-2.4l.4 7zm22-1.7l-22 1.7-.4-7c7.2-.4 14.5-1 21.8-1.6l.6 6.9zm15-1.4l-15 1.4-.6-7 14.9-1.3.7 6.9zm0 0l-.7-7 .6 7zm6.9-.7l-7 .7-.6-7 7-.6.6 6.9zm-37.2 43.4c.1-.7.4-1.3.9-2 .5-.6 1-1 1.6-1.2.8-.3 1.7-.3 1.8-.4l.4 7c-.1 0-.1 0 0 0l.5-.2a2.8 2.8 0 001.7-2l-6.9-1.2zm.2 2l-.1-.6 6.7-1.7.2.7-6.8 1.7zm.4 1.4l-.4-1.3 6.8-1.7.2 1-6.6 2zm1.8 5.8l-1.8-5.8 6.6-2 1.9 5.7-6.7 2.1zm4.6 14.7l-4.6-14.7 6.7-2 4.6 14.6-6.7 2zm6 3.6c-.5.1-2 .3-3.4-.4a5.1 5.1 0 01-2.6-3.2l6.7-2-.1-.2a2.4 2.4 0 00-1.8-1h.3l.9 6.8zm17.5-2.7c-5.8 1-11.6 2-17.5 2.7l-1-6.8 17.4-2.7 1.1 6.8zm26.2-3.6c-8.7.7-17.4 2.2-26.2 3.6l-1-6.8c8.7-1.5 17.6-3 26.6-3.7l.6 7zm4.5-6.4c.2.5.4 1.2.3 2a4.3 4.3 0 01-3.3 4.2 9 9 0 01-1.5.2l-.6-6.9h.3s-.6.1-1.1.7c-.6.7-.7 1.4-.7 1.7 0 .3 0 .4 0 0l6.6-2zm-6-20.8c1.9 7 4 13.9 6 20.8l-6.6 2-6.2-21 6.7-1.8zm-5.5-3.4c.1 0 1.4-.2 2.6.2 1.7.6 2.5 2 2.8 3.2l-6.7 1.9.4.6a2.7 2.7 0 002 1s.1 0 0 0l-1-6.9zm0 0l1 6.9h-.2l-.9-6.9zm-15.1 1.7c5-.5 10-1 15-1.7l.9 7-15.2 1.6-.7-7zm-30.4 4.2c10.1-2.2 20.4-3.2 30.4-4.2l.7 6.9c-10.1 1-20 2-29.6 4l-1.5-6.7zm.1 0h-.1l1.5 6.8h-1l-.4-6.9z"/>
  <path fill="#C4C3C6" fill-rule="evenodd" d="M730.2 594l3.7-8.7s-29.7-97.2-48.7-153c-18.9-55.8-31.2-82.8-31.2-82.8l-2.8 9.4 39 108" clip-rule="evenodd"/>
  <path fill="#fff" fill-rule="evenodd" d="M721.3 347c2 5.2 3.9 10.3 6 15.3l17 40.3c11 26.5 21 53.4 30 80.7 4.3 13.2 7.6 26.7 11.7 40 4.7 15.6 9.6 31 14.5 46.6.5 1.9 3.1 2.7 4.7 1.5.8-.6 0-1.4-.1-2l-7.6-24.2c-4.8-15.7-9.4-31.4-14.3-47-3-9.4-6.5-18.6-9.5-28-8.7-27-19-53.4-30.2-79.4-5.6-13-10.6-26.4-17.2-39l-.9-2.4c-.8-2.6-.8-2.6-4-2.4zM658.6 345.9c-2.1-.4-2.7 0-1.8 2.4 8 20.9 15.7 41.8 23.8 62.6 6.8 17.4 13 35.1 18 53.1 4.7 17.2 11.5 33.7 16.6 50.8 3.6 11.8 6.6 23.8 10.5 35.6 3.6 10.7 6.8 21.5 9 32.6.5 2 1.6 1.5 2.8 1.4 2 0 1-1.3 1-2.2-1.8-10-5.4-19.5-8.5-29.2-7.7-24.3-14.5-49-22.1-73.3a1754.5 1754.5 0 00-37.3-106.2c-3.3-8.5-6-17.2-9.8-25.5-.4-1-.5-2.3-2.2-2.1z" clip-rule="evenodd"/>
  <path fill="#fff" fill-rule="evenodd" d="M760.4 453.6c-1.4-4.2-1.4-4.1-5.7-4-10.4.3-20.6 2.2-31 2.3-6.8 0-13.6.8-20.4 1 .2 2.8 1.5 3.7 4.5 3.6 13-.5 26-1.3 38.9-2.4 4.4-.5 9-.4 13.7-.5zM784.2 531c-10.8 1-22 2-33.1 4.1-6.2 1.3-12.5 1.7-18.7 2.9-.8 0-2.6-.6-2.3 1.5.3 1.8 1.4 1.5 2.7 1.4 16.8-1.6 33.5-4.7 50.3-6l1.8-.1c.7-.2 2.3.6 1.8-1.1-.2-1.1 0-3-2.5-2.7zM771.4 489.8c-8 .9-15.9 1.6-23.7 2.6-10 1.4-19.9 3.5-30 4.1-.5 0-2-.6-1.7 1 .3 1.2.3 2.5 2.3 2.2 10.5-1.4 21-2.4 31.4-4 7.3-1 14.7-.8 22-2 .7-.2 2.4.6 2-1.1-.2-1.1-.2-3-2.3-2.8zM744 413.7c-.2-2.5-1.4-3-3.8-3l-49.6 2.2-2.5.1c0 2.7 1 3.7 3.8 3.5 16.8-1 33.7-1.7 50.5-2.5l1.7-.3z" clip-rule="evenodd"/>
  <path fill="#C4C3C6" fill-rule="evenodd" d="M795 580c1.7-4 3-7.7 1.6-12.2-2.7-8.4-4.9-17.1-7.3-26-2.2 3-3.4 5.5-2.2 9.4 3 9.4 5.3 19 8 28.9z" clip-rule="evenodd"/>
  <path fill="#fff" fill-rule="evenodd" d="M679.4 376.4c9 1.2 18.2.7 27.5.8 6.8 0 13.7.8 20.5.5.9 0 2.4.5 2.4-.7 0-1.5-1.3-1.8-2.8-1.8-11.7.2-23.4-.3-35.2-.8l-13-.4c-.8 0-2.3-.8-2.4.5 0 1.3 1 2.2 3 2z" clip-rule="evenodd"/>
  <path fill="#C4C3C6" fill-rule="evenodd" d="M771.8 485.9l-8.5-27.8c-2 2.9-3.2 5.3-2 8.9 2 5.5 4.1 11.1 5.3 17 .7 3.2 3.2.7 5.2 1.9zM731.3 381.6c-1.8 3.2-3.3 5.8-1.3 9.6 2.2 4.4 3.5 9.4 5.3 14 .5 1.6 3.6 2.6 4.8 1.6.6-.5.1-1 0-1.5l-8.8-23.7zM747.9 419.3c-2.8 3.7-3.2 7-1 11 2.3 4.4 3.9 9.2 5.5 14 .9 2.5 2.5 1.4 3.7 1.1 1.3-.3.2-1.5 0-2.2l-8.2-23.9zM774.7 499.5c-2.4 3.5-2.2 7-.8 11a129 129 0 014.3 15.9c.6 2.6 2.2 1.7 3.4 1.5 1.9-.4.5-1.7.2-2.4-3-8.4-4.2-17.4-7-26zM726.6 371c-3.5-7.1-5.6-15-8.8-22.5-2 4-2.4 7.6-.3 11.4 1.4 2.6 2.6 5.4 3.4 8.3.9 3 2.4 4.1 5.7 2.9zM804.7 575c-4.7.3-6.1 2.4-7.1 9.5 5.5-1.2 4.4-6.3 7.1-9.5zM737.7 587.6c-4 .3-4 .3-5.5 6.2 3.5 0 3.5-.1 5.5-6.2z" clip-rule="evenodd"/>
  <path fill="#C4C3C6" stroke="#000" stroke-width="13.2" d="M588 361.3a86.8 86.8 0 10-167.7-45 86.8 86.8 0 00167.7 45z"/>
  <path fill="#000" d="M511.2 436.4c50-7 84.7-54 77.5-105a92.3 92.3 0 00-103.5-79.5c-50 7-84.7 54-77.5 105a92.3 92.3 0 00103.5 79.5z"/>
  <path fill="#C4C3C6" d="M505.9 423.3c47.6 0 86.2-36.8 86.2-82.2 0-45.3-38.6-82.1-86.2-82.1s-86.2 36.8-86.2 82.1c0 45.4 38.6 82.2 86.2 82.2z"/>
  <path fill="#fff" fill-rule="evenodd" d="M515.8 422.4c42.5-.6 76-37.7 75-82.8-1-45-36.1-81-78.6-80.4-3 0-5.8.3-8.7.7 42 0 76.5 35.7 77.5 80.4 1 42-28.1 77-66.4 82.1h1.2z" clip-rule="evenodd"/>
  <path fill="#000" fill-rule="evenodd" d="M424.8 342.4a75 75 0 0155.9-73.2 75.2 75.2 0 00-49.2 71.1 74 74 0 0073.2 75c6 0 11.8-.7 17.3-2a71.5 71.5 0 01-24 4.1 74 74 0 01-73.2-75z" clip-rule="evenodd"/>
  <path fill="#fff" fill-rule="evenodd" d="M534.6 345.5l-48.8 27.7c-2.6 1.6-6-.5-7.4-4.6l-.6-3-1.5-58.5c.1-4.4 3.3-7.9 7.1-7.8.9 0 1.7.2 2.5.6l51.4 31c2.4 1.7 2.7 6.3.9 10.4a9 9 0 01-3.6 4.2z" clip-rule="evenodd"/>
  <path fill="#000" fill-rule="evenodd" d="M534.3 350.2L486 377.7c-2.6 1.5-6-.6-7.3-4.6-.4-1-.6-2-.7-3l-1.5-58.3c0-4.3 3.2-7.8 6.9-7.7.8 0 1.7.3 2.4.7l51 30.7c2.4 1.8 2.9 6.4 1.1 10.4-.8 2-2 3.5-3.5 4.3z" clip-rule="evenodd"/>
  <path fill="#fff" fill-rule="evenodd" d="M494.3 315.3a7 7 0 00-10.4 6V361a7 7 0 0010.4 6l34.6-19.8a7 7 0 000-12l-34.6-20zM266.3 259.6c-.2 0 .4 44.7 1.4 100.1v1.7l.9 46c5 29.6 9.5 28.3 11.3-19.5 1.4-34.6 3.2-14.3 5.2 7.4 1.4 15.5 2.8 31.8 4.2 29.3l-2.5-165.4-20.5.4zm21.9-.2l1.5 164.3c1.5-2 3.1-2 4.8-2.1l1.7-.1-2.5-162.2-5.5.1zm8.4 162l-1.5-162h5.6l.5 50.6 1 99-.8 3.2c-1.6 5.6-3.2 8.1-4.8 9.2z" clip-rule="evenodd"/>
  <path fill="#000" fill-rule="evenodd" d="M207.6 413.8c-5.6-5.5-27.4-6.5-34 4.5-3 3.4-2.9 19.1-2.7 22.7-.8 3.1 2.8 7.9 4.6 9.7 1.9 2 1.8 3.7.9 5.8l-2.9 3.4c-3.2.8-4.3 2-7.6 2.5-8.8 1.6-12.8 8.8-17.6 14.5-3.9 4.5-1 9.9-.2 14.8 1 5.9.8 11.9-.4 17.7-1 4.8-.5 81.7-3 88.5C138.4 615 126.6 645 134 651c5.6 4.8 15.6 4.5 32.3 3 6.2-.5 27.2-20.9 34-18.4C206 638 224 647.3 231 648c22.8 2.5 41.2-13 44.7-20 3.3-6.5 1.6-8.9-3.7-11.6-2.2-1.1-7.4 1.8-9.2-2.3-3-6.6 4.3 2 5.8-9.3 1.6-12.3 1.1-54.4-.6-66-.8-5.7-34.5-11.6-33.9-17 .6-5.6-.5-4.2.1-8 .3-2 8.9 4.8 13.3 7.8 4.1 2.6 7.8 6 14.5-2.3 5-6.1 18.8-14.5 26.7-25.5 4-5.6 14-8.4 15.7-12.8 1.6-4-9.7-14.6-10.4-16.2-1.4-3.3-13.1 4.3-15 7-2 2.6-3.7 7.7-4.8 8.7-4.2 3.9-22.2 13.3-22.2 13.3s-16.4-15.2-17.5-17c-1.8-6.4-8-9-14-11.5-6.2-2.5-8-5.4-13.8-8.8 0-2.8 3.2-4.2 3.9-7l.2-.2c2.5-.1 2.4-2.2 3-3.8-1.1-3.1 2.3-4.8 2.7-7.7a34.6 34.6 0 00-9-24z" clip-rule="evenodd"/>
  <path fill="#C4C3C6" d="M161.3 533.2l2.5 55.5 11-8.7-13.5-46.8z"/>
  <path fill="#fff" fill-rule="evenodd" d="M192.4 456c-4.7-7.6-6.2-14.4-6.2-14.4s-.2 4.9.2 8.5a36 36 0 01-4.3-10.3c-.1 2-.5 2.7-.2 5.9a30.8 30.8 0 01-2.4-6.7c-.8 2-.5 2.2-1 3.7-.7-7.1 1.9-12.3 7.5-15.5l6.8-4.1c.1-.1-9.3 7.3-.4 33z" clip-rule="evenodd"/>
  <path fill="#C4C3C6" fill-rule="evenodd" d="M199.1 560.9a473.5 473.5 0 01-27-90c.4-.3 8.5-3.8 8.5-3.8s5.2 16.5 13.9 26.6a81.2 81.2 0 0023.4 17.2l-1 13.8-27.2-20.3s24.7 22.4 28.8 25.7c.5.3-1.6 16-1.6 16l-9.1-11.3a861.8 861.8 0 00-16.9-20.7c4 6.4 20.6 36 20.6 36l-4.2 3.6-.1.1-.5.4c-1.3 1.1-5 4 1.3 1.6a260 260 0 0030.5-15.8c10.4-7 24.3-3.4 24.3 14 0 11.8-1.9 29-3 39.4-.5 4.9-.9 8.2-.8 8.9.1 1.8-3.6 2.3-9.3-1.5-.8-.6-1.7.2-2.9 1.1-1.3 1.1-3 2.5-4.9 1.8v-26-5.3c0-3.4-3.4-4.6-6-3.4-7 3.4-14.1 6.8-20.9 10.7l-14.8-3.4s-4.9-10.1-7.1-15.2c-11-21.9-25.2-67.4-25.7-85.4 0-2 .5-5.1 2-5.3.8 9.5 7.7 44.2 29.7 90.5zm-38.6-80.7c-.2-3.4.5-7.8 4-8.4-2 21.8 15.7 68.6 24.3 91.4 2.7 7 4.5 11.8 4.5 12.7.2 7.5-4.6 5.8-4.6 5.8S176.1 556.9 172 545a334.3 334.3 0 01-5.3-17.9 260.3 260.3 0 01-6.2-47z" clip-rule="evenodd"/>
  <path fill="#fff" d="M158.6 481a223.7 223.7 0 0029 99.5c2.1 3.7 3.9.4.7-5-7.3-12.4-29.7-76-27-101 0 0-2.8 4.7-2.7 6.5zM180.5 469.4l-7.2 3 .5 3.4c3.5 14.7 14.9 55 14.4 43.9-.7-16.7-3.1-33.2-7.1-49.4a2 2 0 00-.6-.9zM218 533.2l.2-3-27.2-23.7 27 26.7zM250.7 550.7c-7.7 3-36 6.8-36 6.8s25.5-13.7 33-15.2c7.6-1.4 9.3 5.8 3 8.4z"/>
  <path fill="#C4C3C6" d="M196.8 615.3l-10-27.4 11-4 14 3.6s0 12.7-2.3 18.5c-2.3 5.8-12.7 9.3-12.7 9.3z"/>
  <path fill="#fff" d="M183 599l5.2 14.8-20.5 12.9 15.2-27.7zM244.9 593.8l13-2.6-.4-21.3-12.6 23.9zM265.5 628s-14.3 6.7-20.8 8c-6.4 1.4-5.6 2-15-2-1.7-.6-2 4 3.7 6 3.8 1.4 7.6 1.4 11.3 0 9-2.4 15.8-4.9 20.1-7.4 6-3.5 7.9-4 6.4-10.6l-5.7 6z"/>
  <path fill="#fff" d="M243.7 612.3c-1 .6-2.6 2.1-1.6 7.8 1 5.5 1 10.7-.3 11-4.6 1-3.3 2.7-10 0-1.2-.4-1.4 2.7 2.7 4 2.7 1 5.4 1 8 0a63.1 63.1 0 0014.4-5c4.2-2.3.5-3 .5-3-3 1.3-7.2-2.8-7.2-3.1.2-2.1 1-4-.9-7l-1.2-2.6c-2.2-1.8-3.7-2.6-4.4-2.1z"/>
  <path fill="#fff" fill-rule="evenodd" d="M178.5 437.7c-.2-.3 0-1 0-5.1 0-10.6 4-15.4 14.7-15.4s16.2 7.8 16.2 18.5c0 4.3-4.4 11.3-13.2 21 1.4-2 2.7-4.3 3.7-6.7l-2.7 3.1-1.5 1c.7-.8 2.4-5.5 4.1-11.7-2 3.8-3.3 5.2-4.5 6.7l-2 2.4c1.5-2.6 1.5-3.2 1.5-4.3 0-.9 0-2.2.8-5.4l-1.8 3c-1.1 2-1.8 3-2.9 6.3-2-3.1-3.8-5-5.4-6.7l-2.3-2.6c-3.3-4-4.4-3.7-4.7-4zm19.5 46.8c-4.5-7.6-2.3-22-1.2-24.3a70.7 70.7 0 0123.2 11.6c6.8 5.2 14.1 12.6 22.5 21.2l7.3 7.5c13.7-7.4 16.4-9 23.4-13.7 7-4.6 11.6 3.5 5.8 8.1s-8.7 7-15 11.6c-6.4 4.6-10.5 8-10.5 8l-7-5.7-23-19.7s-4.7-3.5-4.7 1.2l.2 9.9v1.2c0 .3-15.4-7.3-21-17z" clip-rule="evenodd"/>
  <path fill="#000" fill-rule="evenodd" stroke="#000" stroke-linecap="round" stroke-linejoin="round" stroke-width=".9" d="M307.4 418.5l.5 31.5a8 8 0 01-7.8 8l-7.9.1.3 13.8a6 6 0 01-5.9 6 6 6 0 01-6-5.8l-.3-13.8-7 .2a8 8 0 01-8.2-7.8l-.5-31.4 42.8-.8z" clip-rule="evenodd"/>
  <path fill="#C4C3C6" d="M303.9 439.4l-35 .6c-.3 0-.5 1.6-.4 3.5 0 2 .2 3.5.4 3.5l35.1-.6c.2 0 .4-1.6.3-3.5 0-2-.2-3.5-.4-3.5zM290.4 473.3L290 451c0-.1-1.5-.2-3.5-.2-1.9 0-3.4.2-3.4.3 0 0 3.7 15.3 3.8 21 .1 5.7 3.5 1.5 3.5 1.3z"/>
  <path fill="#fff" d="M289.8 473.3l-.2-14s-2.1 1.5-2.6 3.1c-1 3.3-.7 8.2-.6 10.4 0 3.2 3.4.6 3.4.5z"/>
  <path fill="#C4C3C6" d="M298.4 422.2l.2 9.4-3-9.4h-5.2l.1 4.8-1.5-4.7-20.5.4c-.2 0-.3 3.3-.3 7.5.1 4.2.3 7.5.6 7.5l35-.6c.3 0 .4-3.2.3-7.3v-.2c0-4.2-.3-7.5-.5-7.5h-5.2z"/>
  <path fill="#fff" fill-rule="evenodd" d="M304.2 428.3c0-3.6-.3-6.2-.5-6.2h-5.2l.2 9.6c2-1 3.9-2.1 5.5-3.4zm-35.9 4.3a140.2 140.2 0 01.2-10l20.6-.3 1.5 4.9v-5h5l3 9.5c-4.4 2-9.8 3.3-15.5 3.4-5.4.1-10.5-.8-14.8-2.5z" clip-rule="evenodd"/>
  <path fill="#fff" d="M290.1 469.5c-2.6.5-4 1.9-4.9 2.6a19 19 0 00-2.8 6c.4 0 .2.2-.3.5.2 3.5 1.4 6.7 3.5 9.2 4.8-1.6 8.9-2.8 11.2-4.5 2.6-1.9 2.3-4.4 0-4.5-1.5.5 0-2.1 0-2.5-.1-1.4-1.2-.8-2.6-1-.8 0 1.5-2 .5-2.4-.6-.3-1.6-.5-2-1-.4-.4 1.8-1.4.9-2-.9-.6-2-.7-3.5-.4z"/>
  <path fill="#fff" fill-rule="evenodd" d="M164.6 608c2 2 1.4 5-.5 11.8-.9 3.4-2.8 5.3-4 9.6-1.1 4.3 1.2 6 .3 9.4-1.9 6.8-7.3 11.3-12.3 10-5-1.3-7.4-8-5.6-14.8.6-2 6.6-17.7 10.8-25 3-5 9.3-3.1 11.3-1z" clip-rule="evenodd"/>
  <path fill="#000" fill-rule="evenodd" d="M155.2 634.2c-5-1.8-9.6-3.7-13.2-5.5a127.5 127.5 0 0127.6 9.9c-4.1-1-9.1-2.5-14.4-4.4zM151.6 625.9c-4.4-1.6-8.5-3.3-11.7-5a116.7 116.7 0 0124.6 8.9c-3.7-.9-8.1-2.2-12.9-3.9zM149.7 619c-3-1-5.6-2.2-7.7-3.2a77.1 77.1 0 0116.2 5.8c-2.4-.6-5.3-1.4-8.5-2.6z" clip-rule="evenodd"/>
  <path fill="#000" d="M304 667.7c0 2.8-2 8.5-11 11.8a62.3 62.3 0 01-19.2 2.9c-10.6 0-21.6-2.4-26.8-7.6a10 10 0 01-3.4-7.1l-8.6-55c0-13.3 20.6-19.4 38.8-19.4 9.5 0 18.6 1.4 25.3 4.2 11.5 4.8 13.4 11.4 13.4 15.2l-8.6 55z"/>
  <path fill="#C4C3C6" fill-rule="evenodd" d="M305.6 615.3c-1.9 2.5-4.9 5-9.8 6.8-6.4 2.2-14 3.3-21.5 3.3-11.8 0-24.1-2.8-30-8.8l-1.2-1.4v.7l7 46c0 2.4 1.1 4.4 2.6 6 4.3 4.4 13.2 6.4 21.6 6.4 5.4 0 10.8-.8 15.5-2.4 7.3-2.8 8.8-7.6 8.8-10l7-46v-.6z" clip-rule="evenodd"/>
  <path fill="#fff" d="M298.5 624.5c.2 2.5.2 5.2.1 8 0 20-4.2 32.1-6.3 34.8-2.2-2.7-6.4-14.7-6.4-34.8v-4a45.3 45.3 0 0012.4-3.9l.2-.1z"/>
  <path fill="#000" d="M247.3 616.7a283 283 0 007.5 31.6 177.8 177.8 0 00-4.3-29.2 6.5 6.5 0 01-3.2-2.3zM252.7 616.7a70.8 70.8 0 004.4 15.7 45.3 45.3 0 00-1.5-14.7c-.8 0-1.5-.3-2.3-.6a5 5 0 01-.5-.3z"/>
  <path fill="#000" d="M243.5 621c1 .6 2.8 21.3 10.5 36.6 7.6 15.4 19.6 16.4 17.9 19-1.1-1.1-20.5-3-22.4-12.2-.8-4-4.7-16.8-6-25.8-.8-5.6 0-17.6 0-17.6z"/>
  <path fill="#fff" d="M273.8 607.2c-13.9-.5-22 3.4-25 5.2 2 1.7 10.6 5.2 25 5.2 14.3 0 23-3.5 24.8-5.2-1.9-1.8-10.5-5.2-24.8-5.2z"/>
  <path fill="#000" d="M681.7 132.2s23.9-13.9 28.1-11.4c4.3 2.5 5.3 11.4-5.4 24.6-10.7 13.2-31.8 21.4-31.8 21.4-2.2 5-7.4 8.2-13 7.4-13-1.9-23.2-3.3-30.3-4.5-3.5-.6-19-1.9-22.5-4-3.7-2.2-11.4-6.4-12.6-10.8-.8-2.5 0-7 .2-9 0 0 10.6-2.5 14.3-3 3.4-.4-2.3-8.8 2.8-7.5 5.1 1.3 13.7 14.4 13.7 14.4l39 .5 17.5-18.1z"/>
  <path fill="#fff" d="M660.6 157.4s1.8 4.9.2 7c-1.6 2.2-7.7 5.3-10.8 4.5-9-2.4 6.2-4.4-3-9-5.7-3.3 13.5-2.4 13.5-2.4h.1z"/>
  <path fill="#000" d="M676.3 191.1c-.1-5.2-1.1-9.9 0-15 1.2-6.2 1.4-12.7.4-19-.8-5.2-3.8-11 .1-15.8 5-6 9.2-13.8 18.3-15.5 3.4-.6 3.8-2.9 7.2-3.8l1.6-1c2-2.2 5.3-.3 7.2-2.6 1-2.3 3.8-4.4 1.8-6.6-1.8-1.8-4.2-4-3.3-7.3-.2-3.9-2.9-7.2-2.2-11.2a9.2 9.2 0 01.7-11.9c4.3-7.5 22.2-12.4 28-6.6a29.6 29.6 0 018.4 22.5c-.4 3.2-4 4.9-2.8 8.3-.6 1.7-.4 4-3 4l-.3.3c-.7 3 .2 6 .3 8.9 6 3.6 12 5.3 18.5 8s13.4 5.8 14.8 13.4c2 10.6 2.3 25.2 3.4 36l-2 44c.3 2.8-31.4 2.6-47 0-28.6-4.8-50-25.5-50-29z"/>
  <path fill="#fff" d="M687.6 137c-3 5-4 14.6-7.3 16.6-3.2 2-5 5.1-10.4 7.3 0 0-2.6-3.7 3.1-12.5 5.8-8.7 14.6-11.4 14.6-11.4z"/>
  <path fill="#C4C3C6" fill-rule="evenodd" d="M705.4 128.6a84.5 84.5 0 001.8 16.9c2.7 14.6 6.8 36.6 10 48.7l9.3-5.2c-.2-3-2.2-14.7-4.3-27.5a908.2 908.2 0 01-5.6-36.3c-2.6-1.8-7.8 1.3-11.2 3.4zm-4.5 2.6c-2 .3-2.2 3-2 5l.2 1.6c.8 7.9 4 37 9.7 53.5l4.2-.3a424.5 424.5 0 01-12-59.8z" clip-rule="evenodd"/>
  <path fill="#C4C3C6" d="M751.2 180s-18-13.9-24.7-23.3c-6.7-9.5-9.4-26-9.4-26s2 27.7 5.2 35.3c3.2 7.7 12 20.6 12 20.6l17-6.7z"/>
  <path fill="#fff" fill-rule="evenodd" d="M700 151.5c2.1 13.3 5 26.5 8.8 39.4l2.5-.2A313.1 313.1 0 01699 133c-1 1-1 3-.8 4.7l1.8 13.8zm-4.8-6.3a474.6 474.6 0 00-1.3 44.9l7.6-.1-6.3-44.8z" clip-rule="evenodd"/>
  <path fill="#fff" d="M713 126.5L717 191 705 128.8l8-2.3zM739.9 95.8l.3-2c0-2.2 0-4.5-.5-6.7-.7-3.4-2.3-7-5.8-8.4-.5-.1-1-.1-1.4.1-3.7-4.4-13.8-2-17.7 2a5.6 5.6 0 00-2 4.6l-.4.8v.8l-.2.3c-.5.7-.4 1.6.2 2.1.5.4 1.1.4 1.6.1 1.6-.8 4.7.8 6.1 1.2 3 .9 7.4-.7 10.5-.7.6 0 1.2 0 1.8.2 1.5.6 1.7 2.6 2 4.2.7 2.6 2.4 4.8 4.8 6.3l.7-4.9z"/>
  <path fill="#fff" fill-rule="evenodd" d="M718.1 104.1c1.7.4 3.5-.8 4-2.6.6-1.8-.3-3.7-2-4.4l-2 7zM762.1 143.9c-4.8 8-15.3 11-24.1 6.7a18.6 18.6 0 01-9.6-23.2l33.7 16.5z" clip-rule="evenodd"/>
  <path fill="#000" d="M751 160.9s10.8-25.5 15.6-26c5-.7 11 5.9 10.5 22.8-.6 17-12.5 36.3-12.5 36.3 1.3 5.3-1 11-6 13.7-11.5 6.4-20.5 11.3-26.8 14.6-3.2 1.7-16.4 10-20.4 10.4-4.3.5-13 1.7-16.6-1-2.1-1.6-4.2-5.7-5.2-7.3 0 0 9.4-8.8 12-11.5 2.5-2.4-2.5-10.6 2.4-12.7 4.9-2 12.4 8.7 12.4 8.7l31.5-23 3.1-25z"/>
  <path fill="#fff" d="M749 195.9l4.9 5.1a7.1 7.1 0 01-4.1 6.9c-8.3 4.2-17.4 7.7-27.4 10.4-6.4 1.3-10.5 1.2-12.3-.4l39-21.8v-.2zM708.5 212c-1.1.2-2 0-2.3-.5-.9-1.5-1.3-3.2-1.4-5 .1-1.3.6-2 1.4-2.4l4.7 6.5-2.4 1.5zM616.4 151.4c-1 .1-2-.1-2.3-.6-.8-1.5-1.3-3.2-1.3-5 .1-1.3.6-2 1.4-2.5l4.7 6.6-2.5 1.5z"/>
  <path fill="#fff" d="M714 213.4c2.9 1.4 5.9 6.8 6 9.5-3.3 1.7-6.2 3.3-8.5 3.8l-.3.2c-1.6.7-3.3 1.2-5.2 1.5-1.3.1-2 0-2.4-.5l4.2-2c-.2-.3-.2-.6-.1-1-.7.3-1.5.4-2.5.6-5.3.7-8.7.2-10-1.4 0 0 10.6-9 11.4-9.5 1.8-1.3 4.6-2.6 7.4-1.2zM759 160.6l8.7-2.9c.6 6.1.3 11.6-1 16.4-.3 1-3.5 1.8-4 3-1.3 3.6-.6 8.3-3.6 13.5 0 0-3.2 2.1-4-8.8-1-10.8 3.8-21.2 3.8-21.2z"/>
  <path fill="#fff" fill-rule="evenodd" d="M518.1 525.4h-5.5c9 .1 15.8.3 25 .6v28.6l-.3 5c.3 3-174.2.3-175 1.2h-28.7l-.4-2.9 22-.4 29-.5c3.8 0 5.4-1.5 5.4-5v-18c0-3.4-1.6-4.7-5.6-4.7-18.3.3-42.4 1-60.8 1.4-18.3.4-21.4-4-21.4-4.3l45.1-.4c4.6-.1 6-1.5 6-5.5v-17.4c-.1-3.6-1.7-5-5.8-5-7.2.2-12.3-2-12.3-3.4h.8c19.1-.4 29-.8 48.1-1 4.2-.1 13-1 17.5-1h28.4c9.7 0 17.4 0 31-1 0 0-2.9.2-4 1-2-4.6-7.7.1-7.7.1l8-2.1 9.7 2-2.2 5.5-5-.3h-22c-4 0-5.6 1.4-5.6 4.9v18c0 4 86.3 4.6 86.3 4.6zm-115.4 4.2c-3.9 0-5.4 1.4-5.4 5.1v16c0 3.9 1.5 5.3 5.7 5.3h26.4l27.2.2c3.8 0 5.3-1.4 5.4-5.1v-16.3l-5.2-5-54-.2zm73.3-1.2c-4.3 0-5.7 1.2-5.7 5.1l-.1 16.2c0 3.8 1.4 5 5.8 5l26.1.1 24.8.2 5.6-4.6.2-16.7c0-3.6-1.4-4.8-5.6-4.9l-51.1-.4zm-54.3-29h-.3l-57.7 1c-4.1 0-5.8 1.5-5.8 5l.2 16.5 6.8 3c9.3-.1 18.4.2 27.8 0 9.6-.1 19.3.2 28.9 0 4.4 0 5.7 0 5.7-3.6v-16.9c0-3.5-1.4-4.8-5.3-5h-.3z" clip-rule="evenodd"/>
  <path fill="#000" fill-rule="evenodd" d="M522.7 522l-5.5-.2 27.3.7V551h.5c.4 2.9 2 3.7 6.1 3.8a12484.2 12484.2 0 0131.3.3v2.1s-214.7-.9-215.6 0h-28.6c0-1-.2-1.9-.3-2.8l22-.5 28.8-.5c4 0 5.5-1.5 5.5-4.9v-18c0-3.5-1.6-4.8-5.6-4.7-18.3.2-67.9 1-86.2 1.4l-2.3-3.5c0-.3 45.3-1.1 51.4-1.3 4.6 0 6.1-1.4 6.1-5.4l-.1-17.5c0-3.6-1.7-5-5.8-4.9l-16.8.5-.1-4h.8l52.7-1c4.2 0 5.8-1.5 5.8-5v-17.5c0-1.2-.2-2.2-.5-3h6.2V484c0 4 1.6 5.4 6 5.4h57.4l4.8-4.2v9.3h-26c-4 0-5.6 1.5-5.6 5v18c0 4 1.5 5.3 6 5.3h57.1a8 8 0 004.3-.7h19zM407.3 526c-3.8 0-5.3 1.5-5.4 5.2v16c0 3.8 1.5 5.2 5.7 5.2h26.5l27.1.2c3.8 0 5.4-1.4 5.4-5l.1-16.3-5.3-5-54-.3zm73.3-1.2c-4.3 0-5.6 1.3-5.7 5.1v16.3c0 3.7 1.3 5 5.7 5h26.1l27.2.3 5.5-4.6.2-16.8c0-3.5-1.4-4.8-5.5-4.9l-53.5-.4zM426.3 496h-.2c-19.3.2-38.5.5-57.8.9-4.1 0-5.7 1.5-5.7 5v16.5l6.6 5.4 28-.5 28.8-.4c4.4 0 6-1.4 6-5v-17c0-3.4-1.5-4.8-5.4-4.9h-.3z" clip-rule="evenodd"/>
</svg>