<svg width="640" height="480" viewBox="0 0 640 480" fill="none" xmlns="http://www.w3.org/2000/svg">
<g clip-path="url(#clip0)">
<path fill-rule="evenodd" clip-rule="evenodd" d="M315.987 201.557H310.57V196.14H315.987V190.71H310.57V185.28H315.987V179.863H321.417V174.433H315.987V179.85H310.57V174.433H315.987V169H310.557V174.43H305.14V179.847H299.71V174.43H294.28V179.847H288.863V174.43H294.28V169H288.849V174.43H283.433V169H278V174.43H283.43V179.847H278V185.277H283.43V190.707H278V196.137H283.43V201.554V201.567H288.847V206.984H294.277V201.567H299.707V206.984H305.138V201.567H310.554V206.984H315.984V201.567H321.415V196.137H315.984V201.557H315.987ZM283.43 201.57V206.987H278V201.556H283.43V201.57ZM299.709 174.43V169H305.139V174.43H299.709ZM315.986 185.277V190.707H321.416V185.277H315.986ZM288.847 179.86H283.43V185.277H288.847V179.86ZM288.862 206.987V212.417H294.279V206.987H299.709V212.417H305.139V206.987H310.569V212.417H315.986V206.987H321.416V212.417H315.986V217.847H310.556V212.417H305.139V217.847H299.709V212.417H294.279V217.847H288.848V212.417H283.432V217.847H278.002V212.417H283.432V206.987H288.862ZM310.555 196.14V190.71H305.139V196.14H310.555ZM299.709 196.14V201.556H305.139V196.14H299.709ZM294.278 196.14H299.708V190.71H294.278V196.14ZM294.277 196.14H288.861V201.556H294.277V196.14ZM294.277 185.277H288.861V190.707H294.277V185.277ZM299.708 185.277V179.86H294.278V185.277H299.708ZM305.142 185.277H299.712V190.707H305.142V185.277ZM305.142 185.277H310.559V179.86H305.142V185.277ZM288.847 190.707V196.137H283.43V190.707H288.847ZM326.847 174.43H321.416V169H326.847V174.43ZM321.416 185.277H326.847V179.846H321.416V185.277ZM326.847 196.14H321.416V190.71H326.847V196.14ZM321.416 206.987H326.847V201.556H321.416V206.987ZM321.416 217.847H326.847V212.417H321.416V217.847Z" fill="#4038FF"/>
<path fill-rule="evenodd" clip-rule="evenodd" d="M502.987 182.557H497.57V177.14H502.987V171.71H497.57V166.28H502.987V160.863H508.417V155.433H502.987V160.85H497.57V155.433H502.987V150H497.557V155.43H492.14V160.847H486.71V155.43H481.28V160.847H475.863V155.43H481.28V150H475.849V155.43H470.433V150H465V155.43H470.43V160.847H465V166.277H470.43V171.707H465V177.137H470.43V182.554V182.567H475.847V187.984H481.277V182.567H486.707V187.984H492.138V182.567H497.554V187.984H502.984V182.567H508.415V177.137H502.984V182.557H502.987ZM470.43 182.57V187.987H465V182.556H470.43V182.57ZM486.709 155.43V150H492.139V155.43H486.709ZM502.986 166.277V171.707H508.416V166.277H502.986ZM475.847 160.86H470.43V166.277H475.847V160.86ZM475.862 187.987V193.417H481.279V187.987H486.709V193.417H492.14V187.987H497.57V193.417H502.986V187.987H508.416V193.417H502.986V198.847H497.556V193.417H492.14V198.847H486.709V193.417H481.279V198.847H475.849V193.417H470.432V198.847H465.002V193.417H470.432V187.987H475.862ZM497.555 177.14V171.71H492.139V177.14H497.555ZM486.709 177.14V182.556H492.139V177.14H486.709ZM481.278 177.14H486.708V171.71H481.278V177.14ZM481.277 177.14H475.861V182.556H481.277V177.14ZM481.277 166.277H475.861V171.707H481.277V166.277ZM486.708 166.277V160.86H481.278V166.277H486.708ZM492.142 166.277H486.712V171.707H492.142V166.277ZM492.142 166.277H497.559V160.86H492.142V166.277ZM475.847 171.707V177.137H470.43V171.707H475.847ZM513.847 155.43H508.416V150H513.847V155.43ZM508.416 166.277H513.847V160.846H508.416V166.277ZM513.847 177.14H508.416V171.71H513.847V177.14ZM508.416 187.987H513.847V182.556H508.416V187.987ZM508.416 198.847H513.847V193.417H508.416V198.847Z" fill="#4038FF"/>
<path fill-rule="evenodd" clip-rule="evenodd" d="M153.681 18.5564H148.264V13.1398H153.681V7.70967H148.264V2.2796H153.681V-3.13702H159.111V-8.56709H153.681V-3.15048H148.264V-8.56709H153.681V-14.0002H148.251V-8.57013H142.834V-3.15351H137.404V-8.57013H131.974V-3.15351H126.557V-8.57013H131.974V-14.0002H126.543V-8.57013H121.127V-14.0002H115.694V-8.57013H121.124V-3.15351H115.694V2.27699H121.124V7.70707H115.694V13.1371H121.124V18.5538V18.5672H126.541V23.9838H131.971V18.5672H137.401V23.9838H142.832V18.5672H148.248V23.9838H153.678V18.5672H159.109V13.1371H153.678V18.5564H153.681ZM121.124 18.5693V23.9864H115.694V18.5559H121.124V18.5693ZM137.403 -8.57004V-14.0001H142.833V-8.57004H137.403ZM153.681 2.27682V7.7069H159.111V2.27682H153.681ZM126.541 -3.14045H121.124V2.2766H126.541V-3.14045ZM126.555 23.9869V29.417H131.971V23.9869H137.401V29.417H142.832V23.9869H148.262V29.417H153.679V23.9869H159.109V29.417H153.679V34.847H148.249V29.417H142.832V34.847H137.401V29.417H131.971V34.847H126.541V29.417H121.125V34.847H115.694V29.417H121.125V23.9869H126.555ZM148.25 13.1397V7.70967H142.833V13.1397H148.25ZM137.403 13.1395V18.5561H142.833V13.1395H137.403ZM131.972 13.1397H137.402V7.70967H131.972V13.1397ZM131.972 13.1395H126.555V18.5561H131.972V13.1395ZM131.972 2.27682H126.555V7.7069H131.972V2.27682ZM137.402 2.2766V-3.14045H131.972V2.2766H137.402ZM142.833 2.27682H137.403V7.7069H142.833V2.27682ZM142.833 2.2766H148.25V-3.14045H142.833V2.2766ZM126.541 7.70713V13.1372H121.124V7.70713H126.541ZM164.541 -8.57004H159.111V-14.0001H164.541V-8.57004ZM159.111 2.2766H164.541V-3.15391H159.111V2.2766ZM164.541 13.1397H159.111V7.70967H164.541V13.1397ZM159.111 23.9864H164.541V18.5559H159.111V23.9864ZM159.111 34.847H164.541V29.4169H159.111V34.847Z" fill="#1F242C"/>
<path fill-rule="evenodd" clip-rule="evenodd" d="M326.847 103.417V108.847H278V103.417H326.847ZM326.848 97.9916V92.5641H278.001V97.9916H326.848ZM326.848 87.1373V81.7098H278.001V87.1373H326.848ZM326.848 70.8543V76.2818H278.001V70.8543H326.848ZM326.848 65.4275V60.0001H278.001V65.4275H326.848Z" fill="#1F242C"/>
<path fill-rule="evenodd" clip-rule="evenodd" d="M263.849 468.417V473.847H215.002V468.417H263.849ZM263.847 462.991V457.564H215V462.991H263.847ZM263.847 452.137V446.71H215V452.137H263.847ZM263.847 435.854V441.282H215V435.854H263.847ZM263.847 430.427V425H215V430.427H263.847Z" fill="#4038FF"/>
<path fill-rule="evenodd" clip-rule="evenodd" d="M530.847 359.417V364.847H482V359.417H530.847ZM530.848 353.992V348.564H482.001V353.992H530.848ZM530.848 343.137V337.71H482.001V343.137H530.848ZM530.848 326.854V332.282H482.001V326.854H530.848ZM530.848 321.427V316H482.001V321.427H530.848Z" fill="#1F242C"/>
<path fill-rule="evenodd" clip-rule="evenodd" d="M139.847 349.43V344H91V349.43H139.847ZM139.847 365.715V371.145H91V365.715H139.847ZM139.847 382.001V376.57H91V382.001H139.847ZM139.849 392.847V387.417H91.0016V392.847H139.849ZM139.847 354.861V360.291H91V354.861H139.847Z" fill="#1F242C"/>
<path fill-rule="evenodd" clip-rule="evenodd" d="M598.251 327.93H603.678C603.678 300.953 581.808 279.082 554.831 279.082V284.51C578.812 284.51 598.251 303.949 598.251 327.93ZM587.396 327.93H592.823C592.823 306.947 575.814 289.937 554.831 289.937V295.365C572.815 295.365 587.396 309.946 587.396 327.93ZM581.969 327.93H576.541C576.541 315.941 566.82 306.22 554.831 306.22V300.792C569.819 300.792 581.969 312.942 581.969 327.93ZM565.686 327.93H571.114C571.114 318.937 563.824 311.647 554.831 311.647V317.075C560.826 317.075 565.686 321.935 565.686 327.93ZM554.831 327.93H560.259C560.259 324.931 557.83 322.502 554.831 322.502V327.93Z" fill="#1F242C"/>
<path fill-rule="evenodd" clip-rule="evenodd" d="M121.428 135.001H116C116 161.978 137.87 183.848 164.847 183.848V178.42C140.866 178.42 121.428 158.982 121.428 135.001ZM132.282 135H126.854C126.854 155.983 143.864 172.992 164.847 172.992V167.565C146.863 167.565 132.282 152.984 132.282 135ZM137.712 135.001H143.139C143.139 146.99 152.86 156.711 164.849 156.711V162.138C149.861 162.138 137.712 149.989 137.712 135.001ZM153.993 135H148.566C148.566 143.994 155.855 151.283 164.848 151.283V145.855C158.853 145.855 153.993 140.995 153.993 135ZM164.848 135.001H159.42C159.42 137.999 161.849 140.428 164.848 140.428V135.001Z" fill="white"/>
<path d="M66.8473 230.235H115.695V279.082C88.7173 279.082 66.8473 257.212 66.8473 230.235Z" fill="#1F242C"/>
<path d="M442.847 35V83.8472H394C394 56.87 415.87 35 442.847 35Z" fill="#1F242C"/>
<path fill-rule="evenodd" clip-rule="evenodd" d="M169.971 34.847H164.541V83.6942H169.971V34.847ZM186.256 34.8471H191.686V83.6943H186.256V34.8471ZM202.541 34.8471H197.11V83.6943H202.541V34.8471ZM213.388 34.8471H207.958V83.6943H213.388V34.8471ZM175.402 34.8471H180.832V83.6943H175.402V34.8471Z" fill="#4038FF"/>
<path fill-rule="evenodd" clip-rule="evenodd" d="M23.4301 132.54H18V181.388H23.4301V132.54ZM39.7155 132.54H45.1456V181.388H39.7155V132.54ZM55.9999 132.54H50.5698V181.388H55.9999V132.54ZM66.8478 132.54H61.4177V181.388H66.8478V132.54ZM28.8612 132.54H34.2914V181.388H28.8612V132.54Z" fill="#1F242C"/>
<path fill-rule="evenodd" clip-rule="evenodd" d="M414.696 425.624H409.266V474.472H414.696V425.624ZM430.982 425.624H436.413V474.472H430.982V425.624ZM447.267 425.624H441.837V474.472H447.267V425.624ZM458.114 425.624H452.684V474.472H458.114V425.624ZM420.128 425.624H425.558V474.472H420.128V425.624Z" fill="#4038FF"/>
<rect y="-1" width="640" height="475" fill="black" fill-opacity="0.54"/>
<path fill-rule="evenodd" clip-rule="evenodd" d="M364.805 170.738C367.58 169.183 375.768 169.752 378.085 170.323C381.582 171.185 385.479 172.397 387.463 175.893C388.788 178.228 388.41 181.222 388.39 183.633C388.379 184.986 388.368 186.267 388.59 187.47C388.707 187.441 388.827 187.405 388.899 187.384C392.92 186.191 397.66 187.887 400.426 191.508C401.398 192.78 401.059 193.746 400.869 194.103C400.715 194.392 400.489 194.624 400.199 194.792C399.905 194.961 399.603 195.03 399.346 195.075C395.256 195.792 391.477 195.768 387.792 195.002C383.804 194.173 380.606 192.594 378.287 190.309C375.941 187.998 374.583 184.853 374.558 181.945C373.485 182.3 372.43 182.851 371.336 183.422C369.353 184.458 367.303 185.529 364.865 185.559C362.697 185.587 360.634 184.772 358.535 183.862C353.955 181.875 348.692 179.441 344.198 175.665C343.24 174.86 342.284 173.936 341.785 172.641C341.209 171.149 341.442 169.638 341.613 168.535C342.052 165.683 342.827 162.579 345.246 161.183C345.435 161.073 345.634 160.975 345.837 160.892C346.767 160.507 347.764 160.435 348.644 160.371C349.489 160.311 350.288 160.253 350.836 159.937C350.904 159.898 350.968 159.855 351.027 159.808C351.461 159.47 351.747 158.865 352.008 158.138C356.201 160.255 364.805 170.738 364.805 170.738Z" fill="black" stroke="black" stroke-width="1.37573"/>
<path fill-rule="evenodd" clip-rule="evenodd" d="M346.395 162.197C344.042 163.168 343.343 166.189 342.938 168.837C342.77 169.934 342.612 171.098 343.026 172.171C343.403 173.144 344.196 173.892 344.988 174.558C349.169 178.07 354.075 180.415 358.973 182.542C360.842 183.354 362.784 184.154 364.749 184.131C368.876 184.085 372.052 180.472 376.149 180.157C375.318 183.297 376.779 186.943 379.191 189.319C381.604 191.696 384.808 192.964 387.977 193.626C391.724 194.409 395.397 194.338 399.044 193.703C399.293 193.66 399.571 193.596 399.692 193.37C399.855 193.064 399.635 192.665 399.41 192.371C397.025 189.252 392.837 187.751 389.377 188.774C388.814 188.94 388.121 189.132 387.674 188.682C387.451 188.457 387.364 188.131 387.301 187.823C386.573 184.223 387.785 180.291 385.95 177.065C384.253 174.079 380.684 173.001 377.507 172.215C374.917 171.575 372.071 170.961 369.84 172.21C368.413 173.008 367.47 174.453 366.38 175.69C363.958 178.441 359.799 180.256 356.543 178.097C353.607 176.151 352.896 171.913 353.606 168.55C353.699 168.114 353.842 167.639 354.221 167.446C354.746 167.18 355.381 167.59 355.95 167.849C357.59 168.597 348.132 161.48 346.395 162.197Z" fill="black"/>
<path fill-rule="evenodd" clip-rule="evenodd" d="M384.69 176.036C384.8 176.174 384.938 176.281 384.945 176.472L384.934 176.443C386.731 179.756 386.25 183.295 386.583 186.744C386.692 187.873 386.668 188.898 387.383 189.95C387.764 190.512 389.581 192.152 389.397 192.471C389.359 192.537 386.978 192.36 386.123 192.21C380.464 191.214 378.817 188.433 378.817 188.433C376.51 185.61 377.107 183.003 377.398 182.539C378.77 180.344 384.629 178.743 384.814 178.426C384.951 178.19 383.008 176.507 380.69 176.192C379.91 176.027 379.498 176.602 379.186 177.047C377.618 179.286 376.959 179.378 374.623 180.3C373.136 180.885 368.361 175.579 369.25 173.553C370.022 171.794 370.217 171.984 371.906 172.03C372.991 172.06 375.889 172.02 378.557 172.785C381.441 173.613 384.085 175.275 384.69 176.036Z" fill="#C4C3C6"/>
<ellipse cx="382.994" cy="179.529" rx="3.56982" ry="4.94274" transform="rotate(-30 382.994 179.529)" fill="black"/>
<path fill-rule="evenodd" clip-rule="evenodd" d="M381.651 176.658C378.13 178.095 377.111 179.41 374.97 180.282C373.608 180.836 375.05 172.217 376.279 172.206C377.069 172.199 380.209 172.214 382.471 173.164C384.732 174.114 384.95 175.099 385.983 176.552C384.043 175.994 382.478 176.321 381.651 176.658Z" fill="white"/>
<path fill-rule="evenodd" clip-rule="evenodd" d="M397.205 193.755C394.417 194.367 391.537 191.844 389.845 190.223C389.248 189.651 389.519 189.191 390.344 189.15C393.406 188.999 396.864 189.836 399.085 192.471C399.33 192.761 397.73 193.639 397.205 193.755Z" fill="#C4C3C6"/>
<path fill-rule="evenodd" clip-rule="evenodd" d="M353.114 169.455C353.087 169.547 353.061 169.638 353.034 169.73C353.025 169.798 353.011 169.857 353.009 169.935L353.114 169.455Z" fill="#D796A0"/>
<path fill-rule="evenodd" clip-rule="evenodd" d="M357.095 164.288C356.167 163.086 354.356 161.667 352.591 161.635C351.602 161.617 351.444 162.049 349.101 162.305C348.493 162.372 348.247 162.431 347.691 162.484C345.39 162.702 344.135 164.005 343.63 166.277C343.317 167.682 342.832 169.034 342.732 170.507C342.649 171.933 343.351 172.954 344.375 173.902C346.842 176.187 358.341 182.223 362.922 183.96C364.054 184.389 364.864 183.965 364.893 183.843C365.064 183.132 364.311 183.098 363.897 182.84C361.157 181.131 358.31 179.645 355.611 177.845C354.541 177.132 353.806 176.311 353.346 175.394C353.012 174.73 352.977 173.5 352.861 171.064C352.801 169.804 352.802 169.049 352.914 168.155C352.944 167.913 353.045 167.159 353.336 166.235C353.336 166.235 353.747 164.933 354.561 164.194C354.738 164.033 354.921 163.915 355.062 163.983C355.103 164.002 355.2 164.066 355.259 164.355C355.359 164.846 355.169 165.244 355.157 165.391C355.063 166.523 355.322 167.36 355.863 167.837C356.468 168.369 357.275 168.262 358.264 168.12C359.095 168.001 360.156 167.66 360.115 167.357C360.095 167.204 359.799 167.115 359.649 167.061C358.439 166.622 357.841 165.253 357.095 164.288Z" fill="#C4C3C6"/>
<path fill-rule="evenodd" clip-rule="evenodd" d="M353.726 163.621C351.852 163.693 351.214 170.062 351.273 171.322C351.352 173.029 345.401 174.863 344.369 173.908C343.347 172.961 342.646 171.94 342.731 170.514C342.833 169.041 343.319 167.688 343.634 166.282C344.141 164.009 345.397 162.704 347.698 162.483C348.254 162.43 348.5 162.371 349.108 162.303C351.451 162.045 351.609 161.612 352.598 161.629C352.607 161.629 352.617 161.629 352.626 161.63C353.456 162.275 353.741 162.327 354.301 163.289L353.726 163.621Z" fill="white"/>
<path fill-rule="evenodd" clip-rule="evenodd" d="M328.095 225.006C340.615 221.249 334.672 210.773 336.153 209.179C338.388 206.772 341.081 204.201 344.749 204.164C347.2 204.139 349.422 205.764 351.339 206.845C352.413 207.452 353.431 208.026 354.49 208.381C354.518 208.274 354.543 208.163 354.558 208.096C355.385 204.364 358.836 201.335 362.951 200.73C364.396 200.518 365.018 201.215 365.218 201.524C365.381 201.775 365.467 202.057 365.472 202.362C365.477 202.671 365.399 202.943 365.321 203.168C364.083 206.744 362.392 209.746 360.149 212.345C357.723 215.157 355.047 217.008 352.197 217.847C349.314 218.696 346.202 218.39 343.87 217.124C343.678 218.137 343.651 219.221 343.623 220.346C343.603 221.16 348.108 220.319 348.629 221.249C349.411 222.647 346.257 225.834 345.624 227.009C344.686 228.749 341.52 231.248 339.864 232.518C336.252 235.292 330.424 238.138 325.422 240.052C324.355 240.46 323.195 240.814 321.94 240.64C320.495 240.44 319.391 239.586 318.586 238.963C316.504 237.353 314.369 233.861 314.325 231.316C314.321 231.117 314.331 230.915 314.354 230.716C314.458 229.805 314.842 228.979 315.181 228.249C315.506 227.548 315.814 226.886 315.804 226.31C315.803 226.239 315.797 226.168 315.786 226.1C315.708 225.605 315.351 225.111 314.886 224.581C318.432 222.174 328.095 225.006 328.095 225.006Z" fill="black" stroke="black" stroke-width="1.37573"/>
<path fill-rule="evenodd" clip-rule="evenodd" d="M315.672 230.838C315.408 233.145 317.51 235.041 319.444 236.536C320.245 237.155 321.104 237.797 322.143 237.941C323.086 238.072 324.033 237.771 324.914 237.434C329.562 235.656 333.6 232.781 337.46 229.818C338.933 228.687 340.429 227.493 341.278 225.916C343.063 222.604 341.583 218.471 343.14 215.065C345.279 217.119 348.834 217.568 351.795 216.696C354.756 215.824 357.183 213.831 359.11 211.598C361.39 208.956 362.955 205.996 364.058 202.806C364.134 202.588 364.206 202.339 364.078 202.142C363.906 201.877 363.491 201.876 363.157 201.925C359.616 202.446 356.568 205.12 355.857 208.333C355.741 208.855 355.589 209.493 355.031 209.65C354.754 209.728 354.455 209.653 354.181 209.567C350.987 208.553 348.385 205.846 345.001 205.88C341.868 205.911 339.433 208.28 337.403 210.465C335.748 212.247 334.002 214.245 334.013 216.577C334.02 218.069 334.757 219.46 335.263 220.877C336.388 224.026 336 228.146 332.84 229.787C329.991 231.267 326.295 229.957 323.925 227.901C323.618 227.635 323.302 227.31 323.316 226.923C323.335 226.386 323.943 226.061 324.4 225.722C325.722 224.745 315.867 229.136 315.672 230.838Z" fill="black"/>
<path fill-rule="evenodd" clip-rule="evenodd" d="M343.623 206.429C343.781 206.403 343.928 206.339 344.084 206.418L344.055 206.415C347.493 206.449 350.104 208.399 353.003 209.661C353.952 210.074 354.76 210.547 355.914 210.443C356.531 210.387 358.642 209.665 358.816 209.953C358.852 210.012 357.659 211.833 357.162 212.448C353.869 216.52 350.922 216.602 350.922 216.602C347.651 217.192 345.835 215.561 345.592 215.123C344.447 213.057 345.756 207.676 345.585 207.389C345.457 207.174 343.256 207.979 341.981 209.688C341.505 210.236 341.782 210.82 341.999 211.266C343.094 213.508 342.7 214.618 342.403 216.889C342.214 218.334 336.049 219.248 334.824 217.641C333.761 216.247 333.999 216.176 334.782 214.85C335.285 213.997 336.532 211.669 338.321 209.88C340.254 207.947 342.748 206.574 343.623 206.429Z" fill="#C4C3C6"/>
<ellipse cx="345.66" cy="209.328" rx="3.25541" ry="4.50749" transform="rotate(-91 345.66 209.328)" fill="black"/>
<path fill-rule="evenodd" clip-rule="evenodd" d="M342.748 209.532C342.262 213.268 342.897 214.773 342.6 217.043C342.411 218.489 335.694 213.184 336.286 212.11C336.666 211.42 338.215 208.696 340.14 207.177C342.065 205.657 343.02 205.931 344.777 205.715C343.347 207.14 342.863 208.654 342.748 209.532Z" fill="white"/>
<path fill-rule="evenodd" clip-rule="evenodd" d="M363.287 204.295C362.545 206.79 359.261 207.968 357.22 208.6C356.5 208.823 356.252 208.403 356.584 207.727C357.816 205.219 360.01 202.832 363.094 202.227C363.433 202.161 363.427 203.826 363.287 204.295Z" fill="#C4C3C6"/>
<path fill-rule="evenodd" clip-rule="evenodd" d="M324.591 228.84C324.593 228.841 324.595 228.843 324.598 228.844C324.599 228.845 324.601 228.846 324.603 228.847L324.591 228.84Z" fill="#D796A0"/>
<path fill-rule="evenodd" clip-rule="evenodd" d="M322.065 221.479C320.696 221.687 318.764 222.502 317.959 223.895C317.508 224.676 317.784 224.994 316.953 226.975C316.738 227.489 316.676 227.712 316.473 228.178C315.631 230.11 316.117 234.443 317.707 235.851C318.69 236.723 319.555 237.708 320.686 238.44C321.787 239.138 322.912 239.03 324.12 238.634C327.033 237.678 336.926 232.684 340.335 229.8C341.177 229.088 341.197 228.254 341.113 228.177C340.62 227.725 336.359 227.259 331.851 226.258C331.392 226.156 329.347 227.259 327.594 228.011C325.841 228.762 323.968 227.01 323.305 226.525C323.125 226.394 322.568 225.98 321.959 225.338C321.959 225.338 321.101 224.435 320.871 223.458C320.821 223.245 320.808 223.047 320.924 222.965C320.958 222.941 321.051 222.892 321.308 222.972C321.744 223.11 321.978 223.438 322.089 223.513C322.952 224.089 323.734 224.254 324.353 224.033C325.045 223.786 325.316 224.848 325.639 223.997C325.911 223.281 326.107 222.284 325.848 222.182C325.716 222.131 325.515 220.575 325.405 220.67C324.521 221.441 323.164 221.311 322.065 221.479Z" fill="#C4C3C6"/>
<path fill-rule="evenodd" clip-rule="evenodd" d="M333.145 227.624C333.145 227.624 326.842 230.475 325.885 231.113C325.352 231.469 323.71 235.692 323.71 235.692C323.71 235.692 323.842 231.38 323.194 228.396C322.818 226.665 323.21 226.798 324.148 227.227C324.828 227.537 325.645 228.118 327.378 227.703C331.507 226.716 333.9 224.147 334.35 224.928C334.354 224.935 335.258 226.239 335.262 226.247C335.266 226.254 338.307 228.296 337.818 229.187L333.145 227.624Z" fill="white"/>
<ellipse rx="10.2671" ry="8.13853" transform="matrix(-0.999848 0.0174524 0.0174524 0.999848 363.33 224.149)" fill="black"/>
<ellipse rx="9.39061" ry="7.6377" transform="matrix(-0.999848 0.0174524 0.0174524 0.999848 363.235 221.732)" fill="#C4C3C6"/>
<ellipse rx="41.1348" ry="41.5594" transform="matrix(-0.981627 -0.190809 -0.190809 0.981627 338.935 188.304)" fill="black"/>
<path fill-rule="evenodd" clip-rule="evenodd" d="M324.695 151.203C319.612 150.724 302.441 155.967 309.048 168.427C315.655 180.887 308.744 173.838 315.513 189.308C317.936 194.844 318.998 193.969 327.624 205.307C336.25 216.645 333.064 227.554 344.682 225.922C349.642 225.225 355.23 223.361 360.483 223.195C365.736 223.029 370.327 225.944 370.996 225.092C373.276 222.186 366.043 214.028 367.22 210.451C369.865 202.416 370.235 193.621 370.605 188.261C371.098 181.127 364.869 176.444 365.064 175.438C366.169 169.748 361.614 163.023 354.959 157.391C352.775 155.543 347.299 154.693 342.8 153.144C327.837 152.759 329.778 151.683 324.695 151.203Z" fill="#C4C3C6"/>
<path fill-rule="evenodd" clip-rule="evenodd" d="M356.812 193.428C356.463 193.411 356.247 189.705 355.601 190.266C354.532 191.195 353.472 190.989 352.784 191.073C352.412 191.118 352.086 193.642 351.699 193.711C348.079 194.365 344.871 196.16 343.606 200.143C342.734 202.888 340.227 214.153 338.796 215.072C341.812 215.14 342.89 216.097 352.316 212.126C357.237 210.053 353.13 208.977 354.164 207.235C356.38 203.501 358.892 199.93 360.088 198.678C360.556 198.188 363.268 210.791 363.686 206.025C364.103 201.259 363.978 193.774 356.812 193.428Z" fill="white"/>
<path fill-rule="evenodd" clip-rule="evenodd" d="M355.884 195.422C349.308 195.846 346.509 196.461 344.124 201.046C342.724 203.735 340.376 214.087 338.842 214.73C346.707 214.193 350.122 208.571 355.672 207.696C361.223 206.821 362.604 209.491 365.27 210.756C363.351 208.643 363.967 202.259 362.605 199.404C361.243 196.548 359.003 195.221 355.884 195.422Z" fill="black"/>
<path fill-rule="evenodd" clip-rule="evenodd" d="M332.644 204.16C329.877 203.383 330.24 206.059 332.531 210.246C333.482 211.985 333.621 213.849 333.782 215.098C336.687 208.917 340.198 201.182 340.698 199.618C338.256 202.732 335.411 204.938 332.644 204.16Z" fill="black"/>
<path fill-rule="evenodd" clip-rule="evenodd" d="M323.916 191.915C323.916 191.915 329.78 214.652 331.969 219.49C332.878 221.498 334.891 217.184 334.416 209.62C333.944 202.096 329.579 196.228 329.579 196.228L323.916 191.915Z" fill="black"/>
<path fill-rule="evenodd" clip-rule="evenodd" d="M310.349 176.215C306.669 171.967 306.428 167.01 307.471 165.093C308.858 168.671 309.259 169.812 312.007 172.509C314.755 175.205 316.634 175.625 319.469 176.865C317.4 177.59 311.116 177.101 310.349 176.215Z" fill="black"/>
<path fill-rule="evenodd" clip-rule="evenodd" d="M355.077 194.723C352.555 194.578 354.261 190.622 355.67 189.374C356.473 190.949 357.598 194.869 355.077 194.723Z" fill="black"/>
<path fill-rule="evenodd" clip-rule="evenodd" d="M341.474 198.219C343.19 191.669 344.412 189.556 346.184 190.822C344.098 192.936 343.135 196.317 341.474 198.219Z" fill="black"/>
<path fill-rule="evenodd" clip-rule="evenodd" d="M368.412 199.081C366.167 199.277 365.715 194.111 361.211 193.491C362.696 194.763 364.917 197.239 366.249 200.216C367.686 203.428 368.167 207.185 367.856 209.5C367.841 208.995 370.287 206.522 370.525 205.994C370.93 205.095 371.569 201.401 371.174 201.915C370.913 202.253 369.545 202.965 369.26 203.029C369.214 202.025 370.657 198.884 368.412 199.081Z" fill="black"/>
<path fill-rule="evenodd" clip-rule="evenodd" d="M354.007 188.321C352.915 185.2 348.669 189.029 347.762 190.972C350.12 191.458 355.099 191.442 354.007 188.321Z" fill="black"/>
<path fill-rule="evenodd" clip-rule="evenodd" d="M359.634 187.841C358.812 185.489 355.896 188.339 355.216 190.066C356.787 190.34 360.455 190.192 359.634 187.841Z" fill="black"/>
<path fill-rule="evenodd" clip-rule="evenodd" d="M358.126 179.453C354.747 176.611 358.75 177.962 361.475 175.777C356.847 175.917 355.162 175.547 353.476 174.757C351.789 173.967 348.301 169.813 347.239 167.742C347.819 172.24 349.39 174.052 352.727 177.758C355.543 180.886 358.712 181.436 360.424 183.396C363.369 188.676 359.732 189.614 357.496 190.02C360.883 189.808 362.678 188.691 363.168 187.949C363.539 187.389 364.503 186.158 363.3 184.277C362.186 182.534 358.945 180.141 358.126 179.453Z" fill="black"/>
<path fill-rule="evenodd" clip-rule="evenodd" d="M330.785 185.922C327.64 186.07 323.888 186.08 320.905 183.98C317.923 181.88 320.305 178.605 322.009 177.216C325.155 174.651 327.383 178.639 335.303 177.475C342.743 176.381 337.581 185.604 330.785 185.922Z" fill="white"/>
<path fill-rule="evenodd" clip-rule="evenodd" d="M333.781 154.098C337.87 154.605 344.53 157.549 349.089 158.944C363.807 163.446 353.449 155.316 347.28 153.261C342.465 151.657 335.363 151.229 329.502 151.549C329.434 152.453 331.299 152.486 333.781 154.098Z" fill="white"/>
<path fill-rule="evenodd" clip-rule="evenodd" d="M333.701 154.572C332.594 149.736 317.97 149.24 312.38 155.896C310.597 158.019 309.755 160.199 308.333 164.807C310.378 163.736 306.999 165.449 315.296 161.212C323.594 156.974 333.552 158.427 333.701 154.572Z" fill="white"/>
<path fill-rule="evenodd" clip-rule="evenodd" d="M363.478 176.305C361.739 175.579 359.232 175.925 357.404 177.159C356.332 177.882 355.448 179.447 363.066 181.535C363.544 181.666 365.301 182.469 366.298 182.313C368.42 182.009 366.388 177.519 363.478 176.305Z" fill="white"/>
<path fill-rule="evenodd" clip-rule="evenodd" d="M350.6 179.111C350.256 179.819 349.858 180.539 351.857 181.514C353.857 182.488 354.602 182.633 356.329 181.902C356.823 181.513 356.228 180.248 354.458 179.191C350.929 177.084 347.61 168.088 346.594 168.298C345.597 168.505 344.922 172.356 349.566 177.062C349.643 177.14 350.944 178.403 350.6 179.111Z" fill="white"/>
<path fill-rule="evenodd" clip-rule="evenodd" d="M358.154 214.325C354.767 214.705 350.879 216.611 347.227 220.202C343.575 223.794 351.83 222.57 358.404 221.204C364.977 219.838 365.335 223.27 366.78 222.201C369.885 219.966 363.822 213.689 358.154 214.325Z" fill="white"/>
<path fill-rule="evenodd" clip-rule="evenodd" d="M358.606 212.037C359.975 212.295 362.779 213.719 365.451 216.978C363.208 214.799 356.198 213.834 351.752 216.605C353.478 213.463 356.316 211.606 358.606 212.037Z" fill="black"/>
<path fill-rule="evenodd" clip-rule="evenodd" d="M323.685 172.162C323.685 172.162 328.775 170.659 331.368 169.45C334.31 168.078 335.153 166.231 337.252 164.693C339.352 163.155 339.506 166.974 339.506 166.974C339.506 166.974 338.434 177.015 334.244 178.377C331.661 179.216 326.738 177.608 323.265 172.962C323.007 172.616 323.685 172.162 323.685 172.162Z" fill="white"/>
<path fill-rule="evenodd" clip-rule="evenodd" d="M339.5 167.122C340.372 170.947 337.935 174.981 333.786 176.329C329.726 177.648 325.481 175.924 323.854 172.47C323.774 172.467 323.695 172.464 323.615 172.461C325.256 176.09 329.664 177.892 333.851 176.532C338.13 175.142 340.653 170.945 339.683 166.968C339.622 167.019 339.561 167.071 339.5 167.122ZM339.444 166.891C339.504 166.841 339.564 166.79 339.623 166.739C339.595 166.639 339.565 166.54 339.533 166.441C338.192 162.314 333.473 160.164 329.005 161.616C324.537 163.068 321.983 167.581 323.324 171.707C323.383 171.89 323.449 172.069 323.521 172.244C323.6 172.247 323.678 172.251 323.757 172.253C323.671 172.055 323.594 171.851 323.526 171.641C322.227 167.642 324.699 163.239 329.071 161.819C333.443 160.398 338.031 162.507 339.33 166.506C339.372 166.634 339.41 166.763 339.444 166.891Z" fill="black"/>
<path fill-rule="evenodd" clip-rule="evenodd" d="M354.968 170.724C352.282 170.629 349.791 169.922 347.688 168.771C347.951 173.012 350.834 176.4 354.469 176.529C358.018 176.655 361.402 173.372 362.137 172.054C362.873 170.736 362.056 167.585 359.367 167.757C357.541 167.599 355.503 167.205 353.401 166.565C351.075 165.858 348.31 162.09 347.166 164.151C346.021 166.212 349.162 167.893 352.405 168.88C354.109 169.399 356.666 170.785 354.968 170.724Z" fill="white"/>
<path fill-rule="evenodd" clip-rule="evenodd" d="M355.198 174.995C357.934 175.091 361.604 171.807 361.1 169.841C360.735 168.419 356.757 168.541 355.419 168.494C352.229 168.383 349.266 167.637 346.747 166.431C346.747 166.431 348.481 174.761 355.198 174.995Z" fill="black"/>
<path fill-rule="evenodd" clip-rule="evenodd" d="M336.203 174.982C333.073 176.072 328.505 176.569 328.505 176.569C328.505 176.569 330.763 177.026 331.623 177.031C338.104 177.072 341.213 177.886 341.712 180.502C342.036 182.836 336.272 186.99 338.463 188.864C340.654 190.738 345.902 190.874 346.34 190.92C344.772 189.321 343.986 187.464 344.73 185.598C345.474 183.733 346.026 182.602 348.565 182.152C348.429 182.328 346.009 181.142 344.637 178.945C343.088 176.465 343.261 173.646 341.568 172.85C339.874 172.054 339.332 173.891 336.203 174.982Z" fill="black"/>
<path fill-rule="evenodd" clip-rule="evenodd" d="M345.543 186.63C346.131 182.92 349.008 182.536 349.896 181.834C347.485 182.374 345.311 182.617 344.125 184.377C342.867 186.245 342.353 189.167 346.44 190.575C346.063 189.755 345.191 188.856 345.543 186.63Z" fill="white"/>
<path fill-rule="evenodd" clip-rule="evenodd" d="M335.948 165.196C338.909 162.243 338.125 160.246 336.894 159.838C335.662 159.431 335.713 162.662 333.744 164.477C331.745 166.303 330.539 166.603 328.757 167.43C330.122 168.055 332.831 168.197 335.948 165.196Z" fill="black"/>
<path fill-rule="evenodd" clip-rule="evenodd" d="M351.112 165.578C347.649 163.719 346.422 160.003 347.69 159.56C348.959 159.117 350.102 162.59 352.52 163.728C354.944 164.849 356.159 164.651 358.171 164.801C356.962 166.031 354.599 167.355 351.112 165.578Z" fill="black"/>
<path fill-rule="evenodd" clip-rule="evenodd" d="M229.236 245.549C232.993 246.005 236.433 245.801 239.752 244.924C243.343 243.976 246.18 242.383 248.183 240.189C250.21 237.97 251.299 235.039 251.184 232.388C252.178 232.659 253.164 233.11 254.187 233.578C256.041 234.426 257.958 235.303 260.179 235.213C262.154 235.133 263.994 234.291 265.862 233.36C269.938 231.329 274.615 228.856 278.528 225.199C279.362 224.419 280.189 223.532 280.583 222.327C281.036 220.94 280.753 219.575 280.546 218.577C280.011 216 279.159 213.21 276.891 212.054C276.714 211.963 276.528 211.884 276.339 211.817C275.475 211.511 274.563 211.494 273.76 211.479C272.987 211.464 272.257 211.451 271.743 211.189C271.68 211.157 271.619 211.12 271.563 211.081C271.048 210.721 270.725 209.967 270.385 209.092L270.145 208.473C268.073 203.123 271.408 208.185 267.223 204.341C266.78 203.933 272.515 206.997 272.46 206.883C272.497 206.847 266.663 203.501 266.755 203.428C267.494 202.838 268.372 202.363 269.302 201.86C270.917 200.987 266.057 189.709 268.382 187.645C268.383 187.68 268.384 187.714 268.385 187.748C268.387 187.867 268.39 187.986 268.395 188.103C268.52 190.953 270.011 193.131 271.452 195.237C272.009 196.051 272.536 196.82 272.983 197.621C273.317 198.221 273.611 198.85 273.922 199.516C274.442 200.627 274.978 201.776 275.732 202.814C276.9 204.424 278.463 205.674 280.801 206.865C281.804 207.376 282.856 207.83 283.874 208.27C284.87 208.7 285.9 209.145 286.858 209.633C287.655 210.039 288.332 210.439 288.926 210.855C289.238 211.073 289.541 211.305 289.862 211.551C290.551 212.079 291.264 212.624 292.091 213.045L292.17 213.085C295.573 214.772 303.639 220.814 307.319 219.709C311.536 218.442 310.286 220.416 314.228 218.276C316.953 216.796 317.511 216.673 318.681 213.104C319.026 212.052 318.771 211.4 318.479 211.029C318.761 210.674 310.397 202.777 306.971 206.347L301.452 207.328C300.992 207.807 297.56 205.086 297.077 205.3C295.796 205.868 293.025 205.114 291.068 204.117C290.843 204.003 290.637 203.888 290.454 203.778C290.377 203.731 290.297 203.654 290.276 203.631C290.185 203.53 290.143 203.411 290.128 203.366C290.087 203.25 285.65 191.663 280.71 184.68C278.822 182.012 276.627 178.699 270.36 178.068C264.093 177.437 259.795 178.355 256.844 182.277C255.633 183.888 255.631 186.671 255.564 188.395C255.289 195.437 255.722 205.707 259.351 214.636C259.966 216.151 260.79 217.861 262.236 219.056C262.56 219.325 262.915 219.558 263.292 219.749C264.823 220.53 266.512 220.554 267.927 219.817C268.018 219.769 268.11 219.718 268.202 219.667C268.262 219.634 268.335 219.593 268.405 219.556C268.411 219.576 268.417 219.598 268.423 219.622C269.078 222.078 268.832 225.428 266.741 226.978C264.793 228.422 262.418 227.475 261.488 227.001C260.662 226.58 259.879 226.002 259.222 225.33C258.981 225.084 258.747 224.826 258.513 224.569C257.691 223.666 258.472 222.165 257.298 221.566L257.234 221.534C254.634 220.251 249.507 221.337 247.425 221.969C244.282 222.923 240.791 224.215 239.15 227.497C238.053 229.689 238.539 232.398 238.671 234.594C238.745 235.826 238.815 236.993 238.67 238.1C238.561 238.079 238.451 238.052 238.384 238.036C234.667 237.144 230.432 238.918 228.084 242.351C227.26 243.557 227.614 244.421 227.804 244.737C227.958 244.993 228.174 245.194 228.446 245.332C228.721 245.472 229 245.521 229.236 245.549Z" fill="black" stroke="black" stroke-width="1.37573"/>
<path fill-rule="evenodd" clip-rule="evenodd" d="M289.362 204.574C289.362 204.574 289.541 204.772 289.782 204.918C291.544 205.986 295.394 207.421 297.483 206.495C298.196 206.179 298.774 205.584 299.33 205.004C300.207 204.09 301.084 203.176 301.96 202.262C304.886 199.213 307.357 210.272 303.219 211.514C299.89 212.514 295.885 213.448 292.761 211.899C291.635 211.341 290.691 210.475 289.66 209.754C285.498 206.843 279.762 206.153 276.733 201.977C275.621 200.444 274.99 198.57 274.059 196.901C272.423 193.969 269.782 191.442 269.629 187.948C269.603 187.379 269.643 186.776 269.404 186.28C269.166 185.785 268.509 185.479 268.067 185.846C267.869 186.01 267.763 186.263 267.647 186.496C266.279 189.226 262.926 189.943 260.579 191.816C260.308 192.032 260.038 192.281 259.91 192.609C259.587 193.439 260.293 194.2 260.896 194.755C265.041 198.561 267.135 204.241 269.238 209.659C269.609 210.614 270.02 211.615 270.83 212.182C272.234 213.164 274.257 212.484 275.872 213.055C278.06 213.828 278.843 216.549 279.339 218.943C279.545 219.935 279.745 220.988 279.419 221.985C279.123 222.89 278.437 223.609 277.748 224.253C274.112 227.652 269.759 230.02 265.403 232.19C263.741 233.019 262.012 233.84 260.222 233.912C256.463 234.064 253.398 230.922 249.654 230.829C250.561 233.652 249.407 237.043 247.325 239.322C245.243 241.602 242.388 242.91 239.536 243.663C236.163 244.553 232.816 244.662 229.466 244.256C229.237 244.228 228.981 244.183 228.86 243.983C228.697 243.712 228.878 243.339 229.068 243.06C231.089 240.105 234.829 238.539 238.028 239.307C238.548 239.432 239.188 239.574 239.574 239.143C239.766 238.927 239.829 238.626 239.872 238.342C240.361 235.027 239.068 231.502 240.582 228.475C241.984 225.673 245.181 224.522 248.034 223.656C250.361 222.95 252.922 222.256 255.014 223.288C256.351 223.949 257.279 225.221 258.33 226.296C260.668 228.688 264.541 230.146 267.401 228.025C269.98 226.112 270.422 222.216 269.614 219.185C269.509 218.793 269.356 218.367 269.002 218.209C268.511 217.991 267.952 218.394 267.447 218.658C265.99 219.417 264.241 219.002 263.041 218.01C261.841 217.018 261.097 215.542 260.492 214.052C257.352 206.324 256.462 196.941 256.798 188.353C256.859 186.794 257.01 185.115 257.962 183.849C260.334 180.696 264.737 180.38 268.092 180.321C270.84 180.272 272.242 179.77 273.597 180.145C274.641 180.434 276.676 181.23 279.702 185.507C284.355 192.083 288.708 203.152 288.962 203.881C288.99 203.962 289.093 204.277 289.362 204.574Z" fill="black"/>
<path fill-rule="evenodd" clip-rule="evenodd" d="M279.776 187.603C277.435 184.432 276.773 183.247 276.09 182.489C274.282 180.483 266.584 179.955 265.634 180.334C264.811 180.663 264.696 181.148 265.238 181.797C265.502 182.114 265.838 184.675 265.838 184.675C265.838 184.675 269.683 189.25 271.849 190.056C275.377 191.369 280.382 188.424 279.776 187.603Z" fill="#C4C3C6"/>
<path fill-rule="evenodd" clip-rule="evenodd" d="M266.544 185.642C267.586 184.93 268.652 184.466 269.691 184.176C273.765 183.035 277.4 184.568 277.356 184.29C277.356 184.29 275.393 179.962 270.159 179.229C264.926 178.497 259.918 179.74 259.289 181.761C259.206 182.028 261.366 180.73 266.544 185.642Z" fill="white"/>
<path fill-rule="evenodd" clip-rule="evenodd" d="M317.31 213.183C317.569 213.215 313.443 210.063 310.871 209.228C309.692 208.844 308.438 208.767 307.221 208.931C305.379 209.179 303.511 209.365 301.727 210.099C299.978 210.818 299.51 212.675 300.841 213.848C301.813 214.706 303.128 215.052 304.216 215.738C304.687 215.867 305.159 215.996 305.63 216.125C312.383 217.611 313.198 217.276 315.493 217.097C316.525 217.017 317.351 216.316 317.478 216.2C317.648 216.044 317.914 215.954 317.916 215.701C317.919 215.404 317.618 215.398 317.414 215.382C316.169 215.283 312.251 214.953 312.364 214.651C311.502 214.45 307.509 213.68 306.633 213.539C306.322 213.433 312.037 213.547 312.394 213.659C312.953 213.724 315.27 213.604 316.506 213.44C317.23 213.343 317.1 213.157 317.31 213.183Z" fill="#C4C3C6"/>
<path fill-rule="evenodd" clip-rule="evenodd" d="M310.758 209.224C309.573 208.854 308.311 208.789 307.083 208.963C305.592 209.175 304.085 209.347 302.615 209.792C303.371 210.504 307.879 210.504 310.862 211.422C312.812 212.021 315.471 213.504 315.726 213.532C316.242 213.478 317.587 213.259 317.316 212.837C316.625 211.759 312.614 209.803 310.758 209.224Z" fill="white"/>
<path fill-rule="evenodd" clip-rule="evenodd" d="M302.179 212.284C303.518 213.112 304.714 214.058 306.336 214.648C307.081 214.919 307.937 215.02 308.815 214.983C309.882 214.937 310.952 214.916 312.049 214.737C311.665 214.293 308.562 214.065 306.685 213.392C305.459 212.952 303.913 211.973 303.742 211.944C302.444 211.96 302.759 212.044 302.653 211.966C302.379 211.765 302.048 211.801 301.701 211.973C301.91 212.028 302.019 212.184 302.179 212.284Z" fill="white"/>
<path fill-rule="evenodd" clip-rule="evenodd" d="M240.472 237.325C240.427 238.359 240.498 239.292 239.898 240.285C239.578 240.815 238.003 242.396 238.186 242.678C238.223 242.736 240.383 242.462 241.153 242.284C246.257 241.11 247.622 238.497 247.622 238.497C249.587 235.816 249.635 233.815 250.007 232.083C249.257 231.774 247.078 230.928 245.618 230.264C245.115 230.139 240.207 228.637 240.502 233.103C240.506 233.175 240.529 235.996 240.472 237.325ZM247.563 229.058C248.742 230.175 249.847 230.373 251.615 230.967C252.997 231.43 256.521 226.289 255.614 224.484C254.827 222.918 254.659 223.101 253.123 223.222C252.136 223.301 249.497 223.401 247.105 224.225C245.89 224.644 244.732 225.227 243.793 225.804C243.946 225.83 244.102 225.883 244.261 225.964C246.067 226.884 247.358 228.134 247.563 229.058Z" fill="#C4C3C6"/>
<path fill-rule="evenodd" clip-rule="evenodd" d="M245.193 228.319C245.285 228.351 248.323 229.706 248.417 229.713C250.165 229.835 252.648 223.366 251.369 223.393C250.527 223.41 246.387 223.785 244.051 224.815C241.714 225.846 241.558 226.848 240.568 228.348C241.642 228.016 242.621 227.94 243.441 227.988C244.166 228.03 244.766 228.171 245.193 228.319Z" fill="white"/>
<path fill-rule="evenodd" clip-rule="evenodd" d="M247.901 236.712C247.901 236.712 241.177 236.652 240.748 239.139C240.32 241.626 238.422 242.505 238.488 242.643C238.499 242.666 240.177 242.597 241.467 242.344C246.701 241.316 247.916 236.571 247.901 236.712Z" fill="white"/>
<path fill-rule="evenodd" clip-rule="evenodd" d="M265.804 191.174L262.287 187.225C262.287 187.225 260.245 184.843 258.365 184.013C257.663 186.14 257.155 194.52 257.891 201.472C258.416 206.427 260.042 211.049 260.552 210.378C261.358 209.32 262.034 202.895 266.084 196.658C266.531 195.971 265.804 191.174 265.804 191.174Z" fill="#C4C3C6"/>
<path fill-rule="evenodd" clip-rule="evenodd" d="M231.141 244.216C233.708 244.643 236.208 242.207 237.67 240.65C238.186 240.1 237.917 239.694 237.164 239.695C234.37 239.703 231.263 240.629 229.367 243.136C229.159 243.412 230.658 244.136 231.141 244.216Z" fill="#C4C3C6"/>
<path fill-rule="evenodd" clip-rule="evenodd" d="M270.164 220.197C270.165 220.199 270.165 220.202 270.166 220.204C270.166 220.206 270.166 220.208 270.166 220.21L270.164 220.197Z" fill="#D796A0"/>
<path fill-rule="evenodd" clip-rule="evenodd" d="M266.231 215.466C267.019 214.327 268.598 212.948 270.203 212.836C271.103 212.773 271.267 213.159 273.412 213.282C273.969 213.314 274.196 213.356 274.704 213.378C276.81 213.468 278.015 214.596 278.584 216.642C278.937 217.909 279.443 219.117 279.605 220.455C279.75 221.75 279.16 222.715 278.274 223.627C276.138 225.826 265.961 231.87 261.876 233.669C260.866 234.114 260.108 233.766 260.075 233.656C259.886 233.016 260.57 232.949 260.933 232.695C263.345 231.008 265.865 229.519 268.235 227.751C269.175 227.05 269.805 226.267 270.18 225.411C270.451 224.789 270.424 223.667 270.412 221.441C270.406 220.29 270.368 219.602 270.224 218.793C270.185 218.574 270.057 217.892 269.747 217.063C269.747 217.063 269.311 215.896 268.534 215.261C268.364 215.123 268.192 215.024 268.068 215.092C268.031 215.112 267.946 215.175 267.906 215.441C267.838 215.893 268.031 216.247 268.049 216.38C268.188 217.408 267.994 218.183 267.524 218.642C266.999 219.156 266.259 219.097 265.352 219.014C264.59 218.945 263.608 218.684 263.63 218.407C263.642 218.266 263.907 218.171 264.04 218.114C265.121 217.657 265.599 216.381 266.231 215.466Z" fill="#C4C3C6"/>
<path fill-rule="evenodd" clip-rule="evenodd" d="M269.27 214.706C270.98 214.681 271.861 220.453 271.867 221.604C271.875 223.163 277.38 224.547 278.274 223.627C279.16 222.715 279.75 221.75 279.605 220.455C279.443 219.117 278.937 217.909 278.584 216.642C278.015 214.596 276.81 213.468 274.704 213.378C274.196 213.356 273.969 213.314 273.412 213.282C271.267 213.159 271.103 212.773 270.203 212.836C270.195 212.836 270.187 212.837 270.178 212.838C269.452 213.466 269.196 213.527 268.731 214.431L269.27 214.706Z" fill="white"/>
<path fill-rule="evenodd" clip-rule="evenodd" d="M290.686 204.457C290.18 204.7 287.666 206.798 287.689 207.628C287.723 208.906 290.564 209.008 291.057 208.946C291.335 209.408 290.4 209.612 290.751 210.043C291.071 210.435 291.526 210.211 291.885 210.015C292.626 209.609 293.366 209.183 294.054 208.68C294.693 208.213 295.264 207.635 296.095 206.903C294.91 206.73 291.798 203.925 290.686 204.457Z" fill="#C4C3C6"/>
<path fill-rule="evenodd" clip-rule="evenodd" d="M290.951 204.392C290.467 204.91 290.099 205.418 290.108 205.738C290.142 207.016 292.983 207.117 293.476 207.055C293.613 207.283 293.455 207.449 293.302 207.609C293.145 207.774 292.992 207.934 293.17 208.152C293.49 208.545 293.945 208.32 294.304 208.124C294.706 207.904 295.107 207.679 295.5 207.438C295.685 207.269 295.881 207.091 296.095 206.903C295.614 206.833 294.817 206.329 293.964 205.791C292.863 205.097 291.671 204.345 290.951 204.392Z" fill="white"/>
<path fill-rule="evenodd" clip-rule="evenodd" d="M297.239 212.412C297.862 212.003 298.911 212.107 298.938 210.872C298.221 210.768 298.086 211.809 297.279 211.606C297.463 211.015 298.482 210.106 297.03 209.837C296.659 209.768 296.804 209.134 297.172 208.756C297.577 208.339 297.936 207.871 298.21 207.283C297.285 207.999 297.652 207.063 296.729 207.781C296.011 208.34 294.002 210.55 293.293 211.119C293.111 211.265 293.351 211.479 293.527 211.58C294.9 211.351 295.96 212.291 297.239 212.412Z" fill="#C4C3C6"/>
<ellipse cx="261.187" cy="251.482" rx="10.7751" ry="8.26374" transform="rotate(14 261.187 251.482)" fill="black"/>
<ellipse cx="261.625" cy="249.294" rx="9.85525" ry="7.51249" transform="rotate(22 261.625 249.294)" fill="#C4C3C6"/>
<ellipse cx="291.994" cy="219.471" rx="40.5924" ry="41.5019" transform="rotate(2 291.994 219.471)" fill="black"/>
<path fill-rule="evenodd" clip-rule="evenodd" d="M315.973 187.907C315.973 187.907 337.151 197.988 327.449 209.19C317.746 220.392 332.578 212.556 321.998 226.802C318.212 231.901 318.045 226.821 304.405 236.5C290.765 246.179 291.038 259.37 278.903 257.383C275.564 256.836 268.398 254.216 262.864 251.208C257.329 248.2 253.537 251.952 253.055 250.921C251.411 247.407 260.736 240.759 260.378 236.817C259.574 227.963 261.275 218.868 262.164 213.292C263.348 205.868 270.825 202.543 270.863 201.466C271.078 195.378 277.327 189.565 285.465 185.368C288.135 183.991 293.935 184.413 298.902 183.888C314.295 187.026 315.973 187.907 315.973 187.907Z" fill="#C4C3C6"/>
<path fill-rule="evenodd" clip-rule="evenodd" d="M279.113 247.375C275.055 246.684 270.445 243.781 269.939 243.051C275.092 243 287.489 236.083 290.854 235.814C282.006 239.659 283.17 248.066 279.113 247.375Z" fill="black"/>
<path fill-rule="evenodd" clip-rule="evenodd" d="M268.352 243.013C271.868 244.837 275.991 245.35 280.387 241.898C282.489 240.247 294.046 234.197 295.858 234.165C287.891 230.457 287.614 237.337 271.377 232.909C270.572 232.689 268.475 234.746 265.93 235.317C265.251 235.469 267.84 227.738 265.558 228.958C263.276 230.179 261.541 239.479 268.352 243.013Z" fill="white"/>
<path fill-rule="evenodd" clip-rule="evenodd" d="M266.489 230.517C269.3 232.204 278.651 233.004 282.922 233.483C285.428 233.765 293.952 233.795 295.569 234.38C289.652 230.63 290.273 233.536 277.24 226.85C276.422 226.43 275.489 226.3 273.48 226.365C273.209 226.374 272.894 225.301 271.828 224.9C269.206 223.914 265.921 224.537 264.245 223.899C263.189 223.496 264.464 225.273 264.918 226.133C265.748 227.706 266.839 229.291 266.522 229.692C265.671 230.767 264.229 229.159 266.489 230.517Z" fill="white"/>
<path fill-rule="evenodd" clip-rule="evenodd" d="M268.317 239.719C271.542 241.846 275.573 241.355 279.977 239.416C282.56 238.279 294.285 233.939 296.103 234.195C287.991 231.088 289.048 234.423 278.592 230.766C277.818 230.496 273.478 228.548 273.078 226.627C272.757 227.465 272.735 228.262 273.146 228.672C271.492 228.541 270.676 228.632 268.106 227.28C265.536 225.929 265.425 224.857 263.31 222.861C264.303 225.081 264.282 229.044 264.099 231.158C263.787 234.757 263.643 236.635 268.317 239.719Z" fill="black"/>
<path fill-rule="evenodd" clip-rule="evenodd" d="M296.472 233.199C295.887 231.065 293.972 230.789 292.491 230.634C293.755 231.92 294.176 232.317 294.363 233.795C294.549 235.273 293.925 235.937 293.304 237.086C294.963 236.527 297.057 235.333 296.472 233.199Z" fill="black"/>
<path fill-rule="evenodd" clip-rule="evenodd" d="M317.554 213.145C321.557 213.517 322.01 215.321 330.6 206.475C333.08 203.92 332.008 208.91 329.512 215.006C326.734 221.79 320.568 232.061 317.419 234.596C315.279 236.318 293.118 244.837 308.726 232.338C324.333 219.839 318.021 216.536 317.554 213.145Z" fill="black"/>
<path fill-rule="evenodd" clip-rule="evenodd" d="M276.264 221.933C274.322 220.457 273.19 224.421 273.472 226.218C275.013 225.57 278.205 223.408 276.264 221.933Z" fill="black"/>
<path fill-rule="evenodd" clip-rule="evenodd" d="M276.924 219.57C278.872 216.518 282.506 221.647 283.004 223.94C280.341 223.873 274.976 222.622 276.924 219.57Z" fill="black"/>
<path fill-rule="evenodd" clip-rule="evenodd" d="M271.254 217.879C272.651 215.665 274.959 219.271 275.245 221.2C273.574 221.11 269.857 220.093 271.254 217.879Z" fill="black"/>
<path fill-rule="evenodd" clip-rule="evenodd" d="M267.863 217.243C268.189 218.118 269.76 219.685 273.175 220.701C270.869 219.708 268.412 217.392 270.992 213.645C267.721 213.955 267.318 215.779 267.863 217.243Z" fill="black"/>
<path fill-rule="evenodd" clip-rule="evenodd" d="M270.257 217.52C270.206 217.506 270.155 217.488 270.105 217.467C269.394 217.163 269.046 216.191 269.329 215.297C269.604 214.425 270.377 213.948 271.075 214.208C270.848 214.564 270.652 214.984 270.504 215.452C270.277 216.172 270.2 216.893 270.257 217.52Z" fill="white"/>
<path fill-rule="evenodd" clip-rule="evenodd" d="M300.166 211.801C303.395 212.506 307.201 213.515 309.653 216.457C312.105 219.399 308.8 222.078 306.695 223.026C302.808 224.775 301.634 220.12 293.289 219.151C285.449 218.241 293.191 210.278 300.166 211.801Z" fill="white"/>
<path fill-rule="evenodd" clip-rule="evenodd" d="M310.182 185.608C312.649 181.848 290.305 179.885 282.687 183.908C278.134 186.312 275.061 190.106 277.78 191.677C280.389 193.184 297.916 183.452 299.589 185.403C299.621 185.441 299.419 185.759 298.985 186.359C298.78 186.644 298.212 187.401 298.212 187.401C298.212 187.401 295.665 190.846 295.994 193.987C296.898 193.37 305.613 187.414 310.182 185.608Z" fill="black"/>
<path fill-rule="evenodd" clip-rule="evenodd" d="M296.242 191.314C296.023 189.22 294.072 188.043 292.316 188.265C290.285 188.521 288.174 188.9 286.025 189.447C273.092 192.739 283.271 185.206 288.72 183.652C292.974 182.439 298.92 182.656 303.714 183.532C303.617 184.475 298.473 187.374 296.242 191.314Z" fill="white"/>
<path fill-rule="evenodd" clip-rule="evenodd" d="M327.097 195.73C329.901 192.734 312.756 182.425 303.742 187.149C299.856 189.186 289.595 197.81 301.156 193.574C312.716 189.337 325.298 199.522 327.097 195.73Z" fill="white"/>
<path fill-rule="evenodd" clip-rule="evenodd" d="M270.559 205.283C272.509 204.95 274.991 205.897 276.568 207.592C277.493 208.586 278.028 210.397 269.743 210.738C269.223 210.759 267.237 211.166 266.255 210.771C264.156 209.96 267.296 205.84 270.559 205.283Z" fill="white"/>
<path fill-rule="evenodd" clip-rule="evenodd" d="M282.152 212.019C282.445 212.838 283.131 214.317 281.597 214.712C280.063 215.107 277.892 215.003 275.886 213.811C273.88 212.618 274.947 211.772 277.345 211.127C280.03 210.404 286.936 203.412 286.936 203.412C286.936 203.412 290.365 198.287 291.328 197.391C292.543 196.261 290.483 206.467 283.824 210.161C283.714 210.222 281.859 211.2 282.152 212.019Z" fill="white"/>
<path fill-rule="evenodd" clip-rule="evenodd" d="M264.518 244.07C267.453 245.102 270.498 247.655 272.961 251.73C275.424 255.805 268.338 253.012 262.781 250.423C257.225 247.834 256.15 250.958 255.098 249.673C252.823 246.97 259.608 242.342 264.518 244.07Z" fill="white"/>
<path fill-rule="evenodd" clip-rule="evenodd" d="M294.647 251.621C295.938 250.862 296.636 249.103 296.777 247.432C296.859 246.451 296.645 243.953 297.051 243.42C295.639 244.943 294.678 247.174 292.536 248.479C290.339 249.818 286.964 250.214 285.854 250.32C287.921 251.961 292.487 252.891 294.647 251.621Z" fill="black"/>
<path fill-rule="evenodd" clip-rule="evenodd" d="M260.218 233.492C260.297 232.634 255.476 241.66 255.108 242.818C254.892 243.497 255.085 245.703 254.685 246.062C257.634 242.01 261.124 241.276 262.876 241.188C261.509 239.993 259.947 236.426 260.218 233.492Z" fill="black"/>
<path fill-rule="evenodd" clip-rule="evenodd" d="M294.19 208.314C295.566 203.784 300.073 201.045 304.469 202.141C308.835 203.23 311.522 207.709 310.665 212.321C310.732 212.371 310.798 212.422 310.864 212.473C311.804 207.716 309.05 203.053 304.523 201.924C299.965 200.788 295.311 203.66 293.944 208.359C294.026 208.343 294.108 208.329 294.19 208.314ZM294.121 208.554C294.039 208.568 293.958 208.583 293.877 208.599C293.866 208.642 293.855 208.684 293.844 208.727C292.619 213.643 295.403 218.581 300.079 219.747C304.756 220.913 309.533 217.861 310.758 212.944C310.777 212.869 310.795 212.793 310.812 212.717C310.748 212.666 310.682 212.615 310.617 212.565C310.594 212.673 310.568 212.782 310.541 212.89C309.343 217.698 304.679 220.664 300.134 219.53C295.588 218.397 292.863 213.589 294.061 208.781C294.08 208.705 294.1 208.629 294.121 208.554Z" fill="white"/>
<path fill-rule="evenodd" clip-rule="evenodd" d="M293.624 208.642C293.798 208.334 294.082 208.063 294.466 207.834C295.005 207.511 295.734 207.276 296.605 207.141C298.346 206.871 300.633 207.002 303.052 207.605C305.47 208.208 307.552 209.166 308.962 210.222C309.667 210.75 310.2 211.3 310.525 211.838C310.708 212.141 310.824 212.438 310.869 212.724C310.948 212.758 311.028 212.792 311.106 212.826C311.075 212.461 310.939 212.09 310.717 211.722C310.372 211.152 309.816 210.582 309.096 210.043C307.656 208.965 305.546 207.997 303.106 207.388C300.665 206.78 298.347 206.644 296.57 206.92C295.682 207.058 294.923 207.3 294.351 207.642C293.906 207.908 293.57 208.237 293.378 208.628C293.46 208.632 293.541 208.637 293.624 208.642ZM293.521 208.86C293.443 208.856 293.365 208.851 293.288 208.848C293.273 208.891 293.26 208.935 293.249 208.98C293.112 209.529 293.249 210.108 293.594 210.679C293.939 211.249 294.495 211.819 295.215 212.358C296.654 213.436 298.765 214.404 301.205 215.012C303.645 215.621 305.963 215.757 307.74 215.481C308.629 215.343 309.387 215.101 309.959 214.759C310.532 214.417 310.924 213.97 311.061 213.421C311.09 213.306 311.107 213.189 311.112 213.072C311.038 213.04 310.964 213.008 310.89 212.976C310.891 213.109 310.876 213.24 310.844 213.367C310.726 213.841 310.383 214.245 309.845 214.567C309.305 214.889 308.577 215.124 307.706 215.26C305.965 215.53 303.677 215.398 301.259 214.795C298.84 214.192 296.759 213.235 295.349 212.179C294.643 211.65 294.11 211.101 293.785 210.563C293.461 210.026 293.348 209.508 293.466 209.034C293.481 208.975 293.499 208.917 293.521 208.86Z" fill="white"/>
<path fill-rule="evenodd" clip-rule="evenodd" d="M271.487 204.104C271.762 203.385 272.502 202.81 273.561 202.456C274.772 202.051 276.372 201.947 278.073 202.247C279.773 202.547 281.242 203.192 282.241 203.986C283.067 204.643 283.558 205.388 283.62 206.117C283.697 206.148 283.773 206.178 283.849 206.209C283.824 205.357 283.267 204.516 282.38 203.811C281.346 202.989 279.842 202.332 278.112 202.027C276.382 201.722 274.743 201.825 273.491 202.244C272.361 202.621 271.523 203.265 271.245 204.119C271.325 204.113 271.406 204.108 271.487 204.104ZM271.417 204.332C271.339 204.336 271.262 204.341 271.185 204.347C271.182 204.362 271.179 204.377 271.176 204.392C271.002 205.382 271.586 206.384 272.616 207.203C273.65 208.025 275.154 208.682 276.884 208.987C278.614 209.292 280.253 209.189 281.506 208.771C282.753 208.353 283.645 207.612 283.82 206.622C283.83 206.564 283.837 206.506 283.843 206.449C283.77 206.419 283.698 206.389 283.624 206.36C283.621 206.434 283.613 206.509 283.599 206.583C283.446 207.454 282.65 208.152 281.435 208.558C280.224 208.963 278.624 209.067 276.923 208.767C275.223 208.467 273.755 207.822 272.755 207.028C271.752 206.231 271.243 205.302 271.397 204.431C271.403 204.398 271.409 204.365 271.417 204.332Z" fill="white"/>
<path fill-rule="evenodd" clip-rule="evenodd" d="M273.551 201.473C275.268 197.725 278.997 195.652 282.306 196.727C285.537 197.776 287.328 201.489 286.654 205.424C286.719 205.482 286.785 205.541 286.849 205.6C287.601 201.534 285.78 197.62 282.376 196.514C278.887 195.381 275.012 197.608 273.288 201.513C273.376 201.499 273.463 201.486 273.551 201.473ZM273.445 201.714C273.358 201.727 273.271 201.741 273.185 201.756C273.084 202 272.992 202.25 272.909 202.506C271.444 207.016 273.271 211.692 277.045 212.918C280.82 214.145 285.047 211.436 286.512 206.926C286.628 206.57 286.723 206.213 286.798 205.856C286.735 205.797 286.671 205.738 286.606 205.68C286.529 206.072 286.427 206.465 286.299 206.857C284.859 211.289 280.735 213.882 277.115 212.706C273.494 211.529 271.682 207.008 273.122 202.575C273.218 202.28 273.326 201.992 273.445 201.714Z" fill="white"/>
<path fill-rule="evenodd" clip-rule="evenodd" d="M282.641 198.439C285.245 199.286 287.586 203.583 286.447 205.233C285.624 206.425 281.927 204.954 280.653 204.539C277.617 203.553 274.58 203.23 271.805 203.487C271.805 203.487 276.248 196.361 282.641 198.439Z" fill="black"/>
<path fill-rule="evenodd" clip-rule="evenodd" d="M293.825 208.29C295.088 204.775 299.418 202.819 303.863 203.927C308.212 205.011 311.086 208.633 310.708 212.251C310.779 212.295 310.849 212.34 310.918 212.385C311.384 208.593 308.386 204.824 303.917 203.71C299.351 202.572 294.841 204.601 293.578 208.317C293.66 208.308 293.742 208.299 293.825 208.29ZM293.746 208.523C293.665 208.532 293.584 208.542 293.504 208.551C293.477 208.643 293.451 208.735 293.428 208.829C292.421 212.867 295.515 217.083 300.286 218.273C305.058 219.462 309.769 217.193 310.776 213.154C310.819 212.979 310.855 212.804 310.884 212.629C310.815 212.584 310.747 212.54 310.678 212.496C310.648 212.698 310.609 212.899 310.559 213.1C309.59 216.984 305.03 219.225 300.341 218.056C295.651 216.886 292.677 212.767 293.645 208.883C293.675 208.761 293.709 208.642 293.746 208.523Z" fill="black"/>
<path fill-rule="evenodd" clip-rule="evenodd" d="M272.732 205.215C277.432 206.451 279.242 206.47 281.154 206.059C283.066 205.648 284.927 205.452 286.502 203.582C287.001 205.312 285.498 206.302 281.21 209.31C276.922 212.318 272.982 211.502 270.903 214.368C270.914 214.024 271.16 211.883 275.288 209.771C279.416 207.658 275.002 208.097 272.732 205.215Z" fill="black"/>
<path fill-rule="evenodd" clip-rule="evenodd" d="M298.763 210.367C304.031 212.721 306.259 213.809 306.259 213.809C306.259 213.809 293.742 210.368 291.824 214.72C290.941 217.034 294.673 219.267 294.673 219.267C294.673 219.267 298.907 224.377 292.731 223.442C286.554 222.507 285.086 224.354 284.627 224.298C286.609 223.03 287.15 220.93 286.83 218.843C286.51 216.757 285.585 215.877 283.095 214.817C283.193 215.029 287.279 214.361 289.201 212.435C291.371 210.261 294.625 206.079 294.9 206.276C295.133 206.443 293.496 208.012 298.763 210.367Z" fill="black"/>
<path fill-rule="evenodd" clip-rule="evenodd" d="M286.458 220.575C286.72 216.828 284.004 215.806 283.296 214.922C285.524 215.991 287.587 216.716 288.347 218.698C289.152 220.802 288.996 223.764 284.697 224.217C285.249 223.502 286.301 222.823 286.458 220.575Z" fill="white"/>
<path fill-rule="evenodd" clip-rule="evenodd" d="M306.906 198.933C302.717 198.277 300.949 199.887 299.686 201.165C302.817 200.721 303.806 200.555 306.561 201.212C309.316 201.868 310.082 202.815 311.714 204.032C311.825 202.189 311.095 199.59 306.906 198.933Z" fill="black"/>
<path fill-rule="evenodd" clip-rule="evenodd" d="M286.465 194.208C283.492 192.472 281.423 193.415 279.891 194.201C282.516 194.669 283.356 194.794 285.214 196.135C287.072 197.476 287.259 198.528 288.003 200.057C288.884 198.452 289.437 195.944 286.465 194.208Z" fill="black"/>
<path fill-rule="evenodd" clip-rule="evenodd" d="M315.464 228.808C312.823 231.209 308.133 234.614 303.928 236.301C307.52 232.147 307.317 231.156 312.709 226.674C318.102 222.192 315.276 217.425 318.454 216.393C320.498 221.466 319.881 224.79 315.464 228.808Z" fill="white"/>
</g>
<defs>
<clipPath id="clip0">
<rect width="640" height="480" fill="white"/>
</clipPath>
</defs>
</svg>
