<svg width="440" height="216" viewBox="0 0 440 216" fill="none" xmlns="http://www.w3.org/2000/svg">
<mask id="mask0" mask-type="alpha" maskUnits="userSpaceOnUse" x="0" y="0" width="440" height="216">
<rect width="440" height="216" fill="#0B0C0F"/>
</mask>
<g mask="url(#mask0)">
<g filter="url(#filter0_d)">
<mask id="mask1" mask-type="alpha" maskUnits="userSpaceOnUse" x="0" y="32" width="400" height="216">
<path d="M0 32H392C396.418 32 400 35.5817 400 40V248H0V32Z" fill="#A0AEB0"/>
</mask>
<g mask="url(#mask1)">
<path d="M-8 32.5H-8.5V33V256V256.5H-8H399H399.5V256V41C399.5 36.3056 395.694 32.5 391 32.5H-8Z" stroke="black" stroke-opacity="0.18"/>
<mask id="mask2" mask-type="alpha" maskUnits="userSpaceOnUse" x="-8" y="33" width="407" height="223">
<path d="M-8 33H391C395.418 33 399 36.5817 399 41V256H-8V33Z" fill="#DFE1E5"/>
</mask>
<g mask="url(#mask2)">
<path d="M-8 33H399V256H-8V33Z" fill="#35363A"/>
<g filter="url(#filter1_f)">
<path d="M-24 25H399V34H-24V25Z" fill="#EEEEF0" fill-opacity="0.14"/>
</g>
</g>
</g>
<circle cx="372" cy="44" r="2" fill="#ADAEB3"/>
<circle cx="372" cy="50" r="2" fill="#ADAEB3"/>
<circle cx="372" cy="56" r="2" fill="#ADAEB3"/>
<g filter="url(#filter2_i)">
<rect y="65" width="399" height="175" fill="#21292F"/>
</g>
</g>
<path d="M136 76C136 73.7909 137.791 72 140 72H372C374.209 72 376 73.7909 376 76V340C376 342.209 374.209 344 372 344H140C137.791 344 136 342.209 136 340V76Z" fill="#2D363C"/>
<path d="M136.5 76C136.5 74.067 138.067 72.5 140 72.5H372C373.933 72.5 375.5 74.067 375.5 76V340C375.5 341.933 373.933 343.5 372 343.5H140C138.067 343.5 136.5 341.933 136.5 340V76Z" stroke="black" stroke-opacity="0.28"/>
<path d="M152.977 135.203C152.977 134.201 153.048 133.266 153.191 132.4C153.341 131.535 153.605 130.786 153.982 130.154C154.367 129.516 154.881 129.015 155.525 128.65C156.176 128.286 157 128.104 157.996 128.104C158.999 128.104 159.822 128.286 160.467 128.65C161.118 129.015 161.632 129.516 162.01 130.154C162.387 130.786 162.648 131.535 162.791 132.4C162.941 133.266 163.016 134.201 163.016 135.203C163.016 136.206 162.941 137.14 162.791 138.006C162.648 138.872 162.387 139.62 162.01 140.252C161.632 140.883 161.118 141.385 160.467 141.756C159.822 142.12 158.999 142.303 157.996 142.303C156.993 142.303 156.17 142.12 155.525 141.756C154.881 141.385 154.367 140.883 153.982 140.252C153.605 139.62 153.341 138.872 153.191 138.006C153.048 137.133 152.977 136.199 152.977 135.203ZM155.682 137.84C155.675 139.415 156.447 140.203 157.996 140.203C159.546 140.203 160.32 139.415 160.32 137.84V132.557C160.32 130.981 159.546 130.197 157.996 130.203C156.447 130.203 155.675 130.988 155.682 132.557V137.84ZM165.408 142V139.119H168.289V142H165.408ZM170.955 142V139.881L176.434 134.539C176.844 134.155 177.166 133.768 177.4 133.377C177.635 132.98 177.752 132.553 177.752 132.098C177.752 131.499 177.566 131.033 177.195 130.701C176.824 130.369 176.342 130.203 175.75 130.203C175.06 130.203 174.52 130.392 174.129 130.77C173.745 131.147 173.553 131.691 173.553 132.4H171.014C171.014 131.749 171.134 131.16 171.375 130.633C171.616 130.105 171.951 129.656 172.381 129.285C172.817 128.908 173.328 128.618 173.914 128.416C174.5 128.208 175.141 128.104 175.838 128.104C176.528 128.104 177.15 128.201 177.703 128.396C178.257 128.585 178.722 128.855 179.1 129.207C179.484 129.552 179.773 129.972 179.969 130.467C180.171 130.955 180.271 131.499 180.271 132.098C180.271 132.495 180.216 132.879 180.105 133.25C179.995 133.615 179.848 133.963 179.666 134.295C179.484 134.62 179.272 134.923 179.031 135.203C178.797 135.483 178.553 135.743 178.299 135.984L174.158 139.861V139.9H180.477V142H170.955ZM186.99 142V139.803H191.17V128.396H193.768V142H186.99ZM196.561 135.203C196.561 132.872 197.085 131.108 198.133 129.91C199.188 128.706 200.682 128.104 202.615 128.104C204.549 128.104 206.043 128.706 207.098 129.91C208.152 131.108 208.68 132.872 208.68 135.203C208.68 137.534 208.152 139.301 207.098 140.506C206.043 141.704 204.549 142.303 202.615 142.303C200.682 142.303 199.188 141.704 198.133 140.506C197.085 139.301 196.561 137.534 196.561 135.203ZM199.354 137.303C199.354 137.758 199.441 138.159 199.617 138.504C199.793 138.849 200.027 139.142 200.32 139.383C200.613 139.624 200.955 139.803 201.346 139.92C201.736 140.037 202.16 140.096 202.615 140.096C203.071 140.096 203.494 140.037 203.885 139.92C204.282 139.803 204.627 139.624 204.92 139.383C205.213 139.142 205.444 138.849 205.613 138.504C205.789 138.152 205.877 137.752 205.877 137.303V133.104C205.877 132.648 205.789 132.247 205.613 131.902C205.444 131.557 205.213 131.264 204.92 131.023C204.627 130.783 204.282 130.604 203.885 130.486C203.494 130.363 203.071 130.301 202.615 130.301C202.16 130.301 201.736 130.363 201.346 130.486C200.955 130.604 200.613 130.783 200.32 131.023C200.027 131.264 199.793 131.557 199.617 131.902C199.441 132.247 199.354 132.648 199.354 133.104V137.303ZM210.037 128.396H212.977L215.896 134.041L218.816 128.396H221.717L217.176 136.678V142H214.578V136.678L210.037 128.396ZM227.283 130.604V128.396H237.801V130.604H233.846V142H231.238V130.604H227.283ZM239.734 142V131.805H245.428V133.758H242.234V142H239.734ZM246.844 139.1C246.844 138.273 247.13 137.56 247.703 136.961C248.276 136.362 249.103 136.014 250.184 135.916L253.006 135.682V135.018C253.006 134.484 252.863 134.1 252.576 133.865C252.29 133.624 251.899 133.504 251.404 133.504C250.896 133.504 250.483 133.628 250.164 133.875C249.845 134.116 249.686 134.471 249.686 134.939H247.186C247.199 134.38 247.319 133.891 247.547 133.475C247.775 133.051 248.077 132.7 248.455 132.42C248.833 132.14 249.282 131.928 249.803 131.785C250.324 131.635 250.89 131.561 251.502 131.561C252.726 131.561 253.693 131.857 254.402 132.449C255.112 133.042 255.467 133.911 255.467 135.057V140.057H257.186V142H253.25L253.23 140.418H253.143C252.85 140.978 252.459 141.424 251.971 141.756C251.489 142.081 250.854 142.244 250.066 142.244C249.598 142.244 249.168 142.166 248.777 142.01C248.393 141.854 248.055 141.635 247.762 141.355C247.469 141.076 247.241 140.747 247.078 140.369C246.922 139.992 246.844 139.568 246.844 139.1ZM249.441 139.383C249.441 139.689 249.581 139.92 249.861 140.076C250.141 140.226 250.503 140.301 250.945 140.301C251.583 140.301 252.085 140.076 252.449 139.627C252.82 139.171 253.006 138.621 253.006 137.977V137.576L250.008 137.84C249.637 137.879 249.448 138.1 249.441 138.504V139.383ZM258.934 142V131.805H261.434V133.279C261.74 132.732 262.137 132.309 262.625 132.01C263.12 131.71 263.729 131.561 264.451 131.561C265.597 131.561 266.44 131.896 266.98 132.566C267.521 133.23 267.791 134.148 267.791 135.32V142H265.291V135.496C265.291 134.897 265.164 134.432 264.91 134.1C264.656 133.768 264.23 133.602 263.631 133.602C262.941 133.602 262.4 133.833 262.01 134.295C261.626 134.751 261.434 135.353 261.434 136.102V142H258.934ZM270.125 138.758H272.625C272.729 139.786 273.344 140.301 274.471 140.301C274.952 140.301 275.363 140.213 275.701 140.037C276.04 139.855 276.209 139.568 276.209 139.178C276.209 138.807 276.069 138.54 275.789 138.377C275.509 138.208 275.141 138.074 274.686 137.977L272.928 137.596C271.222 137.225 270.369 136.251 270.369 134.676C270.369 134.233 270.457 133.823 270.633 133.445C270.815 133.068 271.076 132.739 271.414 132.459C271.753 132.179 272.166 131.961 272.654 131.805C273.143 131.642 273.699 131.561 274.324 131.561C275.483 131.561 276.434 131.84 277.176 132.4C277.918 132.96 278.315 133.807 278.367 134.939H275.867C275.841 134.458 275.688 134.1 275.408 133.865C275.128 133.624 274.767 133.504 274.324 133.504C273.895 133.504 273.543 133.598 273.27 133.787C273.003 133.969 272.869 134.227 272.869 134.559C272.869 134.891 272.97 135.138 273.172 135.301C273.38 135.457 273.65 135.571 273.982 135.643L276.004 136.082C276.375 136.16 276.727 136.277 277.059 136.434C277.397 136.583 277.687 136.779 277.928 137.02C278.169 137.26 278.357 137.547 278.494 137.879C278.637 138.211 278.709 138.605 278.709 139.061C278.709 139.503 278.615 139.917 278.426 140.301C278.237 140.685 277.964 141.02 277.605 141.307C277.247 141.593 276.805 141.821 276.277 141.99C275.75 142.16 275.148 142.244 274.471 142.244C273.11 142.244 272.059 141.945 271.316 141.346C270.574 140.74 270.177 139.878 270.125 138.758ZM280.477 139.1C280.477 138.273 280.763 137.56 281.336 136.961C281.909 136.362 282.736 136.014 283.816 135.916L286.639 135.682V135.018C286.639 134.484 286.495 134.1 286.209 133.865C285.923 133.624 285.532 133.504 285.037 133.504C284.529 133.504 284.116 133.628 283.797 133.875C283.478 134.116 283.318 134.471 283.318 134.939H280.818C280.831 134.38 280.952 133.891 281.18 133.475C281.408 133.051 281.71 132.7 282.088 132.42C282.465 132.14 282.915 131.928 283.436 131.785C283.956 131.635 284.523 131.561 285.135 131.561C286.359 131.561 287.326 131.857 288.035 132.449C288.745 133.042 289.1 133.911 289.1 135.057V140.057H290.818V142H286.883L286.863 140.418H286.775C286.482 140.978 286.092 141.424 285.604 141.756C285.122 142.081 284.487 142.244 283.699 142.244C283.23 142.244 282.801 142.166 282.41 142.01C282.026 141.854 281.688 141.635 281.395 141.355C281.102 141.076 280.874 140.747 280.711 140.369C280.555 139.992 280.477 139.568 280.477 139.1ZM283.074 139.383C283.074 139.689 283.214 139.92 283.494 140.076C283.774 140.226 284.135 140.301 284.578 140.301C285.216 140.301 285.717 140.076 286.082 139.627C286.453 139.171 286.639 138.621 286.639 137.977V137.576L283.641 137.84C283.27 137.879 283.081 138.1 283.074 138.504V139.383ZM292.039 136.961C292.039 136.121 292.146 135.369 292.361 134.705C292.576 134.035 292.882 133.468 293.279 133.006C293.683 132.537 294.165 132.179 294.725 131.932C295.285 131.684 295.916 131.561 296.619 131.561C297.153 131.561 297.664 131.632 298.152 131.775C298.641 131.912 299.08 132.13 299.471 132.43C299.868 132.729 300.187 133.113 300.428 133.582C300.675 134.044 300.828 134.598 300.887 135.242H298.387C298.322 134.591 298.12 134.139 297.781 133.885C297.449 133.631 297.029 133.504 296.521 133.504C296.014 133.504 295.574 133.667 295.203 133.992C294.832 134.318 294.646 134.819 294.646 135.496V138.299C294.646 138.924 294.822 139.415 295.174 139.773C295.525 140.125 295.981 140.301 296.541 140.301C297.101 140.301 297.54 140.167 297.859 139.9C298.185 139.633 298.387 139.161 298.465 138.484H300.965C300.9 139.122 300.747 139.676 300.506 140.145C300.265 140.607 299.949 140.994 299.559 141.307C299.174 141.619 298.735 141.854 298.24 142.01C297.752 142.166 297.228 142.244 296.668 142.244C295.906 142.244 295.239 142.114 294.666 141.854C294.093 141.593 293.608 141.232 293.211 140.77C292.82 140.307 292.527 139.754 292.332 139.109C292.137 138.465 292.039 137.749 292.039 136.961ZM302.459 133.738V131.805H304.48V128.396H306.98V131.805H309.52V133.738H306.98V140.057H309.52V142H304.48V133.738H302.459ZM311.863 130.623V128.396H314.441V130.623H311.863ZM311.902 142V131.805H314.402V142H311.902ZM316.961 136.902C316.961 136.102 317.068 135.376 317.283 134.725C317.498 134.067 317.807 133.504 318.211 133.035C318.621 132.56 319.122 132.195 319.715 131.941C320.307 131.688 320.984 131.561 321.746 131.561C322.508 131.561 323.185 131.688 323.777 131.941C324.37 132.195 324.868 132.56 325.271 133.035C325.682 133.504 325.991 134.067 326.199 134.725C326.414 135.376 326.521 136.102 326.521 136.902C326.521 137.703 326.414 138.429 326.199 139.08C325.991 139.731 325.682 140.294 325.271 140.77C324.868 141.245 324.37 141.609 323.777 141.863C323.185 142.117 322.508 142.244 321.746 142.244C320.984 142.244 320.307 142.117 319.715 141.863C319.122 141.609 318.621 141.245 318.211 140.77C317.807 140.294 317.498 139.731 317.283 139.08C317.068 138.429 316.961 137.703 316.961 136.902ZM319.568 138.377C319.568 138.989 319.773 139.464 320.184 139.803C320.6 140.135 321.121 140.301 321.746 140.301C322.371 140.301 322.889 140.138 323.299 139.812C323.715 139.487 323.924 139.008 323.924 138.377V135.418C323.924 134.793 323.715 134.318 323.299 133.992C322.889 133.667 322.371 133.504 321.746 133.504C321.121 133.504 320.6 133.67 320.184 134.002C319.773 134.334 319.568 134.806 319.568 135.418V138.377ZM329.09 142V131.805H331.59V133.279C331.896 132.732 332.293 132.309 332.781 132.01C333.276 131.71 333.885 131.561 334.607 131.561C335.753 131.561 336.596 131.896 337.137 132.566C337.677 133.23 337.947 134.148 337.947 135.32V142H335.447V135.496C335.447 134.897 335.32 134.432 335.066 134.1C334.812 133.768 334.386 133.602 333.787 133.602C333.097 133.602 332.557 133.833 332.166 134.295C331.782 134.751 331.59 135.353 331.59 136.102V142H329.09ZM153.68 166V152.396H159.217C160.669 152.396 161.743 152.742 162.439 153.432C163.136 154.115 163.484 155.17 163.484 156.596C163.484 157.676 163.227 158.546 162.713 159.203C162.199 159.854 161.482 160.307 160.564 160.561L163.68 166H160.799L157.938 160.775H156.277V166H153.68ZM156.277 158.637H159.559C160.372 158.637 160.779 158.184 160.779 157.279V155.883C160.779 155.427 160.688 155.102 160.506 154.906C160.33 154.704 160.014 154.604 159.559 154.604H156.277V158.637ZM165.691 160.883C165.691 160.082 165.802 159.356 166.023 158.705C166.245 158.048 166.554 157.488 166.951 157.025C167.355 156.557 167.84 156.195 168.406 155.941C168.973 155.688 169.601 155.561 170.291 155.561C170.981 155.561 171.606 155.684 172.166 155.932C172.732 156.179 173.214 156.521 173.611 156.957C174.015 157.387 174.321 157.901 174.529 158.5C174.744 159.099 174.852 159.747 174.852 160.443V161.703H168.299V162.377C168.299 162.989 168.497 163.464 168.895 163.803C169.298 164.135 169.773 164.301 170.32 164.301C170.867 164.301 171.313 164.158 171.658 163.871C172.003 163.585 172.208 163.181 172.273 162.66H174.773C174.611 163.793 174.132 164.675 173.338 165.307C172.55 165.932 171.535 166.244 170.291 166.244C169.568 166.244 168.921 166.114 168.348 165.854C167.781 165.593 167.299 165.229 166.902 164.76C166.512 164.291 166.212 163.728 166.004 163.07C165.796 162.413 165.691 161.684 165.691 160.883ZM168.299 159.76H172.293V159.398C172.293 158.839 172.104 158.383 171.727 158.031C171.349 157.68 170.87 157.504 170.291 157.504C169.718 157.504 169.243 157.68 168.865 158.031C168.488 158.383 168.299 158.839 168.299 159.398V159.76ZM176.844 160.902C176.844 160.167 176.925 159.473 177.088 158.822C177.251 158.165 177.498 157.598 177.83 157.123C178.162 156.641 178.582 156.26 179.09 155.98C179.598 155.701 180.19 155.561 180.867 155.561C181.544 155.561 182.13 155.704 182.625 155.99C183.12 156.277 183.527 156.674 183.846 157.182V155.805H186.346V169.398H183.846V164.623C183.527 165.131 183.126 165.528 182.645 165.814C182.169 166.101 181.59 166.244 180.906 166.244C180.229 166.244 179.637 166.104 179.129 165.824C178.621 165.544 178.198 165.163 177.859 164.682C177.521 164.2 177.267 163.637 177.098 162.992C176.928 162.341 176.844 161.645 176.844 160.902ZM179.451 162.338C179.451 162.911 179.64 163.383 180.018 163.754C180.395 164.118 180.906 164.301 181.551 164.301C182.352 164.301 182.934 164.06 183.299 163.578C183.663 163.096 183.846 162.458 183.846 161.664V160.141C183.846 159.34 183.663 158.702 183.299 158.227C182.934 157.745 182.352 157.504 181.551 157.504C180.9 157.504 180.385 157.686 180.008 158.051C179.637 158.415 179.451 158.884 179.451 159.457V162.338ZM189.314 162.484V155.805H191.814V162.299C191.814 162.898 191.932 163.367 192.166 163.705C192.4 164.037 192.817 164.203 193.416 164.203C194.093 164.203 194.627 163.972 195.018 163.51C195.408 163.048 195.604 162.445 195.604 161.703V155.805H198.104V166H195.604V164.516C195.298 165.076 194.9 165.505 194.412 165.805C193.924 166.098 193.318 166.244 192.596 166.244C191.502 166.244 190.682 165.915 190.135 165.258C189.588 164.594 189.314 163.669 189.314 162.484ZM200.652 160.883C200.652 160.082 200.763 159.356 200.984 158.705C201.206 158.048 201.515 157.488 201.912 157.025C202.316 156.557 202.801 156.195 203.367 155.941C203.934 155.688 204.562 155.561 205.252 155.561C205.942 155.561 206.567 155.684 207.127 155.932C207.693 156.179 208.175 156.521 208.572 156.957C208.976 157.387 209.282 157.901 209.49 158.5C209.705 159.099 209.812 159.747 209.812 160.443V161.703H203.26V162.377C203.26 162.989 203.458 163.464 203.855 163.803C204.259 164.135 204.734 164.301 205.281 164.301C205.828 164.301 206.274 164.158 206.619 163.871C206.964 163.585 207.169 163.181 207.234 162.66H209.734C209.572 163.793 209.093 164.675 208.299 165.307C207.511 165.932 206.495 166.244 205.252 166.244C204.529 166.244 203.882 166.114 203.309 165.854C202.742 165.593 202.26 165.229 201.863 164.76C201.473 164.291 201.173 163.728 200.965 163.07C200.757 162.413 200.652 161.684 200.652 160.883ZM203.26 159.76H207.254V159.398C207.254 158.839 207.065 158.383 206.688 158.031C206.31 157.68 205.831 157.504 205.252 157.504C204.679 157.504 204.204 157.68 203.826 158.031C203.449 158.383 203.26 158.839 203.26 159.398V159.76ZM211.648 162.758H214.148C214.253 163.786 214.868 164.301 215.994 164.301C216.476 164.301 216.886 164.213 217.225 164.037C217.563 163.855 217.732 163.568 217.732 163.178C217.732 162.807 217.592 162.54 217.312 162.377C217.033 162.208 216.665 162.074 216.209 161.977L214.451 161.596C212.745 161.225 211.893 160.251 211.893 158.676C211.893 158.233 211.98 157.823 212.156 157.445C212.339 157.068 212.599 156.739 212.938 156.459C213.276 156.179 213.689 155.961 214.178 155.805C214.666 155.642 215.223 155.561 215.848 155.561C217.007 155.561 217.957 155.84 218.699 156.4C219.441 156.96 219.839 157.807 219.891 158.939H217.391C217.365 158.458 217.212 158.1 216.932 157.865C216.652 157.624 216.29 157.504 215.848 157.504C215.418 157.504 215.066 157.598 214.793 157.787C214.526 157.969 214.393 158.227 214.393 158.559C214.393 158.891 214.493 159.138 214.695 159.301C214.904 159.457 215.174 159.571 215.506 159.643L217.527 160.082C217.898 160.16 218.25 160.277 218.582 160.434C218.921 160.583 219.21 160.779 219.451 161.02C219.692 161.26 219.881 161.547 220.018 161.879C220.161 162.211 220.232 162.605 220.232 163.061C220.232 163.503 220.138 163.917 219.949 164.301C219.76 164.685 219.487 165.02 219.129 165.307C218.771 165.593 218.328 165.821 217.801 165.99C217.273 166.16 216.671 166.244 215.994 166.244C214.633 166.244 213.582 165.945 212.84 165.346C212.098 164.74 211.701 163.878 211.648 162.758ZM221.658 157.738V155.805H223.68V152.396H226.18V155.805H228.719V157.738H226.18V164.057H228.719V166H223.68V157.738H221.658Z" fill="#B5C1C9"/>
<path opacity="0.4" d="M152.861 108H158.571V106.675H154.442V104.293H158.243V102.967H154.442V100.598H158.537V99.2727H152.861V108ZM162.071 99.2727H160.26L162.983 103.636L160.226 108H162.05L163.993 104.825H164.061L166.004 108H167.837L165.105 103.636L167.794 99.2727H165.991L164.061 102.469H163.993L162.071 99.2727ZM169.251 100.598H171.949V108H173.517V100.598H176.215V99.2727H169.251V100.598ZM178.157 108H183.867V106.675H179.738V104.293H183.539V102.967H179.738V100.598H183.833V99.2727H178.157V108ZM186.046 108H187.627V104.804H189.238L190.951 108H192.715L190.827 104.54C191.854 104.126 192.395 103.249 192.395 102.064C192.395 100.398 191.322 99.2727 189.319 99.2727H186.046V108ZM187.627 103.491V100.594H189.076C190.256 100.594 190.785 101.135 190.785 102.064C190.785 102.993 190.256 103.491 189.084 103.491H187.627ZM201.623 99.2727H200.05V105.222H199.973L195.865 99.2727H194.451V108H196.032V102.055H196.104L200.216 108H201.623V99.2727ZM205.066 108L205.786 105.848H209.067L209.792 108H211.479L208.403 99.2727H206.451L203.378 108H205.066ZM206.212 104.578L207.393 101.062H207.461L208.641 104.578H206.212ZM213.229 108H218.653V106.675H214.81V99.2727H213.229V108ZM228.945 101.672H230.466C230.437 100.197 229.179 99.1534 227.322 99.1534C225.489 99.1534 224.113 100.185 224.117 101.727C224.117 102.98 225.008 103.7 226.444 104.071L227.437 104.327C228.378 104.565 229 104.859 229.005 105.537C229 106.283 228.293 106.781 227.262 106.781C226.273 106.781 225.506 106.338 225.442 105.422H223.887C223.951 107.156 225.242 108.132 227.275 108.132C229.367 108.132 230.581 107.088 230.586 105.55C230.581 104.037 229.333 103.347 228.02 103.036L227.202 102.831C226.486 102.661 225.711 102.358 225.719 101.629C225.724 100.973 226.312 100.491 227.3 100.491C228.242 100.491 228.864 100.93 228.945 101.672ZM234.176 99.2727H232.595V108H234.176V99.2727ZM242.335 102.06H243.946C243.677 100.347 242.194 99.1534 240.264 99.1534C237.98 99.1534 236.267 100.832 236.267 103.645C236.267 106.406 237.903 108.119 240.311 108.119C242.471 108.119 244.018 106.73 244.018 104.48V103.432H240.477V104.668H242.488C242.463 105.912 241.632 106.7 240.319 106.7C238.857 106.7 237.856 105.605 237.856 103.628C237.856 101.663 238.875 100.572 240.285 100.572C241.338 100.572 242.053 101.135 242.335 102.06ZM253.319 99.2727H251.746V105.222H251.669L247.562 99.2727H246.147V108H247.728V102.055H247.8L251.912 108H253.319V99.2727ZM255.641 108H261.351V106.675H257.222V104.293H261.023V102.967H257.222V100.598H261.317V99.2727H255.641V108ZM263.53 108H265.111V104.804H266.722L268.435 108H270.199L268.312 104.54C269.339 104.126 269.88 103.249 269.88 102.064C269.88 100.398 268.806 99.2727 266.803 99.2727H263.53V108ZM265.111 103.491V100.594H266.56C267.741 100.594 268.269 101.135 268.269 102.064C268.269 102.993 267.741 103.491 266.569 103.491H265.111ZM276.632 108L277.352 105.848H280.634L281.358 108H283.046L279.969 99.2727H278.017L274.945 108H276.632ZM277.779 104.578L278.959 101.062H279.027L280.208 104.578H277.779ZM284.795 108H286.376V105.051H288.047C290.062 105.051 291.145 103.841 291.145 102.162C291.145 100.496 290.075 99.2727 288.068 99.2727H284.795V108ZM286.376 103.751V100.594H287.825C289.01 100.594 289.534 101.233 289.534 102.162C289.534 103.091 289.01 103.751 287.834 103.751H286.376ZM293.118 108H294.699V105.051H296.369C298.385 105.051 299.467 103.841 299.467 102.162C299.467 100.496 298.398 99.2727 296.391 99.2727H293.118V108ZM294.699 103.751V100.594H296.148C297.332 100.594 297.856 101.233 297.856 102.162C297.856 103.091 297.332 103.751 296.156 103.751H294.699Z" fill="white"/>
<rect width="440" height="216" fill="url(#paint0_linear)"/>
</g>
<defs>
<filter id="filter0_d" x="-4" y="32" width="408" height="224" filterUnits="userSpaceOnUse" color-interpolation-filters="sRGB">
<feFlood flood-opacity="0" result="BackgroundImageFix"/>
<feColorMatrix in="SourceAlpha" type="matrix" values="0 0 0 0 0 0 0 0 0 0 0 0 0 0 0 0 0 0 127 0"/>
<feOffset dy="4"/>
<feGaussianBlur stdDeviation="2"/>
<feColorMatrix type="matrix" values="0 0 0 0 0 0 0 0 0 0 0 0 0 0 0 0 0 0 0.25 0"/>
<feBlend mode="normal" in2="BackgroundImageFix" result="effect1_dropShadow"/>
<feBlend mode="normal" in="SourceGraphic" in2="effect1_dropShadow" result="shape"/>
</filter>
<filter id="filter1_f" x="-25" y="24" width="425" height="11" filterUnits="userSpaceOnUse" color-interpolation-filters="sRGB">
<feFlood flood-opacity="0" result="BackgroundImageFix"/>
<feBlend mode="normal" in="SourceGraphic" in2="BackgroundImageFix" result="shape"/>
<feGaussianBlur stdDeviation="0.5" result="effect1_foregroundBlur"/>
</filter>
<filter id="filter2_i" x="0" y="65" width="399" height="175" filterUnits="userSpaceOnUse" color-interpolation-filters="sRGB">
<feFlood flood-opacity="0" result="BackgroundImageFix"/>
<feBlend mode="normal" in="SourceGraphic" in2="BackgroundImageFix" result="shape"/>
<feColorMatrix in="SourceAlpha" type="matrix" values="0 0 0 0 0 0 0 0 0 0 0 0 0 0 0 0 0 0 127 0" result="hardAlpha"/>
<feOffset dy="1"/>
<feComposite in2="hardAlpha" operator="arithmetic" k2="-1" k3="1"/>
<feColorMatrix type="matrix" values="0 0 0 0 0 0 0 0 0 0 0 0 0 0 0 0 0 0 0.32 0"/>
<feBlend mode="normal" in2="shape" result="effect1_innerShadow"/>
</filter>
<linearGradient id="paint0_linear" x1="220" y1="0" x2="220" y2="216" gradientUnits="userSpaceOnUse">
<stop stop-color="#272D33" stop-opacity="0.5"/>
<stop offset="1" stop-color="#272D33"/>
</linearGradient>
</defs>
</svg>
