<svg width="440" height="216" viewBox="0 0 440 216" fill="none" xmlns="http://www.w3.org/2000/svg">
<mask id="transaction-mask0" mask-type="alpha" maskUnits="userSpaceOnUse" x="0" y="0" width="440" height="216">
<rect width="440" height="216" fill="#0B0C0F"/>
</mask>
<g mask="url(#transaction-mask0)">
<g filter="url(#filter0_d)">
<mask id="transaction-mask1" mask-type="alpha" maskUnits="userSpaceOnUse" x="0" y="32" width="400" height="216">
<path d="M0 32H392C396.418 32 400 35.5817 400 40V248H0V32Z" fill="#A0AEB0"/>
</mask>
<g mask="url(#transaction-mask1)">
<path d="M-8 32.5H-8.5V33V256V256.5H-8H399H399.5V256V41C399.5 36.3056 395.694 32.5 391 32.5H-8Z" stroke="black" stroke-opacity="0.18"/>
<mask id="transaction-mask2" mask-type="alpha" maskUnits="userSpaceOnUse" x="-8" y="33" width="407" height="223">
<path d="M-8 33H391C395.418 33 399 36.5817 399 41V256H-8V33Z" fill="#DFE1E5"/>
</mask>
<g mask="url(#transaction-mask2)">
<path d="M-8 33H399V256H-8V33Z" fill="#35363A"/>
<g filter="url(#filter1_f)">
<path d="M-24 25H399V34H-24V25Z" fill="#EEEEF0" fill-opacity="0.14"/>
</g>
</g>
</g>
<circle cx="372" cy="44" r="2" fill="#ADAEB3"/>
<circle cx="372" cy="50" r="2" fill="#ADAEB3"/>
<circle cx="372" cy="56" r="2" fill="#ADAEB3"/>
<g filter="url(#filter2_i)">
<rect y="65" width="399" height="175" fill="#21292F"/>
</g>
</g>
<path d="M136 76C136 73.7909 137.791 72 140 72H372C374.209 72 376 73.7909 376 76V340C376 342.209 374.209 344 372 344H140C137.791 344 136 342.209 136 340V76Z" fill="#2D363C"/>
<path d="M136.5 76C136.5 74.067 138.067 72.5 140 72.5H372C373.933 72.5 375.5 74.067 375.5 76V340C375.5 341.933 373.933 343.5 372 343.5H140C138.067 343.5 136.5 341.933 136.5 340V76Z" stroke="black" stroke-opacity="0.28"/>
<path d="M152.977 135.203C152.977 134.201 153.048 133.266 153.191 132.4C153.341 131.535 153.605 130.786 153.982 130.154C154.367 129.516 154.881 129.015 155.525 128.65C156.176 128.286 157 128.104 157.996 128.104C158.999 128.104 159.822 128.286 160.467 128.65C161.118 129.015 161.632 129.516 162.01 130.154C162.387 130.786 162.648 131.535 162.791 132.4C162.941 133.266 163.016 134.201 163.016 135.203C163.016 136.206 162.941 137.14 162.791 138.006C162.648 138.872 162.387 139.62 162.01 140.252C161.632 140.883 161.118 141.385 160.467 141.756C159.822 142.12 158.999 142.303 157.996 142.303C156.993 142.303 156.17 142.12 155.525 141.756C154.881 141.385 154.367 140.883 153.982 140.252C153.605 139.62 153.341 138.872 153.191 138.006C153.048 137.133 152.977 136.199 152.977 135.203ZM155.682 137.84C155.675 139.415 156.447 140.203 157.996 140.203C159.546 140.203 160.32 139.415 160.32 137.84V132.557C160.32 130.981 159.546 130.197 157.996 130.203C156.447 130.203 155.675 130.988 155.682 132.557V137.84ZM169.275 142V139.803H173.455V128.396H176.053V142H169.275ZM178.846 135.203C178.846 132.872 179.37 131.108 180.418 129.91C181.473 128.706 182.967 128.104 184.9 128.104C186.834 128.104 188.328 128.706 189.383 129.91C190.438 131.108 190.965 132.872 190.965 135.203C190.965 137.534 190.438 139.301 189.383 140.506C188.328 141.704 186.834 142.303 184.9 142.303C182.967 142.303 181.473 141.704 180.418 140.506C179.37 139.301 178.846 137.534 178.846 135.203ZM181.639 137.303C181.639 137.758 181.727 138.159 181.902 138.504C182.078 138.849 182.312 139.142 182.605 139.383C182.898 139.624 183.24 139.803 183.631 139.92C184.021 140.037 184.445 140.096 184.9 140.096C185.356 140.096 185.779 140.037 186.17 139.92C186.567 139.803 186.912 139.624 187.205 139.383C187.498 139.142 187.729 138.849 187.898 138.504C188.074 138.152 188.162 137.752 188.162 137.303V133.104C188.162 132.648 188.074 132.247 187.898 131.902C187.729 131.557 187.498 131.264 187.205 131.023C186.912 130.783 186.567 130.604 186.17 130.486C185.779 130.363 185.356 130.301 184.9 130.301C184.445 130.301 184.021 130.363 183.631 130.486C183.24 130.604 182.898 130.783 182.605 131.023C182.312 131.264 182.078 131.557 181.902 131.902C181.727 132.247 181.639 132.648 181.639 133.104V137.303ZM192.322 128.396H195.262L198.182 134.041L201.102 128.396H204.002L199.461 136.678V142H196.863V136.678L192.322 128.396ZM209.568 130.604V128.396H220.086V130.604H216.131V142H213.523V130.604H209.568ZM222.02 142V131.805H227.713V133.758H224.52V142H222.02ZM229.129 139.1C229.129 138.273 229.415 137.56 229.988 136.961C230.561 136.362 231.388 136.014 232.469 135.916L235.291 135.682V135.018C235.291 134.484 235.148 134.1 234.861 133.865C234.575 133.624 234.184 133.504 233.689 133.504C233.182 133.504 232.768 133.628 232.449 133.875C232.13 134.116 231.971 134.471 231.971 134.939H229.471C229.484 134.38 229.604 133.891 229.832 133.475C230.06 133.051 230.363 132.7 230.74 132.42C231.118 132.14 231.567 131.928 232.088 131.785C232.609 131.635 233.175 131.561 233.787 131.561C235.011 131.561 235.978 131.857 236.688 132.449C237.397 133.042 237.752 133.911 237.752 135.057V140.057H239.471V142H235.535L235.516 140.418H235.428C235.135 140.978 234.744 141.424 234.256 141.756C233.774 142.081 233.139 142.244 232.352 142.244C231.883 142.244 231.453 142.166 231.062 142.01C230.678 141.854 230.34 141.635 230.047 141.355C229.754 141.076 229.526 140.747 229.363 140.369C229.207 139.992 229.129 139.568 229.129 139.1ZM231.727 139.383C231.727 139.689 231.867 139.92 232.146 140.076C232.426 140.226 232.788 140.301 233.23 140.301C233.868 140.301 234.37 140.076 234.734 139.627C235.105 139.171 235.291 138.621 235.291 137.977V137.576L232.293 137.84C231.922 137.879 231.733 138.1 231.727 138.504V139.383ZM241.219 142V131.805H243.719V133.279C244.025 132.732 244.422 132.309 244.91 132.01C245.405 131.71 246.014 131.561 246.736 131.561C247.882 131.561 248.725 131.896 249.266 132.566C249.806 133.23 250.076 134.148 250.076 135.32V142H247.576V135.496C247.576 134.897 247.449 134.432 247.195 134.1C246.941 133.768 246.515 133.602 245.916 133.602C245.226 133.602 244.686 133.833 244.295 134.295C243.911 134.751 243.719 135.353 243.719 136.102V142H241.219ZM252.41 138.758H254.91C255.014 139.786 255.63 140.301 256.756 140.301C257.238 140.301 257.648 140.213 257.986 140.037C258.325 139.855 258.494 139.568 258.494 139.178C258.494 138.807 258.354 138.54 258.074 138.377C257.794 138.208 257.426 138.074 256.971 137.977L255.213 137.596C253.507 137.225 252.654 136.251 252.654 134.676C252.654 134.233 252.742 133.823 252.918 133.445C253.1 133.068 253.361 132.739 253.699 132.459C254.038 132.179 254.451 131.961 254.939 131.805C255.428 131.642 255.984 131.561 256.609 131.561C257.768 131.561 258.719 131.84 259.461 132.4C260.203 132.96 260.6 133.807 260.652 134.939H258.152C258.126 134.458 257.973 134.1 257.693 133.865C257.413 133.624 257.052 133.504 256.609 133.504C256.18 133.504 255.828 133.598 255.555 133.787C255.288 133.969 255.154 134.227 255.154 134.559C255.154 134.891 255.255 135.138 255.457 135.301C255.665 135.457 255.936 135.571 256.268 135.643L258.289 136.082C258.66 136.16 259.012 136.277 259.344 136.434C259.682 136.583 259.972 136.779 260.213 137.02C260.454 137.26 260.643 137.547 260.779 137.879C260.923 138.211 260.994 138.605 260.994 139.061C260.994 139.503 260.9 139.917 260.711 140.301C260.522 140.685 260.249 141.02 259.891 141.307C259.533 141.593 259.09 141.821 258.562 141.99C258.035 142.16 257.433 142.244 256.756 142.244C255.395 142.244 254.344 141.945 253.602 141.346C252.859 140.74 252.462 139.878 252.41 138.758ZM262.762 139.1C262.762 138.273 263.048 137.56 263.621 136.961C264.194 136.362 265.021 136.014 266.102 135.916L268.924 135.682V135.018C268.924 134.484 268.781 134.1 268.494 133.865C268.208 133.624 267.817 133.504 267.322 133.504C266.814 133.504 266.401 133.628 266.082 133.875C265.763 134.116 265.604 134.471 265.604 134.939H263.104C263.117 134.38 263.237 133.891 263.465 133.475C263.693 133.051 263.995 132.7 264.373 132.42C264.751 132.14 265.2 131.928 265.721 131.785C266.242 131.635 266.808 131.561 267.42 131.561C268.644 131.561 269.611 131.857 270.32 132.449C271.03 133.042 271.385 133.911 271.385 135.057V140.057H273.104V142H269.168L269.148 140.418H269.061C268.768 140.978 268.377 141.424 267.889 141.756C267.407 142.081 266.772 142.244 265.984 142.244C265.516 142.244 265.086 142.166 264.695 142.01C264.311 141.854 263.973 141.635 263.68 141.355C263.387 141.076 263.159 140.747 262.996 140.369C262.84 139.992 262.762 139.568 262.762 139.1ZM265.359 139.383C265.359 139.689 265.499 139.92 265.779 140.076C266.059 140.226 266.421 140.301 266.863 140.301C267.501 140.301 268.003 140.076 268.367 139.627C268.738 139.171 268.924 138.621 268.924 137.977V137.576L265.926 137.84C265.555 137.879 265.366 138.1 265.359 138.504V139.383ZM274.324 136.961C274.324 136.121 274.432 135.369 274.646 134.705C274.861 134.035 275.167 133.468 275.564 133.006C275.968 132.537 276.45 132.179 277.01 131.932C277.57 131.684 278.201 131.561 278.904 131.561C279.438 131.561 279.949 131.632 280.438 131.775C280.926 131.912 281.365 132.13 281.756 132.43C282.153 132.729 282.472 133.113 282.713 133.582C282.96 134.044 283.113 134.598 283.172 135.242H280.672C280.607 134.591 280.405 134.139 280.066 133.885C279.734 133.631 279.314 133.504 278.807 133.504C278.299 133.504 277.859 133.667 277.488 133.992C277.117 134.318 276.932 134.819 276.932 135.496V138.299C276.932 138.924 277.107 139.415 277.459 139.773C277.811 140.125 278.266 140.301 278.826 140.301C279.386 140.301 279.826 140.167 280.145 139.9C280.47 139.633 280.672 139.161 280.75 138.484H283.25C283.185 139.122 283.032 139.676 282.791 140.145C282.55 140.607 282.234 140.994 281.844 141.307C281.46 141.619 281.02 141.854 280.525 142.01C280.037 142.166 279.513 142.244 278.953 142.244C278.191 142.244 277.524 142.114 276.951 141.854C276.378 141.593 275.893 141.232 275.496 140.77C275.105 140.307 274.812 139.754 274.617 139.109C274.422 138.465 274.324 137.749 274.324 136.961ZM284.744 133.738V131.805H286.766V128.396H289.266V131.805H291.805V133.738H289.266V140.057H291.805V142H286.766V133.738H284.744ZM294.148 130.623V128.396H296.727V130.623H294.148ZM294.188 142V131.805H296.688V142H294.188ZM299.246 136.902C299.246 136.102 299.354 135.376 299.568 134.725C299.783 134.067 300.092 133.504 300.496 133.035C300.906 132.56 301.408 132.195 302 131.941C302.592 131.688 303.27 131.561 304.031 131.561C304.793 131.561 305.47 131.688 306.062 131.941C306.655 132.195 307.153 132.56 307.557 133.035C307.967 133.504 308.276 134.067 308.484 134.725C308.699 135.376 308.807 136.102 308.807 136.902C308.807 137.703 308.699 138.429 308.484 139.08C308.276 139.731 307.967 140.294 307.557 140.77C307.153 141.245 306.655 141.609 306.062 141.863C305.47 142.117 304.793 142.244 304.031 142.244C303.27 142.244 302.592 142.117 302 141.863C301.408 141.609 300.906 141.245 300.496 140.77C300.092 140.294 299.783 139.731 299.568 139.08C299.354 138.429 299.246 137.703 299.246 136.902ZM301.854 138.377C301.854 138.989 302.059 139.464 302.469 139.803C302.885 140.135 303.406 140.301 304.031 140.301C304.656 140.301 305.174 140.138 305.584 139.812C306.001 139.487 306.209 139.008 306.209 138.377V135.418C306.209 134.793 306.001 134.318 305.584 133.992C305.174 133.667 304.656 133.504 304.031 133.504C303.406 133.504 302.885 133.67 302.469 134.002C302.059 134.334 301.854 134.806 301.854 135.418V138.377ZM311.375 142V131.805H313.875V133.279C314.181 132.732 314.578 132.309 315.066 132.01C315.561 131.71 316.17 131.561 316.893 131.561C318.038 131.561 318.882 131.896 319.422 132.566C319.962 133.23 320.232 134.148 320.232 135.32V142H317.732V135.496C317.732 134.897 317.605 134.432 317.352 134.1C317.098 133.768 316.671 133.602 316.072 133.602C315.382 133.602 314.842 133.833 314.451 134.295C314.067 134.751 313.875 135.353 313.875 136.102V142H311.375ZM153.68 166V152.396H159.217C160.669 152.396 161.743 152.742 162.439 153.432C163.136 154.115 163.484 155.17 163.484 156.596C163.484 157.676 163.227 158.546 162.713 159.203C162.199 159.854 161.482 160.307 160.564 160.561L163.68 166H160.799L157.938 160.775H156.277V166H153.68ZM156.277 158.637H159.559C160.372 158.637 160.779 158.184 160.779 157.279V155.883C160.779 155.427 160.688 155.102 160.506 154.906C160.33 154.704 160.014 154.604 159.559 154.604H156.277V158.637ZM165.691 160.883C165.691 160.082 165.802 159.356 166.023 158.705C166.245 158.048 166.554 157.488 166.951 157.025C167.355 156.557 167.84 156.195 168.406 155.941C168.973 155.688 169.601 155.561 170.291 155.561C170.981 155.561 171.606 155.684 172.166 155.932C172.732 156.179 173.214 156.521 173.611 156.957C174.015 157.387 174.321 157.901 174.529 158.5C174.744 159.099 174.852 159.747 174.852 160.443V161.703H168.299V162.377C168.299 162.989 168.497 163.464 168.895 163.803C169.298 164.135 169.773 164.301 170.32 164.301C170.867 164.301 171.313 164.158 171.658 163.871C172.003 163.585 172.208 163.181 172.273 162.66H174.773C174.611 163.793 174.132 164.675 173.338 165.307C172.55 165.932 171.535 166.244 170.291 166.244C169.568 166.244 168.921 166.114 168.348 165.854C167.781 165.593 167.299 165.229 166.902 164.76C166.512 164.291 166.212 163.728 166.004 163.07C165.796 162.413 165.691 161.684 165.691 160.883ZM168.299 159.76H172.293V159.398C172.293 158.839 172.104 158.383 171.727 158.031C171.349 157.68 170.87 157.504 170.291 157.504C169.718 157.504 169.243 157.68 168.865 158.031C168.488 158.383 168.299 158.839 168.299 159.398V159.76ZM176.844 160.902C176.844 160.167 176.925 159.473 177.088 158.822C177.251 158.165 177.498 157.598 177.83 157.123C178.162 156.641 178.582 156.26 179.09 155.98C179.598 155.701 180.19 155.561 180.867 155.561C181.544 155.561 182.13 155.704 182.625 155.99C183.12 156.277 183.527 156.674 183.846 157.182V155.805H186.346V169.398H183.846V164.623C183.527 165.131 183.126 165.528 182.645 165.814C182.169 166.101 181.59 166.244 180.906 166.244C180.229 166.244 179.637 166.104 179.129 165.824C178.621 165.544 178.198 165.163 177.859 164.682C177.521 164.2 177.267 163.637 177.098 162.992C176.928 162.341 176.844 161.645 176.844 160.902ZM179.451 162.338C179.451 162.911 179.64 163.383 180.018 163.754C180.395 164.118 180.906 164.301 181.551 164.301C182.352 164.301 182.934 164.06 183.299 163.578C183.663 163.096 183.846 162.458 183.846 161.664V160.141C183.846 159.34 183.663 158.702 183.299 158.227C182.934 157.745 182.352 157.504 181.551 157.504C180.9 157.504 180.385 157.686 180.008 158.051C179.637 158.415 179.451 158.884 179.451 159.457V162.338ZM189.314 162.484V155.805H191.814V162.299C191.814 162.898 191.932 163.367 192.166 163.705C192.4 164.037 192.817 164.203 193.416 164.203C194.093 164.203 194.627 163.972 195.018 163.51C195.408 163.048 195.604 162.445 195.604 161.703V155.805H198.104V166H195.604V164.516C195.298 165.076 194.9 165.505 194.412 165.805C193.924 166.098 193.318 166.244 192.596 166.244C191.502 166.244 190.682 165.915 190.135 165.258C189.588 164.594 189.314 163.669 189.314 162.484ZM200.652 160.883C200.652 160.082 200.763 159.356 200.984 158.705C201.206 158.048 201.515 157.488 201.912 157.025C202.316 156.557 202.801 156.195 203.367 155.941C203.934 155.688 204.562 155.561 205.252 155.561C205.942 155.561 206.567 155.684 207.127 155.932C207.693 156.179 208.175 156.521 208.572 156.957C208.976 157.387 209.282 157.901 209.49 158.5C209.705 159.099 209.812 159.747 209.812 160.443V161.703H203.26V162.377C203.26 162.989 203.458 163.464 203.855 163.803C204.259 164.135 204.734 164.301 205.281 164.301C205.828 164.301 206.274 164.158 206.619 163.871C206.964 163.585 207.169 163.181 207.234 162.66H209.734C209.572 163.793 209.093 164.675 208.299 165.307C207.511 165.932 206.495 166.244 205.252 166.244C204.529 166.244 203.882 166.114 203.309 165.854C202.742 165.593 202.26 165.229 201.863 164.76C201.473 164.291 201.173 163.728 200.965 163.07C200.757 162.413 200.652 161.684 200.652 160.883ZM203.26 159.76H207.254V159.398C207.254 158.839 207.065 158.383 206.688 158.031C206.31 157.68 205.831 157.504 205.252 157.504C204.679 157.504 204.204 157.68 203.826 158.031C203.449 158.383 203.26 158.839 203.26 159.398V159.76ZM211.648 162.758H214.148C214.253 163.786 214.868 164.301 215.994 164.301C216.476 164.301 216.886 164.213 217.225 164.037C217.563 163.855 217.732 163.568 217.732 163.178C217.732 162.807 217.592 162.54 217.312 162.377C217.033 162.208 216.665 162.074 216.209 161.977L214.451 161.596C212.745 161.225 211.893 160.251 211.893 158.676C211.893 158.233 211.98 157.823 212.156 157.445C212.339 157.068 212.599 156.739 212.938 156.459C213.276 156.179 213.689 155.961 214.178 155.805C214.666 155.642 215.223 155.561 215.848 155.561C217.007 155.561 217.957 155.84 218.699 156.4C219.441 156.96 219.839 157.807 219.891 158.939H217.391C217.365 158.458 217.212 158.1 216.932 157.865C216.652 157.624 216.29 157.504 215.848 157.504C215.418 157.504 215.066 157.598 214.793 157.787C214.526 157.969 214.393 158.227 214.393 158.559C214.393 158.891 214.493 159.138 214.695 159.301C214.904 159.457 215.174 159.571 215.506 159.643L217.527 160.082C217.898 160.16 218.25 160.277 218.582 160.434C218.921 160.583 219.21 160.779 219.451 161.02C219.692 161.26 219.881 161.547 220.018 161.879C220.161 162.211 220.232 162.605 220.232 163.061C220.232 163.503 220.138 163.917 219.949 164.301C219.76 164.685 219.487 165.02 219.129 165.307C218.771 165.593 218.328 165.821 217.801 165.99C217.273 166.16 216.671 166.244 215.994 166.244C214.633 166.244 213.582 165.945 212.84 165.346C212.098 164.74 211.701 163.878 211.648 162.758ZM221.658 157.738V155.805H223.68V152.396H226.18V155.805H228.719V157.738H226.18V164.057H228.719V166H223.68V157.738H221.658Z" fill="#B5C1C9"/>
<path opacity="0.4" d="M152.861 108H158.571V106.675H154.442V104.293H158.243V102.967H154.442V100.598H158.537V99.2727H152.861V108ZM162.071 99.2727H160.26L162.983 103.636L160.226 108H162.05L163.993 104.825H164.061L166.004 108H167.837L165.105 103.636L167.794 99.2727H165.991L164.061 102.469H163.993L162.071 99.2727ZM169.251 100.598H171.949V108H173.517V100.598H176.215V99.2727H169.251V100.598ZM178.157 108H183.867V106.675H179.738V104.293H183.539V102.967H179.738V100.598H183.833V99.2727H178.157V108ZM186.046 108H187.627V104.804H189.238L190.951 108H192.715L190.827 104.54C191.854 104.126 192.395 103.249 192.395 102.064C192.395 100.398 191.322 99.2727 189.319 99.2727H186.046V108ZM187.627 103.491V100.594H189.076C190.256 100.594 190.785 101.135 190.785 102.064C190.785 102.993 190.256 103.491 189.084 103.491H187.627ZM201.623 99.2727H200.05V105.222H199.973L195.865 99.2727H194.451V108H196.032V102.055H196.104L200.216 108H201.623V99.2727ZM205.066 108L205.786 105.848H209.067L209.792 108H211.479L208.403 99.2727H206.451L203.378 108H205.066ZM206.212 104.578L207.393 101.062H207.461L208.641 104.578H206.212ZM213.229 108H218.653V106.675H214.81V99.2727H213.229V108ZM228.945 101.672H230.466C230.437 100.197 229.179 99.1534 227.322 99.1534C225.489 99.1534 224.113 100.185 224.117 101.727C224.117 102.98 225.008 103.7 226.444 104.071L227.437 104.327C228.378 104.565 229 104.859 229.005 105.537C229 106.283 228.293 106.781 227.262 106.781C226.273 106.781 225.506 106.338 225.442 105.422H223.887C223.951 107.156 225.242 108.132 227.275 108.132C229.367 108.132 230.581 107.088 230.586 105.55C230.581 104.037 229.333 103.347 228.02 103.036L227.202 102.831C226.486 102.661 225.711 102.358 225.719 101.629C225.724 100.973 226.312 100.491 227.3 100.491C228.242 100.491 228.864 100.93 228.945 101.672ZM234.176 99.2727H232.595V108H234.176V99.2727ZM242.335 102.06H243.946C243.677 100.347 242.194 99.1534 240.264 99.1534C237.98 99.1534 236.267 100.832 236.267 103.645C236.267 106.406 237.903 108.119 240.311 108.119C242.471 108.119 244.018 106.73 244.018 104.48V103.432H240.477V104.668H242.488C242.463 105.912 241.632 106.7 240.319 106.7C238.857 106.7 237.856 105.605 237.856 103.628C237.856 101.663 238.875 100.572 240.285 100.572C241.338 100.572 242.053 101.135 242.335 102.06ZM253.319 99.2727H251.746V105.222H251.669L247.562 99.2727H246.147V108H247.728V102.055H247.8L251.912 108H253.319V99.2727ZM255.641 108H261.351V106.675H257.222V104.293H261.023V102.967H257.222V100.598H261.317V99.2727H255.641V108ZM263.53 108H265.111V104.804H266.722L268.435 108H270.199L268.312 104.54C269.339 104.126 269.88 103.249 269.88 102.064C269.88 100.398 268.806 99.2727 266.803 99.2727H263.53V108ZM265.111 103.491V100.594H266.56C267.741 100.594 268.269 101.135 268.269 102.064C268.269 102.993 267.741 103.491 266.569 103.491H265.111ZM276.632 108L277.352 105.848H280.634L281.358 108H283.046L279.969 99.2727H278.017L274.945 108H276.632ZM277.779 104.578L278.959 101.062H279.027L280.208 104.578H277.779ZM284.795 108H286.376V105.051H288.047C290.062 105.051 291.145 103.841 291.145 102.162C291.145 100.496 290.075 99.2727 288.068 99.2727H284.795V108ZM286.376 103.751V100.594H287.825C289.01 100.594 289.534 101.233 289.534 102.162C289.534 103.091 289.01 103.751 287.834 103.751H286.376ZM293.118 108H294.699V105.051H296.369C298.385 105.051 299.467 103.841 299.467 102.162C299.467 100.496 298.398 99.2727 296.391 99.2727H293.118V108ZM294.699 103.751V100.594H296.148C297.332 100.594 297.856 101.233 297.856 102.162C297.856 103.091 297.332 103.751 296.156 103.751H294.699Z" fill="white"/>
<rect width="440" height="216" fill="url(#transaction_gradient)"/>
</g>
<defs>
<filter id="filter0_d" x="-4" y="32" width="408" height="224" filterUnits="userSpaceOnUse" color-interpolation-filters="sRGB">
<feFlood flood-opacity="0" result="BackgroundImageFix"/>
<feColorMatrix in="SourceAlpha" type="matrix" values="0 0 0 0 0 0 0 0 0 0 0 0 0 0 0 0 0 0 127 0"/>
<feOffset dy="4"/>
<feGaussianBlur stdDeviation="2"/>
<feColorMatrix type="matrix" values="0 0 0 0 0 0 0 0 0 0 0 0 0 0 0 0 0 0 0.25 0"/>
<feBlend mode="normal" in2="BackgroundImageFix" result="effect1_dropShadow"/>
<feBlend mode="normal" in="SourceGraphic" in2="effect1_dropShadow" result="shape"/>
</filter>
<filter id="filter1_f" x="-25" y="24" width="425" height="11" filterUnits="userSpaceOnUse" color-interpolation-filters="sRGB">
<feFlood flood-opacity="0" result="BackgroundImageFix"/>
<feBlend mode="normal" in="SourceGraphic" in2="BackgroundImageFix" result="shape"/>
<feGaussianBlur stdDeviation="0.5" result="effect1_foregroundBlur"/>
</filter>
<filter id="filter2_i" x="0" y="65" width="399" height="175" filterUnits="userSpaceOnUse" color-interpolation-filters="sRGB">
<feFlood flood-opacity="0" result="BackgroundImageFix"/>
<feBlend mode="normal" in="SourceGraphic" in2="BackgroundImageFix" result="shape"/>
<feColorMatrix in="SourceAlpha" type="matrix" values="0 0 0 0 0 0 0 0 0 0 0 0 0 0 0 0 0 0 127 0" result="hardAlpha"/>
<feOffset dy="1"/>
<feComposite in2="hardAlpha" operator="arithmetic" k2="-1" k3="1"/>
<feColorMatrix type="matrix" values="0 0 0 0 0 0 0 0 0 0 0 0 0 0 0 0 0 0 0.32 0"/>
<feBlend mode="normal" in2="shape" result="effect1_innerShadow"/>
</filter>
<linearGradient id="transaction_gradient" x1="220" y1="0" x2="220" y2="216" gradientUnits="userSpaceOnUse">
<stop stop-color="#272D33" stop-opacity="0.5"/>
<stop offset="1" stop-color="#272D33"/>
</linearGradient>
</defs>
</svg>
