<svg width="374" height="229" viewBox="0 0 374 229" fill="none" xmlns="http://www.w3.org/2000/svg">
<g clip-path="url(#clip0)">
<path fill-rule="evenodd" clip-rule="evenodd" d="M148.997 145.011H145.548V141.565H148.997V138.11H145.548V134.656H148.997V131.21H152.454V127.756H148.997V131.201H145.548V127.756H148.997V124.299H145.539V127.754H142.091V131.2H138.633V127.754H135.176V131.2H131.727V127.754H135.176V124.299H131.718V127.754H128.27V124.299H124.811V127.754H128.268V131.2H124.811V134.654H128.268V138.109H124.811V141.563H128.268V145.009V145.017H131.717V148.463H135.174V145.017H138.631V148.463H142.089V145.017H145.538V148.463H148.995V145.017H152.452V141.563H148.995V145.011H148.997ZM128.268 145.019V148.465H124.811V145.011H128.268V145.019ZM138.631 127.754V124.299H142.089V127.754H138.631ZM148.997 134.654V138.109H152.454V134.654H148.997ZM131.717 131.208H128.268V134.654H131.717V131.208ZM131.725 148.465V151.92H135.174V148.465H138.631V151.92H142.089V148.465H145.546V151.92H148.995V148.465H152.452V151.92H148.995V155.374H145.538V151.92H142.089V155.374H138.631V151.92H135.174V155.374H131.717V151.92H128.268V155.374H124.811V151.92H128.268V148.465H131.725ZM145.538 141.565V138.11H142.089V141.565H145.538ZM138.631 141.565V145.011H142.089V141.565H138.631ZM135.174 141.565H138.631V138.11H135.174V141.565ZM135.174 141.565H131.725V145.011H135.174V141.565ZM135.174 134.654H131.725V138.109H135.174V134.654ZM138.631 134.654V131.208H135.174V134.654H138.631ZM142.091 134.654H138.633V138.109H142.091V134.654ZM142.091 134.654H145.539V131.208H142.091V134.654ZM131.717 138.109V141.563H128.268V138.109H131.717ZM155.911 127.754H152.454V124.299H155.911V127.754ZM152.454 134.654H155.911V131.2H152.454V134.654ZM155.911 141.565H152.454V138.11H155.911V141.565ZM152.454 148.465H155.911V145.011H152.454V148.465ZM152.454 155.374H155.911V151.92H152.454V155.374Z" fill="#131519"/>
<path fill-rule="evenodd" clip-rule="evenodd" d="M304.502 145.011H301.053V141.565H304.502V138.11H301.053V134.656H304.502V131.21H307.959V127.756H304.502V131.201H301.053V127.756H304.502V124.299H301.045V127.754H297.596V131.2H294.139V127.754H290.681V131.2H287.233V127.754H290.681V124.299H287.224V127.754H283.775V124.299H280.316V127.754H283.773V131.2H280.316V134.654H283.773V138.109H280.316V141.563H283.773V145.009V145.017H287.222V148.463H290.679V145.017H294.137V148.463H297.594V145.017H301.043V148.463H304.5V145.017H307.958V141.563H304.5V145.011H304.502ZM283.773 145.019V148.465H280.316V145.011H283.773V145.019ZM294.137 127.754V124.299H297.594V127.754H294.137ZM304.502 134.654V138.109H307.959V134.654H304.502ZM287.222 131.208H283.773V134.654H287.222V131.208ZM287.231 148.465V151.92H290.679V148.465H294.137V151.92H297.594V148.465H301.052V151.92H304.5V148.465H307.958V151.92H304.5V155.374H301.043V151.92H297.594V155.374H294.137V151.92H290.679V155.374H287.222V151.92H283.773V155.374H280.316V151.92H283.773V148.465H287.231ZM301.043 141.565V138.11H297.594V141.565H301.043ZM294.137 141.565V145.011H297.594V141.565H294.137ZM290.679 141.565H294.137V138.11H290.679V141.565ZM290.679 141.565H287.231V145.011H290.679V141.565ZM290.679 134.654H287.231V138.109H290.679V134.654ZM294.137 134.654V131.208H290.679V134.654H294.137ZM297.596 134.654H294.139V138.109H297.596V134.654ZM297.596 134.654H301.045V131.208H297.596V134.654ZM287.222 138.109V141.563H283.773V138.109H287.222ZM311.417 127.754H307.959V124.299H311.417V127.754ZM307.959 134.654H311.417V131.2H307.959V134.654ZM311.417 141.565H307.959V138.11H311.417V141.565ZM307.959 148.465H311.417V145.011H307.959V148.465ZM307.959 155.374H311.417V151.92H307.959V155.374Z" fill="#4038FF"/>
<path fill-rule="evenodd" clip-rule="evenodd" d="M86.7955 20.7113H83.3468V17.2654H86.7955V13.811H83.3468V10.3566H86.7955V6.91076H90.2529V3.45635H86.7955V6.90219H83.3468V3.45635H86.7955V7.62939e-06H83.3382V3.45442H79.8894V6.90026H76.4321V3.45442H72.9747V6.90026H69.526V3.45442H72.9747V7.62939e-06H69.5171V3.45442H66.0686V7.62939e-06H62.6094V3.45442H66.0667V6.90026H62.6094V10.355H66.0667V13.8094H62.6094V17.2638H66.0667V20.7096V20.7182H69.5155V24.164H72.9728V20.7182H76.4301V24.164H79.8878V20.7182H83.3365V24.164H86.7939V20.7182H90.2512V17.2638H86.7939V20.7113H86.7955ZM66.0667 20.7198V24.166H62.6094V20.7113H66.0667V20.7198ZM76.4301 3.45442V7.62939e-06H79.8878V3.45442H76.4301ZM86.7955 10.355V13.8094H90.2529V10.355H86.7955ZM69.5155 6.90883H66.0667V10.355H69.5155V6.90883ZM69.524 24.166V27.6204H72.9728V24.166H76.4301V27.6204H79.8878V24.166H83.3451V27.6204H86.7939V24.166H90.2512V27.6204H86.7939V31.0748H83.3365V27.6204H79.8878V31.0748H76.4301V27.6204H72.9728V31.0748H69.5155V27.6204H66.0667V31.0748H62.6094V27.6204H66.0667V24.166H69.524ZM83.3365 17.2654V13.811H79.8878V17.2654H83.3365ZM76.4301 17.2654V20.7113H79.8878V17.2654H76.4301ZM72.9728 17.2654H76.4301V13.811H72.9728V17.2654ZM72.9728 17.2654H69.524V20.7113H72.9728V17.2654ZM72.9728 10.355H69.524V13.8094H72.9728V10.355ZM76.4301 10.355V6.90883H72.9728V10.355H76.4301ZM79.8894 10.355H76.4321V13.8094H79.8894V10.355ZM79.8894 10.355H83.3382V6.90883H79.8894V10.355ZM69.5155 13.8094V17.2638H66.0667V13.8094H69.5155ZM93.7102 3.45442H90.2529V7.62939e-06H93.7102V3.45442ZM90.2529 10.355H93.7102V6.90026H90.2529V10.355ZM93.7102 17.2654H90.2529V13.811H93.7102V17.2654ZM90.2529 24.166H93.7102V20.7113H90.2529V24.166ZM90.2529 31.0748H93.7102V27.6204H90.2529V31.0748Z" fill="#4038FF"/>
<path fill-rule="evenodd" clip-rule="evenodd" d="M183.554 155.374H187.011V186.449H183.554V155.374ZM180.1 155.374H176.644V186.449H180.1V155.374ZM173.189 155.374H169.733V186.449H173.189V155.374ZM162.822 155.374H166.277V186.449H162.822V155.374ZM159.366 155.374H155.91V186.449H159.366V155.374Z" fill="#131519"/>
<path fill-rule="evenodd" clip-rule="evenodd" d="M187.324 89.7701V93.2245H156.223V89.7701H187.324ZM187.324 86.319V82.8662H156.223V86.319H187.324ZM187.324 79.4135V75.9607H156.223V79.4135H187.324ZM187.324 69.0552V72.5079H156.223V69.0552H187.324ZM187.324 65.6024V62.1497H156.223V65.6024H187.324Z" fill="#131519"/>
<path fill-rule="evenodd" clip-rule="evenodd" d="M280.317 182.995V186.449H249.216V182.995H280.317ZM280.317 179.543V176.091H249.216V179.543H280.317ZM280.317 172.638V169.185H249.216V172.638H280.317ZM280.317 162.28V165.732H249.216V162.28H280.317ZM280.317 158.827V155.374H249.216V158.827H280.317Z" fill="#131519"/>
<path fill-rule="evenodd" clip-rule="evenodd" d="M155.911 189.903V186.449H124.811V189.903H155.911ZM155.911 200.264V203.718H124.811V200.264H155.911ZM155.911 210.623V207.169H124.811V210.623H155.911ZM155.911 217.524V214.069H124.811V217.524H155.911ZM155.911 193.358V196.812H124.811V193.358H155.911Z" fill="#131519"/>
<path fill-rule="evenodd" clip-rule="evenodd" d="M369.849 31.0749H373.305C373.305 13.913 359.38 6.86646e-05 342.204 6.86646e-05V3.45283C357.473 3.45283 369.849 15.8189 369.849 31.0749ZM362.938 31.0749H366.394C366.394 17.7265 355.564 6.90559 342.204 6.90559V10.3583C353.654 10.3583 362.938 19.6341 362.938 31.0749ZM359.482 31.0749H356.027C356.027 23.4479 349.838 17.2639 342.204 17.2639V13.8111C351.747 13.8111 359.482 21.54 359.482 31.0749ZM349.115 31.0749H352.571C352.571 25.3538 347.93 20.7166 342.204 20.7166V24.1694C346.021 24.1694 349.115 27.2614 349.115 31.0749ZM342.204 31.0749H345.66C345.66 29.1673 344.113 27.6221 342.204 27.6221V31.0749Z" fill="#4038FF"/>
<path fill-rule="evenodd" clip-rule="evenodd" d="M97.1652 93.2244H93.7095C93.7095 110.386 107.634 124.299 124.81 124.299V120.846C109.542 120.846 97.1652 108.48 97.1652 93.2244ZM104.077 93.2244H100.621C100.621 106.573 111.451 117.394 124.81 117.394V113.941C113.36 113.941 104.077 104.665 104.077 93.2244ZM107.532 93.2244H110.988C110.988 100.852 117.177 107.035 124.81 107.035V110.488C115.268 110.488 107.532 102.759 107.532 93.2244ZM117.899 93.2244H114.444C114.444 98.9457 119.084 103.583 124.81 103.583V100.13C120.994 100.13 117.899 97.0379 117.899 93.2244ZM124.81 93.2244H121.355C121.355 95.132 122.901 96.6771 124.81 96.6771V93.2244Z" fill="#131519"/>
<path d="M93.7095 124.299V155.374H62.6087C62.6087 138.212 76.5332 124.299 93.7095 124.299Z" fill="#4038FF"/>
<path d="M31.5073 155.374H62.6081V186.449C45.4319 186.449 31.5073 172.536 31.5073 155.374Z" fill="#131519"/>
<path d="M249.525 31.0748V62.1497H218.424C218.424 44.9877 232.349 31.0748 249.525 31.0748Z" fill="#131519"/>
<path fill-rule="evenodd" clip-rule="evenodd" d="M97.1668 31.0748H93.7095V62.1496H97.1668V31.0748ZM107.535 31.0748H110.993V62.1496H107.535V31.0748ZM117.904 31.0748H114.447V62.1496H117.904V31.0748ZM124.81 31.0748H121.353V62.1496H124.81V31.0748ZM100.624 31.0748H104.081V62.1496H100.624V31.0748Z" fill="#4038FF"/>
<path fill-rule="evenodd" clip-rule="evenodd" d="M3.86554 93.2244H0.408203V124.299H3.86554V93.2244ZM14.2342 93.2244H17.6916V124.299H14.2342V93.2244ZM24.6029 93.2244H21.1456V124.299H24.6029V93.2244ZM31.509 93.2244H28.0517V124.299H31.509V93.2244ZM7.32288 93.2244H10.7802V124.299H7.32288V93.2244Z" fill="#131519"/>
<path d="M354.759 197.473C353.844 197.078 352.987 196.719 352.169 196.37C350.483 195.658 349.022 195.041 347.566 194.383C341.909 191.797 337.138 189.593 332.656 187.483L334.123 186.839C334.698 186.585 335.274 186.317 335.959 186.031L340.562 184.026L332.126 180.588L329.761 179.635C327.908 178.896 325.992 178.129 324.185 177.321C323.61 177.057 322.995 176.852 322.355 176.709L321.371 176.255L319.104 175.189L318.373 174.849C319.386 174.395 320.404 173.969 321.451 173.511L323.707 172.526L328.57 170.412L320.364 167.386C316.83 166.089 313.458 164.864 310.155 163.666L311.013 163.358C314.081 162.253 317.023 160.942 319.806 159.438L320.007 159.329L326.625 160.237L331.401 160.881L337.53 161.72C337.806 161.757 338.065 161.779 338.312 161.793C341.161 161.933 342.237 160.559 342.582 159.924L343.094 158.957C343.797 157.646 344.458 156.408 345.212 155.16C345.505 154.719 345.65 154.225 345.635 153.727C345.62 153.229 345.445 152.742 345.126 152.311C344.038 150.864 341.892 150.692 340.977 150.619C338.934 150.461 336.897 150.297 334.854 150.129C334.96 149.703 335.104 149.283 335.285 148.873L335.544 148.292L335.378 147.671C335.309 147.417 335.239 147.131 335.182 146.8L335.142 146.577L335.044 146.364C334.582 145.308 334.29 144.211 334.175 143.098L334.135 142.699L333.922 142.322C333.666 141.87 333.445 141.407 333.26 140.934L332.684 139.314L331.194 139.224C331.228 137.981 329.79 136.846 329.065 136.279L328.57 135.894L328.863 135.844C332.316 135.163 335.901 134.583 339.366 134.029C340.678 133.816 341.99 133.603 343.302 133.381C344.453 133.19 345.603 133.009 346.754 132.832L349.436 132.405L351.795 129.443L349.632 128.114C349.177 127.837 348.734 127.551 348.285 127.27C347.056 126.45 345.763 125.692 344.412 125.002C342.806 124.246 340.899 123.991 339.066 124.289C335.815 124.92 332.558 125.65 329.416 126.34C328.167 126.617 326.918 126.898 325.675 127.166C324.139 127.501 322.602 127.832 320.934 128.186L319.783 128.44L315.432 127.079L316.405 126.825C316.972 126.772 317.531 126.675 318.073 126.535C319.852 126.081 321.722 125.682 323.535 125.283L325.836 124.77L337.305 122.198L329.249 119.703L327.523 119.159C326.182 118.732 325.025 118.369 323.799 118.038L323.828 117.752L317.061 115.906L324.875 113.447L320.847 110.961L320.686 110.857C320.355 110.62 319.978 110.427 319.57 110.285C318.683 109.986 317.809 109.695 316.957 109.432L315.904 109.092L316.105 109.019L314.431 108.598L314.362 108.575C313.209 108.121 311.971 107.815 310.696 107.668L307.888 106.96C307.399 106.837 307.065 106.751 306.737 106.674L299.429 104.964C294.825 103.881 290.221 102.797 285.618 101.711L283.926 101.303C279.949 100.332 278.689 100.146 276.082 102.187C275.8 102.41 275.461 102.677 275.046 102.977C274.961 103.029 274.873 103.077 274.782 103.122L274.557 103.244C274.067 103.5 273.648 103.832 273.326 104.22C272.572 104.282 271.846 104.474 271.197 104.782L270.109 105.313L269.585 105.241L266.708 104.864C264.625 104.596 262.68 104.338 260.815 104.034C259.935 103.87 259.022 103.842 258.128 103.952C257.225 103.502 256.221 103.194 255.17 103.045C254.905 102.995 254.652 102.941 254.399 102.886L253.668 102.736C254.243 102.283 254.819 101.829 255.498 101.312L260.389 97.5194L243.592 95.0152L242.665 95.5097H242.625C242.11 95.2695 241.548 95.0978 240.962 95.0016L239.057 94.684C236.611 94.2712 234.079 93.8493 231.628 93.3957C228.981 92.9057 227.024 93.4682 225.873 95.0742C224.452 97.034 223.036 98.971 221.592 100.935H220.838C218.369 100.935 215.952 100.967 213.587 100.999C213.628 100.84 213.662 100.681 213.691 100.545C213.72 100.409 213.777 100.16 213.835 99.9464L214.554 97.3107L208.799 96.9205C206.463 96.7572 204.253 96.603 202.015 96.4669C201.14 96.4261 198.781 96.6438 198.033 98.1545C197.659 98.9211 197.388 99.6833 197.106 100.491C197.072 100.595 197.037 100.704 196.997 100.808L196.456 100.772C195.011 100.681 193.515 100.582 192.042 100.509L179.227 100.745C179.228 100.608 179.242 100.472 179.267 100.337C179.385 99.8108 179.35 99.2706 179.164 98.7572C178.977 98.2438 178.644 97.7708 178.191 97.3742C177.097 96.4124 175.382 95.9361 173.38 96.0132L169.582 96.1765C164.034 96.417 158.303 96.662 152.663 96.9251C151.374 96.984 150.057 97.0476 149.067 97.5148C147.98 97.1468 146.782 97.0304 145.614 97.1791C143.065 97.4286 140.435 97.6328 137.897 97.8505L135.929 98.0229C135.566 98.0513 135.207 98.109 134.859 98.1953C134.533 97.8862 134.177 97.598 133.794 97.3334C133.708 97.2497 133.63 97.1618 133.558 97.0702C133.28 96.7243 132.962 96.3993 132.609 96.0994C132.133 95.7251 131.609 95.392 131.043 95.1059C130.899 95.0333 130.761 94.9562 130.635 94.8836L129.651 94.312L113.152 95.9497L118.009 99.9782C118.659 100.518 119.252 101.008 119.833 101.498C119.494 101.543 119.166 101.593 118.872 101.643L118.09 101.743C116.536 101.956 114.413 102.242 113.923 103.92C113.434 105.599 115.143 106.747 116.277 107.509C116.801 107.867 117.336 108.226 117.865 108.579L113.095 109.205C112.45 108.723 111.74 108.299 110.977 107.94C110.544 107.741 110.135 107.51 109.757 107.25C109.458 107.037 108.882 106.642 108.307 106.279C107.731 105.916 107.346 105.653 107.081 105.472C105.534 104.476 103.92 103.547 102.247 102.686C101.611 102.35 100.894 102.119 100.141 102.006C99.8138 101.61 99.3986 101.265 98.9154 100.985L98.6852 100.849C98.6096 100.811 98.5367 100.77 98.4665 100.727C98.0407 100.396 97.7069 100.114 97.4307 99.8784C94.7663 97.6464 93.4025 97.7825 89.5066 98.5401L87.8205 98.8622C83.2475 99.7181 78.6707 100.571 74.0901 101.421L66.8047 102.782L62.8456 103.576C61.5923 103.656 60.365 103.902 59.2144 104.301L59.1166 104.329L57.6664 104.624L57.8391 104.696L56.6249 105.027C55.7578 105.26 54.8908 105.502 54.0238 105.753C53.6427 105.87 53.2888 106.035 52.9764 106.243L52.8096 106.343L48.8619 108.588L56.7975 111.442L50.0359 112.957V113.247H49.9092C48.6835 113.515 47.5268 113.824 46.1918 114.182L44.4654 114.636L36.5931 116.722L50.4732 120.529C52.2744 121.014 54.1331 121.522 55.8998 122.053C56.4582 122.225 57.0363 122.354 57.6262 122.438L58.403 122.683L56.7227 123.137C56.0149 122.928 55.3071 122.683 54.582 122.457L53.4311 122.076L50.0819 123.119C48.0505 123.745 45.9328 124.398 43.8554 125.115L43.6137 125.197L43.4008 125.319C42.0139 126.086 40.6789 126.884 39.3726 127.674C38.3598 128.277 37.2434 128.889 35.9601 129.538L35.5918 129.724L34.8207 130.491C34.2337 131.071 33.6487 131.655 33.0655 132.242L32.9332 132.387C32.2887 133.172 31.7362 133.902 31.2413 134.619C31.0284 134.932 30.7579 135.277 30.4357 135.658C29.5898 135.694 28.7852 135.957 28.1566 136.405C27.528 136.853 27.1137 137.457 26.9829 138.117L26.747 139.187C26.4362 140.585 26.1197 142.027 25.7342 143.429C25.6922 143.579 25.6596 143.73 25.6364 143.883C23.9392 143.804 22.2487 143.652 20.5723 143.429L19.4214 143.261L18.2359 143.914L17.7928 144.159L16.8088 144.722L16.6822 145.715C16.5729 146.55 16.4405 147.271 16.2736 147.934C15.9917 149.059 15.7557 150.202 15.5543 151.459V151.64C15.4968 152.615 15.445 153.586 15.3989 154.562L15.3356 155.832L15.5716 156.285C16.1013 157.322 16.551 158.382 16.9181 159.461C17.3785 160.822 17.8561 162.228 18.4201 163.603L18.5755 163.988L18.8862 164.32C20.2155 165.712 21.6542 167.001 23.041 168.248C23.5359 168.702 24.0366 169.156 24.5257 169.609L25.9068 170.875L26.6722 170.657L26.3729 171.347L28.2662 172.39C28.7669 172.667 29.256 172.948 29.7451 173.229C31.0791 174.023 32.4702 174.754 33.9115 175.421C34.8496 175.819 35.8862 176.053 36.9499 176.106C37.772 176.156 38.5983 176.066 39.3726 175.842C42.2499 174.958 45.1272 173.982 47.8836 173.034L49.8287 172.372L51.7968 173.279L54.0008 174.305L56.7687 175.584L55.7789 176.015L53.4311 177.045L52.3492 177.498C51.7194 177.619 51.112 177.803 50.5423 178.047C48.6778 178.823 46.7097 179.558 44.7877 180.266C43.982 180.568 43.1783 180.87 42.3765 181.173L34.0093 184.348L38.7971 186.558C39.4416 186.853 40.0344 187.134 40.5926 187.397L41.7435 187.95C37.0823 189.992 32.1045 192.142 26.1658 194.664C24.6869 195.295 23.1964 195.88 21.47 196.556L18.7941 197.613L14.2192 199.428L18.8805 201.583C20.0717 202.136 21.2283 202.662 22.3332 203.17C24.6638 204.227 26.8678 205.23 28.9625 206.287L17.6778 211.885L21.4988 213.881C22.6305 214.466 23.9614 214.765 25.3141 214.739C25.676 214.738 26.0374 214.718 26.396 214.68H26.5398C28.2374 215.315 29.889 216.041 31.1435 216.635C32.6781 217.346 34.2126 218.064 35.7472 218.79C37.9224 219.81 40.1667 220.863 42.411 221.875C43.1364 222.179 43.9456 222.338 44.7675 222.338C45.5894 222.338 46.3987 222.179 47.124 221.875C49.2258 220.941 51.2481 219.899 53.1779 218.758C56.809 216.521 60.3884 214.221 63.8469 212.035L67.8003 209.513L68.0477 209.358L69.049 209.699C73.8445 211.341 78.64 212.987 83.4355 214.639C84.0973 214.866 84.667 215.092 85.1619 215.247L85.4151 215.337C84.8109 215.791 84.2066 216.245 83.6139 216.698C81.9911 217.928 80.4662 219.085 81.0819 220.781C81.6976 222.478 83.7751 222.95 85.3 223.317C90.7036 224.606 96.2338 225.889 101.545 227.128L105.401 228.035C105.871 228.146 106.356 228.215 106.845 228.239C108.173 228.296 109.489 228.014 110.597 227.433C111.704 226.853 112.544 226.006 112.991 225.018C113.43 224.173 113.992 223.371 114.666 222.628L115.328 221.893L127.493 224.392L128.339 223.68C128.775 223.909 129.252 224.085 129.754 224.202L131.711 224.655C134.243 225.25 136.89 225.867 139.387 226.529C139.923 226.673 140.48 226.763 141.045 226.797C142.673 226.874 144.607 226.393 145.718 224.075C147.346 220.681 148.975 217.329 150.632 213.922H151.271C153.987 213.831 156.628 213.709 159.224 213.573C159.208 213.601 159.194 213.629 159.183 213.659C158.897 214.469 158.705 215.298 158.608 216.136C158.55 216.472 158.493 216.83 158.418 217.211L157.929 219.711L161.174 219.96L163.551 220.146C165.974 220.337 168.264 220.518 170.6 220.645H170.629C172.252 220.722 174.295 219.874 174.767 218.468C175.158 217.297 175.44 216.145 175.768 214.811C175.877 214.358 175.992 213.904 176.119 213.405L176.562 213.437C178.07 213.545 179.624 213.654 181.166 213.731L181.782 213.763L181.856 213.954L183.404 213.84H183.801V213.79L194.511 213.019C194.634 213.828 194.634 214.646 194.511 215.455C194.357 216.156 194.414 216.875 194.676 217.556C194.937 218.236 195.397 218.859 196.018 219.375C196.941 220.099 198.171 220.527 199.471 220.577C199.865 220.596 200.26 220.585 200.651 220.545L204.633 220.164C210.388 219.602 216.395 219.021 222.282 218.422C223.554 218.291 224.958 218.146 225.988 217.515C226.59 217.75 227.246 217.888 227.916 217.919C228.525 217.944 229.136 217.9 229.729 217.787C232.382 217.302 235.121 216.88 237.785 216.453L239.845 216.131C240.064 216.098 240.279 216.052 240.49 215.995C240.754 216.385 241.052 216.759 241.382 217.116C241.556 217.339 241.699 217.576 241.808 217.823C242.033 218.293 242.304 218.748 242.619 219.184C243.051 219.712 243.552 220.201 244.115 220.645C244.259 220.768 244.403 220.886 244.535 221.008L245.755 222.11L257.938 219.842L258.387 220.377C259.001 221.108 259.503 221.894 259.883 222.718C260.282 223.7 261.042 224.567 262.066 225.208C263.091 225.849 264.334 226.237 265.638 226.32C266.32 226.351 267.003 226.295 267.663 226.157L271.473 225.35C276.859 224.211 282.435 223.031 287.891 221.843C289.49 221.498 291.47 221.067 291.919 219.443C292.368 217.819 290.866 216.553 289.387 215.36C288.811 214.906 288.27 214.453 287.706 213.999L288.362 213.781C288.875 213.614 289.456 213.418 290.129 213.205C294.928 211.663 299.736 210.126 304.55 208.596L312.181 206.165C312.538 206.051 312.889 205.929 313.401 205.747L316.278 204.758C317.377 204.654 318.58 204.2 320.197 203.42C320.911 203.075 321.797 202.649 322.919 202.154C323.817 201.76 324.737 201.333 325.658 200.889C325.779 200.832 325.895 200.769 326.003 200.698L326.084 200.739C327.085 201.261 328.098 201.773 329.105 202.286C331.407 203.438 333.542 204.527 335.608 205.743C336.847 206.522 338.35 206.995 339.929 207.104C341.462 207.154 342.975 206.824 344.257 206.16C346.559 205.062 348.941 204.041 351.485 202.953C352.636 202.467 353.787 201.968 355.012 201.437L359.495 199.487L354.759 197.473Z" fill="black" stroke="black" stroke-width="9.78281" stroke-linejoin="round"/>
<path d="M122.491 114.808C124.384 115.806 125.943 116.713 127.722 117.493C128.211 117.711 129.379 117.616 130.167 117.543C133.528 117.212 136.848 116.799 140.221 116.495C143.593 116.191 146.988 115.978 150.354 115.76C151.505 115.683 152.081 115.479 151.223 114.853C151.007 114.705 150.804 114.546 150.613 114.377C148.162 112 149.382 112.186 143.765 112.735C137.313 113.37 130.856 113.997 124.396 114.617C123.929 114.645 123.469 114.699 122.491 114.808Z" fill="#C4C3C6"/>
<path d="M47.895 115.883L51.3478 116.831C53.9546 117.548 56.596 118.237 59.1568 119.004C60.417 119.385 61.3608 119.458 62.4081 119.004C63.4049 118.615 64.4268 118.266 65.4696 117.961C61.7924 116.781 58.4317 115.692 55.0307 114.635C54.4597 114.478 53.8453 114.445 53.2526 114.54C51.601 114.876 50.0645 115.307 47.895 115.883Z" fill="white"/>
<path d="M284.133 172.394C283.056 172.848 281.98 173.302 280.922 173.801C280.874 173.823 280.824 173.842 280.772 173.855L269.666 176.577C269.492 176.619 269.306 176.615 269.136 176.566C268.966 176.516 268.82 176.425 268.722 176.305C266.581 173.769 263.474 171.954 261.241 169.323C260.93 168.951 260.752 168.012 261.275 167.899C262.052 167.722 262.852 167.091 263.537 166.932C270.097 165.422 272.313 164.174 278.873 162.664C279.212 162.586 283.056 161.044 283.39 161.094C284.869 161.316 287.418 162.001 290.486 163.934C291.637 164.641 295.423 165.562 297.829 166.656C297.967 166.716 298.081 166.807 298.156 166.917C298.232 167.027 298.265 167.152 298.252 167.276C298.239 167.401 298.181 167.52 298.084 167.619C297.988 167.718 297.857 167.793 297.708 167.835C293.915 168.77 285.859 171.773 284.173 172.372L284.133 172.394Z" fill="white"/>
<path d="M220.977 199.3L197.924 201.374C198.574 204.971 199.236 208.378 199.783 211.808C199.952 212.851 199.952 213.908 199.783 214.951C199.524 216.53 200.588 217.546 202.539 217.356C209.744 216.657 216.925 215.968 224.148 215.233C227.174 214.924 227.307 214.707 226.231 212.438C225.298 210.488 224.291 208.555 223.353 206.613C223.144 206.169 222.971 205.714 222.835 205.252C222.185 203.247 221.581 201.265 220.977 199.3Z" fill="#C4C3C6"/>
<path d="M216.982 188.272C220.861 196.769 224.619 204.957 228.319 213.155C228.866 214.371 229.579 214.933 231.277 214.62C234.649 213.999 238.062 213.486 241.468 212.951C242.711 212.751 242.769 212.152 242.303 211.368C241.33 209.734 240.335 208.115 239.351 206.486C236.767 202.213 234.223 197.921 231.588 193.666C230.437 191.851 229.182 190.037 227.847 188.304C227.651 188.069 227.391 187.871 227.087 187.723C226.783 187.576 226.441 187.483 226.086 187.451C223.226 187.623 220.389 187.95 216.982 188.272Z" fill="#C4C3C6"/>
<path d="M156.774 198.815C152.89 206.804 149.12 214.498 145.414 222.21C144.839 223.353 144.171 223.848 142.537 223.421C139.32 222.573 136.063 221.833 132.818 221.062C131.626 220.781 131.586 220.191 132.052 219.465C133.013 217.946 134.003 216.439 134.981 214.929C137.542 210.955 140.063 206.963 142.675 203.011C143.797 201.315 145.046 199.668 146.364 198.067C146.559 197.849 146.818 197.671 147.118 197.549C147.419 197.427 147.752 197.363 148.09 197.363C150.829 197.731 153.54 198.253 156.774 198.815Z" fill="#C4C3C6"/>
<path d="M186.529 200.838C191.944 200.385 196.795 199.958 201.64 199.527C202.446 199.455 203.234 199.282 204.04 199.183C206.917 198.829 207.188 198.525 206.601 196.157C205.53 191.888 204.408 187.624 203.338 183.35C202.987 181.944 202.158 181.336 200.236 181.477C196.329 181.758 192.387 181.817 188.468 182.057C187.893 182.094 186.955 182.561 186.932 182.892C186.736 185.401 186.707 187.923 186.655 190.441C186.655 191.507 186.713 192.582 186.696 193.648C186.661 195.898 186.592 198.144 186.529 200.838Z" fill="white"/>
<path d="M184.97 198.148C178.721 198.284 172.713 198.429 166.711 198.534C164.933 198.566 163.143 198.488 161.359 198.425C159.8 198.37 158.206 198.425 157.647 199.786C156.203 203.27 154.914 206.79 153.406 210.701C158.735 210.528 163.765 210.224 168.788 209.925C173.657 209.639 178.657 210.288 183.583 210.519C184.061 206.155 184.493 202.299 184.97 198.148Z" fill="#C4C3C6"/>
<path d="M185.178 185.881L172.38 185.995C171.804 185.995 171.188 186.018 170.596 185.995C165.647 185.777 165.313 186.149 164.507 190.241C164.139 192.124 162.971 193.87 162.205 195.685C161.975 196.211 161.826 196.755 161.555 197.527C163.886 197.454 165.865 197.391 167.845 197.341C173.024 197.205 178.203 197.118 183.348 196.887C183.717 196.808 184.053 196.654 184.322 196.441C184.592 196.228 184.786 195.962 184.884 195.671C185.074 192.455 185.091 189.207 185.178 185.881Z" fill="white"/>
<path d="M236.404 184.171L231.99 178.274L204.328 181.449C204.903 183.572 205.479 185.795 206.169 188.313L236.058 184.843L236.404 184.171Z" fill="white"/>
<path d="M146.829 182.447L152.543 175.248C164.542 176.813 172.817 176.155 184.05 176.373C185.022 176.373 185.776 177.18 185.701 178.074C185.517 180.17 185.949 182.465 185.183 184.806C172.817 184.353 159.173 185.26 147.174 183.228L146.829 182.447Z" fill="white"/>
<path d="M327.021 197.418C322.924 195.199 318.965 193.076 315.075 190.94C312.393 189.479 309.689 188.036 307.076 186.498C305.891 185.8 304.849 185.623 303.583 186.14C302.317 186.657 301.028 187.025 299.796 187.533C297.88 188.322 297.823 189.347 299.687 190.531C303.871 193.231 308.008 195.975 312.318 198.538C319.12 202.576 316.657 202.322 323.747 199.192C324.645 198.797 325.525 198.389 326.4 197.967C326.578 197.903 326.693 197.735 327.021 197.418Z" fill="#C4C3C6"/>
<path d="M187.547 181.236C201.841 180.234 216.193 179.335 230.309 177.244C230.217 174.826 228.738 173.683 226.131 173.914C214.288 174.958 202.447 176.001 190.608 177.044C186.862 177.371 186.477 177.82 187.547 181.236Z" fill="#C4C3C6"/>
<path d="M322.372 177.235C319.817 176.046 317.843 175.094 315.835 174.195C314.063 173.406 312.215 172.73 310.466 171.927C309.039 171.256 307.899 171.115 306.409 171.904C304.303 173.03 301.874 173.774 299.647 174.767C299.226 174.975 298.877 175.262 298.631 175.602C298.384 175.942 298.248 176.324 298.235 176.716C298.221 177.107 298.33 177.495 298.552 177.845C298.775 178.196 299.103 178.497 299.509 178.723C302.012 180.184 304.573 181.585 307.163 182.937C307.431 183.073 307.733 183.16 308.048 183.192C308.364 183.224 308.684 183.2 308.987 183.123C313.297 181.281 317.538 179.372 322.372 177.235Z" fill="#C4C3C6"/>
<path d="M306.133 183.899C303.705 182.57 301.841 181.508 299.913 180.506C298.215 179.626 296.397 178.868 294.734 177.956C293.37 177.208 292.167 177.049 290.28 177.956C287.604 179.217 284.703 180.052 281.941 181.177C279.68 182.084 278.926 184.461 280.531 185.609C282.833 187.242 285.198 188.785 287.621 190.318C287.901 190.471 288.222 190.569 288.559 190.605C288.897 190.64 289.24 190.612 289.56 190.522C294.883 188.454 300.143 186.308 306.133 183.899Z" fill="#C4C3C6"/>
<path d="M275.696 182.874C273.394 181.631 273.129 180.392 271.299 179.449C269.693 178.619 270.062 178.233 268.491 177.38C267.207 176.686 266.016 176.45 264.048 176.926C261.269 177.634 258.294 177.992 255.416 178.587C253.074 179.068 252.102 180.801 253.592 181.821C255.721 183.282 257.937 184.697 260.21 186.077C260.774 186.372 261.456 186.493 262.126 186.417C267.633 185.378 269.492 184.135 275.696 182.874Z" fill="#C4C3C6"/>
<path d="M229.74 173.438C232.243 176.854 234.568 180.143 237.094 183.332C237.462 183.786 238.867 184.076 239.655 183.963C243.965 183.337 248.229 182.561 252.724 181.803L246.181 175.715C245.634 175.212 244.886 174.808 244.541 174.214C243.033 171.718 240.656 171.551 237.779 172.136C235.241 172.653 232.629 172.98 229.74 173.438Z" fill="white"/>
<path d="M259.049 187.134C257.115 185.568 255.527 184.126 253.708 182.905C253.202 182.565 251.982 182.756 251.165 182.905C247.643 183.545 244.173 184.325 240.64 184.929C237.106 185.532 233.596 185.977 230.057 186.458C228.831 186.625 228.244 186.975 229.113 187.982C229.34 188.223 229.547 188.474 229.735 188.735C232.186 192.55 230.926 192.282 236.796 191.207C243.546 189.973 250.302 188.762 257.058 187.537C257.541 187.437 258.053 187.342 259.049 187.134Z" fill="#C4C3C6"/>
<path d="M315.471 202.363C313.169 200.893 311.213 199.514 309.055 198.411C308.479 198.103 307.127 198.493 306.229 198.779C302.397 200.004 298.639 201.383 294.789 202.567C290.939 203.751 287.089 204.762 283.222 205.815C281.882 206.182 281.272 206.654 282.348 207.657C282.629 207.893 282.888 208.145 283.125 208.41C286.295 212.32 284.851 212.202 291.25 210.147C298.599 207.788 305.959 205.457 313.307 203.107C313.837 202.939 314.355 202.748 315.471 202.363Z" fill="white"/>
<path d="M306.449 170.766C304.516 169.201 302.467 168.792 300.695 167.994C300.119 167.735 271.346 178.02 271.346 178.02L276.617 182.202C276.617 182.202 305.425 170.974 306.449 170.766Z" fill="white"/>
<path d="M306.161 185.305C309.775 187.283 313.067 189.098 316.358 190.876C316.542 190.974 316.75 191.039 316.969 191.067C317.187 191.095 317.411 191.086 317.624 191.039C321.388 189.678 325.105 188.24 328.857 186.83C328.857 186.616 328.857 186.399 328.857 186.181C327.165 185.351 325.479 184.507 323.776 183.69C323.126 183.382 322.314 183.237 321.785 182.837C318.574 180.406 315.616 180.782 312.439 182.706C310.661 183.763 308.474 184.366 306.161 185.305Z" fill="white"/>
<path d="M308.073 163.594C306.709 163.14 305.333 162.718 303.969 162.26C300.016 160.926 296.017 159.67 292.138 158.204C290.412 157.546 289.065 157.592 287.603 158.404C286.487 159.03 285.261 159.529 283.736 160.25C285.952 161.157 287.816 161.897 289.669 162.655C293.226 164.115 296.742 165.64 300.35 166.991C300.8 167.119 301.278 167.173 301.755 167.148C302.232 167.124 302.698 167.023 303.124 166.851C304.925 166.075 306.576 165.063 308.268 164.129L308.073 163.594Z" fill="white"/>
<path d="M220.033 197.976C218.698 194.75 217.611 192.01 216.408 189.307C216.275 189.091 216.079 188.903 215.835 188.759C215.592 188.614 215.309 188.518 215.009 188.476C212.282 188.626 209.571 188.93 206.544 189.175C206.809 190.477 207.039 191.629 207.281 192.804C207.557 194.165 207.931 195.494 208.11 196.846C208.265 198.039 208.587 198.711 210.412 198.534C213.479 198.216 216.575 198.157 220.033 197.976Z" fill="white"/>
<path d="M303.1 168.048C307.335 169.922 310.949 171.537 314.609 173.102C314.834 173.201 315.083 173.262 315.34 173.28C315.597 173.299 315.855 173.276 316.1 173.211C318.793 172.104 321.44 170.943 324.571 169.582C319.783 167.826 315.484 166.238 311.168 164.691C310.968 164.622 310.751 164.586 310.532 164.586C310.313 164.586 310.097 164.622 309.896 164.691C307.727 165.685 305.621 166.778 303.1 168.048Z" fill="white"/>
<path d="M197.24 209.757C197.085 208.178 196.946 206.881 196.826 205.584C196.705 204.286 196.607 203.011 196.475 201.401C193.632 201.487 190.616 201.483 187.641 201.709C186.139 201.823 185.259 204.504 185.731 206.382C185.926 207.18 185.61 208.033 185.696 208.854C185.824 209.434 186.028 210.001 186.306 210.546L197.24 209.757Z" fill="white"/>
<path d="M243.579 209.753C248.684 208.732 253.259 207.825 257.816 206.899C258.576 206.745 259.261 206.504 259.997 206.328C262.627 205.688 262.742 205.379 260.774 203.293C257.224 199.527 253.621 195.776 250.071 192.01C248.92 190.767 247.723 190.309 245.899 190.649C242.181 191.334 238.303 191.824 234.551 192.464C233.975 192.555 233.348 193.085 233.515 193.371C234.781 195.671 236.225 197.971 237.641 200.267C238.245 201.238 238.947 202.204 239.551 203.175C240.829 205.248 242.072 207.298 243.579 209.753Z" fill="white"/>
<path d="M278.815 204.862C279.062 205.087 279.387 205.25 279.75 205.331C280.113 205.411 280.498 205.406 280.858 205.316C284.725 204.218 286.871 203.048 290.64 202.059C291.337 201.882 291.964 201.65 292.637 201.455C295.048 200.766 295.146 200.548 293.293 199.255C289.961 196.941 287.539 193.87 284.213 191.543C283.113 190.781 281.048 191.343 279.373 191.747C275.966 192.573 272.41 193.276 268.969 194.079C268.468 194.197 267.875 194.628 268.031 194.823C269.239 196.325 270.114 196.47 271.483 197.949C272.059 198.575 273.624 200.14 274.2 200.766C275.644 202.195 277.185 203.563 278.815 204.862Z" fill="#C4C3C6"/>
<path d="M283.373 189.121L275.558 184.262L249.962 190.205L255.791 196.243L283.442 189.801L283.373 189.121Z" fill="#C4C3C6"/>
<path d="M275.167 203.47C271.968 200.68 269.292 198.312 266.535 195.984C266.022 195.619 265.362 195.407 264.671 195.386C262.047 195.839 259.52 196.375 256.672 196.951L259.503 200.153C260.568 201.347 261.724 202.526 262.685 203.737C263.537 204.803 264.251 205.38 265.977 205.012C268.808 204.409 271.864 204.014 275.167 203.47Z" fill="#C4C3C6"/>
<path d="M307.099 197.123C303.347 194.496 300.194 192.264 296.971 190.082C296.405 189.748 295.703 189.586 294.998 189.629C292.5 190.359 290.112 191.203 287.407 192.106C288.662 193.222 289.767 194.215 290.86 195.204C292.161 196.361 293.547 197.472 294.756 198.674C295.82 199.718 296.643 200.253 298.272 199.691C300.994 198.779 303.917 198.039 307.099 197.123Z" fill="white"/>
<path d="M259.418 216.684C258.336 215.269 257.444 214.103 256.569 212.933C255.695 211.762 254.843 210.619 253.779 209.172C251.011 209.562 248.024 209.889 245.193 210.424C243.771 210.692 244.462 213.223 246.021 214.883C246.683 215.587 246.867 216.399 247.425 217.152C247.905 217.676 248.438 218.17 249.019 218.626L259.418 216.684Z" fill="#C4C3C6"/>
<path d="M242.96 171.346C245.837 174.068 248.202 176.613 251.051 178.718C251.816 179.285 253.687 178.301 255.217 177.965C255.695 177.861 265.121 176.119 265.132 175.579C265.132 173.628 260.322 170.707 259.464 169.228C259.033 168.493 255.643 168.879 253.98 169.183C250.481 169.831 247.005 170.548 242.96 171.346Z" fill="white"/>
<path d="M162.928 190.109C159.424 189.942 156.253 189.769 153.082 189.656C152.858 189.691 152.647 189.766 152.466 189.875C152.284 189.985 152.137 190.125 152.035 190.286C151.074 191.829 150.222 193.417 149.278 194.964C148.703 195.921 149.238 196.429 150.366 196.497C153.332 196.684 156.299 196.804 159.268 196.855C159.525 196.812 159.763 196.72 159.964 196.587C160.165 196.454 160.321 196.285 160.419 196.093C161.306 194.174 162.065 192.21 162.928 190.109Z" fill="white"/>
<path d="M336.81 183.082L333.277 181.64C330.589 180.546 327.862 179.503 325.22 178.324C323.92 177.743 322.918 177.657 321.825 178.46C320.799 179.118 319.721 179.724 318.597 180.274C322.383 182.089 325.836 183.777 329.341 185.392C329.623 185.508 329.933 185.577 330.251 185.594C330.569 185.611 330.888 185.576 331.188 185.491C332.908 184.843 334.531 184.071 336.81 183.082Z" fill="#C4C3C6"/>
<path d="M175.71 211.762C172.056 211.907 168.902 211.976 165.772 212.216C165.196 212.261 164.569 212.974 164.362 213.495C164.036 214.56 163.803 215.64 163.666 216.73C166.928 216.979 169.996 217.242 173.022 217.415C173.295 217.41 173.561 217.35 173.796 217.243C174.032 217.135 174.229 216.982 174.369 216.798C174.875 215.287 175.186 213.749 175.71 211.762Z" fill="white"/>
<path d="M95.8777 174.014C96.9308 174.49 97.9897 174.971 99.0312 175.479L99.1809 175.538L110.195 178.482C110.369 178.526 110.557 178.524 110.729 178.477C110.902 178.431 111.052 178.342 111.156 178.224C113.458 175.733 116.646 173.982 119 171.396C119.333 171.029 119.575 170.094 119.04 169.967C118.269 169.781 117.498 169.133 116.813 168.96C110.304 167.318 108.141 166.03 101.632 164.392C101.287 164.306 97.512 162.686 97.1725 162.732C95.6763 162.922 93.104 163.557 89.9102 165.454C88.7593 166.139 84.8692 166.982 82.4292 168.039C82.2868 168.095 82.168 168.182 82.0871 168.29C82.0062 168.398 81.9667 168.522 81.9734 168.648C81.9801 168.773 82.0327 168.894 82.1248 168.996C82.2169 169.098 82.3447 169.177 82.4925 169.223C86.2215 170.199 94.1629 173.374 95.8317 173.991L95.8777 174.014Z" fill="white"/>
<path d="M51.5728 198.194C55.7966 196.057 59.8479 194.011 63.8876 191.956C66.6556 190.545 69.4408 189.161 72.1454 187.673C73.3654 186.997 74.4473 186.843 75.6672 187.383C76.8872 187.923 78.1878 188.318 79.402 188.848C81.2837 189.679 81.2895 190.663 79.3617 191.852C75.0285 194.469 70.7298 197.132 66.2815 199.604C59.2551 203.506 61.7411 203.297 54.7723 200.031C53.8976 199.617 53.0306 199.192 52.1712 198.756C51.9435 198.588 51.7425 198.4 51.5728 198.194Z" fill="white"/>
<path d="M57.2461 178.092C59.8644 176.954 61.8958 176.042 63.956 175.184C65.7744 174.431 67.6619 173.792 69.4631 173.007C70.9305 172.367 72.0814 172.249 73.5374 173.07C75.5975 174.232 77.9972 175.026 80.1782 176.064C81.9678 176.917 81.9391 179.031 80.1264 180.02C77.5426 181.431 74.9012 182.779 72.2311 184.081C71.957 184.211 71.6498 184.292 71.3315 184.317C71.0132 184.343 70.6916 184.314 70.3896 184.23C66.16 182.316 61.9936 180.324 57.2461 178.092Z" fill="#C4C3C6"/>
<path d="M72.3701 185.133C74.9079 183.876 76.8529 182.865 78.8728 181.926C80.6452 181.091 82.5673 180.388 84.3051 179.526C85.7208 178.818 87.0271 178.691 89.1678 179.621C92.2062 180.932 95.4518 181.835 98.5708 183.014C101.12 183.976 102.156 186.344 100.504 187.437C98.145 188.998 95.6935 190.491 93.1787 191.929C92.8644 192.076 92.5125 192.167 92.1483 192.194C91.7841 192.222 91.4167 192.185 91.0726 192.087C85.0878 189.919 79.1318 187.664 72.3701 185.133Z" fill="white"/>
<path d="M103.83 184.652C106.195 183.454 106.528 182.221 108.433 181.313C110.091 180.515 109.74 180.125 111.357 179.304C112.68 178.637 113.889 178.423 115.834 178.963C118.596 179.721 121.588 180.143 124.408 180.778C126.71 181.309 127.625 183.046 126.077 184.049C123.867 185.464 121.571 186.834 119.223 188.168C118.643 188.453 117.952 188.561 117.278 188.472C111.8 187.315 109.993 186.036 103.83 184.652Z" fill="white"/>
<path d="M152.319 174.908C149.033 178.664 145.949 182.284 142.692 185.795C142.214 186.303 140.735 186.598 139.964 186.458C135.746 185.7 131.602 184.775 127.223 183.863C130.06 181.486 132.621 179.326 135.188 177.199C135.849 176.645 136.695 176.187 137.173 175.556C139.25 172.803 141.69 172.653 144.47 173.347C146.927 173.955 149.499 174.354 152.319 174.908Z" fill="white"/>
<path d="M120.333 189.252C122.353 187.728 124.016 186.317 125.903 185.133C126.427 184.806 127.63 185.02 128.459 185.183C131.957 185.891 135.404 186.743 138.92 187.41C142.436 188.077 145.947 188.599 149.469 189.152C150.694 189.343 151.264 189.701 150.349 190.69C150.108 190.926 149.887 191.175 149.687 191.434C147.034 195.2 148.312 194.955 142.471 193.766C135.755 192.405 129.028 191.044 122.33 189.683C121.829 189.588 121.352 189.47 120.333 189.252Z" fill="#C4C3C6"/>
<path d="M62.9263 203.347C65.3374 201.923 67.3458 200.58 69.5671 199.523C70.1828 199.228 71.4949 199.645 72.3811 199.949C76.1676 201.247 79.862 202.698 83.6831 203.959C87.5042 205.221 91.3022 206.309 95.1347 207.434C96.4641 207.829 97.051 208.31 95.9231 209.29C95.628 209.522 95.3549 209.77 95.106 210.034C91.728 213.872 93.1724 213.786 86.8596 211.608C79.5973 209.104 72.3312 206.612 65.0612 204.132C64.5376 203.95 64.0254 203.769 62.9263 203.347Z" fill="white"/>
<path d="M73.5498 171.945C75.5697 170.416 77.6471 170.049 79.4655 169.282C80.041 169.037 108.446 179.889 108.446 179.889L102.944 183.972C102.944 183.972 74.5684 172.172 73.5498 171.945Z" fill="white"/>
<path d="M73.1179 186.48C69.3947 188.39 66.0167 190.137 62.61 191.847C62.4207 191.94 62.2085 192.001 61.9874 192.025C61.7663 192.049 61.5412 192.037 61.3267 191.988C57.615 190.54 53.9436 189.043 50.2549 187.56C50.2549 187.342 50.2952 187.106 50.3124 186.907C52.0388 186.108 53.7652 185.301 55.5376 184.521C56.2051 184.221 57.028 184.094 57.5805 183.704C60.9239 181.34 63.876 181.776 66.972 183.758C68.6753 184.847 70.8448 185.496 73.1179 186.48Z" fill="#C4C3C6"/>
<path d="M72.2774 164.755C73.67 164.338 75.0741 163.934 76.461 163.503C80.4892 162.246 84.5749 161.071 88.5456 159.683C90.3238 159.062 91.6589 159.134 93.086 159.973C94.1736 160.618 95.3878 161.144 96.8725 161.892C94.6052 162.745 92.7004 163.457 90.8014 164.183C87.1588 165.544 83.5564 167.023 79.8677 168.307C79.4117 168.425 78.9298 168.469 78.4517 168.434C77.9736 168.4 77.5096 168.289 77.0882 168.107C75.3158 167.295 73.7275 166.252 72.0645 165.304L72.2774 164.755Z" fill="white"/>
<path d="M77.0481 169.291C72.7033 171.079 68.9916 172.621 65.2627 174.114C65.0334 174.207 64.7822 174.262 64.5248 174.275C64.2673 174.288 64.0092 174.26 63.7665 174.191C61.1136 173.029 58.5183 171.8 55.4453 170.376C60.3367 168.72 64.7275 167.2 69.1413 165.753C69.3426 165.683 69.5601 165.647 69.78 165.647C69.9999 165.647 70.2174 165.683 70.4188 165.753C72.525 166.842 74.5793 167.971 77.0481 169.291Z" fill="#C4C3C6"/>
<path d="M101.562 206.314L123.113 211.159C120.196 214.303 117.393 217.274 114.694 220.273C113.901 221.149 113.24 222.096 112.726 223.095C111.984 224.546 110.292 225.317 108.48 224.909C101.775 223.349 95.0655 221.797 88.396 220.205C85.5935 219.538 85.5992 219.32 88.0967 217.428C90.2489 215.8 92.4645 214.198 94.6339 212.574C95.1288 212.202 95.5777 211.808 96.015 211.408C97.8795 209.698 99.7268 207.997 101.562 206.314Z" fill="#C4C3C6"/>
<path d="M134.745 212.153C129.669 211.032 125.123 210.034 120.594 209.022C119.834 208.854 119.161 208.596 118.43 208.405C115.818 207.716 115.72 207.407 117.803 205.357C121.549 201.664 125.353 197.985 129.105 194.292C130.342 193.072 131.545 192.636 133.363 193.008C137.058 193.766 140.931 194.333 144.665 195.054C145.206 195.159 145.816 195.703 145.661 196.002C144.274 198.271 142.715 200.539 141.172 202.807C140.522 203.769 139.768 204.717 139.112 205.674C137.725 207.702 136.379 209.73 134.745 212.153Z" fill="white"/>
<path d="M99.6124 206.568C99.351 206.784 99.0162 206.937 98.648 207.008C98.2797 207.079 97.8934 207.065 97.535 206.967C93.7082 205.788 91.6078 204.563 87.85 203.515C87.1595 203.324 86.5437 203.061 85.8762 202.871C83.488 202.136 83.4017 201.905 85.3007 200.662C88.7535 198.393 91.3373 195.39 94.8016 193.145C95.9525 192.405 97.9896 193.008 99.6527 193.448C103.031 194.356 106.558 195.113 109.982 195.98C110.477 196.107 111.053 196.551 110.886 196.747C109.597 198.216 108.716 198.348 107.289 199.8C106.685 200.417 105.033 201.945 104.412 202.558C102.903 203.96 101.301 205.299 99.6124 206.568Z" fill="white"/>
<path d="M97.4992 190.613C99.9104 189.157 101.194 187.678 103.455 186.276C103.587 186.198 103.742 186.145 103.905 186.124C104.068 186.103 104.236 186.113 104.393 186.154L127.74 192.083C127.91 192.124 128.066 192.196 128.193 192.295C128.32 192.394 128.414 192.516 128.467 192.65C128.521 192.785 128.532 192.927 128.499 193.065C128.466 193.204 128.391 193.334 128.281 193.444L123.562 197.98C123.431 198.105 123.255 198.195 123.058 198.24C122.861 198.284 122.651 198.281 122.457 198.23C113.75 196.021 106.235 194.224 97.8675 192.101C97.7277 192.066 97.5982 192.01 97.4865 191.935C97.3747 191.86 97.283 191.768 97.2166 191.665C97.1502 191.562 97.1104 191.45 97.0997 191.335C97.0889 191.22 97.1073 191.104 97.1539 190.994C97.2178 190.843 97.3381 190.71 97.4992 190.613Z" fill="#C4C3C6"/>
<path d="M103.341 205.248C106.69 202.526 109.498 200.212 112.399 197.94C112.933 197.585 113.605 197.386 114.303 197.377C116.91 197.867 119.419 198.47 122.256 199.101C121.174 200.235 120.219 201.238 119.252 202.245C118.101 203.415 116.91 204.572 115.88 205.761C114.971 206.813 114.229 207.376 112.514 206.976C109.682 206.314 106.65 205.856 103.341 205.248Z" fill="#C4C3C6"/>
<path d="M71.603 198.271C75.4989 195.726 78.7617 193.553 82.1167 191.439C82.7 191.117 83.4117 190.974 84.1193 191.035C86.5938 191.811 88.9474 192.704 91.6003 193.657C90.2882 194.75 89.1258 195.721 87.9576 196.687C86.5938 197.817 85.1436 198.919 83.8776 200.076C82.7554 201.097 81.9038 201.619 80.2925 201.024C77.6396 200.04 74.7393 199.232 71.603 198.271Z" fill="#C4C3C6"/>
<path d="M118.499 218.771C119.65 217.374 120.611 216.226 121.549 215.079C122.487 213.931 123.385 212.81 124.53 211.372C127.292 211.826 130.284 212.202 133.093 212.792C134.508 213.092 133.668 215.609 132.04 217.233C131.343 217.923 131.119 218.73 130.515 219.456C130.01 219.971 129.451 220.452 128.846 220.894L118.499 218.771Z" fill="white"/>
<path d="M137.271 173.778C134.226 176.441 131.746 178.941 128.783 180.991C127.983 181.54 126.158 180.537 124.633 180.152C124.162 180.038 114.782 178.11 114.799 177.571C114.868 175.62 119.869 172.798 120.801 171.346C121.273 170.621 124.662 171.07 126.314 171.405C129.795 172.113 133.248 172.921 137.271 173.778Z" fill="white"/>
<path d="M42.457 183.65L46.0767 182.289C48.8274 181.245 51.6183 180.261 54.3173 179.113C55.6523 178.56 56.6191 178.492 57.7182 179.317C58.7214 179.988 59.7765 180.609 60.8775 181.177C56.9816 182.915 53.431 184.534 49.8344 186.077C49.5467 186.187 49.2332 186.25 48.9134 186.261C48.5937 186.272 48.2744 186.231 47.9757 186.14C46.2838 185.487 44.6956 184.684 42.457 183.65Z" fill="white"/>
<path d="M143.244 187.115C144.047 186.103 144.923 185.128 145.868 184.194C146.132 183.958 147.019 184.031 147.646 184.099C150.27 184.366 152.894 184.734 155.512 185.006C158.131 185.278 160.692 185.401 163.298 185.573C164.196 185.632 164.697 185.832 164.352 186.512C164.258 186.677 164.18 186.847 164.116 187.02C163.707 188.454 163.575 188.744 163.149 189.139C162.435 189.778 143.825 187.678 143.244 187.115Z" fill="#C4C3C6"/>
<path d="M98.7487 123.382C99.7673 123.123 100.792 122.856 101.799 122.579L101.942 122.547L112.548 121.082C112.708 121.058 112.872 121.062 113.029 121.094C113.187 121.126 113.333 121.186 113.457 121.268C115.569 122.856 118.602 124.026 120.8 125.677C121.105 125.909 121.295 126.489 120.8 126.548C120.058 126.639 119.304 127.002 118.648 127.097C112.387 127.905 110.287 128.631 104.02 129.433C103.692 129.479 100.043 130.341 99.7212 130.314C97.3038 129.999 94.9699 129.369 92.8157 128.449C91.7108 127.995 88.0336 127.36 85.6973 126.634C85.093 126.448 85.1506 126.004 85.7836 125.913C89.4032 125.41 97.0741 123.717 98.6796 123.386L98.7487 123.382Z" fill="#C4C3C6"/>
<path d="M158.769 108.048L180.866 107.195C180.158 104.982 179.439 102.881 178.835 100.781C178.653 100.148 178.632 99.4925 178.772 98.8528C178.985 97.8911 177.937 97.2514 176.067 97.3331C169.161 97.628 162.256 97.9183 155.35 98.2404C152.473 98.3765 152.324 98.508 153.417 99.9144C154.355 101.126 155.368 102.328 156.323 103.544C156.534 103.814 156.714 104.1 156.858 104.396C157.52 105.608 158.147 106.837 158.769 108.048Z" fill="#C4C3C6"/>
<path d="M162.865 114.853C158.94 109.582 155.136 104.501 151.39 99.4289C150.814 98.6759 150.135 98.3175 148.513 98.4808C145.284 98.7984 142.021 99.0524 138.764 99.3201C137.573 99.4199 137.533 99.7737 137.999 100.273C138.971 101.289 139.973 102.301 140.951 103.317C143.535 105.98 146.078 108.652 148.714 111.306C149.865 112.449 151.108 113.574 152.431 114.658C152.913 114.988 153.52 115.183 154.158 115.211C156.886 115.162 159.607 115.012 162.865 114.853Z" fill="white"/>
<path d="M220.436 109.509C223.981 104.687 227.416 100.041 230.794 95.3869C231.295 94.6974 231.945 94.407 233.516 94.6974C236.624 95.2735 239.771 95.7861 242.908 96.3169C244.059 96.512 244.11 96.8749 243.685 97.3104C242.793 98.2177 241.878 99.125 240.98 100.032C238.615 102.419 236.284 104.818 233.867 107.186C232.79 108.227 231.637 109.217 230.415 110.153C229.952 110.437 229.376 110.578 228.792 110.553C226.185 110.28 223.572 109.908 220.436 109.509Z" fill="#C4C3C6"/>
<path d="M191.824 107.731C186.644 107.921 181.983 108.085 177.339 108.262C176.568 108.289 175.814 108.379 175.037 108.425C172.298 108.593 172.028 108.774 172.649 110.239C173.8 112.875 174.951 115.506 176.102 118.138C176.476 119.009 177.282 119.394 179.129 119.344C182.875 119.24 186.662 119.276 190.419 119.199C190.966 119.199 191.858 118.918 191.875 118.718C192.008 117.185 191.973 115.642 191.962 114.1C191.962 113.447 191.852 112.789 191.841 112.136C191.812 110.77 191.824 109.378 191.824 107.731Z" fill="#C4C3C6"/>
<path d="M193.401 109.409C199.397 109.441 205.163 109.459 210.929 109.505C212.656 109.505 214.353 109.6 216.068 109.668C217.57 109.731 219.101 109.727 219.602 108.915C220.902 106.81 222.059 104.673 223.417 102.305C218.301 102.305 213.496 102.409 208.662 102.5C203.989 102.591 199.173 102.106 194.437 101.87C194.068 104.519 193.746 106.873 193.401 109.409Z" fill="#C4C3C6"/>
<path d="M193.482 116.913L205.768 117.076C206.344 117.076 206.919 117.076 207.495 117.112C212.254 117.335 212.564 117.112 213.249 114.622C213.56 113.474 214.642 112.422 215.355 111.319C215.557 111.002 215.689 110.671 215.931 110.203H209.871C204.911 110.203 199.939 110.153 194.99 110.203C194.414 110.203 193.563 110.657 193.545 110.92C193.419 112.889 193.482 114.88 193.482 116.913Z" fill="white"/>
<path d="M144.313 117.035L148.716 120.714L175.187 119.258L173.259 115.021L144.63 116.609C144.521 116.749 144.417 116.89 144.313 117.035Z" fill="#C4C3C6"/>
<path d="M230.397 119.612L225.08 123.305C213.519 122.193 205.584 122.361 194.788 121.975C193.85 121.939 193.108 121.522 193.159 121.032C193.286 119.925 192.82 118.691 193.499 117.466C205.388 117.988 218.468 117.82 230.046 119.19L230.397 119.612Z" fill="#C4C3C6"/>
<path d="M82.6476 134.886V134.959C83.223 135.063 83.833 135.181 84.4142 135.313C86.8922 134.409 89.4275 133.607 92.0103 132.908C92.1657 132.868 92.2347 132.745 92.4476 132.586C90.1918 132.069 87.9878 131.579 85.8068 131.071C82.7166 130.345 79.6149 129.624 76.5592 128.853C75.9349 128.654 75.2639 128.562 74.591 128.584C73.918 128.606 73.2589 128.741 72.6576 128.98C71.1096 129.597 69.3199 130.06 67.6683 130.613C67.0971 130.825 66.5401 131.059 65.9995 131.316V131.697L82.6476 134.886Z" fill="#C4C3C6"/>
<path d="M56.958 107.268C60.9459 108.706 64.7727 110.076 68.588 111.455C71.1949 112.399 73.8305 113.329 76.3798 114.318C76.885 114.545 77.4442 114.687 78.0224 114.736C78.6006 114.786 79.1854 114.74 79.7405 114.604C80.8914 114.318 82.1689 114.105 83.3428 113.819C85.167 113.365 85.1958 112.753 83.3774 112.004C79.2973 110.276 75.2576 108.516 71.0568 106.873C64.4275 104.278 66.7984 104.478 60.0597 106.265C59.2081 106.492 58.3679 106.719 57.5392 106.969C57.3325 107.052 57.1377 107.152 56.958 107.268Z" fill="#C4C3C6"/>
<path d="M61.9082 119.725C64.3884 120.501 66.3047 121.118 68.2383 121.703C69.9646 122.221 71.7486 122.67 73.4519 123.2C74.0553 123.435 74.7156 123.564 75.3879 123.579C76.0602 123.593 76.7287 123.494 77.3478 123.287C79.3446 122.638 81.658 122.225 83.7699 121.653C85.4963 121.2 85.4963 119.893 83.816 119.236C81.376 118.298 78.8823 117.391 76.335 116.514C75.7797 116.334 75.1711 116.282 74.5798 116.364C70.5343 117.412 66.5004 118.505 61.9082 119.725Z" fill="#C4C3C6"/>
<path d="M77.3579 115.937C79.723 116.795 81.5415 117.48 83.4175 118.128C85.0691 118.7 86.83 119.195 88.4528 119.784C89.1132 120.046 89.8387 120.19 90.5778 120.206C91.3168 120.222 92.0511 120.109 92.7284 119.875C95.2662 119.149 98.0399 118.691 100.664 118.06C102.81 117.539 103.478 116.105 101.907 115.375C99.6685 114.331 97.3551 113.329 95.0015 112.358C94.4138 112.154 93.7605 112.099 93.1313 112.199C88.05 113.356 83.0377 114.572 77.3579 115.937Z" fill="#C4C3C6"/>
<path d="M106.604 117.121C108.836 117.924 109.13 118.686 110.902 119.299C112.467 119.839 112.122 120.066 113.653 120.614C114.986 121.111 116.495 121.233 117.929 120.959C120.587 120.578 123.436 120.41 126.163 120.102C128.402 119.848 129.3 118.804 127.844 118.151C125.761 117.221 123.597 116.314 121.387 115.429C120.803 115.234 120.167 115.151 119.534 115.189C114.286 115.729 112.531 116.459 106.604 117.121Z" fill="#C4C3C6"/>
<path d="M150.971 123.727C148.48 121.59 146.172 119.535 143.669 117.534C143.3 117.244 141.942 117.049 141.194 117.103C137.074 117.407 132.994 117.806 128.695 118.187C130.997 119.548 133.052 120.801 135.123 122.034C135.704 122.302 136.244 122.62 136.734 122.983C138.242 124.539 140.527 124.684 143.277 124.38C145.706 124.108 148.203 123.953 150.971 123.727Z" fill="#C4C3C6"/>
<path d="M67.9326 104.465C70.2057 105.404 72.0932 106.279 74.1936 107C74.7691 107.2 76.0408 107 76.8983 106.824C80.5467 106.143 84.1261 105.367 87.7975 104.714C91.4689 104.061 95.1404 103.512 98.8291 102.931C100.112 102.732 100.682 102.478 99.6232 101.824C99.3573 101.675 99.1018 101.514 98.8578 101.343C95.7273 98.8937 97.1027 98.9935 91.0143 100.132C84.011 101.448 77.0019 102.741 69.9928 104.047C69.4921 104.142 68.9972 104.247 67.9326 104.465Z" fill="#C4C3C6"/>
<path d="M77.3579 123.976C79.2512 124.97 81.2308 125.255 82.9514 125.791C83.5268 125.959 110.907 120.184 110.907 120.184L105.728 117.525C105.728 117.525 78.3304 123.863 77.3579 123.976Z" fill="#C4C3C6"/>
<path d="M77.284 115.08C73.768 113.801 70.5799 112.63 67.3573 111.483C66.9728 111.354 66.5511 111.31 66.1374 111.355C62.5522 112.131 59.0074 112.934 55.4453 113.733L55.4856 114.132C57.1314 114.672 58.7715 115.216 60.423 115.76C61.0846 115.907 61.731 116.094 62.3566 116.318C65.4986 117.865 68.3299 117.679 71.3395 116.572C72.9968 115.942 75.0858 115.611 77.284 115.08Z" fill="#C4C3C6"/>
<path d="M75.9604 128.336C77.2897 128.635 78.619 128.925 79.9368 129.243C83.7636 130.15 87.6365 130.971 91.4 131.938C92.0919 132.157 92.8319 132.266 93.5775 132.259C94.3232 132.252 95.0597 132.129 95.7447 131.897C96.8036 131.538 97.966 131.253 99.4161 130.84L93.6616 129.257C90.2088 128.299 86.8021 127.301 83.3033 126.408C82.4282 126.235 81.5106 126.249 80.6447 126.448C78.9183 126.902 77.3818 127.478 75.7705 128.009L75.9604 128.336Z" fill="#C4C3C6"/>
<path d="M159.712 108.879C161.064 110.879 162.175 112.571 163.401 114.254C163.754 114.558 164.238 114.747 164.759 114.785C167.377 114.74 169.972 114.617 172.873 114.513C172.591 113.71 172.343 112.998 172.084 112.285C171.785 111.455 171.394 110.63 171.192 109.795C171.014 109.064 170.686 108.643 168.919 108.72C165.979 108.847 163.027 108.829 159.712 108.879Z" fill="#C4C3C6"/>
<path d="M80.6335 125.7C76.519 124.475 73.0145 123.432 69.4811 122.397C69.0228 122.265 68.5275 122.234 68.0482 122.307C65.4874 122.933 62.9727 123.609 59.9976 124.38C64.6358 125.541 68.8021 126.589 72.9857 127.619C73.382 127.712 73.8023 127.723 74.2057 127.651C76.2485 127.061 78.2396 126.43 80.6335 125.7Z" fill="#C4C3C6"/>
<path d="M181.32 102.074C181.51 103.045 181.677 103.843 181.821 104.641C181.965 105.44 182.091 106.22 182.258 107.205C184.986 107.205 187.881 107.264 190.735 107.177C192.173 107.137 192.956 105.508 192.461 104.351C192.248 103.857 192.536 103.339 192.461 102.836C192.315 102.466 192.106 102.114 191.84 101.788L181.32 102.074Z" fill="white"/>
<path d="M136.816 101.244C131.936 101.774 127.562 102.251 123.206 102.732C122.481 102.813 121.831 102.949 121.123 103.045C118.614 103.385 118.51 103.575 120.45 104.891C123.948 107.259 127.499 109.623 130.998 111.991C131.534 112.377 132.177 112.661 132.877 112.818C133.576 112.975 134.311 113.003 135.026 112.898C138.577 112.544 142.294 112.317 145.879 111.991C146.403 111.945 147.03 111.632 146.852 111.442C145.586 110.013 144.141 108.579 142.726 107.146C142.121 106.542 141.425 105.939 140.821 105.331C139.561 104.047 138.318 102.772 136.816 101.244Z" fill="#C4C3C6"/>
<path d="M103.086 103.598C102.504 103.297 101.796 103.188 101.113 103.294C97.4238 103.897 95.3867 104.582 91.7671 105.109C91.1053 105.204 90.5126 105.336 89.8623 105.444C87.5605 105.821 87.4799 105.962 89.2868 106.778C92.5439 108.257 94.9321 110.181 98.195 111.655C99.2711 112.14 101.239 111.836 102.839 111.619C106.09 111.165 109.491 110.807 112.771 110.38C113.249 110.317 113.813 110.063 113.658 109.926C112.461 108.987 111.62 108.879 110.291 107.949C109.716 107.558 108.185 106.588 107.615 106.179C106.614 105.499 104.646 104.419 103.086 103.598Z" fill="#C4C3C6"/>
<path d="M99.0824 113.152L106.707 116.273L131.153 113.098L125.398 109.296L98.9961 112.735L99.0824 113.152Z" fill="white"/>
<path d="M76.1035 107.826C79.7692 109.5 82.8421 110.924 85.9957 112.317C86.5908 112.537 87.2435 112.643 87.9004 112.626C90.2886 112.222 92.5559 111.75 95.134 111.265L91.7445 109.287C90.4612 108.556 89.1032 107.84 87.9177 107.091C86.8704 106.433 86.0647 106.089 84.511 106.406C81.9214 106.928 79.1362 107.322 76.1035 107.826Z" fill="white"/>
<path d="M121.438 96.707C122.509 97.6143 123.395 98.3265 124.264 99.0569C125.133 99.7873 125.99 100.504 127.032 101.411C129.679 101.221 132.551 101.076 135.244 100.799C136.608 100.658 135.888 99.0978 134.346 98.0544C133.696 97.6007 133.5 97.1108 132.942 96.648C132.451 96.3072 131.928 95.9964 131.377 95.718L121.438 96.707Z" fill="white"/>
<path d="M138.323 124.77C135.475 123.051 133.144 121.449 130.376 120.106C129.628 119.748 127.856 120.315 126.388 120.492C125.934 120.551 116.922 121.445 116.928 121.776C116.928 122.969 121.658 124.847 122.521 125.759C122.947 126.213 126.198 126.045 127.787 125.89C131.136 125.559 134.456 125.183 138.323 124.77Z" fill="#C4C3C6"/>
<path d="M214.745 114.726C218.117 114.894 221.167 115.057 224.211 115.18C224.4 115.174 224.585 115.138 224.756 115.075C224.927 115.012 225.08 114.923 225.207 114.812C226.093 113.905 226.87 112.93 227.739 112C228.279 111.424 227.739 111.092 226.662 111.038C223.785 110.87 220.954 110.748 218.105 110.657C217.891 110.665 217.681 110.71 217.49 110.788C217.299 110.867 217.132 110.977 217 111.111C216.206 112.267 215.521 113.456 214.745 114.726Z" fill="white"/>
<path d="M201.958 101.243C205.463 101.243 208.49 101.243 211.488 101.144C211.768 101.105 212.033 101.016 212.263 100.885C212.493 100.754 212.683 100.583 212.817 100.386C213.098 99.7479 213.291 99.0878 213.393 98.4172C210.257 98.204 207.328 97.9908 204.393 97.832C203.95 97.8048 203.201 97.9999 203.115 98.1813C202.672 99.0932 202.396 100.037 201.958 101.243Z" fill="white"/>
<path d="M279.529 125.795C278.504 125.487 277.48 125.174 276.467 124.842L276.323 124.806L265.672 122.801C265.515 122.77 265.352 122.766 265.194 122.79C265.036 122.814 264.886 122.866 264.757 122.942C262.633 124.425 259.577 125.441 257.385 126.984C257.074 127.197 256.879 127.769 257.385 127.855C258.127 127.986 258.881 128.395 259.543 128.513C265.833 129.638 267.945 130.463 274.234 131.584C274.562 131.643 278.234 132.704 278.556 132.682C280.951 132.491 283.287 131.977 285.462 131.162C286.572 130.763 290.267 130.314 292.615 129.715C293.219 129.556 293.161 129.107 292.522 128.989C288.891 128.299 281.186 126.222 279.575 125.813L279.529 125.795Z" fill="#C4C3C6"/>
<path d="M321.508 111.791C317.48 113.025 313.659 114.204 309.832 115.388C307.208 116.205 304.561 117.003 302 117.865C301.477 118.067 300.907 118.18 300.326 118.199C299.744 118.218 299.164 118.141 298.622 117.974C297.443 117.629 296.182 117.357 295.009 117.013C293.179 116.468 293.144 115.851 294.974 115.171C299.071 113.651 303.128 112.095 307.352 110.661C314.01 108.393 311.628 108.484 318.395 110.611C319.247 110.881 320.091 111.156 320.927 111.437C321.135 111.54 321.329 111.659 321.508 111.791Z" fill="white"/>
<path d="M316.544 123.999C314.052 124.647 312.124 125.169 310.162 125.659C308.436 126.086 306.634 126.444 304.931 126.889C304.306 127.093 303.633 127.189 302.957 127.17C302.28 127.151 301.617 127.018 301.012 126.78C299.01 126.031 296.685 125.5 294.561 124.824C292.835 124.271 292.8 122.978 294.515 122.406C296.967 121.585 299.47 120.81 301.996 120.061C302.564 119.911 303.175 119.891 303.757 120.002C307.877 121.25 311.929 122.565 316.544 123.999Z" fill="#C4C3C6"/>
<path d="M301.845 119.412C299.439 120.138 297.592 120.719 295.682 121.259C293.99 121.74 292.166 122.134 290.502 122.62C289.156 123.023 287.907 123.073 285.824 122.475C282.878 121.613 279.736 121 276.714 120.206C274.24 119.571 273.193 118.101 274.752 117.462C276.979 116.554 279.304 115.679 281.658 114.844C282.309 114.67 283.011 114.65 283.677 114.785C289.518 116.255 295.29 117.743 301.845 119.412Z" fill="#C4C3C6"/>
<path d="M271.64 119.14C269.396 119.83 269.108 120.578 267.325 121.1C265.748 121.554 266.099 121.803 264.557 122.275C263.187 122.707 261.671 122.754 260.264 122.406C257.599 121.889 254.733 121.581 251.994 121.132C249.744 120.764 248.847 119.68 250.308 119.099C252.397 118.269 254.572 117.475 256.794 116.7C257.388 116.53 258.027 116.479 258.652 116.55C263.924 117.366 265.69 118.183 271.64 119.14Z" fill="white"/>
<path d="M227.077 123.513C229.574 121.504 231.899 119.562 234.414 117.688C234.776 117.416 236.14 117.289 236.894 117.38C241.037 117.893 245.135 118.496 249.451 119.099C247.149 120.356 245.077 121.49 242.994 122.62C242.409 122.851 241.862 123.137 241.365 123.472C239.852 124.956 237.556 124.983 234.794 124.539C232.365 124.158 229.856 123.881 227.077 123.513Z" fill="#C4C3C6"/>
<path d="M255.681 116.033C253.776 116.94 252.228 117.761 250.427 118.451C249.932 118.646 248.764 118.491 247.97 118.378C244.592 117.879 241.26 117.294 237.87 116.822C234.481 116.35 231.091 115.969 227.69 115.565C226.511 115.425 225.964 115.198 226.816 114.608C227.035 114.469 227.24 114.317 227.432 114.154C229.894 111.886 228.669 112.027 234.308 112.857C240.788 113.819 247.275 114.771 253.77 115.715C254.236 115.792 254.697 115.874 255.681 116.033Z" fill="white"/>
<path d="M310.483 108.429C308.182 109.26 306.306 110.044 304.199 110.652C303.624 110.82 302.341 110.543 301.483 110.344C297.818 109.477 294.221 108.529 290.55 107.681C286.878 106.832 283.161 106.107 279.449 105.326C278.166 105.063 277.59 104.755 278.655 104.179C278.921 104.04 279.177 103.888 279.42 103.725C282.568 101.434 281.187 101.457 287.304 102.908C294.336 104.572 301.374 106.235 308.418 107.899C308.924 108.048 309.419 108.162 310.483 108.429Z" fill="#C4C3C6"/>
<path d="M301.022 127.469C299.123 128.377 297.138 128.558 295.406 128.989C294.83 129.13 267.323 121.971 267.323 121.971L272.502 119.576C272.502 119.576 300.061 127.31 301.022 127.469Z" fill="white"/>
<path d="M301.097 118.578C304.625 117.475 307.83 116.464 311.064 115.479C311.457 115.368 311.882 115.346 312.29 115.416C315.886 116.373 319.454 117.353 323.028 118.328L322.988 118.727C321.336 119.181 319.69 119.635 318.027 120.088C317.368 120.202 316.719 120.353 316.088 120.542C312.929 121.93 310.086 121.613 307.065 120.342C305.402 119.653 303.301 119.222 301.097 118.578Z" fill="#C4C3C6"/>
<path d="M302.42 131.901C301.091 132.133 299.756 132.355 298.432 132.595C294.583 133.29 290.693 133.956 286.923 134.714C285.48 135.084 283.91 134.989 282.555 134.451C281.497 134.038 280.328 133.693 278.873 133.208L284.627 131.92C288.08 131.135 291.533 130.309 295.031 129.592C295.927 129.462 296.85 129.52 297.707 129.76C299.434 130.291 300.982 130.958 302.605 131.575L302.42 131.901Z" fill="#C4C3C6"/>
<path d="M297.758 129.03C301.89 128.014 305.412 127.134 308.962 126.308C309.434 126.208 309.93 126.208 310.401 126.308C312.973 127.065 315.494 127.868 318.458 128.794C313.802 129.701 309.619 130.559 305.418 131.375C305.011 131.453 304.586 131.444 304.186 131.348C302.132 130.613 300.129 129.883 297.758 129.03Z" fill="white"/>
<path d="M241.296 101.738L254.964 103.911C255.694 104.029 256.345 104.201 257.058 104.333C259.579 104.787 259.682 104.991 257.732 106.206C254.215 108.402 250.653 110.584 247.137 112.78C246.583 113.143 245.927 113.397 245.224 113.521C244.52 113.645 243.789 113.635 243.092 113.492C239.524 112.961 235.795 112.544 232.193 112.036C231.669 111.959 231.042 111.619 231.209 111.437C232.486 110.076 233.936 108.715 235.358 107.354C235.962 106.778 236.664 106.206 237.274 105.635C238.534 104.419 239.783 103.194 241.296 101.738Z" fill="white"/>
<path d="M275.172 105.78C275.775 105.51 276.488 105.436 277.158 105.576C280.864 106.365 282.912 107.155 286.543 107.844C287.211 107.976 287.804 108.139 288.454 108.298C290.756 108.792 290.854 108.933 289.029 109.659C285.755 110.97 283.355 112.775 280.081 114.086C278.999 114.517 277.02 114.114 275.414 113.814C272.151 113.206 268.733 112.671 265.436 112.077C264.958 111.991 264.388 111.709 264.549 111.591C265.752 110.716 266.592 110.648 267.933 109.777C268.509 109.414 270.045 108.507 270.615 108.139C272.082 107.292 273.603 106.504 275.172 105.78Z" fill="#C4C3C6"/>
<path d="M277.556 115.597C275.254 116.441 274.103 117.326 271.939 118.142C271.656 118.238 271.341 118.259 271.042 118.201L248.472 114.145C247.77 114.023 247.482 113.583 247.897 113.311L252.328 110.616C252.481 110.536 252.654 110.483 252.836 110.46C253.017 110.436 253.203 110.443 253.381 110.48C261.794 111.991 269.056 113.229 277.147 114.676C277.723 114.781 278.045 115.103 277.855 115.37C277.787 115.468 277.683 115.547 277.556 115.597Z" fill="#C4C3C6"/>
<path d="M271.623 106.538C268.469 108.144 265.828 109.509 263.094 110.847C262.529 111.066 261.905 111.172 261.276 111.156C258.761 110.811 256.338 110.398 253.599 109.958C254.612 109.282 255.504 108.683 256.407 108.089C257.478 107.391 258.629 106.687 259.567 105.993C260.413 105.367 261.109 105.036 262.766 105.313C265.534 105.78 268.411 106.102 271.623 106.538Z" fill="white"/>
<path d="M302.278 111.383C298.601 112.871 295.511 114.141 292.34 115.379C291.734 115.57 291.079 115.641 290.43 115.588C288.03 115.066 285.751 114.477 283.162 113.846L286.586 112.059C287.875 111.392 289.238 110.743 290.43 110.053C291.483 109.45 292.288 109.146 293.854 109.541C296.432 110.19 299.234 110.725 302.278 111.383Z" fill="white"/>
<path d="M256.741 97.9817C255.665 98.8165 254.773 99.5015 253.904 100.186C253.035 100.872 252.177 101.547 251.124 102.405C248.46 102.078 245.577 101.788 242.866 101.38C241.497 101.171 242.228 99.6421 243.77 98.6577C244.426 98.2494 244.622 97.7504 245.186 97.3239C245.679 97.0075 246.204 96.7238 246.757 96.4756L256.741 97.9817Z" fill="#C4C3C6"/>
<path d="M239.782 125.192C242.659 123.618 244.961 122.13 247.763 120.932C248.511 120.61 250.295 121.268 251.763 121.517C252.223 121.599 261.275 122.946 261.269 123.277C261.269 124.47 256.516 126.108 255.653 126.979C255.221 127.433 251.958 127.079 250.359 126.843C246.998 126.349 243.666 125.804 239.782 125.192Z" fill="#C4C3C6"/>
<path d="M330.612 120.864L327.159 121.635C324.541 122.225 321.882 122.778 319.316 123.418C318.05 123.736 317.1 123.758 316.047 123.232C315.047 122.793 314.02 122.395 312.968 122.039C316.668 121.041 320.041 120.115 323.459 119.235C324.043 119.111 324.659 119.111 325.243 119.235C326.889 119.666 328.437 120.188 330.612 120.864Z" fill="white"/>
<path d="M233.729 116.917C232.956 117.537 232.135 118.119 231.271 118.659C231.024 118.8 230.161 118.736 229.545 118.686C227.019 118.473 224.487 118.201 221.966 118.001C219.446 117.802 216.971 117.666 214.485 117.512C213.616 117.462 213.133 117.33 213.444 116.917C213.532 116.822 213.605 116.718 213.662 116.609C214.019 115.742 214.14 115.565 214.543 115.334C215.228 114.939 233.153 116.563 233.729 116.917Z" fill="white"/>
<path d="M89.157 158.404C88.5815 158.086 86.1704 157.261 85.7042 156.97C80.9739 154.094 79.9496 153.341 77.3083 150.297C77.1817 150.147 76.2379 147.852 75.674 146.84C74.805 146.84 73.9476 146.84 73.0671 146.84C69.1425 146.795 64.8783 146.795 60.8674 146.305L60.3955 146.568C60.5342 147.095 60.6341 147.628 60.6947 148.165C60.7811 148.918 60.9077 149.657 61.063 150.401C61.3393 151.218 61.6193 152.032 61.9032 152.842C62.6283 153.572 63.3188 154.33 63.9634 155.11C64.6827 156.018 65.402 156.925 66.1731 157.787C68.6418 159.42 71.3523 160.849 73.8613 162.469C74.3274 162.768 74.782 163.076 75.2366 163.376C75.3197 163.359 75.4007 163.336 75.4783 163.308C79.4029 161.82 83.6211 161.117 87.6953 159.57C88.2535 159.379 89.531 158.631 89.157 158.404Z" fill="white"/>
<path d="M35.7415 165.626C38.4519 164.973 41.1795 164.415 43.9763 163.947C45.8471 163.402 47.7949 163.038 49.7769 162.863L50.4502 162.65C50.5308 162.382 50.6056 162.11 50.7034 161.842C44.6783 158.15 41.5881 152.574 40.6329 147.185C40.6329 147.081 40.6329 146.981 40.5926 146.876C39.9833 146.407 39.407 145.912 38.8662 145.393H38.0203C32.9965 145.393 27.5124 145.425 22.6095 144.735C22.3678 144.867 22.1261 145.007 21.8729 145.139C21.7693 145.946 21.6312 146.754 21.4298 147.557C21.1478 148.691 20.9234 149.825 20.7392 150.937C20.6702 152.171 20.6126 153.395 20.5493 154.625C21.1233 155.748 21.6114 156.898 22.011 158.068C22.4714 159.429 22.926 160.79 23.4611 162.092C25.1875 163.907 27.1096 165.526 28.9683 167.232C30.9213 166.669 32.9092 166.184 34.9243 165.78L35.7415 165.626Z" fill="#C4C3C6"/>
<path d="M61.0435 125.069C63.0864 125.668 65.2156 126.194 67.4657 126.707C68.9425 127.208 70.4871 127.575 72.0693 127.8L72.5527 127.982C72.4491 128.15 72.3398 128.318 72.2535 128.485C65.2845 130.001 58.8491 132.755 53.4417 136.538L53.2058 136.719C52.3311 136.955 51.4794 137.214 50.6392 137.481L49.8854 137.413C45.2817 137.046 40.3212 136.592 35.3895 136.638C35.2514 136.538 35.1248 136.438 34.981 136.338C35.3986 135.859 35.7828 135.362 36.1319 134.85C36.6153 134.147 37.1504 133.453 37.7144 132.763C38.4567 132.015 39.2106 131.275 39.9587 130.531C41.1844 129.91 42.3814 129.266 43.538 128.572C44.8501 127.787 46.1506 127.007 47.503 126.258C50.2479 125.305 53.0792 124.471 55.8874 123.586C57.3542 124.088 58.8523 124.532 60.376 124.915L61.0435 125.069Z" fill="white"/>
<path d="M70.6884 133.049C69.2555 134.306 67.7535 135.526 66.3552 136.801C65.9063 137.436 65.4977 138.089 65.1237 138.752C64.6772 140.146 64.3218 141.557 64.0591 142.98C64.1224 142.98 64.272 145.828 64.3353 145.842C67.7881 146.641 72.9672 145.842 75.879 146.409C76.3912 146.509 76.1265 144.418 76.4545 143.914C77.3752 142.526 76.115 142.794 77.0299 141.419C77.4213 140.838 78.3765 139.564 78.7563 138.983C79.5677 137.753 81.8063 137.168 82.7845 135.708C78.5089 134.755 74.567 133.907 70.6884 133.049Z" fill="#C4C3C6"/>
<path d="M74.3261 163.312C69.8951 164.778 66.1143 166.27 62.0688 167.205C60.9812 167.454 59.6519 165.966 58.2996 165.168C57.8795 164.918 47.8838 158.984 48.1772 158.508C49.2418 156.762 59.1858 157.633 60.8719 156.607C61.7178 156.095 62.9493 156.966 64.4512 157.782C67.6105 159.497 70.7007 161.275 74.3261 163.312Z" fill="#C4C3C6"/>
<path d="M62.6897 156.036C62.0151 155.139 61.4616 154.188 61.0381 153.2C59.9393 151.077 59.3726 148.807 59.3693 146.514C59.3175 146.45 59.2657 146.387 59.2081 146.323C58.8474 146.068 58.3744 145.934 57.8903 145.951C53.7125 145.996 49.5059 146.096 45.3165 146.155C44.1656 146.155 43.0147 146.155 41.8638 146.155C42.0018 147.118 42.0018 148.091 41.8638 149.054C42.0364 149.412 42.1918 149.775 42.3356 150.143C43.1628 151.446 43.8128 152.815 44.2749 154.226C44.7024 154.8 45.0867 155.394 45.4259 156.004C51.1805 156.036 56.9351 156.045 62.6897 156.058V156.036Z" fill="white"/>
<path d="M70.0208 132.904C63.1843 138.216 64.3353 139.954 64.3353 139.954C64.3353 139.954 56.2788 138.47 52.9814 137.844C57.2974 134.26 63.4318 131.434 63.7598 131.493C66.0329 132.051 67.3449 132.192 70.0208 132.904Z" fill="#C4C3C6"/>
<path d="M62.8176 145.139C52.5859 144.844 42.7225 144.554 32.8477 144.291C31.386 144.254 30.6782 144.005 30.9314 143.102C31.432 141.287 31.8003 139.5 32.1974 137.699C32.347 137.041 33.0491 136.896 33.9986 136.978C35.9782 137.15 37.952 137.332 39.9258 137.509C45.105 137.962 50.3244 138.416 55.4978 138.906C57.7248 139.114 59.9058 139.405 62.0465 139.731C62.5644 139.813 63.1974 140.185 63.1974 140.444C63.1629 141.904 62.973 143.383 62.8176 145.139Z" fill="#C4C3C6"/>
<path d="M32.3634 169.056C33.8596 168.665 35.3558 168.289 36.8462 167.885C41.1737 166.715 45.5414 165.617 49.7941 164.31C51.6988 163.725 53.1317 163.82 54.6624 164.691C55.8134 165.358 57.1197 165.907 58.6907 166.687C56.291 167.477 54.2481 168.166 52.211 168.838C48.3094 170.149 44.448 171.532 40.4889 172.739C39.4926 172.959 38.4273 172.868 37.5137 172.485C35.6147 171.641 33.9114 170.566 32.1274 169.582L32.3634 169.056Z" fill="#C4C3C6"/>
<path d="M287.401 135.721C287.907 136.039 290.278 136.937 290.698 137.232C294.974 140.131 295.877 140.897 297.891 143.805C297.989 143.95 298.409 146.101 298.754 147.053L301.499 147.221C305.62 147.498 310.131 147.747 314.223 148.432L314.798 148.219C314.785 147.727 314.812 147.234 314.879 146.745C314.977 146.055 315.028 145.384 315.046 144.69C314.959 143.928 314.861 143.17 314.769 142.422C314.177 141.713 313.641 140.977 313.164 140.217C312.629 139.35 312.099 138.488 311.501 137.649C309.303 136.011 306.817 134.551 304.561 132.927C304.141 132.627 303.744 132.319 303.335 132.019C303.243 132.028 303.153 132.044 303.065 132.065C298.559 133.19 293.943 133.58 289.253 134.746C288.551 134.9 287.044 135.503 287.401 135.721Z" fill="#C4C3C6"/>
<path d="M300.552 159.933C302.376 158.876 304.258 157.85 306.047 156.757C306.675 156.204 307.273 155.636 307.831 155.051C308.639 153.82 309.363 152.555 310.001 151.263C309.943 151.263 310.484 148.655 310.421 148.637C306.968 147.707 301.3 148.119 298.394 147.439C297.882 147.316 297.646 149.254 297.168 149.675C295.862 150.887 297.254 150.719 295.942 151.917C295.367 152.425 294.061 153.527 293.514 154.035C292.363 155.11 289.848 155.505 288.433 156.757C292.76 157.918 296.673 158.935 300.552 159.933Z" fill="white"/>
<path d="M304.229 132.142C309.264 131.067 313.614 129.933 318.109 129.32C319.317 129.152 320.347 130.59 321.561 131.402C321.947 131.652 331.005 137.649 330.579 138.067C329.025 139.595 318.759 138.216 316.728 139.046C315.715 139.464 314.627 138.593 313.275 137.767C310.357 136.016 307.543 134.211 304.229 132.142Z" fill="#C4C3C6"/>
<path d="M314.683 139.464C315.169 140.318 315.515 141.217 315.713 142.14C316.346 144.173 316.382 146.292 315.817 148.337L315.938 148.523C316.287 148.786 316.75 148.934 317.233 148.936C321.652 149.145 326.106 149.303 330.532 149.499C331.752 149.548 332.966 149.617 334.168 149.689C334.271 148.789 334.519 147.904 334.905 147.053C334.813 146.713 334.738 146.373 334.675 146.033C334.129 144.789 333.785 143.497 333.651 142.186C333.337 141.636 333.069 141.071 332.851 140.494C326.808 140.122 320.766 139.777 314.672 139.423C314.678 139.441 314.678 139.45 314.683 139.464Z" fill="#C4C3C6"/>
<path d="M301.212 160.105C309.734 155.673 308.952 154.017 308.952 154.017C308.952 154.017 317.089 155.832 320.398 156.612C314.96 159.624 307.789 161.833 307.461 161.743C305.24 161.126 303.859 160.913 301.212 160.105Z" fill="white"/>
<path d="M311.847 149.381C322.556 150.256 332.874 151.104 343.215 151.93C344.746 152.053 345.431 152.316 344.942 153.128C343.963 154.743 343.129 156.358 342.26 157.973C341.944 158.567 341.167 158.658 340.188 158.526C338.14 158.254 336.108 157.968 334.071 157.691C328.714 156.961 323.339 156.253 318.01 155.496C315.708 155.174 313.487 154.784 311.318 154.357C310.788 154.253 310.242 153.903 310.311 153.64C310.679 152.311 311.249 150.977 311.847 149.381Z" fill="#C4C3C6"/>
<path d="M299.77 148.867C299.985 132.685 249.587 119.15 187.203 118.635C124.819 118.12 74.0729 130.82 73.858 147.002C73.643 163.183 124.041 176.718 186.425 177.233C248.809 177.748 299.555 165.048 299.77 148.867Z" fill="black"/>
<mask id="mask0" mask-type="alpha" maskUnits="userSpaceOnUse" x="20" y="104" width="334" height="88">
<path fill-rule="evenodd" clip-rule="evenodd" d="M187.389 104.738C279.362 105.498 353.664 125.453 353.347 149.309C353.03 173.166 278.214 191.889 186.241 191.13C94.2679 190.371 19.9658 170.416 20.2827 146.559C20.5997 122.703 95.4156 103.979 187.389 104.738ZM187.204 118.635C249.588 119.15 299.986 132.685 299.771 148.867C299.556 165.048 248.81 177.748 186.426 177.233C124.042 176.718 73.6437 163.183 73.8587 147.002C74.0736 130.82 124.82 118.12 187.204 118.635Z" fill="black"/>
</mask>
<g mask="url(#mask0)">
<path d="M98.7477 123.382C99.7663 123.123 100.791 122.856 101.798 122.579L101.942 122.547L112.547 121.082C112.707 121.058 112.871 121.062 113.028 121.094C113.186 121.127 113.332 121.186 113.456 121.268C115.568 122.856 118.601 124.026 120.799 125.677C121.104 125.909 121.294 126.489 120.799 126.548C120.057 126.639 119.303 127.002 118.647 127.097C112.386 127.905 110.286 128.631 104.019 129.434C103.691 129.479 100.043 130.341 99.7202 130.314C97.3028 129.999 94.9689 129.369 92.8147 128.449C91.7098 127.995 88.0327 127.36 85.6963 126.634C85.0921 126.449 85.1496 126.004 85.7826 125.913C89.4023 125.41 97.0731 123.718 98.6787 123.386L98.7477 123.382Z" fill="white"/>
<path d="M191.823 107.731C186.644 107.921 181.983 108.085 177.339 108.262C176.568 108.289 175.814 108.379 175.037 108.425C172.298 108.593 172.027 108.774 172.649 110.239C173.8 112.875 174.951 115.506 176.102 118.138C176.476 119.009 177.281 119.394 179.128 119.344C182.875 119.24 186.661 119.276 190.419 119.199C190.966 119.199 191.858 118.918 191.875 118.718C192.007 117.185 191.973 115.642 191.961 114.1C191.961 113.447 191.852 112.789 191.84 112.136C191.812 110.77 191.823 109.378 191.823 107.731Z" fill="white"/>
<path d="M144.313 117.035L148.715 120.714L175.186 119.258L173.259 115.021L144.629 116.609C144.52 116.749 144.417 116.89 144.313 117.035Z" fill="white"/>
<path d="M230.395 119.612L225.077 123.305C213.516 122.193 205.581 122.361 194.785 121.975C193.847 121.939 193.105 121.522 193.157 121.032C193.283 119.925 192.817 118.691 193.496 117.466C205.385 117.988 218.465 117.82 230.044 119.19L230.395 119.612Z" fill="white"/>
<path d="M82.6466 134.886V134.959C83.222 135.063 83.832 135.181 84.4132 135.313C86.8912 134.409 89.4266 133.606 92.0093 132.908C92.1647 132.868 92.2337 132.745 92.4467 132.586C90.1909 132.069 87.9868 131.579 85.8058 131.071C82.7156 130.345 79.6139 129.624 76.5582 128.853C75.934 128.654 75.2629 128.562 74.59 128.584C73.9171 128.606 73.2579 128.741 72.6566 128.98C71.1086 129.597 69.3189 130.06 67.6674 130.613C67.0961 130.825 66.5391 131.059 65.9985 131.316V131.697L82.6466 134.886Z" fill="white"/>
<path d="M150.971 123.727C148.479 121.59 146.172 119.535 143.668 117.534C143.3 117.244 141.942 117.049 141.194 117.103C137.074 117.407 132.994 117.806 128.695 118.188C130.997 119.548 133.051 120.801 135.123 122.034C135.703 122.302 136.244 122.62 136.734 122.983C138.242 124.539 140.526 124.684 143.277 124.38C145.705 124.108 148.203 123.953 150.971 123.727Z" fill="white"/>
<path d="M75.9599 128.336C77.2892 128.635 78.6185 128.925 79.9364 129.243C83.7632 130.15 87.636 130.971 91.3995 131.938C92.0914 132.157 92.8314 132.266 93.577 132.259C94.3227 132.252 95.0592 132.129 95.7442 131.897C96.8031 131.538 97.9655 131.253 99.4157 130.84L93.6611 129.257C90.2083 128.299 86.8016 127.301 83.3028 126.408C82.4277 126.235 81.5101 126.249 80.6442 126.449C78.9178 126.902 77.3813 127.478 75.77 128.009L75.9599 128.336Z" fill="white"/>
<path d="M138.322 124.77C135.474 123.051 133.143 121.449 130.375 120.106C129.627 119.748 127.855 120.315 126.387 120.492C125.933 120.551 116.921 121.445 116.927 121.776C116.927 122.969 121.657 124.847 122.52 125.759C122.946 126.213 126.197 126.045 127.786 125.89C131.135 125.559 134.455 125.183 138.322 124.77Z" fill="white"/>
<path d="M279.528 125.795C278.504 125.487 277.479 125.174 276.467 124.843L276.323 124.806L265.671 122.801C265.515 122.77 265.352 122.766 265.193 122.79C265.035 122.815 264.886 122.866 264.756 122.942C262.633 124.425 259.577 125.441 257.384 126.984C257.074 127.197 256.878 127.769 257.384 127.855C258.127 127.986 258.881 128.395 259.542 128.513C265.832 129.638 267.944 130.463 274.234 131.584C274.562 131.643 278.233 132.704 278.556 132.682C280.951 132.491 283.287 131.977 285.461 131.162C286.572 130.763 290.266 130.314 292.614 129.715C293.218 129.556 293.161 129.107 292.522 128.989C288.891 128.299 281.185 126.222 279.574 125.813L279.528 125.795Z" fill="white"/>
<path d="M227.076 123.513C229.573 121.504 231.898 119.562 234.413 117.688C234.775 117.416 236.139 117.289 236.893 117.38C241.036 117.893 245.134 118.496 249.45 119.099C247.148 120.356 245.076 121.49 242.993 122.62C242.408 122.851 241.861 123.137 241.364 123.473C239.851 124.956 237.555 124.983 234.793 124.539C232.364 124.158 229.855 123.881 227.076 123.513Z" fill="white"/>
<path d="M302.419 131.901C301.09 132.133 299.755 132.355 298.431 132.596C294.582 133.29 290.692 133.957 286.922 134.714C285.479 135.084 283.91 134.989 282.555 134.451C281.496 134.038 280.327 133.693 278.872 133.208L284.626 131.92C288.079 131.135 291.532 130.309 295.031 129.592C295.926 129.462 296.849 129.52 297.706 129.76C299.433 130.291 300.981 130.958 302.604 131.575L302.419 131.901Z" fill="white"/>
<path d="M239.78 125.192C242.658 123.618 244.959 122.13 247.762 120.932C248.51 120.61 250.294 121.268 251.761 121.517C252.222 121.599 261.274 122.946 261.268 123.277C261.268 124.471 256.515 126.108 255.651 126.979C255.22 127.433 251.957 127.079 250.357 126.843C246.997 126.349 243.665 125.804 239.78 125.192Z" fill="white"/>
<path d="M70.6879 133.049C69.255 134.306 67.753 135.526 66.3547 136.801C65.9058 137.436 65.4972 138.089 65.1232 138.752C64.6767 140.146 64.3213 141.557 64.0586 142.98C64.1219 142.98 64.2715 145.829 64.3348 145.842C67.7876 146.641 72.9667 145.842 75.8785 146.409C76.3907 146.509 76.126 144.418 76.454 143.914C77.3747 142.526 76.1145 142.794 77.0295 141.419C77.4208 140.838 78.376 139.564 78.7558 138.983C79.5672 137.754 81.8058 137.168 82.7841 135.708C78.5084 134.755 74.5665 133.907 70.6879 133.049Z" fill="white"/>
<path d="M287.4 135.721C287.906 136.039 290.277 136.937 290.697 137.232C294.973 140.131 295.877 140.897 297.891 143.805C297.988 143.95 298.409 146.101 298.754 147.053L301.499 147.221C305.619 147.498 310.131 147.748 314.222 148.433L314.798 148.219C314.784 147.727 314.811 147.235 314.878 146.745C314.976 146.055 315.028 145.384 315.045 144.69C314.959 143.928 314.861 143.17 314.769 142.422C314.177 141.713 313.641 140.977 313.163 140.217C312.628 139.35 312.099 138.488 311.5 137.649C309.302 136.012 306.816 134.551 304.56 132.927C304.14 132.627 303.743 132.319 303.334 132.019C303.243 132.028 303.152 132.044 303.064 132.065C298.558 133.19 293.943 133.58 289.253 134.746C288.551 134.9 287.043 135.503 287.4 135.721Z" fill="white"/>
</g>
<path d="M148.131 121.644C148.067 120.99 148.562 120.416 149.218 120.382L173.563 119.144C174.221 119.111 174.773 119.635 174.773 120.294V123.235C174.773 123.836 174.31 124.336 173.711 124.382L149.714 126.253C149.089 126.302 148.54 125.842 148.48 125.218L148.131 121.644Z" fill="#C4C4C4"/>
<path d="M228.703 121.24C228.79 120.569 228.282 119.968 227.606 119.942L194.382 118.675C193.73 118.65 193.187 119.172 193.187 119.825V122.76C193.187 123.37 193.662 123.874 194.271 123.909L227.028 125.825C227.631 125.86 228.159 125.423 228.237 124.824L228.703 121.24Z" fill="white"/>
<path d="M176.21 119.31C176.21 118.681 176.716 118.168 177.345 118.159L190.868 117.965C191.51 117.956 192.036 118.474 192.036 119.116V125.644C192.036 126.279 191.52 126.795 190.885 126.795H177.361C176.726 126.795 176.21 126.279 176.21 125.644V119.31Z" fill="white"/>
<path d="M175.923 129.512C175.923 128.882 176.429 128.37 177.058 128.361L190.87 128.172C191.511 128.163 192.036 128.681 192.036 129.322V135.624C192.036 136.26 191.521 136.775 190.885 136.775H177.074C176.439 136.775 175.923 136.26 175.923 135.624V129.512Z" fill="#C4C4C4"/>
<path d="M159.811 127.869C159.811 127.261 160.282 126.759 160.888 126.72L172.685 125.966C173.348 125.923 173.909 126.45 173.909 127.114V133.41C173.909 134.024 173.427 134.53 172.814 134.56L161.017 135.129C160.36 135.161 159.811 134.637 159.811 133.979V127.869Z" fill="#C4C4C4"/>
<path d="M271.45 139.882C271.45 139.379 271.124 138.935 270.644 138.784L261.437 135.885C260.695 135.652 259.941 136.206 259.941 136.983V143.174C259.941 143.684 260.276 144.133 260.765 144.277L269.973 146.999C270.71 147.217 271.45 146.665 271.45 145.896V139.882Z" fill="#C4C4C4"/>
<path d="M148.877 128.534C148.877 127.933 149.339 127.433 149.938 127.386L156.268 126.892C156.937 126.839 157.509 127.368 157.509 128.039V133.924C157.509 134.513 157.064 135.007 156.478 135.069L150.148 135.734C149.469 135.806 148.877 135.273 148.877 134.59V128.534Z" fill="#C4C4C4"/>
<path d="M134.49 131.416C134.49 130.825 134.938 130.33 135.526 130.271L137.252 130.097C137.93 130.029 138.518 130.561 138.518 131.243V133.864C138.518 134.44 138.093 134.927 137.522 135.004L135.795 135.238C135.105 135.331 134.49 134.794 134.49 134.097V131.416Z" fill="#C4C4C4"/>
<path d="M148.877 138.094C148.877 137.478 149.362 136.971 149.978 136.945L173.572 135.92C174.226 135.892 174.773 136.415 174.773 137.07V142.062C174.773 142.674 174.293 143.18 173.681 143.211L150.087 144.425C149.429 144.459 148.877 143.934 148.877 143.276V138.094Z" fill="#C4C4C4"/>
<path d="M235.196 133.254C235.196 132.653 234.734 132.154 234.135 132.107L231.257 131.882C230.588 131.83 230.017 132.358 230.017 133.029V135.648C230.017 136.237 230.461 136.731 231.047 136.793L233.925 137.095C234.604 137.167 235.196 136.634 235.196 135.951V133.254Z" fill="#C4C4C4"/>
<path d="M259.365 126.761C259.365 125.988 260.112 125.435 260.851 125.66L280.129 131.536C280.614 131.684 280.944 132.131 280.944 132.637V139.061C280.944 139.839 280.189 140.393 279.447 140.159L260.17 134.08C259.69 133.929 259.365 133.485 259.365 132.982V126.761Z" fill="#C4C4C4"/>
<path d="M230.017 121.967C230.017 121.271 230.629 120.734 231.319 120.826L241.102 122.125C241.674 122.201 242.101 122.689 242.101 123.266V129.817C242.101 130.503 241.504 131.037 240.822 130.96L231.039 129.859C230.457 129.793 230.017 129.301 230.017 128.715V121.967Z" fill="white"/>
<path d="M206.999 127.128C206.999 126.459 207.568 125.93 208.236 125.981L226.651 127.369C227.251 127.414 227.715 127.914 227.715 128.516V141.456C227.715 142.117 227.16 142.642 226.501 142.606L208.086 141.591C207.476 141.558 206.999 141.053 206.999 140.442V127.128Z" fill="#C4C4C4"/>
<path d="M193.187 126.206C193.187 125.542 193.748 125.016 194.411 125.058L204.194 125.678C204.8 125.717 205.272 126.219 205.272 126.827V128.756C205.272 129.416 204.718 129.941 204.059 129.905L194.276 129.379C193.665 129.346 193.187 128.841 193.187 128.23V126.206Z" fill="#C4C4C4"/>
<path d="M194.337 132.119C194.337 131.449 194.908 130.921 195.576 130.972L204.208 131.629C204.808 131.675 205.271 132.175 205.271 132.777V146.015C205.271 146.667 204.73 147.189 204.078 147.165L195.446 146.846C194.827 146.823 194.337 146.315 194.337 145.696V132.119Z" fill="#C4C4C4"/>
<path d="M191.371 138.363C192.006 138.363 192.521 138.878 192.521 139.514L192.521 146.1C192.521 146.748 191.986 147.269 191.338 147.251L182.872 147.013C182.258 146.996 181.765 146.499 181.754 145.884L181.636 139.535C181.624 138.891 182.143 138.363 182.787 138.363L191.371 138.363Z" fill="#C4C4C4"/>
<path d="M146.575 120.397C146.575 119.701 145.962 119.164 145.272 119.256L135.489 120.555C134.917 120.631 134.49 121.119 134.49 121.696V128.246C134.49 128.933 135.087 129.467 135.77 129.39L145.553 128.288C146.135 128.223 146.575 127.73 146.575 127.145V120.397Z" fill="white"/>
<path d="M133.339 122.023C133.339 121.67 133.024 121.4 132.674 121.455L120.014 123.435C119.734 123.479 119.528 123.72 119.528 124.003V134.757C119.528 135.105 119.834 135.374 120.179 135.328L132.839 133.649C133.125 133.611 133.339 133.367 133.339 133.079V122.023Z" fill="#C4C4C4"/>
<path d="M118.09 124.58C118.09 124.207 117.74 123.932 117.377 124.021L96.9482 129.041C96.691 129.105 96.5101 129.335 96.5101 129.6V132.643C96.5101 133.015 96.8581 133.289 97.22 133.202L117.649 128.292C117.908 128.23 118.09 127.999 118.09 127.733V124.58Z" fill="white"/>
<path d="M281.808 133.858C281.808 133.066 282.589 132.511 283.337 132.771L285.639 133.572C286.102 133.733 286.412 134.169 286.412 134.659V141.133C286.412 141.902 285.672 142.454 284.935 142.237L282.633 141.557C282.144 141.413 281.808 140.964 281.808 140.454V133.858Z" fill="white"/>
<path d="M95.9346 130.624C95.9346 129.849 95.1839 129.295 94.4434 129.524L91.5661 130.415C91.0841 130.564 90.7554 131.01 90.7554 131.514V138.005C90.7554 138.759 91.4688 139.31 92.1984 139.118L95.0757 138.364C95.5817 138.231 95.9346 137.774 95.9346 137.25V130.624Z" fill="white"/>
<path d="M89.8916 132.012L84.5254 134.442C84.1137 134.629 83.8493 135.039 83.8493 135.491V141.675C83.8493 142.541 84.7692 143.096 85.5356 142.694L89.2761 140.728C89.6546 140.529 89.8916 140.137 89.8916 139.709V132.012Z" fill="white"/>
<path d="M106.292 132.692L97.9502 134.831C97.4411 134.962 97.0851 135.421 97.0851 135.946V141.129C97.0851 141.899 97.8264 142.452 98.5643 142.232L105.47 140.178C105.958 140.032 106.292 139.584 106.292 139.075V132.692Z" fill="#C4C4C4"/>
<path d="M287.562 136.576C287.562 135.673 288.553 135.122 289.32 135.598L299.416 141.863C299.568 141.958 299.695 142.086 299.789 142.238L301.45 144.938C302.084 145.969 300.941 150.487 300.199 151.443C299.576 152.247 299.002 153.109 298.555 153.821C298.107 154.534 297.062 154.6 296.555 153.926C294.546 151.252 290.241 145.66 288.152 143.98C287.81 143.704 287.562 143.303 287.562 142.863V136.576Z" fill="#C4C4C4"/>
<path d="M82.7037 136.095C82.7037 135.33 80.5678 135.395 80.1142 135.868L75.568 141.889C75.5158 141.943 75.4699 142.007 75.4317 142.078C75.387 142.162 75.3465 142.248 75.2932 142.327L73.5732 144.853C73.5198 144.932 73.4749 145.013 73.4632 145.108C73.3298 146.182 74.3338 150.81 75.1197 152.367C75.315 152.754 75.6887 152.637 75.9037 152.261C77.349 149.731 80.801 144.955 82.3699 143.862C82.5819 143.714 82.7037 143.417 82.7037 143.099V136.095Z" fill="#C4C4C4"/>
<path d="M243.827 123.667C243.827 122.939 244.494 122.394 245.207 122.539L257.292 124.997C257.828 125.106 258.214 125.578 258.214 126.125V139.945C258.214 140.659 257.571 141.201 256.867 141.079L244.782 138.995C244.23 138.9 243.827 138.421 243.827 137.861V123.667Z" fill="#C4C4C4"/>
<path d="M118.377 131.016C118.377 130.259 117.659 129.709 116.928 129.904L108.297 132.215C107.793 132.349 107.443 132.805 107.443 133.326V139.934C107.443 140.569 107.959 141.085 108.594 141.085H117.226C117.862 141.085 118.377 140.569 118.377 139.934V131.016Z" fill="#C4C4C4"/>
<path d="M147.151 130.782C147.151 130.103 146.567 129.572 145.892 129.636L141 130.099C140.409 130.154 139.958 130.651 139.958 131.244V145.135C139.958 145.785 140.496 146.307 141.146 146.285L146.038 146.125C146.658 146.105 147.151 145.596 147.151 144.975V130.782Z" fill="#C4C4C4"/>
<path d="M187.64 118.905C219.167 119.166 247.646 122.678 268.199 128.135C278.48 130.865 286.746 134.073 292.414 137.584C298.117 141.116 301.023 144.845 300.973 148.568C300.924 152.291 297.919 155.972 292.124 159.409C286.364 162.825 278.015 165.896 267.663 168.455C246.969 173.572 218.404 176.613 186.877 176.353C155.35 176.093 126.872 172.581 106.318 167.123C96.0372 164.394 87.7716 161.185 82.1031 157.675C76.4004 154.143 73.4943 150.414 73.5438 146.69C73.5932 142.967 76.5977 139.287 82.3931 135.85C88.1536 132.433 96.5026 129.362 106.854 126.803C127.548 121.686 156.114 118.645 187.64 118.905Z" stroke="black" stroke-width="1.15092"/>
</g>
<defs>
<clipPath id="clip0">
<rect width="372.898" height="228.4" fill="white" transform="translate(0.408203)"/>
</clipPath>
</defs>
</svg>
