<svg width="24" height="24" viewBox="0 0 24 24" fill="none" xmlns="http://www.w3.org/2000/svg">
<g clip-path="url(#clip0)">
<path d="M12 0C9.62663 0 7.30655 0.703788 5.33316 2.02236C3.35977 3.34094 1.8217 5.21509 0.913451 7.4078C0.00519943 9.60051 -0.232441 12.0133 0.230582 14.3411C0.693605 16.6689 1.83649 18.8071 3.51472 20.4853C5.19295 22.1635 7.33115 23.3064 9.65892 23.7694C11.9867 24.2324 14.3995 23.9948 16.5922 23.0866C18.7849 22.1783 20.6591 20.6402 21.9776 18.6668C23.2962 16.6935 24 14.3734 24 12C23.9966 8.81846 22.7312 5.76821 20.4815 3.51852C18.2318 1.26883 15.1815 0.00344108 12 0V0ZM12 3C13.8674 3.00008 15.6878 3.58476 17.206 4.672L4.67201 17.206C3.7124 15.8614 3.14201 14.2783 3.02351 12.6306C2.905 10.983 3.24296 9.33455 4.00026 7.86646C4.75756 6.39836 5.90489 5.16743 7.31618 4.3089C8.72747 3.45038 10.3481 2.99749 12 3ZM12 21C10.1327 20.9999 8.31219 20.4152 6.79401 19.328L19.328 6.794C20.2876 8.13861 20.858 9.72171 20.9765 11.3694C21.095 13.017 20.757 14.6654 19.9997 16.1335C19.2424 17.6016 18.0951 18.8326 16.6838 19.6911C15.2725 20.5496 13.6519 21.0025 12 21Z" fill="white"/>
</g>
<defs>
<clipPath id="clip0">
<rect width="24" height="24" fill="white"/>
</clipPath>
</defs>
</svg>
