<svg xmlns="http://www.w3.org/2000/svg" viewBox="0 0 18 16">
  <defs/>
  <path d="M15.4285 2.1442h-2.8572L11.1428.00134277H6.85704L5.42847 2.1442H2.57132c-.56832 0-1.11336.22576-1.51522.62763-.401869.40186-.627633.94691-.627633 1.51523v8.57144c0 .5683.225764 1.1133.627633 1.5152.40186.4019.9469.6276 1.51522.6276H15.4285c.5683 0 1.1133-.2257 1.5152-.6276.4019-.4019.6276-.9469.6276-1.5152V4.28706c0-.56832-.2257-1.11337-.6276-1.51523-.4019-.40187-.9469-.62763-1.5152-.62763zm-6.4286 10c-.70637 0-1.39687-.2095-1.98418-.6019-.58732-.3924-1.04508-.9502-1.31539-1.6028-.27032-.6526-.34104-1.37069-.20324-2.06348.1378-.69279.47795-1.32916.97742-1.82863.49948-.49947 1.13584-.83962 1.82863-.97742.69279-.13781 1.41089-.06708 2.06346.20323.6526.27031 1.2104.72807 1.6028 1.31539.3925.58732.6019 1.27782.6019 1.98418 0 .9472-.3763 1.85563-1.046 2.52543-.6698.6697-1.5782 1.046-2.5254 1.046z"/>
</svg>