<svg width="24" height="24" fill="none" xmlns="http://www.w3.org/2000/svg"><path d="M1 21h14v-2.558a2 2 0 00-1.367-1.898L10.1 15.367a.717.717 0 01-.28-1.187c.118-.118.261-.207.42-.26l1.85-.617a1 1 0 00.646-1.224l-.913-3.194a3.977 3.977 0 00-7.648 0l-.913 3.194a1 1 0 00.645 1.224l1.851.617c.159.053.302.142.42.26a.717.717 0 01-.28 1.187l-3.531 1.177A2 2 0 001 18.442V21z" fill="currentColor"/><path fill-rule="evenodd" clip-rule="evenodd" d="M12.206 5.73a5.964 5.964 0 011.541 2.605l.913 3.195a3 3 0 01-.8 2.982l.405.135A4 4 0 0117 18.442V20h7v-3.491a2 2 0 00-1.45-1.923l-3.582-1.024a1.204 1.204 0 01-.52-2.01c.365-.365.672-.792.903-1.255A6.143 6.143 0 0020 7.557V7a4 4 0 00-7.794-1.27zM15 20H8v-3.491a2 2 0 011.45-1.923l.176-.05a.718.718 0 00.475.83l.7.234.304.102.057.019 2.47.823A2 2 0 0115 18.442V20z" fill="currentColor"/></svg>
