<svg xmlns="http://www.w3.org/2000/svg" xmlns:xlink="http://www.w3.org/1999/xlink" viewBox="0 0 176 176">
  <defs>
    <path id="reuse-4" fill="url(#E)" d="M8 184h84l39-39v-29H61L8 24z"/>
    <path id="reuse-3" fill="url(#D)" d="M22 8v108h39l35-60h88V8z"/>
    <path id="reuse-2" fill="#db4437" d="M22 8v108h39l35-60h88V8z"/>
    <path id="reuse-1" fill="url(#H)" d="M96 56l35 60-39 68h92V56z"/>
    <path id="reuse-0" fill="#ffcd40" d="M96 56l35 60-39 68h92V56z"/>
    <path id="B" d="M8 184h84l39-39v-29H61L8 24z"/>
  </defs>
  <style>
    .B{clip-path:url(#C)}.C{fill:#3e2723}.D{fill-opacity:.15}.E{fill-opacity:.2}
  </style>
  <defs>
    <circle id="A" cx="96" cy="96" r="88"/>
    <use xlink:href="#B"/>
  </defs>
  <clipPath id="C">
    <use xlink:href="#A"/>
  </clipPath>
  <g class="B" transform="translate(-7 -7)">
    <use xlink:href="#reuse-2"/>
    <linearGradient id="D" x1="29.3" x2="81.8" y1="75" y2="44.4" gradientUnits="userSpaceOnUse">
      <stop offset="0" stop-color="#a52714" stop-opacity=".6"/>
      <stop offset=".7" stop-color="#a52714" stop-opacity="0"/>
    </linearGradient>
    <use xlink:href="#reuse-3"/>
    <path d="M62 116L22 47v1l39 68z" class="C D"/>
    <use fill="#0f9d58" xlink:href="#B"/>
    <linearGradient id="E" x1="110.9" x2="52.5" y1="164.5" y2="130.3" gradientUnits="userSpaceOnUse">
      <stop offset="0" stop-color="#055524" stop-opacity=".4"/>
      <stop offset=".3" stop-color="#055524" stop-opacity="0"/>
    </linearGradient>
    <use xlink:href="#reuse-4"/>
    <path fill="#263238" d="M130 117h-1l-38 67h1l38-67z" class="D"/>
    <defs>
      <use id="F" xlink:href="#B"/>
    </defs>
    <clipPath id="G">
      <use xlink:href="#F"/>
    </clipPath>
    <g clip-path="url(#G)">
      <use xlink:href="#reuse-0"/>
      <linearGradient id="H" x1="121.9" x2="136.6" y1="49.8" y2="114.1" gradientUnits="userSpaceOnUse">
        <stop offset="0" stop-color="#ea6100" stop-opacity=".3"/>
        <stop offset=".7" stop-color="#ea6100" stop-opacity="0"/>
      </linearGradient>
      <use xlink:href="#reuse-1"/>
    </g>
    <use xlink:href="#reuse-0"/>
    <use xlink:href="#reuse-1"/>
    <defs>
      <path id="I" d="M96 56l35 60-39 68h92V56z"/>
    </defs>
    <clipPath id="J">
      <use xlink:href="#I"/>
    </clipPath>
    <g clip-path="url(#J)">
      <use xlink:href="#reuse-2"/>
      <use xlink:href="#reuse-3"/>
    </g>
  </g>
  <radialGradient id="K" cx="668.2" cy="56" r="84.1" gradientTransform="translate(-576)" gradientUnits="userSpaceOnUse">
    <stop offset="0" stop-color="#3e2723" stop-opacity=".2"/>
    <stop offset="1" stop-color="#3e2723" stop-opacity="0"/>
  </radialGradient>
  <path fill="url(#K)" d="M96 56v21l78-21z" class="B" transform="translate(-7 -7)"/>
  <g class="B" transform="translate(-7 -7)">
    <defs>
      <path id="L" d="M22 8v40l39 68 35-60h88V8z"/>
    </defs>
    <clipPath id="M">
      <use xlink:href="#L"/>
    </clipPath>
    <g clip-path="url(#M)">
      <use fill="#0f9d58" xlink:href="#B"/>
      <use xlink:href="#reuse-4"/>
    </g>
  </g>
  <radialGradient id="N" cx="597.9" cy="48.5" r="78" gradientTransform="translate(-576)" gradientUnits="userSpaceOnUse">
    <stop offset="0" stop-color="#3e2723" stop-opacity=".2"/>
    <stop offset="1" stop-color="#3e2723" stop-opacity="0"/>
  </radialGradient>
  <path fill="url(#N)" d="M22 48l57 58-18 10z" class="B" transform="translate(-7 -7)"/>
  <radialGradient id="O" cx="671.8" cy="96.1" r="87.9" gradientTransform="translate(-576)" gradientUnits="userSpaceOnUse">
    <stop offset="0" stop-color="#263238" stop-opacity=".2"/>
    <stop offset="1" stop-color="#263238" stop-opacity="0"/>
  </radialGradient>
  <g>
    <path fill="url(#O)" d="M92 184l21-78 18 10z" class="B" transform="translate(-7 -7)"/>
    <g class="B" transform="translate(-7 -7)">
      <circle cx="96" cy="96" r="40" fill="#f1f1f1"/>
      <circle cx="96" cy="96" r="32" fill="#4285f4"/>
      <path d="M96 55c-22 0-40 18-40 40v1c0-22 18-40 40-40h88v-1H96z" class="C E"/>
      <path fill="#fff" fill-opacity=".1" d="M131 116a40 40 0 01-70 0L8 24v1l53 92a40 40 0 0070 0v-1z"/>
      <path d="M97 56a40 40 0 010 80 40 40 0 100-80z" class="C" opacity=".1"/>
      <path fill="#fff" d="M131 117c3-6 5-12 5-20a40 40 0 00-1-12 40 40 0 01-4 31l-39 68h1l38-67z" class="E"/>
      <path fill="#fff" d="M96 9c48 0 88 39 88 88v-1A88 88 0 008 96v1C8 48 48 9 96 9z" class="E"/>
      <path d="M96 183c48 0 88-39 88-87A88 88 0 018 96c0 48 40 87 88 87z" class="C D"/>
    </g>
  </g>
</svg>
