<svg xmlns="http://www.w3.org/2000/svg" fill="none" viewBox="0 0 48 48">
  <defs/>
  <path fill="currentColor" d="M7 29l18-9.5 4 5.5a4 4 0 00-4 4v4H7v-4z"/>
  <path stroke="currentColor" stroke-width="2" d="M25 36H5a1 1 0 01-1-1V9c0-.6.4-1 1-1h30c.6 0 1 .4 1 1v16"/>
  <path stroke="currentColor" stroke-linecap="square" stroke-miterlimit="10" stroke-width="2" d="M36 44h-7a1 1 0 01-1-1V29c0-.6.4-1 1-1h14c.6 0 1 .4 1 1v14c0 .6-.4 1-1 1h-3"/>
  <path stroke="currentColor" stroke-miterlimit="10" stroke-width="2" d="M36 44V34"/>
  <path stroke="currentColor" stroke-linecap="square" stroke-miterlimit="10" stroke-width="2" d="M33 37l3-3 3 3"/>
  <circle cx="12" cy="16" r="3" fill="currentColor"/>
</svg>
