<svg width="16" height="16" viewBox="0 0 16 16" fill="none" xmlns="http://www.w3.org/2000/svg">
<path d="M8 8C10.2091 8 12 6.20914 12 4C12 1.79086 10.2091 0 8 0C5.79086 0 4 1.79086 4 4C4 6.20914 5.79086 8 8 8Z" fill="white" fill-opacity="0.32"/>
<path d="M16 12H14V10H12V12H10V14H12V16H14V14H16V12Z" fill="white" fill-opacity="0.32"/>
<path d="M8 13C8 11.883 8.379 10.863 8.998 10.03C8.673 10.013 8.344 10 8 10C4.808 10 2.461 10.795 1.163 11.382C0.45 11.705 0 12.417 0 13.2V16H9.023C8.39 15.162 8 14.131 8 13Z" fill="white" fill-opacity="0.32"/>
</svg>
