<svg width="10" height="12" viewBox="0 0 10 12" fill="none" xmlns="http://www.w3.org/2000/svg">
<path d="M9.707 3.293L6.707 0.293C6.51951 0.105451 6.26519 5.66374e-05 6 0L1 0C0.734784 0 0.48043 0.105357 0.292893 0.292893C0.105357 0.48043 0 0.734784 0 1V11C0 11.2652 0.105357 11.5196 0.292893 11.7071C0.48043 11.8946 0.734784 12 1 12H9C9.26522 12 9.51957 11.8946 9.70711 11.7071C9.89464 11.5196 10 11.2652 10 11V4C9.99994 3.73481 9.89455 3.48049 9.707 3.293ZM2 10V2H5V5H8V10H2Z" fill="#7B8A95"/>
</svg>
