<svg width="12" height="12" viewBox="0 0 12 12" fill="none" xmlns="http://www.w3.org/2000/svg">
<g clip-path="url(#clip0)">
<path fill-rule="evenodd" clip-rule="evenodd" d="M3.08225 9.99351C3.90804 10.5793 4.88734 11 5.99701 11C9.49271 11 11.6946 6.82513 11.8843 6.46553L11.8941 6.447C11.9634 6.3082 11.9995 6.15516 11.9995 6C11.9995 5.84484 11.9634 5.6918 11.8941 5.553L11.8843 5.53447C11.8054 5.38498 11.3788 4.57613 10.6561 3.68197L9.53373 4.61727C9.75167 4.94535 9.93556 5.27056 10.0985 5.55869L10.0985 5.55873C10.1879 5.71687 10.271 5.86385 10.35 5.994C10.2753 6.116 10.1935 6.26633 10.1015 6.43545C9.49243 7.55552 8.43501 9.5 5.99701 9.5C5.28511 9.5 4.69288 9.33309 4.19422 9.06687L3.08225 9.99351ZM5.08194 8.3271C5.36534 8.4387 5.67404 8.5 5.99706 8.5C7.37736 8.5 8.49632 7.38071 8.49632 6C8.49632 5.83586 8.48051 5.67542 8.45032 5.52011L5.08194 8.3271ZM6.91617 3.67447L3.54462 6.4841C3.5139 6.32748 3.4978 6.16562 3.4978 6C3.4978 4.61929 4.61676 3.5 5.99706 3.5C6.32159 3.5 6.63168 3.56187 6.91617 3.67447ZM7.80374 2.93483C7.30386 2.66763 6.71029 2.5 5.99701 2.5C3.56147 2.5 2.50822 4.44057 1.90001 5.56117C1.80747 5.73167 1.72523 5.88319 1.65 6.006C1.7295 6.13717 1.81313 6.28536 1.90311 6.44481C2.06542 6.73242 2.24839 7.05666 2.46511 7.38369L1.34089 8.32054C0.581567 7.38081 0.149683 6.53469 0.105517 6.44816L0.104926 6.447C0.0356014 6.3082 -0.000488281 6.15516 -0.000488281 6C-0.000488281 5.84484 0.0356014 5.6918 0.104926 5.553L0.105517 5.55184C0.208719 5.34965 2.42889 1 5.99701 1C7.10809 1 8.08847 1.42176 8.91507 2.00872L7.80374 2.93483Z" fill="#7B8A95"/>
</g>
<defs>
<clipPath id="clip0">
<rect width="12" height="12" fill="white"/>
</clipPath>
</defs>
</svg>
