<svg xmlns="http://www.w3.org/2000/svg" viewBox="0 0 491.79 100"><defs><style>.cls-1{fill:#4038ff}</style></defs><g id="Layer_2" data-name="Layer 2"><g id="Layer_6" data-name="Layer 6"><path id="joystream-copy" d="M105.55 91.07v-8.25h13.63V29.25h9.1v54.3a7.53 7.53 0 0 1-7.53 7.52Zm34.5-23.27a22.3 22.3 0 0 1-6.58-16.41 22.95 22.95 0 1 1 45.89 0 23.13 23.13 0 0 1-39.31 16.41Zm6.67-27.17q-3.74 4-3.73 10.76t3.73 10.77a13.77 13.77 0 0 0 19.39 0q3.72-4 3.72-10.77t-3.72-10.76a13.75 13.75 0 0 0-19.39 0Zm33.5-11.38h9.53l9.72 36.37h4.34l10.61-36.37H224l-18.5 61.82h-9.54l5.16-16.36h-3.16a6.87 6.87 0 0 1-6.63-5.06Zm42.86 31h10a4.21 4.21 0 0 0 .3.69 13.52 13.52 0 0 0 1 1.57 9.17 9.17 0 0 0 5 3.56 13.81 13.81 0 0 0 4.46.69q4.75 0 6.92-1.48a4.36 4.36 0 0 0 2.24-3.75q0-2.09-2.86-3.3a34.93 34.93 0 0 0-6.92-2 75.09 75.09 0 0 1-8.14-2 15.76 15.76 0 0 1-6.93-4.29 11.1 11.1 0 0 1-2.86-7.9q0-5.22 4.77-9.12t12.5-3.92a24.61 24.61 0 0 1 8.66 1.43 14.92 14.92 0 0 1 5.71 3.48 25.55 25.55 0 0 1 3.16 4.09 12.39 12.39 0 0 1 1.6 3.51l.35 1.39h-9.52a6.43 6.43 0 0 0-.26-.6 12.41 12.41 0 0 0-.91-1.35 8.39 8.39 0 0 0-1.73-1.74 10.21 10.21 0 0 0-2.86-1.34 13.35 13.35 0 0 0-4.2-.61 10.08 10.08 0 0 0-5.8 1.39 4.11 4.11 0 0 0-2 3.47 3.39 3.39 0 0 0 2 2.91 15.35 15.35 0 0 0 5.24 1.65 65.54 65.54 0 0 1 6.67 1.52 60.54 60.54 0 0 1 6.67 2.3 12 12 0 0 1 5.15 4.13 11.52 11.52 0 0 1 2 6.9c0 3.71-1.66 6.87-5 9.51S249.63 75 243.86 75a25.84 25.84 0 0 1-9.14-1.52 16.29 16.29 0 0 1-6.1-3.69 27.47 27.47 0 0 1-3.42-4.34 13.15 13.15 0 0 1-1.69-3.65Zm42.84-22.75v-8.25h5.2V19.7h9.09v9.55h13.42v8.25h-13.42v29h13.85v8.25h-15.42a7.52 7.52 0 0 1-7.52-7.52V37.5Zm42.43 0-.1 37.21h-9.09l.09-38.88a6.59 6.59 0 0 1 6.59-6.58h20.25v8.25Zm23.91 30.3a22.63 22.63 0 0 1-6.5-16.41A22.4 22.4 0 0 1 332.3 35a22.51 22.51 0 0 1 31.95 0 22.4 22.4 0 0 1 6.54 16.36v3h-35.93a14 14 0 0 0 4.67 8.64 13 13 0 0 0 8.75 3.17 16.1 16.1 0 0 0 7.18-1.52 11.26 11.26 0 0 0 4.24-3.08l1.13-1.47h9.52a11.2 11.2 0 0 1-.6 1.56 26 26 0 0 1-2.21 3.43 23.17 23.17 0 0 1-4 4.34 22.66 22.66 0 0 1-6.32 3.43 24.67 24.67 0 0 1-8.91 1.56 21.75 21.75 0 0 1-16.05-6.62Zm4.23-20.75h26a12.32 12.32 0 0 0-4.11-7.33 12.73 12.73 0 0 0-8.87-3.09 13.4 13.4 0 0 0-8.36 2.82 12.32 12.32 0 0 0-4.66 7.6Zm42.78 21q-5.88-6.42-5.89-16.67t5.93-16.62a19.43 19.43 0 0 1 14.85-6.39 17.22 17.22 0 0 1 7.53 1.63 16.71 16.71 0 0 1 4.94 3.22L408 34.9h.44v-5.65h9.09v45.46h-9.09v-7.25H408a8.13 8.13 0 0 1-.56.73 20.7 20.7 0 0 1-1.69 1.7A17 17 0 0 1 403 72a18.31 18.31 0 0 1-8.83 2.39 19.61 19.61 0 0 1-14.9-6.33ZM423 74.71V29.25h9.09v6.08h.44c.11-.17.26-.42.43-.74a10.94 10.94 0 0 1 1.39-1.69 14.58 14.58 0 0 1 2.46-2.13 14.21 14.21 0 0 1 3.68-1.65 16.7 16.7 0 0 1 5-.74 18.31 18.31 0 0 1 5.76.87 13.32 13.32 0 0 1 4.16 2.09 20.62 20.62 0 0 1 2.55 2.38 7.83 7.83 0 0 1 1.39 2l.43.87h.43l.48-.91a11.9 11.9 0 0 1 1.6-1.95 18.25 18.25 0 0 1 2.86-2.48 16.81 16.81 0 0 1 4.33-2 18.61 18.61 0 0 1 5.88-.92q7.62 0 12 4.87t4.41 13.8v27.71h-9.07V47.49q0-10.86-9.52-10.86a10.48 10.48 0 0 0-8 3.56 12.82 12.82 0 0 0-3.29 9v25.52h-9.09V47.49q0-10.86-9.52-10.86a10.48 10.48 0 0 0-8 3.56 12.82 12.82 0 0 0-3.29 9v25.52ZM119.18 12.89V22h9.1v-9.11Zm266.19 27.74q-3.72 4-3.72 10.76t3.72 10.77a13.77 13.77 0 0 0 19.39 0q3.74-4 3.73-10.77t-3.73-10.76a13.75 13.75 0 0 0-19.39 0Z"/><path class="cls-1" d="M52.73 0h9.09v42.7a40.74 40.74 0 0 1-10.3 27.11 48.26 48.26 0 0 0 1.21-10.75ZM23.58 74.55a24.45 24.45 0 0 1-18.69 9.08l2.73-9.08ZM29.09 58.19v.91a24.3 24.3 0 0 1-1.4 8.17H9.79l2.71-9.08ZM69.09 0h9.09v26.37a40.78 40.78 0 0 1-10.3 27.12 48.42 48.42 0 0 0 1.21-10.76Z"/><path class="cls-1" d="M45.45 0v59.1A41 41 0 0 1 4.54 100H0l2.71-9.09h1.83A31.84 31.84 0 0 0 36.36 59.1V0Z"/></g></g></svg>
