<svg width="324" height="325" viewBox="0 0 324 325" fill="none" xmlns="http://www.w3.org/2000/svg">
<g clip-path="url(#clip0_1801_77973)">
<path d="M54 216.799V222.802C27.854 223.58 6.80046 244.633 6.02229 270.779H0.0198784C0.801556 241.319 24.54 217.581 54 216.799Z" fill="#4038FF"/>
<path d="M12.0254 270.779C12.7991 247.948 31.1681 229.579 54 228.805V234.809C34.4823 235.577 18.7972 251.262 18.0294 270.779H12.0254Z" fill="#4038FF"/>
<path d="M24 270.779C24 254.211 37.4315 240.779 54 240.779V246.779C40.7452 246.779 30 257.525 30 270.779H24Z" fill="#4038FF"/>
<path d="M36 270.779C36 260.838 44.0589 252.779 54 252.779V258.779C47.3726 258.779 42 264.152 42 270.779H36Z" fill="#4038FF"/>
<path d="M48 270.779C48 267.466 50.6863 264.779 54 264.779V270.779H48Z" fill="#4038FF"/>
</g>
<g clip-path="url(#clip1_1801_77973)">
<path d="M0 216.759V210.757C26.146 209.979 47.1995 188.925 47.9777 162.779H53.9801C53.1984 192.239 29.46 215.978 0 216.759Z" fill="#BBD9F6" fill-opacity="0.13"/>
<path d="M41.9746 162.779C41.2009 185.611 22.8319 203.98 0 204.754V198.75C19.5177 197.982 35.2028 182.297 35.9706 162.779H41.9746Z" fill="#BBD9F6" fill-opacity="0.13"/>
<path d="M30 162.779C30 179.348 16.5685 192.779 0 192.779V186.779C13.2548 186.779 24 176.034 24 162.779H30Z" fill="#BBD9F6" fill-opacity="0.13"/>
<path d="M18 162.779C18 172.72 9.94113 180.779 0 180.779V174.779C6.62742 174.779 12 169.407 12 162.779H18Z" fill="#BBD9F6" fill-opacity="0.13"/>
<path d="M6 162.779C6 166.093 3.31371 168.779 0 168.779V162.779H6Z" fill="#BBD9F6" fill-opacity="0.13"/>
</g>
<g clip-path="url(#clip2_1801_77973)">
<path d="M102 270.779L102 324.779H108L108 270.779L102 270.779Z" fill="#BBD9F6" fill-opacity="0.13"/>
<path d="M54 270.779L54 324.779H60L60 270.779L54 270.779Z" fill="#BBD9F6" fill-opacity="0.13"/>
<path d="M66 324.779L66 270.779L72 270.779L72 324.779L66 324.779Z" fill="#BBD9F6" fill-opacity="0.13"/>
<path d="M90 270.779L90 324.779H96L96 270.779L90 270.779Z" fill="#BBD9F6" fill-opacity="0.13"/>
<path d="M78 324.779L78 270.779L84 270.779L84 324.779H78Z" fill="#BBD9F6" fill-opacity="0.13"/>
</g>
<g clip-path="url(#clip3_1801_77973)">
<path d="M102 0.779299L102 54.7793L108 54.7793L108 0.779299L102 0.779299Z" fill="#BBD9F6" fill-opacity="0.13"/>
<path d="M54 0.779297L54 54.7793L60 54.7793L60 0.779297L54 0.779297Z" fill="#BBD9F6" fill-opacity="0.13"/>
<path d="M66 54.7793L66 0.779297L72 0.779298L72 54.7793L66 54.7793Z" fill="#BBD9F6" fill-opacity="0.13"/>
<path d="M90 0.779298L90 54.7793L96 54.7793L96 0.779299L90 0.779298Z" fill="#BBD9F6" fill-opacity="0.13"/>
<path d="M78 54.7793L78 0.779298L84 0.779298L84 54.7793L78 54.7793Z" fill="#BBD9F6" fill-opacity="0.13"/>
</g>
<g clip-path="url(#clip4_1801_77973)">
<path d="M162 276.779L216 276.779L216 270.779L162 270.779L162 276.779Z" fill="#BBD9F6" fill-opacity="0.13"/>
<path d="M162 324.779L216 324.779L216 318.779L162 318.779L162 324.779Z" fill="#BBD9F6" fill-opacity="0.13"/>
<path d="M216 312.779L162 312.779L162 306.779L216 306.779L216 312.779Z" fill="#BBD9F6" fill-opacity="0.13"/>
<path d="M162 288.779L216 288.779L216 282.779L162 282.779L162 288.779Z" fill="#BBD9F6" fill-opacity="0.13"/>
<path d="M216 300.779L162 300.779L162 294.779L216 294.779L216 300.779Z" fill="#BBD9F6" fill-opacity="0.13"/>
</g>
<g clip-path="url(#clip5_1801_77973)">
<path d="M108 168.779L162 168.779L162 162.779L108 162.779L108 168.779Z" fill="#BBD9F6" fill-opacity="0.13"/>
<path d="M108 216.779L162 216.779L162 210.779L108 210.779L108 216.779Z" fill="#BBD9F6" fill-opacity="0.13"/>
<path d="M162 204.779L108 204.779L108 198.779L162 198.779L162 204.779Z" fill="#BBD9F6" fill-opacity="0.13"/>
<path d="M108 180.779L162 180.779L162 174.779L108 174.779L108 180.779Z" fill="#BBD9F6" fill-opacity="0.13"/>
<path d="M162 192.779L108 192.779L108 186.779L162 186.779L162 192.779Z" fill="#BBD9F6" fill-opacity="0.13"/>
</g>
<path fill-rule="evenodd" clip-rule="evenodd" d="M53.8848 158.55V162.779H58.1149L107.885 113.01V108.779H103.655L53.8848 158.55ZM107.885 121.739V130.18L75.2851 162.779H66.8448L107.885 121.739ZM107.885 146.969V138.479L83.5848 162.779H92.0749L107.885 146.969ZM107.885 162.779H100.325L107.885 155.219V162.779ZM94.9248 108.779H86.4841L53.8848 141.378V149.819L94.9248 108.779ZM69.6947 108.779H78.1848L53.8848 133.079L53.8848 124.59L69.6947 108.779ZM53.8848 116.339L61.4448 108.779H53.8848V116.339Z" fill="#BBD9F6" fill-opacity="0.13"/>
<path d="M54 54.7793H48V60.7793H54V54.7793Z" fill="white"/>
<path d="M36 84.7793H42L42 78.7793H36V84.7793Z" fill="white"/>
<path d="M30 84.7793V78.7793H24V84.7793H30Z" fill="white"/>
<path d="M30 90.7793L30 84.7793H36L36 90.7793H42V96.7793H36V90.7793H30Z" fill="white"/>
<path d="M24 90.7793V96.7793H30V90.7793H24Z" fill="white"/>
<path d="M18 90.7793H24L24 84.7793H18V90.7793Z" fill="white"/>
<path d="M18 78.7793H12V84.7793H18V78.7793Z" fill="white"/>
<path d="M18 72.7793H12V66.7793H18V72.7793Z" fill="white"/>
<path d="M18 72.7793L18 78.7793H24V72.7793H18Z" fill="white"/>
<path d="M18 90.7793V96.7793H12V90.7793H18Z" fill="white"/>
<path fill-rule="evenodd" clip-rule="evenodd" d="M42 60.7793H48V66.7793H54V72.7793H48V78.7793H54V84.7793H48V90.7793H54V96.7793H48V102.779H54V108.779H48V102.779H42V108.779H36V102.779H30V108.779H24V102.779H18V108.779H12V102.779H6V108.779H0V102.779H6V96.7793H0V90.7793H6V84.7793H0V78.7793H6L6 72.7793H0V66.7793L6 66.7793V60.7793H0V54.7793H6V60.7793H12V54.7793H18V60.7793H24V54.7793H30V60.7793H36V54.7793H42V60.7793ZM42 66.7793V60.7793H36V66.7793H42ZM42 72.7793V66.7793H48V72.7793H42ZM36 72.7793V66.7793H30V72.7793H36ZM36 78.7793V72.7793H42V78.7793H48L48 84.7793H42V90.7793H48V96.7793H42V102.779H36V96.7793H30V102.779H24V96.7793H18V102.779H12V96.7793H6V90.7793H12V84.7793H6V78.7793H12L12 72.7793H6V66.7793H12V60.7793H18V66.7793H24L24 60.7793L30 60.7793L30 66.7793H24V72.7793H30V78.7793H36Z" fill="white"/>
<g clip-path="url(#clip6_1801_77973)">
<path d="M324 270.799C294.54 271.581 270.801 295.319 270.02 324.779L324 324.779L324 270.799Z" fill="#BBD9F6" fill-opacity="0.13"/>
</g>
<g clip-path="url(#clip7_1801_77973)">
<path d="M270 216.799V222.802C243.854 223.58 222.8 244.633 222.022 270.779H216.02C216.802 241.319 240.54 217.581 270 216.799Z" fill="white"/>
<path d="M228.025 270.779C228.799 247.948 247.168 229.579 270 228.805V234.809C250.482 235.577 234.797 251.262 234.029 270.779H228.025Z" fill="white"/>
<path d="M240 270.779C240 254.211 253.431 240.779 270 240.779V246.779C256.745 246.779 246 257.525 246 270.779H240Z" fill="white"/>
<path d="M252 270.779C252 260.838 260.059 252.779 270 252.779V258.779C263.373 258.779 258 264.152 258 270.779H252Z" fill="white"/>
<path d="M264 270.779C264 267.466 266.686 264.779 270 264.779V270.779H264Z" fill="white"/>
</g>
<defs>
<clipPath id="clip0_1801_77973">
<rect width="54" height="54" fill="white" transform="matrix(-1 0 0 1 54 216.779)"/>
</clipPath>
<clipPath id="clip1_1801_77973">
<rect width="54" height="54" fill="white" transform="matrix(1 0 0 -1 0 216.779)"/>
</clipPath>
<clipPath id="clip2_1801_77973">
<rect width="54" height="54" fill="white" transform="matrix(4.37114e-08 -1 -1 -4.37114e-08 108 324.779)"/>
</clipPath>
<clipPath id="clip3_1801_77973">
<rect width="54" height="54" fill="white" transform="matrix(4.37114e-08 -1 -1 -4.37114e-08 108 54.7793)"/>
</clipPath>
<clipPath id="clip4_1801_77973">
<rect width="54" height="54" fill="white" transform="matrix(-1 0 0 1 216 270.779)"/>
</clipPath>
<clipPath id="clip5_1801_77973">
<rect width="54" height="54" fill="white" transform="matrix(-1 0 0 1 162 162.779)"/>
</clipPath>
<clipPath id="clip6_1801_77973">
<rect width="54" height="54" fill="white" transform="matrix(-1 0 0 1 324 270.779)"/>
</clipPath>
<clipPath id="clip7_1801_77973">
<rect width="54" height="54" fill="white" transform="matrix(-1 0 0 1 270 216.779)"/>
</clipPath>
</defs>
</svg>
