
<svg width="162" height="217" viewBox="0 0 162 217" fill="none" xmlns="http://www.w3.org/2000/svg">
<g clip-path="url(#clip0_1804_73140)">
<path d="M162 0.464355V6.46677C135.854 7.24494 114.8 28.2985 114.022 54.4445H108.02C108.802 24.9845 132.54 1.24603 162 0.464355Z" fill="#BBD9F6" fill-opacity="0.13"/>
<path d="M120.025 54.4445C120.799 31.6126 139.168 13.2435 162 12.4699V18.4739C142.482 19.2417 126.797 34.9268 126.029 54.4445H120.025Z" fill="#BBD9F6" fill-opacity="0.13"/>
<path d="M132 54.4445C132 37.8759 145.431 24.4445 162 24.4445V30.4445C148.745 30.4445 138 41.1896 138 54.4445H132Z" fill="#BBD9F6" fill-opacity="0.13"/>
<path d="M144 54.4445C144 44.5034 152.059 36.4445 162 36.4445V42.4445C155.373 42.4445 150 47.8171 150 54.4445H144Z" fill="#BBD9F6" fill-opacity="0.13"/>
<path d="M156 54.4445C156 51.1308 158.686 48.4445 162 48.4445V54.4445H156Z" fill="#BBD9F6" fill-opacity="0.13"/>
</g>
<g clip-path="url(#clip1_1804_73140)">
<path d="M60 216.444L60 162.444L54 162.444L54 216.444L60 216.444Z" fill="#BBD9F6" fill-opacity="0.13"/>
<path d="M108 216.444L108 162.444L102 162.444L102 216.444L108 216.444Z" fill="#BBD9F6" fill-opacity="0.13"/>
<path d="M96 162.444L96 216.444L90 216.444L90 162.444L96 162.444Z" fill="#BBD9F6" fill-opacity="0.13"/>
<path d="M72 216.444L72 162.444H66L66 216.444L72 216.444Z" fill="#BBD9F6" fill-opacity="0.13"/>
<path d="M84 162.444L84 216.444L78 216.444L78 162.444L84 162.444Z" fill="#BBD9F6" fill-opacity="0.13"/>
</g>
<g clip-path="url(#clip2_1804_73140)">
<path d="M54 48.4443L-2.62268e-07 48.4443L0 54.4443L54 54.4443L54 48.4443Z" fill="#BBD9F6" fill-opacity="0.13"/>
<path d="M54 0.444336L-2.36041e-06 0.444338L-2.09815e-06 6.44434L54 6.44434L54 0.444336Z" fill="#BBD9F6" fill-opacity="0.13"/>
<path d="M-1.83588e-06 12.4443L54 12.4443L54 18.4443L-1.57361e-06 18.4443L-1.83588e-06 12.4443Z" fill="#BBD9F6" fill-opacity="0.13"/>
<path d="M54 36.4443L-7.86805e-07 36.4443L-5.24537e-07 42.4443L54 42.4443L54 36.4443Z" fill="#BBD9F6" fill-opacity="0.13"/>
<path d="M-1.31134e-06 24.4443L54 24.4443L54 30.4443L-1.04907e-06 30.4443L-1.31134e-06 24.4443Z" fill="#BBD9F6" fill-opacity="0.13"/>
</g>
<path fill-rule="evenodd" clip-rule="evenodd" d="M108.115 58.6741V54.4443H103.885L54.1152 104.214V108.444H58.3449L108.115 58.6741ZM54.1152 95.4843V87.0435L86.7149 54.4443H95.1552L54.1152 95.4843ZM54.1152 70.2546V78.7443L78.4152 54.4443L69.9251 54.4443L54.1152 70.2546ZM54.1152 54.4443H61.6752L54.1152 62.0043V54.4443ZM67.0752 108.444H75.5159L108.115 75.8452V67.4043L67.0752 108.444ZM92.3053 108.444H83.8152L108.115 84.1443V92.6341L92.3053 108.444ZM108.115 100.884L100.555 108.444H108.115V100.884Z" fill="#BBD9F6" fill-opacity="0.13"/>
<path d="M108 162.444H114V156.444H108V162.444Z" fill="white"/>
<path d="M126 132.444H120V138.444H126V132.444Z" fill="white"/>
<path d="M132 132.444V138.444H138V132.444H132Z" fill="white"/>
<path d="M132 126.444V132.444H126V126.444H120V120.444H126V126.444H132Z" fill="white"/>
<path d="M138 126.444V120.444H132V126.444H138Z" fill="white"/>
<path d="M144 126.444H138V132.444H144V126.444Z" fill="white"/>
<path d="M144 138.444H150V132.444H144V138.444Z" fill="white"/>
<path d="M144 144.444H150V150.444H144V144.444Z" fill="white"/>
<path d="M144 144.444V138.444H138V144.444H144Z" fill="white"/>
<path d="M144 126.444V120.444H150V126.444H144Z" fill="white"/>
<path fill-rule="evenodd" clip-rule="evenodd" d="M120 156.444H114V150.444H108V144.444H114V138.444H108V132.444H114V126.444H108V120.444H114L114 114.444H108V108.444H114V114.444H120L120 108.444H126V114.444H132V108.444H138V114.444H144V108.444H150V114.444H156V108.444H162V114.444H156V120.444H162V126.444H156V132.444H162V138.444H156V144.444H162V150.444H156V156.444H162V162.444H156V156.444H150V162.444H144V156.444H138V162.444H132V156.444H126V162.444H120V156.444ZM120 150.444V156.444H126V150.444H120ZM120 144.444V150.444H114V144.444H120ZM126 144.444V150.444H132V144.444H126ZM126 138.444V144.444H120V138.444H114V132.444H120V126.444H114V120.444H120V114.444H126V120.444H132V114.444H138V120.444H144V114.444H150V120.444H156V126.444H150V132.444H156V138.444H150V144.444H156V150.444H150V156.444H144V150.444H138V156.444H132V150.444H138V144.444H132V138.444H126Z" fill="white"/>
<defs>
<clipPath id="clip0_1804_73140">
<rect width="54" height="54" fill="white" transform="matrix(-1 0 0 1 162 0.444336)"/>
</clipPath>
<clipPath id="clip1_1804_73140">
<rect width="54" height="54" fill="white" transform="matrix(-4.37114e-08 1 1 4.37114e-08 54 162.444)"/>
</clipPath>
<clipPath id="clip2_1804_73140">
<rect width="54" height="54" fill="white" transform="matrix(1 0 0 -1 0 54.4443)"/>
</clipPath>
</defs>
</svg>
